<svg width="78" height="68" viewBox="0 0 78 68" fill="none" xmlns="http://www.w3.org/2000/svg">
<path d="M76.6113 19.1936C75.4277 14.425 72.8108 10.1342 69.1134 6.90019C65.6196 3.58744 61.1722 1.45886 56.4016 0.816178C52.3445 0.366643 48.2523 1.26549 44.7565 3.374C41.2608 5.48251 38.5558 8.68347 37.0591 12.4828C35.4454 10.2654 33.3624 8.43156 30.9586 7.11232C28.7156 5.9117 26.253 5.17745 23.7189 4.95375C21.1849 4.73006 18.6318 5.02154 16.2133 5.81066C11.6861 7.44512 7.78586 10.4601 5.06274 14.4305C2.1229 18.3675 0.464192 23.1136 0.311471 28.0255C0.22354 34.2863 2.15309 40.4089 5.81446 45.4869C9.66945 50.6357 15.5098 54.5117 21.3501 57.2404C31.1803 61.8299 44.0849 67.509 44.0849 67.509C44.0849 67.509 53.5489 58.7252 62.1937 52.1784C67.3305 48.3216 72.1974 43.279 74.9248 37.4263C77.4267 31.6869 78.018 25.2949 76.6113 19.1936Z" fill="#EBEBEB"/>
</svg>
