<?xml version="1.0" encoding="utf-8"?>
<!-- Generator: Adobe Illustrator 24.0.1, SVG Export Plug-In . SVG Version: 6.00 Build 0)  -->
<svg version="1.1" id="Слой_1" xmlns="http://www.w3.org/2000/svg" xmlns:xlink="http://www.w3.org/1999/xlink" x="0px" y="0px"
	 viewBox="0 0 407 436" style="enable-background:new 0 0 407 436;" xml:space="preserve">
<style type="text/css">
	.st0{fill:#E0E0E0;}
	.st1{fill:#FFFFFF;}
	.st2{fill:#FAFAFA;}
	.st3{fill:#066FA4;}
	.st4{fill:#263238;}
	.st5{opacity:0.3;}
	.st6{fill:#455A64;}
	.st7{fill:#FFBE9D;}
</style>
<path class="st0" d="M78.6,339.5c0.4-6.5,0.4-13.1,0.1-19.6c0-0.1,0-0.1-0.1-0.1l-0.1-0.1c0,0-0.1,0-0.1,0.1l-0.1,0.1
	c-0.4,6.5-0.4,13.1,0.1,19.6v0.1h0.1h0.1V339.5L78.6,339.5z"/>
<path class="st0" d="M118.5,329.7c0,0.4-0.1,0.8-0.3,1.1c-0.2,0.3-0.5,0.6-0.9,0.7c-0.4,0.2-0.8,0.2-1.2,0.1c-0.4-0.1-0.7-0.3-1-0.6
	c-0.3-0.3-0.5-0.6-0.5-1c-0.1-0.4,0-0.8,0.1-1.2c0.2-0.4,0.4-0.7,0.7-0.9c0.3-0.2,0.7-0.3,1.1-0.3c0.3,0,0.5,0.1,0.8,0.2
	c0.2,0.1,0.5,0.3,0.7,0.4c0.2,0.2,0.3,0.4,0.4,0.7C118.4,329.1,118.5,329.4,118.5,329.7L118.5,329.7z"/>
<path class="st0" d="M104.7,315.5c-0.3-2.5-0.3-5-0.3-7.5c-0.1-2.5,0-5,0.3-7.5c0.2,2.5,0.3,5,0.3,7.5
	C105.1,310.5,105,313,104.7,315.5L104.7,315.5z"/>
<path class="st0" d="M106.9,315.5c-0.3-2.5-0.3-5-0.3-7.5c-0.1-2.5,0-5,0.3-7.5c0.2,2.5,0.3,5,0.3,7.5
	C107.3,310.5,107.2,313,106.9,315.5L106.9,315.5z"/>
<path class="st0" d="M70.1,315.5c-0.2-2.5-0.3-5-0.3-7.5c-0.1-2.5,0-5,0.3-7.5c0.3,2.5,0.3,5,0.3,7.5S70.4,313,70.1,315.5
	L70.1,315.5z"/>
<path class="st0" d="M72.3,315.5c-0.3-2.5-0.3-5-0.3-7.5c-0.1-2.5,0-5,0.3-7.5c0.3,2.5,0.3,5,0.3,7.5
	C72.7,310.5,72.6,313,72.3,315.5L72.3,315.5z"/>
<path class="st0" d="M125.4,299.3c-0.6,0-1.2-0.2-1.7-0.5s-0.9-0.8-1.2-1.4c-0.2-0.6-0.3-1.2-0.2-1.8c0.1-0.6,0.4-1.2,0.8-1.6
	s1-0.7,1.6-0.9c0.6-0.1,1.2-0.1,1.8,0.2c0.6,0.2,1.1,0.6,1.4,1.1c0.3,0.5,0.5,1.1,0.5,1.7c0,0.4-0.1,0.8-0.2,1.2
	c-0.2,0.4-0.4,0.7-0.7,1c-0.3,0.3-0.6,0.5-1,0.7C126.2,299.2,125.8,299.3,125.4,299.3L125.4,299.3z"/>
<path class="st1" d="M92.3,125.6c3.5,5.6,7.6,10.7,12.2,15.3L92.3,125.6z"/>
<path class="st0" d="M104.5,140.9c-0.8-0.6-1.5-1.2-2.1-1.9c-3.2-3.3-6.2-7-8.7-10.9c-0.6-0.8-1-1.6-1.4-2.5
	c0.6,0.7,1.2,1.5,1.7,2.3c1,1.4,2.5,3.4,4.2,5.5s3.3,4,4.5,5.3C103.4,139.4,104,140.2,104.5,140.9z"/>
<path class="st2" d="M165.3,151.4c0.1-0.1,0.3-0.3,0.4-0.4l1.1-1c1-0.8,2.4-1.8,3.9-3l0.6-0.4v0.2c-0.8-1.5-1.6-2.9-2.1-3.9
	c-0.3-0.5-0.6-1.1-0.8-1.6c0.4,0.5,0.7,1,1,1.5c0.6,1,1.3,2.3,2.2,3.9l0.1,0.1l-0.1,0.1l-0.6,0.4c-1.5,1.1-2.9,2.2-3.9,2.9
	c-0.5,0.4-1,0.7-1.2,0.8C165.7,151.2,165.5,151.3,165.3,151.4L165.3,151.4z"/>
<path class="st1" d="M167.4,214.6c-0.6-1-1.1-2-1.4-3c-0.4-1-0.7-2.1-0.8-3.3c0.1,0,0.5,1.4,1.1,3.2
	C166.9,213.2,167.5,214.6,167.4,214.6z"/>
<path class="st3" d="M61.1,401.2l-4.3,32.1l-17.4-2l4.3-32.2L61.1,401.2z"/>
<path class="st4" d="M48.3,431.1c-0.1,0,0.8-7.1,2.1-15.7c1.3-8.7,2.4-15.7,2.6-15.6c0.1,0-0.8,7.1-2,15.7
	C49.6,424.1,48.5,431.1,48.3,431.1z"/>
<path class="st4" d="M57,431.1l-17.4-2l-0.3,2.3l17.4,2L57,431.1z"/>
<path class="st4" d="M40.7,421c0.1-0.2,0.3-0.5,0.5-0.6c0.5-0.5,1.1-1,1.8-1.4c1-0.6,2-1.2,3.1-1.5c1.9-0.6,3.9-0.6,5.8,0
	c1.9,0.6,3.5,1.9,4.7,3.5c0.4,0.6,0.7,1.3,1,2.1c0.1,0.3,0.2,0.5,0.2,0.8c-0.4-0.9-0.9-1.8-1.5-2.7c-1.5-1.9-3.7-3.2-6.1-3.6
	c-2.4-0.3-4.9,0.3-6.9,1.7C41.6,420.2,40.8,421.1,40.7,421z"/>
<g class="st5">
	<path d="M59.4,414.2l-0.5,2.8l-17.5-1.6l0.4-2.9L59.4,414.2z"/>
</g>
<path class="st3" d="M116.7,403.3l-2,32.4L97.3,435l1.9-32.4L116.7,403.3z"/>
<path class="st4" d="M106.2,434.1c-0.2,0,0.3-7.1,0.9-15.8c0.6-8.7,1.3-15.8,1.4-15.8s-0.3,7.1-0.9,15.8
	C107,427.1,106.3,434.1,106.2,434.1z"/>
<path class="st4" d="M114.9,433.5l-17.5-0.8l-0.1,2.3l17.5,0.7L114.9,433.5z"/>
<path class="st4" d="M97.9,424.6c0,0,0.1-0.3,0.5-0.7c0.5-0.6,1.1-1.1,1.7-1.6c0.9-0.7,1.9-1.3,2.9-1.7c1.3-0.5,2.7-0.8,4.1-0.7
	c1.3,0.1,2.5,0.4,3.7,1s2.1,1.4,3,2.4c0.5,0.6,0.9,1.2,1.1,1.9c0.1,0.3,0.2,0.5,0.2,0.8c-0.5-0.9-1-1.7-1.7-2.5
	c-1.6-1.8-3.9-3-6.4-3.1c-2.4-0.1-4.8,0.7-6.8,2.2C98.7,423.8,97.9,424.7,97.9,424.6z"/>
<g class="st5">
	<path d="M116,416.4l-0.3,2.9L98.2,419l0.2-2.9L116,416.4z"/>
</g>
<path class="st4" d="M51.3,252.1c-0.5,0-2.1,21.4-1.7,28.4c0.4,7,0.8,61.8,0.8,61.8s-3.7,2.5-3.7,5.8s-6.6,63.8-6.6,63.8l19.9,3.3
	c0,0,18.2-65.9,18.6-75s13.3-71.7,13.3-71.7s4.1,59.3,4.1,68.4s-0.2,79.3-0.2,79.3s14.8,2.1,21.9,0.4c0,0,6.1-52.8,6.1-70.2v-28.2
	c0,0,7-32.8,10.4-49.3c3.3-16.5,0-32.4,0-32.4l-59.7-7.8L51.3,252.1z"/>
<path class="st6" d="M66.6,347c-2.5-0.6-5-0.9-7.6-0.8c-2.5,0.3-5,1-7.3,2.1c0.6-0.5,1.2-0.9,1.9-1.2c3.4-1.5,7.2-1.9,10.8-1
	C65.2,346.4,66,346.6,66.6,347z"/>
<path class="st6" d="M67.9,342c-1.9,0.2-3.8,0.2-5.6,0.1c-1.9,0-3.8-0.1-5.6-0.4c1.9-0.2,3.8-0.2,5.6-0.1
	C64.1,341.5,66,341.7,67.9,342z"/>
<path class="st6" d="M108.7,354.3c0,0-0.2-0.2-0.6-0.5c-0.5-0.5-1-1-1.4-1.5c-2.9-3.6-4.6-8-4.8-12.6c0-0.7,0-1.4,0-2.1
	c0-0.3,0-0.5,0.1-0.8c0.1,0,0.1,1.1,0.2,2.8c0.4,4.5,2.1,8.8,4.7,12.4C108,353.5,108.8,354.3,108.7,354.3z"/>
<path class="st6" d="M92.6,266.1c-0.1,0.3-0.3,0.6-0.5,0.8l-0.8,0.8c-0.3,0.3-0.7,0.6-1.2,0.9c-2.3,1.5-4.9,2.7-7.7,3.4
	c-2.7,0.8-5.5,1-8.3,0.7c-0.3,0-0.5-0.1-0.8-0.1l-0.7-0.2c-0.4-0.1-0.7-0.2-1-0.4c-0.3-0.1-0.6-0.3-0.8-0.5c1.1,0.4,2.2,0.6,3.3,0.8
	c2.7,0.2,5.5,0,8.1-0.8c2.7-0.7,5.2-1.8,7.6-3.2c0.4-0.3,0.8-0.6,1.2-0.8l0.8-0.7C92.1,266.5,92.3,266.3,92.6,266.1z"/>
<path class="st7" d="M165,100.3c0-2.9,0.6-5.7,1.9-8.3c2-4,8-10.8,8-10.8s8.3-6.5,9.2-6c0.9,0.4,1.1,1.4,0,2.4s-5.6,6.2-5.6,6.2
	s1.9,0.7,1.9,2c0,0.7-0.1,1.3-0.4,1.9c0,0,1.7,0.8,2.1,1.8c0.3,0.6,0.4,1.2,0.4,1.9c0.3,0.1,0.6,0.3,0.8,0.5
	c0.2,0.3,0.3,0.6,0.3,0.9c0.1,0.8,0,1.6-0.1,2.4c0,0-3.2,3.6-4.4,4c-1.3,0.4-3,1-3,1l-1.1,1.5v4.1L165,100.3z"/>
<path class="st6" d="M37.7,132.1c0,0-30.1,53.1-30.2,61.4c-0.2,14.8,41.8,26.8,41.8,26.8l5.9-16.9l-21.4-14.8l15.6-33.9L37.7,132.1z
	"/>
<path class="st6" d="M37.7,132.1c3.9-3,8.6-5,13.5-5.6c8.2-1,22.8-1.2,22.8-1.2s39.7-8.7,42.7-7s6.9,12.4,7.7,17.4
	c0.8,4.9-3.4,52.2-3.4,52.2s17.8,55,16.5,56.7c-0.6,0.8-22,8.4-43.7,10.1l-1.2-16.1l-2.6,15c-20.1,1.5-43,2.2-43,2.2
	s15.7-54.5,15.2-56C61.7,198.4,35.5,137.4,37.7,132.1z"/>
<path class="st6" d="M116.7,118.4c0,0,14.6,8.2,16.3,8.1c1.7-0.2,3.4-3.1,5.7-0.8l12.8-2.3l12.8-23.3c4.7,1.8,9.1,4.5,12.8,7.8
	c0,0-7.1,24.3-11.5,28s-21.3,16.3-44.9,16.4l-2.9-19.4L116.7,118.4z"/>
<path class="st4" d="M131.9,146.9c-0.1,0,0.6-1.1,1.4-2.9c0.5-1.1,0.9-2.2,1.2-3.3c0.4-1.4,0.6-2.8,0.7-4.2c0.1-1.4,0.1-2.8-0.1-4.2
	c-0.1-1.2-0.4-2.3-0.7-3.4c-0.5-1.9-1.1-3-1-3.1c0.2,0.2,0.3,0.5,0.4,0.8c0.4,0.7,0.7,1.4,0.9,2.2c0.4,1.1,0.6,2.3,0.8,3.5
	c0.2,1.4,0.2,2.9,0.1,4.3c-0.1,1.4-0.4,2.9-0.8,4.3c-0.3,1.1-0.8,2.2-1.3,3.3c-0.3,0.7-0.8,1.4-1.2,2
	C132.1,146.7,131.9,146.9,131.9,146.9z"/>
<path class="st4" d="M156.8,128.4c-2.3-1.1-4.2-2.8-5.5-5c1,0.8,1.9,1.6,2.7,2.5C155,126.7,155.9,127.5,156.8,128.4z"/>
<path class="st7" d="M49.6,219.3c0,0,0.6,2.2,4.1-0.3c0,0,4.8-1,7.3-3.3c2.5-2.4,2.9-3.9,4.6-4c1.7-0.1,6.7-0.8,6.9-0.8
	c0.1,0,1.4-2.8-0.2-3.3s-8.5,0.2-8.5,0.2l-2,0.1l-0.3-2.8l0.4-2.5c0,0-4.3,1.6-4.2,2.8c0,0-3-0.9-3.4,1.1L49.6,219.3z"/>
<path class="st4" d="M52,174.4c-0.2-0.3-0.4-0.7-0.5-1c-0.3-0.7-0.8-1.6-1.3-2.9c-1.1-2.4-2.4-5.9-3.9-9.6c-1.4-3.8-2.5-7.3-3.2-9.9
	c-0.4-1.3-0.6-2.3-0.8-3c-0.1-0.4-0.2-0.8-0.2-1.1c0.2,0.3,0.3,0.7,0.4,1.1l1,3c0.8,2.5,1.9,6,3.3,9.8c1.4,3.8,2.7,7.2,3.7,9.7
	l1.2,2.9C51.8,173.6,51.9,174,52,174.4z"/>
<path class="st4" d="M101.1,202.1c-0.2,0.4-0.4,0.8-0.7,1.2c-0.5,0.8-1.2,1.8-2.2,3.1c-2.6,3.3-5.5,6.4-8.8,9.1
	c-3.3,2.7-6.8,5-10.6,6.9c-1.5,0.7-2.7,1.2-3.5,1.6c-0.4,0.2-0.9,0.3-1.3,0.5c0.4-0.2,0.8-0.5,1.2-0.6c0.8-0.4,2-1,3.4-1.7
	c7.4-3.9,13.9-9.3,19.2-15.8c1-1.3,1.8-2.3,2.3-3C100.5,202.8,100.8,202.4,101.1,202.1z"/>
<path class="st4" d="M35.1,188.5c0,0.1-2.3,0.6-5,1.6s-4.7,2.2-4.8,2.1c1.4-1.1,3-2,4.6-2.5C31.6,189,33.3,188.6,35.1,188.5z"/>
<g class="st5">
	<path d="M46.5,161c-3.3-1.3-6.2-5.3-6.8-8.7c-0.7-3.5,0.7-7,1.2-10.5C42.4,148.3,44.3,154.7,46.5,161"/>
</g>
<g class="st5">
	<path d="M77,227.4c2.7,0.9,5.6,1.3,8.4,1s5.6-1.2,8-2.6s4.6-3.4,6.2-5.7s2.8-5,3.3-7.8C95.1,217.6,85.8,223.5,77,227.4z"/>
</g>
<path class="st4" d="M123.8,129.4c0.1,0.3,0.2,0.7,0.3,1c0.1,0.7,0.3,1.6,0.5,2.9c0.8,6.3,0.7,12.7-0.4,19c-0.2,1.2-0.4,2.2-0.6,2.8
	c-0.1,0.3-0.2,0.7-0.3,1c-0.1,0,0.2-1.5,0.5-3.9c0.9-6.3,1-12.6,0.4-18.9C123.9,130.9,123.7,129.4,123.8,129.4z"/>
<g class="st5">
	<path d="M107.1,112.5l-46.3,71.3c11.3,5.7,25.5,8.5,36.2,1.7c3,3.6,9.3,2.3,12.2-1.4c2.9-3.7,3.2-8.8,3.2-13.5
		C112.6,151.2,109.8,131.9,107.1,112.5z"/>
</g>
<path class="st4" d="M88.5,62c-5-0.8-10.1,1.3-13.8,4.8c-3.7,3.4-6.2,8-8.2,12.6c-3.9,9-6.1,18.6-8.3,28.2
	c-3.3,14.1-6.6,28.3-7.5,42.7c-0.9,14.5,3.4,23,9.6,36l22-3.1V179l3,4.2l8.5-1.3c0,0,2.6-22.4,2.6-22.3c0,0.1,4.1,21.3,4.1,21.3
	l7.1-0.7c7.1-28.1-1-46.6,3.1-75.3c1-6.8,2.5-13.6,2.5-20.5s-1.8-14.1-6.6-19.1c-4.8-5-13-7-18.8-3.4"/>
<path class="st6" d="M93.8,181.9c0-0.1-0.1-0.2-0.1-0.3c0-0.2-0.1-0.6-0.2-1l-0.7-3.7c-0.5-3.2-1.3-7.8-1.9-13.6
	c-0.8-6.7-1.2-13.5-1.1-20.3c0.1-4,0.4-8,0.9-12c0.6-4.3,1.5-8.5,2.6-12.7c2.4-8.5,5.8-16.3,7.5-23.7c0.8-3.5,1.3-7.1,1.3-10.7
	c0-3.1-0.5-6.3-1.4-9.3c-0.8-2.5-2-4.8-3.5-6.9c-1.2-1.6-2.5-3-4.1-4.2c-1-0.7-2-1.4-3.1-1.9l-0.9-0.4c-0.1,0-0.2-0.1-0.3-0.2
	l0.3,0.1l0.9,0.4c1.1,0.5,2.2,1.2,3.2,1.9c1.6,1.2,3,2.6,4.2,4.2c1.6,2.1,2.8,4.4,3.6,6.9c1,3,1.5,6.2,1.5,9.4
	c0,3.6-0.4,7.3-1.3,10.8c-1.6,7.5-5,15.3-7.4,23.8c-1.1,4.1-2,8.3-2.6,12.6c-0.5,4-0.9,7.9-1,11.9c-0.1,6.8,0.2,13.5,1,20.2
	c0.6,5.8,1.3,10.4,1.8,13.6c0.2,1.6,0.4,2.8,0.6,3.7c0.1,0.4,0.1,0.7,0.1,1C93.8,181.7,93.8,181.8,93.8,181.9z"/>
<path class="st6" d="M62.9,167.3c0-0.1,0-0.2,0-0.3c0-0.2-0.1-0.5-0.1-0.8l-0.3-3c-0.1-0.7-0.1-1.4-0.2-2.2
	c-0.1-0.8-0.1-1.7-0.2-2.6c-0.1-1.9-0.3-4-0.3-6.4c0-1.2,0-2.4-0.1-3.7s0-2.6,0.1-4c0-2.8,0.2-5.8,0.4-8.9
	c0.5-6.8,1.4-13.6,2.7-20.2c1.3-6.7,3-13.3,5-19.8c1-3,1.9-5.8,2.9-8.4c0.5-1.3,1-2.6,1.4-3.8l1.4-3.4c0.9-2.2,1.8-4.1,2.6-5.8
	c0.4-0.9,0.8-1.6,1.1-2.4l1-1.9c0.6-1.1,1.1-2.1,1.4-2.7l0.4-0.7c0.1-0.2,0.1-0.2,0.1-0.2c0,0.1-0.1,0.2-0.1,0.3
	c-0.1,0.2-0.2,0.4-0.3,0.7c-0.3,0.7-0.8,1.6-1.3,2.7c-0.3,0.6-0.6,1.3-1,1.9c-0.3,0.7-0.7,1.5-1.1,2.4c-0.8,1.7-1.7,3.6-2.6,5.9
	c-0.5,1.1-0.9,2.2-1.4,3.4c-0.5,1.2-1,2.5-1.4,3.8c-1,2.6-1.9,5.4-2.9,8.4c-2,6.5-3.7,13.1-5,19.7c-1.2,6.7-2.1,13.4-2.7,20.2
	c-0.2,3.1-0.4,6.1-0.5,8.9c0,1.4-0.1,2.7-0.1,4s0,2.5,0,3.7c0,2.4,0.1,4.5,0.2,6.4c0,1,0.1,1.8,0.1,2.6s0.1,1.5,0.2,2.2
	c0.1,1.3,0.2,2.3,0.2,3c0,0.3,0,0.6,0,0.8C62.8,167.1,62.9,167.2,62.9,167.3z"/>
<path class="st6" d="M75.1,184.3c0,0,0-0.1-0.1-0.3s-0.2-0.5-0.3-0.8c-0.2-0.7-0.5-1.8-1-3.1c-0.2-0.7-0.4-1.4-0.7-2.2
	c-0.2-0.8-0.4-1.7-0.7-2.7c-0.4-1.9-1.1-4.1-1.5-6.5c-0.2-1.2-0.5-2.5-0.7-3.9c-0.3-1.4-0.4-2.7-0.6-4.2c-0.2-1.4-0.5-2.9-0.5-4.5
	c-0.1-1.6-0.3-3.1-0.4-4.8c-0.4-7.1-0.4-14.3,0.2-21.4c0.6-7.1,1.7-14.2,3.2-21.1c0.4-1.6,0.7-3.2,1.1-4.7c0.3-1.5,0.8-3,1.2-4.4
	c0.7-2.8,1.6-5.4,2.3-7.8s1.5-4.5,2.2-6.3c0.6-1.9,1.3-3.4,1.8-4.7l1.2-3l0.3-0.8c0-0.1,0.1-0.2,0.1-0.3c0,0.1,0,0.2-0.1,0.3
	l-0.3,0.8c-0.3,0.7-0.6,1.7-1.1,3s-1.1,2.9-1.7,4.8s-1.4,4-2.1,6.4s-1.6,5-2.3,7.8c-0.4,1.4-0.8,2.9-1.1,4.4l-1.1,4.7
	c-1.5,7-2.5,14-3.1,21.1c-0.5,7.1-0.6,14.2-0.2,21.3c0.1,1.6,0.3,3.2,0.4,4.8s0.4,3,0.5,4.5c0.2,1.5,0.3,2.8,0.6,4.2
	c0.3,1.3,0.5,2.6,0.7,3.9c0.4,2.4,1,4.6,1.4,6.5c0.2,1,0.4,1.9,0.6,2.7s0.4,1.6,0.6,2.2l0.8,3.1c0.1,0.3,0.1,0.6,0.2,0.8
	C75,184.1,75,184.2,75.1,184.3z"/>
<path class="st6" d="M106,170.7c0-0.1-0.1-0.2-0.1-0.3c-0.1-0.2-0.2-0.5-0.4-0.8l-0.6-1.4c-0.2-0.6-0.5-1.2-0.8-1.9
	c-1.6-4.1-2.9-8.2-3.7-12.5c-2-10.1-1.8-20.6,0.7-30.6c0.9-3.9,2.1-7.8,3.4-11.8c1.2-4,2.4-7.9,3.3-11.8c0.9-3.7,1.4-7.5,1.5-11.3
	c0.1-3.4-0.2-6.9-1-10.2c-0.7-2.9-1.9-5.6-3.6-8.1c-2.3-3.7-5.7-6.6-9.6-8.4c-1.1-0.5-2.2-0.8-3.4-1.1l-0.9-0.2
	c-0.1,0-0.2,0-0.3-0.1c0.1,0,0.2,0,0.3,0l1,0.1c1.2,0.2,2.3,0.5,3.4,1c4,1.8,7.5,4.7,9.9,8.3c1.7,2.5,2.9,5.3,3.7,8.2
	c0.9,3.4,1.2,6.8,1.1,10.3c-0.1,3.8-0.6,7.6-1.5,11.3c-0.9,3.9-2,7.8-3.3,11.8c-1.2,4-2.4,7.9-3.4,11.8c-0.9,3.7-1.5,7.4-1.8,11.2
	c-0.9,10.8,0.7,21.6,4.5,31.7c0.3,0.7,0.5,1.3,0.7,1.9l0.6,1.4l0.3,0.8C106,170.4,106,170.6,106,170.7z"/>
<path class="st4" d="M407,433.3c0,0.1-90.4,0.3-201.8,0.3c-111.5,0-201.8-0.1-201.8-0.3c0-0.1,90.4-0.3,201.8-0.3
	C316.7,433.1,407,433.2,407,433.3z"/>
</svg>
