<?xml version="1.0" encoding="utf-8"?>
<!-- Generator: Adobe Illustrator 24.0.1, SVG Export Plug-In . SVG Version: 6.00 Build 0)  -->
<svg version="1.1" id="Слой_1" xmlns="http://www.w3.org/2000/svg" xmlns:xlink="http://www.w3.org/1999/xlink" x="0px" y="0px"
	 viewBox="0 0 181.4 428.9" style="enable-background:new 0 0 181.4 428.9;" xml:space="preserve">
<style type="text/css">
	.st0{fill:#FF8B7B;}
	.st1{fill:#066FA4;}
	.st2{opacity:0.2;enable-background:new    ;}
	.st3{fill:#263238;}
	.st4{opacity:0.6;fill:#FFFFFF;enable-background:new    ;}
	.st5{opacity:0.2;fill:#066FA4;enable-background:new    ;}
	.st6{fill:#FFFFFF;}
	.st7{fill:#FF5652;}
</style>
<path class="st0" d="M101.5,98.2C99.4,99,97.1,98.9,95,98c-2.1-0.9-3.7-2.6-4.6-4.7c-0.8-2.1-0.8-4.4,0-6.5s2.4-3.8,4.5-4.7l0.6-0.3
	l1.4-0.6l1.6-0.8c1.1-0.6,2.2-1.1,3.2-1.7c2.1-1.1,4.1-2.4,6.1-3.7c1.7-1.3,3.4-2.7,5-4.2c1.4-1.4,2.5-2.9,3.5-4.6l2.9,9.7
	c-2.3-1.6-4.9-3-7.5-4.1c-3-1.2-6-2.3-9.1-3.2c-3.2-1-6.4-1.8-9.7-2.6s-6.7-1.5-9.9-2.2h-0.2c-1-0.2-1.9-0.8-2.5-1.6
	c-0.7-0.8-1-1.9-0.9-2.9c0-1.1,0.5-2.1,1.2-2.8s1.7-1.2,2.7-1.3c3.7-0.3,7.3-0.4,11-0.3c3.7,0.1,7.4,0.4,11,0.9
	c3.7,0.5,7.5,1.3,11.1,2.3c3.9,1.1,7.8,2.7,11.3,4.8c1.5,0.9,2.6,2.3,3.2,4c0.6,1.6,0.5,3.5-0.1,5.1l-0.2,0.6
	c-0.6,1.7-1.5,3.4-2.4,5c-0.9,1.6-2,3-3.1,4.4c-1.1,1.3-2.3,2.6-3.5,3.8c-1.3,1.2-2.5,2.3-3.8,3.3c-2.5,2-5.2,3.7-8,5.3
	c-1.4,0.8-2.8,1.5-4.2,2.2c-0.7,0.4-1.5,0.7-2.2,1l-1.1,0.4l-1.3,0.4L101.5,98.2z"/>
<path class="st1" d="M94.9,106.9c11.5,2.7,18.9-7.1,18.9-7.1c1.1-8.7-1.6-22.5-9-24.8l-25.5,5.8C67,83.7,81.9,103.9,94.9,106.9z"/>
<path class="st0" d="M73.3,46.3c-0.3,0.8-0.2,1.8,0.1,2.6l2,5.1c0,0,1,5.1,3.6,7.9c0.7,0.7,1.6,1.2,2.6,1.3c0.9,0.2,1.9,0,2.8-0.5
	l1.7-1c0.7-0.4,1.3-1.1,1.7-1.8s0.6-1.6,0.5-2.4l-0.5-6.3c-0.1-1.2-0.5-2.4-1.1-3.5l-2.4-4.4c-0.3-0.5-0.6-0.9-1-1.2
	s-0.8-0.6-1.3-0.7s-1-0.2-1.5-0.1s-1,0.2-1.4,0.5L75,44.2C74.2,44.7,73.6,45.4,73.3,46.3z"/>
<path class="st2" d="M73.1,46.2c-0.3,0.8-0.2,1.8,0.1,2.6l2,5.1c0,0,1,5.1,3.6,7.9c0.6,0.6,1.2,1.1,2,1.3c0.5,0.4,1.2,0.7,1.8,0.8
	h0.3l3.2,0.7c0.1-1,0.1-2,0-3c0-0.3,0-0.5,0-0.8c-0.5-6.9-2.8-13.5-6.8-19.1L79,41.8l-4.1,2.4C74.2,44.7,73.6,45.4,73.1,46.2z"/>
<path class="st0" d="M143.2,387l10.2-3.7l7.6,24l-10.2,3.7L143.2,387z"/>
<path class="st3" d="M161.9,403.1c8.6,1.9,9.5,1.6,18.2,0.6c1.9-0.2,2.4,4.4-1.8,5.8c-7,2.4-6.5,2-12.4,4c-5,1.7-10.8,4-14.8,5.4
	c-0.2,0.1-0.5,0.1-0.7,0.1c-0.3,0-0.5-0.1-0.7-0.2c-0.2-0.1-0.4-0.3-0.5-0.5c-0.2-0.2-0.3-0.5-0.3-0.7l-1.5-9.7c0-0.2,0-0.4,0.1-0.6
	c0.1-0.2,0.3-0.3,0.5-0.4l11.2-3.8C160.1,402.8,161.1,402.8,161.9,403.1z"/>
<path class="st2" d="M143.2,387.1l3.9,12.4l10.2-3.7l-3.9-12.4L143.2,387.1z"/>
<path class="st1" d="M161.3,403.4c1.8-0.2,4.9-0.8,5.8-2.2c0.1-0.2,0.2-0.5,0.2-0.7s0-0.5-0.1-0.7c0-0.1-0.1-0.2-0.2-0.3
	c-0.1-0.1-0.3-0.2-0.4-0.2c-1.5-0.2-5,3.3-5.4,3.7c-0.1,0-0.1,0-0.1,0.1s0,0.1,0,0.2l0.1,0.1H161.3L161.3,403.4z M166.4,399.9
	c0.1,0,0.1,0,0.2,0.2c0.1,0,0.1,0,0.1,0.1c0.1,0.1,0.1,0.3,0.1,0.4s0,0.3-0.1,0.4c-0.5,0.8-2.1,1.5-4.5,1.9
	C163.6,401.5,165.5,399.9,166.4,399.9L166.4,399.9z"/>
<path class="st1" d="M161.3,403.4c1.1-1,2.9-4.1,2.4-5.2c-0.1-0.3-0.4-0.6-1.1-0.4c-0.2,0-0.5,0.1-0.7,0.3c-0.2,0.2-0.4,0.4-0.5,0.6
	c-1,1.6-0.4,4.5-0.4,4.6c0.1,0,0.1,0.1,0.1,0.1c0,0.1,0.1,0.1,0.2,0.1l0,0C161.4,403.5,161.5,403.4,161.3,403.4z M163.1,398.3
	c0.1,0,0.1,0,0.2,0l0.1,0.1c0.3,0.7-0.9,3-1.9,4.2c-0.3-1.3-0.1-2.5,0.4-3.7c0.1-0.1,0.2-0.3,0.4-0.4c0.1-0.1,0.3-0.2,0.5-0.2
	C162.9,398.3,163,398.3,163.1,398.3L163.1,398.3z"/>
<path class="st1" d="M141.4,392.5l16.9-4.6c0,0-15.7-65.4-23.3-98.5c-7.2-31.9-23.7-105.9-23.7-105.9l-38.1,3.8
	c-1.9,27.8,13.2,50.3,32.5,103.9C114.3,335.3,141.4,392.4,141.4,392.5z"/>
<path class="st4" d="M141.4,392.5l16.9-4.6c0,0-15.7-65.4-23.3-98.5c-7.2-31.9-23.7-105.9-23.7-105.9l-38.1,3.8
	c-1.9,27.8,13.2,50.3,32.5,103.9C114.3,335.3,141.4,392.4,141.4,392.5z"/>
<path class="st5" d="M93.6,259.7c-8.6-21.5-15.4-36.8-18.6-51C88.3,206.6,93.8,235.4,93.6,259.7z"/>
<path class="st1" d="M139.3,390.1l3,6.5l18.1-6.4l-1-7.6L139.3,390.1z"/>
<path class="st0" d="M54.7,394.4l-0.9,25.2l-12,0.2l0.9-25.2L54.7,394.4z"/>
<path class="st3" d="M56.4,417c2.7,2.5,4.3,4.9,10.3,6.2c1.9,0.4,1.1,4.9-3.3,5c-7.3,0.2-4.4-0.1-10.7,0c-5.4,0.1-6.8,0.5-11,0.6
	c-0.2,0-0.5,0-0.7-0.1c-0.2-0.1-0.4-0.2-0.6-0.4s-0.3-0.4-0.4-0.6s-0.1-0.5-0.1-0.7l1-9.7c0-0.2,0.1-0.4,0.3-0.5
	c0.2-0.1,0.4-0.2,0.6-0.2l11.8-0.2C54.5,416.3,55.5,416.5,56.4,417z"/>
<path class="st2" d="M54.7,394.5l-0.4,13l-12,0.2l0.4-13L54.7,394.5z"/>
<path class="st1" d="M51.4,417.2c1.8-0.2,4.8-0.9,5.6-2.4c0.1-0.2,0.2-0.5,0.2-0.7c0-0.3-0.1-0.5-0.2-0.7c-0.1-0.1-0.2-0.2-0.3-0.3
	s-0.3-0.2-0.4-0.2c-1.5-0.2-4.7,3.4-5.1,3.8c0,0.1,0,0.1,0,0.2s0,0.2,0,0.2l0.1,0.1H51.4L51.4,417.2z M56.2,413.6L56.2,413.6
	c0.1,0,0.2,0.1,0.2,0.1c0.1,0,0.1,0,0.1,0.1c0.1,0.1,0.1,0.2,0.1,0.4c0,0.1,0,0.3-0.1,0.4c-0.4,0.7-2,1.5-4.4,2
	c1.4-1.4,3.2-3.1,4.1-3.1C56.2,413.5,56.2,413.6,56.2,413.6z"/>
<path class="st1" d="M51.6,417.1c1-1,2.6-4.1,2-5.2c-0.2-0.2-0.5-0.5-1.2-0.3c-0.3,0-0.5,0.1-0.7,0.3s-0.4,0.4-0.5,0.6
	c-0.9,1.5-0.1,4.4-0.1,4.5l0.1,0.1c0,0.1,0.1,0.1,0.1,0.1h0.1C51.5,417.2,51.5,417.2,51.6,417.1z M52.8,412.1c0.2-0.1,0.3,0,0.3,0.1
	c0.3,0.6-0.6,2.9-1.6,4.2c-0.4-1.2-0.3-2.4,0.1-3.6c0.1-0.1,0.3-0.3,0.4-0.4c0.1-0.2,0.3-0.3,0.5-0.3H52.8L52.8,412.1z"/>
<path class="st1" d="M40.1,399.8l17.5-0.3c0,0,16.3-66.8,23.6-100.7c7-32.6,7.9-113,7.9-113l-39.8,3.4c-5.5,28.3,3.7,63.5,2.1,102.4
	C41.9,328.7,40.1,399.8,40.1,399.8z"/>
<path class="st4" d="M40.1,399.8l17.5-0.3c0,0,16.3-66.8,23.6-100.7c7-32.6,7.9-113,7.9-113l-39.8,3.4c-5.5,28.3,3.7,63.5,2.1,102.4
	C41.9,328.7,40.1,399.8,40.1,399.8z"/>
<path class="st1" d="M38.3,396.5l1.1,7.1l19.6-0.3l1.1-7.5L38.3,396.5z"/>
<path class="st1" d="M103.7,98.1c1.4,8.3,0.9,18.8,1.2,26.3c1.9,19,3.6,48.4,7.2,59.4c-1.6,1.8-8.7,3.5-17.5,4.8
	c-1.8,0.3-5.1-2.4-5.1-2.4s-3.5,3.5-4.9,3.6c-13.4,1.3-30.2,1.8-36,0.1c-5.8-37.1-13.6-60.3-17.6-76c-0.7-3-0.9-6.2-0.4-9.3
	c0.5-3.1,1.6-6.1,3.2-8.8c1.7-2.6,3.8-5,6.4-6.8c2.5-1.8,5.4-3.1,8.5-3.8c13.7-3.1,29.1-5.1,38.7-4.4C99,81.7,102.3,90.4,103.7,98.1
	z"/>
<path class="st0" d="M73.9,70.5c-0.2,3.3-0.9,8.2,3.6,11.4c2.2,3.3,2.8,8.9-2.1,14.7c-7.7-2-15.4-5.8-18.7-10.8
	c4.6-5.7,1.1-15.3-0.8-22.7L73.9,70.5z"/>
<path class="st3" d="M81.7,91.3c0,0-4.2-1.6-4.4,0.8c-0.2,1.7-0.9,3.3-1.9,4.6C78,95.5,80.2,93.6,81.7,91.3z"/>
<path class="st3" d="M65.2,94.1c2-0.7,4.2-0.9,6.3-0.6c0.9,0.1,1.8,0.4,2.5,1c0.7,0.5,1.2,1.3,1.4,2.2C71.2,96.8,65.2,94,65.2,94.1z
	"/>
<path class="st2" d="M60.9,65.1c0.8,6.8,6.9,10.3,13.1,10.4c-0.1-1.6-0.1-3.3,0-4.9L60.9,65.1z"/>
<path class="st0" d="M49.3,44.3c0.4-2.4,1.4-4.8,2.9-6.8s3.5-3.6,5.8-4.6s4.8-1.4,7.3-1.2c11.3,1,17.3,15.9,17.8,25.8
	c0.6,11.1-4.5,18.9-19.4,13.9c-7.3-2.4-9.9-9.5-13.6-19.6C49.2,49.5,48.9,47,49.3,44.3z"/>
<path class="st3" d="M43.2,47.9c-2.6-2.4-3.9-5.8,1.1-11.1c-4.1-10.9,16.1-7.9,16.1-7.9c1.4-1.8,3.1-3.4,5-4.8c6.1-4,6.6-0.7,4.6,5
	c2.4-2.7,11.8-6.3,10.3-2.2c-0.5,1.3-1.2,2.4-2.2,3.4c-0.9,1-2,1.8-3.3,2.3c0,0,8.3-1.3,8.2,1.4c-0.2,3.7-9.9,5-17.5,2.9
	c-0.2,1.2-4.1,2.6-8.3,2.5c2.4,2.9-1.1,11.4-3.6,12.2c1.5,0.4,3.8,3.5,2.5,9C48.4,60.8,39.7,50.9,43.2,47.9z"/>
<path class="st3" d="M38.9,31.8c3.1-0.8,4.3,5.2,8.7,4.8C42.4,40.1,35.9,32.8,38.9,31.8z"/>
<path class="st3" d="M67.8,61.2c0.8-1,1.9-1.6,3.2-1.9c4.7-1.4,6.8,0.3,7.9,2.7c-9.2,2.5-12.5,2.7-12.5,2.7
	C66.4,63.4,66.9,62.2,67.8,61.2z"/>
<path class="st6" d="M76.1,59.2c-1.7-0.5-3.5-0.5-5.2,0.1c-1.1,0.3-2.1,0.8-2.9,1.6c1.7,0.5,3.5,0.5,5.2-0.1
	C74.3,60.6,75.3,60,76.1,59.2z"/>
<path class="st6" d="M78.5,62.2c-0.2-0.3-0.5-0.6-0.9-0.7c-0.4-0.2-0.8-0.2-1.2-0.1c-2.8,0.3-5.5,0.9-8.2,1.6
	c-0.4,0.2-0.7,0.4-0.9,0.7s-0.4,0.6-0.5,1C70.7,64.1,74.6,63.3,78.5,62.2z"/>
<path class="st2" d="M66.9,66.2c-1.1,1.7-2.7-0.3-2.7-0.3C65,66.3,66,66.4,66.9,66.2z"/>
<path class="st2" d="M59,51.4c1.3-0.8,2.9-1.1,4.4-0.7C62,51.2,60.5,51.5,59,51.4z"/>
<path class="st2" d="M59.7,53.4c0.5-0.5,1-0.9,1.7-1.2c0.7-0.3,1.4-0.4,2.1-0.4C62.4,52.6,61.1,53.1,59.7,53.4z"/>
<path class="st0" d="M50.5,54.3c3.4-0.9,6.6,2.9,7.7,5.7c1.3,3.2-0.2,6.4-3.7,5.8c-1.3-0.3-2.6-0.8-3.7-1.5c-1.1-0.8-2-1.7-2.8-2.8
	C46.1,58.7,47.1,55,50.5,54.3z"/>
<path class="st7" d="M74.6,56.7c0.8-0.1,1.5-0.3,2.1-0.7s1.2-0.9,1.6-1.5c-2.4-1.6-4.5-3.5-6.3-5.7L74.6,56.7z"/>
<path class="st3" d="M63.2,42.8c-0.1,0.1-0.1,0.2-0.1,0.3c0.1,0.7,0,1.3-0.3,1.9c-0.2,0.5-0.6,1.1-1.1,1.5c-0.1,0-0.2,0-0.2,0.1
	c-0.1,0.1-0.1,0.1-0.1,0.2c0,0.1,0,0.1,0,0.2c0,0.1,0.1,0.1,0.1,0.2c0.1,0,0.1,0.1,0.2,0.1c0.1,0.1,0.1,0.1,0.2,0.1s0.1,0,0.2,0
	s0.1-0.1,0.2-0.1c0.6-0.5,1.1-1.1,1.4-1.9c0.3-0.8,0.4-1.6,0.4-2.4c0-0.1,0-0.1,0-0.2c0-0.1-0.1-0.2-0.1-0.2c-0.1,0-0.1-0.1-0.2-0.1
	s-0.1,0-0.2,0c-0.1,0-0.2,0-0.3,0.1C63.2,42.7,63.2,42.7,63.2,42.8z"/>
<path class="st3" d="M65.3,50.4c0.1,0,0.1,0,0.2,0c0.5-0.2,0.9-0.3,1.4-0.3c0.4,0,0.9,0.2,1.3,0.4c0.1,0,0.2,0,0.3,0
	c0.1-0.1,0.1-0.1,0.2-0.2c0.1,0,0.1-0.1,0.1-0.1v-0.1c-0.1,0-0.1-0.1-0.1-0.1l-0.1-0.1c-0.5-0.3-1.1-0.5-1.7-0.5
	c-0.6-0.1-1.2,0.1-1.7,0.3l-0.1,0.1c-0.1,0-0.1,0.1-0.1,0.1V50v0.1c0,0.1,0,0.2,0.1,0.2C65.2,50.4,65.3,50.4,65.3,50.4z"/>
<path class="st3" d="M76,48.2C76,48.2,76.1,48.2,76,48.2c0.3-0.6,0.6-0.9,1-1.2c0.4-0.2,0.8-0.4,1.3-0.5h0.1l0.1-0.1
	c0.1,0,0.1-0.1,0.1-0.1v-0.1v-0.1c0,0-0.1,0-0.1-0.1s-0.1-0.1-0.1-0.1h-0.1c-0.6,0.1-1.1,0.4-1.6,0.7c-0.4,0.3-0.8,0.8-1.1,1.3V48
	v0.1l0.1,0.1l0.1,0.1c0.1,0,0.1,0,0.2,0S76.1,48.3,76,48.2z"/>
<path class="st3" d="M73.4,40.3c-0.1,0.1-0.1,0.3-0.1,0.4s0.1,0.2,0.2,0.3c0.7,0.5,1.5,0.7,2.3,0.8s1.7-0.1,2.4-0.4
	c0.2-0.1,0.3-0.2,0.3-0.3c0.1-0.1,0.1-0.3,0-0.4c0-0.1-0.1-0.2-0.1-0.2c-0.1,0-0.1-0.1-0.2-0.1s-0.1,0-0.2,0s-0.1,0.1-0.2,0.1
	c-0.6,0.3-1.3,0.4-1.9,0.3c-0.6,0-1.3-0.3-1.8-0.6c0-0.1-0.1-0.1-0.2-0.1c0,0-0.1,0.1-0.2,0.1S73.5,40.3,73.4,40.3z"/>
<path class="st0" d="M41.9,86.7c2.3-0.5,4.7,0,6.6,1.2c1.9,1.2,3.3,3.1,3.8,5.4c0.5,2.3,0.1,4.6-1.1,6.6s-3.2,3.4-5.4,3.9l-0.9,0.2
	l-0.7,0.2l-1.4,0.3c-0.9,0.2-1.9,0.4-2.8,0.5c-1.9,0.3-3.8,0.4-5.7,0.5c-3.9,0.2-7.8-0.1-11.7-0.9c-2-0.4-4-1-6-1.7
	c-2-0.8-4-1.7-5.8-2.9c-1.9-1.2-3.6-2.6-5.2-4.2c-1.5-1.5-2.9-3.3-4.1-5.2l-0.2-0.4c-1-1.5-1.4-3.4-1.1-5.2c0.3-1.9,1.2-3.5,2.6-4.7
	c3.6-2.9,7.5-5.4,11.7-7.4c3.8-1.9,7.8-3.5,11.8-5c4-1.4,8-2.7,12-3.8c4-1.1,8-2.1,12.2-2.9c1.1-0.2,2.2,0,3.1,0.5s1.6,1.4,1.9,2.4
	s0.2,2.1-0.2,3.1c-0.5,1-1.2,1.8-2.2,2.2H53c-3.6,1.6-7.2,3.2-10.8,5s-7,3.7-10.5,5.5s-6.8,3.8-10,5.8c-3,1.8-5.7,4-8.3,6.4
	l1.3-10.3c1.3,1.6,3,3,4.8,3.9c2.1,1,4.3,1.7,6.5,2c2.5,0.3,5.1,0.5,7.7,0.3c1.3-0.1,2.7-0.2,4-0.4c0.7-0.1,1.3-0.2,2-0.3l1-0.2
	l0.8-0.1L41.9,86.7z"/>
<path class="st1" d="M47.7,115.6c-9.8,6.6-26-3.9-26-3.9c-4-9-0.8-20.4,5.3-25.2c0,0,18.7-2.5,27.2-2.5
	C66.9,84,58.7,108.1,47.7,115.6z"/>
<path class="st0" d="M47.3,68.1c0.6,0.5,1.4,0.9,2.2,1l1.9,0.3c0.9,0.2,1.9,0,2.8-0.5s1.5-1.3,1.9-2.2c1.4-3.6,0.5-8.7,0.5-8.7
	l-13.2,0.2l2.4,7.8C46.1,66.8,46.5,67.5,47.3,68.1z"/>
<path class="st0" d="M47.1,48.2c-0.5,0.2-1,0.4-1.4,0.7s-0.7,0.7-1,1.1s-0.4,0.9-0.5,1.4l-0.9,6.9l13.2-0.2l-0.1-5.5
	c0-0.9-0.3-1.8-0.9-2.5c-0.6-0.7-1.4-1.2-2.3-1.3l-4.6-0.7C48.1,48,47.6,48,47.1,48.2z"/>
<path class="st6" d="M53.5,83.9c0.4,9,7.9,17.3,7.9,17.3s3.8-7.1,10.1-7.7c-10.9-1.4-13.3-11.4-13.6-13.9
	C57.9,79.6,55.7,81.7,53.5,83.9z"/>
<path class="st6" d="M79.7,79.8c5.3,2.9,7.8,16.4,7.8,16.4s-6.4-5-10.3-4.1c1.2-7.1-2.2-11-2.5-13.4C76.5,78.7,78.2,79.1,79.7,79.8z
	"/>
</svg>
