<?xml version="1.0" encoding="utf-8"?>
<!-- Generator: Adobe Illustrator 24.0.1, SVG Export Plug-In . SVG Version: 6.00 Build 0)  -->
<svg version="1.1" id="Слой_1" xmlns="http://www.w3.org/2000/svg" xmlns:xlink="http://www.w3.org/1999/xlink" x="0px" y="0px"
	 viewBox="0 0 168.5 97.3" style="enable-background:new 0 0 168.5 97.3;" xml:space="preserve">
<style type="text/css">
	.st0{fill:#E6E6E6;}
	.st1{fill:#EBEBEB;}
	.st2{fill:#E0E0E0;}
	.st3{fill:#F0F0F0;}
	.st4{fill:#FAFAFA;}
	.st5{fill:#066FA4;}
</style>
<path class="st0" d="M83.6,14.1h26.4V5.3H83.6V14.1z"/>
<path class="st1" d="M82.6,14.1H55.9l19.4,12.7h7.2V14.1z"/>
<path class="st2" d="M85.3,14.1H58.7l19.4,12.7h7.2V14.1z"/>
<path class="st3" d="M83.6,82.2H28.3v8.9h55.3V82.2z"/>
<path class="st0" d="M83.6,91.1h26.4v-8.9H83.6V91.1z"/>
<path class="st2" d="M68.7,54.1H43.4v28.1h25.3V54.1z"/>
<path class="st3" d="M37,82.2h6.5V54.1H37V82.2z"/>
<path class="st2" d="M76.5,46.2H54.9v36h21.7V46.2z"/>
<path class="st1" d="M50.4,82.2h4.4v-36h-4.4V82.2z"/>
<path class="st0" d="M83.5,49.8h-19v32.4h19V49.8z"/>
<path class="st3" d="M59,82.2h5.5V49.8H59V82.2z"/>
<path class="st3" d="M95.4,54.1H70.1v28.1h25.3V54.1z"/>
<path class="st4" d="M66.5,82.2h3.7V54.1h-3.7V82.2z"/>
<path class="st2" d="M93,82.2h-1.1V58.6c-0.1-1.9-0.9-3.7-2.3-5.1c-1.4-1.3-3.2-2.1-5.1-2.1c-1.9,0-3.8,0.7-5.1,2.1
	c-1.4,1.3-2.2,3.1-2.3,5.1v23.6H76V58.6c0-2.3,0.9-4.4,2.5-6c1.6-1.6,3.8-2.5,6-2.5s4.4,0.9,6,2.5c1.6,1.6,2.5,3.8,2.5,6L93,82.2z"
	/>
<path class="st5" d="M2.3,66.5c12.7,37.1,88.8,40.3,125.5,12c21-16.2,32.1-49.2,12-65c8.7-5.3,18.6-8.7,28.7-9.7
	c-21.4-6.6-38.2-3.4-50.4,1.9C105.5,4,92.7,3.4,79.9,3.7C33.9,5.3-10.8,28,2.3,66.5z"/>
</svg>
