<?xml version="1.0" encoding="utf-8"?>
<!-- Generator: Adobe Illustrator 24.0.1, SVG Export Plug-In . SVG Version: 6.00 Build 0)  -->
<svg version="1.1" id="Слой_1" xmlns="http://www.w3.org/2000/svg" xmlns:xlink="http://www.w3.org/1999/xlink" x="0px" y="0px"
	 viewBox="0 0 282.6 411.1" style="enable-background:new 0 0 282.6 411.1;" xml:space="preserve">
<style type="text/css">
	.st0{fill:#263238;}
	.st1{fill:#FFFFFF;}
</style>
<path class="st0" d="M160.1,104.8l-1.4-4.5c-0.1-0.5-0.4-0.9-0.7-1.3c-0.3-0.4-0.7-0.7-1.2-1c-0.5-0.2-0.9-0.4-1.5-0.4
	c-0.5,0-1,0-1.5,0.2l-6.6,2.2l-6,5.6c-0.6,0.5-1,1.2-1.3,2c-1.4,0.2-2.7,0.5-4.1,0.7c-2.3,0.3-4.5,0.6-6.7,0.8
	c-2.2,0.2-4.3,0.3-6.4,0.4c-1.2,0-2.4-0.1-3.5-0.2c-2-1.5-3.9-3.2-5.7-5c-2.3-2.4-4.4-4.9-6.4-7.5c-0.6-0.8-1.1-1.6-1.7-2.3
	c0.6-1.7,0.9-3.5,0.9-5.2c0,0-5.4-8.8-10.4-16.1c-1.4-4.5-4.4-8.5-10.9-10.6c-3.6-1.1-7.2-1.9-10.8-2.5c-1-1.7-1.4-3.8-1-5.8
	c0.1-0.6,0.2-1.3,0.4-1.9c5.5,0.4,9.6-4,12.2-10.5c2.3-5.8,3.5-14.2,1.6-21.1c3.9,1.4,7.3,1.5,8.3-0.4c1.3-2.4-6.9-4.7-6.9-4.7
	c1.4,0.1,2.7-0.2,4-0.7c1.3-0.5,2.4-1.2,3.4-2.2c3-3.2-7-3.8-10.2-2.3c4.2-4.4,5-7.6-2.1-6.5c-2.3,0.5-4.5,1.3-6.6,2.3
	c0,0-15.3-10.1-17.6-1.2c-1-2.2-1.1-5-3.2-5.3c-2.5-0.4-1.4,5.1,2.2,7.2c-6,2.7-6.2,6.2-4.9,9.3c-2.7,0.7-2.5,5.5-0.3,9.9
	c-0.5,0.6-0.9,1.3-1.1,2c-0.2,0.7-0.2,1.5-0.1,2.3c0.2,1.3,0.7,2.6,1.4,3.7c0.7,1.1,1.7,2.1,2.8,2.9c0.5,0.3,1,0.6,1.6,0.7
	c0.1,0.8,0.3,1.6,0.6,2.4c0.2,6.1,0.5,13.2-2.6,17.6c-3.2-0.2-6.4-0.3-9.6-0.3h-0.2c-0.2,0-0.5,0-0.7,0h-0.6
	c-3.6,0.2-7.2,1.2-10.4,3c-11.7,5.7-20.7,17.3-20.7,17.3c0.2,1.5,0.6,3,1.1,4.5c-1.7,1.5-3.4,3.1-5,4.7c-2.6,2.6-5.1,5.4-7.5,8.4
	l-0.4,0.5c-0.6,0.8-1.1,1.7-1.3,2.7c-0.8,3.8-1.2,7.7-1.1,11.5c0.1,3.7,0.4,7.3,1,10.9c0.6,3.5,1.4,7,2.5,10.4
	c0.5,1.8,1.1,3.5,1.8,5.2c-1.5,3.5-0.9,8.5-0.9,8.5l-0.2,5.5c0,0.9,0.2,1.8,0.8,2.5c0.6,0.7,1.3,1.2,2.2,1.4l4.6,0.9
	c0.5,0.1,1,0.1,1.5,0c0.5-0.1,1-0.3,1.4-0.6c0.4-0.3,0.8-0.6,1.1-1.1c0.3-0.4,0.5-0.9,0.6-1.4l1.3-6.8l-2-7.9
	c-0.1-0.2-0.1-0.4-0.2-0.6c-0.3-2.5-0.6-5.2-0.8-7.8c-0.2-3.2-0.4-6.3-0.4-9.4c0-3,0.2-6,0.5-9c0.2-2.1,0.6-4.1,1.1-6.1
	c1.9-1.9,3.8-3.7,5.9-5.5l1.5-1.3c0.8,20.5,0.4,41-1.3,61.4c0.4,0.2,0.8,0.4,1.3,0.6c-7.9,26.3,1.4,51.8,7.6,107.7
	c-2,44.9,22.5,123.1,22.5,123.1L93,267c-9.2-21.4-8.7-89.2-8.6-98.1c0.2-0.1,0.5-0.2,0.7-0.3C84.2,157,89.5,128,92,109.1
	c0-0.2,0.1-0.3,0.1-0.5c0.7-0.2,1.3-0.5,2-0.8c2.5,3,5.3,5.9,8.2,8.5c3.2,2.9,6.6,5.4,10.4,7.5l0.6,0.3c0.8,0.5,1.8,0.7,2.7,0.7
	c2.9,0,5.8-0.2,8.6-0.8c2.6-0.5,5.2-1.2,7.7-2.1c2.4-0.9,4.8-1.8,7.1-3c2.3-1.1,4.6-2.4,6.7-3.8l0.3-0.2c2.4-0.6,4.7-1.7,6.8-3.2
	l4.9-2.5c0.8-0.4,1.5-1.1,1.8-1.9C160.4,106.6,160.4,105.7,160.1,104.8z"/>
<path class="st1" d="M74.5,27.7c-0.4,0.9-0.2,1.9,0.4,2.2c0.6,0.3,1.4-0.3,1.8-1.3c0.4-1,0.2-1.9-0.4-2.2
	C75.7,26.1,74.9,26.8,74.5,27.7z"/>
<path class="st1" d="M84.2,31c-0.4,1-0.2,1.9,0.4,2.2c0.6,0.3,1.4-0.3,1.9-1.3c0.4-1,0.2-1.9-0.4-2.2C85.4,29.5,84.6,30.1,84.2,31z"
	/>
<path class="st1" d="M78.9,38.9c-2-1.7-4-3.2-6.2-4.6c-0.2-0.1-0.4-0.2-0.6-0.2c-0.2,0-0.4,0.1-0.6,0.2c-0.2,0.1-0.3,0.3-0.4,0.5
	c-0.1,0.2-0.1,0.4,0,0.7c0.4,1.5,1.9,2.9,4.2,4.4c0.5,0.4,1,0.6,1.6,0.8c0.6,0.1,1.2,0.2,1.7,0c0.2-0.1,0.3-0.2,0.4-0.3
	c0.1-0.1,0.2-0.3,0.2-0.5c0-0.2,0-0.4,0-0.5C79.2,39.2,79.1,39,78.9,38.9z"/>
<path class="st1" d="M78.5,27.4c0,0.1,0,0.2,0,0.3c0,0.1-0.1,0.1-0.1,0.2c0,0.1-0.1,0.1-0.2,0.1c-0.1,0-0.1,0.1-0.2,0.1
	c-0.1,0-0.1,0-0.2,0c-0.8-0.2-1.5-0.6-2.1-1.1c-0.6-0.5-1.1-1.2-1.4-2c0-0.1,0-0.1,0-0.2c0-0.1,0-0.1,0.1-0.2c0-0.1,0.1-0.1,0.1-0.2
	c0.1,0,0.1-0.1,0.2-0.1c0.1,0,0.1,0,0.2,0c0.1,0,0.1,0,0.2,0.1c0.1,0,0.1,0.1,0.2,0.1s0.1,0.1,0.1,0.2c0.3,0.6,0.6,1.1,1.1,1.5
	c0.5,0.4,1.1,0.7,1.7,0.9c0.1,0,0.2,0.1,0.2,0.1C78.5,27.2,78.5,27.3,78.5,27.4z"/>
<path class="st1" d="M85.1,25.2c0.1-0.1,0.1-0.1,0.2-0.1c0.1,0,0.2,0,0.3,0c0.6,0.2,1.3,0.3,1.9,0.2c0.6-0.1,1.3-0.3,1.8-0.7
	c0.1-0.1,0.2-0.1,0.4-0.1c0.1,0,0.3,0.1,0.3,0.2c0,0.1,0.1,0.1,0.1,0.2c0,0.1,0,0.1,0,0.2c0,0.1,0,0.1-0.1,0.2
	c0,0.1-0.1,0.1-0.1,0.2c-0.7,0.5-1.4,0.8-2.2,0.9c-0.8,0.1-1.6,0-2.4-0.3c-0.1,0-0.1-0.1-0.2-0.1c-0.1,0-0.1-0.1-0.1-0.2
	c0-0.1,0-0.1-0.1-0.2c0-0.1,0-0.1,0-0.2C85,25.3,85.1,25.3,85.1,25.2z"/>
<path class="st0" d="M281.5,96.7l-3.3-3.3c-0.6-0.6-1.5-1-2.4-1.1c-0.9-0.1-1.8,0.2-2.5,0.7l-4.5,3.2c0,0-4.7,2.3-6.7,5.5
	c-0.3,0.5-0.5,1.1-0.6,1.8c-0.1,0.6,0,1.3,0.2,1.9c0.1,1.4,0.2,3.1,0.3,4.6c0.1,1.6,0.1,3.1,0.1,4.7c0,3-0.2,6.1-0.6,9.1
	c-0.4,2.8-1,5.5-2,8.1c-0.1,0.3-0.3,0.6-0.4,0.9c-0.8-0.4-1.5-0.8-2.2-1.3c-2.6-1.5-5-3.1-7.4-4.8c-0.5-0.3-0.9-0.7-1.4-1.1
	c-0.1-0.5-0.2-1-0.3-1.5c0,0-13.5-13.1-20.3-18.2c-0.5-0.3-1-0.6-1.5-0.9c-3.2-2.9-7.2-4.9-11.5-5.7c-3.1-0.6-6.3-1.1-9.5-1.6
	c-2-4.8-0.6-11.3,0.7-17c0.1-0.2,0.3-0.4,0.4-0.6c0.6,0.1,1.2,0.1,1.8,0c1.3-0.3,2.5-0.8,3.6-1.6c1.1-0.8,2-1.7,2.7-2.9
	c0.4-0.6,0.7-1.4,0.8-2.1c0.1-0.8,0-1.5-0.2-2.3c3.7-3.2,5.8-7.6,3.5-9.2c2.4-2.4,3.6-5.7-1-10.5c4.1-0.6,7.3-5.2,4.8-5.8
	c-2.1-0.5-3.2,2-5,3.6c1.3-9.1-16.7-5.6-16.7-5.6c-1.5-1.7-3.3-3.3-5.2-4.6c-6.2-3.7-6.6-0.5-4.3,5.2c-2.4-2.6-12-5.9-10.3-1.8
	c0.6,1.2,1.3,2.4,2.3,3.3c1,0.9,2.2,1.7,3.4,2.1c0,0-8.4-0.9-8.2,1.7c0.2,2.1,3.4,3.3,7.6,3.5c-4.3,5.6-6.5,13.9-6.6,20.2
	c-0.1,8,2.7,14.2,9.9,14.9v0.1c0.1,0.8,0.1,1.7,0,2.5c-0.1,2-0.8,3.9-2.2,5.5c-3.7-0.1-7.4,0-11.1,0.4C164,97.9,161,106.7,160,114.6
	c-1.1,8.3-0.2,18.9-0.1,26.4c-1.2,19-1.7,48.5-4.8,59.6c0.2,0.2,0.4,0.3,0.6,0.5c-1.6,8.8-13.7,75.8-19.3,105.8l21.1,104.4
	c0,0,24.8-58.1,31.6-102.6c16.9-53.7,30.9-76.9,28.3-104.2c0.5-0.1,0.9-0.2,1.3-0.4c2.2-19.5,5.6-38.8,10.1-57.9
	c2.6,0.7,5.3,1.2,8,1.4c2.1-1.2,4-2.8,5.6-4.7l1.7,1c1.6,0.9,3.2,1.8,4.9,2.5c3.3,1.6,6.8,2.9,10.4,4l0.5,0.2
	c1.5,0.5,3.1,0.4,4.6-0.1c1.5-0.5,2.8-1.5,3.7-2.7c1.3-1.8,2.4-3.7,3.3-5.8c0.8-1.9,1.5-3.9,1.9-6c0.8-3.8,1.2-7.7,1.1-11.6
	c-0.1-3.7-0.6-7.3-1.4-10.9c-0.4-1.7-0.8-3.3-1.3-5l4.5-1.6l5-4.8c0.4-0.4,0.7-0.8,0.9-1.2c0.2-0.5,0.3-1,0.3-1.5
	c0-0.5-0.1-1-0.3-1.5C282.1,97.5,281.8,97,281.5,96.7z"/>
<path class="st1" d="M196,64.8c0,1-0.5,1.9-1.3,1.9c-0.7,0-1.3-0.8-1.3-1.9c0-1,0.5-1.9,1.2-1.9C195.3,62.9,196,63.8,196,64.8z"/>
<path class="st1" d="M185.6,62.7c0,1-0.5,1.9-1.3,1.9c-0.7,0-1.3-0.8-1.3-1.9c0-1,0.5-1.9,1.3-1.9C185.1,60.8,185.6,61.6,185.6,62.7
	z"/>
<path class="st1" d="M183.7,74.7c0,0,3.2-0.7,12.8-0.7c-0.5,2.6-3.3,3.4-8.2,3.3C183.4,77.3,183.7,74.7,183.7,74.7z"/>
<path class="st1" d="M193.5,60.5c-0.1,0.1-0.1,0.1-0.1,0.2c0,0.1,0,0.3,0.1,0.4c0.1,0.1,0.2,0.2,0.3,0.2c0.8,0.2,1.6,0.2,2.4,0
	c0.8-0.2,1.5-0.6,2.2-1.1c0,0,0.1-0.1,0.1-0.2c0-0.1,0-0.1,0-0.2c0-0.1,0-0.1,0-0.2c0-0.1-0.1-0.1-0.1-0.2c0,0-0.1-0.1-0.2-0.1
	c-0.1,0-0.1,0-0.2,0c-0.1,0-0.1,0-0.2,0c-0.1,0-0.1,0.1-0.2,0.1c-0.5,0.4-1.1,0.7-1.7,0.8c-0.6,0.1-1.3,0.1-1.9,0
	c-0.1,0-0.2,0-0.3,0C193.6,60.4,193.5,60.4,193.5,60.5z"/>
<path class="st1" d="M187,59.2c0-0.1-0.1-0.1-0.2-0.2c-0.1,0-0.2-0.1-0.2-0.1c-0.6,0-1.3-0.2-1.8-0.5c-0.6-0.3-1-0.8-1.4-1.3
	c0-0.1-0.1-0.1-0.1-0.2c-0.1,0-0.1-0.1-0.2-0.1c-0.1,0-0.1,0-0.2,0c-0.1,0-0.1,0-0.2,0.1c-0.1,0-0.1,0.1-0.2,0.1
	c0,0.1-0.1,0.1-0.1,0.2c0,0.1,0,0.1,0,0.2c0,0.1,0,0.1,0.1,0.2c0.4,0.7,1,1.3,1.7,1.7c0.7,0.4,1.5,0.6,2.3,0.7c0.1,0,0.1,0,0.2,0
	c0.1,0,0.1-0.1,0.2-0.1c0.1,0,0.1-0.1,0.1-0.2c0-0.1,0-0.1,0-0.2C187.1,59.4,187.1,59.3,187,59.2z"/>
<path class="st0" d="M128.1,120.9c-1-1.3-1.7-2.9-1.9-4.6c-0.2-2.4-4.4-0.8-4.4-0.8C123.3,117.9,125.5,119.7,128.1,120.9z"/>
<path class="st0" d="M128.1,120.9c0.2-0.9,0.7-1.7,1.4-2.2c0.7-0.6,1.6-0.9,2.5-1c2.1-0.3,4.3-0.1,6.3,0.6
	C138.3,118.3,132.3,121.1,128.1,120.9z"/>
</svg>
