<?xml version="1.0" encoding="utf-8"?>
<!-- Generator: Adobe Illustrator 24.0.1, SVG Export Plug-In . SVG Version: 6.00 Build 0)  -->
<svg version="1.1" id="Слой_1" xmlns="http://www.w3.org/2000/svg" xmlns:xlink="http://www.w3.org/1999/xlink" x="0px" y="0px"
	 viewBox="0 0 630 470" style="enable-background:new 0 0 630 470;" xml:space="preserve">
<style type="text/css">
	.st0{fill:#EBEBEB;}
	.st1{fill:#E6E6E6;}
	.st2{fill:#F0F0F0;}
	.st3{fill:#FAFAFA;}
	.st4{fill:#FFFFFF;}
	.st5{opacity:0.7;}
	.st6{fill:#E0E0E0;}
	.st7{fill:#F5F5F5;}
	.st8{fill:#263238;}
	.st9{fill:#066FA4;}
	.st10{opacity:0.2;enable-background:new    ;}
</style>
<path class="st0" d="M630,413H0v0.3h630V413z"/>
<path class="st0" d="M566.9,433.3H457.4v0.3h109.5V433.3z"/>
<path class="st0" d="M461.6,421.6h-10.9v0.3h10.9V421.6z"/>
<path class="st0" d="M377.1,432.1H353v0.3h24.2V432.1z"/>
<path class="st0" d="M93.3,423.7H66.1v0.3h27.2V423.7z"/>
<path class="st0" d="M139.7,423.7h-35.2v0.3h35.2V423.7z"/>
<path class="st0" d="M320.7,428.9h-59v0.3h59V428.9z"/>
<path class="st0" d="M298.6,356.8H55.3c-1.9,0-3.7-0.8-5.1-2.1c-1.3-1.3-2.1-3.2-2.1-5.1V7.5c0-1.9,0.8-3.7,2.1-5
	c1.3-1.3,3.2-2.1,5.1-2.1h243.3c1.9,0,3.7,0.8,5.1,2.1c1.4,1.3,2.1,3.2,2.1,5.1v342.1c0,1.9-0.8,3.7-2.1,5.1
	C302.4,356.1,300.5,356.8,298.6,356.8z M55.3,0.6c-1.8,0-3.6,0.7-4.9,2c-1.3,1.3-2,3-2,4.9v342.2c0,1.8,0.7,3.6,2,4.9
	c1.3,1.3,3,2,4.9,2h243.3c1.8,0,3.6-0.7,4.9-2c1.3-1.3,2-3,2-4.9V7.5c0-1.8-0.7-3.6-2-4.9s-3-2-4.9-2H55.3z"/>
<path class="st0" d="M571.2,356.8H327.9c-1.9,0-3.7-0.8-5.1-2.1c-1.3-1.3-2.1-3.2-2.1-5.1V7.5c0-1.9,0.8-3.7,2.1-5
	c1.3-1.3,3.2-2.1,5.1-2.1h243.3c1.9,0,3.7,0.8,5,2.1c1.3,1.3,2.1,3.1,2.1,5v342.2c0,1.9-0.8,3.7-2.1,5.1
	C574.9,356.1,573.1,356.8,571.2,356.8z M327.9,0.6c-1.8,0-3.6,0.7-4.9,2c-1.3,1.3-2,3-2,4.9v342.2c0,1.8,0.7,3.6,2,4.9
	c1.3,1.3,3,2,4.9,2h243.3c1.8,0,3.6-0.7,4.9-2c1.3-1.3,2-3,2-4.9V7.5c0-1.8-0.7-3.6-2-4.9c-1.3-1.3-3-2-4.9-2H327.9z"/>
<path class="st1" d="M193.5,229.3h341.9V33.3H193.5V229.3z"/>
<path class="st2" d="M188.5,229.3H533V33.3H188.5V229.3z"/>
<path class="st3" d="M525.9,221.3V41.3H195.6v179.9H525.9z"/>
<path class="st4" d="M485.4,221.3L443.6,41.3h-54.8l41.8,179.9H485.4z"/>
<path class="st4" d="M421.7,221.3L380,41.3h-24.7L397,221.3H421.7z"/>
<path class="st4" d="M323.6,221.3L281.8,41.3h-42.2l41.8,179.9H323.6z"/>
<path class="st1" d="M196.5,221.3V41.3h-0.9v179.9H196.5z"/>
<path class="st2" d="M350.5,229.3H371V33.3h-20.5V229.3z"/>
<path class="st1" d="M371.9,221.3V41.3H371v179.9H371.9z"/>
<path class="st1" d="M360.4,229.3h0.7V33.3h-0.7V229.3z"/>
<g class="st5">
	<path class="st0" d="M214.4,22.9h-32.9v157.8h32.9V22.9z"/>
	<path class="st6" d="M214.4,162.3h21.3V22.9h-21.3V162.3z"/>
	<path class="st0" d="M268.5,22.9h-32.9v157.8h32.9V22.9z"/>
	<path class="st6" d="M268.5,162.3h21.3V22.9h-21.3V162.3z"/>
	<path class="st0" d="M322.7,22.9h-32.9v157.8h32.9V22.9z"/>
	<path class="st6" d="M322.7,162.3H344V22.9h-21.3V162.3z"/>
	<path class="st0" d="M376.8,22.9H344v157.8h32.9V22.9z"/>
	<path class="st6" d="M376.8,162.3h21.3V22.9h-21.3V162.3z"/>
	<path class="st0" d="M431,22.9h-32.9v157.8H431V22.9z"/>
	<path class="st6" d="M431,162.3h21.3V22.9H431V162.3z"/>
	<path class="st0" d="M485.1,22.9h-32.9v157.8h32.9V22.9z"/>
	<path class="st0" d="M539.2,22.9h-32.9v157.8h32.9V22.9z"/>
	<path class="st6" d="M485.1,162.3h21.3V22.9h-21.3V162.3z"/>
</g>
<path class="st2" d="M136.6,109.5H81.3v8.9h55.3V109.5z"/>
<path class="st1" d="M136.6,118.3h26.4v-8.9h-26.4V118.3z"/>
<path class="st0" d="M135.6,118.3h-26.6l19.4,12.7h7.2V118.3z"/>
<path class="st6" d="M138.3,118.3h-26.6l19.4,12.7h7.2V118.3z"/>
<path class="st1" d="M115.8,71.5H98.5v38h17.3V71.5z"/>
<path class="st2" d="M93.5,109.4h5v-38h-5V109.4z"/>
<path class="st1" d="M138.1,74.8h-22.3l-5.4,34.6h22.3L138.1,74.8z"/>
<path class="st2" d="M109.4,74.8h6.5l-5.4,34.6H104L109.4,74.8z"/>
<path class="st0" d="M148.4,70.2h-25.3v39.3h25.3V70.2z"/>
<path class="st7" d="M115.8,109.4h7.3V70.2h-7.3V109.4z"/>
<path class="st6" d="M146,109.4h-1.1V85.8c-0.1-1.9-0.9-3.7-2.3-5.1c-1.4-1.3-3.2-2.1-5.1-2.1c-1.9,0-3.8,0.7-5.1,2.1
	c-1.4,1.3-2.2,3.1-2.3,5.1v23.6H129V85.8c0-2.3,0.9-4.4,2.5-6c1.6-1.6,3.8-2.5,6-2.5s4.4,0.9,6,2.5c1.6,1.6,2.5,3.8,2.5,6L146,109.4
	z"/>
<path class="st2" d="M136.6,186.4H81.3v8.9h55.3V186.4z"/>
<path class="st1" d="M136.6,195.3h26.4v-8.9h-26.4V195.3z"/>
<path class="st0" d="M135.6,195.3h-26.6l19.4,12.7h7.2V195.3z"/>
<path class="st6" d="M138.3,195.3h-26.6l19.4,12.7h7.2V195.3z"/>
<path class="st6" d="M121.7,158.3H96.4v28.1h25.3V158.3z"/>
<path class="st2" d="M90,186.4h6.5v-28.1H90V186.4z"/>
<path class="st6" d="M129.5,150.4h-21.7v36h21.7V150.4z"/>
<path class="st0" d="M103.4,186.4h4.4v-36h-4.4V186.4z"/>
<path class="st1" d="M136.5,154h-19v32.4h19V154z"/>
<path class="st2" d="M112,186.4h5.5V154H112V186.4z"/>
<path class="st2" d="M148.4,158.3h-25.3v28.1h25.3V158.3z"/>
<path class="st3" d="M119.5,186.4h3.7v-28.1h-3.7V186.4z"/>
<path class="st6" d="M146,186.4h-1.1v-23.6c-0.1-1.9-0.9-3.7-2.3-5.1c-1.4-1.3-3.2-2.1-5.1-2.1c-1.9,0-3.8,0.7-5.1,2.1
	c-1.4,1.3-2.2,3.1-2.3,5.1v23.6H129v-23.6c0-2.3,0.9-4.4,2.5-6c1.6-1.6,3.8-2.5,6-2.5s4.4,0.9,6,2.5c1.6,1.6,2.5,3.8,2.5,6
	L146,186.4z"/>
<path class="st1" d="M251.4,413h10.9V261.4h-10.9V413z"/>
<path class="st2" d="M248.5,413h6.4V261.4h-6.4V413z"/>
<path class="st2" d="M401.4,261.3h-155v11.4h155V261.3z"/>
<path class="st1" d="M548.2,413h10.9V261.4h-10.9V413z"/>
<path class="st2" d="M546.2,413h6.4V261.4h-6.4V413z"/>
<path class="st1" d="M561.1,261.3h-155v11.4h155V261.3z"/>
<path class="st1" d="M402.4,413h10.9V261.4h-10.9V413z"/>
<path class="st2" d="M399.5,413h6.4V261.4h-6.4V413z"/>
<path class="st1" d="M430.2,210.9h-80.9l-6.4,47.8h80.9L430.2,210.9z"/>
<path class="st1" d="M423.8,258.7l-0.3,2.6h-80.9l0.3-2.6H423.8z"/>
<path class="st2" d="M427.7,210.9h-80.9l-6.4,47.8h80.9L427.7,210.9z"/>
<path class="st4" d="M419.4,256.5l5.8-43.4h-76.4l-5.8,43.4H419.4z"/>
<path class="st2" d="M400.2,258.7l-0.3,2.6h-89.1l0.3-2.6H400.2z"/>
<path class="st2" d="M195.9,409.8h29.6V261.5h-29.6V409.8z"/>
<path class="st2" d="M73.9,413h145.9v-3.3H73.9V413z"/>
<path class="st7" d="M195.9,261.5H68.3v148.3h127.7V261.5z"/>
<path class="st0" d="M181.2,345H82.9c-0.9,0-1.8-0.4-2.5-1c-0.7-0.7-1-1.6-1-2.5v-22.9c0-0.5,0.1-0.9,0.3-1.4
	c0.2-0.4,0.4-0.8,0.8-1.1s0.7-0.6,1.1-0.8c0.4-0.2,0.9-0.3,1.4-0.3h16.2c0.6,0,1.3,0.2,1.8,0.5c0.6,0.3,1,0.8,1.3,1.4
	c0.2,0.4,0.4,0.7,0.7,0.9c0.7,0.7,1.6,1.1,2.6,1.1h53.1c0.7,0,1.3-0.2,1.9-0.5c0.6-0.3,1-0.8,1.3-1.4c0.3-0.6,0.7-1.1,1.3-1.4
	c0.6-0.3,1.2-0.5,1.9-0.5h16.2c0.5,0,0.9,0.1,1.4,0.3c0.4,0.2,0.8,0.4,1.1,0.8c0.3,0.3,0.6,0.7,0.8,1.1c0.2,0.4,0.3,0.9,0.3,1.4
	v22.9c0,0.9-0.4,1.8-1,2.5C183.1,344.7,182.2,345,181.2,345z M82.9,316c-0.7,0-1.3,0.3-1.8,0.7c-0.5,0.5-0.7,1.1-0.7,1.8v22.9
	c0,0.7,0.3,1.3,0.7,1.8c0.5,0.5,1.1,0.7,1.8,0.7h98.3c0.7,0,1.3-0.3,1.8-0.7c0.5-0.5,0.7-1.1,0.7-1.8v-22.9c0-0.7-0.3-1.3-0.7-1.8
	c-0.5-0.5-1.1-0.7-1.8-0.7H165c-0.5,0-1,0.2-1.4,0.4c-0.4,0.3-0.7,0.6-0.9,1.1c-0.4,0.7-1,1.4-1.7,1.8c-0.7,0.4-1.5,0.7-2.4,0.7
	h-53.1c-0.9,0-1.7-0.2-2.4-0.7c-0.7-0.4-1.3-1.1-1.7-1.8c-0.2-0.4-0.5-0.8-0.9-1c-0.4-0.2-0.9-0.4-1.3-0.4L82.9,316z"/>
<path class="st0" d="M181.2,385.1H82.9c-0.9,0-1.8-0.4-2.5-1c-0.7-0.7-1-1.6-1-2.5v-22.9c0-0.9,0.4-1.8,1-2.5c0.7-0.7,1.6-1,2.5-1
	h16.2c0.6,0,1.3,0.2,1.8,0.5c0.6,0.3,1,0.8,1.3,1.4c0.2,0.4,0.4,0.7,0.7,1c0.3,0.3,0.7,0.6,1.2,0.8s0.9,0.3,1.4,0.3h53.1
	c0.7,0,1.3-0.2,1.9-0.5c0.6-0.3,1-0.8,1.3-1.4c0.3-0.6,0.7-1.1,1.3-1.4c0.6-0.3,1.2-0.5,1.9-0.5h16.2c0.5,0,0.9,0.1,1.4,0.3
	c0.4,0.2,0.8,0.4,1.1,0.8c0.3,0.3,0.6,0.7,0.8,1.1c0.2,0.4,0.3,0.9,0.3,1.4v22.9c0,0.9-0.4,1.8-1,2.5
	C183.1,384.7,182.2,385.1,181.2,385.1z M82.9,356.1c-0.7,0-1.3,0.3-1.8,0.7s-0.7,1.1-0.7,1.8v22.9c0,0.7,0.3,1.3,0.7,1.8
	c0.5,0.5,1.1,0.7,1.8,0.7h98.3c0.7,0,1.3-0.3,1.8-0.7c0.5-0.5,0.7-1.1,0.7-1.8v-22.9c0-0.7-0.3-1.3-0.7-1.8
	c-0.5-0.5-1.1-0.7-1.8-0.7H165c-0.5,0-1,0.2-1.4,0.4c-0.4,0.3-0.7,0.6-0.9,1.1c-0.4,0.7-1,1.4-1.7,1.8c-0.7,0.4-1.5,0.7-2.4,0.7
	h-53.1c-0.6,0-1.2-0.1-1.8-0.4c-0.6-0.2-1.1-0.6-1.5-1c-0.4-0.4-0.6-0.8-0.9-1.3c-0.2-0.4-0.5-0.8-0.9-1c-0.4-0.2-0.9-0.4-1.3-0.4
	L82.9,356.1z"/>
<path class="st0" d="M184.8,402.9H79.4v-8.5h105.3L184.8,402.9z M80.4,402h103.4v-6.6H80.4V402z"/>
<path class="st0" d="M181.2,305H82.9c-0.9,0-1.8-0.4-2.5-1c-0.7-0.7-1-1.6-1-2.5v-22.9c0-0.9,0.4-1.8,1-2.5c0.7-0.7,1.6-1,2.5-1
	h16.2c0.6,0,1.3,0.2,1.8,0.5c0.6,0.3,1,0.8,1.3,1.4c0.2,0.4,0.4,0.7,0.7,0.9c0.7,0.7,1.6,1.1,2.6,1.1h53.1c0.7,0,1.3-0.2,1.9-0.5
	c0.6-0.3,1-0.8,1.3-1.4c0.3-0.6,0.7-1.1,1.3-1.4c0.6-0.3,1.2-0.5,1.9-0.5h16.2c0.9,0,1.8,0.4,2.5,1c0.7,0.7,1,1.6,1,2.5v22.9
	c0,0.9-0.4,1.8-1,2.5C183.1,304.6,182.2,305,181.2,305z M82.9,276c-0.7,0-1.3,0.3-1.8,0.7c-0.5,0.5-0.7,1.1-0.7,1.8v22.9
	c0,0.7,0.3,1.3,0.7,1.8c0.5,0.5,1.1,0.7,1.8,0.7h98.3c0.7,0,1.3-0.3,1.8-0.7c0.5-0.5,0.7-1.1,0.7-1.8v-22.9c0-0.7-0.3-1.3-0.7-1.8
	c-0.5-0.5-1.1-0.7-1.8-0.7H165c-0.5,0-1,0.2-1.4,0.4c-0.4,0.3-0.7,0.6-0.9,1.1c-0.4,0.7-1,1.4-1.7,1.8c-0.7,0.4-1.5,0.7-2.4,0.7
	h-53.1c-0.6,0-1.2-0.1-1.8-0.4c-0.6-0.2-1.1-0.6-1.5-1c-0.4-0.4-0.7-0.8-0.9-1.3c-0.2-0.4-0.5-0.8-0.9-1c-0.4-0.2-0.9-0.4-1.3-0.4
	L82.9,276z"/>
<path class="st2" d="M64.3,261.5h131.6v-2.4H64.3V261.5z"/>
<path class="st1" d="M229.6,259.1h-33.7v2.4h33.7V259.1z"/>
<path class="st7" d="M315,470c134.9,0,244.3-6.4,244.3-14.3c0-7.9-109.4-14.3-244.3-14.3s-244.3,6.4-244.3,14.3
	C70.7,463.6,180.1,470,315,470z"/>
<path class="st8" d="M444.8,257.5c-32.5-14.4-54,30-28.5,55.2C427.3,289.7,475.6,264.2,444.8,257.5z"/>
<path class="st9" d="M463.4,405.9c1-6.7,1.1-13.5,0.3-20.2c-0.8-6.5-2.2-13-4.1-19.3c-3.8-12.5-8.6-24.3-12.3-36.5
	c-3.7-12.1-6.5-24.6-6.7-37.2c-0.1-6.3,0.3-12.7,1.4-18.9c1.1-6.3,2.7-12.4,4.7-18.5l-1.1-0.4c-2.3,6-4.2,12.2-5.5,18.5
	c-1.3,6.3-2.1,12.8-2.2,19.3c-0.3,13,1.9,26,5.2,38.4c3.3,12.5,7.6,24.6,10.7,36.8c3.1,12.2,4.6,24.7,2.1,36.5L463.4,405.9z"/>
<path class="st9" d="M456.5,428.3c1.6-6.5,2.4-13.3,2.2-20c-0.2-6.6-1-13.1-2.3-19.6c-2.5-12.8-6.3-25-8.8-37.5
	c-2.5-12.4-4.1-25-3.2-37.7c0.4-6.3,1.5-12.6,3.1-18.7c1.7-6.1,3.8-12.1,6.4-17.9l-1.1-0.5c-2.9,5.8-5.3,11.8-7.2,17.9
	c-1.9,6.2-3.3,12.5-4,19c-1.5,12.9-0.5,26,1.6,38.8c2.2,12.7,5.3,25.2,7.2,37.7c1.9,12.5,2.3,25-1.3,36.6L456.5,428.3z"/>
<path class="st4" d="M423.7,380.4H487c0.6,0,1.3,0.1,1.9,0.4c0.6,0.3,1.1,0.7,1.5,1.1c0.4,0.5,0.7,1.1,0.9,1.7
	c0.2,0.6,0.2,1.3,0.1,1.9l-9,66.2c-0.1,1.1-0.7,2.1-1.5,2.8c-0.8,0.7-1.9,1.1-3,1.1h-45.2c-1.1,0-2.1-0.4-3-1.1
	c-0.8-0.7-1.4-1.7-1.5-2.8l-9-66.2c-0.1-0.6,0-1.3,0.1-1.9c0.2-0.6,0.5-1.2,0.9-1.7c0.4-0.5,0.9-0.9,1.5-1.1
	C422.5,380.5,423.1,380.4,423.7,380.4z"/>
<path class="st9" d="M432.8,456.2H478c1.2,0,2.4-0.5,3.3-1.3c0.9-0.8,1.5-1.9,1.7-3.2l9-66.2c0.1-0.7,0-1.5-0.2-2.2
	c-0.2-0.7-0.6-1.3-1-1.9c-0.5-0.6-1.1-1-1.7-1.3c-0.7-0.3-1.4-0.5-2.1-0.5h-63.3c-0.7,0-1.4,0.2-2.1,0.5c-0.7,0.3-1.3,0.7-1.7,1.3
	c-0.5,0.6-0.8,1.2-1,1.9c-0.2,0.7-0.3,1.4-0.2,2.2l9,66.2c0.2,1.2,0.8,2.3,1.7,3.2C430.4,455.8,431.5,456.2,432.8,456.2z M487,381
	c0.6,0,1.1,0.1,1.6,0.4s1,0.6,1.3,1c0.4,0.4,0.6,0.9,0.8,1.5c0.2,0.5,0.2,1.1,0.1,1.7l-9,66.2c-0.1,0.9-0.6,1.8-1.3,2.4
	c-0.7,0.6-1.6,1-2.6,1h-45.2c-0.9,0-1.9-0.3-2.6-1c-0.7-0.6-1.2-1.5-1.3-2.4l-9-66.2c-0.1-0.5,0-1.1,0.2-1.6c0.2-0.5,0.4-1,0.8-1.4
	c0.4-0.4,0.8-0.7,1.3-1c0.5-0.2,1-0.3,1.6-0.3L487,381z"/>
<path class="st9" d="M442.2,256.1c21.6-24,45.4,22.9,44.7,51.7C479.4,291.7,366.5,288.8,442.2,256.1z"/>
<path class="st9" d="M444.9,330.2c-1.4-6.5-10.4-0.6-13.2,4.6C434.6,332.7,454.9,343.8,444.9,330.2z"/>
<path class="st10" d="M482.4,298.7c0.2,0,0.4-0.1,0.5-0.2c0.1-0.1,0.2-0.3,0.2-0.5c0-0.2-7.1-26.1-38.3-40c-0.1,0-0.2-0.1-0.3-0.1
	c-0.1,0-0.2,0-0.3,0c-0.1,0-0.2,0.1-0.2,0.1c-0.1,0.1-0.1,0.1-0.2,0.2c0,0.1-0.1,0.2-0.1,0.3c0,0.1,0,0.2,0.1,0.3
	c0,0.1,0.1,0.2,0.2,0.2c0.1,0.1,0.2,0.1,0.2,0.1c29.8,13.4,37.4,38.6,37.4,38.8c0,0.1,0,0.2,0.1,0.3c0,0.1,0.1,0.2,0.2,0.2
	c0.1,0.1,0.1,0.1,0.2,0.1C482.2,298.7,482.3,298.7,482.4,298.7z"/>
<path class="st10" d="M430.9,277.5c0.1,0,0.3,0,0.4-0.1c0.1-0.1,0.2-0.2,0.3-0.3c3-6.3,11.3-11,19.4-11c0.2,0,0.4-0.1,0.5-0.2
	c0.1-0.1,0.2-0.3,0.2-0.5c0-0.1,0-0.2,0-0.3c0-0.1-0.1-0.2-0.1-0.2c-0.1-0.1-0.1-0.1-0.2-0.1c-0.1,0-0.2-0.1-0.3,0
	c-8.7,0-17.4,5-20.6,11.8c-0.1,0.2-0.1,0.4,0,0.5c0.1,0.2,0.2,0.3,0.4,0.4C430.7,277.5,430.8,277.5,430.9,277.5z"/>
<path class="st10" d="M450.3,286.7c0.2,0,0.4-0.1,0.5-0.2c0.1-0.1,0.2-0.3,0.2-0.5c0-3.1,6.4-10,11.2-10c0.1,0,0.2,0,0.3,0
	c0.1,0,0.2-0.1,0.3-0.1c0.1-0.1,0.1-0.1,0.2-0.2c0-0.1,0.1-0.2,0.1-0.3c0-0.1,0-0.2-0.1-0.3c0-0.1-0.1-0.2-0.2-0.2
	c-0.1-0.1-0.2-0.1-0.3-0.1c-0.1,0-0.2,0-0.3,0c-5.3,0-12.6,7.3-12.6,11.4c0,0.1,0,0.2,0.1,0.3c0,0.1,0.1,0.2,0.2,0.2
	c0.1,0.1,0.2,0.1,0.2,0.1C450.1,286.7,450.2,286.8,450.3,286.7z"/>
<path class="st10" d="M466.1,293.5c0.1,0,0.3,0,0.4-0.1c0.1-0.1,0.2-0.2,0.3-0.3c1-2.4,2.4-4.9,5.3-5.5c0.1,0,0.2-0.1,0.3-0.1
	c0.1-0.1,0.1-0.1,0.2-0.2c0-0.1,0.1-0.2,0.1-0.3s0-0.2,0-0.3c0-0.2-0.2-0.3-0.3-0.4c-0.2-0.1-0.3-0.1-0.5-0.1
	c-3.9,0.8-5.4,4.4-6.3,6.3c-0.1,0.2-0.1,0.4,0,0.5c0.1,0.2,0.2,0.3,0.4,0.4C465.9,293.4,466,293.5,466.1,293.5z"/>
<path class="st10" d="M460.8,265.1c0.1,0,0.3,0,0.4-0.1c0.1-0.1,0.2-0.2,0.3-0.4c0.6-1.2,1.5-2.1,2.6-2.8c1.1-0.7,2.4-1.1,3.7-1.1
	c0.2,0,0.4-0.1,0.5-0.2c0.1-0.1,0.2-0.3,0.2-0.5c0-0.2-0.1-0.4-0.2-0.5c-0.1-0.1-0.3-0.2-0.5-0.2c-3.7-0.1-7.1,2.9-7.7,4.9
	c0,0.1,0,0.2,0,0.3s0,0.2,0.1,0.3c0,0.1,0.1,0.2,0.2,0.2c0.1,0.1,0.2,0.1,0.2,0.1C460.6,265,460.7,265.1,460.8,265.1z"/>
<path class="st10" d="M478.4,276.8c0.2,0,0.3,0,0.4-0.1c0.1-0.1,0.2-0.2,0.2-0.4c0-0.2,0-0.3-0.1-0.5c-0.1-0.1-0.2-0.3-0.3-0.3
	c-0.7-0.3-1.5-0.5-2.3-0.5c-0.8,0-1.6,0.2-2.3,0.5c-0.2,0.1-0.3,0.3-0.3,0.4c0,0.2,0,0.4,0.1,0.5c0.1,0.2,0.3,0.3,0.4,0.3
	c0.2,0,0.4,0,0.5-0.1c1.1-0.4,2.2-0.3,3.2,0.2C478.1,276.8,478.3,276.8,478.4,276.8z"/>
</svg>
