<?xml version="1.0" encoding="utf-8"?>
<!-- Generator: Adobe Illustrator 24.0.1, SVG Export Plug-In . SVG Version: 6.00 Build 0)  -->
<svg version="1.1" id="Слой_1" xmlns="http://www.w3.org/2000/svg" xmlns:xlink="http://www.w3.org/1999/xlink" x="0px" y="0px"
	 viewBox="0 0 86.4 77.7" style="enable-background:new 0 0 86.4 77.7;" xml:space="preserve">
<style type="text/css">
	.st0{fill:#FFFFFF;}
	.st1{fill:#066FA4;}
	.st2{opacity:0.2;enable-background:new    ;}
</style>
<path class="st0" d="M75.9,1.9c-0.1-0.2-0.3-0.4-0.5-0.5c-0.2-0.1-0.4-0.2-0.6-0.3c-0.2,0-0.5,0-0.7,0c-0.2,0.1-0.4,0.2-0.6,0.3
	c0-0.2-0.1-0.5-0.2-0.7c-0.1-0.2-0.3-0.4-0.5-0.5c-0.2-0.1-0.4-0.2-0.6-0.3c-0.2,0-0.5,0-0.7,0c-1.8,0.5-1.2,4.2,0.3,5.5
	C73.8,5.7,76.8,3.5,75.9,1.9z"/>
<path class="st1" d="M57.9,32H28.5L1.2,4.4h84.1L57.9,32z"/>
<path class="st1" d="M57.9,32l-5.2,42.6H33.7L28.5,32H57.9z"/>
<path class="st2" d="M85.3,4.4L57.9,32H28.5L1.2,4.4H85.3z"/>
<path class="st2" d="M39.7,74.7h-6L28.5,32L1.2,4.4h16.5L36.9,32L39.7,74.7z"/>
<path class="st1" d="M85,1.7H1.4C0.6,1.7,0,2.4,0,3.2v2.4C0,6.4,0.6,7,1.4,7H85c0.8,0,1.4-0.6,1.4-1.4V3.2C86.4,2.4,85.8,1.7,85,1.7
	z"/>
<path class="st1" d="M52.6,73.7H33.8c-0.7,0-1.2,0.5-1.2,1.2v1.6c0,0.7,0.5,1.2,1.2,1.2h18.8c0.7,0,1.2-0.5,1.2-1.2v-1.6
	C53.8,74.2,53.3,73.7,52.6,73.7z"/>
<path class="st2" d="M52.6,73.7H33.8c-0.7,0-1.2,0.5-1.2,1.2v1.6c0,0.7,0.5,1.2,1.2,1.2h18.8c0.7,0,1.2-0.5,1.2-1.2v-1.6
	C53.8,74.2,53.3,73.7,52.6,73.7z"/>
</svg>
