<?xml version="1.0" encoding="utf-8"?>
<!-- Generator: Adobe Illustrator 24.0.1, SVG Export Plug-In . SVG Version: 6.00 Build 0)  -->
<svg version="1.1" id="Слой_1" xmlns="http://www.w3.org/2000/svg" xmlns:xlink="http://www.w3.org/1999/xlink" x="0px" y="0px"
	 viewBox="0 0 27.6 42" style="enable-background:new 0 0 27.6 42;" xml:space="preserve">
<style type="text/css">
	.st0{display:none;fill:#066FA4;}
	.st1{display:none;opacity:0.7;fill:#FFFFFF;enable-background:new    ;}
	.st2{display:none;opacity:0.1;enable-background:new    ;}
	.st3{display:none;fill:#263238;}
	.st4{display:none;fill:#DE5753;}
	.st5{display:none;fill:#E4897B;}
	.st6{display:none;opacity:0.6;fill:#FFFFFF;enable-background:new    ;}
	.st7{display:none;opacity:0.2;enable-background:new    ;}
	.st8{display:none;opacity:0.2;}
	.st9{display:inline;fill:#FFFFFF;}
	.st10{fill:#E4897B;}
	.st11{fill:#066FA4;}
	.st12{opacity:0.7;fill:#FFFFFF;enable-background:new    ;}
</style>
<path class="st0" d="M31,3.3c0,0-5.5,6.8-11,6.2c-5.6-0.6-8.4,1.7-8.4,1.7l-0.5,2.7l3-0.4c0,0,0-2.1,5.8-1.9s10.1-4.7,11.8-7L31,3.3
	z"/>
<path class="st0" d="M70.3-8l-0.1-0.5c0-0.3-0.1-0.5-0.2-0.8c-0.3-0.7-0.7-1.4-1.3-1.9c-0.7-0.7-1.6-1.2-2.5-1.5
	c-1.2-0.4-2.4-0.7-3.6-0.8c-1.1-0.1-2.1-0.2-3.1-0.2c-2-0.1-4,0-5.9,0.2c-3.8,0.3-7.7,0.7-11.5,1.4l1.4,8c3.5-0.6,7.2-1.1,10.7-1.4
	c1.8-0.2,3.5-0.3,5.2-0.4c0.8,0,1.7,0,2.4,0c0.5,0,1,0.1,1.5,0.2c0,0.3,0,0.6,0,0.9c-0.1,1.6-0.4,3.1-0.9,4.6
	c-1,3.4-2.3,6.7-3.9,9.8l3.9,2.6c2.5-3.1,4.5-6.5,6.2-10.1c0.9-2,1.5-4.1,1.8-6.2C70.6-5.4,70.6-6.7,70.3-8L70.3-8z"/>
<path class="st1" d="M70.4-4.1c-0.3,1.8-0.7,3.5-1.4,5.2c-0.1,0.3-0.3,0.7-0.4,1c-1.6,3.6-3.7,7-6.2,10.1l-3.8-2.6
	c1.6-3.1,2.9-6.4,4-9.8c0.3-1.1,0.6-2.2,0.7-3.3c0.1-0.4,0.1-0.9,0.1-1.3c0-0.3,0-0.6,0-0.9c-0.5-0.1-1-0.1-1.5-0.2
	c-0.8,0-1.6,0-2.4,0h-0.2c-1.6,0.1-3.3,0.2-5.1,0.3c-3.4,0.4-7,0.8-10.4,1.4h-0.3l-1.4-8c3.8-0.7,7.6-1.1,11.5-1.4
	c1.9-0.1,3.9-0.2,5.9-0.2c1,0,2,0.1,3.1,0.2c1.2,0.1,2.4,0.4,3.6,0.8c0.9,0.3,1.8,0.8,2.5,1.5c0.6,0.5,1,1.2,1.3,1.9
	c0.1,0.2,0.2,0.5,0.2,0.8l0.1,0.5C70.6-6.6,70.6-5.4,70.4-4.1z"/>
<path class="st2" d="M59.2-5.9c-1.6,0.1-3.3,0.2-5.1,0.3c-3.4,0.4-7,0.8-10.4,1.4c1.2-3.1,2.5-6.2,2.5-6.2
	C50.8-9.6,55.2-8.1,59.2-5.9L59.2-5.9z"/>
<path class="st2" d="M68.9,1.1c-0.1,0.3-0.3,0.7-0.4,1c-1.6,3.6-3.7,7-6.2,10.1l-3.8-2.6c1.6-3.1,2.9-6.4,4-9.8
	c0.3-1.1,0.6-2.2,0.7-3.3C65.3-2.1,67.2-0.6,68.9,1.1z"/>
<path class="st3" d="M16.9-6.4c0.2,0.3,0.3,0.6,0.1,0.8c-0.2,0.2-0.5,0-0.7-0.2S16-6.4,16.2-6.6C16.4-6.7,16.7-6.7,16.9-6.4z"/>
<path class="st4" d="M17.2-5.8c0.3,1.1,0.5,2.3,0.6,3.5c0.3,0,0.6-0.1,0.9-0.2s0.5-0.3,0.7-0.6L17.2-5.8z"/>
<path class="st3" d="M16.7-8.8L16.7-8.8c0-0.1,0.1-0.1,0-0.1V-9c0,0,0,0,0-0.1c0,0,0,0-0.1,0h-0.1c-0.3,0-0.7,0.1-1,0.3
	S15-8.4,14.8-8.1c0,0,0,0.1,0,0.2c0,0.1,0,0.1,0.1,0.1c0,0,0.1,0,0.2,0s0.1,0,0.1-0.1l0,0c0.2-0.2,0.4-0.4,0.6-0.5s0.5-0.2,0.8-0.2
	C16.6-8.7,16.6-8.7,16.7-8.8C16.7-8.7,16.7-8.7,16.7-8.8L16.7-8.8z"/>
<path class="st5" d="M25-10.8c2.7,1.9,7.8,5,10.8,3.8c0,0,2.6,2.2,0.1,7.7c-2.8,6-4.3,1.5-4.3,1.5c0.7-3.7-1.8-4.7-4.3-5.2L25-10.8z
	"/>
<path class="st5" d="M25.8-14.4c2.5,3.6,4.2,5.6,3.8,8.8c-0.5,4.7-6,6.5-9.6,3.7c-3.2-2.5-6.8-8-4.5-12.1c0.5-0.9,1.2-1.6,2.1-2.2
	c0.9-0.5,1.9-0.8,2.9-0.9c1,0,2,0.2,3,0.6C24.5-15.9,25.3-15.2,25.8-14.4L25.8-14.4z"/>
<path class="st3" d="M29.9-8.4C29.5-6.3,22.6-3.5,19.5-8c0,0-3.9,0-6.3-2.4s-1.9-4.9,0.3-6.3c1.8-1.3,6.6-10.4,12.2-3.9
	C31.9-20.8,30.3-11,29.9-8.4z"/>
<path class="st3" d="M18.2-17.7c0,0-3.6-0.2-5.7,1.5c-2.1,1.7-1.5,6.8-0.7,7.7C12-8.2,12.2-8,12.5-7.8c0.3,0.2,0.6,0.3,0.9,0.3
	c0,0-1.2-0.6-1.2-1.6c0,0,0.5,1.3,3,1.6c-0.2-0.2-0.3-0.3-0.5-0.6c-0.1-0.2-0.2-0.5-0.1-0.7c0,0,1.3,1.7,4.4,0S18.2-17.7,18.2-17.7z
	"/>
<path class="st5" d="M21.3-8.7c0.6,0.9,0.9,2,0.9,3.1C22.1-4.2,20.9-4,20-5c-1-0.9-1.8-2.5-1.3-3.8C19.2-10,20.5-9.8,21.3-8.7z"/>
<path class="st0" d="M28.5,3.3c0,0-0.7-8.2,4.7-12.8l6.4,0.6C39.6-8.9,35.9,0.1,28.5,3.3z"/>
<path class="st6" d="M28.5,3.3c0,0-0.7-8.2,4.7-12.8l6.4,0.6C39.6-8.9,35.9,0.1,28.5,3.3z"/>
<path class="st0" d="M46.9,21.7c0,0-9.6-9.5-20.3-16.1c0,0,7.1-16.7,16.1-18.2c0,0,23.2,7,30,26.1L46.9,21.7z"/>
<path class="st5" d="M48.1,79.5l-4.2,1.8l-4.5-9.5l4.2-1.8L48.1,79.5z"/>
<path class="st3" d="M72.6,13.5l-2.4,26.1c-1.9,1.2-3.9,2-6.1,2.4c-5.1,1.2-11.9,1.7-17.7,2c-6.6,0.4-12,0.4-12.5,0.8
	c-1.1,0.9,13.4,30.8,13.4,30.8l-6.9,0.9c0,0-18.1-24.9-20.5-33.6C19,39.7,18.2,35.7,24,32c5.2-3.3,24.4-5.8,24.4-5.8l-1.5-4.4
	L72.6,13.5z"/>
<path class="st7" d="M64.1,41.9c-5.1,1.2-11.9,1.7-17.7,2c-0.8-9.6,4.1-18.8,4.1-18.8l6.8-1.7L64.1,41.9z"/>
<path class="st5" d="M108.7,75.7l0.7,4.5l-10.2,2.2l-0.7-4.5L108.7,75.7z"/>
<path class="st0" d="M109.6,80.3L109.6,80.3C109.5,80.3,109.5,80.3,109.6,80.3L109.6,80.3C109.5,80.3,109.5,80.3,109.6,80.3
	c-0.1,0.2,0,2,0.5,2.5c0.1,0.1,0.2,0.2,0.4,0.2c0.1,0,0.2,0,0.2-0.1c0.1,0,0.1-0.1,0.2-0.2c0.1-0.3-0.1-0.8-0.4-1.3
	C110.2,81,109.9,80.6,109.6,80.3z M109.7,80.7c0.5,0.7,1.1,1.6,1,2c0,0-0.1,0.1-0.2,0.1s-0.2,0-0.2-0.1c0,0-0.1-0.1-0.1-0.2
	C109.8,81.9,109.7,81.3,109.7,80.7L109.7,80.7z"/>
<path class="st0" d="M109.6,80.3C109.6,80.2,109.5,80.2,109.6,80.3C109.5,80.3,109.5,80.3,109.6,80.3c-0.1,0-1.1,0.8-1.2,1.5
	c0,0.2,0,0.4,0.2,0.6s0.3,0.2,0.5,0.2C109.5,82.3,109.7,80.9,109.6,80.3L109.6,80.3L109.6,80.3L109.6,80.3L109.6,80.3z M108.6,81.8
	c0.2-0.5,0.5-0.9,0.9-1.2c0,0.6-0.3,1.6-0.5,1.8c0,0-0.1,0-0.2-0.1c0,0,0,0,0-0.1C108.6,82.1,108.6,81.9,108.6,81.8z"/>
<path class="st3" d="M108.8,80.2l-2.6-4.2c0-0.1-0.1-0.2-0.1-0.3c0-0.1,0.1-0.2,0.1-0.2l2.9-2.9c0.1-0.1,0.2-0.1,0.3-0.2
	c0.1,0,0.2,0,0.3,0c0.1,0,0.2,0,0.3,0.1c0.1,0.1,0.2,0.1,0.2,0.2c0.9,1.5,2.2,3.8,3.3,5.7c1.4,2.2,2.7,4.1,4.3,6.7
	c1,1.6-0.3,3-0.9,2.4c-2.5-2.6-4.1-5-7.3-6.6C109.3,80.8,109,80.6,108.8,80.2L108.8,80.2z"/>
<path class="st3" d="M72.6,13.5c0,0,8.3,21.3-5.7,29.5c0,0-0.2,24.6,3.4,27.5c4.3,3.5,35.7,5.3,35.7,5.3l-0.3,7.8
	c0,0-33.7,2.8-43.9-0.9C50,78.5,47.3,22.1,47.3,22.1L72.6,13.5z"/>
<path class="st7" d="M63.1,26.6l5-1.5c0.4,2.2,0.6,4.4,0.7,6.6l-2.3,2L64.3,33C64,30.9,63.6,28.7,63.1,26.6z"/>
<path class="st3" d="M48.5,21.8l0.7,2.1l-1.9,0.5l-0.6-2L48.5,21.8z"/>
<path class="st3" d="M57.1,19l0.7,2.1l-7.7,2.4l-0.7-2.1L57.1,19z"/>
<path class="st3" d="M66.7,15.9l0.7,2.2l-8.6,2.7l-0.7-2.2L66.7,15.9z"/>
<path class="st3" d="M73.7,16.2l-5.3,1.6l0,0l-0.7-2.2l5.3-1.7L73.7,16.2z"/>
<g class="st8">
	<path class="st9" d="M48.5,21.8l0.7,2.1l-1.9,0.5l-0.6-2L48.5,21.8z"/>
	<path class="st9" d="M57.1,19l0.7,2.1l-7.7,2.4l-0.7-2.1L57.1,19z"/>
	<path class="st9" d="M66.7,15.9l0.7,2.2l-8.6,2.7l-0.7-2.2L66.7,15.9z"/>
	<path class="st9" d="M73.7,16.2l-5.3,1.6l0,0l-0.7-2.2l5.3-1.7L73.7,16.2z"/>
</g>
<path class="st0" d="M42.7,79.9L42.7,79.9C42.7,79.9,42.8,79.9,42.7,79.9c0.1-0.1,0.1-0.1,0.1-0.2l0,0c-0.1,0-1.7-0.9-2.4-0.7
	c-0.1,0-0.3,0.1-0.3,0.3c0,0.1-0.1,0.2-0.1,0.2s0,0.2,0.1,0.2c0.2,0.3,0.8,0.3,1.3,0.3C41.7,80.1,42.2,80,42.7,79.9L42.7,79.9z
	 M42.3,79.8c-0.8,0.1-2,0.2-2.2-0.1c0,0-0.1-0.1,0-0.2c0,0,0-0.1,0.1-0.1c0,0,0.1,0,0.1-0.1c0.1,0,0.1,0,0.2,0
	C41.2,79.3,41.8,79.5,42.3,79.8L42.3,79.8z"/>
<path class="st0" d="M42.7,79.9L42.7,79.9C42.7,79.8,42.7,79.8,42.7,79.9c-0.1-0.7-0.3-1.3-0.7-1.8C41.9,78,41.8,78,41.7,78
	s-0.2,0-0.3,0c-0.3,0-0.4,0.2-0.4,0.3c-0.1,0.5,1,1.5,1.6,1.7L42.7,79.9L42.7,79.9z M41.9,78.3c0.3,0.4,0.6,0.9,0.6,1.4
	c-0.6-0.3-1.3-1.1-1.3-1.4c0,0,0-0.1,0.2-0.1h0.1C41.7,78.2,41.8,78.2,41.9,78.3L41.9,78.3z"/>
<path class="st3" d="M43.1,79.3l4.9-0.1c0.1,0,0.2,0,0.3,0.1s0.1,0.1,0.1,0.2l1,4c0,0.1,0,0.2,0,0.3c0,0.1-0.1,0.2-0.1,0.3
	c-0.1,0.1-0.1,0.1-0.2,0.2c-0.1,0-0.2,0.1-0.3,0.1c-1.8,0-4.4,0-6.6,0c-2.6,0.1-4.9,0.3-7.9,0.3c-1.9,0-2.4-1.8-1.6-2
	c3.5-0.9,6.4-1,9.4-3C42.4,79.4,42.7,79.3,43.1,79.3L43.1,79.3z"/>
<path class="st1" d="M72.6,13.5l-25.8,8.2c0,0-4.5-4.5-10.8-9.4c-1.2-0.9-2.4-1.9-3.8-2.8c-1.8-1.3-3.8-2.6-5.7-3.9
	c0,0,7.1-16.7,16.1-18.2C42.7-12.5,65.9-5.5,72.6,13.5z"/>
<path class="st2" d="M36.1,12.3c-1.2-0.9-2.4-1.9-3.8-2.8L32.8,8C34.2,9.2,35.3,10.7,36.1,12.3L36.1,12.3z"/>
<path class="st10" d="M19.7,38.1l0,1.8c0.1,0.2,0.1,0.4,0.2,0.6c0.2,0.2,0.3,0.4,0.5,0.4l2.3,0.9c0.3,0.1,0.5,0.1,0.7,0.1
	c0.4-0.2,0.6-0.4,0.7-0.6l0.8-1.2c0,0,3.4-3,2.4-6.5l-3.8,0.6l-2.9,2.1c-0.2,0.2-0.5,0.4-0.6,0.8C19.7,37.4,19.7,37.7,19.7,38.1
	L19.7,38.1z"/>
<path class="st11" d="M4,1.6c0.6-0.6,1.4-1,2.1-1.3S7.7-0.1,8.6,0c0,0,4.4,2.8,6.5,4.3c1.4,1,2.9,2.1,4.3,3.3c1.6,1.3,3,2.6,4.3,4.2
	l0.2,0.4l0.2,0.5c0.2,0.4,0.4,0.6,0.5,0.9c0.1,0.2,0.2,0.5,0.3,0.6c0.1,0.2,0.2,0.5,0.2,0.6l0.2,0.8c0.2,1,0.4,1.8,0.5,2.8
	c0.3,1.8,0.6,3.5,0.8,5.3c0.5,3.5,0.7,7,0.9,10.5L23,34.7c-0.9-3.4-1.6-6.7-2.5-10c-0.5-1.6-0.8-3.2-1.3-4.9
	c-0.2-0.8-0.5-1.5-0.7-2.3l-0.2-0.5c-0.1-0.1,0,0,0,0s0,0.1,0,0c0-0.1-0.1-0.1-0.2-0.1L18,16.8l-0.2-0.1c-1-1-2.1-2-3.4-2.9
	c-1.3-0.9-2.7-1.9-4-2.8C7.6,9.1,4.8,7.4,2,5.6C2.2,4.2,2.9,2.7,4,1.6L4,1.6z"/>
<path class="st12" d="M4,1.6c0.6-0.6,1.4-1,2.1-1.3S7.7-0.1,8.6,0c0,0,4.4,2.8,6.5,4.3c1.4,1,2.9,2.1,4.3,3.3c1.6,1.3,3,2.6,4.3,4.2
	l0.2,0.4l0.2,0.5c0.2,0.4,0.4,0.6,0.5,0.9c0.1,0.2,0.2,0.5,0.3,0.6c0.1,0.2,0.2,0.5,0.2,0.6l0.2,0.8c0.2,1,0.4,1.8,0.5,2.8
	c0.3,1.8,0.6,3.5,0.8,5.3c0.5,3.5,0.7,7,0.9,10.5L23,34.7c-0.9-3.4-1.6-6.7-2.5-10c-0.5-1.6-0.8-3.2-1.3-4.9
	c-0.2-0.8-0.5-1.5-0.7-2.3l-0.2-0.5c-0.1-0.1,0,0,0,0s0,0.1,0,0c0-0.1-0.1-0.1-0.2-0.1L18,16.8l-0.2-0.1c-1-1-2.1-2-3.4-2.9
	c-1.3-0.9-2.7-1.9-4-2.8C7.6,9.1,4.8,7.4,2,5.6C2.2,4.2,2.9,2.7,4,1.6L4,1.6z"/>
</svg>
