<?xml version="1.0" encoding="utf-8"?>
<!-- Generator: Adobe Illustrator 24.0.1, SVG Export Plug-In . SVG Version: 6.00 Build 0)  -->
<svg version="1.1" id="Слой_1" xmlns="http://www.w3.org/2000/svg" xmlns:xlink="http://www.w3.org/1999/xlink" x="0px" y="0px"
	 viewBox="0 0 297 82" width="297" height="82" style="enable-background:new 0 0 297 82;" xml:space="preserve">
<style type="text/css">
	.st0{clip-path:url(#SVGID_2_);}
	.st1{fill:#FFFFFF;}
	.st2{fill-rule:evenodd;clip-rule:evenodd;}
	.st3{fill:#1B22AF;}
</style>
<g>
	<defs>
		<rect id="SVGID_1_" width="297" height="82"/>
	</defs>
	<clipPath id="SVGID_2_">
		<use xlink:href="#SVGID_1_"  style="overflow:visible;"/>
	</clipPath>
	<g class="st0">
		<path class="st1" d="M230.3,5.1h-70v71.7h70V5.1z"/>
		<path class="st2" d="M159.9,4.7h70.9v72.5h-70.9V4.7z M160.8,5.6v70.8h69.1V5.6H160.8z"/>
		<path class="st3" d="M293,77.2l-34.7-36.2l30.4-35.9h-62.9v69.4L293,77.2z"/>
		<path class="st2" d="M157.7,2.5H297l-33.8,39.8l33,37.3H157.7V2.5z M163,7.7v66.6h121.6l-28.3-32l29.5-34.6H163z"/>
		<path d="M52.6,5.4c3.8,0,6.8,1.1,9,3.3c2.2,2.2,3.3,5.1,3.3,8.7c0,1.8-0.3,3.4-0.9,4.8s-1.4,2.7-2.5,3.7c-2.2,2.2-5.2,3.2-9,3.2
			v3.6h-6.7v-3.6c-3.8,0-6.8-1.1-9.1-3.2c-2.2-2.2-3.4-5-3.4-8.4c0-1.8,0.3-3.5,0.9-5c0.6-1.5,1.4-2.8,2.5-3.8
			c2.2-2.2,5.3-3.3,9-3.3V1.8h6.7L52.6,5.4L52.6,5.4z M45.6,10.9c-1.7,0-3.1,0.6-4.1,1.7c-1,1.2-1.5,2.8-1.5,4.8
			c0,1.9,0.5,3.4,1.5,4.5c1,1.1,2.5,1.6,4.3,1.6V10.9H45.6z M52.6,10.9v12.7h0.3c1.7,0,3-0.5,4-1.6s1.5-2.6,1.5-4.5
			c0-2-0.5-3.6-1.5-4.8C55.9,11.5,54.5,10.9,52.6,10.9z"/>
		<path d="M92.7,2.9v28.7h-7V8.3h-6.5l-0.5,9.6c-0.2,3.3-0.7,6-1.4,8c-0.7,2-1.8,3.4-3.1,4.3c-1.3,0.9-3.2,1.4-5.5,1.4h-1.9v-5.3
			l1-0.1c1.4-0.2,2.4-1,3-2.5c0.6-1.5,1-4,1.2-7.5L72.6,3L92.7,2.9L92.7,2.9z"/>
		<path d="M113.8,26.2h-9.6l-1.7,5.4h-7.4l10.6-28.7h6.6L123,31.6h-7.5L113.8,26.2z M106,20.9h6.2L109,11L106,20.9z"/>
		<path d="M144.6,8.3H132v23.3h-7V2.9h19.5V8.3z"/>
		<path d="M20.4,74.6h-9.5L9.2,80H1.7l10.6-28.7h6.6L29.6,80h-7.5L20.4,74.6z M12.5,69.3h6.2l-3.1-9.9L12.5,69.3z"/>
		<path d="M56.3,51.3V80h-7V56.6h-6.5l-0.5,9.6c-0.2,3.3-0.7,6-1.4,8c-0.7,2-1.8,3.4-3.1,4.3c-1.3,0.9-3.2,1.4-5.5,1.4h-1.9v-5.3
			l1-0.1c1.4-0.2,2.4-1,3-2.5c0.6-1.5,1-4,1.2-7.5l0.5-13.2L56.3,51.3L56.3,51.3z"/>
		<path d="M67.7,61.2h3.6c2.3,0,4.3,0.4,6.1,1.2c1.8,0.8,3.1,1.9,4.1,3.3c0.9,1.4,1.4,3,1.4,4.9c0,2.8-1.1,5.1-3.2,6.9
			S74.7,80,71.2,80H60.7V51.3h7L67.7,61.2L67.7,61.2z M67.7,66.5v8.2h3.6c1.4,0,2.5-0.4,3.4-1.2c0.8-0.8,1.2-1.8,1.2-3
			c0-1.2-0.4-2.1-1.2-2.9c-0.8-0.7-2-1.1-3.4-1.1H67.7z"/>
		<path d="M104.3,53.7c3.8,0,6.8,1.1,9,3.3c2.2,2.2,3.3,5.1,3.3,8.7c0,1.8-0.3,3.4-0.9,4.8c-0.6,1.4-1.4,2.7-2.5,3.7
			c-2.2,2.2-5.2,3.2-9,3.2v3.6h-6.7v-3.6c-3.8,0-6.8-1.1-9.1-3.2c-2.2-2.2-3.4-5-3.4-8.4c0-1.8,0.3-3.5,0.9-5
			c0.6-1.5,1.4-2.8,2.5-3.8c2.2-2.2,5.3-3.3,9-3.3v-3.6h6.7L104.3,53.7L104.3,53.7z M97.3,59.3c-1.7,0-3.1,0.6-4.1,1.7
			c-1,1.2-1.5,2.8-1.5,4.8c0,1.9,0.5,3.4,1.5,4.5c1,1.1,2.5,1.6,4.3,1.6V59.3H97.3z M104.3,59.3V72h0.3c1.7,0,3-0.5,4-1.6
			c1-1.1,1.5-2.6,1.5-4.5c0-2-0.5-3.6-1.5-4.8C107.6,59.9,106.2,59.3,104.3,59.3z"/>
		<path d="M136.5,74.6H127l-1.7,5.4h-7.4l10.6-28.7h6.6L145.7,80h-7.5L136.5,74.6z M128.6,69.3h6.2l-3.1-9.9L128.6,69.3z"/>
	</g>
</g>
</svg>
