<svg xmlns="http://www.w3.org/2000/svg" viewBox="0 0 21.39 21.43"><defs><style>.cls-1{fill:none;stroke:#111;stroke-linecap:round;stroke-linejoin:round;stroke-width:1.5px;}</style></defs><title>phone-icon_1</title><g id="Слой_2" data-name="Слой 2"><g id="Слой_1-2" data-name="Слой 1"><path class="cls-1" d="M20.64,15.67v3a2.06,2.06,0,0,1-.17.81,2,2,0,0,1-.48.67,2.05,2.05,0,0,1-.71.42,1.89,1.89,0,0,1-.82.1A19.79,19.79,0,0,1,9.83,17.6a19.41,19.41,0,0,1-6-6A19.82,19.82,0,0,1,.76,2.93a2.05,2.05,0,0,1,.09-.82,2.22,2.22,0,0,1,.42-.71A2.11,2.11,0,0,1,1.94.92,2.06,2.06,0,0,1,2.75.75h3a2.06,2.06,0,0,1,1.32.48,2,2,0,0,1,.68,1.24,12.44,12.44,0,0,0,.7,2.81A2,2,0,0,1,8.53,6.4a2,2,0,0,1-.53,1L6.73,8.66a15.93,15.93,0,0,0,6,6L14,13.39a2,2,0,0,1,1-.53,2,2,0,0,1,1.12.08,13,13,0,0,0,2.81.7,2,2,0,0,1,1.24.69A2,2,0,0,1,20.64,15.67Z"/></g></g></svg>