<svg xmlns="http://www.w3.org/2000/svg" viewBox="0 0 43.83 43.83"><defs><style>.cls-1{fill:#fff;fill-rule:evenodd;}.cls-2{fill:none;stroke:#fff;stroke-linecap:round;stroke-linejoin:round;}</style></defs><title>prev-sl-btn</title><g id="Слой_2" data-name="Слой 2"><g id="Слой_1-2" data-name="Слой 1"><path class="cls-1" d="M21.92,2.5A19.42,19.42,0,1,1,2.5,21.92,19.41,19.41,0,0,1,21.92,2.5ZM43.33,21.92A21.42,21.42,0,1,0,21.92,43.33,21.42,21.42,0,0,0,43.33,21.92Z"/><path class="cls-1" d="M22.62,13a1,1,0,0,0-1.41,0L13,21.21a1,1,0,0,0-.29.71,1,1,0,0,0,.29.7l8.17,8.17a1,1,0,0,0,1.41-1.41l-7.46-7.46,7.46-7.46A1,1,0,0,0,22.62,13Z"/><path class="cls-1" d="M31.08,21.92a1,1,0,0,0-1-1H13.75a1,1,0,0,0,0,2H30.08A1,1,0,0,0,31.08,21.92Z"/><path class="cls-2" d="M12.75,21.92a1,1,0,0,1,.29-.71L21.21,13a1,1,0,0,1,1.41,0,1,1,0,0,1,0,1.42l-7.46,7.46,7.46,7.46a1,1,0,0,1-1.41,1.41L13,22.62A1,1,0,0,1,12.75,21.92Zm0,0a1,1,0,0,1,1-1H30.08a1,1,0,0,1,0,2H13.75A1,1,0,0,1,12.75,21.92Zm28.58,0A19.42,19.42,0,1,0,21.92,41.33,19.41,19.41,0,0,0,41.33,21.92ZM21.92.5A21.42,21.42,0,1,1,.5,21.92,21.42,21.42,0,0,1,21.92.5Z"/></g></g></svg>