<svg width="10" height="5" viewBox="0 0 10 5" fill="none" xmlns="http://www.w3.org/2000/svg">
<path d="M4.96408e-05 4.17039C-0.00031371 4.06366 0.0232354 3.9582 0.068966 3.86177C0.114697 3.76534 0.181446 3.68038 0.264311 3.61314L4.54962 0.162521C4.67742 0.0574434 4.83772 6.15596e-08 5.00315 5.95869e-08C5.16858 5.76141e-08 5.32888 0.0574434 5.45668 0.162521L9.74199 3.73459C9.88784 3.85586 9.97957 4.03011 9.99698 4.21902C10.0144 4.40793 9.95607 4.59602 9.83484 4.74192C9.71361 4.88781 9.5394 4.97956 9.35054 4.99698C9.16168 5.01439 8.97364 4.95605 8.82779 4.83479L4.99958 1.64136L1.17137 4.72763C1.06653 4.81499 0.93887 4.87048 0.803492 4.88754C0.668113 4.9046 0.53068 4.88252 0.407457 4.82389C0.284235 4.76527 0.180379 4.67257 0.108179 4.55675C0.0359784 4.44094 -0.0015449 4.30686 4.96408e-05 4.17039Z" fill="#2F80ED"/>
</svg>
