<?xml version="1.0" encoding="utf-8"?>
<!-- Generator: Adobe Illustrator 24.0.1, SVG Export Plug-In . SVG Version: 6.00 Build 0)  -->
<svg version="1.1" id="Слой_1" xmlns="http://www.w3.org/2000/svg" xmlns:xlink="http://www.w3.org/1999/xlink" x="0px" y="0px"
	 viewBox="0 0 10 5" style="enable-background:new 0 0 10 5;" xml:space="preserve">
<style type="text/css">
	.st0{fill:#2F80ED;}
</style>
<path class="st0" d="M10,0.8c0,0.1,0,0.2-0.1,0.3c0,0.1-0.1,0.2-0.2,0.2L5.5,4.8C5.3,4.9,5.2,5,5,5S4.7,4.9,4.5,4.8L0.3,1.3
	C0.1,1.1,0,1,0,0.8c0-0.2,0-0.4,0.2-0.5C0.3,0.1,0.5,0,0.6,0C0.8,0,1,0,1.2,0.2L5,3.4l3.8-3.1c0.1-0.1,0.2-0.1,0.4-0.2
	c0.1,0,0.3,0,0.4,0.1c0.1,0.1,0.2,0.2,0.3,0.3C10,0.6,10,0.7,10,0.8z"/>
</svg>
