<svg width="47" height="23" viewBox="0 0 47 23" fill="none" xmlns="http://www.w3.org/2000/svg">
<path d="M46.6481 8.86333L44.2262 3.24943C43.3541 1.25329 41.4589 -0.0283895 39.3702 -0.0344238H4.6453C2.08073 -0.0316078 0.00267741 2.15401 0 4.85133V17.0611C0.00191243 18.5391 1.14058 19.7367 2.54583 19.7387H6.34508C6.71571 21.6588 8.32062 23.0383 10.1833 23.0383C12.046 23.0383 13.651 21.6588 14.0216 19.7387H32.9784C33.349 21.6588 34.954 23.0383 36.8167 23.0383C38.6794 23.0383 40.2843 21.6588 40.6549 19.7387H44.8225C46.0247 19.7375 46.9989 18.7129 47 17.4485V10.569C47.0004 9.98047 46.8803 9.39877 46.6481 8.86333ZM44.9499 8.91723L37.6 8.27036V4.8099L42.8814 4.11555L44.9499 8.91723ZM10.1833 21.3865C8.88556 21.3865 7.83333 20.2798 7.83333 18.9148C7.83333 17.5499 8.88556 16.4432 10.1833 16.4432C11.4811 16.4432 12.5333 17.5499 12.5333 18.9148C12.5333 20.2798 11.4811 21.3865 10.1833 21.3865ZM36.8167 21.3865C35.5189 21.3865 34.4667 20.2798 34.4667 18.9148C34.4667 17.5499 35.5189 16.4432 36.8167 16.4432C38.1144 16.4432 39.1667 17.5499 39.1667 18.9148C39.1667 20.2798 38.1144 21.3865 36.8167 21.3865ZM44.8225 18.091H40.6549C40.2843 16.1708 38.6794 14.7914 36.8167 14.7914C34.954 14.7914 33.349 16.1708 32.9784 18.091H14.0216C13.651 16.1708 12.046 14.7914 10.1833 14.7914C8.32062 14.7914 6.71571 16.1708 6.34508 18.091H2.54583C2.00538 18.0901 1.56743 17.6295 1.56667 17.0611V4.85133C1.56858 3.06358 2.94553 1.61535 4.6453 1.61334H39.3702C40.2812 1.61535 41.1606 1.96373 41.8464 2.59371L36.7681 3.2611H6.26667C5.83407 3.2611 5.48333 3.62999 5.48333 4.08498V9.02826C5.48333 9.48325 5.83407 9.85214 6.26667 9.85214H36.7838L45.4333 10.6101V17.4485C45.433 17.8029 45.1595 18.0905 44.8225 18.091ZM7.05 8.20438V4.90886H12.5333V8.20438H7.05ZM14.1 4.90886H20.3667V8.20438H14.1V4.90886ZM21.9333 4.90886H27.4167V8.20438H21.9333V4.90886ZM28.9833 4.90886H36.0333V8.20438H28.9833V4.90886Z" fill="#444343"/>
</svg>
