<svg width="20" height="20" viewBox="0 0 20 20" fill="none" xmlns="http://www.w3.org/2000/svg">
<path d="M17.8571 2.14286H15.7143V0.714299C15.7143 0.319796 15.3945 0 15 0C14.6055 0 14.2857 0.319796 14.2857 0.714299V2.14286H5.71427V0.714299C5.71427 0.319796 5.39447 0 5.00001 0C4.60555 0 4.28571 0.319796 4.28571 0.714299V2.14286H2.14286C0.959388 2.14286 0 3.10224 0 4.28571V17.8571C0 19.0406 0.959388 20 2.14286 20H17.8571C19.0406 20 20 19.0406 20 17.8571V4.28571C20 3.10224 19.0406 2.14286 17.8571 2.14286ZM18.5714 17.8571C18.5714 18.2516 18.2516 18.5714 17.8571 18.5714H2.14286C1.74835 18.5714 1.42856 18.2516 1.42856 17.8571V8.57142H18.5714V17.8571ZM18.5714 7.14287H1.42856V4.28571C1.42856 3.89121 1.74835 3.57141 2.14286 3.57141H4.28571V4.99997C4.28571 5.39447 4.60551 5.71427 5.00001 5.71427C5.39451 5.71427 5.71431 5.39447 5.71431 4.99997V3.57141H14.2857V4.99997C14.2857 5.39447 14.6055 5.71427 15 5.71427C15.3945 5.71427 15.7143 5.39447 15.7143 4.99997V3.57141H17.8572C18.2517 3.57141 18.5715 3.89121 18.5715 4.28571V7.14287H18.5714Z" fill="#0053C3"/>
<path d="M5.71415 9.99976H4.28559C3.89109 9.99976 3.57129 10.3195 3.57129 10.714C3.57129 11.1085 3.89109 11.4283 4.28559 11.4283H5.71415C6.10865 11.4283 6.42845 11.1085 6.42845 10.714C6.42845 10.3195 6.10865 9.99976 5.71415 9.99976Z" fill="#0053C3"/>
<path d="M10.7142 9.99976H9.28559C8.89109 9.99976 8.57129 10.3195 8.57129 10.714C8.57129 11.1085 8.89109 11.4283 9.28559 11.4283H10.7142C11.1087 11.4283 11.4285 11.1085 11.4285 10.714C11.4285 10.3195 11.1087 9.99976 10.7142 9.99976Z" fill="#0053C3"/>
<path d="M15.7141 9.99976H14.2856C13.8911 9.99976 13.5713 10.3195 13.5713 10.714C13.5713 11.1085 13.8911 11.4283 14.2856 11.4283H15.7141C16.1086 11.4283 16.4284 11.1085 16.4284 10.714C16.4284 10.3195 16.1086 9.99976 15.7141 9.99976Z" fill="#0053C3"/>
<path d="M5.71415 12.8572H4.28559C3.89109 12.8572 3.57129 13.177 3.57129 13.5715C3.57129 13.966 3.89109 14.2858 4.28559 14.2858H5.71415C6.10865 14.2858 6.42845 13.966 6.42845 13.5715C6.42845 13.177 6.10865 12.8572 5.71415 12.8572Z" fill="#0053C3"/>
<path d="M10.7142 12.8572H9.28559C8.89109 12.8572 8.57129 13.177 8.57129 13.5715C8.57129 13.966 8.89109 14.2858 9.28559 14.2858H10.7142C11.1087 14.2858 11.4285 13.966 11.4285 13.5715C11.4285 13.177 11.1087 12.8572 10.7142 12.8572Z" fill="#0053C3"/>
<path d="M15.7141 12.8572H14.2856C13.8911 12.8572 13.5713 13.177 13.5713 13.5715C13.5713 13.966 13.8911 14.2858 14.2856 14.2858H15.7141C16.1086 14.2858 16.4284 13.966 16.4284 13.5715C16.4284 13.177 16.1086 12.8572 15.7141 12.8572Z" fill="#0053C3"/>
<path d="M5.71415 15.7144H4.28559C3.89109 15.7144 3.57129 16.0342 3.57129 16.4287C3.57129 16.8232 3.89109 17.1429 4.28559 17.1429H5.71415C6.10865 17.1429 6.42845 16.8231 6.42845 16.4286C6.42845 16.0341 6.10865 15.7144 5.71415 15.7144Z" fill="#0053C3"/>
<path d="M10.7142 15.7144H9.28559C8.89109 15.7144 8.57129 16.0342 8.57129 16.4287C8.57129 16.8232 8.89109 17.143 9.28559 17.143H10.7142C11.1087 17.143 11.4285 16.8232 11.4285 16.4287C11.4285 16.0342 11.1087 15.7144 10.7142 15.7144Z" fill="#0053C3"/>
<path d="M15.7141 15.7144H14.2856C13.8911 15.7144 13.5713 16.0342 13.5713 16.4287C13.5713 16.8232 13.8911 17.143 14.2856 17.143H15.7141C16.1086 17.143 16.4284 16.8232 16.4284 16.4287C16.4284 16.0342 16.1086 15.7144 15.7141 15.7144Z" fill="#0053C3"/>
</svg>
