<svg width="22" height="18" viewBox="0 0 22 18" fill="none" xmlns="http://www.w3.org/2000/svg">
<path d="M6.52239 16.7721H3.42236C3.24439 16.7721 3.1001 16.9164 3.1001 17.0944C3.1001 17.2723 3.24439 17.4166 3.42236 17.4166H6.52239C6.70036 17.4166 6.84465 17.2723 6.84465 17.0944C6.84465 16.9164 6.70036 16.7721 6.52239 16.7721Z" fill="#2F80ED"/>
<path d="M21.9056 16.1775C21.7797 16.0516 21.5757 16.0516 21.4499 16.1775L21.2654 16.3619C21.001 16.6263 20.6495 16.7719 20.2755 16.7719H15.2649L18.5325 8.60282C18.5986 8.43757 18.5183 8.25001 18.353 8.18392C18.1877 8.11771 18.0002 8.19819 17.9341 8.36345L17.7416 8.84461L15.4161 7.58112L14.9563 5.51205C14.8097 4.85218 14.3474 4.30837 13.7188 4.05692C13.4194 3.93716 13.0977 3.93433 12.8076 4.02757H9.27782C8.53034 4.02757 7.92224 4.63566 7.92224 5.38314V8.26316L0.204915 11.2831C0.0391849 11.3479 -0.0426273 11.5349 0.0222553 11.7006C0.0720129 11.8278 0.193657 11.9055 0.322434 11.9055C0.361492 11.9055 0.401195 11.8983 0.439781 11.8833L8.30918 8.80392C9.03204 8.77272 9.63527 8.22178 9.72576 7.4978L9.90675 6.04989H10.3111C10.4891 6.04989 10.6334 5.9056 10.6334 5.72762C10.6334 5.54965 10.4891 5.40536 10.3111 5.40536H9.62225C9.45975 5.40536 9.32263 5.52636 9.30248 5.68766L9.08622 7.41788C9.04733 7.7288 8.84203 7.9836 8.56677 8.09717V5.38323C8.56677 4.99114 8.88573 4.67219 9.27782 4.67219H12.0279L10.1012 8.52681C9.98615 8.75695 9.90696 9.12339 9.87633 9.32049L9.44428 12.9441L6.97951 15.4924C6.86943 15.6062 6.85834 15.7832 6.95335 15.9098L7.98665 17.2875C8.04999 17.372 8.14676 17.4165 8.24472 17.4165H8.24498H20.2755C20.8215 17.4165 21.335 17.2038 21.7211 16.8176L21.9056 16.6332C22.0315 16.5074 22.0315 16.3033 21.9056 16.1775ZM9.9831 13.3142C10.0321 13.2635 10.0631 13.1982 10.0714 13.1283L10.351 10.7834L11.3842 12.5054L10.7352 13.8034L10.3131 14.2255L9.70424 13.6025L9.9831 13.3142ZM8.40564 16.772L7.63388 15.743L9.2559 14.0659L9.85725 14.6812L8.70552 15.833C8.60742 15.9311 8.5831 16.0809 8.64515 16.205L8.92861 16.7719H8.40564V16.772ZM9.64808 16.772L9.32551 16.1246L11.2279 14.2222C11.2524 14.1977 11.2728 14.1694 11.2883 14.1384L11.7339 13.2473L12.0276 16.772H9.64808V16.772ZM13.4333 16.772H12.6744L12.4697 14.3165H13.4333V16.772ZM13.4333 13.672H12.416L12.3545 12.9342C12.3505 12.885 12.3351 12.8375 12.3097 12.7951L10.7295 10.1614C10.6222 9.98254 10.5579 9.78661 10.5368 9.58702L12.1493 10.1245L13.2491 12.3243C13.3696 12.5652 13.4333 12.835 13.4333 13.1044V13.672ZM14.0778 16.772V13.1044C14.0778 12.7354 13.9906 12.366 13.8256 12.0361L12.7381 9.86099L13.0105 9.31623C13.0901 9.15703 13.0255 8.96346 12.8663 8.88388C12.7071 8.80422 12.5136 8.8688 12.434 9.028L12.2145 9.46688L10.6245 8.93686C10.6404 8.89578 10.6577 8.85501 10.6777 8.81504L12.5881 4.99432C12.7505 4.66939 13.1421 4.52038 13.4804 4.65586C13.9102 4.82773 14.2267 5.20014 14.3271 5.65196L14.8187 7.86424C14.8389 7.95524 14.8976 8.03302 14.9795 8.07749L17.5006 9.44724L17.2998 9.9492L14.7791 9.06804C14.5002 8.97055 14.2736 8.75897 14.1572 8.48745L13.3629 6.634C13.2928 6.47042 13.1033 6.39467 12.9397 6.46475C12.7761 6.53487 12.7003 6.72432 12.7705 6.8879L13.5648 8.74135C13.7522 9.17865 14.1172 9.51947 14.5664 9.67648L17.0602 10.5482L14.5707 16.772H14.0778Z" fill="#2F80ED"/>
<path d="M13.2128 2.53734C13.2701 2.58203 13.34 2.60558 13.4112 2.60558C13.4311 2.60558 13.4511 2.60313 13.4709 2.59935C13.6137 3.19485 14.1502 3.63889 14.7889 3.63889C15.5364 3.63889 16.1445 3.0308 16.1445 2.28331C16.1445 2.16798 16.1292 2.05304 16.1002 1.94175C16.1859 1.91318 16.2562 1.85023 16.2931 1.76696C16.3333 1.67608 16.3294 1.57175 16.2824 1.48418C15.9844 0.928463 15.4121 0.583252 14.7889 0.583252C13.8515 0.583252 13.0889 1.3459 13.0889 2.28327C13.0889 2.38257 13.1346 2.47628 13.2128 2.53734ZM14.7889 2.9944C14.4522 2.9944 14.17 2.75889 14.0969 2.4441L15.4758 2.09936C15.4917 2.15874 15.5 2.22019 15.5 2.28335C15.5 2.6754 15.181 2.9944 14.7889 2.9944ZM14.7889 1.22783C15.0231 1.22783 15.2461 1.30728 15.4265 1.44731L13.8279 1.84696C13.9943 1.48207 14.3625 1.22783 14.7889 1.22783Z" fill="#2F80ED"/>
</svg>
