<svg width="13" height="13" viewBox="0 0 13 13" fill="none" xmlns="http://www.w3.org/2000/svg">
<path fill-rule="evenodd" clip-rule="evenodd" d="M6.5 12.1875C8.00842 12.1875 9.45506 11.5883 10.5217 10.5217C11.5883 9.45506 12.1875 8.00842 12.1875 6.5C12.1875 4.99158 11.5883 3.54494 10.5217 2.47833C9.45506 1.41172 8.00842 0.8125 6.5 0.8125C4.99158 0.8125 3.54494 1.41172 2.47833 2.47833C1.41172 3.54494 0.8125 4.99158 0.8125 6.5C0.8125 8.00842 1.41172 9.45506 2.47833 10.5217C3.54494 11.5883 4.99158 12.1875 6.5 12.1875ZM6.5 13C8.22391 13 9.87721 12.3152 11.0962 11.0962C12.3152 9.87721 13 8.22391 13 6.5C13 4.77609 12.3152 3.12279 11.0962 1.90381C9.87721 0.68482 8.22391 0 6.5 0C4.77609 0 3.12279 0.68482 1.90381 1.90381C0.68482 3.12279 0 4.77609 0 6.5C0 8.22391 0.68482 9.87721 1.90381 11.0962C3.12279 12.3152 4.77609 13 6.5 13Z" fill="white"/>
<path d="M7.25559 5.35278L5.39496 5.58597L5.32834 5.89472L5.69396 5.96216C5.93284 6.01903 5.97996 6.10516 5.92796 6.34322L5.32834 9.16097C5.17071 9.88978 5.41365 10.2327 5.98484 10.2327C6.42765 10.2327 6.94196 10.0279 7.17515 9.74678L7.24665 9.40878C7.08415 9.55178 6.8469 9.60866 6.68927 9.60866C6.46584 9.60866 6.38459 9.45185 6.44227 9.1756L7.25559 5.35278Z" fill="white"/>
<path d="M6.5 4.46875C6.94873 4.46875 7.3125 4.10498 7.3125 3.65625C7.3125 3.20752 6.94873 2.84375 6.5 2.84375C6.05127 2.84375 5.6875 3.20752 5.6875 3.65625C5.6875 4.10498 6.05127 4.46875 6.5 4.46875Z" fill="white"/>
</svg>
