<svg width="21" height="21" viewBox="0 0 21 21" fill="none" xmlns="http://www.w3.org/2000/svg">
<rect x="1.73877" y="1.28418" width="17.9773" height="17.9773" rx="3.85227" fill="url(#paint0_radial)"/>
<rect x="1.73877" y="1.28418" width="17.9773" height="17.9773" rx="3.85227" fill="url(#paint1_radial)"/>
<rect x="1.73877" y="1.28418" width="17.9773" height="17.9773" rx="3.85227" fill="url(#paint2_radial)"/>
<path d="M15.2214 6.7415C15.2214 7.27339 14.7902 7.70457 14.2583 7.70457C13.7265 7.70457 13.2953 7.27339 13.2953 6.7415C13.2953 6.20961 13.7265 5.77843 14.2583 5.77843C14.7902 5.77843 15.2214 6.20961 15.2214 6.7415Z" fill="white"/>
<path fill-rule="evenodd" clip-rule="evenodd" d="M10.7271 13.483C12.5001 13.483 13.9373 12.0457 13.9373 10.2727C13.9373 8.49979 12.5001 7.06252 10.7271 7.06252C8.95414 7.06252 7.51687 8.49979 7.51687 10.2727C7.51687 12.0457 8.95414 13.483 10.7271 13.483ZM10.7271 12.1989C11.7909 12.1989 12.6532 11.3365 12.6532 10.2727C12.6532 9.20897 11.7909 8.34661 10.7271 8.34661C9.66332 8.34661 8.80096 9.20897 8.80096 10.2727C8.80096 11.3365 9.66332 12.1989 10.7271 12.1989Z" fill="white"/>
<path fill-rule="evenodd" clip-rule="evenodd" d="M4.30664 10.0159C4.30664 7.85846 4.30664 6.77972 4.72651 5.95567C5.09584 5.23082 5.68517 4.6415 6.41002 4.27217C7.23406 3.85229 8.3128 3.85229 10.4703 3.85229H10.9839C13.1414 3.85229 14.2201 3.85229 15.0442 4.27217C15.769 4.6415 16.3583 5.23082 16.7277 5.95567C17.1475 6.77972 17.1475 7.85846 17.1475 10.0159V10.5296C17.1475 12.687 17.1475 13.7658 16.7277 14.5898C16.3583 15.3147 15.769 15.904 15.0442 16.2733C14.2201 16.6932 13.1414 16.6932 10.9839 16.6932H10.4703C8.3128 16.6932 7.23406 16.6932 6.41002 16.2733C5.68517 15.904 5.09584 15.3147 4.72651 14.5898C4.30664 13.7658 4.30664 12.687 4.30664 10.5296V10.0159ZM10.4703 5.13639H10.9839C12.0838 5.13639 12.8316 5.13738 13.4095 5.18461C13.9725 5.2306 14.2604 5.31397 14.4612 5.4163C14.9444 5.66252 15.3373 6.0554 15.5835 6.53864C15.6859 6.73947 15.7692 7.02737 15.8152 7.59033C15.8625 8.16829 15.8635 8.91601 15.8635 10.0159V10.5296C15.8635 11.6295 15.8625 12.3772 15.8152 12.9552C15.7692 13.5181 15.6859 13.806 15.5835 14.0069C15.3373 14.4901 14.9444 14.883 14.4612 15.1292C14.2604 15.2315 13.9725 15.3149 13.4095 15.3609C12.8316 15.4081 12.0838 15.4091 10.9839 15.4091H10.4703C9.37035 15.4091 8.62263 15.4081 8.04468 15.3609C7.48171 15.3149 7.19381 15.2315 6.99298 15.1292C6.50975 14.883 6.11687 14.4901 5.87065 14.0069C5.76832 13.806 5.68495 13.5181 5.63895 12.9552C5.59173 12.3772 5.59073 11.6295 5.59073 10.5296V10.0159C5.59073 8.91601 5.59173 8.16829 5.63895 7.59033C5.68495 7.02737 5.76832 6.73947 5.87065 6.53864C6.11687 6.0554 6.50975 5.66252 6.99298 5.4163C7.19381 5.31397 7.48171 5.2306 8.04468 5.18461C8.62263 5.13738 9.37035 5.13639 10.4703 5.13639Z" fill="white"/>
<defs>
<radialGradient id="paint0_radial" cx="0" cy="0" r="1" gradientUnits="userSpaceOnUse" gradientTransform="translate(8.15922 14.7671) rotate(-55.3758) scale(16.3847)">
<stop stop-color="#B13589"/>
<stop offset="0.79309" stop-color="#C62F94"/>
<stop offset="1" stop-color="#8A3AC8"/>
</radialGradient>
<radialGradient id="paint1_radial" cx="0" cy="0" r="1" gradientUnits="userSpaceOnUse" gradientTransform="translate(7.51718 19.9035) rotate(-65.1363) scale(14.5065)">
<stop stop-color="#E0E8B7"/>
<stop offset="0.444662" stop-color="#FB8A2E"/>
<stop offset="0.71474" stop-color="#E2425C"/>
<stop offset="1" stop-color="#E2425C" stop-opacity="0"/>
</radialGradient>
<radialGradient id="paint2_radial" cx="0" cy="0" r="1" gradientUnits="userSpaceOnUse" gradientTransform="translate(0.775702 1.92622) rotate(-8.1301) scale(24.9697 5.34076)">
<stop offset="0.156701" stop-color="#406ADC"/>
<stop offset="0.467799" stop-color="#6A45BE"/>
<stop offset="1" stop-color="#6A45BE" stop-opacity="0"/>
</radialGradient>
</defs>
</svg>
