<svg width="20" height="22" viewBox="0 0 20 22" fill="none" xmlns="http://www.w3.org/2000/svg">
<path d="M18.6805 13.7499H17.384L19.0184 6.95432C19.0393 6.86638 19.0245 6.77379 18.9771 6.69659C18.9296 6.61939 18.8534 6.56379 18.7649 6.54182L17.376 6.19807C17.2879 6.17619 17.1946 6.18939 17.1162 6.23482C17.0377 6.28026 16.9804 6.35431 16.9565 6.4411L14.943 13.7499H14.1576C14.3874 13.4542 14.5126 13.0918 14.5138 12.7187V11.6874H13.4722C13.0644 11.6884 12.67 11.8314 12.3581 12.0914C12.0462 12.3515 11.8366 12.7119 11.7663 13.1095C11.6329 12.9181 11.4614 12.7559 11.2622 12.6328C11.063 12.5097 10.8404 12.4284 10.6082 12.3938C10.376 12.3593 10.1391 12.3723 9.91216 12.432C9.68522 12.4917 9.47307 12.5969 9.28884 12.741C9.99995 9.73113 9.99995 9.69366 9.99995 9.62491C9.99988 9.43419 9.95973 9.24556 9.88205 9.07103C9.80437 8.89649 9.69087 8.73986 9.54875 8.6111C9.40664 8.48233 9.23902 8.38424 9.05654 8.32307C8.87407 8.26189 8.68074 8.23897 8.48884 8.25575C8.34763 7.85195 8.08279 7.50175 7.73118 7.2539C7.37957 7.00604 6.95867 6.87285 6.52703 6.87285C6.09539 6.87285 5.67449 7.00604 5.32288 7.2539C4.97126 7.50175 4.70643 7.85195 4.56522 8.25575C4.37343 8.23917 4.18025 8.26225 3.99794 8.32351C3.81564 8.38478 3.64819 8.4829 3.50623 8.61164C3.36426 8.74039 3.25089 8.89695 3.1733 9.07138C3.0957 9.24581 3.05559 9.43431 3.0555 9.62491C3.0555 9.71807 3.05758 9.87378 3.64578 11.7115C3.56543 11.6978 3.48421 11.6898 3.40272 11.6874H2.36106V12.7187C2.36233 13.0918 2.48751 13.4542 2.71731 13.7499H1.31939C1.2273 13.7499 1.13898 13.7861 1.07387 13.8506C1.00875 13.9151 0.972168 14.0025 0.972168 14.0937C0.972168 17.2929 4.00203 19.3187 4.79161 19.7913V20.9687C4.79161 21.0598 4.82819 21.1473 4.89331 21.2117C4.95843 21.2762 5.04675 21.3124 5.13883 21.3124H14.8611C14.9531 21.3124 15.0415 21.2762 15.1066 21.2117C15.1717 21.1473 15.2083 21.0598 15.2083 20.9687V19.7913C15.9979 19.3187 19.0277 17.2929 19.0277 14.0937C19.0277 14.0025 18.9911 13.9151 18.926 13.8506C18.8609 13.7861 18.7726 13.7499 18.6805 13.7499ZM17.5371 6.94641L18.2631 7.12585L16.6701 13.7499H15.6631L17.5371 6.94641ZM12.4305 13.4062C12.4305 13.1327 12.5402 12.8704 12.7356 12.677C12.931 12.4836 13.1959 12.3749 13.4722 12.3749H13.8194V12.7187C13.8194 12.9922 13.7096 13.2545 13.5143 13.4479C13.3189 13.6413 13.054 13.7499 12.7777 13.7499H12.4305V13.4062ZM10.3472 13.0624C10.5625 13.0627 10.7726 13.1289 10.9484 13.252C11.1243 13.3751 11.2574 13.549 11.3295 13.7499H9.36488C9.43695 13.549 9.57005 13.3751 9.74591 13.252C9.92178 13.1289 10.1318 13.0627 10.3472 13.0624ZM8.55168 13.7499H6.5871C6.65882 13.5487 6.79181 13.3745 6.96774 13.2513C7.14367 13.128 7.35388 13.0619 7.56939 13.0619C7.7849 13.0619 7.99511 13.128 8.17104 13.2513C8.34697 13.3745 8.47996 13.5487 8.55168 13.7499ZM3.74995 9.62491C3.74744 9.51239 3.77338 9.40104 3.82539 9.30096C3.87741 9.20089 3.95386 9.11527 4.0478 9.05188C4.14173 8.9885 4.25018 8.94935 4.36328 8.938C4.47639 8.92666 4.59056 8.94347 4.69543 8.98691C4.74365 9.00513 4.79537 9.01248 4.84683 9.00842C4.89828 9.00437 4.94817 8.989 4.99287 8.96345C5.03757 8.9379 5.07595 8.90281 5.10523 8.86072C5.1345 8.81863 5.15393 8.77062 5.1621 8.72016C5.21264 8.3975 5.37807 8.10337 5.62852 7.89091C5.87897 7.67845 6.19791 7.56167 6.52772 7.56167C6.85754 7.56167 7.17648 7.67845 7.42693 7.89091C7.67738 8.10337 7.84281 8.3975 7.89335 8.72016C7.90152 8.77062 7.92095 8.81863 7.95022 8.86072C7.97949 8.90281 8.01788 8.9379 8.06258 8.96345C8.10728 8.989 8.15717 9.00437 8.20862 9.00842C8.26007 9.01248 8.31179 9.00513 8.36002 8.98691C8.46304 8.94425 8.57506 8.92729 8.68626 8.93749C8.79745 8.9477 8.90441 8.98477 8.99776 9.04545C9.09111 9.10613 9.16798 9.18857 9.22164 9.28552C9.27529 9.38248 9.30409 9.49099 9.3055 9.60153C9.25898 9.84525 8.85203 11.5736 8.58467 12.7056C8.2903 12.4914 7.9347 12.3756 7.56939 12.3749C7.16932 12.3754 6.78165 12.5124 6.47173 12.7629C6.16181 13.0134 5.94859 13.362 5.868 13.7499H5.13883V13.4062C5.13787 13.1512 5.07927 12.8996 4.96734 12.67C4.85541 12.4403 4.69298 12.2384 4.49196 12.0789C3.84682 10.0876 3.75724 9.68919 3.74995 9.62491ZM3.0555 12.7187V12.3749H3.40272C3.67899 12.3749 3.94394 12.4836 4.13929 12.677C4.33464 12.8704 4.44439 13.1327 4.44439 13.4062V13.7499H4.09717C3.8209 13.7499 3.55595 13.6413 3.3606 13.4479C3.16525 13.2545 3.0555 12.9922 3.0555 12.7187ZM14.7673 19.2499H13.1249V19.9374H14.5138V20.6249H5.48606V19.9374H9.99995V19.2499H5.23259C4.84161 19.021 2.85515 17.7756 2.02981 15.8124H5.83328V15.1249H1.80029C1.74159 14.8994 1.70164 14.6694 1.68085 14.4374H18.319C18.2983 14.6694 18.2583 14.8994 18.1996 15.1249H10.6944V15.8124H17.9701C17.1447 17.7756 15.1583 19.021 14.7673 19.2499Z" fill="#009E2C"/>
<path d="M6.52783 15.125H7.22228V15.8125H6.52783V15.125Z" fill="#009E2C"/>
<path d="M7.9165 15.125H8.61095V15.8125H7.9165V15.125Z" fill="#009E2C"/>
<path d="M9.30566 15.125H10.0001V15.8125H9.30566V15.125Z" fill="#009E2C"/>
<path d="M9.47626 5.96544C9.38891 6.16391 9.36822 6.38489 9.41723 6.59587C9.56688 7.29025 10.3763 7.99631 11.3002 8.23866C12.0062 8.42887 12.7298 8.54784 13.4599 8.59375H13.4724C13.5363 8.59372 13.5989 8.57626 13.6534 8.5433C13.7078 8.51033 13.7521 8.46313 13.7812 8.40689C13.8104 8.35065 13.8233 8.28754 13.8185 8.22451C13.8138 8.16147 13.7916 8.10095 13.7544 8.04959C13.7506 8.04409 13.3617 7.50922 12.7058 6.66531C12.4145 6.29028 11.6408 5.40719 10.7516 5.30269C10.4808 5.26927 10.2062 5.32264 9.96827 5.45497C9.77573 5.36838 9.61157 5.23006 9.49446 5.05572C9.37735 4.88139 9.31198 4.67803 9.30577 4.46875H8.61133C8.61113 4.77123 8.69086 5.06851 8.84258 5.33106C8.99431 5.59361 9.21277 5.81231 9.47626 5.96544ZM10.5839 5.98022C10.6126 5.98021 10.6412 5.98205 10.6697 5.98572C11.0985 6.03591 11.6676 6.457 12.1558 7.08572C12.3783 7.37241 12.57 7.62266 12.7256 7.82822C12.3052 7.76707 11.8887 7.68249 11.478 7.57487C10.7551 7.38547 10.1801 6.84234 10.0964 6.45356C10.0785 6.39118 10.0806 6.32483 10.1025 6.26369C10.1243 6.20254 10.1648 6.14962 10.2183 6.11222C10.3204 6.02671 10.4501 5.98025 10.5839 5.98125V5.98022Z" fill="#009E2C"/>
<path d="M5.13867 10.3125H5.83312V11H5.13867V10.3125Z" fill="#009E2C"/>
<path d="M6.875 11H7.56944V11.6875H6.875V11Z" fill="#009E2C"/>
<path d="M2.6889 6.18746C2.77987 6.19227 3.10869 6.20808 3.54342 6.20808C4.40835 6.20808 5.69168 6.14483 6.34237 5.80418C6.77512 5.55349 7.09435 5.14814 7.23439 4.67152C7.31872 4.44712 7.35747 4.20844 7.34842 3.96918C7.33936 3.72993 7.28267 3.49479 7.18161 3.27727C6.75349 2.47496 5.45765 2.35602 4.62918 2.78983C3.63925 3.30786 2.52224 5.44599 2.39828 5.68799C2.37199 5.739 2.35899 5.7957 2.36046 5.85295C2.36194 5.9102 2.37783 5.96617 2.4067 6.01579C2.43557 6.06541 2.47651 6.1071 2.52579 6.13708C2.57508 6.16706 2.63114 6.18438 2.6889 6.18746ZM4.71286 4.28824L3.65453 4.89943C3.81737 4.64471 3.9955 4.38861 4.17536 4.15555L4.71286 4.28824ZM5.13856 4.8379V5.42605C4.75116 5.47545 4.36136 5.50425 3.97085 5.51233L5.13856 4.8379ZM6.57397 4.45977C6.48792 4.76543 6.28983 5.02834 6.01842 5.19711C5.95849 5.22607 5.89666 5.25099 5.83335 5.27171V4.43708L6.65036 3.96511C6.65297 4.13273 6.62715 4.29959 6.57397 4.45874V4.45977ZM6.31182 3.36561L5.57154 3.79324L4.70522 3.57874C4.78157 3.51008 4.86529 3.44991 4.95487 3.3993C5.16437 3.29447 5.39475 3.23698 5.62941 3.23097C5.86406 3.22497 6.09714 3.2706 6.31182 3.36458V3.36561Z" fill="#009E2C"/>
<path d="M14.5141 3.4375H15.2085C15.3006 3.4375 15.3889 3.40128 15.454 3.33682C15.5191 3.27235 15.5557 3.18492 15.5557 3.09375C15.555 2.4558 15.2987 1.84418 14.843 1.39308C14.3874 0.941977 13.7696 0.688228 13.1252 0.6875H12.4307C12.3386 0.6875 12.2503 0.723716 12.1852 0.788182C12.1201 0.852648 12.0835 0.940082 12.0835 1.03125C12.0842 1.6692 12.3405 2.28082 12.7962 2.73192C13.2519 3.18302 13.8697 3.43677 14.5141 3.4375ZM13.1252 1.375C13.5253 1.37544 13.9129 1.51244 14.2229 1.76292C14.5328 2.0134 14.746 2.36202 14.8266 2.75H14.5141C14.114 2.74956 13.7263 2.61256 13.4163 2.36208C13.1064 2.1116 12.8932 1.76298 12.8127 1.375H13.1252Z" fill="#009E2C"/>
<path d="M10.3473 3.4375C10.5534 3.4375 10.7548 3.37702 10.9261 3.2637C11.0974 3.15039 11.2309 2.98933 11.3097 2.80089C11.3886 2.61246 11.4092 2.40511 11.369 2.20506C11.3288 2.00502 11.2296 1.82127 11.0839 1.67705C10.9382 1.53282 10.7526 1.43461 10.5506 1.39482C10.3485 1.35502 10.139 1.37545 9.9487 1.4535C9.75836 1.53155 9.59568 1.66373 9.48122 1.83332C9.36676 2.00291 9.30566 2.20229 9.30566 2.40625C9.30566 2.67975 9.41541 2.94206 9.61076 3.13545C9.80611 3.32885 10.0711 3.4375 10.3473 3.4375ZM10.3473 2.0625C10.416 2.0625 10.4831 2.08266 10.5402 2.12043C10.5973 2.1582 10.6418 2.21189 10.6681 2.2747C10.6944 2.33752 10.7013 2.40663 10.6879 2.47331C10.6745 2.53999 10.6414 2.60124 10.5929 2.64932C10.5443 2.69739 10.4824 2.73013 10.4151 2.7434C10.3477 2.75666 10.2779 2.74985 10.2145 2.72383C10.151 2.69782 10.0968 2.65376 10.0586 2.59723C10.0205 2.5407 10.0001 2.47424 10.0001 2.40625C10.0001 2.31508 10.0367 2.22765 10.1018 2.16318C10.1669 2.09872 10.2552 2.0625 10.3473 2.0625Z" fill="#009E2C"/>
<path d="M14.1665 5.5C14.1665 5.70396 14.2276 5.90334 14.3421 6.07293C14.4565 6.24252 14.6192 6.3747 14.8095 6.45275C14.9999 6.5308 15.2093 6.55122 15.4114 6.51143C15.6135 6.47164 15.7991 6.37343 15.9447 6.2292C16.0904 6.08498 16.1896 5.90123 16.2298 5.70119C16.27 5.50114 16.2494 5.29379 16.1705 5.10536C16.0917 4.91692 15.9582 4.75586 15.7869 4.64255C15.6156 4.52923 15.4142 4.46875 15.2082 4.46875C14.9319 4.46875 14.667 4.5774 14.4716 4.7708C14.2763 4.96419 14.1665 5.22649 14.1665 5.5ZM15.5554 5.5C15.5554 5.56799 15.535 5.63445 15.4969 5.69098C15.4587 5.74751 15.4045 5.79156 15.341 5.81758C15.2776 5.8436 15.2078 5.85041 15.1404 5.83714C15.0731 5.82388 15.0112 5.79114 14.9626 5.74307C14.9141 5.69499 14.881 5.63374 14.8676 5.56706C14.8542 5.50038 14.8611 5.43126 14.8874 5.36845C14.9137 5.30564 14.9582 5.25195 15.0153 5.21418C15.0724 5.17641 15.1395 5.15625 15.2082 5.15625C15.3003 5.15625 15.3886 5.19247 15.4537 5.25693C15.5188 5.3214 15.5554 5.40883 15.5554 5.5Z" fill="#009E2C"/>
<path d="M11.7363 9.96875H12.4308V10.6562H11.7363V9.96875Z" fill="#009E2C"/>
<path d="M12.7778 4.125H13.4723V4.8125H12.7778V4.125Z" fill="#009E2C"/>
<path d="M7.22217 1.03125H7.91661V1.71875H7.22217V1.03125Z" fill="#009E2C"/>
<path d="M14.5137 8.59375H15.2081V9.28125H14.5137V8.59375Z" fill="#009E2C"/>
</svg>
