<svg width="21" height="21" viewBox="0 0 21 21" fill="none" xmlns="http://www.w3.org/2000/svg">
<ellipse cx="7.44038" cy="6.30693" rx="5.36079" ry="5.04545" fill="#184AA9"/>
<circle cx="14.6934" cy="13.8753" r="5.04545" fill="#2173F0"/>
<circle cx="10.9093" cy="10.0912" r="8.19886" fill="url(#paint0_linear)"/>
<path d="M10.9526 5.67627C12.2855 5.67627 14.0627 6.30695 13.6184 7.14786C13.0111 8.29721 11.8412 7.14786 10.9526 7.14786C10.0641 7.14786 9.61976 7.56831 9.61976 7.98877C9.61976 8.40922 9.84191 8.82968 10.9526 9.25013C12.0634 9.67058 14.0627 10.3013 14.0627 11.9831C14.0627 13.6649 12.5077 14.5058 10.5083 14.5058C8.71735 14.5058 7.39831 13.6649 7.8426 12.824C8.35353 11.8569 9.61976 13.0342 10.5083 13.0342C11.3969 13.0342 12.2855 12.824 12.2855 11.9831C12.2855 11.1422 10.9526 10.9319 10.064 10.5115C8.95329 9.98592 7.84258 9.46036 7.84258 7.98877C7.84258 6.51718 9.61976 5.67627 10.9526 5.67627Z" fill="white"/>
<defs>
<linearGradient id="paint0_linear" x1="4.53242" y1="5.08078" x2="16.8307" y2="15.3293" gradientUnits="userSpaceOnUse">
<stop stop-color="#297AC0"/>
<stop offset="1" stop-color="#48B0F9"/>
</linearGradient>
</defs>
</svg>
