<svg width="22" height="21" viewBox="0 0 22 21" fill="none" xmlns="http://www.w3.org/2000/svg">
<path fill-rule="evenodd" clip-rule="evenodd" d="M2.10254 10.2728C2.10254 5.30853 6.12689 1.28418 11.0912 1.28418C16.0555 1.28418 20.0798 5.30853 20.0798 10.2728C20.0798 15.2371 16.0555 19.2615 11.0912 19.2615C6.12689 19.2615 2.10254 15.2371 2.10254 10.2728Z" fill="#EE8208"/>
<path d="M13.9445 7.78752C13.9445 9.24897 12.6618 10.4378 11.0838 10.4378C9.50622 10.4378 8.22319 9.24897 8.22319 7.78752C8.22319 6.32559 9.50622 5.13647 11.0838 5.13647C12.6618 5.13647 13.9445 6.32559 13.9445 7.78752ZM12.2683 7.78751C12.2683 7.18224 11.737 6.69007 11.0838 6.69007C10.4312 6.69007 9.89938 7.18224 9.89938 7.78751C9.89938 8.39229 10.4312 8.88478 11.0838 8.88478C11.737 8.88478 12.2683 8.39229 12.2683 7.78751Z" fill="white"/>
<path d="M12.2485 12.6014C12.8308 12.4785 13.3924 12.265 13.9097 11.964C14.3011 11.7353 14.419 11.2558 14.1724 10.893C13.9259 10.5295 13.4088 10.4201 13.0167 10.6488C11.8449 11.3316 10.3363 11.3314 9.16522 10.6488C8.77309 10.4201 8.25583 10.5295 8.00987 10.893C7.76323 11.2561 7.88082 11.7353 8.27226 11.964C8.78952 12.2647 9.3511 12.4785 9.93339 12.6014L8.33405 14.0835C8.00713 14.3868 8.00713 14.8785 8.3344 15.1817C8.4982 15.3332 8.71249 15.409 8.92679 15.409C9.14143 15.409 9.35606 15.3332 9.51987 15.1817L11.0908 13.7254L12.6631 15.1817C12.99 15.485 13.5204 15.485 13.8477 15.1817C14.1753 14.8785 14.1753 14.3865 13.8477 14.0835L12.2485 12.6014Z" fill="white"/>
</svg>
