<svg width="19" height="19" viewBox="0 0 19 19" fill="none" xmlns="http://www.w3.org/2000/svg">
<path d="M0.885708 3.00218L3.34138 0.548787C3.5146 0.374797 3.72049 0.236748 3.94723 0.14257C4.17397 0.0483923 4.41708 -5.88438e-05 4.66259 5.36324e-08C5.16295 5.36324e-08 5.63333 0.195995 5.98612 0.548787L8.62855 3.19126C8.80254 3.36449 8.94059 3.57039 9.03476 3.79713C9.12894 4.02387 9.17739 4.26698 9.17733 4.5125C9.17733 5.01286 8.98134 5.48325 8.62855 5.83604L6.6963 7.76833C7.1486 8.76527 7.77743 9.67222 8.55246 10.4454C9.32554 11.2223 10.2324 11.8534 11.2295 12.3085L13.1617 10.3762C13.335 10.2022 13.5409 10.0642 13.7676 9.97C13.9943 9.87582 14.2374 9.82737 14.483 9.82743C14.9833 9.82743 15.4537 10.0234 15.8065 10.3762L18.4512 13.0164C18.6254 13.1899 18.7636 13.3962 18.8578 13.6234C18.9519 13.8505 19.0003 14.094 19 14.3399C19 14.8403 18.804 15.3107 18.4512 15.6635L16.0002 18.1146C15.4376 18.6795 14.6605 19 13.8627 19C13.6944 19 13.533 18.9862 13.3739 18.9585C10.2657 18.4466 7.18282 16.7933 4.69487 14.3076C2.20923 11.8243 0.558285 8.74369 0.0394821 5.62621C-0.117311 4.67391 0.198584 3.69393 0.885708 3.00218Z" fill="white"/>
</svg>
