<svg width="10" height="20" viewBox="0 0 10 20" fill="none" xmlns="http://www.w3.org/2000/svg">
<path d="M1.76541 0.454596C1.96916 0.453904 2.17049 0.498862 2.35458 0.586165C2.53868 0.673468 2.70087 0.8009 2.82923 0.959096L9.41678 9.14014C9.61739 9.38412 9.72705 9.69014 9.72705 10.006C9.72705 10.3218 9.61739 10.6278 9.41678 10.8718L2.59737 19.0528C2.36587 19.3313 2.03321 19.5064 1.67256 19.5396C1.31191 19.5729 0.952829 19.4615 0.674302 19.2301C0.395774 18.9987 0.220619 18.6661 0.187368 18.3055C0.154116 17.945 0.265493 17.586 0.496997 17.3076L6.59355 9.99915L0.701579 2.69075C0.534799 2.49061 0.428856 2.24689 0.396287 1.98844C0.363718 1.72999 0.405885 1.46762 0.5178 1.23237C0.629714 0.997132 0.806691 0.798863 1.02779 0.661027C1.24889 0.523188 1.50486 0.451554 1.76541 0.454596Z" fill="white"/>
</svg>
