<?xml version="1.0" encoding="utf-8"?>
<!-- Generator: Adobe Illustrator 24.0.1, SVG Export Plug-In . SVG Version: 6.00 Build 0)  -->
<svg version="1.1" id="Слой_1" xmlns="http://www.w3.org/2000/svg" xmlns:xlink="http://www.w3.org/1999/xlink" x="0px" y="0px"
	 viewBox="0 0 23 15" style="enable-background:new 0 0 23 15;" xml:space="preserve">
<style type="text/css">
	.st0{fill:#FFA621;}
	.st1{display:none;}
</style>
<path class="st0" d="M18.5,5L14,4.4l-2-4.1c-0.1-0.1-0.1-0.2-0.3-0.3c-0.3-0.1-0.6,0-0.8,0.3L9,4.4L4.5,5C4.4,5,4.2,5.1,4.2,5.2
	C4.1,5.3,4,5.4,4,5.6C4,5.7,4.1,5.9,4.2,6l3.3,3.2l-0.8,4.5c0,0.1,0,0.2,0,0.3c0,0.1,0.1,0.2,0.2,0.2c0.1,0.1,0.2,0.1,0.3,0.1
	c0.1,0,0.2,0,0.3-0.1l4-2.1l4,2.1c0.1,0.1,0.2,0.1,0.4,0.1c0.3-0.1,0.5-0.3,0.5-0.7l-0.8-4.5L18.8,6C18.9,5.9,19,5.8,19,5.7
	C19,5.4,18.8,5.1,18.5,5z"/>
<g id="Слой_2" class="st1">
</g>
</svg>
