<svg width="15" height="15" viewBox="0 0 15 15" fill="none" xmlns="http://www.w3.org/2000/svg">
<path d="M14.5152 5.03041L10.0185 4.37864L8.00833 0.314407C7.95343 0.20313 7.8631 0.113049 7.75153 0.0582942C7.4717 -0.0794766 7.13166 0.0353324 6.99174 0.314407L4.9816 4.37864L0.484887 5.03041C0.360913 5.04807 0.247566 5.10636 0.160784 5.19467C0.0558699 5.30221 -0.00194268 5.4469 4.9848e-05 5.59693C0.00204238 5.74696 0.063677 5.89007 0.17141 5.9948L3.42484 9.15823L2.6562 13.6252C2.63818 13.7291 2.64971 13.836 2.68948 13.9337C2.72926 14.0314 2.79569 14.116 2.88125 14.178C2.9668 14.24 3.06805 14.2768 3.17353 14.2843C3.279 14.2918 3.38446 14.2697 3.47797 14.2204L7.50004 12.1115L11.5221 14.2204C11.6319 14.2787 11.7594 14.2981 11.8816 14.2769C12.1898 14.224 12.397 13.9325 12.3439 13.6252L11.5752 9.15823L14.8287 5.9948C14.9172 5.90825 14.9757 5.79521 14.9934 5.67157C15.0412 5.36247 14.8251 5.07633 14.5152 5.03041Z" fill="#FFA621"/>
</svg>
