<svg width="24" height="24" viewBox="0 0 24 24" fill="none" xmlns="http://www.w3.org/2000/svg">
<path d="M11.9987 20.0332C11.5464 20.0332 11.1797 20.3999 11.1797 20.8522V23.1807C11.1797 23.633 11.5464 23.9997 11.9987 23.9997C12.4511 23.9997 12.8176 23.633 12.8176 23.1807V20.8522C12.8176 20.3998 12.451 20.0332 11.9987 20.0332Z" fill="#FFA621"/>
<path d="M11.9987 3.96694C12.4511 3.96694 12.8176 3.60026 12.8176 3.14796V0.819223C12.8176 0.366928 12.4511 0.000244141 11.9987 0.000244141C11.5464 0.000244141 11.1797 0.366928 11.1797 0.819223V3.14796C11.1797 3.60026 11.5464 3.96694 11.9987 3.96694Z" fill="#FFA621"/>
<path d="M5.16159 17.6799L3.51446 19.3261C3.19451 19.6458 3.1944 20.1644 3.51413 20.4843C3.6741 20.6442 3.88376 20.7243 4.09342 20.7243C4.30297 20.7243 4.51241 20.6443 4.67238 20.4846L6.31951 18.8383C6.63946 18.5186 6.63957 18 6.31984 17.6802C5.99989 17.3602 5.48143 17.3602 5.16159 17.6799Z" fill="#FFA621"/>
<path d="M18.2589 6.55898C18.4684 6.55898 18.678 6.47905 18.8379 6.31918L20.4848 4.67293C20.8047 4.35309 20.8048 3.83462 20.4851 3.51467C20.1652 3.19473 19.6467 3.19462 19.3268 3.51456L17.6799 5.16082C17.36 5.48055 17.3599 5.99913 17.6797 6.31896C17.8395 6.47905 18.0492 6.55898 18.2589 6.55898Z" fill="#FFA621"/>
<path d="M3.96648 12.0001C3.96648 11.5478 3.59979 11.1812 3.1475 11.1812H0.818979C0.366684 11.1812 0 11.5478 0 12.0001C0 12.4524 0.366684 12.8191 0.818979 12.8191H3.1475C3.59979 12.8191 3.96648 12.4524 3.96648 12.0001Z" fill="#FFA621"/>
<path d="M23.1808 11.1812H20.8512C20.3988 11.1812 20.0322 11.5478 20.0322 12.0001C20.0322 12.4524 20.3988 12.8191 20.8512 12.8191H23.1808C23.6332 12.8191 23.9998 12.4524 23.9998 12.0001C23.9998 11.5479 23.6332 11.1812 23.1808 11.1812Z" fill="#FFA621"/>
<path d="M5.16152 6.31929C5.32139 6.47916 5.53105 6.55909 5.7406 6.55909C5.95015 6.55909 6.1598 6.47916 6.31967 6.31929C6.63951 5.99946 6.63951 5.48088 6.31967 5.16104L4.67341 3.51478C4.35358 3.19494 3.835 3.19494 3.51527 3.51478C3.19543 3.83462 3.19543 4.3532 3.51527 4.67293L5.16152 6.31929Z" fill="#FFA621"/>
<path d="M18.8387 17.6801C18.5188 17.3603 18.0002 17.3602 17.6804 17.68C17.3605 17.9998 17.3605 18.5184 17.6803 18.8382L19.3263 20.4844C19.4863 20.6444 19.6959 20.7243 19.9055 20.7243C20.1151 20.7243 20.3247 20.6444 20.4846 20.4845C20.8045 20.1647 20.8045 19.6461 20.4847 19.3264L18.8387 17.6801Z" fill="#FFA621"/>
<path d="M11.9997 5.62549C8.48492 5.62549 5.62549 8.48514 5.62549 12.0001C5.62549 15.5149 8.48492 18.3745 11.9997 18.3745C15.5147 18.3745 18.3744 15.5149 18.3744 12.0001C18.3744 8.48514 15.5146 5.62549 11.9997 5.62549ZM11.9997 16.7365C9.38809 16.7365 7.26344 14.6118 7.26344 12.0001C7.26344 9.38831 9.38809 7.26344 11.9997 7.26344C14.6115 7.26344 16.7364 9.38831 16.7364 12.0001C16.7364 14.6118 14.6115 16.7365 11.9997 16.7365Z" fill="#FFA621"/>
<circle cx="12" cy="12" r="5" fill="#FFA621"/>
</svg>
