<svg width="19" height="19" viewBox="0 0 19 19" fill="none" xmlns="http://www.w3.org/2000/svg">
<path d="M18.7187 9.87568H18.3553C18.0509 9.87568 17.8032 9.62802 17.8032 9.32357C17.8032 9.01913 18.0508 8.77146 18.3553 8.77146H18.7187C18.8741 8.77146 18.9999 8.64559 18.9999 8.49021V6.80285C18.9999 6.64747 18.8741 6.5216 18.7187 6.5216H18.3553C18.0508 6.5216 17.8032 6.27393 17.8032 5.96948V5.86721L18.2157 5.48933C18.3276 5.38687 18.338 5.21416 18.2393 5.09894L17.1415 3.81759C17.0929 3.76092 17.0239 3.72589 16.9495 3.72018C16.875 3.71394 16.8015 3.73851 16.7449 3.78701L16.4689 4.02351C16.2377 4.22156 15.8885 4.19462 15.6904 3.96347C15.5945 3.85151 15.5478 3.70882 15.5592 3.56176C15.5705 3.41473 15.6384 3.28092 15.7505 3.18495L16.0264 2.94845C16.1444 2.8474 16.1581 2.66984 16.057 2.5519L14.9591 1.27059C14.8581 1.1527 14.6805 1.13893 14.5626 1.24001L14.2865 1.47648C14.1745 1.57244 14.0319 1.61912 13.8849 1.60769C13.7378 1.59638 13.604 1.52847 13.5081 1.41643L13.1399 0.986669C13.0913 0.930003 13.0223 0.894972 12.9479 0.889257C12.8733 0.883543 12.7999 0.907515 12.7433 0.956091L7.88099 5.12228H7.07813C6.92275 5.12228 6.79688 5.24815 6.79688 5.40353C6.79688 5.55891 6.92275 5.68478 7.07813 5.68478H17.2407V5.96948C17.2407 6.58409 17.7407 7.0841 18.3553 7.0841H18.4375V8.20896H18.3553C17.7407 8.20896 17.2407 8.70897 17.2407 9.32357C17.2407 9.93818 17.7407 10.4382 18.3553 10.4382H18.4375V11.563H18.3553C17.7407 11.563 17.2407 12.063 17.2407 12.6776V13.3152H15.296C15.1406 13.3152 15.0148 13.4411 15.0148 13.5965C15.0148 13.7519 15.1406 13.8777 15.296 13.8777H17.5219C17.6773 13.8777 17.8032 13.7519 17.8032 13.5965V12.6776C17.8032 12.3732 18.0509 12.1255 18.3553 12.1255H18.7187C18.8741 12.1255 19 11.9997 19 11.8443V10.1569C19 10.0016 18.8741 9.87568 18.7187 9.87568ZM8.74552 5.12228L12.8957 1.56632L13.0809 1.78252C13.2746 2.00862 13.5448 2.14574 13.8416 2.1686C14.1384 2.19142 14.4264 2.09743 14.6525 1.90371L14.715 1.85024L15.4469 2.70438L15.3844 2.7579C14.9178 3.15775 14.8634 3.86279 15.2633 4.32951C15.6632 4.7962 16.3683 4.85056 16.8349 4.45067L16.8973 4.39716L17.5186 5.12228H8.74552Z" fill="#FFA621"/>
<path d="M12.8274 13.3151H1.75932V13.0305C1.75932 12.4159 1.2593 11.9159 0.6447 11.9159H0.562503V10.791H0.6447C1.2593 10.791 1.75932 10.291 1.75932 9.67639C1.75932 9.06179 1.2593 8.56178 0.6447 8.56178H0.562503V7.43692H0.6447C1.2593 7.43692 1.75932 6.93691 1.75932 6.32231V5.68469H4.96901C5.12439 5.68469 5.25026 5.55882 5.25026 5.40344C5.25026 5.24807 5.12439 5.12219 4.96901 5.12219H1.47806C1.32269 5.12219 1.19681 5.24807 1.19681 5.40344V6.32231C1.19681 6.62671 0.949145 6.87442 0.6447 6.87442H0.281251C0.125875 6.87442 0 7.00029 0 7.15567V8.84303C0 8.99841 0.125875 9.12428 0.281251 9.12428H0.6447C0.949108 9.12428 1.19681 9.37195 1.19681 9.67639C1.19681 9.98084 0.949145 10.2285 0.6447 10.2285H0.281251C0.125875 10.2285 0 10.3544 0 10.5098V12.1971C0 12.3525 0.125875 12.4784 0.281251 12.4784H0.6447C0.949108 12.4784 1.19681 12.726 1.19681 13.0305V13.1826L0.799446 13.4977C0.739514 13.5452 0.701551 13.615 0.694204 13.6911C0.686893 13.7671 0.710866 13.843 0.760629 13.901L1.85847 15.1824C1.90701 15.239 1.97607 15.2741 2.05044 15.2798C2.1248 15.286 2.19843 15.2615 2.25502 15.213L2.53104 14.9765C2.64304 14.8805 2.78568 14.8335 2.93271 14.8452C3.07974 14.8566 3.21355 14.9245 3.30952 15.0365C3.50761 15.2677 3.48067 15.6169 3.24948 15.815L2.97349 16.0515C2.85552 16.1525 2.84183 16.3301 2.94292 16.448L4.04076 17.7294C4.14181 17.8473 4.31937 17.8611 4.43731 17.7599L4.71333 17.5235C4.82529 17.4275 4.96838 17.3808 5.115 17.3923C5.26202 17.4036 5.39584 17.4715 5.49181 17.5835L5.86 18.0133C5.91563 18.0782 5.99445 18.1115 6.07372 18.1115C6.13847 18.1115 6.20353 18.0893 6.25655 18.0438L11.1103 13.885C11.113 13.8827 11.1154 13.8802 11.118 13.8778H12.8273C12.9827 13.8778 13.1085 13.7519 13.1085 13.5965C13.1085 13.4411 12.9828 13.3151 12.8274 13.3151ZM6.10429 17.4336L5.91908 17.2174C5.72541 16.9913 5.45525 16.8542 5.15838 16.8314C4.86154 16.8083 4.57357 16.9025 4.34747 17.0962L4.28501 17.1497L3.5531 16.2955L3.61552 16.2421C3.84159 16.0484 3.97875 15.7782 4.00161 15.4813C4.02447 15.1845 3.93043 14.8965 3.73672 14.6704C3.54305 14.4443 3.27289 14.3072 2.97602 14.2843C2.67925 14.2618 2.39121 14.3555 2.16511 14.5492L2.10269 14.6027L1.48133 13.8776H10.2544L6.10429 17.4336Z" fill="#FFA621"/>
<path d="M15.8792 6.4408H7.86756C7.71218 6.4408 7.58631 6.56667 7.58631 6.72205C7.58631 6.87742 7.71218 7.0033 7.86756 7.0033H15.5979V11.9967H3.40235V7.0033H5.71804C5.87342 7.0033 5.99929 6.87742 5.99929 6.72205C5.99929 6.56667 5.87342 6.4408 5.71804 6.4408H3.12109C2.96572 6.4408 2.83984 6.56671 2.83984 6.72205V12.278C2.83984 12.4334 2.96572 12.5592 3.12109 12.5592H15.8792C16.0346 12.5592 16.1605 12.4334 16.1605 12.278V6.72205C16.1604 6.56667 16.0345 6.4408 15.8792 6.4408Z" fill="#FFA621"/>
<path d="M5.81408 8.26904H4.2609C4.15807 8.26904 4.11035 8.37922 4.11035 8.48201C4.11035 8.5995 4.16542 8.69866 4.2609 8.69866H4.8007V10.8026C4.8007 10.9018 4.91822 10.9532 5.03935 10.9532C5.15687 10.9532 5.27803 10.9018 5.27803 10.8026V8.69866H5.81412C5.9096 8.69866 5.96467 8.59583 5.96467 8.48201C5.96463 8.37922 5.91691 8.26904 5.81408 8.26904Z" fill="#FFA621"/>
<path d="M6.46424 8.26904C6.34307 8.26904 6.22559 8.31309 6.22559 8.41588V10.8026C6.22559 10.9018 6.34307 10.9532 6.46424 10.9532C6.58176 10.9532 6.70289 10.9018 6.70289 10.8026V8.41588C6.70289 8.31309 6.58176 8.26904 6.46424 8.26904Z" fill="#FFA621"/>
<path d="M8.59745 10.013C8.47261 10.013 8.36978 10.0497 8.36243 10.1635C8.35141 10.3178 8.32206 10.5564 7.98793 10.5564C7.73458 10.5564 7.59505 10.4205 7.59505 10.1341V9.1097C7.59505 8.82329 7.73454 8.68739 7.98058 8.68739C8.32937 8.68739 8.35509 8.9371 8.36247 9.05092C8.36611 9.16109 8.4653 9.20147 8.60112 9.20147C8.76266 9.20147 8.83981 9.15742 8.83981 8.96645C8.83981 8.54048 8.47625 8.2688 7.96585 8.2688C7.5032 8.2688 7.11768 8.49643 7.11768 9.10966V10.1341C7.11768 10.7473 7.49957 10.975 7.96221 10.975C8.47625 10.975 8.83981 10.6922 8.83981 10.2479C8.83981 10.0607 8.76266 10.013 8.59745 10.013Z" fill="#FFA621"/>
<path d="M10.9545 10.6484L10.154 9.42938L10.8112 8.60685C10.8369 8.57382 10.8406 8.54076 10.8406 8.51508C10.8406 8.39388 10.6863 8.26904 10.5652 8.26904C10.5138 8.26904 10.4697 8.28738 10.433 8.33881L9.6399 9.41832V8.41588C9.6399 8.31309 9.51877 8.26904 9.40125 8.26904C9.28009 8.26904 9.1626 8.31309 9.1626 8.41588H9.16264V10.8026C9.16264 10.9018 9.28012 10.9532 9.40128 10.9532C9.51881 10.9532 9.63993 10.9018 9.63993 10.8026V10.0829L9.83825 9.83328L10.5286 10.8798C10.5689 10.9458 10.6313 10.9715 10.6938 10.9715C10.8333 10.9715 10.9801 10.8504 10.9801 10.7329C10.9801 10.7035 10.9728 10.6741 10.9545 10.6484Z" fill="#FFA621"/>
<path d="M12.7059 10.5346H11.6668V9.79658H12.2249C12.3277 9.79658 12.3755 9.69742 12.3755 9.61296C12.3755 9.5138 12.3204 9.42199 12.2249 9.42199H11.6668V8.68764H12.7059C12.8014 8.68764 12.8565 8.58848 12.8565 8.47467C12.8565 8.37555 12.8087 8.26904 12.7059 8.26904H11.3988C11.2922 8.26904 11.1895 8.32044 11.1895 8.4196V10.8026C11.1895 10.9018 11.2922 10.9532 11.3988 10.9532H12.7059C12.8088 10.9532 12.8565 10.8467 12.8565 10.7476C12.8565 10.6338 12.8014 10.5346 12.7059 10.5346Z" fill="#FFA621"/>
<path d="M14.6632 8.26904H13.11C13.0072 8.26904 12.9595 8.37922 12.9595 8.48201C12.9595 8.5995 13.0145 8.69866 13.11 8.69866H13.6498V10.8026C13.6498 10.9018 13.7673 10.9532 13.8885 10.9532C14.006 10.9532 14.1272 10.9018 14.1272 10.8026V8.69866H14.6632C14.7587 8.69866 14.8138 8.59583 14.8138 8.48201C14.8138 8.37922 14.766 8.26904 14.6632 8.26904Z" fill="#FFA621"/>
</svg>
