<svg width="21" height="21" viewBox="0 0 21 21" fill="none" xmlns="http://www.w3.org/2000/svg">
<path fill-rule="evenodd" clip-rule="evenodd" d="M19.4657 9.69902C19.4657 3.91475 17.4281 1.26147 10.6362 1.26147C3.84423 1.26147 1.80664 3.91475 1.80664 9.69902C1.80664 13.8155 2.83862 16.3462 5.88181 17.4634V19.4109C5.88181 20.1277 6.78126 20.4552 7.24717 19.9079L8.81753 18.0635C9.38194 18.1123 9.98737 18.1366 10.6362 18.1366C17.4281 18.1366 19.4657 15.4833 19.4657 9.69902ZM9.19271 16.7331C9.64295 16.7688 10.1236 16.7866 10.6362 16.7866C16.3832 16.7866 18.1073 14.5578 18.1073 9.69902C18.1073 4.84023 16.3832 2.61148 10.6362 2.61148C4.88914 2.61148 3.16503 4.84023 3.16503 9.69902C3.16503 13.1334 4.02642 15.2537 6.56101 16.2018V19.087C6.56101 19.3385 6.8766 19.4534 7.04008 19.2614L9.19271 16.7331Z" fill="#BFC8D0"/>
<path d="M10.6365 16.3062C10.1173 16.3062 9.6304 16.2881 9.17432 16.2518L6.99373 18.8227C6.82813 19.018 6.50844 18.9011 6.50844 18.6454V15.7115C3.94094 14.7475 3.06836 12.5914 3.06836 9.09913C3.06836 4.15842 4.81486 1.89209 10.6365 1.89209C16.4582 1.89209 18.2047 4.15842 18.2047 9.09913C18.2047 14.0398 16.4582 16.3062 10.6365 16.3062Z" fill="#9179EE"/>
<path fill-rule="evenodd" clip-rule="evenodd" d="M19.4657 9.06816C19.4657 3.28389 17.4281 0.630615 10.6362 0.630615C3.84423 0.630615 1.80664 3.28389 1.80664 9.06816C1.80664 13.1846 2.83862 15.7154 5.88181 16.8325V18.78C5.88181 19.4969 6.78126 19.8243 7.24717 19.2771L8.81753 17.4326C9.38194 17.4815 9.98737 17.5057 10.6362 17.5057C17.4281 17.5057 19.4657 14.8524 19.4657 9.06816ZM9.19271 16.1022C9.64295 16.138 10.1236 16.1557 10.6362 16.1557C16.3832 16.1557 18.1073 13.9269 18.1073 9.06816C18.1073 4.20937 16.3832 1.98062 10.6362 1.98062C4.88914 1.98062 3.16503 4.20937 3.16503 9.06816C3.16503 12.5025 4.02642 14.6229 6.56101 15.5709V18.4561C6.56101 18.7076 6.8766 18.8225 7.04008 18.6305L9.19271 16.1022Z" fill="white"/>
<path d="M8.43653 6.88707C8.43456 6.88352 8.42988 6.87528 8.42118 6.86117C8.40846 6.84056 8.39119 6.8139 8.36955 6.78163C8.32636 6.71724 8.26963 6.63627 8.20531 6.54697C8.07668 6.36839 7.92232 6.16288 7.79459 6.0011C7.54733 5.68794 7.18036 5.32147 6.9436 5.11388C6.92465 5.09726 6.87725 5.07466 6.78626 5.07613L8.43653 6.88707ZM8.43653 6.88707C8.4376 6.89063 8.44245 6.90595 8.44672 6.93376C8.45209 6.96874 8.45466 7.01182 8.45101 7.05684C8.44354 7.14894 8.41326 7.22289 8.3588 7.27277C8.17404 7.44198 7.92354 7.59867 7.82528 7.65309L7.79964 7.66729L7.77706 7.68597C7.60262 7.83027 7.34114 8.22634 7.57019 8.71589C7.76105 9.12381 8.18633 9.9569 8.93357 10.5846C9.66435 11.1984 10.4447 11.5287 10.9573 11.6368L10.9894 11.6435H11.0188C11.0203 11.6437 11.0233 11.644 11.0283 11.6447C11.0405 11.6464 11.0552 11.649 11.0783 11.653C11.0823 11.6537 11.0864 11.6544 11.0907 11.6552C11.2484 11.6831 11.6265 11.7499 11.9434 11.4342C12.1468 11.2315 12.3325 11.0201 12.4124 10.9251C12.4685 10.8739 12.6515 10.7678 12.8829 10.846C13.3213 10.9942 13.8424 11.3285 14.0943 11.4979C14.2893 11.6292 14.7308 11.9455 14.9297 12.0891L14.9299 12.0892C14.9464 12.1012 14.9852 12.1402 15.0062 12.1945C15.0229 12.2379 15.0319 12.2977 14.9916 12.384C14.9168 12.544 14.6892 12.8496 14.381 13.1169C14.0671 13.3891 13.7405 13.5597 13.4787 13.5597C13.4796 13.5597 13.4787 13.5596 13.4758 13.5592C13.4641 13.5576 13.4207 13.5518 13.3349 13.5325C13.2384 13.5108 13.108 13.4768 12.9487 13.4289C12.6304 13.3332 12.2033 13.1838 11.7101 12.9717C10.7228 12.5469 9.47993 11.8743 8.31633 10.8839C7.58442 10.2609 6.89386 9.39949 6.35616 8.59316C5.81395 7.78007 5.45123 7.05941 5.35252 6.72661L5.34561 6.70332L5.33522 6.68136C5.31064 6.62944 5.27601 6.5185 5.27531 6.3927C5.27464 6.27116 5.3051 6.15506 5.38545 6.05877C5.65035 5.74132 5.93082 5.42937 6.54959 5.13002L8.43653 6.88707ZM10.8111 4.11023C10.8109 4.11005 10.8107 4.10987 10.8105 4.10969C10.8107 4.10952 10.8109 4.10934 10.8111 4.10915C10.8156 4.1049 10.8249 4.09952 10.8395 4.09952C13.3572 4.09952 15.3652 6.01543 15.3662 8.33961C15.3658 8.34016 15.3651 8.34095 15.3641 8.3419C15.3596 8.34616 15.3503 8.35153 15.3357 8.35153C15.3211 8.35153 15.3118 8.34616 15.3073 8.3419C15.3062 8.34094 15.3056 8.34015 15.3052 8.33961C15.3042 5.99122 13.2869 4.11986 10.8395 4.11986C10.8249 4.11986 10.8156 4.11449 10.8111 4.11023ZM10.8105 6.7138C10.8107 6.71362 10.8109 6.71344 10.8111 6.71325C10.8156 6.709 10.8249 6.70362 10.8395 6.70362C11.8291 6.70362 12.5983 7.45361 12.5993 8.33961C12.5989 8.34016 12.5983 8.34094 12.5973 8.3419C12.5927 8.34616 12.5834 8.35153 12.5688 8.35153C12.5542 8.35153 12.5449 8.34616 12.5404 8.3419C12.5394 8.34094 12.5387 8.34015 12.5383 8.33961C12.5373 7.42946 11.7589 6.72397 10.8395 6.72397C10.8249 6.72397 10.8156 6.71859 10.8111 6.71434C10.8109 6.71415 10.8107 6.71397 10.8105 6.7138ZM10.8105 5.41174C10.8107 5.41157 10.8109 5.41139 10.8111 5.4112C10.8156 5.40695 10.8249 5.40157 10.8395 5.40157C12.5931 5.40157 13.9818 6.73453 13.9828 8.33961C13.9824 8.34016 13.9817 8.34095 13.9807 8.3419C13.9762 8.34616 13.9668 8.35153 13.9523 8.35153C13.9377 8.35153 13.9283 8.34616 13.9238 8.3419C13.9231 8.34126 13.9226 8.34069 13.9222 8.34022C13.922 8.33999 13.9219 8.33979 13.9217 8.33961C13.9207 6.71033 12.5229 5.42192 10.8395 5.42192C10.8249 5.42192 10.8156 5.41654 10.8111 5.41229C10.8109 5.4121 10.8107 5.41192 10.8105 5.41174Z" fill="white" stroke="white" stroke-width="0.630681" stroke-linecap="round"/>
</svg>
