<svg width="22" height="21" viewBox="0 0 22 21" fill="none" xmlns="http://www.w3.org/2000/svg">
<circle cx="10.909" cy="10.2728" r="8.98864" fill="#46678D"/>
<path d="M15.3538 11.7713C15.2155 11.5836 15.1845 11.3937 15.2601 11.2012C15.4487 10.6877 18.1956 7.42598 17.0513 7.42598C16.2649 7.43643 15.3193 7.42598 14.5655 7.42598C14.4255 7.46004 14.335 7.53349 14.2783 7.68291C13.8375 8.69937 13.2981 9.93981 12.5075 10.737C12.4035 10.8209 12.3386 10.8173 12.2201 10.7863C11.6656 10.2025 12.2569 8.20218 11.9196 7.4118C11.8532 7.25709 11.7077 7.18722 11.5588 7.14787C10.8059 6.96843 9.08641 7.07524 8.80585 7.43643C8.72564 7.53968 8.71446 7.59603 8.77236 7.6053C9.03967 7.64747 9.22891 7.74836 9.34029 7.90786C9.55041 8.37058 9.70526 10.8354 9.08641 10.8354C8.46756 10.8354 7.46964 8.41645 7.19549 7.74587C7.12254 7.54396 6.93682 7.4282 6.74113 7.39403L4.91029 7.40803C4.58848 7.40803 4.40862 7.56678 4.52268 7.88661C5.47626 10.2537 7.56302 14.8418 10.7636 14.7269C11.0842 14.7269 11.6358 14.85 11.8862 14.572C12.2303 14.1155 11.8106 13.3024 12.4007 12.9924C12.5495 12.9132 12.7037 12.9796 12.8316 13.0769C13.4879 13.5767 13.8364 14.4539 14.6458 14.7202C14.7881 14.767 14.9128 14.7788 15.0199 14.7553L16.7304 14.7272C17.048 14.7272 17.3608 14.5859 17.2951 14.2063C17.0457 13.3921 16.052 12.5552 15.3538 11.7713Z" fill="white"/>
</svg>
