<svg width="21" height="21" viewBox="0 0 21 21" fill="none" xmlns="http://www.w3.org/2000/svg">
<path fill-rule="evenodd" clip-rule="evenodd" d="M10.3632 19.5512C15.2396 19.5512 19.1928 15.598 19.1928 10.7216C19.1928 5.84521 15.2396 1.89209 10.3632 1.89209C5.48681 1.89209 1.53369 5.84521 1.53369 10.7216C1.53369 12.3052 1.95057 13.7914 2.68057 15.0765L1.53369 19.5512L6.14704 18.4814C7.3999 19.1636 8.8363 19.5512 10.3632 19.5512ZM10.3632 18.1928C14.4894 18.1928 17.8344 14.8478 17.8344 10.7216C17.8344 6.59543 14.4894 3.25048 10.3632 3.25048C6.23703 3.25048 2.89208 6.59543 2.89208 10.7216C2.89208 12.3148 3.39073 13.7914 4.24047 15.0041L3.57128 17.5136L6.12501 16.8751C7.32925 17.7061 8.78941 18.1928 10.3632 18.1928Z" fill="#BFC8D0"/>
<path d="M17.9318 10.0909C17.9318 14.2707 14.5434 17.6591 10.3636 17.6591C8.76933 17.6591 7.2902 17.1661 6.07032 16.3243L3.48343 16.971L4.16131 14.429C3.30054 13.2006 2.79541 11.7047 2.79541 10.0909C2.79541 5.91109 6.1838 2.52271 10.3636 2.52271C14.5434 2.52271 17.9318 5.91109 17.9318 10.0909Z" fill="url(#paint0_linear)"/>
<path fill-rule="evenodd" clip-rule="evenodd" d="M10.3632 18.9206C15.2396 18.9206 19.1928 14.9674 19.1928 10.091C19.1928 5.21459 15.2396 1.26147 10.3632 1.26147C5.48681 1.26147 1.53369 5.21459 1.53369 10.091C1.53369 11.6746 1.95057 13.1608 2.68057 14.4458L1.53369 18.9206L6.14704 17.8508C7.3999 18.533 8.8363 18.9206 10.3632 18.9206ZM10.3632 17.5622C14.4894 17.5622 17.8344 14.2172 17.8344 10.091C17.8344 5.96481 14.4894 2.61987 10.3632 2.61987C6.23703 2.61987 2.89208 5.96481 2.89208 10.091C2.89208 11.6842 3.39073 13.1608 4.24047 14.3735L3.57128 16.883L6.12501 16.2445C7.32925 17.0755 8.78941 17.5622 10.3632 17.5622Z" fill="white"/>
<path d="M8.15591 5.99138C7.94598 5.56972 7.62393 5.60705 7.29859 5.60705C6.71716 5.60705 5.81055 6.3035 5.81055 7.59966C5.81055 8.66193 6.27864 9.82475 7.85595 11.5642C9.37818 13.2429 11.3783 14.1114 13.0388 14.0818C14.6992 14.0522 15.0408 12.6233 15.0408 12.1408C15.0408 11.9269 14.9081 11.8202 14.8167 11.7912C14.2508 11.5196 13.2072 11.0137 12.9698 10.9186C12.7323 10.8235 12.6083 10.9521 12.5313 11.0221C12.3159 11.2273 11.8891 11.832 11.7429 11.9681C11.5967 12.1041 11.3789 12.0353 11.2882 11.9838C10.9545 11.8499 10.0498 11.4475 9.32863 10.7484C8.43675 9.88387 8.38441 9.58642 8.21638 9.32164C8.08195 9.10982 8.18059 8.97985 8.22982 8.92306C8.42198 8.70133 8.68731 8.35902 8.8063 8.18891C8.92529 8.01879 8.83083 7.76052 8.77414 7.59966C8.53037 6.90783 8.32385 6.3287 8.15591 5.99138Z" fill="white"/>
<defs>
<linearGradient id="paint0_linear" x1="16.9857" y1="4.41475" x2="2.79541" y2="17.6591" gradientUnits="userSpaceOnUse">
<stop stop-color="#5BD066"/>
<stop offset="1" stop-color="#27B43E"/>
</linearGradient>
</defs>
</svg>
