<svg width="13" height="8" viewBox="0 0 13 8" fill="none" xmlns="http://www.w3.org/2000/svg">
<path d="M1.89812 0.323684L6.19882 4.62438L10.4995 0.323684C10.6021 0.221064 10.724 0.139661 10.858 0.0841234C10.9921 0.0285857 11.1358 1.08128e-09 11.281 0C11.4261 -1.08128e-09 11.5698 0.0285857 11.7039 0.0841234C11.838 0.139661 11.9598 0.221064 12.0624 0.323684C12.165 0.426304 12.2464 0.548132 12.302 0.682212C12.3575 0.816292 12.3861 0.959998 12.3861 1.10513C12.3861 1.25025 12.3575 1.39396 12.302 1.52804C12.2464 1.66212 12.165 1.78395 12.0624 1.88657L6.97472 6.97425C6.87217 7.077 6.75037 7.15853 6.61628 7.21415C6.48219 7.26977 6.33845 7.2984 6.19328 7.2984C6.04811 7.2984 5.90436 7.26977 5.77027 7.21415C5.63618 7.15853 5.51438 7.077 5.41184 6.97425L0.324153 1.88657C0.221398 1.78402 0.139875 1.66222 0.0842529 1.52813C0.0286304 1.39404 0 1.25029 0 1.10513C0 0.959956 0.0286304 0.816213 0.0842529 0.682122C0.139875 0.548032 0.221398 0.426229 0.324153 0.323684C0.75644 -0.0975186 1.46583 -0.108603 1.89812 0.323684Z" fill="#3A8860"/>
</svg>
