<svg width="11" height="10" viewBox="0 0 11 10" fill="none" xmlns="http://www.w3.org/2000/svg">
<path fill-rule="evenodd" clip-rule="evenodd" d="M9.28618 0.847773C9.46986 0.665692 9.71783 0.563217 9.97647 0.562504C10.2351 0.56179 10.4836 0.662895 10.6683 0.843959C10.853 1.02502 10.959 1.2715 10.9634 1.5301C10.9678 1.7887 10.8703 2.03864 10.6919 2.2259L5.45237 8.77527C5.36232 8.87226 5.25363 8.9501 5.13282 9.00413C5.012 9.05816 4.88152 9.08727 4.7492 9.08972C4.61687 9.09217 4.48541 9.06791 4.36267 9.01839C4.23994 8.96887 4.12845 8.89511 4.03487 8.80152L0.563305 5.32865C0.466591 5.23853 0.389019 5.12985 0.335217 5.0091C0.281415 4.88836 0.252485 4.75801 0.250153 4.62583C0.247821 4.49366 0.272135 4.36237 0.321644 4.2398C0.371153 4.11723 0.444843 4.00588 0.538317 3.91241C0.631792 3.81894 0.743136 3.74525 0.865708 3.69574C0.98828 3.64623 1.11957 3.62191 1.25174 3.62425C1.38391 3.62658 1.51426 3.65551 1.63501 3.70931C1.75576 3.76311 1.86444 3.84068 1.95455 3.9374L4.70293 6.68446L9.26124 0.876648C9.26938 0.866481 9.27814 0.856836 9.28749 0.847773H9.28618Z" fill="#3A8860"/>
</svg>
