<svg width="60" height="62" viewBox="0 0 60 62" fill="none" xmlns="http://www.w3.org/2000/svg">
<path d="M0.877596 1.21242C0.760403 0.67271 1.10292 0.140185 1.64263 0.0229944C2.18233 -0.0942 2.71486 0.248316 2.83205 0.788023L0.877596 1.21242ZM58.8908 54.4651C59.2033 54.9205 59.0873 55.5429 58.6319 55.8554L51.2104 60.9466C50.755 61.259 50.1325 61.1431 49.8201 60.6877C49.5076 60.2323 49.6236 59.6098 50.079 59.2974L56.6759 54.7718L52.1504 48.1749C51.8379 47.7195 51.9539 47.097 52.4093 46.7846C52.8647 46.4722 53.4872 46.5881 53.7996 47.0435L58.8908 54.4651ZM1.85482 1.00022C2.83205 0.788023 2.83201 0.787829 2.83198 0.787714C2.832 0.787776 2.83199 0.787731 2.83201 0.787858C2.83207 0.788105 2.83219 0.788656 2.83238 0.789507C2.83275 0.791214 2.83339 0.794126 2.8343 0.798236C2.83612 0.806453 2.83903 0.819452 2.84303 0.837132C2.85105 0.872496 2.86348 0.926602 2.88052 0.99868C2.9146 1.14284 2.96712 1.35888 3.03964 1.64069C3.1847 2.20435 3.40968 3.03087 3.72706 4.07148C4.36197 6.15321 5.36572 9.08875 6.83741 12.4889C9.78375 19.2959 14.5896 27.9278 22.0336 35.305L20.6258 36.7255C12.9429 29.1117 8.01136 20.236 5.00197 13.2833C3.49581 9.80357 2.46712 6.79617 1.81406 4.65493C1.48745 3.58405 1.25457 2.72908 1.10275 2.13913C1.02683 1.84412 0.97117 1.61532 0.934174 1.45884C0.915677 1.3806 0.901844 1.32043 0.892481 1.27911C0.887799 1.25845 0.884234 1.24249 0.881762 1.23134C0.880525 1.22577 0.879562 1.2214 0.878869 1.21824C0.878522 1.21666 0.878243 1.21538 0.878031 1.21441C0.877925 1.21393 0.877816 1.21343 0.877763 1.21318C0.877671 1.21276 0.877596 1.21242 1.85482 1.00022ZM22.0336 35.305C29.4666 42.6712 38.5161 47.3628 45.7378 50.2145C49.3438 51.6385 52.4814 52.5988 54.7143 53.2023C55.8304 53.5041 56.7196 53.7164 57.3272 53.8528C57.631 53.9211 57.8643 53.9703 58.0203 54.0022C58.0983 54.0181 58.1569 54.0298 58.1954 54.0373C58.2146 54.041 58.2288 54.0438 58.2378 54.0455C58.2423 54.0463 58.2455 54.047 58.2475 54.0473C58.2484 54.0475 58.2491 54.0476 58.2494 54.0477C58.2495 54.0477 58.2495 54.0477 58.2496 54.0477C58.2495 54.0477 58.2493 54.0477 58.0662 55.0308C57.8831 56.0139 57.8828 56.0138 57.8824 56.0137C57.8821 56.0137 57.8816 56.0136 57.8811 56.0135C57.8801 56.0133 57.8788 56.013 57.8771 56.0127C57.8738 56.0121 57.8691 56.0112 57.8632 56.0101C57.8513 56.0078 57.8343 56.0045 57.8122 56.0002C57.7679 55.9916 57.7034 55.9788 57.6194 55.9616C57.4515 55.9272 57.2057 55.8754 56.889 55.8043C56.2558 55.662 55.3385 55.4429 54.1924 55.1331C51.9008 54.5136 48.6906 53.5308 45.0032 52.0748C37.6384 49.1665 28.3196 44.3503 20.6258 36.7255L22.0336 35.305Z" fill="#9AA2BA"/>
</svg>
