<?xml version="1.0" encoding="utf-8"?>
<!-- Generator: Adobe Illustrator 24.0.1, SVG Export Plug-In . SVG Version: 6.00 Build 0)  -->
<svg version="1.1" id="Слой_1" xmlns="http://www.w3.org/2000/svg" xmlns:xlink="http://www.w3.org/1999/xlink" x="0px" y="0px"
	 viewBox="0 0 159.2 138.8" style="enable-background:new 0 0 159.2 138.8;" xml:space="preserve">
<style type="text/css">
	.st0{fill:#066FA4;}
	.st1{opacity:0.7;fill:#FFFFFF;enable-background:new    ;}
	.st2{opacity:0.1;enable-background:new    ;}
	.st3{fill:#263238;}
	.st4{fill:#DE5753;}
	.st5{fill:#E4897B;}
	.st6{opacity:0.6;fill:#FFFFFF;enable-background:new    ;}
	.st7{opacity:0.2;enable-background:new    ;}
	.st8{opacity:0.2;}
	.st9{fill:#FFFFFF;}
	.st10{display:none;fill:#E4897B;}
	.st11{display:none;fill:#066FA4;}
	.st12{display:none;opacity:0.7;fill:#FFFFFF;enable-background:new    ;}
</style>
<path class="st0" d="M36.7,53.5c0,0-2.7,8.3-8.1,9.7c-5.5,1.4-7.3,4.6-7.3,4.6l0.5,2.7l2.7-1.4c0,0-0.7-2,4.8-3.8s7.8-8,8.6-10.7
	L36.7,53.5z"/>
<path class="st0" d="M69.5,29l-0.3-0.4c-0.1-0.3-0.3-0.4-0.5-0.7c-0.5-0.5-1.1-1.1-1.9-1.3c-0.9-0.4-1.9-0.6-2.9-0.5
	c-1.3,0-2.5,0.2-3.7,0.5c-1.1,0.3-2,0.6-3,0.9c-1.9,0.6-3.7,1.4-5.4,2.3c-3.4,1.6-7,3.4-10.3,5.4l4.1,7c3.1-1.8,6.3-3.6,9.5-5.1
	c1.6-0.8,3.2-1.5,4.7-2.2c0.7-0.3,1.6-0.6,2.2-0.8c0.5-0.2,1-0.3,1.5-0.3c0.1,0.3,0.2,0.6,0.3,0.8c0.5,1.5,0.7,3,0.8,4.6
	c0.3,3.5,0.2,7.1-0.2,10.5l4.6,1.1c1.2-3.8,1.9-7.7,2.2-11.6c0.1-2.2,0-4.4-0.5-6.4C70.7,31.3,70.2,30.1,69.5,29L69.5,29z"/>
<path class="st1" d="M70.9,32.6c0.4,1.8,0.6,3.5,0.5,5.4c0,0.3,0,0.8,0,1.1c-0.2,3.9-1,7.9-2.2,11.6l-4.5-1.1
	c0.4-3.5,0.5-7,0.3-10.6c-0.1-1.1-0.2-2.3-0.5-3.3c0-0.4-0.2-0.9-0.4-1.3c-0.1-0.3-0.2-0.6-0.3-0.8c-0.5,0.1-1,0.3-1.5,0.3
	c-0.7,0.3-1.5,0.6-2.2,0.8l-0.2,0.1c-1.5,0.7-3,1.4-4.7,2.1c-3,1.6-6.3,3.2-9.2,5l-0.3,0.1l-4.1-7c3.3-2,6.7-3.7,10.3-5.4
	c1.7-0.8,3.6-1.6,5.4-2.3c0.9-0.4,1.9-0.6,3-0.9c1.2-0.3,2.4-0.5,3.7-0.5c0.9,0,2,0.1,2.9,0.5c0.7,0.3,1.4,0.8,1.9,1.3
	c0.2,0.2,0.4,0.4,0.5,0.7l0.3,0.4C70.2,30.2,70.7,31.3,70.9,32.6z"/>
<path class="st2" d="M59.8,34.9c-1.5,0.7-3,1.4-4.7,2.1c-3,1.6-6.3,3.2-9.2,5c0-3.3,0.1-6.7,0.1-6.7C50.6,34.4,55.3,34.3,59.8,34.9
	L59.8,34.9z"/>
<path class="st2" d="M71.4,38c0,0.3,0,0.8,0,1.1c-0.2,3.9-1,7.9-2.2,11.6l-4.5-1.1c0.4-3.5,0.5-7,0.3-10.6c-0.1-1.1-0.2-2.3-0.5-3.3
	C66.9,36.3,69.2,37,71.4,38z"/>
<path class="st3" d="M20.1,49.4c0.3,0.2,0.5,0.5,0.4,0.7c-0.1,0.3-0.5,0.2-0.7,0.1c-0.3-0.1-0.5-0.5-0.4-0.7
	C19.5,49.3,19.8,49.2,20.1,49.4z"/>
<path class="st4" d="M20.6,49.8c0.7,0.9,1.3,2,1.8,3.1c0.3-0.1,0.5-0.3,0.8-0.5c0.2-0.2,0.4-0.5,0.4-0.8L20.6,49.8z"/>
<path class="st3" d="M19,47.2L19,47.2C19,47.1,19.1,47.1,19,47.2L19,47c0,0,0,0,0-0.1c0,0,0,0-0.1,0l-0.1,0
	c-0.3,0.1-0.6,0.3-0.8,0.6c-0.2,0.3-0.3,0.6-0.4,0.9c0,0,0,0.1,0.1,0.2c0,0.1,0,0.1,0.1,0.1c0,0,0.1,0,0.2-0.1c0.1,0,0.1,0,0.1-0.1
	l0,0c0.1-0.3,0.2-0.5,0.4-0.7c0.2-0.2,0.4-0.4,0.7-0.5C19,47.3,19,47.3,19,47.2C19.1,47.3,19.1,47.3,19,47.2L19,47.2z"/>
<path class="st5" d="M26.1,42.4c3.2,0.8,9.1,1.9,11.4-0.3c0,0,3.2,1.1,2.8,7.2c-0.5,6.6-3.5,2.9-3.5,2.9c-0.7-3.7-3.3-3.8-5.9-3.3
	L26.1,42.4z"/>
<path class="st5" d="M25.6,38.8c3.6,2.5,5.9,3.8,6.7,6.9c1.2,4.6-3.3,8.2-7.7,6.9c-3.9-1.2-9.2-5.1-8.5-9.7c0.1-1,0.6-1.9,1.2-2.8
	c0.7-0.8,1.5-1.4,2.4-1.9c0.9-0.4,1.9-0.5,3-0.5C23.8,37.8,24.8,38.2,25.6,38.8L25.6,38.8z"/>
<path class="st3" d="M31.5,42.9c0.4,2.1-5.1,7.2-9.6,4c0,0-3.6,1.4-6.7,0c-3.1-1.4-3.5-3.9-1.9-6c1.2-1.9,2.5-12.1,10-8
	C29,30.6,31,40.4,31.5,42.9z"/>
<path class="st3" d="M17.3,38.4c0,0-3.4,1.1-4.8,3.4s1,6.9,2.1,7.5c0.3,0.2,0.6,0.3,0.9,0.4c0.4,0.1,0.7,0.1,0.9,0
	c0,0-1.3-0.1-1.7-1.1c0,0,0.9,1,3.4,0.4c-0.3-0.1-0.4-0.2-0.7-0.4c-0.2-0.2-0.4-0.4-0.3-0.6c0,0,1.8,1.1,4.1-1.6
	S17.3,38.4,17.3,38.4z"/>
<path class="st5" d="M23.4,45.7c0.9,0.6,1.5,1.6,1.9,2.6c0.4,1.3-0.7,2-1.8,1.3c-1.3-0.5-2.6-1.7-2.6-3.1
	C20.9,45.2,22.2,44.9,23.4,45.7z"/>
<path class="st0" d="M34.3,54.4c0,0-3.6-7.4-0.1-13.6l6.2-1.7C40.4,39,40.1,48.8,34.3,54.4z"/>
<path class="st6" d="M34.3,54.4c0,0-3.6-7.4-0.1-13.6l6.2-1.7C40.4,39,40.1,48.8,34.3,54.4z"/>
<path class="st0" d="M58.1,65.1c0,0-12.3-5.5-24.7-7.9c0,0,0.7-18.1,8.6-22.7c0,0,24.2-1.7,37.3,13.8L58.1,65.1z"/>
<path class="st5" d="M79.6,118.7l-3.3,3.2l-7.6-7.3l3.3-3.2L79.6,118.7z"/>
<path class="st3" d="M79.2,48.3l7,25.3c-1.4,1.8-2.9,3.2-4.9,4.4c-4.3,2.9-10.5,5.8-15.9,8.1c-6,2.7-11.1,4.6-11.4,5.2
	c-0.7,1.2,23.4,24.1,23.4,24.1l-6.1,3.3c0,0-25.7-16.9-31.1-24.2c-2-2.7-4.1-6.1,0-11.6c3.7-4.9,20.8-14,20.8-14l-3-3.6L79.2,48.3z"
	/>
<path class="st7" d="M81.3,77.9c-4.3,2.9-10.5,5.8-15.9,8.1c-4.1-8.7-2.8-19-2.8-19l5.8-4L81.3,77.9z"/>
<path class="st5" d="M135,93.7l2.2,4l-8.8,5.7l-2.2-4L135,93.7z"/>
<path class="st0" d="M137.4,97.7L137.4,97.7C137.3,97.8,137.3,97.8,137.4,97.7L137.4,97.7c-0.1,0-0.1,0-0.1,0.1c0,0.1,0.8,1.7,1.4,2
	c0.1,0.1,0.3,0.1,0.4,0c0.1,0,0.2-0.1,0.2-0.2c0.1,0,0.1-0.1,0.1-0.3c0-0.3-0.4-0.7-0.8-1.1C138.2,98.2,137.8,97.9,137.4,97.7z
	 M137.7,98.1c0.7,0.5,1.6,1.1,1.6,1.5c0,0-0.1,0.1-0.2,0.2c-0.1,0-0.2,0.1-0.2,0c0,0-0.1-0.1-0.2-0.2
	C138.2,99.2,137.9,98.6,137.7,98.1L137.7,98.1z"/>
<path class="st0" d="M137.4,97.7C137.4,97.6,137.3,97.7,137.4,97.7C137.3,97.8,137.3,97.8,137.4,97.7c-0.1,0-0.7,1.1-0.6,1.8
	c0.1,0.2,0.1,0.4,0.4,0.5c0.3,0.1,0.4,0.1,0.5,0C138,99.6,137.7,98.3,137.4,97.7L137.4,97.7L137.4,97.7L137.4,97.7L137.4,97.7z
	 M137,99.5c0-0.5,0.1-1,0.4-1.4c0.2,0.6,0.3,1.6,0.2,1.9c0,0-0.1,0-0.2,0c0,0,0,0,0-0.1C137.1,99.8,137.1,99.6,137,99.5z"/>
<path class="st3" d="M136.6,97.9l-3.9-3c0-0.1-0.2-0.2-0.2-0.2c0-0.1,0-0.2,0-0.2l1.7-3.7c0.1-0.1,0.2-0.2,0.2-0.3
	c0.1,0,0.2-0.1,0.3-0.1c0.1,0,0.2-0.1,0.3,0s0.2,0,0.3,0.1c1.4,1.1,3.4,2.8,5.1,4.2c2.1,1.6,4,2.9,6.4,4.7c1.5,1.1,0.8,2.9,0,2.6
	c-3.3-1.5-5.6-3.2-9.2-3.6C137.3,98.3,137,98.2,136.6,97.9L136.6,97.9z"/>
<path class="st3" d="M79.2,48.3c0,0,15.3,17,5.1,29.6c0,0,8.5,23.1,12.9,24.5c5.3,1.8,35.3-7.7,35.3-7.7l2.5,7.4
	c0,0-30.5,14.5-41.4,14.7c-12.5,0.2-35-51.6-35-51.6L79.2,48.3z"/>
<path class="st7" d="M74.9,63.9l4.1-3.2c1.2,1.9,2.1,3.9,3,5.9l-1.4,2.7l-2.3,0.1C77.3,67.6,76.2,65.7,74.9,63.9z"/>
<path class="st3" d="M59.6,64.6l1.4,1.7l-1.6,1.1l-1.3-1.7L59.6,64.6z"/>
<path class="st3" d="M66.6,58.9l1.4,1.7l-6.4,5l-1.4-1.7L66.6,58.9z"/>
<path class="st3" d="M74.5,52.7l1.4,1.8L68.9,60l-1.4-1.8L74.5,52.7z"/>
<path class="st3" d="M81.2,50.5l-4.4,3.4l0,0L75.4,52l4.4-3.5L81.2,50.5z"/>
<g class="st8">
	<path class="st9" d="M59.6,64.6l1.4,1.7l-1.6,1.1l-1.3-1.7L59.6,64.6z"/>
	<path class="st9" d="M66.6,58.9l1.4,1.7l-6.4,5l-1.4-1.7L66.6,58.9z"/>
	<path class="st9" d="M74.5,52.7l1.4,1.8L68.9,60l-1.4-1.8L74.5,52.7z"/>
	<path class="st9" d="M81.2,50.5l-4.4,3.4l0,0L75.4,52l4.4-3.5L81.2,50.5z"/>
</g>
<path class="st0" d="M74.7,121L74.7,121C74.7,121,74.8,121,74.7,121c0.1-0.1,0.1-0.1,0-0.2l0,0c-0.1,0-1.9-0.2-2.5,0.2
	c-0.1,0-0.2,0.2-0.2,0.4c0,0.1,0,0.2,0,0.2s0.1,0.2,0.2,0.2c0.3,0.2,0.9,0,1.3-0.2C73.8,121.5,74.3,121.3,74.7,121L74.7,121z
	 M74.3,121.1c-0.7,0.4-1.8,0.9-2.1,0.7c0,0-0.1-0.1-0.1-0.2c0,0,0-0.1,0.1-0.1c0,0,0.1,0,0.1-0.1c0.1,0,0.1,0,0.2-0.1
	C73.1,121,73.7,120.9,74.3,121.1L74.3,121.1z"/>
<path class="st0" d="M74.7,121L74.7,121C74.7,120.9,74.7,120.9,74.7,121c-0.3-0.6-0.7-1.1-1.3-1.4c-0.1-0.1-0.2,0-0.3,0
	c-0.1,0-0.2,0.1-0.3,0.1c-0.3,0.1-0.3,0.3-0.3,0.4c0.1,0.5,1.5,1,2.1,1L74.7,121L74.7,121z M73.4,119.8c0.4,0.3,0.9,0.6,1.1,1.1
	c-0.7-0.1-1.6-0.6-1.7-0.9c0,0,0-0.1,0.2-0.2l0.1,0C73.2,119.8,73.3,119.7,73.4,119.8L73.4,119.8z"/>
<path class="st3" d="M74.9,120.3l4.5-1.8c0.1,0,0.2-0.1,0.3,0c0.1,0.1,0.1,0.1,0.2,0.2l2.3,3.4c0,0.1,0.1,0.2,0.1,0.3
	c0,0.1,0,0.2,0,0.3c-0.1,0.1-0.1,0.1-0.1,0.3c-0.1,0-0.2,0.2-0.2,0.2c-1.7,0.6-4.1,1.6-6.2,2.3c-2.4,1-4.5,2-7.3,3.1
	c-1.8,0.7-2.9-0.8-2.2-1.3c3-2.1,5.6-3.2,7.7-6.1C74.2,120.6,74.5,120.4,74.9,120.3L74.9,120.3z"/>
<path class="st1" d="M79.2,48.3L58,65.1c0,0-5.8-2.6-13.4-5c-1.4-0.4-2.9-0.9-4.5-1.3c-2.1-0.6-4.5-1.1-6.7-1.6
	c0,0,0.7-18.1,8.6-22.7C42,34.6,66.2,32.9,79.2,48.3z"/>
<path class="st2" d="M44.6,60.1c-1.4-0.4-2.9-0.9-4.5-1.3L40,57.2C41.8,57.9,43.3,58.9,44.6,60.1L44.6,60.1z"/>
<path class="st10" d="M3.5,79.8l-1.8,0.4c-0.2,0.1-0.4,0.2-0.6,0.3c-0.2,0.2-0.3,0.4-0.3,0.6l-0.4,2.4c0,0.3,0,0.5,0.1,0.7
	c0.3,0.3,0.5,0.5,0.7,0.6l1.3,0.5c0,0,3.7,2.7,6.9,1L8,82.7l-2.7-2.4c-0.2-0.2-0.5-0.4-0.9-0.4C4.2,79.7,3.9,79.7,3.5,79.8L3.5,79.8
	z"/>
<path class="st11" d="M35.9,56.7c0.7,0.5,1.3,1.1,1.7,1.8c0.4,0.7,0.7,1.5,0.8,2.4c0,0-1.8,4.9-2.8,7.3c-0.7,1.6-1.4,3.3-2.3,4.9
	c-0.9,1.8-1.9,3.5-3.2,5.1l-0.3,0.3l-0.4,0.3c-0.3,0.3-0.5,0.5-0.8,0.7c-0.2,0.1-0.4,0.3-0.5,0.4c-0.2,0.1-0.4,0.3-0.5,0.3l-0.7,0.4
	c-0.9,0.4-1.7,0.8-2.6,1.1c-1.7,0.7-3.3,1.3-5,1.9c-3.3,1.2-6.7,2.2-10.1,3.1l-1.6-4.4c3.1-1.6,6.2-3,9.2-4.6c1.5-0.8,3-1.5,4.5-2.3
	c0.7-0.4,1.4-0.8,2.1-1.2l0.4-0.3c0.1-0.1,0,0,0,0s-0.1,0,0,0s0.1-0.1,0.1-0.2l0.1-0.1l0.1-0.2c0.8-1.2,1.5-2.5,2.1-3.9
	c0.6-1.5,1.3-3,1.9-4.5c1.2-3.1,2.3-6.3,3.4-9.4C33,55.5,34.6,55.9,35.9,56.7L35.9,56.7z"/>
<path class="st12" d="M35.9,56.7c0.7,0.5,1.3,1.1,1.7,1.8c0.4,0.7,0.7,1.5,0.8,2.4c0,0-1.8,4.9-2.8,7.3c-0.7,1.6-1.4,3.3-2.3,4.9
	c-0.9,1.8-1.9,3.5-3.2,5.1l-0.3,0.3l-0.4,0.3c-0.3,0.3-0.5,0.5-0.8,0.7c-0.2,0.1-0.4,0.3-0.5,0.4c-0.2,0.1-0.4,0.3-0.5,0.3l-0.7,0.4
	c-0.9,0.4-1.7,0.8-2.6,1.1c-1.7,0.7-3.3,1.3-5,1.9c-3.3,1.2-6.7,2.2-10.1,3.1l-1.6-4.4c3.1-1.6,6.2-3,9.2-4.6c1.5-0.8,3-1.5,4.5-2.3
	c0.7-0.4,1.4-0.8,2.1-1.2l0.4-0.3c0.1-0.1,0,0,0,0s-0.1,0,0,0s0.1-0.1,0.1-0.2l0.1-0.1l0.1-0.2c0.8-1.2,1.5-2.5,2.1-3.9
	c0.6-1.5,1.3-3,1.9-4.5c1.2-3.1,2.3-6.3,3.4-9.4C33,55.5,34.6,55.9,35.9,56.7L35.9,56.7z"/>
</svg>
