<svg width="63" height="27" viewBox="0 0 63 27" fill="none" xmlns="http://www.w3.org/2000/svg">
<path d="M57.8976 17.4064H42.2851C42.33 17.028 42.3545 16.6474 42.3584 16.2663C42.3519 13.5469 41.2693 10.9407 39.3472 9.01778C37.4252 7.09485 34.8202 6.01171 32.102 6.00525H31.7275C30.985 4.00771 29.5643 2.33479 27.7139 1.27887C25.8635 0.222953 23.701 -0.14879 21.6045 0.228611C19.5079 0.606013 17.6105 1.70855 16.2441 3.34353C14.8776 4.97851 14.1289 7.04194 14.1289 9.17316C11.9735 9.2698 9.93156 10.1671 8.40218 11.6896C6.8728 13.2122 5.96586 15.2506 5.85863 17.4064H5.44349C4.23237 17.4064 3.07085 17.8878 2.21446 18.7446C1.35807 19.6013 0.876953 20.7634 0.876953 21.9751C0.876953 23.1867 1.35807 24.3488 2.21446 25.2056C3.07085 26.0623 4.23237 26.5437 5.44349 26.5437H57.8976C59.1088 26.5437 60.2703 26.0623 61.1267 25.2056C61.9831 24.3488 62.4642 23.1867 62.4642 21.9751C62.4642 20.7634 61.9831 19.6013 61.1267 18.7446C60.2703 17.8878 59.1088 17.4064 57.8976 17.4064Z" fill="#F0F0F0"/>
</svg>
