<?xml version="1.0" encoding="utf-8"?>
<!-- Generator: Adobe Illustrator 24.0.1, SVG Export Plug-In . SVG Version: 6.00 Build 0)  -->
<svg version="1.1" id="Слой_1" xmlns="http://www.w3.org/2000/svg" xmlns:xlink="http://www.w3.org/1999/xlink" x="0px" y="0px"
	 viewBox="0 0 96 173" style="enable-background:new 0 0 96 173;" xml:space="preserve">
<style type="text/css">
	.st0{opacity:0.3;enable-background:new    ;}
	.st1{fill:#263238;}
	.st2{display:none;fill:#263238;}
	.st3{display:none;opacity:0.2;}
	.st4{display:inline;fill:#FFFFFF;}
	.st5{display:none;fill:#FFFFFF;}
</style>
<path class="st0" d="M59.2,78c-0.7,1.8-1.8,4.5-3,7.7c-0.8,2.1-1.8,4.5-2.8,6.9c-6.4,1.3-12.9,2.2-17.6,2.7c0.5-1.5,1-2.9,1.5-4.4
	c1.3-3.8,2.5-7.5,3.6-10.8c0.1-0.4,0.3-0.8,0.4-1.2c0.4-1.3,0.8-2.6,1.2-3.8C47.3,75.8,53.5,76.8,59.2,78z"/>
<path d="M77.4,129.2c0,0-7.1-5.5-6.4-8.9c0-0.1,0-0.2,0-0.2c0-0.1,0-0.2-0.1-0.2c0-0.1-0.1-0.1-0.2-0.2c-0.1,0-0.1-0.1-0.2-0.1
	l-6.2-1.3c-0.1,0-0.3,0-0.4,0c-0.1,0-0.3,0.1-0.4,0.3l-4,5l1.6,0.7l0.9-0.6l0.4,1.1c8.8,3.8,12.6,5.3,14.7,5.5
	C77.6,129.7,77.4,129.2,77.4,129.2z"/>
<path class="st1" d="M49.2,85.9h0.6l29.7,4.3l-16.9,28l8.4,3.3c0,0,30.6-33,23.7-40.5C89.1,74.8,61.6,71,61.6,71l0.9-6.4l-25.4-5
	C26.1,83.4,45.5,85.6,49.2,85.9z"/>
<path class="st2" d="M36.7,62.1L36.2,62l0.5-1.7l0.5,0.1L36.7,62.1z"/>
<path class="st2" d="M56.7,65.9l-10.9-2.1l0.4-1.7l10.8,2.1L56.7,65.9z"/>
<path class="st2" d="M58,64.4l4.6,0.9L62.2,67l-4.6-0.9L58,64.4z"/>
<path class="st2" d="M38,60.5l7.5,1.4L45,63.7l-7.4-1.4L38,60.5z"/>
<g class="st3">
	<path class="st4" d="M36.7,62.1L36.2,62l0.5-1.7l0.5,0.1L36.7,62.1z"/>
	<path class="st4" d="M56.7,65.9l-10.9-2.1l0.4-1.7l10.8,2.1L56.7,65.9z"/>
	<path class="st4" d="M58,64.4l4.6,0.9L62.2,67l-4.6-0.9L58,64.4z"/>
	<path class="st4" d="M38,60.5l7.5,1.4L45,63.7l-7.4-1.4L38,60.5z"/>
</g>
<path class="st5" d="M53.2,65.4L53.2,65.4l-2.8-0.5c-0.1,0-0.1,0-0.2-0.1c-0.1,0-0.1-0.1-0.2-0.2c0-0.1-0.1-0.1-0.1-0.2
	c0-0.1,0-0.2,0-0.2l0.3-1.1c0-0.1,0.1-0.3,0.2-0.3c0.1-0.1,0.3-0.1,0.4-0.1l2.7,0.5c0.1,0,0.1,0,0.2,0.1c0.1,0,0.1,0.1,0.2,0.2
	c0,0.1,0.1,0.1,0.1,0.2c0,0.1,0,0.2,0,0.2l0,0L53.7,65c0,0.1-0.1,0.2-0.2,0.3C53.4,65.4,53.3,65.4,53.2,65.4L53.2,65.4z M50.7,63.2
	C50.7,63.2,50.7,63.2,50.7,63.2C50.7,63.2,50.7,63.3,50.7,63.2l-0.4,1.2c0,0,0,0,0,0c0,0,0,0,0,0c0,0,0,0,0,0s0,0,0,0l2.7,0.5
	c0,0,0,0,0.1,0c0,0,0,0,0,0l0.2-1.1c0,0,0,0,0,0s0,0,0,0c0,0,0,0,0,0c0,0,0,0,0,0L50.7,63.2L50.7,63.2z"/>
<path class="st5" d="M51.5,64.2L51.5,64.2l-0.9-0.1c0,0-0.1,0-0.1,0c0,0-0.1,0-0.1-0.1c0,0,0-0.1,0-0.1c0,0,0-0.1,0-0.1
	c0,0,0-0.1,0-0.1c0,0,0-0.1,0.1-0.1c0,0,0.1,0,0.1,0c0,0,0.1,0,0.1,0l0.8,0.1c0,0,0.1,0,0.1,0c0,0,0,0,0.1,0.1c0,0,0,0.1,0,0.1
	c0,0,0,0.1,0,0.1c0,0.1,0,0.1-0.1,0.1C51.6,64.2,51.5,64.2,51.5,64.2L51.5,64.2z"/>
<path class="st0" d="M61.6,71l-14-1.6c4.7-0.6,9.5-0.8,14.3-0.6L61.6,71z"/>
</svg>
