<?xml version="1.0" encoding="utf-8"?>
<!-- Generator: Adobe Illustrator 24.0.1, SVG Export Plug-In . SVG Version: 6.00 Build 0)  -->
<svg version="1.1" id="Слой_1" xmlns="http://www.w3.org/2000/svg" xmlns:xlink="http://www.w3.org/1999/xlink" x="0px" y="0px"
	 viewBox="0 0 96 173" style="enable-background:new 0 0 96 173;" xml:space="preserve">
<style type="text/css">
	.st0{fill:#066FA4;}
	.st1{opacity:0.7;fill:#FFFFFF;enable-background:new    ;}
	.st2{fill:#263238;}
	.st3{opacity:0.2;}
	.st4{fill:#FFFFFF;}
	.st5{fill:#EBB376;}
	.st6{opacity:0.2;enable-background:new    ;}
	.st7{fill:#FFB573;}
	.st8{fill:#ED893E;}
	.st9{opacity:0.1;enable-background:new    ;}
	.st10{opacity:0.6;fill:#FFFFFF;enable-background:new    ;}
</style>
<path class="st0" d="M63.2,63.6c6.3-27.2-1.5-39.8-1.5-39.8c-2.2-0.1-4.4-0.1-6.5,0.1c-0.5-0.1-0.9,0-1.4,0.1
	c-3.7,0.6-7.3,1.4-11,2.4c-0.7,0.1-1.3,0.4-2,0.6c-3,1-5.7,2.2-5.7,2.2c1.3,4.1,2.1,8.2,2.8,12.5c0.4,3.4,0.8,6.7,0.7,9.7
	c0.2,3,0.2,5.8,0.2,7.7c0,1.2,0,2.2-0.1,2.9"/>
<path class="st0" d="M38.6,62.1"/>
<path class="st1" d="M38.6,62.1c0,0,0,0,0.1-3c0,0,0-1.6,0-2.6c0-1.5,0-3.3-0.1-5.1c0-0.9-0.1-1.8-0.1-2.8c0-0.2,0-0.3,0.1-0.5
	c0-1.5-0.3-3.1-0.4-4.7c0-0.6-0.2-1.1-0.2-1.7c0-0.4-0.1-0.9-0.1-1.4c-0.2-1.1-0.4-2.3-0.5-3.4c0-0.3-0.1-0.6-0.1-0.9
	c0-0.5-0.3-1-0.2-1.5c-0.4-1.9-0.8-3.6-1.4-5.3l0,0c0,0,2.7-1.2,5.9-2.3c0.6-0.2,1.3-0.4,2-0.6c3.5-1,7.2-1.8,11-2.4
	c0.5,0.1,0.9-0.1,1.4-0.1c2.2-0.2,4.4-0.1,6.6-0.2c-0.7,0.4,7.1,12.9,0.8,40L38.6,62.1z"/>
<path class="st2" d="M37.8,61.9l-0.5-0.2l0.4-1.7l0.5,0.2L37.8,61.9z"/>
<path class="st2" d="M58,64.8l-11-1.6l0.3-1.7l10.9,1.6L58,64.8z"/>
<path class="st2" d="M59.2,63.3l4.6,0.7l-0.3,1.7L58.9,65L59.2,63.3z"/>
<path class="st2" d="M39,60.2l7.6,1.1l-0.4,1.8L38.7,62L39,60.2z"/>
<g class="st3">
	<path class="st4" d="M37.8,61.9l-0.5-0.2l0.4-1.7l0.5,0.2L37.8,61.9z"/>
	<path class="st4" d="M48.2,63.5l-1.3-0.1l0.3-1.7l10.9,1.6l-0.2,1.7L48.2,63.5"/>
	<path class="st4" d="M59.2,63.3l4.6,0.7l-0.3,1.7L58.9,65L59.2,63.3z"/>
	<path class="st4" d="M38.7,62l0.3-1.8l7.6,1.1l-0.4,1.8L38.7,62"/>
</g>
<path class="st4" d="M54.4,64.5L54.4,64.5l-2.8-0.4c-0.1,0-0.1,0-0.2-0.1c-0.1,0-0.1-0.1-0.2-0.2c0-0.1-0.1-0.1-0.1-0.2
	c0-0.1,0-0.2,0-0.2l0.2-1.1c0-0.1,0.1-0.3,0.2-0.3c0-0.1,0.2-0.1,0.3-0.1l2.7,0.4c0.1,0,0.1,0,0.2,0.1c0.1,0,0.1,0.1,0.2,0.2
	c0,0.1,0.1,0.1,0.1,0.2c0,0.1,0,0.2,0,0.2l0,0l-0.2,1.1c0,0.1-0.1,0.2-0.2,0.3C54.6,64.6,54.5,64.6,54.4,64.5L54.4,64.5z M52,62.5
	L52,62.5C52,62.5,52,62.6,52,62.5l-0.3,1.2l0,0l0,0l0,0l0,0l2.7,0.4c0,0,0,0,0.1,0l0,0l0.1-1.1l0,0l0,0l0,0l0,0L52,62.5L52,62.5z"/>
<path class="st4" d="M52.8,63.5L52.8,63.5l-0.9-0.1l-0.1,0c0,0-0.1,0-0.1-0.1l0-0.1l0-0.1l0-0.1c0,0,0-0.1,0.1-0.1l0.1,0l0.1,0
	l0.8,0.1l0.1,0c0,0,0,0,0.1,0.1l0,0.1l0,0.1c0,0.1,0,0.1-0.1,0.1C52.8,63.5,52.8,63.5,52.8,63.5L52.8,63.5z"/>
<path class="st5" d="M45,15.1l6.8,5.1c-0.5,2.6,0.8,5,1.9,5.4c0,0,1,2.1-0.8,2.6c-3.7,1-8-2.5-8-2.5C46.7,23.8,45.8,18.5,45,15.1z"
	/>
<path class="st6" d="M47.7,17.2l4,3.1c-0.2,0.6-0.2,1.2-0.2,1.9c-1.4-0.2-3.5-1.5-3.8-3C47.6,18.4,47.6,17.8,47.7,17.2L47.7,17.2z"
	/>
<path class="st2" d="M50.3,4.4c1.7,0.9,3.8,3.7,1.2,4.5C48.9,9.8,47.4,2.7,50.3,4.4z"/>
<path class="st7" d="M42.6,14.9c2.8,3.5,4.4,5.7,7.6,6.2c4.7,0.7,8-4.3,6.2-8.6c-1.6-3.8-6.1-8.9-10.6-7.6c-1,0.3-2,0.8-2.7,1.5
	S41.7,8,41.3,9.1c-0.4,1-0.4,2-0.1,3.1C41.5,13,42,13.9,42.6,14.9L42.6,14.9z"/>
<path class="st2" d="M43.1,10.7l-3.3-3.6c0,0-4.1,3.4-2.2,5.2c-1.2,3.2,4.3,7.1,8.6,6c0.4-2.8-3.8-7.4-3.8-7.4
	C42.7,11.1,43,10.8,43.1,10.7L43.1,10.7z"/>
<path class="st7" d="M43.4,18.8c0.4,0.4,0.9,0.6,1.5,0.7c0.5,0.3,1.1,0.1,1.7,0c1.5-0.2,1.5-1.7,0.6-2.8c-1-1.1-2.7-2-3.9-1.2
	c-0.3,0.2-0.5,0.3-0.7,0.7c-0.1,0.4-0.3,0.7-0.3,1c0,0.3,0.1,0.6,0.2,0.9C42.9,18.4,43.1,18.6,43.4,18.8L43.4,18.8z"/>
<path class="st2" d="M48.8,11.6c0.2,0.3,0.5,0.4,0.7,0.3c0.2-0.1,0.3-0.5,0-0.8c-0.2-0.3-0.5-0.4-0.7-0.3
	C48.6,11,48.6,11.4,48.8,11.6z"/>
<path class="st2" d="M52.1,9.3c0.2,0.3,0.5,0.4,0.7,0.3c0.2-0.1,0.3-0.5,0-0.8c-0.2-0.3-0.5-0.4-0.7-0.3C51.9,8.5,51.9,8.9,52.1,9.3
	z"/>
<path class="st8" d="M51.2,10.1c1,0.6,2.1,1.1,3.3,1.4c-0.2,0.8-1.2,1.3-1.2,1.3L51.2,10.1z"/>
<path class="st2" d="M50.4,15c-0.1,0.1-0.3,0.2-0.4,0.3c0,0,0,0,0,0.1l0,0.1l0,0l0,0l0,0l0,0c0.4-0.3,0.8-0.5,1.2-0.6
	c0.4-0.1,0.9-0.1,1.4,0.1l0,0l0,0l0,0l0,0l0-0.1c0,0,0,0-0.1-0.1c-0.4-0.1-0.8-0.2-1.2,0C51.3,14.6,50.9,14.7,50.4,15z"/>
<path class="st2" d="M46.4,10.8L46.4,10.8c0.1,0,0.2,0,0.2-0.1c0.1-0.2,0.3-0.4,0.6-0.6C47.3,10,47.7,10,48,9.8l0.1,0l0.1,0
	c0,0,0,0,0-0.1l0-0.1c0-0.1,0-0.1-0.1-0.1l-0.1,0c-0.3,0-0.7,0.1-1,0.4c-0.3,0.2-0.5,0.3-0.7,0.7C46.3,10.6,46.3,10.7,46.4,10.8
	C46.3,10.8,46.3,10.7,46.4,10.8L46.4,10.8L46.4,10.8z"/>
<path class="st2" d="M52.2,6.5L52.2,6.5c0-0.2-0.1-0.2-0.1-0.2c-0.1,0-0.1,0-0.2,0c-0.3,0.1-0.6,0.2-0.9,0.5
	c-0.3,0.2-0.5,0.5-0.6,0.9c0,0.1,0,0.1,0,0.2c0,0.1,0.1,0,0.1,0l0.1,0l0.1,0c0,0,0,0,0.1-0.1c0,0,0,0,0-0.1c0.1-0.3,0.3-0.5,0.5-0.7
	c0.2-0.2,0.4-0.3,0.8-0.4C52,6.6,52,6.6,52.2,6.5C52.1,6.5,52.2,6.6,52.2,6.5L52.2,6.5z"/>
<path class="st2" d="M42.5,11.1c0,0,8.5-4,8.8-8.1s-3.2-2.3-3.2-2.3s1.7-0.2,1.6,1c0,0-3-1.8-5.7,0c0.4,0,0.8,0.1,1.1,0.1
	c0.3,0.2,0.6,0.4,0.9,0.7c-2,0.6-3.8,1.6-5.5,2.9C37.6,7.8,32.7,15.8,42.5,11.1z"/>
<path class="st9" d="M37.9,43.4c0-0.6-0.2-1.1-0.2-1.7c0-0.4-0.1-0.9-0.1-1.4c-0.2-1.1-0.4-2.3-0.5-3.4c0-0.3-0.1-0.6-0.1-0.9
	c0.4-0.3,0.8-0.6,1.2-0.9C38.5,37.9,38.5,40.8,37.9,43.4L37.9,43.4z"/>
<path class="st5" d="M15.4,64.4l-2.1,5.8l5.4,1.1c0,0,2.1-3.9-0.2-6.6L15.4,64.4z"/>
<path class="st5" d="M13.8,74.7l4.2-0.1l0.5-3.1l-5.4-1.1L13.8,74.7z"/>
<path class="st0" d="M37.9,33.2c0.5,3.6-0.6,5-0.6,5s-3.4,2.3-4.8,3.6c-1.2,1.1-2.4,1.9-3.6,3c-0.6,0.5-1.1,1.1-1.6,1.5
	c-0.5,0.3-0.9,0.9-1.2,1.5c-0.1,0.2-0.3,0.4-0.4,0.6c-0.1,0.2-0.3,0.6-0.5,0.9c-0.3,0.7-0.6,1.3-0.8,2.1c-0.6,1.4-1,3.1-1.5,4.6
	c-1,3.2-2,6.3-2.9,9.4L15,64.5c0.4-3.4,0.7-6.7,1.5-10.1c0.3-1.6,0.7-3.2,1.2-5.1c0.3-0.8,0.4-1.7,0.8-2.6c0.3-0.5,0.4-0.9,0.6-1.3
	c0.3-0.5,0.4-1,0.7-1.5c0.6-0.9,1.1-1.8,1.8-2.5c0.6-0.7,1.3-1.4,1.8-2.1c1.2-1.3,2.5-2.4,3.8-3.7c2.7-2.2,5.2-4.5,8.1-6.5
	C35.3,29.2,37.4,30,37.9,33.2z"/>
<path class="st1" d="M37.9,33.2c0.5,3.6-0.6,5-0.6,5s-3.4,2.3-4.8,3.6c-1.2,1.1-2.4,1.9-3.6,3c-0.6,0.5-1.1,1.1-1.6,1.5
	c-0.5,0.3-0.9,0.9-1.2,1.5c-0.1,0.2-0.3,0.4-0.4,0.6c-0.1,0.2-0.3,0.6-0.5,0.9c-0.3,0.7-0.6,1.3-0.8,2.1c-0.6,1.4-1,3.1-1.5,4.6
	c-1,3.2-2,6.3-2.9,9.4L15,64.5c0.4-3.4,0.7-6.7,1.5-10.1c0.3-1.6,0.7-3.2,1.2-5.1c0.3-0.8,0.4-1.7,0.8-2.6c0.3-0.5,0.4-0.9,0.6-1.3
	c0.3-0.5,0.4-1,0.7-1.5c0.6-0.9,1.1-1.8,1.8-2.5c0.6-0.7,1.3-1.4,1.8-2.1c1.2-1.3,2.5-2.4,3.8-3.7c2.7-2.2,5.2-4.5,8.1-6.5
	C35.3,29.2,37.4,30,37.9,33.2z"/>
<path class="st0" d="M48.5,28l1.9,2.7c0,0-6,7.9-17.9,11l-0.8,2.4l2.6,0.6c0,0,12.8-3.9,17.6-13.9l2.5-3l-3.3-1L48.5,28z"/>
<path class="st0" d="M42.6,26.4l2.8-2.8l6.1,3l0.6-3.5l3.1,1.7l1,4.5L52,27.6l-3.7,3.7L42.6,26.4z"/>
<path class="st10" d="M42.6,26.4l2.8-2.8l6.1,3l0.6-3.5l3.1,1.7l1,4.5L52,27.6l-3.7,3.7L42.6,26.4z"/>
</svg>
