<?xml version="1.0" encoding="utf-8"?>
<!-- Generator: Adobe Illustrator 24.0.1, SVG Export Plug-In . SVG Version: 6.00 Build 0)  -->
<svg version="1.1" id="Слой_1" xmlns="http://www.w3.org/2000/svg" xmlns:xlink="http://www.w3.org/1999/xlink" x="0px" y="0px"
	 viewBox="0 0 407 305" style="enable-background:new 0 0 407 305;" xml:space="preserve">
<style type="text/css">
	.st0{fill:#EBEBEB;}
	.st1{fill:#E6E6E6;}
	.st2{fill:#F0F0F0;}
</style>
<path class="st0" d="M407,267.5H0v0.2h407V267.5z"/>
<path class="st0" d="M192.9,231.1H35.7c-1.2,0-2.4-0.5-3.3-1.4c-0.9-0.9-1.4-2.1-1.4-3.3V5.4c0-1.2,0.5-2.4,1.4-3.3
	c0.9-0.9,2-1.3,3.3-1.4h157.2c1.2,0,2.4,0.5,3.3,1.4c0.9,0.9,1.4,2.1,1.4,3.3v221c0,1.2-0.5,2.4-1.4,3.3S194.1,231.1,192.9,231.1z
	 M35.7,1c-1.2,0-2.3,0.5-3.1,1.3s-1.3,2-1.3,3.1v221c0,1.2,0.5,2.3,1.3,3.1s2,1.3,3.1,1.3h157.2c1.2,0,2.3-0.5,3.1-1.3
	s1.3-2,1.3-3.1V5.4c0-1.2-0.5-2.3-1.3-3.1S194,1,192.9,1C192.9,1,35.7,1,35.7,1z"/>
<path class="st0" d="M369,231.1H211.8c-1.2,0-2.4-0.5-3.3-1.4c-0.9-0.9-1.4-2.1-1.4-3.3V5.4c0-1.2,0.5-2.4,1.4-3.3s2-1.3,3.3-1.3
	H369c1.2,0,2.4,0.5,3.3,1.4s1.4,2,1.4,3.3v221c0,1.2-0.5,2.4-1.4,3.3C371.4,230.6,370.2,231.1,369,231.1z M211.8,1
	c-1.2,0-2.3,0.5-3.1,1.3s-1.3,2-1.3,3.1v221c0,1.2,0.5,2.3,1.3,3.1s2,1.3,3.1,1.3H369c1.2,0,2.3-0.5,3.1-1.3c0.8-0.8,1.3-2,1.3-3.1
	V5.4c0-1.2-0.5-2.3-1.3-3.1S370.1,1,369,1C369,1,211.8,1,211.8,1z"/>
<path class="st1" d="M45.9,267.3v-38.9h3.3v-18.5h4.9v-64.5h7v-8.3l15-7v-8.4h2.1v23.7h2.9v64.5H84V176h8v-17.5h2.2v51.4h6v-19.6
	h3.9v-5h9.1v-17.1h5v-12.1h6.2v-17.6h2.2v17.6h6.2v12.1h5v17.1h9.1v5h3.9v19.6h4.7v-24.5h9.1v-52.8h2.9v-5.8H187v5.8h4.2v38.3H208
	v3.7h6.2v2.9H208v15h17.5v-49.9h3.7V132h8.1V94.2h2.3v37.7h5.8v10.6h34.1V139h2.1v23.7h2.9v0.4h1.8v23.7h2.9v6.4h6.2v-17.5h2.2v41.6
	h2.5v-17.5h2.2v27.3h1.3v-19.6h3.9v-5h9.1v-17.1h5v-12.1h6.2v-17.6h2.2v17.6h6.2v12.1h5v17.1h9.2v5h4v19.1h0.7v0.4h2v40.2H45.9
	V267.3z"/>
<path class="st2" d="M260.5,144.8h-2.4v2.4h2.4V144.8z"/>
<path class="st2" d="M260.5,148.8h-2.4v2.4h2.4V148.8z"/>
<path class="st2" d="M260.5,164.6h-2.4v2.4h2.4V164.6z"/>
<path class="st2" d="M260.5,168.5h-2.4v2.4h2.4V168.5z"/>
<path class="st2" d="M260.5,172.5h-2.4v2.4h2.4V172.5z"/>
<path class="st2" d="M260.5,184.3h-2.4v2.4h2.4V184.3z"/>
<path class="st2" d="M260.5,188.3h-2.4v2.4h2.4V188.3z"/>
<path class="st2" d="M256.8,160.6h-2.4v2.4h2.4V160.6z"/>
<path class="st2" d="M256.8,164.6h-2.4v2.4h2.4V164.6z"/>
<path class="st2" d="M256.8,168.5h-2.4v2.4h2.4V168.5z"/>
<path class="st2" d="M256.8,172.5h-2.4v2.4h2.4V172.5z"/>
<path class="st2" d="M256.8,176.4h-2.4v2.4h2.4V176.4z"/>
<path class="st2" d="M256.8,184.3h-2.4v2.4h2.4V184.3z"/>
<path class="st2" d="M256.8,188.3h-2.4v2.4h2.4V188.3z"/>
<path class="st2" d="M253,144.8h-2.4v2.4h2.4V144.8z"/>
<path class="st2" d="M253,148.8h-2.4v2.4h2.4V148.8z"/>
<path class="st2" d="M253,152.7h-2.4v2.4h2.4V152.7z"/>
<path class="st2" d="M253,156.7h-2.4v2.4h2.4V156.7z"/>
<path class="st2" d="M253,160.6h-2.4v2.4h2.4V160.6z"/>
<path class="st2" d="M253,164.6h-2.4v2.4h2.4V164.6z"/>
<path class="st2" d="M253,168.5h-2.4v2.4h2.4V168.5z"/>
<path class="st2" d="M253,172.5h-2.4v2.4h2.4V172.5z"/>
<path class="st2" d="M253,176.4h-2.4v2.4h2.4V176.4z"/>
<path class="st2" d="M253,180.4h-2.4v2.4h2.4V180.4z"/>
<path class="st2" d="M253,188.3h-2.4v2.4h2.4V188.3z"/>
<path class="st2" d="M249.3,144.8h-2.4v2.4h2.4V144.8z"/>
<path class="st2" d="M249.3,148.8h-2.4v2.4h2.4V148.8z"/>
<path class="st2" d="M249.3,152.7h-2.4v2.4h2.4V152.7z"/>
<path class="st2" d="M249.3,156.7h-2.4v2.4h2.4V156.7z"/>
<path class="st2" d="M249.3,160.6h-2.4v2.4h2.4V160.6z"/>
<path class="st2" d="M249.3,164.6h-2.4v2.4h2.4V164.6z"/>
<path class="st2" d="M249.3,168.5h-2.4v2.4h2.4V168.5z"/>
<path class="st2" d="M249.3,204.1h-2.4v2.4h2.4V204.1z"/>
<path class="st2" d="M245.5,144.8h-2.4v2.4h2.4V144.8z"/>
<path class="st2" d="M245.5,148.8h-2.4v2.4h2.4V148.8z"/>
<path class="st2" d="M245.5,152.7h-2.4v2.4h2.4V152.7z"/>
<path class="st2" d="M245.5,156.7h-2.4v2.4h2.4V156.7z"/>
<path class="st2" d="M245.5,160.6h-2.4v2.4h2.4V160.6z"/>
<path class="st2" d="M245.5,164.6h-2.4v2.4h2.4V164.6z"/>
<path class="st2" d="M245.5,168.5h-2.4v2.4h2.4V168.5z"/>
<path class="st2" d="M245.5,172.5h-2.4v2.4h2.4V172.5z"/>
<path class="st2" d="M245.5,196.2h-2.4v2.4h2.4V196.2z"/>
<path class="st2" d="M245.5,200.1h-2.4v2.4h2.4V200.1z"/>
<path class="st2" d="M245.5,204.1h-2.4v2.4h2.4V204.1z"/>
<path class="st2" d="M245.5,208h-2.4v2.4h2.4V208z"/>
<path class="st2" d="M245.5,223.8h-2.4v2.4h2.4V223.8z"/>
<path class="st2" d="M241.8,144.8h-2.4v2.4h2.4V144.8z"/>
<path class="st2" d="M241.8,148.8h-2.4v2.4h2.4V148.8z"/>
<path class="st2" d="M241.8,152.7h-2.4v2.4h2.4V152.7z"/>
<path class="st2" d="M241.8,156.7h-2.4v2.4h2.4V156.7z"/>
<path class="st2" d="M241.8,160.6h-2.4v2.4h2.4V160.6z"/>
<path class="st2" d="M241.8,164.6h-2.4v2.4h2.4V164.6z"/>
<path class="st2" d="M241.8,168.5h-2.4v2.4h2.4V168.5z"/>
<path class="st2" d="M241.8,172.5h-2.4v2.4h2.4V172.5z"/>
<path class="st2" d="M241.8,176.4h-2.4v2.4h2.4V176.4z"/>
<path class="st2" d="M241.8,180.4h-2.4v2.4h2.4V180.4z"/>
<path class="st2" d="M241.8,192.2h-2.4v2.4h2.4V192.2z"/>
<path class="st2" d="M241.8,196.2h-2.4v2.4h2.4V196.2z"/>
<path class="st2" d="M241.8,200.1h-2.4v2.4h2.4V200.1z"/>
<path class="st2" d="M241.8,204.1h-2.4v2.4h2.4V204.1z"/>
<path class="st2" d="M241.8,208h-2.4v2.4h2.4V208z"/>
<path class="st2" d="M241.8,223.8h-2.4v2.4h2.4V223.8z"/>
<path class="st2" d="M238,144.8h-2.4v2.4h2.4V144.8z"/>
<path class="st2" d="M238,148.8h-2.4v2.4h2.4V148.8z"/>
<path class="st2" d="M238,152.7h-2.4v2.4h2.4V152.7z"/>
<path class="st2" d="M238,156.7h-2.4v2.4h2.4V156.7z"/>
<path class="st2" d="M238,160.6h-2.4v2.4h2.4V160.6z"/>
<path class="st2" d="M238,164.6h-2.4v2.4h2.4V164.6z"/>
<path class="st2" d="M238,168.5h-2.4v2.4h2.4V168.5z"/>
<path class="st2" d="M238,172.5h-2.4v2.4h2.4V172.5z"/>
<path class="st2" d="M238,176.4h-2.4v2.4h2.4V176.4z"/>
<path class="st2" d="M238,180.4h-2.4v2.4h2.4V180.4z"/>
<path class="st2" d="M238,184.3h-2.4v2.4h2.4V184.3z"/>
<path class="st2" d="M238,188.3h-2.4v2.4h2.4V188.3z"/>
<path class="st2" d="M238,192.2h-2.4v2.4h2.4V192.2z"/>
<path class="st2" d="M238,196.2h-2.4v2.4h2.4V196.2z"/>
<path class="st2" d="M238,200.1h-2.4v2.4h2.4V200.1z"/>
<path class="st2" d="M238,204.1h-2.4v2.4h2.4V204.1z"/>
<path class="st2" d="M238,208h-2.4v2.4h2.4V208z"/>
<path class="st2" d="M238,212h-2.4v2.4h2.4V212z"/>
<path class="st2" d="M234.3,144.8h-2.4v2.4h2.4V144.8z"/>
<path class="st2" d="M234.3,148.8h-2.4v2.4h2.4V148.8z"/>
<path class="st2" d="M234.3,152.7h-2.4v2.4h2.4V152.7z"/>
<path class="st2" d="M234.3,156.7h-2.4v2.4h2.4V156.7z"/>
<path class="st2" d="M234.3,160.6h-2.4v2.4h2.4V160.6z"/>
<path class="st2" d="M234.3,164.6h-2.4v2.4h2.4V164.6z"/>
<path class="st2" d="M234.3,168.5h-2.4v2.4h2.4V168.5z"/>
<path class="st2" d="M234.3,172.5h-2.4v2.4h2.4V172.5z"/>
<path class="st2" d="M234.3,176.4h-2.4v2.4h2.4V176.4z"/>
<path class="st2" d="M234.3,180.4h-2.4v2.4h2.4V180.4z"/>
<path class="st2" d="M234.3,192.2h-2.4v2.4h2.4V192.2z"/>
<path class="st2" d="M234.3,196.2h-2.4v2.4h2.4V196.2z"/>
<path class="st2" d="M234.3,200.1h-2.4v2.4h2.4V200.1z"/>
<path class="st2" d="M234.3,204.1h-2.4v2.4h2.4V204.1z"/>
<path class="st2" d="M230.6,144.8h-2.4v2.4h2.4V144.8z"/>
<path class="st2" d="M230.6,148.8h-2.4v2.4h2.4V148.8z"/>
<path class="st2" d="M230.6,152.7h-2.4v2.4h2.4V152.7z"/>
<path class="st2" d="M230.6,156.7h-2.4v2.4h2.4V156.7z"/>
<path class="st2" d="M230.6,160.6h-2.4v2.4h2.4V160.6z"/>
<path class="st2" d="M230.6,164.6h-2.4v2.4h2.4V164.6z"/>
<path class="st2" d="M230.6,168.5h-2.4v2.4h2.4V168.5z"/>
<path class="st2" d="M230.6,172.5h-2.4v2.4h2.4V172.5z"/>
<path class="st2" d="M230.6,176.4h-2.4v2.4h2.4V176.4z"/>
<path class="st2" d="M230.6,180.4h-2.4v2.4h2.4V180.4z"/>
<path class="st2" d="M230.6,192.2h-2.4v2.4h2.4V192.2z"/>
<path class="st2" d="M230.6,196.2h-2.4v2.4h2.4V196.2z"/>
<path class="st2" d="M230.6,200.1h-2.4v2.4h2.4V200.1z"/>
<path class="st2" d="M188.4,134.5H186v2.4h2.4V134.5z"/>
<path class="st2" d="M188.4,138.5H186v2.4h2.4V138.5z"/>
<path class="st2" d="M188.4,142.4H186v2.4h2.4V142.4z"/>
<path class="st2" d="M188.4,146.4H186v2.4h2.4V146.4z"/>
<path class="st2" d="M188.4,150.4H186v2.4h2.4V150.4z"/>
<path class="st2" d="M188.4,154.3H186v2.4h2.4V154.3z"/>
<path class="st2" d="M188.4,158.3H186v2.4h2.4V158.3z"/>
<path class="st2" d="M188.4,162.2H186v2.4h2.4V162.2z"/>
<path class="st2" d="M188.4,174.1H186v2.4h2.4V174.1z"/>
<path class="st2" d="M188.4,178H186v2.4h2.4V178z"/>
<path class="st2" d="M184.7,134.5h-2.4v2.4h2.4V134.5z"/>
<path class="st2" d="M184.7,138.5h-2.4v2.4h2.4V138.5z"/>
<path class="st2" d="M184.7,142.4h-2.4v2.4h2.4V142.4z"/>
<path class="st2" d="M184.7,146.4h-2.4v2.4h2.4V146.4z"/>
<path class="st2" d="M184.7,150.4h-2.4v2.4h2.4V150.4z"/>
<path class="st2" d="M184.7,154.3h-2.4v2.4h2.4V154.3z"/>
<path class="st2" d="M184.7,158.3h-2.4v2.4h2.4V158.3z"/>
<path class="st2" d="M184.7,162.2h-2.4v2.4h2.4V162.2z"/>
<path class="st2" d="M184.7,178h-2.4v2.4h2.4V178z"/>
<path class="st2" d="M180.9,134.5h-2.4v2.4h2.4V134.5z"/>
<path class="st2" d="M180.9,138.5h-2.4v2.4h2.4V138.5z"/>
<path class="st2" d="M180.9,142.4h-2.4v2.4h2.4V142.4z"/>
<path class="st2" d="M180.9,146.4h-2.4v2.4h2.4V146.4z"/>
<path class="st2" d="M180.9,150.4h-2.4v2.4h2.4V150.4z"/>
<path class="st2" d="M180.9,154.3h-2.4v2.4h2.4V154.3z"/>
<path class="st2" d="M180.9,158.3h-2.4v2.4h2.4V158.3z"/>
<path class="st2" d="M180.9,162.2h-2.4v2.4h2.4V162.2z"/>
<path class="st2" d="M177.2,134.5h-2.4v2.4h2.4V134.5z"/>
<path class="st2" d="M177.2,138.5h-2.4v2.4h2.4V138.5z"/>
<path class="st2" d="M177.2,142.4h-2.4v2.4h2.4V142.4z"/>
<path class="st2" d="M177.2,146.4h-2.4v2.4h2.4V146.4z"/>
<path class="st2" d="M177.2,150.4h-2.4v2.4h2.4V150.4z"/>
<path class="st2" d="M177.2,154.3h-2.4v2.4h2.4V154.3z"/>
<path class="st2" d="M177.2,162.2h-2.4v2.4h2.4V162.2z"/>
<path class="st2" d="M177.2,166.2h-2.4v2.4h2.4V166.2z"/>
<path class="st2" d="M177.2,178h-2.4v2.4h2.4V178z"/>
<path class="st2" d="M177.2,182h-2.4v2.4h2.4V182z"/>
<path class="st2" d="M177.2,185.9h-2.4v2.4h2.4V185.9z"/>
<path class="st2" d="M177.2,189.9h-2.4v2.4h2.4V189.9z"/>
<path class="st2" d="M177.2,193.8h-2.4v2.4h2.4V193.8z"/>
<path class="st2" d="M177.2,197.8h-2.4v2.4h2.4V197.8z"/>
<path class="st2" d="M177.2,201.7h-2.4v2.4h2.4V201.7z"/>
<path class="st2" d="M173.4,134.5H171v2.4h2.4V134.5z"/>
<path class="st2" d="M173.4,138.5H171v2.4h2.4V138.5z"/>
<path class="st2" d="M173.4,142.4H171v2.4h2.4V142.4z"/>
<path class="st2" d="M173.4,146.4H171v2.4h2.4V146.4z"/>
<path class="st2" d="M173.4,150.4H171v2.4h2.4V150.4z"/>
<path class="st2" d="M173.4,154.3H171v2.4h2.4V154.3z"/>
<path class="st2" d="M173.4,166.2H171v2.4h2.4V166.2z"/>
<path class="st2" d="M173.4,170.1H171v2.4h2.4V170.1z"/>
<path class="st2" d="M173.4,174.1H171v2.4h2.4V174.1z"/>
<path class="st2" d="M173.4,178H171v2.4h2.4V178z"/>
<path class="st2" d="M173.4,182H171v2.4h2.4V182z"/>
<path class="st2" d="M173.4,185.9H171v2.4h2.4V185.9z"/>
<path class="st2" d="M173.4,189.9H171v2.4h2.4V189.9z"/>
<path class="st2" d="M173.4,193.8H171v2.4h2.4V193.8z"/>
<path class="st2" d="M173.4,197.8H171v2.4h2.4V197.8z"/>
<path class="st2" d="M173.4,201.7H171v2.4h2.4V201.7z"/>
<path class="st2" d="M173.4,205.7H171v2.4h2.4V205.7z"/>
<path class="st2" d="M173.4,213.6H171v2.4h2.4V213.6z"/>
<path class="st2" d="M169.7,134.5h-2.4v2.4h2.4V134.5z"/>
<path class="st2" d="M169.7,138.5h-2.4v2.4h2.4V138.5z"/>
<path class="st2" d="M169.7,142.4h-2.4v2.4h2.4V142.4z"/>
<path class="st2" d="M169.7,146.4h-2.4v2.4h2.4V146.4z"/>
<path class="st2" d="M169.7,150.4h-2.4v2.4h2.4V150.4z"/>
<path class="st2" d="M169.7,154.3h-2.4v2.4h2.4V154.3z"/>
<path class="st2" d="M169.7,166.2h-2.4v2.4h2.4V166.2z"/>
<path class="st2" d="M169.7,170.1h-2.4v2.4h2.4V170.1z"/>
<path class="st2" d="M169.7,174.1h-2.4v2.4h2.4V174.1z"/>
<path class="st2" d="M169.7,178h-2.4v2.4h2.4V178z"/>
<path class="st2" d="M169.7,189.9h-2.4v2.4h2.4V189.9z"/>
<path class="st2" d="M169.7,193.8h-2.4v2.4h2.4V193.8z"/>
<path class="st2" d="M169.7,197.8h-2.4v2.4h2.4V197.8z"/>
<path class="st2" d="M169.7,201.7h-2.4v2.4h2.4V201.7z"/>
<path class="st2" d="M169.7,205.7h-2.4v2.4h2.4V205.7z"/>
<path class="st2" d="M169.7,213.6h-2.4v2.4h2.4V213.6z"/>
<path class="st2" d="M169.7,217.5h-2.4v2.4h2.4V217.5z"/>
<path class="st2" d="M135.7,171.3h-2.4v2.4h2.4V171.3z"/>
<path class="st2" d="M135.7,175.2h-2.4v2.4h2.4V175.2z"/>
<path class="st2" d="M135.7,179.2h-2.4v2.4h2.4V179.2z"/>
<path class="st2" d="M135.7,183.1h-2.4v2.4h2.4V183.1z"/>
<path class="st2" d="M135.7,187.1h-2.4v2.4h2.4V187.1z"/>
<path class="st2" d="M135.7,191.1h-2.4v2.4h2.4V191.1z"/>
<path class="st2" d="M135.7,195h-2.4v2.4h2.4V195z"/>
<path class="st2" d="M135.7,206.9h-2.4v2.4h2.4V206.9z"/>
<path class="st2" d="M135.7,210.8h-2.4v2.4h2.4V210.8z"/>
<path class="st2" d="M135.7,214.8h-2.4v2.4h2.4V214.8z"/>
<path class="st2" d="M132,171.3h-2.4v2.4h2.4V171.3z"/>
<path class="st2" d="M132,175.2h-2.4v2.4h2.4V175.2z"/>
<path class="st2" d="M132,179.2h-2.4v2.4h2.4V179.2z"/>
<path class="st2" d="M132,183.1h-2.4v2.4h2.4V183.1z"/>
<path class="st2" d="M132,187.1h-2.4v2.4h2.4V187.1z"/>
<path class="st2" d="M132,191.1h-2.4v2.4h2.4V191.1z"/>
<path class="st2" d="M132,195h-2.4v2.4h2.4V195z"/>
<path class="st2" d="M128.3,171.3h-2.4v2.4h2.4V171.3z"/>
<path class="st2" d="M128.3,175.2h-2.4v2.4h2.4V175.2z"/>
<path class="st2" d="M128.3,179.2h-2.4v2.4h2.4V179.2z"/>
<path class="st2" d="M128.3,183.1h-2.4v2.4h2.4V183.1z"/>
<path class="st2" d="M128.3,187.1h-2.4v2.4h2.4V187.1z"/>
<path class="st2" d="M128.3,191.1h-2.4v2.4h2.4V191.1z"/>
<path class="st2" d="M128.3,195h-2.4v2.4h2.4V195z"/>
<path class="st2" d="M124.5,171.3h-2.4v2.4h2.4V171.3z"/>
<path class="st2" d="M124.5,175.2h-2.4v2.4h2.4V175.2z"/>
<path class="st2" d="M124.5,179.2h-2.4v2.4h2.4V179.2z"/>
<path class="st2" d="M124.5,183.1h-2.4v2.4h2.4V183.1z"/>
<path class="st2" d="M124.5,187.1h-2.4v2.4h2.4V187.1z"/>
<path class="st2" d="M124.5,191.1h-2.4v2.4h2.4V191.1z"/>
<path class="st2" d="M124.5,195h-2.4v2.4h2.4V195z"/>
<path class="st2" d="M124.5,199h-2.4v2.4h2.4V199z"/>
<path class="st2" d="M124.5,202.9h-2.4v2.4h2.4V202.9z"/>
<path class="st2" d="M124.5,206.9h-2.4v2.4h2.4V206.9z"/>
<path class="st2" d="M124.5,210.8h-2.4v2.4h2.4V210.8z"/>
<path class="st2" d="M120.8,171.3h-2.4v2.4h2.4V171.3z"/>
<path class="st2" d="M120.8,175.2h-2.4v2.4h2.4V175.2z"/>
<path class="st2" d="M120.8,179.2h-2.4v2.4h2.4V179.2z"/>
<path class="st2" d="M120.8,183.1h-2.4v2.4h2.4V183.1z"/>
<path class="st2" d="M120.8,187.1h-2.4v2.4h2.4V187.1z"/>
<path class="st2" d="M120.8,191.1h-2.4v2.4h2.4V191.1z"/>
<path class="st2" d="M120.8,195h-2.4v2.4h2.4V195z"/>
<path class="st2" d="M120.8,199h-2.4v2.4h2.4V199z"/>
<path class="st2" d="M120.8,202.9h-2.4v2.4h2.4V202.9z"/>
<path class="st2" d="M120.8,206.9h-2.4v2.4h2.4V206.9z"/>
<path class="st2" d="M120.8,210.8h-2.4v2.4h2.4V210.8z"/>
<path class="st2" d="M120.8,214.8h-2.4v2.4h2.4V214.8z"/>
<path class="st2" d="M120.8,226.6h-2.4v2.4h2.4V226.6z"/>
<path class="st2" d="M120.8,230.6h-2.4v2.4h2.4V230.6z"/>
<path class="st2" d="M117,171.3h-2.4v2.4h2.4V171.3z"/>
<path class="st2" d="M117,175.2h-2.4v2.4h2.4V175.2z"/>
<path class="st2" d="M117,179.2h-2.4v2.4h2.4V179.2z"/>
<path class="st2" d="M117,191.1h-2.4v2.4h2.4V191.1z"/>
<path class="st2" d="M117,195h-2.4v2.4h2.4V195z"/>
<path class="st2" d="M117,199h-2.4v2.4h2.4V199z"/>
<path class="st2" d="M117,202.9h-2.4v2.4h2.4V202.9z"/>
<path class="st2" d="M117,206.9h-2.4v2.4h2.4V206.9z"/>
<path class="st2" d="M117,210.8h-2.4v2.4h2.4V210.8z"/>
<path class="st2" d="M117,214.8h-2.4v2.4h2.4V214.8z"/>
<path class="st2" d="M117,226.6h-2.4v2.4h2.4V226.6z"/>
<path class="st2" d="M117,230.6h-2.4v2.4h2.4V230.6z"/>
<path class="st2" d="M117,234.5h-2.4v2.4h2.4V234.5z"/>
<path class="st2" d="M77.8,147.6h-2.4v2.4h2.4V147.6z"/>
<path class="st2" d="M77.8,151.5h-2.4v2.4h2.4V151.5z"/>
<path class="st2" d="M77.8,155.5h-2.4v2.4h2.4V155.5z"/>
<path class="st2" d="M77.8,159.4h-2.4v2.4h2.4V159.4z"/>
<path class="st2" d="M77.8,163.4h-2.4v2.4h2.4V163.4z"/>
<path class="st2" d="M77.8,167.3h-2.4v2.4h2.4V167.3z"/>
<path class="st2" d="M77.8,171.3h-2.4v2.4h2.4V171.3z"/>
<path class="st2" d="M77.8,175.2h-2.4v2.4h2.4V175.2z"/>
<path class="st2" d="M77.8,179.2h-2.4v2.4h2.4V179.2z"/>
<path class="st2" d="M77.8,183.1h-2.4v2.4h2.4V183.1z"/>
<path class="st2" d="M77.8,187.1h-2.4v2.4h2.4V187.1z"/>
<path class="st2" d="M77.8,191.1h-2.4v2.4h2.4V191.1z"/>
<path class="st2" d="M77.8,195h-2.4v2.4h2.4V195z"/>
<path class="st2" d="M77.8,199h-2.4v2.4h2.4V199z"/>
<path class="st2" d="M77.8,202.9h-2.4v2.4h2.4V202.9z"/>
<path class="st2" d="M77.8,206.9h-2.4v2.4h2.4V206.9z"/>
<path class="st2" d="M77.8,210.8h-2.4v2.4h2.4V210.8z"/>
<path class="st2" d="M77.8,214.8h-2.4v2.4h2.4V214.8z"/>
<path class="st2" d="M77.8,218.7h-2.4v2.4h2.4V218.7z"/>
<path class="st2" d="M77.8,222.7h-2.4v2.4h2.4V222.7z"/>
<path class="st2" d="M77.8,226.6h-2.4v2.4h2.4V226.6z"/>
<path class="st2" d="M77.8,230.6h-2.4v2.4h2.4V230.6z"/>
<path class="st2" d="M77.8,234.5h-2.4v2.4h2.4V234.5z"/>
<path class="st2" d="M74.1,147.6h-2.4v2.4h2.4V147.6z"/>
<path class="st2" d="M74.1,151.5h-2.4v2.4h2.4V151.5z"/>
<path class="st2" d="M74.1,155.5h-2.4v2.4h2.4V155.5z"/>
<path class="st2" d="M74.1,159.4h-2.4v2.4h2.4V159.4z"/>
<path class="st2" d="M74.1,163.4h-2.4v2.4h2.4V163.4z"/>
<path class="st2" d="M74.1,167.3h-2.4v2.4h2.4V167.3z"/>
<path class="st2" d="M74.1,171.3h-2.4v2.4h2.4V171.3z"/>
<path class="st2" d="M74.1,175.2h-2.4v2.4h2.4V175.2z"/>
<path class="st2" d="M74.1,179.2h-2.4v2.4h2.4V179.2z"/>
<path class="st2" d="M74.1,183.1h-2.4v2.4h2.4V183.1z"/>
<path class="st2" d="M74.1,187.1h-2.4v2.4h2.4V187.1z"/>
<path class="st2" d="M74.1,191.1h-2.4v2.4h2.4V191.1z"/>
<path class="st2" d="M74.1,195h-2.4v2.4h2.4V195z"/>
<path class="st2" d="M74.1,199h-2.4v2.4h2.4V199z"/>
<path class="st2" d="M74.1,202.9h-2.4v2.4h2.4V202.9z"/>
<path class="st2" d="M74.1,206.9h-2.4v2.4h2.4V206.9z"/>
<path class="st2" d="M74.1,210.8h-2.4v2.4h2.4V210.8z"/>
<path class="st2" d="M74.1,214.8h-2.4v2.4h2.4V214.8z"/>
<path class="st2" d="M74.1,218.7h-2.4v2.4h2.4V218.7z"/>
<path class="st2" d="M70.3,147.6H68v2.4h2.4L70.3,147.6L70.3,147.6z"/>
<path class="st2" d="M70.3,151.5H68v2.4h2.4L70.3,151.5L70.3,151.5z"/>
<path class="st2" d="M70.3,155.5H68v2.4h2.4L70.3,155.5L70.3,155.5z"/>
<path class="st2" d="M70.3,159.4H68v2.4h2.4L70.3,159.4L70.3,159.4z"/>
<path class="st2" d="M70.3,163.4H68v2.4h2.4L70.3,163.4L70.3,163.4z"/>
<path class="st2" d="M70.3,167.3H68v2.4h2.4L70.3,167.3L70.3,167.3z"/>
<path class="st2" d="M70.3,171.3H68v2.4h2.4L70.3,171.3L70.3,171.3z"/>
<path class="st2" d="M70.3,175.2H68v2.4h2.4L70.3,175.2L70.3,175.2z"/>
<path class="st2" d="M70.3,179.2H68v2.4h2.4L70.3,179.2L70.3,179.2z"/>
<path class="st2" d="M70.3,183.1H68v2.4h2.4L70.3,183.1L70.3,183.1z"/>
<path class="st2" d="M70.3,187.1H68v2.4h2.4L70.3,187.1L70.3,187.1z"/>
<path class="st2" d="M70.3,191.1H68v2.4h2.4L70.3,191.1L70.3,191.1z"/>
<path class="st2" d="M70.3,195H68v2.4h2.4L70.3,195L70.3,195z"/>
<path class="st2" d="M70.3,199H68v2.4h2.4L70.3,199L70.3,199z"/>
<path class="st2" d="M70.3,202.9H68v2.4h2.4L70.3,202.9L70.3,202.9z"/>
<path class="st2" d="M70.3,206.9H68v2.4h2.4L70.3,206.9L70.3,206.9z"/>
<path class="st2" d="M70.3,210.8H68v2.4h2.4L70.3,210.8L70.3,210.8z"/>
<path class="st2" d="M70.3,214.8H68v2.4h2.4L70.3,214.8L70.3,214.8z"/>
<path class="st2" d="M70.3,218.7H68v2.4h2.4L70.3,218.7L70.3,218.7z"/>
<path class="st2" d="M66.6,147.6h-2.4v2.4h2.4V147.6z"/>
<path class="st2" d="M66.6,151.5h-2.4v2.4h2.4V151.5z"/>
<path class="st2" d="M66.6,155.5h-2.4v2.4h2.4V155.5z"/>
<path class="st2" d="M66.6,159.4h-2.4v2.4h2.4V159.4z"/>
<path class="st2" d="M66.6,163.4h-2.4v2.4h2.4V163.4z"/>
<path class="st2" d="M66.6,167.3h-2.4v2.4h2.4V167.3z"/>
<path class="st2" d="M66.6,171.3h-2.4v2.4h2.4V171.3z"/>
<path class="st2" d="M66.6,175.2h-2.4v2.4h2.4V175.2z"/>
<path class="st2" d="M66.6,179.2h-2.4v2.4h2.4V179.2z"/>
<path class="st2" d="M66.6,183.1h-2.4v2.4h2.4V183.1z"/>
<path class="st2" d="M66.6,187.1h-2.4v2.4h2.4V187.1z"/>
<path class="st2" d="M66.6,191.1h-2.4v2.4h2.4V191.1z"/>
<path class="st2" d="M66.6,195h-2.4v2.4h2.4V195z"/>
<path class="st2" d="M66.6,199h-2.4v2.4h2.4V199z"/>
<path class="st2" d="M66.6,202.9h-2.4v2.4h2.4V202.9z"/>
<path class="st2" d="M62.8,147.6h-2.4v2.4h2.4V147.6z"/>
<path class="st2" d="M62.8,151.5h-2.4v2.4h2.4V151.5z"/>
<path class="st2" d="M62.8,155.5h-2.4v2.4h2.4V155.5z"/>
<path class="st2" d="M62.8,159.4h-2.4v2.4h2.4V159.4z"/>
<path class="st2" d="M62.8,163.4h-2.4v2.4h2.4V163.4z"/>
<path class="st2" d="M62.8,167.3h-2.4v2.4h2.4V167.3z"/>
<path class="st2" d="M62.8,171.3h-2.4v2.4h2.4V171.3z"/>
<path class="st2" d="M62.8,175.2h-2.4v2.4h2.4V175.2z"/>
<path class="st2" d="M62.8,179.2h-2.4v2.4h2.4V179.2z"/>
<path class="st2" d="M62.8,183.1h-2.4v2.4h2.4V183.1z"/>
<path class="st2" d="M62.8,187.1h-2.4v2.4h2.4V187.1z"/>
<path class="st2" d="M62.8,191.1h-2.4v2.4h2.4V191.1z"/>
<path class="st2" d="M62.8,195h-2.4v2.4h2.4V195z"/>
<path class="st2" d="M59.1,147.6h-2.4v2.4h2.4V147.6z"/>
<path class="st2" d="M59.1,151.5h-2.4v2.4h2.4V151.5z"/>
<path class="st2" d="M59.1,155.5h-2.4v2.4h2.4V155.5z"/>
<path class="st2" d="M59.1,159.4h-2.4v2.4h2.4V159.4z"/>
<path class="st2" d="M59.1,163.4h-2.4v2.4h2.4V163.4z"/>
<path class="st2" d="M59.1,167.3h-2.4v2.4h2.4V167.3z"/>
<path class="st2" d="M59.1,171.3h-2.4v2.4h2.4V171.3z"/>
<path class="st2" d="M59.1,175.2h-2.4v2.4h2.4V175.2z"/>
<path class="st2" d="M59.1,179.2h-2.4v2.4h2.4V179.2z"/>
<path class="st2" d="M59.1,183.1h-2.4v2.4h2.4V183.1z"/>
<path class="st2" d="M59.1,187.1h-2.4v2.4h2.4V187.1z"/>
<path class="st2" d="M59.1,191.1h-2.4v2.4h2.4V191.1z"/>
<path class="st2" d="M334.1,176.4h-2.4v2.4h2.4V176.4z"/>
<path class="st2" d="M334.1,180.4h-2.4v2.4h2.4V180.4z"/>
<path class="st2" d="M334.1,184.3h-2.4v2.4h2.4V184.3z"/>
<path class="st2" d="M334.1,188.3h-2.4v2.4h2.4V188.3z"/>
<path class="st2" d="M334.1,192.2h-2.4v2.4h2.4V192.2z"/>
<path class="st2" d="M334.1,196.2h-2.4v2.4h2.4V196.2z"/>
<path class="st2" d="M334.1,200.1h-2.4v2.4h2.4V200.1z"/>
<path class="st2" d="M334.1,204.1h-2.4v2.4h2.4V204.1z"/>
<path class="st2" d="M334.1,208h-2.4v2.4h2.4V208z"/>
<path class="st2" d="M334.1,212h-2.4v2.4h2.4V212z"/>
<path class="st2" d="M334.1,215.9h-2.4v2.4h2.4V215.9z"/>
<path class="st2" d="M334.1,219.9h-2.4v2.4h2.4V219.9z"/>
<path class="st2" d="M334.1,223.8h-2.4v2.4h2.4V223.8z"/>
<path class="st2" d="M334.1,227.8h-2.4v2.4h2.4V227.8z"/>
<path class="st2" d="M334.1,231.7h-2.4v2.4h2.4V231.7z"/>
<path class="st2" d="M334.1,235.7h-2.4v2.4h2.4V235.7z"/>
<path class="st2" d="M334.1,239.7h-2.4v2.4h2.4V239.7z"/>
<path class="st2" d="M334.1,243.6h-2.4v2.4h2.4V243.6z"/>
<path class="st2" d="M334.1,247.6h-2.4v2.4h2.4V247.6z"/>
<path class="st2" d="M334.1,251.5h-2.4v2.4h2.4V251.5z"/>
<path class="st2" d="M330.4,176.4H328v2.4h2.4V176.4z"/>
<path class="st2" d="M330.4,180.4H328v2.4h2.4V180.4z"/>
<path class="st2" d="M330.4,184.3H328v2.4h2.4V184.3z"/>
<path class="st2" d="M330.4,188.3H328v2.4h2.4V188.3z"/>
<path class="st2" d="M330.4,192.2H328v2.4h2.4V192.2z"/>
<path class="st2" d="M330.4,196.2H328v2.4h2.4V196.2z"/>
<path class="st2" d="M330.4,200.1H328v2.4h2.4V200.1z"/>
<path class="st2" d="M330.4,204.1H328v2.4h2.4V204.1z"/>
<path class="st2" d="M330.4,208H328v2.4h2.4V208z"/>
<path class="st2" d="M330.4,212H328v2.4h2.4V212z"/>
<path class="st2" d="M330.4,215.9H328v2.4h2.4V215.9z"/>
<path class="st2" d="M330.4,219.9H328v2.4h2.4V219.9z"/>
<path class="st2" d="M330.4,223.8H328v2.4h2.4V223.8z"/>
<path class="st2" d="M330.4,227.8H328v2.4h2.4V227.8z"/>
<path class="st2" d="M330.4,231.7H328v2.4h2.4V231.7z"/>
<path class="st2" d="M330.4,235.7H328v2.4h2.4V235.7z"/>
<path class="st2" d="M330.4,239.7H328v2.4h2.4V239.7z"/>
<path class="st2" d="M330.4,243.6H328v2.4h2.4V243.6z"/>
<path class="st2" d="M326.6,176.4h-2.4v2.4h2.4V176.4z"/>
<path class="st2" d="M326.6,180.4h-2.4v2.4h2.4V180.4z"/>
<path class="st2" d="M326.6,184.3h-2.4v2.4h2.4V184.3z"/>
<path class="st2" d="M326.6,188.3h-2.4v2.4h2.4V188.3z"/>
<path class="st2" d="M326.6,192.2h-2.4v2.4h2.4V192.2z"/>
<path class="st2" d="M326.6,196.2h-2.4v2.4h2.4V196.2z"/>
<path class="st2" d="M326.6,200.1h-2.4v2.4h2.4V200.1z"/>
<path class="st2" d="M326.6,204.1h-2.4v2.4h2.4V204.1z"/>
<path class="st2" d="M326.6,208h-2.4v2.4h2.4V208z"/>
<path class="st2" d="M326.6,212h-2.4v2.4h2.4V212z"/>
<path class="st2" d="M326.6,215.9h-2.4v2.4h2.4V215.9z"/>
<path class="st2" d="M326.6,219.9h-2.4v2.4h2.4V219.9z"/>
<path class="st2" d="M326.6,223.8h-2.4v2.4h2.4V223.8z"/>
<path class="st2" d="M326.6,227.8h-2.4v2.4h2.4V227.8z"/>
<path class="st2" d="M326.6,231.7h-2.4v2.4h2.4V231.7z"/>
<path class="st2" d="M326.6,235.7h-2.4v2.4h2.4V235.7z"/>
<path class="st2" d="M326.6,239.7h-2.4v2.4h2.4V239.7z"/>
<path class="st2" d="M326.6,243.6h-2.4v2.4h2.4V243.6z"/>
<path class="st2" d="M348.1,205.3h-2.4v2.4h2.4V205.3z"/>
<path class="st2" d="M348.1,209.2h-2.4v2.4h2.4V209.2z"/>
<path class="st2" d="M348.1,213.2h-2.4v2.4h2.4V213.2z"/>
<path class="st2" d="M348.1,217.1h-2.4v2.4h2.4V217.1z"/>
<path class="st2" d="M348.1,221.1h-2.4v2.4h2.4V221.1z"/>
<path class="st2" d="M348.1,225h-2.4v2.4h2.4V225z"/>
<path class="st2" d="M348.1,229h-2.4v2.4h2.4V229z"/>
<path class="st2" d="M348.1,232.9h-2.4v2.4h2.4V232.9z"/>
<path class="st2" d="M348.1,236.9h-2.4v2.4h2.4V236.9z"/>
<path class="st2" d="M348.1,240.8h-2.4v2.4h2.4V240.8z"/>
<path class="st2" d="M348.1,244.8h-2.4v2.4h2.4V244.8z"/>
<path class="st2" d="M348.1,248.7h-2.4v2.4h2.4V248.7z"/>
<path class="st2" d="M348.1,252.7h-2.4v2.4h2.4V252.7z"/>
<path class="st2" d="M344.4,205.3H342v2.4h2.4V205.3z"/>
<path class="st2" d="M344.4,209.2H342v2.4h2.4V209.2z"/>
<path class="st2" d="M344.4,213.2H342v2.4h2.4V213.2z"/>
<path class="st2" d="M344.4,217.1H342v2.4h2.4V217.1z"/>
<path class="st2" d="M344.4,221.1H342v2.4h2.4V221.1z"/>
<path class="st2" d="M344.4,225H342v2.4h2.4V225z"/>
<path class="st2" d="M344.4,229H342v2.4h2.4V229z"/>
<path class="st2" d="M344.4,232.9H342v2.4h2.4V232.9z"/>
<path class="st2" d="M344.4,236.9H342v2.4h2.4V236.9z"/>
<path class="st2" d="M344.4,240.8H342v2.4h2.4V240.8z"/>
<path class="st2" d="M344.4,244.8H342v2.4h2.4V244.8z"/>
<path class="st2" d="M344.4,248.7H342v2.4h2.4V248.7z"/>
<path class="st2" d="M344.4,252.7H342v2.4h2.4V252.7z"/>
<path class="st2" d="M340.6,205.3h-2.4v2.4h2.4V205.3z"/>
<path class="st2" d="M340.6,209.2h-2.4v2.4h2.4V209.2z"/>
<path class="st2" d="M340.6,213.2h-2.4v2.4h2.4V213.2z"/>
<path class="st2" d="M340.6,217.1h-2.4v2.4h2.4V217.1z"/>
<path class="st2" d="M340.6,221.1h-2.4v2.4h2.4V221.1z"/>
<path class="st2" d="M340.6,225h-2.4v2.4h2.4V225z"/>
<path class="st2" d="M340.6,229h-2.4v2.4h2.4V229z"/>
<path class="st2" d="M340.6,232.9h-2.4v2.4h2.4V232.9z"/>
<path class="st2" d="M340.6,236.9h-2.4v2.4h2.4V236.9z"/>
<path class="st2" d="M340.6,240.8h-2.4v2.4h2.4V240.8z"/>
<path class="st2" d="M340.6,244.8h-2.4v2.4h2.4V244.8z"/>
<path class="st2" d="M340.6,248.7h-2.4v2.4h2.4V248.7z"/>
<path class="st2" d="M340.6,252.7h-2.4v2.4h2.4V252.7z"/>
<path class="st2" d="M340.6,256.6h-2.4v2.4h2.4V256.6z"/>
<path class="st2" d="M319.8,206.4h-2.4v2.4h2.4V206.4z"/>
<path class="st2" d="M319.8,210.4h-2.4v2.4h2.4V210.4z"/>
<path class="st2" d="M319.8,214.3h-2.4v2.4h2.4V214.3z"/>
<path class="st2" d="M319.8,218.3h-2.4v2.4h2.4V218.3z"/>
<path class="st2" d="M319.8,222.3h-2.4v2.4h2.4V222.3z"/>
<path class="st2" d="M319.8,226.2h-2.4v2.4h2.4V226.2z"/>
<path class="st2" d="M319.8,230.2h-2.4v2.4h2.4V230.2z"/>
<path class="st2" d="M319.8,234.1h-2.4v2.4h2.4V234.1z"/>
<path class="st2" d="M319.8,238.1h-2.4v2.4h2.4V238.1z"/>
<path class="st2" d="M319.8,242h-2.4v2.4h2.4V242z"/>
<path class="st2" d="M319.8,253.9h-2.4v2.4h2.4V253.9z"/>
<path class="st2" d="M316.1,206.4h-2.4v2.4h2.4V206.4z"/>
<path class="st2" d="M316.1,210.4h-2.4v2.4h2.4V210.4z"/>
<path class="st2" d="M316.1,214.3h-2.4v2.4h2.4V214.3z"/>
<path class="st2" d="M316.1,218.3h-2.4v2.4h2.4V218.3z"/>
<path class="st2" d="M316.1,222.3h-2.4v2.4h2.4V222.3z"/>
<path class="st2" d="M316.1,226.2h-2.4v2.4h2.4V226.2z"/>
<path class="st2" d="M316.1,230.2h-2.4v2.4h2.4V230.2z"/>
<path class="st2" d="M316.1,234.1h-2.4v2.4h2.4V234.1z"/>
<path class="st2" d="M316.1,238.1h-2.4v2.4h2.4V238.1z"/>
<path class="st2" d="M316.1,249.9h-2.4v2.4h2.4V249.9z"/>
<path class="st2" d="M316.1,253.9h-2.4v2.4h2.4V253.9z"/>
<path class="st2" d="M312.3,206.4H310v2.4h2.4v-2.4H312.3z"/>
<path class="st2" d="M312.3,210.4H310v2.4h2.4v-2.4H312.3z"/>
<path class="st2" d="M312.3,214.3H310v2.4h2.4v-2.4H312.3z"/>
<path class="st2" d="M312.3,218.3H310v2.4h2.4v-2.4H312.3z"/>
<path class="st2" d="M312.3,222.3H310v2.4h2.4v-2.4H312.3z"/>
<path class="st2" d="M312.3,226.2H310v2.4h2.4v-2.4H312.3z"/>
<path class="st2" d="M312.3,230.2H310v2.4h2.4v-2.4H312.3z"/>
<path class="st2" d="M312.3,234.1H310v2.4h2.4v-2.4H312.3z"/>
<path class="st2" d="M312.3,246H310v2.4h2.4V246H312.3z"/>
<path class="st2" d="M312.3,249.9H310v2.4h2.4v-2.4H312.3z"/>
<path class="st2" d="M312.3,253.9H310v2.4h2.4v-2.4H312.3z"/>
<path class="st2" d="M277.5,146.4h-2.4v2.4h2.4V146.4z"/>
<path class="st2" d="M277.5,150.4h-2.4v2.4h2.4V150.4z"/>
<path class="st2" d="M277.5,154.3h-2.4v2.4h2.4V154.3z"/>
<path class="st2" d="M277.5,158.3h-2.4v2.4h2.4V158.3z"/>
<path class="st2" d="M277.5,162.2h-2.4v2.4h2.4V162.2z"/>
<path class="st2" d="M277.5,166.2h-2.4v2.4h2.4V166.2z"/>
<path class="st2" d="M277.5,170.1h-2.4v2.4h2.4V170.1z"/>
<path class="st2" d="M277.5,174.1h-2.4v2.4h2.4V174.1z"/>
<path class="st2" d="M277.5,178h-2.4v2.4h2.4V178z"/>
<path class="st2" d="M277.5,182h-2.4v2.4h2.4V182z"/>
<path class="st2" d="M277.5,185.9h-2.4v2.4h2.4V185.9z"/>
<path class="st2" d="M277.5,189.9h-2.4v2.4h2.4V189.9z"/>
<path class="st2" d="M277.5,193.8h-2.4v2.4h2.4V193.8z"/>
<path class="st2" d="M277.5,197.8h-2.4v2.4h2.4V197.8z"/>
<path class="st2" d="M277.5,201.7h-2.4v2.4h2.4V201.7z"/>
<path class="st2" d="M277.5,205.7h-2.4v2.4h2.4V205.7z"/>
<path class="st2" d="M277.5,209.6h-2.4v2.4h2.4V209.6z"/>
<path class="st2" d="M277.5,217.5h-2.4v2.4h2.4V217.5z"/>
<path class="st2" d="M277.5,221.5h-2.4v2.4h2.4V221.5z"/>
<path class="st2" d="M277.5,225.4h-2.4v2.4h2.4V225.4z"/>
<path class="st2" d="M277.5,229.4h-2.4v2.4h2.4V229.4z"/>
<path class="st2" d="M277.5,233.3h-2.4v2.4h2.4V233.3z"/>
<path class="st2" d="M273.8,146.4h-2.4v2.4h2.4V146.4z"/>
<path class="st2" d="M273.8,150.4h-2.4v2.4h2.4V150.4z"/>
<path class="st2" d="M273.8,154.3h-2.4v2.4h2.4V154.3z"/>
<path class="st2" d="M273.8,158.3h-2.4v2.4h2.4V158.3z"/>
<path class="st2" d="M273.8,162.2h-2.4v2.4h2.4V162.2z"/>
<path class="st2" d="M273.8,166.2h-2.4v2.4h2.4V166.2z"/>
<path class="st2" d="M273.8,170.1h-2.4v2.4h2.4V170.1z"/>
<path class="st2" d="M273.8,174.1h-2.4v2.4h2.4V174.1z"/>
<path class="st2" d="M273.8,178h-2.4v2.4h2.4V178z"/>
<path class="st2" d="M273.8,182h-2.4v2.4h2.4V182z"/>
<path class="st2" d="M273.8,185.9h-2.4v2.4h2.4V185.9z"/>
<path class="st2" d="M273.8,189.9h-2.4v2.4h2.4V189.9z"/>
<path class="st2" d="M273.8,193.8h-2.4v2.4h2.4V193.8z"/>
<path class="st2" d="M273.8,197.8h-2.4v2.4h2.4V197.8z"/>
<path class="st2" d="M273.8,201.7h-2.4v2.4h2.4V201.7z"/>
<path class="st2" d="M273.8,205.7h-2.4v2.4h2.4V205.7z"/>
<path class="st2" d="M273.8,229.4h-2.4v2.4h2.4V229.4z"/>
<path class="st2" d="M273.8,233.3h-2.4v2.4h2.4V233.3z"/>
<path class="st2" d="M270.1,146.4h-2.4v2.4h2.4V146.4z"/>
<path class="st2" d="M270.1,150.4h-2.4v2.4h2.4V150.4z"/>
<path class="st2" d="M270.1,154.3h-2.4v2.4h2.4V154.3z"/>
<path class="st2" d="M270.1,158.3h-2.4v2.4h2.4V158.3z"/>
<path class="st2" d="M270.1,162.2h-2.4v2.4h2.4V162.2z"/>
<path class="st2" d="M270.1,166.2h-2.4v2.4h2.4V166.2z"/>
<path class="st2" d="M270.1,170.1h-2.4v2.4h2.4V170.1z"/>
<path class="st2" d="M270.1,174.1h-2.4v2.4h2.4V174.1z"/>
<path class="st2" d="M270.1,178h-2.4v2.4h2.4V178z"/>
<path class="st2" d="M270.1,182h-2.4v2.4h2.4V182z"/>
<path class="st2" d="M270.1,185.9h-2.4v2.4h2.4V185.9z"/>
<path class="st2" d="M270.1,189.9h-2.4v2.4h2.4V189.9z"/>
<path class="st2" d="M270.1,193.8h-2.4v2.4h2.4V193.8z"/>
<path class="st2" d="M270.1,197.8h-2.4v2.4h2.4V197.8z"/>
<path class="st2" d="M270.1,201.7h-2.4v2.4h2.4V201.7z"/>
<path class="st2" d="M270.1,205.7h-2.4v2.4h2.4V205.7z"/>
<path class="st2" d="M270.1,213.6h-2.4v2.4h2.4V213.6z"/>
<path class="st2" d="M270.1,217.5h-2.4v2.4h2.4V217.5z"/>
<path class="st2" d="M270.1,221.5h-2.4v2.4h2.4V221.5z"/>
<path class="st2" d="M270.1,225.4h-2.4v2.4h2.4V225.4z"/>
<path class="st2" d="M270.1,233.3h-2.4v2.4h2.4V233.3z"/>
<path class="st2" d="M291.1,196.2h-2.4v2.4h2.4V196.2z"/>
<path class="st2" d="M291.1,200.1h-2.4v2.4h2.4V200.1z"/>
<path class="st2" d="M291.1,204.1h-2.4v2.4h2.4V204.1z"/>
<path class="st2" d="M291.1,208h-2.4v2.4h2.4V208z"/>
<path class="st2" d="M291.1,212h-2.4v2.4h2.4V212z"/>
<path class="st2" d="M291.1,215.9h-2.4v2.4h2.4V215.9z"/>
<path class="st2" d="M291.1,219.9h-2.4v2.4h2.4V219.9z"/>
<path class="st2" d="M291.1,227.8h-2.4v2.4h2.4V227.8z"/>
<path class="st2" d="M291.1,231.7h-2.4v2.4h2.4V231.7z"/>
<path class="st2" d="M291.1,235.7h-2.4v2.4h2.4V235.7z"/>
<path class="st2" d="M291.1,239.7h-2.4v2.4h2.4V239.7z"/>
<path class="st2" d="M291.1,243.6h-2.4v2.4h2.4V243.6z"/>
<path class="st2" d="M291.1,247.6h-2.4v2.4h2.4V247.6z"/>
<path class="st2" d="M291.1,251.5h-2.4v2.4h2.4V251.5z"/>
<path class="st2" d="M291.1,255.5h-2.4v2.4h2.4V255.5z"/>
<path class="st2" d="M287.4,196.2H285v2.4h2.4V196.2z"/>
<path class="st2" d="M287.4,200.1H285v2.4h2.4V200.1z"/>
<path class="st2" d="M287.4,204.1H285v2.4h2.4V204.1z"/>
<path class="st2" d="M287.4,208H285v2.4h2.4V208z"/>
<path class="st2" d="M287.4,212H285v2.4h2.4V212z"/>
<path class="st2" d="M287.4,215.9H285v2.4h2.4V215.9z"/>
<path class="st2" d="M287.4,227.8H285v2.4h2.4V227.8z"/>
<path class="st2" d="M287.4,231.7H285v2.4h2.4V231.7z"/>
<path class="st2" d="M287.4,235.7H285v2.4h2.4V235.7z"/>
<path class="st2" d="M287.4,239.7H285v2.4h2.4V239.7z"/>
<path class="st2" d="M287.4,243.6H285v2.4h2.4V243.6z"/>
<path class="st2" d="M287.4,247.6H285v2.4h2.4V247.6z"/>
<path class="st2" d="M287.4,251.5H285v2.4h2.4V251.5z"/>
<path class="st2" d="M287.4,255.5H285v2.4h2.4V255.5z"/>
<path class="st2" d="M283.7,196.2h-2.4v2.4h2.4V196.2z"/>
<path class="st2" d="M283.7,200.1h-2.4v2.4h2.4V200.1z"/>
<path class="st2" d="M283.7,204.1h-2.4v2.4h2.4V204.1z"/>
<path class="st2" d="M283.7,208h-2.4v2.4h2.4V208z"/>
<path class="st2" d="M283.7,212h-2.4v2.4h2.4V212z"/>
<path class="st2" d="M283.7,215.9h-2.4v2.4h2.4V215.9z"/>
<path class="st2" d="M283.7,223.8h-2.4v2.4h2.4V223.8z"/>
<path class="st2" d="M283.7,227.8h-2.4v2.4h2.4V227.8z"/>
<path class="st2" d="M283.7,231.7h-2.4v2.4h2.4V231.7z"/>
<path class="st2" d="M283.7,235.7h-2.4v2.4h2.4V235.7z"/>
<path class="st2" d="M283.7,239.7h-2.4v2.4h2.4V239.7z"/>
<path class="st2" d="M283.7,243.6h-2.4v2.4h2.4V243.6z"/>
<path class="st2" d="M283.7,247.6h-2.4v2.4h2.4V247.6z"/>
<path class="st2" d="M283.7,251.5h-2.4v2.4h2.4V251.5z"/>
<path class="st2" d="M283.7,255.5h-2.4v2.4h2.4V255.5z"/>
<path class="st2" d="M204.8,174.1h-2.4v2.4h2.4V174.1z"/>
<path class="st2" d="M204.8,178h-2.4v2.4h2.4V178z"/>
<path class="st2" d="M204.8,182h-2.4v2.4h2.4V182z"/>
<path class="st2" d="M204.8,185.9h-2.4v2.4h2.4V185.9z"/>
<path class="st2" d="M204.8,189.9h-2.4v2.4h2.4V189.9z"/>
<path class="st2" d="M204.8,193.8h-2.4v2.4h2.4V193.8z"/>
<path class="st2" d="M204.8,197.8h-2.4v2.4h2.4V197.8z"/>
<path class="st2" d="M204.8,201.7h-2.4v2.4h2.4V201.7z"/>
<path class="st2" d="M204.8,205.7h-2.4v2.4h2.4V205.7z"/>
<path class="st2" d="M204.8,209.6h-2.4v2.4h2.4V209.6z"/>
<path class="st2" d="M204.8,213.6h-2.4v2.4h2.4V213.6z"/>
<path class="st2" d="M204.8,217.5h-2.4v2.4h2.4V217.5z"/>
<path class="st2" d="M204.8,221.5h-2.4v2.4h2.4V221.5z"/>
<path class="st2" d="M204.8,229.4h-2.4v2.4h2.4V229.4z"/>
<path class="st2" d="M204.8,233.3h-2.4v2.4h2.4V233.3z"/>
<path class="st2" d="M204.8,237.3h-2.4v2.4h2.4V237.3z"/>
<path class="st2" d="M204.8,241.3h-2.4v2.4h2.4V241.3z"/>
<path class="st2" d="M204.8,249.2h-2.4v2.4h2.4V249.2z"/>
<path class="st2" d="M204.8,253.1h-2.4v2.4h2.4V253.1z"/>
<path class="st2" d="M204.8,257.1h-2.4v2.4h2.4V257.1z"/>
<path class="st2" d="M201,174.1h-2.4v2.4h2.4V174.1z"/>
<path class="st2" d="M201,178h-2.4v2.4h2.4V178z"/>
<path class="st2" d="M201,182h-2.4v2.4h2.4V182z"/>
<path class="st2" d="M201,185.9h-2.4v2.4h2.4V185.9z"/>
<path class="st2" d="M201,189.9h-2.4v2.4h2.4V189.9z"/>
<path class="st2" d="M201,193.8h-2.4v2.4h2.4V193.8z"/>
<path class="st2" d="M201,197.8h-2.4v2.4h2.4V197.8z"/>
<path class="st2" d="M201,201.7h-2.4v2.4h2.4V201.7z"/>
<path class="st2" d="M201,205.7h-2.4v2.4h2.4V205.7z"/>
<path class="st2" d="M201,209.6h-2.4v2.4h2.4V209.6z"/>
<path class="st2" d="M201,213.6h-2.4v2.4h2.4V213.6z"/>
<path class="st2" d="M201,217.5h-2.4v2.4h2.4V217.5z"/>
<path class="st2" d="M201,221.5h-2.4v2.4h2.4V221.5z"/>
<path class="st2" d="M201,233.3h-2.4v2.4h2.4V233.3z"/>
<path class="st2" d="M201,237.3h-2.4v2.4h2.4V237.3z"/>
<path class="st2" d="M201,245.2h-2.4v2.4h2.4V245.2z"/>
<path class="st2" d="M201,249.2h-2.4v2.4h2.4V249.2z"/>
<path class="st2" d="M201,253.1h-2.4v2.4h2.4V253.1z"/>
<path class="st2" d="M201,257.1h-2.4v2.4h2.4V257.1z"/>
<path class="st2" d="M197.3,174.1h-2.4v2.4h2.4V174.1z"/>
<path class="st2" d="M197.3,178h-2.4v2.4h2.4V178z"/>
<path class="st2" d="M197.3,182h-2.4v2.4h2.4V182z"/>
<path class="st2" d="M197.3,185.9h-2.4v2.4h2.4V185.9z"/>
<path class="st2" d="M197.3,189.9h-2.4v2.4h2.4V189.9z"/>
<path class="st2" d="M197.3,193.8h-2.4v2.4h2.4V193.8z"/>
<path class="st2" d="M197.3,197.8h-2.4v2.4h2.4V197.8z"/>
<path class="st2" d="M197.3,201.7h-2.4v2.4h2.4V201.7z"/>
<path class="st2" d="M197.3,205.7h-2.4v2.4h2.4V205.7z"/>
<path class="st2" d="M197.3,209.6h-2.4v2.4h2.4V209.6z"/>
<path class="st2" d="M197.3,213.6h-2.4v2.4h2.4V213.6z"/>
<path class="st2" d="M197.3,217.5h-2.4v2.4h2.4V217.5z"/>
<path class="st2" d="M197.3,221.5h-2.4v2.4h2.4V221.5z"/>
<path class="st2" d="M197.3,225.4h-2.4v2.4h2.4V225.4z"/>
<path class="st2" d="M197.3,233.3h-2.4v2.4h2.4V233.3z"/>
<path class="st2" d="M197.3,241.3h-2.4v2.4h2.4V241.3z"/>
<path class="st2" d="M197.3,245.2h-2.4v2.4h2.4V245.2z"/>
<path class="st2" d="M197.3,249.2h-2.4v2.4h2.4V249.2z"/>
<path class="st2" d="M197.3,253.1h-2.4v2.4h2.4V253.1z"/>
<path class="st2" d="M197.3,257.1h-2.4v2.4h2.4V257.1z"/>
<path class="st2" d="M220,196.6h-2.4v2.4h2.4V196.6z"/>
<path class="st2" d="M220,200.5h-2.4v2.4h2.4V200.5z"/>
<path class="st2" d="M220,204.5h-2.4v2.4h2.4V204.5z"/>
<path class="st2" d="M220,208.5h-2.4v2.4h2.4V208.5z"/>
<path class="st2" d="M220,212.4h-2.4v2.4h2.4V212.4z"/>
<path class="st2" d="M220,216.4h-2.4v2.4h2.4V216.4z"/>
<path class="st2" d="M220,228.2h-2.4v2.4h2.4V228.2z"/>
<path class="st2" d="M220,232.2h-2.4v2.4h2.4V232.2z"/>
<path class="st2" d="M220,236.1h-2.4v2.4h2.4V236.1z"/>
<path class="st2" d="M220,240.1h-2.4v2.4h2.4V240.1z"/>
<path class="st2" d="M220,244h-2.4v2.4h2.4V244z"/>
<path class="st2" d="M220,248h-2.4v2.4h2.4V248z"/>
<path class="st2" d="M220,251.9h-2.4v2.4h2.4V251.9z"/>
<path class="st2" d="M216.3,196.6h-2.4v2.4h2.4V196.6z"/>
<path class="st2" d="M216.3,200.5h-2.4v2.4h2.4V200.5z"/>
<path class="st2" d="M216.3,204.5h-2.4v2.4h2.4V204.5z"/>
<path class="st2" d="M216.3,208.5h-2.4v2.4h2.4V208.5z"/>
<path class="st2" d="M216.3,212.4h-2.4v2.4h2.4V212.4z"/>
<path class="st2" d="M216.3,216.4h-2.4v2.4h2.4V216.4z"/>
<path class="st2" d="M216.3,228.2h-2.4v2.4h2.4V228.2z"/>
<path class="st2" d="M216.3,232.2h-2.4v2.4h2.4V232.2z"/>
<path class="st2" d="M216.3,236.1h-2.4v2.4h2.4V236.1z"/>
<path class="st2" d="M216.3,240.1h-2.4v2.4h2.4V240.1z"/>
<path class="st2" d="M216.3,244h-2.4v2.4h2.4V244z"/>
<path class="st2" d="M216.3,248h-2.4v2.4h2.4V248z"/>
<path class="st2" d="M216.3,255.9h-2.4v2.4h2.4V255.9z"/>
<path class="st2" d="M91.9,179.2h-2.4v2.4h2.4V179.2z"/>
<path class="st2" d="M91.9,183.1h-2.4v2.4h2.4V183.1z"/>
<path class="st2" d="M91.9,187.1h-2.4v2.4h2.4V187.1z"/>
<path class="st2" d="M91.9,191.1h-2.4v2.4h2.4V191.1z"/>
<path class="st2" d="M91.9,195h-2.4v2.4h2.4V195z"/>
<path class="st2" d="M91.9,199h-2.4v2.4h2.4V199z"/>
<path class="st2" d="M91.9,202.9h-2.4v2.4h2.4V202.9z"/>
<path class="st2" d="M91.9,206.9h-2.4v2.4h2.4V206.9z"/>
<path class="st2" d="M91.9,210.8h-2.4v2.4h2.4V210.8z"/>
<path class="st2" d="M91.9,214.8h-2.4v2.4h2.4V214.8z"/>
<path class="st2" d="M91.9,218.7h-2.4v2.4h2.4V218.7z"/>
<path class="st2" d="M91.9,226.6h-2.4v2.4h2.4V226.6z"/>
<path class="st2" d="M91.9,230.6h-2.4v2.4h2.4V230.6z"/>
<path class="st2" d="M91.9,234.5h-2.4v2.4h2.4V234.5z"/>
<path class="st2" d="M91.9,238.5h-2.4v2.4h2.4V238.5z"/>
<path class="st2" d="M91.9,242.4h-2.4v2.4h2.4V242.4z"/>
<path class="st2" d="M91.9,246.4h-2.4v2.4h2.4V246.4z"/>
<path class="st2" d="M91.9,250.3h-2.4v2.4h2.4V250.3z"/>
<path class="st2" d="M91.9,254.3h-2.4v2.4h2.4V254.3z"/>
<path class="st2" d="M88.2,179.2h-2.4v2.4h2.4V179.2z"/>
<path class="st2" d="M88.2,183.1h-2.4v2.4h2.4V183.1z"/>
<path class="st2" d="M88.2,187.1h-2.4v2.4h2.4V187.1z"/>
<path class="st2" d="M88.2,191.1h-2.4v2.4h2.4V191.1z"/>
<path class="st2" d="M88.2,195h-2.4v2.4h2.4V195z"/>
<path class="st2" d="M88.2,199h-2.4v2.4h2.4V199z"/>
<path class="st2" d="M88.2,202.9h-2.4v2.4h2.4V202.9z"/>
<path class="st2" d="M88.2,206.9h-2.4v2.4h2.4V206.9z"/>
<path class="st2" d="M88.2,210.8h-2.4v2.4h2.4V210.8z"/>
<path class="st2" d="M88.2,214.8h-2.4v2.4h2.4V214.8z"/>
<path class="st2" d="M88.2,218.7h-2.4v2.4h2.4V218.7z"/>
<path class="st2" d="M88.2,222.7h-2.4v2.4h2.4V222.7z"/>
<path class="st2" d="M88.2,226.6h-2.4v2.4h2.4V226.6z"/>
<path class="st2" d="M88.2,230.6h-2.4v2.4h2.4V230.6z"/>
<path class="st2" d="M88.2,234.5h-2.4v2.4h2.4V234.5z"/>
<path class="st2" d="M88.2,238.5h-2.4v2.4h2.4V238.5z"/>
<path class="st2" d="M88.2,242.4h-2.4v2.4h2.4V242.4z"/>
<path class="st2" d="M88.2,246.4h-2.4v2.4h2.4V246.4z"/>
<path class="st2" d="M88.2,250.3h-2.4v2.4h2.4V250.3z"/>
<path class="st2" d="M88.2,254.3h-2.4v2.4h2.4V254.3z"/>
<path class="st2" d="M110.4,194.6H108v2.4h2.4V194.6z"/>
<path class="st2" d="M110.4,198.5H108v2.4h2.4V198.5z"/>
<path class="st2" d="M110.4,202.5H108v2.4h2.4V202.5z"/>
<path class="st2" d="M110.4,206.4H108v2.4h2.4V206.4z"/>
<path class="st2" d="M110.4,210.4H108v2.4h2.4V210.4z"/>
<path class="st2" d="M110.4,214.3H108v2.4h2.4V214.3z"/>
<path class="st2" d="M110.4,218.3H108v2.4h2.4V218.3z"/>
<path class="st2" d="M110.4,222.3H108v2.4h2.4V222.3z"/>
<path class="st2" d="M110.4,226.2H108v2.4h2.4V226.2z"/>
<path class="st2" d="M110.4,230.2H108v2.4h2.4V230.2z"/>
<path class="st2" d="M106.6,194.6h-2.4v2.4h2.4V194.6z"/>
<path class="st2" d="M106.6,198.5h-2.4v2.4h2.4V198.5z"/>
<path class="st2" d="M106.6,202.5h-2.4v2.4h2.4V202.5z"/>
<path class="st2" d="M106.6,206.4h-2.4v2.4h2.4V206.4z"/>
<path class="st2" d="M106.6,210.4h-2.4v2.4h2.4V210.4z"/>
<path class="st2" d="M106.6,214.3h-2.4v2.4h2.4V214.3z"/>
<path class="st2" d="M106.6,218.3h-2.4v2.4h2.4V218.3z"/>
<path class="st2" d="M106.6,222.3h-2.4v2.4h2.4V222.3z"/>
<path class="st2" d="M106.6,226.2h-2.4v2.4h2.4V226.2z"/>
</svg>
