<svg width="407" height="351" viewBox="0 0 407 351" fill="none" xmlns="http://www.w3.org/2000/svg">
<path d="M59.6025 326.811C139.073 357.884 267.927 357.884 347.397 326.811C426.868 295.738 426.868 245.428 347.397 214.383C267.927 183.338 139.073 183.31 59.6025 214.383C-19.8675 245.456 -19.8675 295.766 59.6025 326.811Z" fill="#F5F5F5"/>
<path d="M274.915 340.405C295.755 340.405 312.649 330.646 312.649 318.607C312.649 306.569 295.755 296.81 274.915 296.81C254.075 296.81 237.18 306.569 237.18 318.607C237.18 330.646 254.075 340.405 274.915 340.405Z" fill="#E0E0E0"/>
<path d="M343.869 302.783C362.303 302.783 377.247 294.152 377.247 283.506C377.247 272.859 362.303 264.229 343.869 264.229C325.434 264.229 310.49 272.859 310.49 283.506C310.49 294.152 325.434 302.783 343.869 302.783Z" fill="#E0E0E0"/>
<path d="M314.217 36.0933L320.123 39.5001C320.087 39.2401 320.068 38.9779 320.068 38.7154V37.0073C320.068 33.9606 322.209 32.7327 324.839 34.2376C325.979 34.9395 326.95 35.8854 327.681 37.0073C328.115 33.1759 331.114 31.7541 334.759 33.8591C336.836 35.2138 338.564 37.0391 339.803 39.187C341.043 41.3349 341.758 43.7449 341.893 46.2213V48.7787C341.92 49.8024 341.715 50.8189 341.293 51.7516L346.193 54.5767C346.967 55.0831 347.61 55.7652 348.07 56.5674C348.53 57.3695 348.795 58.2692 348.842 59.1929C348.842 60.8825 347.651 61.5657 346.193 60.7163L314.217 42.2514C313.445 41.7445 312.803 41.0621 312.344 40.2599C311.886 39.4576 311.623 38.5583 311.578 37.6352C311.578 35.9272 312.759 35.2439 314.217 36.0933Z" fill="#EBEBEB"/>
<path d="M288.969 53.2926L293.427 55.8592C293.397 55.6636 293.382 55.4661 293.38 55.2683V53.985C293.38 51.6861 294.995 50.7537 296.989 51.8985C297.84 52.4289 298.57 53.1337 299.13 53.9665C299.453 51.0768 301.723 50.0058 304.473 51.5938C306.04 52.6166 307.344 53.9949 308.279 55.6168C309.214 57.2386 309.753 59.0583 309.853 60.9278V62.8574C309.875 63.6269 309.72 64.3912 309.401 65.0917L313.092 67.2244C313.672 67.605 314.155 68.1166 314.501 68.718C314.847 69.3193 315.047 69.9936 315.085 70.6865C315.085 71.9606 314.162 72.4776 313.092 71.8406L288.96 57.8996C288.379 57.5226 287.895 57.0131 287.549 56.4129C287.202 55.8127 287.003 55.1388 286.967 54.4466C286.976 53.1726 287.862 52.6555 288.969 53.2926Z" fill="#EBEBEB"/>
<path d="M43.2757 314.599C42.6943 314.913 31.8234 318.006 27.7999 312.679C23.7764 307.352 30.4577 299.07 26.6741 296.014C22.8905 292.958 12.3241 296.014 9.77713 289.598C7.23013 283.181 14.7788 280.365 10.5338 273.903C7.85765 269.822 0.382767 267.569 0.724212 263.747C1.22254 258.207 11.4382 256.693 20.3712 262.648C29.3041 268.603 33.4568 263.719 36.2991 263.322C39.1414 262.925 45.2413 263.802 45.0383 273.755C44.8353 283.707 43.2757 314.599 43.2757 314.599Z" fill="#455A64"/>
<path d="M43.9959 300.446C43.8556 300.445 43.7201 300.395 43.6136 300.304C43.507 300.212 43.4365 300.086 43.4146 299.947C40.3046 281.058 18.3598 265.686 6.94449 262.39C6.79471 262.343 6.66887 262.24 6.59322 262.102C6.51756 261.964 6.49794 261.803 6.53845 261.651C6.56063 261.576 6.59737 261.507 6.64654 261.446C6.69572 261.386 6.75637 261.336 6.82499 261.299C6.89361 261.262 6.96885 261.239 7.04638 261.231C7.1239 261.224 7.20218 261.231 7.27671 261.254C18.9412 264.624 41.4213 280.375 44.5866 299.754C44.6107 299.909 44.5729 300.067 44.4815 300.195C44.39 300.323 44.2522 300.41 44.0975 300.437L43.9959 300.446Z" fill="white"/>
<path d="M18.1193 284.631C18.0172 284.632 17.9167 284.605 17.8278 284.555C17.7388 284.505 17.6644 284.433 17.6117 284.345C17.5331 284.21 17.5103 284.049 17.5482 283.898C17.5861 283.746 17.6818 283.615 17.8148 283.533C18.1747 283.32 26.6185 278.381 34.9332 280.689C35.0085 280.709 35.0791 280.744 35.1408 280.792C35.2025 280.84 35.2542 280.899 35.2928 280.967C35.3314 281.035 35.3562 281.11 35.3657 281.187C35.3753 281.265 35.3694 281.343 35.3485 281.418C35.3293 281.494 35.295 281.566 35.2475 281.628C35.2001 281.691 35.1406 281.743 35.0725 281.782C35.0044 281.82 34.9291 281.845 34.8513 281.854C34.7734 281.863 34.6946 281.856 34.6194 281.834C26.7939 279.664 18.5069 284.502 18.4238 284.548C18.3319 284.604 18.2265 284.632 18.1193 284.631Z" fill="white"/>
<path d="M361.3 278.557L358.439 277.209C358.439 277.209 357.516 266.878 358.439 259.981C360.285 247.139 369.245 236.069 377.228 234.767C387.508 233.096 385.681 242.559 379.803 246.649C370.436 253.204 363.146 263.111 361.3 278.557Z" fill="#066FA4"/>
<g opacity="0.1">
<path d="M361.3 278.557L358.439 277.209C358.439 277.209 357.516 266.878 358.439 259.981C360.285 247.139 369.245 236.069 377.228 234.767C387.508 233.096 385.681 242.559 379.803 246.649C370.436 253.204 363.146 263.111 361.3 278.557Z" fill="black"/>
</g>
<path d="M360.212 274.438H360.286C360.415 274.414 360.53 274.339 360.604 274.23C360.679 274.121 360.707 273.987 360.682 273.857C358.689 263.304 367.373 243.741 378.991 238.183C379.114 238.125 379.208 238.021 379.254 237.894C379.3 237.767 379.293 237.626 379.236 237.504C379.178 237.382 379.075 237.287 378.947 237.241C378.82 237.195 378.68 237.202 378.558 237.259C366.561 242.984 357.646 263.11 359.695 274.023C359.715 274.144 359.779 274.253 359.874 274.329C359.97 274.406 360.09 274.445 360.212 274.438Z" fill="white"/>
<path d="M358.438 277.209C358.226 275.676 358.134 273.442 358.106 272.888C357.987 270.942 358.273 268.993 358.946 267.164C359.83 264.746 361.513 262.704 363.717 261.375C364.916 260.682 366.319 260.184 367.094 259.039C367.657 257.984 367.957 256.809 367.971 255.614C368.211 253.684 368.811 251.644 370.361 250.462C371.912 249.28 374.052 249.253 375.898 249.456C378.667 249.751 381.26 250.12 383.844 248.856C385.908 247.759 388.041 246.797 390.23 245.975C392.998 245.052 399.19 243.667 400.491 247.554C400.639 248.09 400.665 248.653 400.568 249.201C400.47 249.749 400.252 250.268 399.928 250.721C399.274 251.621 398.49 252.421 397.603 253.093L393.275 256.694C392.759 257.073 392.312 257.538 391.955 258.07C391.116 259.51 391.715 261.329 391.531 262.981C391.414 263.822 391.115 264.627 390.656 265.342C390.197 266.056 389.589 266.662 388.873 267.117C387.43 268.021 385.734 268.432 384.037 268.29C381.776 268.133 378.085 266.397 376.701 269.065C376.318 269.975 376.093 270.943 376.037 271.928C375.982 272.917 375.663 273.873 375.114 274.697C374.191 275.824 372.65 276.147 371.21 276.295C369.193 276.331 367.191 276.641 365.258 277.218C364.483 277.522 363.994 278.51 363.541 279.166C362.13 278.695 360.579 278.132 358.438 277.209Z" fill="#066FA4"/>
<path d="M359.704 276.433C359.634 276.45 359.561 276.45 359.492 276.433C359.377 276.385 359.286 276.295 359.237 276.181C359.189 276.067 359.187 275.938 359.233 275.823C365.047 261.374 383.596 251.025 394.651 247.59C394.71 247.572 394.772 247.566 394.833 247.571C394.894 247.577 394.954 247.595 395.008 247.625C395.062 247.654 395.11 247.694 395.149 247.742C395.187 247.79 395.216 247.845 395.233 247.904C395.268 248.022 395.255 248.148 395.198 248.257C395.142 248.366 395.045 248.448 394.928 248.486C384.048 251.865 365.794 262.021 360.101 276.183C360.061 276.255 360.004 276.316 359.935 276.36C359.865 276.403 359.786 276.428 359.704 276.433Z" fill="white"/>
<path d="M47.1415 332.889L43.9208 331.043C43.3847 330.694 42.9383 330.224 42.6176 329.671C42.2969 329.118 42.1111 328.496 42.0752 327.858V89.134C42.1104 88.4952 42.2959 87.8737 42.6166 87.3202C42.9374 86.7667 43.3842 86.2968 43.9208 85.9488L191.942 0.446999C192.513 0.154488 193.146 0.00195312 193.788 0.00195312C194.429 0.00195312 195.062 0.154488 195.633 0.446999L198.854 2.29349C199.39 2.64204 199.837 3.11206 200.157 3.66546C200.478 4.21885 200.664 4.84004 200.7 5.47869V244.202C200.665 244.841 200.48 245.463 200.159 246.017C199.838 246.57 199.391 247.04 198.854 247.388L50.8144 332.889C50.2459 333.18 49.6165 333.332 48.9779 333.332C48.3394 333.332 47.71 333.18 47.1415 332.889Z" fill="#066FA4"/>
<path opacity="0.4" d="M200.635 5.19282C200.515 4.26958 199.712 3.89105 198.789 4.42653L50.8143 89.9283C50.2744 90.2693 49.8274 90.7388 49.5131 91.2947L42.6104 87.3156C42.9247 86.7596 43.3717 86.2901 43.9115 85.9491L191.942 0.447338C192.513 0.153365 193.146 0 193.788 0C194.43 0 195.062 0.153365 195.633 0.447338L198.863 2.29383C199.349 2.62176 199.759 3.05035 200.064 3.55053C200.37 4.05071 200.565 4.61079 200.635 5.19282Z" fill="white"/>
<path opacity="0.15" d="M50.4916 333.038C50.455 333.045 50.4174 333.045 50.3808 333.038L50.1963 333.102H50.1224C50.0117 333.102 49.901 333.158 49.781 333.185C49.0494 333.324 48.2941 333.263 47.5939 333.01C47.4546 332.958 47.3189 332.896 47.1878 332.825L43.958 330.979C43.4234 330.629 42.9781 330.158 42.6576 329.605C42.3371 329.052 42.1504 328.432 42.1123 327.794V89.1346C42.1333 88.484 42.3174 87.849 42.6475 87.2881L49.5503 91.2673C49.2088 91.8238 49.0209 92.4609 49.0058 93.1138V331.837C48.9858 332.184 49.087 332.527 49.2919 332.807C49.4055 332.95 49.5591 333.057 49.7333 333.113C49.9075 333.168 50.0943 333.171 50.2701 333.121C50.3464 333.1 50.4206 333.073 50.4916 333.038Z" fill="black"/>
<path d="M154.439 44.4034L154.171 44.2373L151.117 42.4831C150.006 41.8635 148.798 41.4359 147.545 41.2182C147.019 41.0982 146.549 40.9597 146.133 40.8213C145.672 40.6704 145.222 40.4884 144.786 40.2765L145.007 39.9903L141.575 37.9869C141.285 37.8252 140.974 37.7041 140.652 37.6268C139.351 37.3037 137.403 38.0608 135.465 37.8392C134.76 37.7702 134.079 37.5467 133.469 37.1845C132.86 36.8223 132.338 36.3302 131.94 35.7434C130.759 34.1554 130.048 31.3765 129.006 29.0683L129.928 27.7296C129.836 27.6719 129.741 27.6195 129.642 27.5727L126.477 25.7262C125.943 25.4115 125.334 25.2457 124.715 25.2461C123.532 25.3085 122.386 25.681 121.392 26.3263C113.816 30.7117 113.558 41.0982 110.826 47.9487C108.094 54.7992 104.228 56.9319 102.124 59.877C100.02 62.8222 99.872 65.0011 95.2118 71.4269C90.5515 77.8526 90.3669 79.4222 90.3669 80.6593V90.2334L93.8183 92.2276L155.851 56.3779L154.439 44.4034ZM97.5558 81.3333C96.7529 81.7857 96.0885 81.1671 96.0885 79.9207C96.0808 79.3247 96.2089 78.7347 96.4631 78.1956C96.7174 77.6565 97.091 77.1824 97.5558 76.8094C98.3586 76.3478 99.0138 76.9848 99.0138 78.2312C99.0205 78.8221 98.8927 79.4069 98.6401 79.9411C98.3874 80.4754 98.0167 80.9451 97.5558 81.3148V81.3333ZM124.807 54.4576C124.416 54.7429 123.964 54.9333 123.487 55.0137C123.009 55.0941 122.52 55.0623 122.057 54.9208C121.594 54.7793 121.171 54.532 120.82 54.1984C120.469 53.8648 120.201 53.4541 120.036 52.9989C117.627 53.4605 115.837 51.1524 115.837 47.1455C115.837 42.4369 118.319 37.2021 121.374 35.4295C121.766 35.1443 122.218 34.9543 122.696 34.8745C123.174 34.7948 123.663 34.8274 124.126 34.9698C124.589 35.1123 125.013 35.3606 125.363 35.6952C125.713 36.0298 125.981 36.4414 126.145 36.8975C128.553 36.4174 130.335 38.744 130.335 42.7416C130.335 47.4317 127.871 52.6665 124.807 54.4391V54.4576ZM145.414 53.6821C144.601 54.1529 143.946 53.5251 143.946 52.2787C143.931 51.6816 144.056 51.0893 144.311 50.549C144.566 50.0088 144.943 49.5357 145.414 49.1674C146.226 48.6965 146.881 49.3243 146.881 50.5707C146.892 51.1647 146.765 51.7531 146.511 52.2898C146.256 52.8265 145.881 53.2967 145.414 53.6636V53.6821Z" fill="#455A64"/>
<path opacity="0.5" d="M97.2793 83.0228L90.6072 79.1729C90.4553 79.6535 90.3805 80.1552 90.3858 80.6593V90.2333L93.8371 92.2275L97.2793 90.2333V83.0228Z" fill="#37474F"/>
<path opacity="0.5" d="M104.136 71.076L107.587 63.1084L102.106 59.8955C100.5 62.1205 100.029 63.9209 97.8699 67.4569L104.136 71.076Z" fill="#37474F"/>
<path opacity="0.5" d="M117.931 55.1495L118.374 52.8229C116.851 52.1859 115.836 50.127 115.836 47.1265C115.836 43.1288 117.626 38.7619 120.035 36.4445L115.255 33.6748C113.224 38.291 112.486 43.8305 110.807 47.9574C110.456 48.8807 110.078 49.647 109.699 50.3856L117.931 55.1495Z" fill="#37474F"/>
<path d="M154.438 44.4038L154.17 44.2376C153.154 43.7659 152.085 43.4187 150.986 43.2036C149.183 42.8865 147.502 42.0747 146.132 40.8585C145.785 40.5449 145.408 40.2666 145.006 40.0276C144.72 39.8573 144.409 39.7327 144.084 39.6583C141.998 39.1505 138.196 41.4309 135.464 37.8857C135.432 37.8528 135.404 37.8155 135.381 37.7749C133.471 35.2083 132.77 29.4657 129.909 27.7761C129.817 27.7184 129.721 27.666 129.623 27.6192C128.442 27.0652 126.91 27.1668 124.806 28.367C117.229 32.7524 116.971 43.1389 114.239 49.9894C111.508 56.8399 107.65 58.9726 105.546 61.9178C103.442 64.8629 103.304 67.0418 98.6344 73.4676C93.9649 79.8934 93.7988 81.4721 93.7988 82.7V92.2833L155.831 56.4337V46.8135C155.878 46.3167 155.769 45.8177 155.519 45.3859C155.27 44.954 154.891 44.6107 154.438 44.4038ZM100.969 83.3278C100.157 83.7987 99.5019 83.1709 99.5019 81.9153C99.4907 81.32 99.6174 80.7302 99.8719 80.1921C100.126 79.6539 100.502 79.182 100.969 78.8132C101.781 78.3423 102.427 78.9793 102.427 80.2257C102.44 80.8202 102.314 81.4095 102.061 81.9476C101.808 82.4857 101.435 82.9581 100.969 83.3278ZM124.778 54.4672C124.387 54.7525 123.935 54.9429 123.458 55.0233C122.981 55.1037 122.491 55.0719 122.028 54.9304C121.565 54.7889 121.142 54.5415 120.791 54.208C120.44 53.8744 120.172 53.4637 120.007 53.0084C119.465 51.7929 119.207 50.4702 119.25 49.14C119.25 44.4407 121.724 39.1967 124.787 37.4333C125.201 37.1852 125.653 37.0074 126.125 36.907C128.534 36.4269 130.315 38.7535 130.315 42.7512C130.333 47.432 127.87 52.6668 124.806 54.4395L124.778 54.4672ZM148.855 55.6305C148.043 56.1013 147.387 55.4735 147.387 54.2363C147.374 53.6408 147.5 53.0503 147.754 52.5118C148.009 51.9733 148.386 51.5016 148.855 51.1342C149.657 50.6634 150.313 51.2912 150.313 52.5376C150.324 53.1306 150.199 53.7184 149.946 54.2549C149.693 54.7914 149.319 55.2621 148.855 55.6305Z" fill="#37474F"/>
<path d="M130.334 42.7041C130.334 47.4126 127.87 52.6474 124.797 54.4201C124.406 54.7054 123.954 54.8958 123.477 54.9762C123 55.0566 122.51 55.0248 122.048 54.8833C121.585 54.7418 121.161 54.4944 120.81 54.1608C120.46 53.8273 120.191 53.4166 120.026 52.9613C120.497 52.8569 120.949 52.6794 121.364 52.4351C124.419 50.6624 126.901 45.4276 126.901 40.7191C126.942 39.3922 126.683 38.0733 126.145 36.8599C128.553 36.3983 130.334 38.7156 130.334 42.7041Z" fill="#263238"/>
<path d="M100.971 83.3276C100.159 83.7893 99.5036 83.1614 99.5036 81.9241C99.4924 81.3275 99.619 80.7363 99.8735 80.1965C100.128 79.6568 100.504 79.1831 100.971 78.8124C101.774 78.3415 102.429 78.9878 102.429 80.2251C102.44 80.8194 102.313 81.4081 102.061 81.9459C101.808 82.4838 101.435 82.9564 100.971 83.3276Z" fill="#263238"/>
<path d="M148.855 55.6305C148.043 56.0921 147.387 55.4735 147.387 54.227C147.376 53.6303 147.503 53.0391 147.757 52.4994C148.012 51.9596 148.387 51.486 148.855 51.1152C149.658 50.6535 150.313 51.2907 150.313 52.5372C150.323 53.13 150.196 53.7171 149.943 54.2533C149.69 54.7896 149.318 55.2607 148.855 55.6305Z" fill="#263238"/>
<path d="M60.4216 112.261L189.23 37.8566C189.572 37.6838 189.949 37.5938 190.332 37.5938C190.715 37.5938 191.093 37.6838 191.435 37.8566L192.681 38.5768C193.001 38.7866 193.268 39.069 193.458 39.401C193.649 39.7331 193.759 40.1054 193.779 40.4879V237.084C193.761 237.467 193.651 237.84 193.46 238.172C193.269 238.504 193.002 238.786 192.681 238.995L63.873 313.399C63.531 313.572 63.1533 313.662 62.7702 313.662C62.3871 313.662 62.0094 313.572 61.6674 313.399L60.4216 312.679C60.0991 312.471 59.8306 312.189 59.6381 311.857C59.4456 311.525 59.3346 311.152 59.3142 310.768V114.172C59.3361 113.789 59.4477 113.416 59.64 113.084C59.8324 112.752 60.1001 112.47 60.4216 112.261Z" fill="#F5F5F5"/>
<path d="M193.742 40.1565C193.603 39.7041 193.179 39.5564 192.681 39.8518L63.8725 114.256C63.5407 114.453 63.2693 114.737 63.0881 115.078L59.6367 113.093C59.8231 112.754 60.0931 112.468 60.4211 112.262L189.229 37.8576C189.571 37.6848 189.949 37.5947 190.332 37.5947C190.715 37.5947 191.093 37.6848 191.435 37.8576L192.681 38.5777C192.954 38.7567 193.189 38.9885 193.371 39.2597C193.553 39.5308 193.679 39.8358 193.742 40.1565Z" fill="#FAFAFA"/>
<path d="M63.6049 313.52C63.4728 313.568 63.337 313.605 63.1989 313.631H62.9866C62.7626 313.654 62.5369 313.654 62.313 313.631C62.1751 313.604 62.0394 313.567 61.9069 313.52L61.6577 313.4L60.4212 312.689C60.1014 312.479 59.8355 312.196 59.6447 311.864C59.454 311.533 59.3438 311.16 59.323 310.778V114.173C59.3295 113.791 59.4378 113.418 59.6368 113.093L63.0881 115.078C62.8918 115.408 62.7808 115.783 62.7651 116.167V312.763C62.7651 313.363 63.1343 313.659 63.6049 313.52Z" fill="#E0E0E0"/>
<path d="M164.765 65.7021L161.332 63.7171C160.794 63.4528 160.199 63.324 159.599 63.3417C158.999 63.3594 158.413 63.5231 157.89 63.8186C153.885 65.582 152.15 66.3853 150.083 67.2531L148.588 67.8532C147.776 68.1764 146.161 67.8994 146.659 65.0835L151.984 50.7455H151.901L148.533 48.7974C148.362 48.69 148.17 48.6207 147.97 48.5943C147.868 48.5943 147.739 48.5943 147.601 48.5943C145.423 48.5389 144.832 34.4779 144.786 34.044L144.629 33.9609L141.298 32.0405C140.719 31.712 140.062 31.5461 139.397 31.5604C138.283 31.6118 137.198 31.9283 136.232 32.4837C130.999 35.2534 125.711 43.3872 124.419 50.7085C123.607 55.3248 118.965 62.4338 116.28 65.0558C113.595 67.6778 113.41 69.8567 113.41 69.8567L111.324 81.6927L110.651 85.4872C110.162 88.3123 107.264 91.0267 107.264 91.0267L96.4577 99.022C89.6934 104.635 87.7832 110.313 86.4912 117.33V117.385C86.4912 117.635 86.4912 117.801 86.6112 117.865C86.6291 117.877 86.6499 117.883 86.6712 117.883C86.6924 117.883 86.7133 117.877 86.7311 117.865L88.1154 117.081L162.458 74.1867C162.633 74.0673 162.783 73.9144 162.898 73.737C163.014 73.5595 163.093 73.3609 163.132 73.1527C163.556 70.5953 164.793 65.7667 164.793 65.7667L164.765 65.7021ZM143.273 43.9781C142.47 48.4743 139.231 53.4967 136.01 55.1863C133.786 56.3496 132.162 55.6294 131.617 53.5798C131.218 53.7364 130.785 53.7897 130.359 53.7348C129.933 53.68 129.528 53.5187 129.181 53.2659C128.148 52.4535 137.616 36.1859 138.409 36.546C138.778 36.7405 139.099 37.0159 139.346 37.3516C139.594 37.6873 139.763 38.0747 139.84 38.4848C142.498 37.6815 143.983 39.9343 143.273 43.9781Z" fill="#455A64"/>
<path opacity="0.5" d="M97.2792 106.925L91.8623 103.795C88.7247 107.931 87.4604 112.28 86.5283 117.33V117.385C86.5283 117.634 86.5283 117.801 86.6483 117.865C86.6662 117.877 86.687 117.883 86.7083 117.883C86.7295 117.883 86.7504 117.877 86.7683 117.865L91.0409 114.486L97.2792 106.925Z" fill="#37474F"/>
<path opacity="0.5" d="M110.291 86.5854L117.932 90.9893L121.374 71.0749L114.49 67.0957C113.942 67.8832 113.573 68.7814 113.41 69.727L111.325 81.563L110.651 85.3575C110.575 85.7785 110.455 86.1901 110.291 86.5854Z" fill="#37474F"/>
<path opacity="0.5" d="M128.037 41.0703C126.296 44.0096 125.072 47.2261 124.419 50.5797C123.871 52.9567 122.962 55.2358 121.725 57.3379L128.267 61.1232L131.525 53.5988C131.137 53.7389 130.72 53.7819 130.312 53.724C129.903 53.666 129.515 53.5089 129.181 53.2664C128.646 52.8417 130.897 48.3455 133.306 44.117L128.037 41.0703Z" fill="#37474F"/>
<path d="M164.812 65.7309H164.766C164.226 65.4757 163.633 65.3526 163.036 65.3719C162.439 65.3912 161.856 65.5522 161.333 65.8417C156.424 68.0114 154.938 68.7223 152.022 69.8763C151.247 70.1902 149.669 69.9409 150.084 67.282C150.079 67.2205 150.079 67.1588 150.084 67.0973L150.758 63.312L152.603 52.9994C152.603 52.9994 153.028 51.3745 151.957 50.7651H151.874C151.605 50.6408 151.312 50.5778 151.016 50.5805C150.389 50.505 149.787 50.289 149.255 49.9485C148.723 49.608 148.274 49.1519 147.943 48.614C147.368 47.7569 146.97 46.7936 146.772 45.7806C146.573 44.7675 146.58 43.7251 146.789 42.7144C147.574 38.2921 146.716 35.19 144.759 34.0359L144.602 33.9436C143.338 33.2696 141.64 33.3804 139.656 34.4237C134.414 37.1934 129.126 45.3272 127.844 52.6485C127.022 57.2648 122.381 64.383 119.695 66.9958C117.01 69.6086 116.834 71.7967 116.834 71.7967L114.813 83.568L114.149 87.3534C113.651 90.1785 110.753 92.8928 110.753 92.8928L99.956 100.999C95.6469 104.43 92.5357 109.14 91.0692 114.451C91.0692 114.451 87.018 117.599 86.7688 117.848L88.153 117.063L162.708 74.1879C162.708 74.1879 163.557 73.717 163.751 73.597C163.945 73.477 166.944 70.6426 166.944 70.6426C166.778 68.2237 166.058 66.4788 164.812 65.7309ZM143.273 43.9793C142.471 48.4755 139.231 53.4979 136.011 55.1875C133.787 56.3508 132.163 55.6306 131.618 53.581C131.375 52.4304 131.375 51.2417 131.618 50.0912C132.421 45.5857 135.669 40.5725 138.89 38.8922C139.185 38.7302 139.494 38.5943 139.813 38.486C142.498 37.6827 143.984 39.9354 143.273 43.9793Z" fill="#37474F"/>
<path d="M143.273 43.9789C142.471 48.4751 139.231 53.4975 136.011 55.1871C133.787 56.3504 132.163 55.6302 131.618 53.5806C131.935 53.4758 132.244 53.3461 132.541 53.1929C135.771 51.5033 139.001 46.4809 139.804 41.9754C140.046 40.8248 140.046 39.6362 139.804 38.4856C142.498 37.6823 143.984 39.935 143.273 43.9789Z" fill="#263238"/>
<path d="M140.162 38.6784C140.464 38.6602 140.765 38.7204 141.037 38.853C141.309 38.9857 141.541 39.1863 141.713 39.4355C143.051 41.3374 141.768 46.1752 141.214 47.7447C140.448 49.8959 135.447 54.9553 134.072 54.9553C133.616 54.8801 133.181 54.7128 132.792 54.4636C132.403 54.2143 132.069 53.8884 131.811 53.5058C131.584 52.3971 131.584 51.2538 131.811 50.1451C132.595 45.6951 135.806 40.7465 138.972 39.0662C139.254 38.9174 139.547 38.7908 139.848 38.6877H140.153M140.153 38.4753H139.812C139.493 38.5836 139.184 38.7196 138.889 38.8815C135.668 40.5619 132.429 45.5751 131.617 50.0805C131.374 51.2311 131.374 52.4198 131.617 53.5704C131.895 53.9861 132.255 54.3401 132.676 54.6101C133.097 54.8802 133.569 55.0605 134.062 55.1399C135.557 55.1399 140.587 50.0344 141.39 47.7539C142.192 45.4735 143.937 38.4199 140.135 38.4199L140.153 38.4753Z" fill="#263238"/>
<path d="M86.7315 117.875L162.662 74.2054L163.714 73.6238C163.898 73.513 166.897 70.6602 166.897 70.6602L91.0227 114.477C91.0227 114.477 86.427 118.041 86.7315 117.875Z" fill="#263238"/>
<path d="M76.5527 148.5V150.226C76.5527 151.149 77.2172 151.546 78.0293 151.076L178.488 93.0403C178.916 92.7608 179.273 92.3846 179.53 91.942C179.786 91.4995 179.935 91.0028 179.965 90.4921V88.7564C179.965 87.8332 179.3 87.4362 178.488 87.907L78.0293 145.951C77.6005 146.23 77.2434 146.606 76.9869 147.049C76.7303 147.492 76.5816 147.989 76.5527 148.5Z" fill="#E0E0E0"/>
<path d="M76.5527 158.941V160.668C76.5527 161.591 77.2172 161.988 78.0293 161.517L178.488 103.473C178.917 103.194 179.274 102.818 179.53 102.375C179.787 101.932 179.936 101.435 179.965 100.925V99.1889C179.965 98.2657 179.3 97.8779 178.488 98.3395L78.0293 156.393C77.6005 156.672 77.2434 157.048 76.9869 157.491C76.7303 157.934 76.5816 158.43 76.5527 158.941Z" fill="#E0E0E0"/>
<path d="M76.5527 169.319V171.036C76.5527 171.959 77.2172 172.356 78.0293 171.886L178.488 113.86C178.916 113.58 179.273 113.204 179.53 112.761C179.786 112.319 179.935 111.822 179.965 111.311V109.576C179.965 108.653 179.3 108.256 178.488 108.726L78.0293 166.771C77.6005 167.05 77.2434 167.426 76.9869 167.869C76.7303 168.311 76.5816 168.808 76.5527 169.319Z" fill="#E0E0E0"/>
<path d="M76.5527 192.316V194.042C76.5527 194.966 77.2172 195.363 78.0293 194.892L178.488 136.875C178.917 136.596 179.274 136.22 179.53 135.777C179.787 135.335 179.936 134.838 179.965 134.327V132.591C179.965 131.668 179.3 131.28 178.488 131.742L78.0293 189.768C77.6005 190.047 77.2434 190.423 76.9869 190.866C76.7303 191.308 76.5816 191.805 76.5527 192.316Z" fill="#E0E0E0"/>
<path d="M76.5527 202.749V204.484C76.5527 205.408 77.2172 205.795 78.0293 205.334L178.488 147.289C178.917 147.01 179.274 146.634 179.53 146.192C179.787 145.749 179.936 145.252 179.965 144.741V143.005C179.965 142.082 179.3 141.685 178.488 142.156L78.0293 200.201C77.601 200.48 77.2443 200.856 76.9878 201.299C76.7314 201.741 76.5823 202.238 76.5527 202.749Z" fill="#E0E0E0"/>
<path d="M76.5527 213.136V214.862C76.5527 215.785 77.2172 216.182 78.0293 215.712L178.488 157.667C178.917 157.388 179.274 157.012 179.53 156.569C179.787 156.127 179.936 155.63 179.965 155.119V153.383C179.965 152.46 179.3 152.072 178.488 152.534L78.0293 210.588C77.6005 210.867 77.2434 211.243 76.9869 211.685C76.7303 212.128 76.5816 212.625 76.5527 213.136Z" fill="#E0E0E0"/>
<path d="M76.5527 236.125V237.86C76.5527 238.784 77.2172 239.171 78.0293 238.71L178.488 180.665C178.917 180.386 179.274 180.01 179.53 179.568C179.787 179.125 179.936 178.628 179.965 178.117V176.381C179.965 175.458 179.3 175.061 178.488 175.532L78.0293 233.577C77.601 233.856 77.2443 234.232 76.9878 234.675C76.7314 235.117 76.5823 235.614 76.5527 236.125Z" fill="#E0E0E0"/>
<path d="M76.5527 246.567V248.294C76.5527 249.217 77.2172 249.614 78.0293 249.143L178.488 191.098C178.917 190.821 179.274 190.447 179.53 190.006C179.787 189.565 179.936 189.069 179.965 188.56V186.824C179.965 185.901 179.3 185.504 178.488 185.974L78.0293 244.019C77.6005 244.298 77.2434 244.674 76.9869 245.117C76.7303 245.559 76.5816 246.056 76.5527 246.567Z" fill="#E0E0E0"/>
<path d="M76.5527 256.943V258.679C76.5527 259.602 77.2172 259.99 78.0293 259.528L178.488 201.502C178.917 201.223 179.274 200.847 179.53 200.405C179.787 199.962 179.936 199.465 179.965 198.954V197.218C179.965 196.295 179.3 195.898 178.488 196.369L78.0293 254.395C77.601 254.674 77.2443 255.051 76.9878 255.493C76.7314 255.936 76.5823 256.432 76.5527 256.943Z" fill="#E0E0E0"/>
<path d="M128.268 258.339L179.992 228.472V229.469L128.268 259.336V258.339Z" fill="#E0E0E0"/>
<path d="M264.312 185.236C260.971 184.442 257.289 186.824 255.139 192.068C252.989 197.312 248.679 210.718 247.756 214.226C247.35 215.796 259.273 229.7 258.83 229.497C258.701 229.432 262.715 222.711 262.715 222.711L256.929 213.802L260.62 204.135L264.312 185.236Z" fill="#B16668"/>
<path d="M256.579 309.689C256.126 309.865 256.006 310.723 255.942 312.459C255.886 313.761 255.61 316.023 257.132 316.475C258.655 316.928 260.879 316.697 261.857 315.478C263.035 313.837 264.295 312.256 265.632 310.742C267.136 309.117 268.76 307.612 269.369 305.341C269.923 303.291 269.461 302.405 268.068 301.805C266.139 300.992 263.121 303.651 261.608 304.085C260.325 304.436 257.031 309.523 256.579 309.689Z" fill="#263238"/>
<path d="M256.579 308.102V310.208C257.37 310.714 258.283 310.995 259.221 311.021C260.159 311.047 261.087 310.817 261.904 310.355C261.997 310.152 262.458 307.336 262.458 307.336L256.579 308.102Z" fill="#B16668"/>
<path d="M272.248 320.889C271.883 322.017 271.575 323.164 271.325 324.323C271.057 325.597 270.688 327.73 271.14 328.681C271.593 329.632 273.318 330.26 276.022 330.241C277.766 330.241 280.489 331.414 282.353 332.457C284.226 333.376 286.344 333.67 288.397 333.297C290.797 333.011 293.288 331.617 293.676 330.629C294.063 329.641 293.565 329.152 287.908 326.742C287.853 326.742 281.947 324.046 279.206 321.027L272.248 320.889Z" fill="#263238"/>
<path d="M272.248 318.608C272.248 318.608 272.248 320.169 272.248 321.065C272.248 321.96 273.3 323.29 276.032 323.198C277.952 323.124 279.29 322.607 279.207 321.028V318.756L272.248 318.608Z" fill="#B16668"/>
<path d="M254.501 278.89C254.954 275.192 255.817 271.557 257.076 268.051C257.076 268.051 255.886 258.726 255.23 249.77C254.003 233.715 254.99 228.471 258.146 221.27C258.146 221.27 285.065 218.5 285.887 229.736C286.911 243.677 285.554 270.617 285.185 275.538C284.816 280.459 284.355 282.684 282.62 292.969C281.291 300.798 279.242 318.755 279.242 318.755C278.16 319.305 276.958 319.579 275.745 319.553C274.531 319.527 273.342 319.203 272.284 318.608C272.284 318.608 270.088 296.191 270.319 290.513C270.481 286.312 271.191 282.15 272.432 278.133C272.432 278.133 270.761 255.411 270.282 251.792C270.282 251.792 269.433 259.003 269.063 263.924C268.694 268.845 267.218 273.553 265.815 282.703C264.579 290.633 262.281 308.369 262.281 308.369C258.709 310.308 256.578 308.12 256.578 308.12C256.578 308.12 253.542 285.768 254.501 278.89Z" fill="#066FA4"/>
<g opacity="0.35">
<path d="M254.501 278.89C254.954 275.192 255.817 271.557 257.076 268.051C257.076 268.051 255.886 258.726 255.23 249.77C254.003 233.715 254.99 228.471 258.146 221.27C258.146 221.27 285.065 218.5 285.887 229.736C286.911 243.677 285.554 270.617 285.185 275.538C284.816 280.459 284.355 282.684 282.62 292.969C281.291 300.798 279.242 318.755 279.242 318.755C278.16 319.305 276.958 319.579 275.745 319.553C274.531 319.527 273.342 319.203 272.284 318.608C272.284 318.608 270.088 296.191 270.319 290.513C270.481 286.312 271.191 282.15 272.432 278.133C272.432 278.133 270.761 255.411 270.282 251.792C270.282 251.792 269.433 259.003 269.063 263.924C268.694 268.845 267.218 273.553 265.815 282.703C264.579 290.633 262.281 308.369 262.281 308.369C258.709 310.308 256.578 308.12 256.578 308.12C256.578 308.12 253.542 285.768 254.501 278.89Z" fill="black"/>
</g>
<path d="M278.071 181.607L276.806 192.012L267.661 191.19L268.704 179.641L278.071 181.607Z" fill="#B16668"/>
<path d="M257.621 190.425C258.627 187.655 262.051 184.636 265.567 185.292L268.151 185.763C268.225 188.163 272.765 189.4 277.25 187.951C278.597 188.339 279.843 188.736 280.941 189.133C284.162 190.287 285.454 195.595 285.555 204.588C285.657 213.58 286.58 235.858 286.58 235.858L282.768 237.067L281.015 230.54L280.305 238.36C276.025 239.359 271.571 239.336 267.302 238.295C257.631 236.181 254.622 230.965 254.622 230.965C255.805 224.927 258.156 219.178 261.544 214.042C256.708 201.144 256.136 194.515 257.621 190.425Z" fill="#EBEBEB"/>
<path d="M284.872 168.386C285.42 167.143 285.643 165.782 285.522 164.429C285.401 163.076 284.939 161.776 284.18 160.649C281.107 155.83 275.192 155.008 268.179 156.892C265.731 157.642 263.574 159.13 262.003 161.153C260.432 163.175 259.524 165.634 259.402 168.192C259.061 173.335 273.411 177.129 273.079 180.656L284.872 168.386Z" fill="#263238"/>
<path d="M285.177 170.344C285.177 170.344 287.124 173.465 286.848 173.788C286.365 174.087 285.834 174.3 285.279 174.416L285.177 170.344Z" fill="#9A4A4D"/>
<path d="M279.243 160.456C281.18 161.527 284.54 163.503 285.222 170.796C285.924 178.275 284.189 180.823 283.146 181.774C282.445 182.42 278.892 182.558 277.065 181.94C274.776 181.155 269.83 178.551 267.587 174.637C264.948 170.021 264.542 163.973 267.79 161.711C269.437 160.549 271.351 159.824 273.354 159.604C275.358 159.384 277.384 159.678 279.243 160.456Z" fill="#B16668"/>
<path d="M279.816 160.779C279.816 160.779 281.347 167.63 279.17 171.858C279.17 171.858 278.044 169.172 275.737 169.873C273.43 170.575 273.55 173.649 275.312 175.265C275.762 175.727 276.334 176.052 276.961 176.202C277.588 176.352 278.245 176.322 278.856 176.114C278.078 178.053 276.913 179.812 275.432 181.285C275.432 181.285 268.612 184.322 262.716 177.656C257.354 171.609 258.351 161.038 266.555 158.573C274.758 156.108 279.816 160.779 279.816 160.779Z" fill="#263238"/>
<path d="M260.373 161.489C260.695 161.766 260.895 162.16 260.928 162.584C260.96 163.008 260.824 163.428 260.548 163.751L258.111 161.655C258.248 161.495 258.416 161.364 258.604 161.269C258.792 161.173 258.997 161.116 259.207 161.101C259.418 161.086 259.629 161.112 259.829 161.178C260.029 161.245 260.214 161.351 260.373 161.489Z" fill="#263238"/>
<path d="M304.113 205.648C305.442 204.134 305.959 200.755 307.712 198.446C309.465 196.138 310.13 194.449 310.831 195.455C311.754 196.794 309.668 199.462 310.13 199.73C310.591 199.998 312.326 203.515 312.502 205.472C312.677 207.43 307.5 212.341 307.5 212.341L304.113 205.648Z" fill="#B16668"/>
<path d="M309.981 199.425C309.981 199.425 316.238 198.89 317.152 199.425C318.065 199.961 317.789 202.675 317.152 204.337C316.515 205.999 313.322 207.107 310.36 209.083C310.36 208.787 309.981 199.425 309.981 199.425Z" fill="#B16668"/>
<path d="M280.165 188.882C282.851 189.805 285.204 190.904 287.714 195.622C290.935 201.687 296.804 213.56 296.804 213.56L304.113 205.648C304.113 205.648 305.174 204.152 307.149 207.421C309.123 210.689 308.256 211.594 308.256 211.594C308.256 211.594 299.757 222.987 298.197 224.436C296.638 225.886 294.072 224.759 292.393 222.479C290.713 220.198 280.165 206.987 280.165 206.987C280.165 206.987 274.398 199.398 280.165 188.882Z" fill="#B16668"/>
<path opacity="0.2" d="M270.283 251.775L269.766 246.337C266.837 245.901 264.036 244.84 261.553 243.226C261.553 243.226 263.306 245.995 268.105 247.306L268.603 254.231L268.898 265.587L270.283 251.775Z" fill="black"/>
<path d="M251.116 187.442C252.362 187.446 253.597 187.203 254.749 186.729C255.902 186.255 256.95 185.558 257.832 184.678C258.715 183.798 259.416 182.753 259.895 181.602C260.373 180.45 260.62 179.216 260.621 177.97V163.576C259.535 163.224 258.381 163.133 257.254 163.312C256.126 163.491 255.057 163.935 254.133 164.607C253.21 165.278 252.458 166.159 251.94 167.177C251.423 168.195 251.153 169.321 251.153 170.464L251.116 187.442Z" fill="#263238"/>
<path d="M285.759 214.014C285.759 214.014 280.508 207.237 278.828 204.514L285.943 219.544L285.759 214.014Z" fill="#E0E0E0"/>
<path d="M331.798 158.361C329.805 164.242 325.55 181.783 325.55 181.783C325.55 181.783 317.439 192.576 315.205 194.635C313.969 195.78 311.173 197.839 311.173 197.839L313.498 199.556C313.498 199.556 317.374 198.374 317.697 200.479C321.738 197.226 325.561 193.71 329.14 189.954C330.043 189.011 330.68 187.845 330.986 186.575L334.446 171.683C334.446 171.683 334.446 159.681 336.292 158.111C338.138 156.542 337.409 152.987 337.409 152.987C336.144 153.024 333.367 153.754 331.798 158.361Z" fill="#FFA8A7"/>
<path d="M337.473 152.396C338.038 153.984 338.723 155.527 339.522 157.012C340.334 158.406 334.123 183.472 333.708 185.337C333.293 187.202 321.25 198.068 321.25 198.068C319.074 197.147 317.345 195.411 316.433 193.231L325.126 181.912C325.126 181.912 327.83 170.039 329.251 164.592C330.672 159.144 332.185 152.986 337.473 152.396Z" fill="#066FA4"/>
<path opacity="0.1" d="M337.473 152.396C338.038 153.984 338.723 155.527 339.522 157.012C340.334 158.406 334.123 183.472 333.708 185.337C333.293 187.202 321.25 198.068 321.25 198.068C319.074 197.147 317.345 195.411 316.433 193.231L325.126 181.912C325.126 181.912 327.83 170.039 329.251 164.592C330.672 159.144 332.185 152.986 337.473 152.396Z" fill="black"/>
<path d="M362.907 270.192H356.908V280.477H362.907V270.192Z" fill="#FFA8A7"/>
<path d="M338.358 272.685L332.36 272.898L332.065 262.013L338.358 261.81V272.685Z" fill="#FFA8A7"/>
<path d="M362.065 196.805C362.065 202.538 362.462 235.886 362.462 235.886C362.601 237.529 364.188 240.502 364.308 246.411C364.483 255.034 363.154 275.336 363.154 275.336C362.118 275.845 360.982 276.12 359.828 276.143C358.674 276.165 357.529 275.934 356.473 275.466C356.473 275.466 351.757 246.753 350.687 238.213C349.764 230.771 346.507 210.894 346.507 210.894L341.892 236.061C342.588 239.193 342.84 242.406 342.64 245.608C342.354 249.55 338.699 269.317 338.699 269.317C337.654 269.909 336.491 270.263 335.294 270.356C334.096 270.449 332.893 270.277 331.769 269.852C331.769 269.852 331.409 238.822 331.345 235.203C331.262 231.076 333.061 195.559 333.061 195.559L362.065 196.805Z" fill="#37474F"/>
<path d="M356.908 277.514V276.656C356.585 276.656 356.391 276.97 356.262 277.736C356.177 278.308 356.06 278.875 355.911 279.435C355.647 280.486 355.298 281.514 354.868 282.509C354.019 284.605 353.309 285.38 351.362 287.827C350.702 288.505 350.086 289.223 349.516 289.978C349.156 290.624 349.027 292.415 349.645 292.831C351.906 294.345 355.348 294.382 357.785 293.671C358.691 293.416 359.506 292.907 360.133 292.204C360.759 291.5 361.171 290.632 361.319 289.701C361.411 289.147 361.374 288.575 361.439 288.021C361.653 286.754 362.169 285.557 362.943 284.531C363.392 283.939 363.779 283.301 364.097 282.629C364.595 281.401 364.198 280.007 363.875 278.779C363.598 277.717 363.294 276.554 362.952 276.656V277.302C362.098 277.979 361.034 278.338 359.944 278.317C359.03 278.354 356.899 278.179 356.908 277.514Z" fill="#263238"/>
<path d="M332.296 271.043C331.982 271.043 331.733 271.495 331.041 272.243C330.013 273.278 328.822 274.136 327.516 274.782C325.264 275.909 320.899 277.635 318.915 278.531C317.678 279.085 317.743 280.58 319.016 281.43C320.29 282.279 323.381 282.888 327.082 282.067C329.094 281.614 331.696 279.749 333.385 279.851C335.074 279.952 338.156 279.925 339.383 279.075C340.611 278.226 340.122 276.426 339.771 274.875C339.392 273.185 338.922 270.535 338.359 270.655V271.237C337.639 272.336 333.911 272.779 332.333 271.976L332.296 271.043Z" fill="#263238"/>
<path d="M346.517 210.892C343.409 209.932 340.549 208.303 338.138 206.119C338.138 206.119 339.753 209.147 344.597 211.954L342.272 234.343L346.517 210.892Z" fill="#263238"/>
<path d="M351.657 152.802C353.706 153.3 357.822 153.974 358.745 158.046C359.852 162.93 360.212 173.575 360.212 173.575L360.59 197.265C356.456 200.275 341.275 201.882 332.573 195.557C332.573 195.557 333.644 167.121 333.644 162.69C333.644 158.258 336.098 152.94 342.872 152.534L351.657 152.802Z" fill="#F5F5F5"/>
<path d="M342.983 152.091C341.117 153.655 339.766 155.747 339.107 158.092C338.277 161.674 338.184 201.678 338.184 201.678C338.184 201.678 333.939 200.894 331.955 199.333C331.955 199.333 332.205 167.758 332.611 162.533C333.229 154.621 333.164 152.377 343.011 151.5L342.983 152.091Z" fill="#066FA4"/>
<path d="M353.447 151.5C353.447 151.5 347.79 154.981 347.726 168.839C347.671 180.841 347.274 201.678 347.274 201.678C347.274 201.678 356.64 203.054 362.574 199.509C362.574 199.509 363.285 170.463 363.165 165.967C363.036 160.816 361.836 154.159 360.184 153.494C357.991 152.663 355.739 151.996 353.447 151.5Z" fill="#066FA4"/>
<path d="M374.488 183.316C368.859 160.29 364.697 152.609 357.877 152.701C355.874 155.083 356.428 162.303 359.584 166.679C359.584 166.679 366.625 181.525 367.742 186.806C368.729 191.422 369.846 197.285 369.781 201.273C369.758 201.978 369.479 202.651 368.997 203.166C367.714 204.56 367.705 205.686 366.875 207.228C366.219 208.428 365.509 208.881 365.712 209.158C365.981 209.443 366.347 209.618 366.738 209.647C367.129 209.676 367.517 209.557 367.825 209.314C368.426 208.877 368.963 208.358 369.421 207.773C369.201 209.249 368.775 210.688 368.157 212.047C366.708 215.306 367.059 216.968 371.461 215.805C374.229 215.076 375.946 212.786 376.352 206.157C376.555 203.718 376.58 201.268 376.426 198.826C375.826 192.548 375.401 187.027 374.488 183.316Z" fill="#FFA8A7"/>
<path d="M356.687 152.321C356.687 152.321 361.218 152.118 363.673 154.602C366.127 157.085 369.44 162.311 372.652 173.731C375.863 185.152 376.851 193.498 377.007 199.924C377.007 199.924 372.984 201.77 369.274 199.665C369.274 199.665 367.631 189.722 366.173 184.432C364.715 179.142 359.28 167.998 359.28 167.998C359.28 167.998 354.084 160.271 356.687 152.321Z" fill="#066FA4"/>
<path opacity="0.1" d="M356.687 152.321C356.687 152.321 361.218 152.118 363.673 154.602C366.127 157.085 369.44 162.311 372.652 173.731C375.863 185.152 376.851 193.498 377.007 199.924C377.007 199.924 372.984 201.77 369.274 199.665C369.274 199.665 367.631 189.722 366.173 184.432C364.715 179.142 359.28 167.998 359.28 167.998C359.28 167.998 354.084 160.271 356.687 152.321Z" fill="black"/>
<path opacity="0.1" d="M354.084 159.08L351.491 162.284L352.792 165.94L349.387 174.674L353.484 165.94L352.054 162.487L354.084 159.08Z" fill="black"/>
<path opacity="0.1" d="M335.811 158.046L336.374 161.36L334.132 164.287L337.251 174.11L334.833 164.398L336.9 161.665L335.811 158.046Z" fill="black"/>
<path d="M350.098 134.401C350.828 129.902 347.774 125.662 343.277 124.931C338.779 124.201 334.541 127.257 333.811 131.756C333.081 136.256 336.135 140.495 340.633 141.226C345.13 141.956 349.368 138.901 350.098 134.401Z" fill="#263238"/>
<path d="M356.207 138.935C356.207 138.935 354.869 145.222 354.361 146.256C354.002 146.89 353.415 147.362 352.719 147.576L352.811 143.154L356.207 138.935Z" fill="#263238"/>
<path d="M354.527 129.933C354.997 129.881 355.472 129.937 355.917 130.097C356.362 130.257 356.764 130.517 357.093 130.856C358.191 131.983 357.582 135.473 356.17 138.953L353.65 139.24L354.527 129.933Z" fill="#263238"/>
<path d="M352.903 139.23C353.41 139.525 354.13 138.556 354.748 137.91C354.992 137.623 355.305 137.405 355.657 137.274C356.009 137.144 356.389 137.107 356.76 137.166C357.131 137.226 357.48 137.38 357.775 137.613C358.069 137.847 358.298 138.153 358.44 138.501C359.473 140.679 357.517 143.56 355.948 144.04C353.18 144.908 352.774 143.117 352.774 143.117L352.571 153.374C350.66 155.821 346.378 158.701 344.071 158.286C342.226 157.963 341.829 154.851 343.591 152.811V149.801C342.371 149.995 341.134 150.057 339.9 149.986C337.87 149.672 336.596 148.075 335.978 145.877C334.991 142.35 334.612 139.507 335.452 132.564C336.375 124.957 345.216 124.883 349.987 127.883C354.758 130.884 352.903 139.23 352.903 139.23Z" fill="#FFA8A7"/>
<path d="M352.902 140.08C353.161 140.08 354.13 138.482 354.748 137.91C355.616 137.116 354.49 129.933 354.49 129.933C354.791 129.301 354.895 128.594 354.788 127.902C354.681 127.21 354.368 126.567 353.89 126.056C352.699 124.745 351.038 123.138 345.584 123.784C341.727 124.237 337.528 125.437 334.132 123.784C333.818 124.892 333.842 126.068 334.2 127.162C334.559 128.256 335.236 129.217 336.144 129.924C337.535 130.615 339.051 131.017 340.601 131.106C343.584 131.331 346.581 131.276 349.553 130.94C350.475 130.81 350.688 131.715 351.195 134.199C351.712 136.368 352.081 140.061 352.902 140.08Z" fill="#263238"/>
<path d="M354.527 130.497L357.582 128.853C357.484 128.647 357.345 128.463 357.174 128.312C357.003 128.161 356.803 128.047 356.587 127.975C356.37 127.903 356.142 127.876 355.914 127.896C355.687 127.915 355.466 127.98 355.265 128.087C354.86 128.32 354.558 128.699 354.421 129.146C354.284 129.593 354.322 130.076 354.527 130.497Z" fill="#263238"/>
<path d="M343.61 149.801C345.696 149.403 347.741 148.816 349.719 148.047C350.651 147.561 351.413 146.804 351.907 145.877C351.669 146.805 351.245 147.675 350.661 148.434C349.507 149.912 343.61 151.001 343.61 151.001V149.801Z" fill="#F28F8F"/>
<path d="M344.698 138.094C344.698 138.339 344.795 138.573 344.969 138.746C345.142 138.92 345.376 139.017 345.621 139.017C345.866 139.017 346.101 138.92 346.274 138.746C346.447 138.573 346.544 138.339 346.544 138.094C346.544 137.849 346.447 137.614 346.274 137.441C346.101 137.268 345.866 137.171 345.621 137.171C345.376 137.171 345.142 137.268 344.969 137.441C344.795 137.614 344.698 137.849 344.698 138.094Z" fill="#263238"/>
<path d="M345.658 134.67L347.596 135.74C347.734 135.473 347.764 135.163 347.68 134.875C347.596 134.586 347.404 134.341 347.144 134.19C347.016 134.12 346.875 134.077 346.729 134.064C346.584 134.051 346.437 134.067 346.299 134.112C346.16 134.157 346.031 134.229 345.921 134.325C345.811 134.421 345.722 134.538 345.658 134.67Z" fill="#263238"/>
<path d="M344.016 144.364L341.949 145.14C341.993 145.279 342.064 145.409 342.159 145.52C342.254 145.631 342.371 145.722 342.502 145.786C342.633 145.851 342.776 145.889 342.922 145.896C343.068 145.904 343.215 145.882 343.352 145.832C343.631 145.72 343.856 145.505 343.979 145.232C344.103 144.958 344.117 144.647 344.016 144.364Z" fill="#F28F8F"/>
<path d="M336.607 135.426L338.379 134.061C338.295 133.941 338.188 133.84 338.065 133.762C337.941 133.685 337.803 133.634 337.659 133.611C337.515 133.589 337.368 133.596 337.227 133.632C337.086 133.668 336.953 133.732 336.837 133.821C336.601 134.008 336.446 134.279 336.403 134.578C336.36 134.876 336.433 135.18 336.607 135.426Z" fill="#263238"/>
<path d="M337.15 137.799C337.15 138.044 337.248 138.278 337.421 138.452C337.594 138.625 337.829 138.722 338.073 138.722C338.318 138.722 338.553 138.625 338.726 138.452C338.899 138.278 338.996 138.044 338.996 137.799C338.996 137.554 338.899 137.319 338.726 137.146C338.553 136.973 338.318 136.876 338.073 136.876C337.829 136.876 337.594 136.973 337.421 137.146C337.248 137.319 337.15 137.554 337.15 137.799Z" fill="#263238"/>
<path d="M341.774 136.978L341.479 142.435L338.627 141.465L341.774 136.978Z" fill="#F28F8F"/>
<path d="M340.787 157.696C341.341 159.025 342.374 159.542 344.229 159.773C345.168 159.831 346.108 159.697 346.994 159.38C347.879 159.062 348.69 158.568 349.379 157.927L347.072 155.628L344.128 157.834L343.879 155.369L340.787 157.696Z" fill="#066FA4"/>
<path opacity="0.1" d="M340.787 157.696C341.341 159.025 342.374 159.542 344.229 159.773C345.168 159.831 346.108 159.697 346.994 159.38C347.879 159.062 348.69 158.568 349.379 157.927L347.072 155.628L344.128 157.834L343.879 155.369L340.787 157.696Z" fill="black"/>
<path d="M342.244 156.976C341.972 157.774 341.868 158.619 341.94 159.459C342.028 160.208 342.315 160.919 342.77 161.519C343.063 161.707 343.395 161.825 343.741 161.864C344.087 161.902 344.437 161.86 344.764 161.74C345.361 161.227 345.841 160.591 346.171 159.875C346.5 159.16 346.672 158.382 346.674 157.594L344.127 157.88L342.244 156.976Z" fill="#066FA4"/>
<path d="M342.752 161.518C342.752 161.518 339.734 178.136 339.614 179.502C339.494 180.869 341.34 185.614 342.493 185.651C343.647 185.688 345.899 181.377 345.926 180.112C345.954 178.847 344.745 161.693 344.745 161.693L342.752 161.518Z" fill="#066FA4"/>
<path opacity="0.1" d="M344.765 161.739C344.443 161.882 344.088 161.936 343.738 161.897C343.388 161.858 343.054 161.727 342.771 161.518V161.785C343.059 162.015 343.398 162.172 343.76 162.243C344.121 162.313 344.495 162.296 344.848 162.191L344.765 161.739Z" fill="black"/>
<path d="M344.128 157.88L352.618 151.417V149.497C352.618 149.497 354.593 150.245 355.036 153.726C353.674 156.744 351.346 159.223 348.419 160.77L346.638 157.594L344.128 157.88Z" fill="#E0E0E0"/>
<path d="M343.61 150.373C342.5 150.548 341.505 151.156 340.841 152.063C339.992 153.457 340.186 158.821 340.186 158.821L342.216 156.974L344.062 157.898C343.887 156.116 343.536 152.866 343.536 152.866L343.61 150.373Z" fill="#E0E0E0"/>
<path d="M310.453 209.14C311.246 208.026 311.71 206.71 311.791 205.345C312.031 203.6 316.812 201.725 316.969 203.027C317.126 204.329 317.56 205.41 316.046 206.989C314.533 208.567 312.677 210.313 310.453 209.14Z" fill="#FFA8A7"/>
<path d="M310.701 197.866C309.557 199.343 308.855 202.214 308.246 203.184C307.637 204.153 306.918 205.03 308.246 205.169C309.575 205.307 311.504 202.759 312.224 201.189C312.503 200.569 312.927 200.024 313.46 199.601C313.67 199.433 313.903 199.296 314.152 199.195C313.534 198.983 313.857 196.49 313.423 196.148C313.423 196.148 311.172 197.072 310.701 197.866Z" fill="#FFA8A7"/>
</svg>
