<?xml version="1.0" encoding="utf-8"?><svg width="60" height="525" viewBox="0 0 60 525" xmlns="http://www.w3.org/2000/svg" xmlns:xlink="http://www.w3.org/1999/xlink"><svg width="8" height="16" fill="none" viewBox="0 0 8 16" id="arr-left" xmlns="http://www.w3.org/2000/svg"><path fill-rule="evenodd" clip-rule="evenodd" d="M.502 7.35A.955.955 0 00.25 8c0 .238.087.472.252.65l5.71 6.149a.876.876 0 00.643.284c.24 0 .473-.1.645-.286a.963.963 0 00-.002-1.297L2.391 8l5.107-5.5A.963.963 0 007.5 1.201.87.87 0 006.212 1.2L.502 7.35z" fill="#fff"/></svg><svg width="9" height="5" fill="none" viewBox="0 0 9 5" id="arrow-down" y="16" xmlns="http://www.w3.org/2000/svg"><path d="M4.5 5c.161 0 .323-.06.446-.18l3.87-3.771a.603.603 0 000-.87.642.642 0 00-.892 0L4.5 3.518 1.076.18a.642.642 0 00-.891 0 .603.603 0 000 .869l3.87 3.771c.123.12.284.18.445.18z" fill="#52596F"/></svg><svg width="30" height="20" fill="none" viewBox="0 0 30 20" id="d-quotes" y="21" xmlns="http://www.w3.org/2000/svg"><path d="M23.813 6.963c.618-1.556 1.593-3.094 2.896-4.575a1.383 1.383 0 00.132-1.669 1.358 1.358 0 00-1.163-.637c-.131 0-.262.009-.394.056-2.756.806-9.197 3.665-9.375 12.834-.065 3.535 2.522 6.572 5.888 6.919a6.649 6.649 0 005.1-1.66 6.598 6.598 0 002.166-4.884c0-3.093-2.194-5.803-5.25-6.384zM6.834 19.89a6.64 6.64 0 005.09-1.658 6.598 6.598 0 002.166-4.885c0-3.093-2.194-5.803-5.25-6.384.619-1.556 1.594-3.094 2.897-4.575a1.383 1.383 0 00.13-1.669 1.358 1.358 0 00-1.162-.637c-.13 0-.262.009-.393.056C7.555.944 1.115 3.803.937 12.972v.132c0 3.478 2.559 6.44 5.897 6.787z" fill="#1C84E3"/></svg><svg width="60" height="52" fill="none" viewBox="0 0 60 52" id="fast" y="41" xmlns="http://www.w3.org/2000/svg"><g filter="url(#dfilter0_d_412_1970)"><path fill-rule="evenodd" clip-rule="evenodd" d="M47.45 24.53h.001a.743.743 0 010 .943L37.325 37.849a.74.74 0 01-.576.274h-9a.742.742 0 01-.575-1.215l9.737-11.905-9.74-11.905a.743.743 0 01.578-1.215h9c.224 0 .435.1.576.274L47.451 24.53zM36.397 36.632l9.515-11.63-9.515-11.629h-7.074L38.45 24.53a.743.743 0 010 .943l-9.13 11.16h7.075z" fill="url(#dpaint0_linear_412_1970)"/></g><g filter="url(#dfilter1_d_412_1970)"><path fill-rule="evenodd" clip-rule="evenodd" d="M32.798 24.53a.743.743 0 010 .943L22.674 37.849a.74.74 0 01-.576.274h-9a.742.742 0 01-.576-1.215l9.738-11.905-9.74-11.905a.743.743 0 01.578-1.215h9c.224 0 .434.1.576.274L32.798 24.53zM21.743 36.632l9.516-11.63-9.516-11.629H14.67L23.8 24.53a.743.743 0 010 .943l-9.13 11.16h7.074z" fill="url(#dpaint1_linear_412_1970)"/></g><defs><linearGradient id="dpaint0_linear_412_1970" x1="37.312" y1="11.883" x2="37.312" y2="38.123" gradientUnits="userSpaceOnUse"><stop stop-color="#36A9FC"/><stop offset="1" stop-color="#1C84E3"/></linearGradient><linearGradient id="dpaint1_linear_412_1970" x1="22.66" y1="11.883" x2="22.66" y2="38.123" gradientUnits="userSpaceOnUse"><stop stop-color="#36A9FC"/><stop offset="1" stop-color="#1C84E3"/></linearGradient><filter id="dfilter0_d_412_1970" x="15.004" y=".883" width="44.615" height="50.24" filterUnits="userSpaceOnUse" color-interpolation-filters="sRGB"><feFlood flood-opacity="0" result="BackgroundImageFix"/><feColorMatrix in="SourceAlpha" values="0 0 0 0 0 0 0 0 0 0 0 0 0 0 0 0 0 0 127 0" result="hardAlpha"/><feOffset dy="1"/><feGaussianBlur stdDeviation="6"/><feComposite in2="hardAlpha" operator="out"/><feColorMatrix values="0 0 0 0 0.111458 0 0 0 0 0.517167 0 0 0 0 0.891667 0 0 0 0.8 0"/><feBlend in2="BackgroundImageFix" result="effect1_dropShadow_412_1970"/><feBlend in="SourceGraphic" in2="effect1_dropShadow_412_1970" result="shape"/></filter><filter id="dfilter1_d_412_1970" x=".352" y=".883" width="44.615" height="50.24" filterUnits="userSpaceOnUse" color-interpolation-filters="sRGB"><feFlood flood-opacity="0" result="BackgroundImageFix"/><feColorMatrix in="SourceAlpha" values="0 0 0 0 0 0 0 0 0 0 0 0 0 0 0 0 0 0 127 0" result="hardAlpha"/><feOffset dy="1"/><feGaussianBlur stdDeviation="6"/><feComposite in2="hardAlpha" operator="out"/><feColorMatrix values="0 0 0 0 0.111458 0 0 0 0 0.517167 0 0 0 0 0.891667 0 0 0 0.8 0"/><feBlend in2="BackgroundImageFix" result="effect1_dropShadow_412_1970"/><feBlend in="SourceGraphic" in2="effect1_dropShadow_412_1970" result="shape"/></filter></defs></svg><svg width="48" height="61" fill="none" viewBox="0 0 48 61" id="flash" y="93" xmlns="http://www.w3.org/2000/svg"><g filter="url(#efilter0_d_412_2029)"><path d="M21 47.003c-.841 0-1.5-.659-1.5-1.5 0-.027.002-.128.005-.155l1.411-13.345H13.5c-.841 0-1.5-.659-1.5-1.5 0-.32.11-.648.302-.902l11.974-17.964c.305-.41.755-.634 1.224-.634.841 0 1.5.658 1.5 1.5 0 .03-.002.148-.005.178l-1.402 11.822H34.5c.842 0 1.5.658 1.5 1.5 0 .316-.11.645-.3.9L22.216 46.38a1.52 1.52 0 01-1.216.623zm4.505-34.499L13.524 30.47l8.226.033a.748.748 0 01.745.83l-1.5 14.174L34.5 26.003v-.006l-9.75.006a.75.75 0 01-.745-.839l1.5-12.66z" fill="url(#epaint0_linear_412_2029)"/></g><defs><linearGradient id="epaint0_linear_412_2029" x1="24" y1="11.003" x2="24" y2="47.003" gradientUnits="userSpaceOnUse"><stop stop-color="#36A9FC"/><stop offset="1" stop-color="#1C84E3"/></linearGradient><filter id="efilter0_d_412_2029" x="0" y=".003" width="48" height="60" filterUnits="userSpaceOnUse" color-interpolation-filters="sRGB"><feFlood flood-opacity="0" result="BackgroundImageFix"/><feColorMatrix in="SourceAlpha" values="0 0 0 0 0 0 0 0 0 0 0 0 0 0 0 0 0 0 127 0" result="hardAlpha"/><feOffset dy="1"/><feGaussianBlur stdDeviation="6"/><feComposite in2="hardAlpha" operator="out"/><feColorMatrix values="0 0 0 0 0.111458 0 0 0 0 0.517167 0 0 0 0 0.891667 0 0 0 0.8 0"/><feBlend in2="BackgroundImageFix" result="effect1_dropShadow_412_2029"/><feBlend in="SourceGraphic" in2="effect1_dropShadow_412_2029" result="shape"/></filter></defs></svg><svg width="60" height="52" fill="none" viewBox="0 0 60 52" id="laptop" y="154" xmlns="http://www.w3.org/2000/svg"><g filter="url(#ffilter0_d_412_1913)"><path d="M47.985 34.678a.778.778 0 00-.09-.285c-.01-.018-.012-.04-.022-.056L45 30.028V14.503c0-1.655-1.346-3-3-3H18c-1.654 0-3 1.345-3 3v15.523l-2.874 4.311c-.013.02-.015.042-.025.062a.66.66 0 00-.059.142.68.68 0 00-.028.145c-.002.023-.014.043-.014.067v.75c0 1.654 1.345 3 3 3h30c1.654 0 3-1.346 3-3v-.75c0-.027-.012-.05-.015-.075zM16.5 14.503c0-.827.674-1.5 1.5-1.5h24c.827 0 1.5.674 1.5 1.5v15h-27v-15zm-.35 16.5h27.697l1.999 3H33.75c-.2 0-.39.08-.528.219l-.531.531h-5.379l-.531-.531a.755.755 0 00-.531-.22H14.151l2-3zm28.85 6H15c-.826 0-1.5-.674-1.5-1.5h12.44l.527.531c.142.14.332.219.532.219h6c.199 0 .39-.078.53-.219l.531-.531H46.5c0 .826-.673 1.5-1.5 1.5z" fill="url(#fpaint0_linear_412_1913)"/></g><defs><linearGradient id="fpaint0_linear_412_1913" x1="30" y1="11.503" x2="30" y2="38.503" gradientUnits="userSpaceOnUse"><stop stop-color="#36A9FC"/><stop offset="1" stop-color="#1C84E3"/></linearGradient><filter id="ffilter0_d_412_1913" x="0" y=".503" width="60" height="51" filterUnits="userSpaceOnUse" color-interpolation-filters="sRGB"><feFlood flood-opacity="0" result="BackgroundImageFix"/><feColorMatrix in="SourceAlpha" values="0 0 0 0 0 0 0 0 0 0 0 0 0 0 0 0 0 0 127 0" result="hardAlpha"/><feOffset dy="1"/><feGaussianBlur stdDeviation="6"/><feComposite in2="hardAlpha" operator="out"/><feColorMatrix values="0 0 0 0 0.111458 0 0 0 0 0.517167 0 0 0 0 0.891667 0 0 0 0.8 0"/><feBlend in2="BackgroundImageFix" result="effect1_dropShadow_412_1913"/><feBlend in="SourceGraphic" in2="effect1_dropShadow_412_1913" result="shape"/></filter></defs></svg><svg width="20" height="20" fill="none" viewBox="0 0 20 20" id="location" y="206" xmlns="http://www.w3.org/2000/svg"><path d="M10.243 0C6.25 0 3 3.25 3 7.243c0 4.957 6.482 12.233 6.758 12.54.26.29.712.289.97 0 .277-.307 6.758-7.583 6.758-12.54C17.486 3.25 14.237 0 10.243 0zm0 10.887A3.648 3.648 0 016.6 7.243 3.648 3.648 0 0110.243 3.6a3.648 3.648 0 013.644 3.644 3.648 3.648 0 01-3.644 3.644z" fill="url(#gpaint0_linear_412_1579)"/><defs><linearGradient id="gpaint0_linear_412_1579" x1="10.243" y1="0" x2="10.243" y2="20" gradientUnits="userSpaceOnUse"><stop stop-color="#CCD2E6"/><stop offset="1" stop-color="#838BA3"/></linearGradient></defs></svg><svg width="20" height="20" fill="none" viewBox="0 0 20 20" id="mail" y="226" xmlns="http://www.w3.org/2000/svg"><path d="M10.335 12.723a1.076 1.076 0 01-.52.142c-.165 0-.354-.047-.52-.142L1 7.666v6.735c0 1.442 1.158 2.6 2.6 2.6h12.43c1.442 0 2.6-1.158 2.6-2.6V7.666l-8.295 5.057z" fill="url(#hpaint0_linear_412_1583)"/><path d="M16.03 4H3.599A2.607 2.607 0 001.07 6.032l8.744 5.341 8.745-5.34A2.607 2.607 0 0016.029 4z" fill="url(#hpaint1_linear_412_1583)"/><defs><linearGradient id="hpaint0_linear_412_1583" x1="9.815" y1="7.666" x2="9.815" y2="17.001" gradientUnits="userSpaceOnUse"><stop stop-color="#CCD2E6"/><stop offset="1" stop-color="#838BA3"/></linearGradient><linearGradient id="hpaint1_linear_412_1583" x1="9.814" y1="4" x2="9.814" y2="11.373" gradientUnits="userSpaceOnUse"><stop stop-color="#CCD2E6"/><stop offset="1" stop-color="#838BA3"/></linearGradient></defs></svg><svg width="18" height="26" fill="none" viewBox="0 0 18 26" id="ov-play-white" y="246" xmlns="http://www.w3.org/2000/svg"><path d="M16.637 12.207a1 1 0 010 1.585L1.944 25.094a1 1 0 01-1.61-.792V1.697a1 1 0 011.61-.793l14.693 11.303z" fill="#fff"/></svg><svg width="24" height="33" fill="none" viewBox="0 0 24 33" id="partn-line-round" y="272" xmlns="http://www.w3.org/2000/svg"><path d="M.76 1s.368 10.133 6.425 18.758c6.058 8.624 16.232 12.474 16.232 12.474" stroke="#9AA2BA"/></svg><svg width="24" height="30" fill="none" viewBox="0 0 24 30" id="pdf" y="305" xmlns="http://www.w3.org/2000/svg"><path d="M6.652 15.512H5.38V13.67h1.215c.089 0 .177.02.266.057a.59.59 0 01.237.162.78.78 0 01.162.285c.044.113.066.25.066.408 0 .303-.066.534-.2.693a.602.602 0 01-.474.237z" fill="url(#kpaint0_linear_421_318)"/><path d="M13.905 14.857c.082.24.123.51.123.807 0 .29-.041.56-.123.807-.076.24-.19.452-.342.636-.146.177-.33.316-.55.417a1.807 1.807 0 01-.76.152h-.959V13.67h.959c.278 0 .528.048.75.143.221.095.408.23.56.408.152.177.265.39.341.636z" fill="url(#kpaint1_linear_421_318)"/><path fill-rule="evenodd" clip-rule="evenodd" d="M15.809 6.738c0 .486.393.88.879.88h6.738v19.745A2.64 2.64 0 0120.789 30H3.211a2.64 2.64 0 01-2.637-2.637V2.637A2.64 2.64 0 013.211 0h12.598v6.738zM3.823 12.303v6.74H5.38v-2.174h1.367a2.007 2.007 0 001.557-.703c.19-.214.335-.458.436-.73.108-.272.162-.557.162-.854 0-.279-.057-.554-.171-.826a2.368 2.368 0 00-.456-.731c-.19-.215-.42-.39-.693-.522-.266-.133-.56-.2-.883-.2H3.823zm5.914 0v6.74h2.516c.506 0 .965-.08 1.376-.237a3.076 3.076 0 001.063-.684c.298-.297.526-.652.684-1.063.158-.418.237-.883.237-1.395 0-.462-.073-.896-.218-1.3a2.915 2.915 0 00-.636-1.073 2.963 2.963 0 00-1.044-.722c-.418-.177-.905-.266-1.462-.266H9.737zm6.795 0v6.74h1.557v-2.658h2.487v-1.262h-2.487V13.67h3.018v-1.367h-4.575z" fill="url(#kpaint2_linear_421_318)"/><path d="M17.566.515v5.344h5.345L17.566.515z" fill="url(#kpaint3_linear_421_318)"/><defs><linearGradient id="kpaint0_linear_421_318" x1="12" y1="0" x2="12" y2="30" gradientUnits="userSpaceOnUse"><stop stop-color="#CCD2E6"/><stop offset="1" stop-color="#838BA3"/></linearGradient><linearGradient id="kpaint1_linear_421_318" x1="12" y1="0" x2="12" y2="30" gradientUnits="userSpaceOnUse"><stop stop-color="#CCD2E6"/><stop offset="1" stop-color="#838BA3"/></linearGradient><linearGradient id="kpaint2_linear_421_318" x1="12" y1="0" x2="12" y2="30" gradientUnits="userSpaceOnUse"><stop stop-color="#CCD2E6"/><stop offset="1" stop-color="#838BA3"/></linearGradient><linearGradient id="kpaint3_linear_421_318" x1="12" y1="0" x2="12" y2="30" gradientUnits="userSpaceOnUse"><stop stop-color="#CCD2E6"/><stop offset="1" stop-color="#838BA3"/></linearGradient></defs></svg><svg width="24" height="30" fill="none" viewBox="0 0 24 30" id="pdf-white" y="335" xmlns="http://www.w3.org/2000/svg"><path d="M6.652 15.512H5.38V13.67h1.215c.089 0 .177.02.266.057a.59.59 0 01.237.162.78.78 0 01.162.285c.044.113.066.25.066.408 0 .303-.066.534-.2.693a.602.602 0 01-.474.237zM13.905 14.857c.082.24.123.51.123.807 0 .29-.041.56-.123.807-.076.24-.19.452-.342.636-.146.177-.33.316-.55.417a1.807 1.807 0 01-.76.152h-.959V13.67h.959c.278 0 .528.048.75.143.221.095.408.23.56.408.152.177.265.39.341.636z" fill="#fff"/><path fill-rule="evenodd" clip-rule="evenodd" d="M15.809 6.738c0 .486.393.88.879.88h6.738v19.745A2.64 2.64 0 0120.789 30H3.211a2.64 2.64 0 01-2.637-2.637V2.637A2.64 2.64 0 013.211 0h12.598v6.738zM3.823 12.303v6.74H5.38v-2.174h1.367a2.007 2.007 0 001.557-.703c.19-.214.335-.458.436-.73.108-.272.162-.557.162-.854 0-.279-.057-.554-.171-.826a2.368 2.368 0 00-.456-.731c-.19-.215-.42-.39-.693-.522-.266-.133-.56-.2-.883-.2H3.823zm5.914 0v6.74h2.516c.506 0 .965-.08 1.376-.237a3.076 3.076 0 001.063-.684c.298-.297.526-.652.684-1.063.158-.418.237-.883.237-1.395 0-.462-.073-.896-.218-1.3a2.915 2.915 0 00-.636-1.073 2.963 2.963 0 00-1.044-.722c-.418-.177-.905-.266-1.462-.266H9.737zm6.795 0v6.74h1.557v-2.658h2.487v-1.262h-2.487V13.67h3.018v-1.367h-4.575z" fill="#fff"/><path d="M17.566.515v5.344h5.345L17.566.515z" fill="#fff"/></svg><svg width="16" height="15" fill="none" viewBox="0 0 16 15" id="phone" y="365" xmlns="http://www.w3.org/2000/svg"><path d="M10.5 10.66l1.292-1.292a1.263 1.263 0 011.35-.277l1.574.63a1.258 1.258 0 01.784 1.153v2.884a1.252 1.252 0 01-1.315 1.24C3.155 14.312.93 4.967.508 1.39A1.252 1.252 0 011.759 0h2.785a1.245 1.245 0 011.153.785l.629 1.574a1.246 1.246 0 01-.271 1.35L4.763 5.001s.744 5.036 5.738 5.66z" fill="#D9DCE3"/></svg><svg width="32" height="22" fill="none" viewBox="0 0 32 22" id="play" y="380" xmlns="http://www.w3.org/2000/svg"><path fill-rule="evenodd" clip-rule="evenodd" d="M31.34 3.442a3.974 3.974 0 00-2.82-2.77C26.016 0 16 0 16 0S5.983 0 3.48.647C2.134 1.01 1.027 2.097.658 3.442 0 5.902 0 11 0 11s0 5.125.659 7.558a3.974 3.974 0 002.82 2.77C6.01 22 16 22 16 22s10.017 0 12.521-.647a3.973 3.973 0 002.82-2.77c.656-2.445.66-7.501.66-7.557 0-.001 0 .002 0 0 0-.055.023-5.138-.66-7.584zM14.975 14.883l4.778-3.408a.579.579 0 000-.95l-4.778-3.408c-.403-.288-.974-.01-.974.475v6.816c0 .485.57.763.974.476z" fill="#D9DCE3"/></svg><svg width="33" height="22" fill="none" viewBox="0 0 33 22" id="play-transp" y="402" xmlns="http://www.w3.org/2000/svg"><path fill-rule="evenodd" clip-rule="evenodd" d="M31.84 3.442a3.974 3.974 0 00-2.82-2.77C26.516 0 16.5 0 16.5 0S6.483 0 3.98.647c-1.345.362-2.452 1.45-2.821 2.795C.5 5.902.5 11 .5 11s0 5.125.659 7.558a3.974 3.974 0 002.82 2.77C6.51 22 16.5 22 16.5 22s10.017 0 12.521-.647a3.973 3.973 0 002.82-2.77c.656-2.445.66-7.501.66-7.557 0-.001 0 .002 0 0 0-.055.023-5.138-.66-7.584zM15.475 14.883l4.778-3.408a.579.579 0 000-.95l-4.778-3.408c-.403-.288-.974-.01-.974.475v6.816c0 .485.57.763.974.476z" fill="#fff"/></svg><svg width="24" height="24" fill="none" viewBox="0 0 24 24" id="soc-inst" y="424" xmlns="http://www.w3.org/2000/svg"><path d="M12 16.076A4.073 4.073 0 017.923 12 4.073 4.073 0 0112 7.924 4.088 4.088 0 0116.077 12 4.073 4.073 0 0112 16.076z" fill="#fff"/><path fill-rule="evenodd" clip-rule="evenodd" d="M0 6.919A6.919 6.919 0 016.919 0H17.08A6.919 6.919 0 0124 6.919V17.08A6.919 6.919 0 0117.081 24H6.92A6.919 6.919 0 010 17.081V6.92zm12-1.153A6.233 6.233 0 005.767 12 6.237 6.237 0 0012 18.235 6.238 6.238 0 0018.235 12 6.236 6.236 0 0012 5.766zm5.42-.84c0-.802.636-1.44 1.438-1.44.8 0 1.44.638 1.44 1.44 0 .801-.638 1.438-1.44 1.438a1.429 1.429 0 01-1.439-1.438z" fill="#fff"/></svg><svg width="20" height="20" fill="none" viewBox="0 0 20 20" id="soc-inst-320" y="448" xmlns="http://www.w3.org/2000/svg"><path d="M10 13.396A3.394 3.394 0 016.602 10 3.394 3.394 0 0110 6.604 3.406 3.406 0 0113.398 10 3.394 3.394 0 0110 13.396z" fill="#fff"/><path fill-rule="evenodd" clip-rule="evenodd" d="M0 5.766A5.766 5.766 0 015.766 0h8.468A5.766 5.766 0 0120 5.766v8.468A5.766 5.766 0 0114.234 20H5.766A5.766 5.766 0 010 14.234V5.766zm10-.961A5.195 5.195 0 004.806 10 5.197 5.197 0 0010 15.196a5.197 5.197 0 000-10.391zm4.516-.7c0-.668.53-1.2 1.2-1.2.666 0 1.2.532 1.2 1.2 0 .667-.532 1.198-1.2 1.198a1.19 1.19 0 01-1.2-1.198z" fill="#fff"/></svg><svg width="30" height="22" fill="none" viewBox="0 0 30 22" id="soc-yt" y="468" xmlns="http://www.w3.org/2000/svg"><path d="M29.382 3.786a3.758 3.758 0 00-2.644-2.644C24.39.5 15 .5 15 .5s-9.39 0-11.738.618A3.834 3.834 0 00.618 3.786C0 6.133 0 11 0 11s0 4.892.618 7.214a3.759 3.759 0 002.644 2.644C5.634 21.5 15 21.5 15 21.5s9.39 0 11.738-.618a3.758 3.758 0 002.644-2.643C30 15.892 30 11.025 30 11.025s.025-4.892-.618-7.239zM12.01 15.496V6.504L19.819 11l-7.81 4.496z" fill="#fff"/></svg><svg width="26" height="18" fill="none" viewBox="0 0 26 18" id="soc-yt-320" y="490" xmlns="http://www.w3.org/2000/svg"><path d="M24.985 2.988A3.132 3.132 0 0022.782.785C20.825.25 13 .25 13 .25s-7.825 0-9.782.515a3.195 3.195 0 00-2.203 2.223C.5 4.944.5 9 .5 9s0 4.076.515 6.012a3.132 3.132 0 002.203 2.203c1.977.535 9.782.535 9.782.535s7.825 0 9.782-.515a3.132 3.132 0 002.203-2.203c.515-1.956.515-6.011.515-6.011s.02-4.077-.515-6.033zm-14.477 9.759V5.253L17.016 9l-6.508 3.747z" fill="#fff"/></svg><svg width="16" height="17" fill="none" viewBox="0 0 16 17" id="user" y="508" xmlns="http://www.w3.org/2000/svg"><path d="M8 .5c2.21 0 4 1.79 4 4s-1.79 4-4 4-4-1.79-4-4 1.79-4 4-4zm0 16s8 0 8-2c0-2.4-3.9-5-8-5s-8 2.6-8 5c0 2 8 2 8 2z" fill="#D9DCE3"/></svg></svg>