<?xml version="1.0" encoding="utf-8"?>
<!-- Generator: Adobe Illustrator 24.0.1, SVG Export Plug-In . SVG Version: 6.00 Build 0)  -->
<svg version="1.1" id="Слой_1" xmlns="http://www.w3.org/2000/svg" xmlns:xlink="http://www.w3.org/1999/xlink" x="0px" y="0px"
	 viewBox="0 0 406 432" style="enable-background:new 0 0 406 432;" xml:space="preserve">
<style type="text/css">
	.st0{fill:#EBEBEB;}
</style>
<path class="st0" d="M392.2,116.4c-0.5-2.1-1.6-3.9-3.2-5.3c-1.5-1.4-3.4-2.4-5.5-2.7c-1.7-0.2-3.5,0.2-5,1.1
	c-1.5,0.9-2.7,2.3-3.3,3.9c-1-1.4-2.4-2.4-4-2.9c-1.6-0.5-3.3-0.5-5,0c-1.9,0.7-3.6,2-4.8,3.7c-1.3,1.7-2,3.7-2.1,5.8
	c-0.1,2.7,0.8,5.3,2.3,7.5c1.8,2.2,4.1,4,6.6,5.1c4.2,2,9.8,4.5,9.8,4.5s4.1-3.7,7.8-6.5c2.3-1.6,4.2-3.8,5.5-6.3
	C392.5,121.7,392.8,119,392.2,116.4z"/>
</svg>
