<?xml version="1.0" encoding="utf-8"?>
<!-- Generator: Adobe Illustrator 24.0.1, SVG Export Plug-In . SVG Version: 6.00 Build 0)  -->
<svg version="1.1" id="Слой_1" xmlns="http://www.w3.org/2000/svg" xmlns:xlink="http://www.w3.org/1999/xlink" x="0px" y="0px"
	 viewBox="0 0 22.1 22.1" style="enable-background:new 0 0 22.1 22.1;" xml:space="preserve">
<style type="text/css">
	.st0{fill:#066FA4;}
	.st1{opacity:0.5;fill:#FFFFFF;enable-background:new    ;}
	.st2{fill:#FFFFFF;}
</style>
<path class="st0" d="M20.6,16.5c3-5.3,1.2-12-4.1-15.1c-5.3-3-12-1.2-15.1,4.1c-3,5.3-1.2,12,4.1,15.1
	C10.9,23.7,17.6,21.8,20.6,16.5z"/>
<path class="st1" d="M20.6,16.5c3-5.3,1.2-12-4.1-15.1c-5.3-3-12-1.2-15.1,4.1c-3,5.3-1.2,12,4.1,15.1
	C10.9,23.7,17.6,21.8,20.6,16.5z"/>
<path class="st2" d="M11.9,7.6c0.2,0.4,0.3,0.8,0.2,1.3C12,9.3,11.8,9.7,11.5,10c-0.3,0.3-0.7,0.6-1.1,0.7c-0.4,0.1-0.9,0.1-1.3-0.1
	c-0.4-0.1-0.8-0.4-1-0.8C7.8,9.5,7.7,9.1,7.6,8.7c0-0.4,0.1-0.9,0.3-1.3c0.2-0.4,0.6-0.7,1-0.9c0.3-0.1,0.6-0.2,0.8-0.2
	c0.3,0,0.6,0,0.9,0.1c0.3,0.1,0.5,0.2,0.7,0.4C11.6,7.1,11.7,7.3,11.9,7.6z"/>
<path class="st2" d="M17.1,13.7c-1.4-2.8-4.2-4.3-6.4-3.3c-2.2,1.1-2.8,4.2-1.5,7L17.1,13.7z"/>
</svg>
