<?xml version="1.0" encoding="utf-8"?>
<!-- Generator: Adobe Illustrator 24.0.1, SVG Export Plug-In . SVG Version: 6.00 Build 0)  -->
<svg version="1.1" id="Слой_1" xmlns="http://www.w3.org/2000/svg" xmlns:xlink="http://www.w3.org/1999/xlink" x="0px" y="0px"
	 viewBox="0 0 22.1 22.1" style="enable-background:new 0 0 22.1 22.1;" xml:space="preserve">
<style type="text/css">
	.st0{fill:#066FA4;}
	.st1{opacity:0.5;fill:#FFFFFF;enable-background:new    ;}
	.st2{fill:#FFFFFF;}
</style>
<path class="st0" d="M11,22.1c6.1,0,11-4.9,11-11S17.1,0,11,0C4.9,0,0,4.9,0,11S4.9,22.1,11,22.1z"/>
<path class="st1" d="M11,22.1c6.1,0,11-4.9,11-11S17.1,0,11,0C4.9,0,0,4.9,0,11S4.9,22.1,11,22.1z"/>
<path class="st2" d="M14.1,16.1l0.8,0.7l1.5-1.5l-0.7-0.8c0.4-0.6,0.7-1.2,0.8-1.9l1.1-0.1v-2.1l-1.1-0.1c-0.1-0.7-0.4-1.3-0.8-1.9
	l0.7-0.8l-1.5-1.5l-0.8,0.7c-0.6-0.4-1.2-0.7-1.9-0.8l-0.1-1.1H10L9.9,5.9C9.2,6.1,8.5,6.4,8,6.8L7.1,6.1L5.7,7.6l0.7,0.8
	C6,9,5.7,9.6,5.5,10.3l-1.1,0.1v2.1l1.1,0.1c0.1,0.7,0.4,1.3,0.8,1.9l-0.7,0.8l1.5,1.5L8,16.1c0.6,0.4,1.2,0.7,1.9,0.8L10,18h2.1
	l0.1-1.1C12.9,16.8,13.5,16.5,14.1,16.1z M8.2,11.5c0-0.6,0.2-1.1,0.5-1.6C9,9.4,9.4,9.1,9.9,8.8c0.5-0.2,1.1-0.3,1.6-0.2
	c0.6,0.1,1.1,0.4,1.5,0.8c0.4,0.4,0.7,0.9,0.8,1.5c0.1,0.6,0.1,1.1-0.2,1.6c-0.2,0.5-0.6,1-1,1.3c-0.5,0.3-1,0.5-1.6,0.5
	c-0.4,0-0.7-0.1-1.1-0.2C9.6,14,9.3,13.7,9,13.5c-0.3-0.3-0.5-0.6-0.6-0.9C8.3,12.2,8.2,11.8,8.2,11.5z"/>
</svg>
