<?xml version="1.0" encoding="utf-8"?>
<!-- Generator: Adobe Illustrator 24.0.1, SVG Export Plug-In . SVG Version: 6.00 Build 0)  -->
<svg version="1.1" id="Слой_1" xmlns="http://www.w3.org/2000/svg" xmlns:xlink="http://www.w3.org/1999/xlink" x="0px" y="0px"
	 viewBox="0 0 407 370" style="enable-background:new 0 0 407 370;" xml:space="preserve">
<style type="text/css">
	.st0{fill:#F5F5F5;}
	.st1{fill:#E0E0E0;}
	.st2{fill:#066FA4;}
	.st3{opacity:0.3;fill:#FFFFFF;enable-background:new    ;}
	.st4{opacity:0.1;enable-background:new    ;}
	.st5{opacity:0.6;fill:#FFFFFF;enable-background:new    ;}
	.st6{fill:#37474F;}
	.st7{fill:#263238;}
	.st8{opacity:0.2;}
	.st9{opacity:0.8;}
	.st10{fill:#FFFFFF;}
	.st11{opacity:0.6;}
	.st12{fill:#455A64;}
	.st13{opacity:0.3;}
	.st14{opacity:0.45;enable-background:new    ;}
	.st15{opacity:0.3;enable-background:new    ;}
	.st16{opacity:0.2;enable-background:new    ;}
	.st17{opacity:0.25;enable-background:new    ;}
	.st18{fill:#F0F0F0;}
	.st19{fill:#FAFAFA;}
	.st20{opacity:0.45;fill:#FFFFFF;enable-background:new    ;}
	.st21{opacity:0.2;fill:#066FA4;enable-background:new    ;}
	.st22{opacity:0.25;}
	.st23{opacity:0.5;fill:#066FA4;enable-background:new    ;}
	.st24{opacity:0.5;}
	.st25{opacity:0.7;fill:#FFFFFF;enable-background:new    ;}
	.st26{fill:#9E6767;}
	.st27{fill:#874C4C;}
	.st28{fill:#FFA8A7;}
	.st29{fill:#F28F8F;}
</style>
<path class="st0" d="M60.1,335.4c-79.4-45.9-79.4-120.1,0-166c79.4-45.9,208-45.9,287.4,0c79.4,45.9,79.4,120.1,0,166
	C268.1,381.3,139.4,381.2,60.1,335.4z"/>
<path class="st1" d="M11.9,173.9l42,24.3l44.3-25.6l-42.1-24.2L11.9,173.9z"/>
<path class="st1" d="M0,201.3l24.5,14.1l25.9-14.9l-24.6-14.1L0,201.3z"/>
<path class="st1" d="M137.6,356.9c1.5,0,3-0.3,4.4-1.1l3.3-1.9c0.7-0.3,1.3-0.8,1.7-1.4c0.4-0.6,0.6-1.3,0.6-2.1
	c0-0.7-0.2-1.5-0.6-2.1c-0.4-0.6-1-1.1-1.7-1.4L101.9,322c3.9-4.3,5.6-9.1,5-14.1c-0.8-6.3-5.4-12.2-13-16.6
	c-8.2-4.8-19.1-7.4-30.7-7.4c-11.6,0-22.5,2.6-30.7,7.4c-8.5,4.9-13.1,11.4-13.1,18.5c0,7,4.6,13.6,13.1,18.5
	c8.2,4.7,19.1,7.4,30.7,7.4c11.1,0,21.7-2.4,29.8-6.9l39.7,26.7C134.2,356.4,135.9,356.9,137.6,356.9z"/>
<path class="st1" d="M385.7,240.7c16.3-9.3,16.3-24.4,0-33.7c-16.3-9.3-42.6-9.3-58.9,0c-16.3,9.3-16.3,24.4,0,33.7
	C343.1,250,369.5,250,385.7,240.7z"/>
<path class="st2" d="M26,298.7V309c0,5.6,3.7,11.2,11.1,15.5c14.8,8.6,38.9,8.6,53.7,0c7.4-4.3,11.1-9.9,11.1-15.5v-10.3
	c0-5.6-3.7-11.2-11.1-15.5c-14.8-8.6-38.9-8.6-53.7,0C29.7,287.5,26,293.1,26,298.7z M98.3,298.7c0,4.5-3.3,8.9-9.3,12.3
	c-6.6,3.8-15.5,5.9-25,5.9s-18.3-2.1-25-5.9c-6-3.5-9.3-7.8-9.3-12.3s3.3-8.9,9.3-12.3c6.6-3.8,15.5-5.9,25-5.9
	c9.5,0,18.3,2.1,25,5.9C95,289.8,98.3,294.2,98.3,298.7z"/>
<path class="st3" d="M90.8,283.2c-14.8-8.6-38.9-8.6-53.7,0c-14.8,8.6-14.8,22.4,0,31c14.8,8.6,38.9,8.6,53.7,0
	C105.6,305.6,105.6,291.7,90.8,283.2z M89,311c-6.6,3.8-15.5,5.9-25,5.9s-18.3-2.1-25-5.9c-6-3.5-9.3-7.8-9.3-12.3s3.3-8.9,9.3-12.3
	c6.6-3.8,15.5-5.9,25-5.9s18.3,2.1,25,5.9c6,3.5,9.3,7.8,9.3,12.3S95,307.5,89,311z"/>
<path class="st2" d="M98.3,298.7c0,1.8-0.5,3.6-1.5,5.2c-1.5-2.6-4.2-5.1-7.8-7.2c-6.6-3.8-15.5-5.9-25-5.9s-18.3,2.1-25,5.9
	c-3.6,2.1-6.3,4.5-7.8,7.1c-0.9-1.6-1.5-3.3-1.5-5.2c0-4.5,3.3-8.9,9.3-12.3c6.6-3.8,15.5-5.9,25-5.9s18.3,2.1,25,5.9
	C95,289.8,98.3,294.2,98.3,298.7z"/>
<path class="st4" d="M98.3,298.7c0,1.8-0.5,3.6-1.5,5.2c-1.5-2.6-4.2-5.1-7.8-7.2c-6.6-3.8-15.5-5.9-25-5.9s-18.3,2.1-25,5.9
	c-3.6,2.1-6.3,4.5-7.8,7.1c-0.9-1.6-1.5-3.3-1.5-5.2c0-4.5,3.3-8.9,9.3-12.3c6.6-3.8,15.5-5.9,25-5.9s18.3,2.1,25,5.9
	C95,289.8,98.3,294.2,98.3,298.7z"/>
<path class="st5" d="M89,291c-6.6-3.8-15.5-5.9-25-5.9s-18.3,2.1-25,5.9c-4.9,2.9-8,6.3-9,10c0.9,3.7,4,7.1,9,10
	c6.6,3.8,15.5,5.9,25,5.9s18.3-2.1,25-5.9c4.9-2.9,8-6.3,9-10C97.1,297.4,93.9,293.9,89,291z"/>
<path class="st4" d="M72.9,320v10.3c6.3-0.8,12.4-2.8,17.9-5.8c7.4-4.3,11.1-9.9,11.1-15.5v-10.3c0-1.1-0.2-2.3-0.4-3.4
	c1.8,6.7-1.8,13.7-10.7,18.9C85.3,317.2,79.2,319.2,72.9,320z"/>
<path class="st6" d="M89.7,320.8c0-0.9,0.3-1.8,0.8-2.6c0.5-0.8,1.1-1.5,1.9-2c0.3-0.2,0.6-0.3,0.9-0.4c0.3,0,0.7,0,1,0.2l12.8,7.3
	c0.3,0.2,0.5,0.5,0.6,0.8c0.1,0.3,0.2,0.6,0.2,1c0,0.9-0.3,1.8-0.8,2.6c-0.5,0.8-1.1,1.5-1.9,2c-0.3,0.2-0.6,0.3-0.9,0.4
	c-0.3,0-0.7,0-1-0.2l-12.8-7.3c-0.3-0.2-0.5-0.4-0.6-0.7C89.7,321.4,89.7,321.1,89.7,320.8z"/>
<path class="st7" d="M90.5,322.5c-0.3-0.2-0.5-0.4-0.7-0.7s-0.2-0.6-0.2-1c0-0.7,0.2-1.4,0.5-2l16.5,9.4c-0.4,0.6-0.9,1-1.5,1.4
	c-0.3,0.2-0.6,0.3-0.9,0.4c-0.3,0-0.7,0-1-0.2L90.5,322.5L90.5,322.5z"/>
<path class="st2" d="M103,329.5c0.1-1.2,0.4-2.4,1-3.4c0.6-1,1.4-1.9,2.4-2.6c0.3-0.2,0.7-0.4,1.2-0.4c0.4,0,0.8,0,1.2,0.2
	l33.3,17.4l-6.3,11.2l-31.7-20.1c-0.4-0.2-0.7-0.6-0.9-1C103,330.4,102.9,330,103,329.5z"/>
<path class="st4" d="M135.7,351.9L104,331.8c-0.4-0.2-0.6-0.6-0.8-1c-0.2-0.4-0.3-0.8-0.2-1.3c0-1.3,0.4-2.6,1.1-3.6l34.9,20.2
	L135.7,351.9z"/>
<path class="st2" d="M138.9,351.5c1.3-0.9,2.4-2,3.2-3.4s1.2-2.9,1.3-4.5c0-2.9-2.1-4.1-4.6-2.6c-1.3,0.9-2.4,2-3.2,3.4
	c-0.8,1.4-1.2,2.9-1.3,4.5C134.4,351.8,136.4,353,138.9,351.5z"/>
<g class="st8">
	<path d="M138.9,351.5c1.3-0.9,2.4-2,3.2-3.4s1.2-2.9,1.3-4.5c0-2.9-2.1-4.1-4.6-2.6c-1.3,0.9-2.4,2-3.2,3.4
		c-0.8,1.4-1.2,2.9-1.3,4.5C134.4,351.8,136.4,353,138.9,351.5z"/>
</g>
<path class="st2" d="M90.8,132.5l-34.6-20l-36.8,21.3l34.6,20L90.8,132.5z"/>
<g class="st9">
	<path class="st10" d="M90.8,132.5l-34.6-20l-36.8,21.3l34.6,20L90.8,132.5z"/>
</g>
<path class="st2" d="M54,194.3L90.8,173v-40.5L54,153.8V194.3z"/>
<g class="st11">
	<path class="st10" d="M54,194.3L90.8,173v-40.5L54,153.8V194.3z"/>
</g>
<path class="st12" d="M58,185.2c-0.2,0-0.3,0-0.5-0.1c-0.2-0.1-0.4-0.3-0.5-0.6c-0.1-0.2-0.1-0.5-0.1-0.7v-3.9v-0.3l0.2,0l3-1.8v4.3
	c0,0.6-0.1,1.1-0.4,1.6c-0.3,0.5-0.6,0.9-1.1,1.2C58.5,185.1,58.3,185.2,58,185.2z M57.4,180.2v3.6c0,0.2,0,0.3,0.1,0.5
	c0.1,0.2,0.2,0.3,0.3,0.4c0.1,0,0.2,0.1,0.3,0s0.2-0.1,0.3-0.1c0.4-0.3,0.7-0.6,0.9-1.1c0.2-0.4,0.3-0.9,0.3-1.4v-0.3h-1.1l-0.2-1.5
	L57.4,180.2z M59,181.4h0.7v-2.7l-1.8,1l0.9,0.2L59,181.4z"/>
<path class="st12" d="M58.6,188.3C58.5,188.3,58.5,188.3,58.6,188.3c-0.1,0-0.2,0-0.2-0.1c0,0,0-0.1-0.1-0.1c0,0,0-0.1,0-0.1v-3.3
	c0-0.1,0-0.1,0.1-0.1c0,0,0.1-0.1,0.2-0.1c0.1,0,0.1,0,0.2,0.1c0,0,0.1,0.1,0.1,0.1v3.3c0,0,0,0.1,0,0.1c0,0,0,0.1-0.1,0.1
	C58.7,188.2,58.7,188.3,58.6,188.3C58.6,188.3,58.6,188.3,58.6,188.3z"/>
<path class="st12" d="M57.2,189.1c0,0-0.1,0-0.1,0c0,0-0.1-0.1-0.1-0.1c0,0,0-0.1,0-0.1c0,0,0-0.1,0-0.1c0,0,0-0.1,0-0.1
	c0,0,0,0,0.1-0.1l2.8-1.7c0,0,0.1,0,0.1,0c0,0,0.1,0,0.1,0c0,0,0.1,0,0.1,0c0,0,0,0,0.1,0.1c0,0,0,0.1,0,0.1c0,0,0,0.1,0,0.1
	c0,0,0,0.1,0,0.1c0,0,0,0-0.1,0.1l-2.8,1.7C57.2,189.1,57.2,189.1,57.2,189.1z"/>
<path class="st12" d="M67.3,183.5c-0.1,0-0.2,0-0.3-0.1c-0.1-0.1-0.2-0.2-0.2-0.3s-0.1-0.2-0.1-0.3v-0.7c0-0.1,0-0.1,0.1-0.2
	c0,0,0.1-0.1,0.2-0.1c0.1,0,0.1,0,0.2,0.1c0,0,0.1,0.1,0.1,0.2v0.7c0,0.1,0,0.2,0,0.2c0,0,0.1,0,0.1,0c0,0,0.1,0,0.1,0
	c0.2-0.1,0.3-0.3,0.4-0.5c0.1-0.2,0.1-0.4,0.1-0.6v-4.3c0-0.1,0-0.1,0.1-0.2c0,0,0.1-0.1,0.2-0.1c0.1,0,0.1,0,0.2,0.1
	c0,0,0.1,0.1,0.1,0.2v4.3c0,0.3,0,0.6-0.2,0.8c-0.1,0.3-0.3,0.5-0.5,0.7C67.5,183.4,67.4,183.5,67.3,183.5z"/>
<path class="st12" d="M64.7,179.7v-0.4c0.1-1.1,0.4-2.1,0.9-3.1c0.5-0.9,1.3-1.7,2.2-2.3c0.3-0.3,0.7-0.4,1.1-0.5
	c0.4,0,0.8,0.1,1.2,0.3c0.4,0.2,0.7,0.5,0.8,0.9c0.2,0.4,0.2,0.8,0.2,1.2v0.1L64.7,179.7z M69.3,173.9c-0.4,0-0.9,0.2-1.2,0.4
	c-0.8,0.5-1.4,1.2-1.9,2c-0.5,0.8-0.8,1.7-0.9,2.6l5.5-3.2c0-0.3,0-0.6-0.2-0.9c-0.1-0.3-0.3-0.5-0.6-0.7
	C69.7,173.9,69.5,173.9,69.3,173.9z"/>
<path class="st12" d="M76,178.5c-0.1,0-0.1,0-0.2-0.1c0,0-0.1-0.1-0.1-0.2v-8.3c0-0.1,0-0.1,0.1-0.1c0,0,0.1-0.1,0.2-0.1
	c0.1,0,0.1,0,0.2,0.1c0,0,0.1,0.1,0.1,0.1v8.3c0,0.1,0,0.1-0.1,0.2C76.1,178.5,76.1,178.5,76,178.5z"/>
<path class="st12" d="M75.3,171.8C75.3,171.8,75.2,171.8,75.3,171.8c-0.2,0-0.2-0.1-0.2-0.1c0-0.1,0-0.1,0-0.2l0.8-2l1,1.1
	c0,0,0,0,0.1,0.1c0,0,0,0.1,0,0.1c0,0,0,0.1,0,0.1c0,0,0,0.1-0.1,0.1c0,0-0.1,0.1-0.2,0.1s-0.1,0-0.2-0.1l-0.5-0.5l-0.6,1.3
	c0,0-0.1,0.1-0.1,0.1C75.4,171.8,75.3,171.8,75.3,171.8z"/>
<path class="st12" d="M78.3,177.2C78.2,177.2,78.2,177.2,78.3,177.2c-0.1,0-0.1,0-0.2-0.1c0,0,0,0-0.1-0.1c0,0,0-0.1,0-0.1v-8.3
	c0,0,0-0.1,0-0.1c0,0,0-0.1,0.1-0.1c0,0,0,0,0.1-0.1c0,0,0.1,0,0.1,0c0.1,0,0.1,0,0.2,0.1c0,0,0.1,0.1,0.1,0.2v8.3
	c0,0.1,0,0.1-0.1,0.2C78.4,177.2,78.3,177.2,78.3,177.2z"/>
<path class="st12" d="M77.6,170.5h-0.1c0,0-0.1,0-0.1-0.1c0,0,0-0.1-0.1-0.1c0,0,0-0.1,0-0.1c0,0,0-0.1,0-0.1l0.8-2l1,1.1
	c0,0,0,0.1,0,0.1c0,0,0,0.1,0,0.1c0,0,0,0.1,0,0.1c0,0,0,0.1-0.1,0.1c0,0-0.1,0-0.1,0c0,0-0.1,0-0.1,0c0,0-0.1,0-0.1,0
	c0,0-0.1,0-0.1-0.1l-0.5-0.5l-0.5,1.3c0,0,0,0.1-0.1,0.1C77.7,170.5,77.6,170.5,77.6,170.5z"/>
<path class="st2" d="M54,194.3l-34.6-20v-40.5l34.6,20V194.3z"/>
<g class="st13">
	<path class="st10" d="M54,194.3l-34.6-20v-40.5l34.6,20V194.3z"/>
</g>
<path class="st12" d="M33.8,142.1l36.8-21.3l5.8,3.3l-36.8,21.3L33.8,142.1z"/>
<path class="st6" d="M33.8,142.1v6.7l0.8-0.5l1.1,1.6l0.7-0.6l1.2,1.6l0.8-0.6l1.3,1.8v-6.7L33.8,142.1z"/>
<path class="st2" d="M81.6,107.4L52.3,90.5l-31.1,18l29.3,16.9L81.6,107.4z"/>
<g class="st9">
	<path class="st10" d="M81.6,107.4L52.3,90.5l-31.1,18l29.3,16.9L81.6,107.4z"/>
</g>
<path class="st2" d="M50.5,148l31.1-18v-22.6l-31.1,18V148z"/>
<g class="st11">
	<path class="st10" d="M50.5,148l31.1-18v-22.6l-31.1,18V148z"/>
</g>
<path class="st12" d="M53.8,140.3c-0.1,0-0.3,0-0.4-0.1c-0.2-0.1-0.3-0.3-0.4-0.5c-0.1-0.2-0.1-0.4-0.1-0.6v-3.3v-0.3h0.2l2.6-1.5
	v3.7c0,0.5-0.1,0.9-0.3,1.4c-0.2,0.4-0.5,0.8-0.9,1C54.2,140.2,54,140.2,53.8,140.3z M53.4,136v3c0,0.1,0,0.3,0,0.4
	c0.1,0.1,0.1,0.3,0.2,0.3c0.1,0,0.2,0.1,0.3,0c0.1,0,0.2-0.1,0.3-0.1c0.3-0.2,0.6-0.5,0.8-0.9c0.2-0.4,0.3-0.7,0.3-1.1v-0.3h-1
	l-0.2-1.2L53.4,136z M54.7,137h0.6v-2.3l-1.6,0.9l0.8,0.1L54.7,137z"/>
<path class="st12" d="M54.3,142.9c-0.1,0-0.1,0-0.1-0.1c0,0-0.1-0.1-0.1-0.1v-2.8c0,0,0-0.1,0-0.1s0-0.1,0-0.1c0,0,0,0,0.1-0.1
	c0,0,0.1,0,0.1,0c0,0,0.1,0,0.1,0s0.1,0,0.1,0.1c0,0,0,0.1,0,0.1s0,0.1,0,0.1v2.8c0,0.1,0,0.1-0.1,0.1
	C54.4,142.8,54.4,142.9,54.3,142.9z"/>
<path class="st12" d="M53.1,143.6c0,0-0.1,0-0.1,0c0,0-0.1,0-0.1-0.1c0,0,0-0.1,0-0.2c0-0.1,0-0.1,0.1-0.1l2.4-1.4c0,0,0.1,0,0.1,0
	c0,0,0.1,0,0.1,0.1c0,0,0,0.1,0,0.1c0,0,0,0.1-0.1,0.1L53.1,143.6L53.1,143.6z"/>
<path class="st12" d="M61.6,138.8c-0.1,0-0.2,0-0.2-0.1c-0.1-0.1-0.1-0.1-0.2-0.2c0-0.1-0.1-0.2-0.1-0.3v-0.6c0-0.1,0-0.1,0.1-0.1
	c0,0,0.1-0.1,0.1-0.1c0.1,0,0.1,0,0.1,0.1c0,0,0.1,0.1,0.1,0.1v0.6c0,0.1,0,0.1,0,0.1s0.1,0,0.1,0c0.1-0.1,0.2-0.3,0.3-0.4
	c0.1-0.2,0.1-0.3,0.1-0.5v-3.7c0,0,0-0.1,0-0.1c0,0,0-0.1,0-0.1c0,0,0,0,0.1-0.1s0.1,0,0.1,0s0.1,0,0.1,0c0,0,0.1,0,0.1,0.1
	c0,0,0,0.1,0,0.1s0,0.1,0,0.1v3.7c0,0.2,0,0.5-0.1,0.7c-0.1,0.2-0.3,0.4-0.4,0.6C61.8,138.8,61.7,138.8,61.6,138.8z"/>
<path class="st12" d="M59.5,135.6v-0.4c0.1-0.9,0.3-1.8,0.8-2.6c0.5-0.8,1.1-1.5,1.9-2c0.3-0.2,0.6-0.4,1-0.4c0.4,0,0.7,0,1,0.2
	c0.3,0.2,0.6,0.5,0.7,0.8c0.1,0.3,0.2,0.7,0.1,1.1v0.1L59.5,135.6z M63.4,130.7c-0.4,0-0.7,0.1-1,0.3c-0.7,0.4-1.2,1-1.6,1.7
	c-0.4,0.7-0.7,1.4-0.8,2.2l4.6-2.7c0-0.3,0-0.5-0.1-0.8c-0.1-0.2-0.3-0.4-0.5-0.6C63.7,130.8,63.5,130.7,63.4,130.7z"/>
<path class="st12" d="M69.1,134.6c-0.1,0-0.1,0-0.1-0.1s-0.1-0.1-0.1-0.1v-7c0-0.1,0-0.1,0.1-0.1c0,0,0.1-0.1,0.1-0.1s0.1,0,0.1,0.1
	c0,0,0.1,0.1,0.1,0.1v7c0,0.1,0,0.1-0.1,0.1S69.1,134.6,69.1,134.6z"/>
<path class="st12" d="M68.5,129L68.5,129c-0.1,0-0.1,0-0.2,0c0,0,0,0,0-0.1c0,0,0-0.1,0-0.1c0,0,0-0.1,0-0.1L69,127l0.8,0.9
	c0,0,0.1,0.1,0.1,0.1c0,0.1,0,0.1-0.1,0.1c0,0,0,0-0.1,0s-0.1,0-0.1,0c0,0-0.1,0-0.1,0c0,0,0,0-0.1,0l-0.4-0.4l-0.5,1.1
	c0,0-0.1,0.1-0.1,0.1C68.5,129,68.5,129,68.5,129z"/>
<path class="st12" d="M71,133.5c-0.1,0-0.1,0-0.1-0.1s-0.1-0.1-0.1-0.1v-7c0-0.1,0-0.1,0.1-0.1c0,0,0.1-0.1,0.1-0.1
	c0.1,0,0.1,0,0.1,0.1c0,0,0.1,0.1,0.1,0.1v7c0,0.1,0,0.1-0.1,0.1C71.1,133.5,71,133.5,71,133.5z"/>
<path class="st12" d="M70.4,127.8L70.4,127.8c-0.1,0-0.1,0-0.2,0c0,0,0,0,0-0.1c0,0,0-0.1,0-0.1c0,0,0-0.1,0-0.1l0.7-1.7l0.8,0.9
	c0,0,0,0.1,0,0.1c0,0.1,0,0.1-0.1,0.1c0,0-0.1,0.1-0.1,0.1c-0.1,0-0.1,0-0.1-0.1l-0.4-0.5l-0.5,1.1c0,0-0.1,0.1-0.1,0.1
	C70.4,127.8,70.4,127.8,70.4,127.8z"/>
<path class="st2" d="M50.5,148L21.2,131v-22.6l29.3,16.9V148z"/>
<g class="st13">
	<path class="st10" d="M50.5,148L21.2,131v-22.6l29.3,16.9V148z"/>
</g>
<path class="st12" d="M33.4,115.5l31.1-18l4.9,2.8l-31.1,18L33.4,115.5z"/>
<path class="st6" d="M33.4,115.5v5.6l0.7-0.4l0.9,1.3l0.6-0.5l1,1.4l0.6-0.5l1.1,1.5v-5.6L33.4,115.5z"/>
<path class="st2" d="M44.5,172.3l-19-11L5.4,173l19,11L44.5,172.3z"/>
<g class="st9">
	<path class="st10" d="M44.5,172.3l-19-11L5.4,173l19,11L44.5,172.3z"/>
</g>
<path class="st2" d="M24.3,211.5l20.1-11.7v-27.5L24.3,184V211.5z"/>
<g class="st11">
	<path class="st10" d="M24.3,211.5l20.1-11.7v-27.5L24.3,184V211.5z"/>
</g>
<path class="st12" d="M26.5,206.5c-0.1,0-0.2,0-0.3-0.1c-0.1-0.1-0.2-0.2-0.3-0.3c-0.1-0.1-0.1-0.3-0.1-0.4v-2.1v-0.2h0.1l1.7-1v2.4
	c0,0.3-0.1,0.6-0.2,0.9c-0.1,0.3-0.4,0.5-0.6,0.7C26.8,206.4,26.7,206.5,26.5,206.5z M26.2,203.7v2c0,0.2,0.1,0.4,0.2,0.5
	c0.1,0,0.1,0,0.2,0c0.1,0,0.1,0,0.2,0c0.2-0.2,0.4-0.4,0.5-0.6c0.1-0.2,0.2-0.5,0.2-0.7v-0.2h-0.6l-0.1-0.8L26.2,203.7z M27,204.4
	h0.4v-1.5l-1,0.6l0.5,0.1L27,204.4z"/>
<path class="st12" d="M26.8,208.2C26.8,208.2,26.8,208.2,26.8,208.2C26.8,208.2,26.7,208.1,26.8,208.2c-0.1-0.1-0.1-0.1-0.1-0.1
	c0,0,0,0,0-0.1v-1.8c0,0,0-0.1,0-0.1c0,0,0.1,0,0.1,0c0,0,0.1,0,0.1,0c0,0,0,0.1,0,0.1v1.8c0,0,0,0,0,0.1
	C26.9,208.1,26.9,208.1,26.8,208.2C26.9,208.1,26.9,208.2,26.8,208.2C26.9,208.2,26.8,208.2,26.8,208.2z"/>
<path class="st12" d="M26.1,208.6C26,208.6,26,208.6,26.1,208.6c-0.1,0-0.1,0-0.1-0.1c0,0,0-0.1,0-0.1c0,0,0-0.1,0.1-0.1l1.6-0.9
	c0,0,0,0,0,0c0,0,0,0,0.1,0c0,0,0,0,0,0c0,0,0,0,0,0c0,0,0,0.1,0,0.1c0,0,0,0.1-0.1,0.1L26.1,208.6
	C26.1,208.6,26.1,208.6,26.1,208.6C26.1,208.6,26.1,208.6,26.1,208.6z"/>
<path class="st12" d="M31.6,205.5c-0.1,0-0.1,0-0.2,0c-0.1,0-0.1-0.1-0.1-0.1c0-0.1,0-0.1,0-0.2v-0.4c0,0,0-0.1,0-0.1
	c0,0,0.1,0,0.1,0s0.1,0,0.1,0c0,0,0,0.1,0,0.1v0.4c0,0.1,0,0.1,0,0.1s0,0,0.1,0c0.1-0.1,0.1-0.2,0.2-0.3c0-0.1,0.1-0.2,0.1-0.3v-2.4
	c0,0,0-0.1,0-0.1c0,0,0.1,0,0.1,0c0,0,0.1,0,0.1,0c0,0,0,0.1,0,0.1v2.4c0,0.2,0,0.3-0.1,0.5c-0.1,0.1-0.2,0.3-0.3,0.4
	C31.7,205.5,31.7,205.5,31.6,205.5z"/>
<path class="st12" d="M30.2,203.5v-0.2c0-0.6,0.2-1.2,0.5-1.7c0.3-0.5,0.7-1,1.2-1.3c0.2-0.1,0.4-0.2,0.6-0.3c0.2,0,0.5,0,0.7,0.1
	c0.2,0.1,0.4,0.3,0.5,0.5c0.1,0.2,0.1,0.4,0.1,0.7v0.1L30.2,203.5z M32.7,200.3c-0.2,0-0.5,0.1-0.7,0.2c-0.4,0.3-0.8,0.6-1.1,1.1
	c-0.3,0.4-0.4,0.9-0.5,1.4l3-1.7c0-0.2,0-0.3-0.1-0.5c-0.1-0.1-0.2-0.3-0.3-0.4C32.9,200.4,32.8,200.3,32.7,200.3L32.7,200.3z"/>
<path class="st12" d="M36.4,202.8C36.4,202.8,36.4,202.8,36.4,202.8C36.3,202.8,36.3,202.8,36.4,202.8c-0.1-0.1-0.1-0.1-0.1-0.1
	c0,0,0,0,0-0.1v-4.5c0,0,0-0.1,0-0.1c0,0,0.1,0,0.1,0s0.1,0,0.1,0c0,0,0,0.1,0,0.1v4.5c0,0,0,0,0,0.1
	C36.5,202.7,36.5,202.8,36.4,202.8C36.5,202.8,36.5,202.8,36.4,202.8C36.4,202.8,36.4,202.8,36.4,202.8z"/>
<path class="st12" d="M36,199.2L36,199.2c-0.1,0-0.1,0-0.1-0.1c0,0,0-0.1,0-0.1l0.5-1.1l0.5,0.6c0,0,0,0,0,0c0,0,0,0,0,0.1
	s0,0,0,0.1c0,0,0,0,0,0c0,0,0,0,0,0c0,0,0,0,0,0s0,0,0,0c0,0,0,0,0,0l-0.3-0.3l-0.3,0.7C36.1,199.1,36.1,199.2,36,199.2
	C36,199.2,36,199.2,36,199.2z"/>
<path class="st12" d="M37.6,202.1C37.6,202.1,37.6,202.1,37.6,202.1C37.6,202.1,37.5,202.1,37.6,202.1c-0.1-0.1-0.1-0.1-0.1-0.1
	c0,0,0,0,0-0.1v-4.6c0,0,0-0.1,0-0.1c0,0,0.1,0,0.1,0s0.1,0,0.1,0c0,0,0,0.1,0,0.1v4.6c0,0,0,0,0,0.1C37.7,202,37.7,202,37.6,202.1
	C37.7,202.1,37.7,202.1,37.6,202.1C37.7,202.1,37.6,202.1,37.6,202.1z"/>
<path class="st12" d="M37.2,198.4L37.2,198.4c-0.1,0-0.1,0-0.1-0.1c0,0,0-0.1,0-0.1l0.5-1.1l0.5,0.6c0,0,0,0.1,0,0.1s0,0.1,0,0.1
	c0,0-0.1,0-0.1,0s-0.1,0-0.1,0l-0.3-0.3l-0.3,0.7C37.4,198.4,37.3,198.4,37.2,198.4C37.3,198.4,37.3,198.5,37.2,198.4z"/>
<path class="st2" d="M24.3,211.5l-19-11V173l19,11V211.5z"/>
<g class="st13">
	<path class="st10" d="M24.3,211.5l-19-11V173l19,11V211.5z"/>
</g>
<path class="st12" d="M13.3,177.6l20.2-11.7l3.2,1.8l-20.2,11.7L13.3,177.6z"/>
<path class="st6" d="M13.3,177.6v3.6l0.4-0.3l0.6,0.9l0.4-0.3l0.6,0.9l0.4-0.3l0.7,1v-3.6L13.3,177.6z"/>
<path class="st2" d="M382.8,273.6l-143.5,83c-0.8,0.4-1.8,0.6-2.7,0.6s-1.9-0.2-2.7-0.6L23.5,235c-0.8-0.5-1.4-1.2-1.9-2
	c-0.5-0.8-0.7-1.7-0.8-2.6v-0.6c0.1-0.9,0.3-1.8,0.8-2.6c0.5-0.8,1.1-1.5,1.9-2L167,142.1c0.8-0.4,1.8-0.6,2.7-0.6
	c0.9,0,1.9,0.2,2.7,0.6l210.4,121.5c0.8,0.5,1.4,1.2,1.9,2c0.5,0.8,0.7,1.7,0.8,2.6v0.6c-0.1,0.9-0.3,1.8-0.8,2.6
	C384.2,272.4,383.5,273.1,382.8,273.6z"/>
<path class="st14" d="M382.8,273.6l-143.5,83c-0.8,0.4-1.8,0.6-2.7,0.6s-1.9-0.2-2.7-0.6L23.5,235c-0.8-0.5-1.4-1.2-1.9-2
	c-0.5-0.8-0.7-1.7-0.8-2.6v-0.6c0.1-0.9,0.3-1.8,0.8-2.6c0.5-0.8,1.1-1.5,1.9-2L167,142.1c0.8-0.4,1.8-0.6,2.7-0.6
	c0.9,0,1.9,0.2,2.7,0.6l210.4,121.5c0.8,0.5,1.4,1.2,1.9,2c0.5,0.8,0.7,1.7,0.8,2.6v0.6c-0.1,0.9-0.3,1.8-0.8,2.6
	C384.2,272.4,383.5,273.1,382.8,273.6z"/>
<path class="st2" d="M172.2,142c-2-1.2-4.2-0.5-6.2,0.7L24.5,224.5c-2,1.2-2.1,3.1,0,4.3L233,349.1c1.1,0.6,2.4,1,3.7,1
	c1.3,0,2.6-0.3,3.7-1l141.5-81.8c0.4-0.2,0.7-0.5,0.9-0.9c0.2-0.4,0.3-0.8,0.3-1.2c0-0.4-0.1-0.9-0.3-1.2c-0.2-0.4-0.5-0.7-0.9-0.9
	L172.2,142z"/>
<path class="st15" d="M172.2,142c-2-1.2-4.2-0.5-6.2,0.7L24.5,224.5c-2,1.2-2.1,3.1,0,4.3L233,349.1c1.1,0.6,2.4,1,3.7,1
	c1.3,0,2.6-0.3,3.7-1l141.5-81.8c0.4-0.2,0.7-0.5,0.9-0.9c0.2-0.4,0.3-0.8,0.3-1.2c0-0.4-0.1-0.9-0.3-1.2c-0.2-0.4-0.5-0.7-0.9-0.9
	L172.2,142z"/>
<path class="st2" d="M382.8,263.6l-0.9-0.5c0.4,0.2,0.7,0.5,0.9,0.9c0.2,0.4,0.3,0.8,0.3,1.2c0,0.4-0.1,0.9-0.3,1.2
	c-0.2,0.4-0.5,0.7-0.9,0.9l-141.5,81.8c-1.1,0.7-2.4,1-3.7,1h-0.1v7.1c1,0,1.9-0.2,2.7-0.7l143.5-83c0.8-0.5,1.4-1.2,1.9-2
	c0.5-0.8,0.7-1.7,0.8-2.6v-0.6c0-0.9-0.3-1.8-0.8-2.7C384.2,264.8,383.6,264.1,382.8,263.6z"/>
<path class="st16" d="M382.8,263.6l-0.9-0.5c0.4,0.2,0.7,0.5,0.9,0.9c0.2,0.4,0.3,0.8,0.3,1.2c0,0.4-0.1,0.9-0.3,1.2
	c-0.2,0.4-0.5,0.7-0.9,0.9l-141.5,81.8c-1.1,0.7-2.4,1-3.7,1h-0.1v7.1c1,0,1.9-0.2,2.7-0.7l143.5-83c0.8-0.5,1.4-1.2,1.9-2
	c0.5-0.8,0.7-1.7,0.8-2.6v-0.6c0-0.9-0.3-1.8-0.8-2.7C384.2,264.8,383.6,264.1,382.8,263.6z"/>
<path class="st17" d="M184.8,153.2c-2.1-1.2-4.3-0.5-6.4,0.7L44.6,231.1c-2.1,1.2-2.1,3.2,0,4.4l188,108.6c1.2,0.7,2.5,1,3.8,1
	c1.3,0,2.6-0.4,3.8-1L374,266.9c0.4-0.2,0.7-0.5,0.9-0.9s0.3-0.8,0.3-1.3s-0.1-0.9-0.3-1.3s-0.5-0.7-0.9-0.9l-2.5-1.4L184.8,153.2z"
	/>
<path class="st0" d="M237.6,343l133.2-77c0.3-0.2,0.6-0.5,0.8-0.9c0.2-0.3,0.3-0.7,0.3-1.1v-1.5c0-0.4-0.1-0.8-0.3-1.1
	c-0.2-0.3-0.5-0.6-0.8-0.9L181.1,151c-0.4-0.2-0.7-0.3-1.1-0.3c-0.4,0-0.8,0.1-1.1,0.3L45.6,228c-0.3,0.2-0.6,0.5-0.8,0.9
	c-0.2,0.3-0.3,0.7-0.3,1.1v1.5c0,0.4,0.1,0.8,0.3,1.1c0.2,0.3,0.5,0.6,0.8,0.9L235.3,343c0.4,0.2,0.7,0.3,1.1,0.3
	S237.2,343.2,237.6,343z"/>
<path class="st1" d="M45.4,228.2c-0.1,0.1-0.2,0.2-0.3,0.3l-0.1,0.2c-0.1,0.2-0.2,0.4-0.3,0.6c-0.1,0.1-0.1,0.3-0.1,0.4
	c0,0.1,0,0.2,0,0.3v1.5c0,0.4,0.1,0.8,0.3,1.1c0.2,0.3,0.5,0.6,0.8,0.9L235.3,343c0.4,0.2,0.7,0.3,1.1,0.3v-4.1
	c-0.4,0-0.8-0.1-1.1-0.3L45.6,229.3C45,229,44.9,228.5,45.4,228.2z"/>
<path class="st18" d="M371.1,260.8c0.3,0.4,0.2,0.8-0.3,1.1l-133.3,77c-0.3,0.2-0.7,0.3-1.1,0.3v4.1c0.4,0,0.8-0.1,1.1-0.3l133.3-77
	c0.3-0.2,0.6-0.5,0.8-0.8c0.2-0.3,0.3-0.7,0.3-1.1v-1.5c0-0.3-0.1-0.7-0.2-1C371.6,261.3,371.4,261,371.1,260.8z"/>
<path class="st2" d="M222,174.7L181.1,151c-0.4-0.2-0.7-0.3-1.1-0.3c-0.4,0-0.8,0.1-1.1,0.3L45.6,228c-0.3,0.2-0.6,0.5-0.8,0.9
	c-0.2,0.3-0.3,0.7-0.3,1.1v1.5c0,0.4,0.1,0.8,0.3,1.1c0.2,0.3,0.5,0.6,0.8,0.9L82.9,255L222,174.7z"/>
<path class="st5" d="M222,174.7L181.1,151c-0.4-0.2-0.7-0.3-1.1-0.3c-0.4,0-0.8,0.1-1.1,0.3L45.6,228c-0.3,0.2-0.6,0.5-0.8,0.9
	c-0.2,0.3-0.3,0.7-0.3,1.1v1.5c0,0.4,0.1,0.8,0.3,1.1c0.2,0.3,0.5,0.6,0.8,0.9L82.9,255L222,174.7z"/>
<path class="st2" d="M86.5,253l-40.9-23.7c-0.5-0.3-0.6-0.8-0.2-1.1c-0.1,0.1-0.2,0.2-0.3,0.3l-0.1,0.2c-0.1,0.2-0.2,0.4-0.3,0.6
	c-0.1,0.1-0.1,0.3-0.1,0.4c0,0.1,0,0.2,0,0.3v1.5c0,0.4,0.1,0.8,0.3,1.1c0.2,0.3,0.5,0.6,0.8,0.9l40.9,23.6L86.5,253z"/>
<path class="st10" d="M87.7,241.2l-10.2-5.9c-0.2-0.1-0.3-0.3-0.3-0.4s0.1-0.2,0.3-0.4l2.8-1.6c0.9-0.5,1.9-0.8,3-0.9
	c1.3,0,2.7,0.3,3.8,1.1c1,0.6,1.5,1.1,1.7,1.6c0.1,0.2,0.1,0.5,0.1,0.7c0,0.2-0.1,0.5-0.3,0.6c-0.3,0.4-0.6,0.7-1,0.9l-1.1,0.6
	l3.7,2.2c0.4,0.2,0.2,0.5-0.5,0.8l-0.6,0.3C88.6,241.3,88.1,241.4,87.7,241.2z M85.2,235.9c0.1,0,0.2-0.1,0.3-0.2
	c0.1-0.1,0.1-0.2,0.1-0.3c0-0.2-0.3-0.5-0.8-0.8c-0.4-0.3-0.9-0.4-1.4-0.5c-0.3,0-0.7,0-1,0.2l-0.8,0.5l2.9,1.7L85.2,235.9z"/>
<path class="st10" d="M95.5,236.7l-10.2-5.9c-0.2-0.1-0.3-0.3-0.3-0.4c0-0.1,0.1-0.2,0.3-0.4l2.7-1.6c1-0.6,2-0.9,3.1-1
	c1.2,0,2.3,0.3,3.3,0.9c1.3,0.7,1.7,1.6,1.2,2.5h0.1c0.4-0.1,0.9-0.1,1.3,0c0.5,0.1,0.9,0.2,1.4,0.3l4.1,1.2l0.3,0.1
	c0.3,0.2,0.1,0.4-0.6,0.8l-0.6,0.3c-0.2,0.1-0.4,0.2-0.7,0.3c-0.2,0.1-0.5,0.1-0.7,0l-3.9-1.3c-0.3-0.1-0.6-0.1-0.8-0.1
	c-0.3,0-0.5,0.1-0.7,0.3l-0.4,0.2l3.7,2.1c0.4,0.2,0.2,0.5-0.5,0.8l-0.6,0.3C96.3,236.8,95.8,236.9,95.5,236.7z M92.9,231.3
	c0.1,0,0.2-0.1,0.2-0.2c0-0.1,0-0.2,0-0.3c-0.1-0.2-0.3-0.5-0.8-0.7c-0.4-0.2-0.8-0.4-1.2-0.4c-0.3,0-0.7,0-1,0.2l-0.8,0.5l2.7,1.6
	L92.9,231.3z"/>
<path class="st10" d="M98.4,229.1c-3.9-2.2-4.4-4.2-1.6-5.8c1.4-0.8,3-1.2,4.6-1c1.9,0.2,3.8,0.9,5.5,1.9c2,1.2,3.1,2.2,3.3,3.2
	c0.2,1-0.4,1.8-1.7,2.6C105.6,231.6,102.2,231.3,98.4,229.1z M106.9,228c0-0.3-0.2-0.6-0.6-1c-0.6-0.5-1.3-1-2-1.4
	c-0.8-0.5-1.6-0.8-2.4-1.2c-0.5-0.2-1.1-0.3-1.7-0.3c-0.4,0-0.9,0.1-1.3,0.4c-0.4,0.2-0.6,0.5-0.6,0.7c0,0.3,0.2,0.6,0.6,1
	c0.6,0.5,1.3,1,2,1.4c0.8,0.5,1.6,0.8,2.4,1.2c0.5,0.2,1.1,0.3,1.7,0.3c0.4,0,0.9-0.1,1.3-0.4C106.7,228.5,106.9,228.3,106.9,228z"
	/>
<path class="st10" d="M114,226.4c-0.2,0-0.4-0.1-0.6-0.2l-10-5.8c-0.2-0.1-0.3-0.3-0.3-0.4c0-0.1,0.1-0.2,0.3-0.3l3.1-1.8
	c1.4-0.8,2.9-1.1,4.5-1c1.9,0.3,3.6,0.9,5.2,1.9c1.9,1.1,3,2.1,3.3,3c0.3,0.9-0.3,1.8-1.7,2.6l-3.1,1.8
	C114.5,226.3,114.2,226.4,114,226.4z M115.5,223.3c0.6-0.3,0.7-0.7,0.4-1.2c-0.7-0.8-1.5-1.4-2.4-1.8c-1-0.6-2-1.1-3.1-1.4
	c-0.7-0.2-1.4-0.1-2,0.3l-1,0.6l7.1,4.1L115.5,223.3z"/>
<path class="st10" d="M123.5,220.2c-1.2,0.1-2.5-0.2-3.6-0.8l-7.5-4.3c-0.3-0.2-0.2-0.5,0.4-0.8l0.6-0.4c0.6-0.4,1.1-0.4,1.5-0.2
	l7.4,4.2c0.4,0.3,0.9,0.4,1.5,0.4c0.5,0,1-0.1,1.4-0.3c0.4-0.2,0.6-0.5,0.6-0.8c0-0.2-0.1-0.4-0.2-0.5c-0.1-0.1-0.3-0.3-0.4-0.3
	l-7.4-4.3c-0.3-0.2-0.2-0.5,0.4-0.8l0.6-0.4c0.6-0.4,1.1-0.4,1.5-0.2l7.5,4.3c1.1,0.6,1.6,1.3,1.5,2.1c-0.1,0.7-0.7,1.5-2,2.2
	C126.1,219.8,124.8,220.1,123.5,220.2z"/>
<path class="st10" d="M132.2,214.6c-1.9-0.3-3.8-0.9-5.4-2c-1.9-1.1-3-2.2-3.3-3.1c-0.2-1,0.4-1.9,1.9-2.7c0.5-0.3,1-0.5,1.6-0.7
	c0.2-0.1,0.4-0.1,0.6-0.1c0.2,0,0.4,0.1,0.6,0.2c0.4,0.2,0.7,0.4,0.9,0.8c0.2,0.3,0.1,0.4-0.2,0.5c-0.4,0.1-0.8,0.3-1.2,0.5
	c-0.6,0.4-0.8,0.8-0.6,1.4c0.6,0.8,1.3,1.4,2.2,1.8c1,0.6,2.1,1,3.2,1.3c0.8,0.2,1.7,0,2.4-0.4c0.2-0.1,0.3-0.2,0.5-0.3
	c0.1-0.1,0.3-0.3,0.4-0.4c0,0,0.1-0.1,0.1-0.1c0.3-0.1,0.6-0.1,0.9-0.1c0.4,0.1,0.8,0.3,1.2,0.5c0.1,0.1,0.2,0.2,0.3,0.3
	c0.1,0.1,0,0.2-0.1,0.4c-0.2,0.2-0.4,0.4-0.6,0.5c-0.3,0.2-0.5,0.4-0.8,0.6C135.5,214.4,133.9,214.7,132.2,214.6z"/>
<path class="st10" d="M141.2,210.3l-8.7-5l-1.8,1c-0.2,0.1-0.4,0.1-0.6,0.1c-0.3,0-0.5-0.1-0.7-0.3l-0.5-0.3
	c-0.2-0.1-0.4-0.2-0.5-0.4c-0.1-0.1,0-0.2,0.2-0.3l6.1-3.6c0.2-0.1,0.4-0.1,0.6-0.1c0.3,0,0.5,0.1,0.7,0.3l0.5,0.3
	c0.3,0.2,0.5,0.3,0.5,0.4c0.1,0.1,0,0.2-0.2,0.3l-1.8,1l8.7,5c0.4,0.2,0.2,0.5-0.4,0.8l-0.7,0.4C142,210.4,141.5,210.5,141.2,210.3z
	"/>
<path class="st10" d="M159.4,203.2l-0.4,0.1c-2,0.3-4.5,0.7-7.5,1.3c-1.2,0.2-2.5,0.2-3.7-0.1c-1.4-0.3-2.8-0.9-4.1-1.7
	c-3.9-2.2-4.4-4.2-1.6-5.8c1.4-0.8,3-1.1,4.6-1c1.9,0.2,3.8,0.9,5.5,1.9c2.7,1.6,3.8,3,3.2,4.2l0.1,0l3.3-0.7c0.1,0,0.2,0,0.2,0
	s0.2,0,0.2,0.1c0.1,0.1,0.2,0.3,0.3,0.4c0.1,0.2,0.2,0.4,0.3,0.6c0,0.1,0,0.2,0,0.3c0,0.1-0.1,0.2-0.2,0.2
	C159.7,203.1,159.6,203.2,159.4,203.2z M152.4,201.8c0-0.3-0.2-0.6-0.6-1c-0.6-0.5-1.3-1-2.1-1.4c-0.8-0.5-1.6-0.8-2.4-1.2
	c-0.5-0.2-1.1-0.3-1.7-0.3c-0.4,0-0.9,0.1-1.3,0.4c-0.4,0.2-0.6,0.5-0.6,0.7c0,0.3,0.2,0.6,0.6,1c0.6,0.5,1.3,1,2,1.4
	c0.8,0.5,1.6,0.9,2.4,1.2c0.5,0.2,1.1,0.3,1.7,0.3c0.4,0,0.9-0.1,1.3-0.4C152.1,202.3,152.3,202.1,152.4,201.8z"/>
<path class="st10" d="M159.6,199.3c-1.2,0.1-2.5-0.2-3.6-0.8l-7.5-4.3c-0.3-0.2-0.2-0.5,0.4-0.8l0.6-0.4c0.6-0.4,1.1-0.4,1.5-0.2
	l7.4,4.3c0.4,0.3,0.9,0.4,1.5,0.4c0.5,0,1-0.1,1.4-0.3c0.4-0.2,0.6-0.5,0.6-0.8c0-0.2-0.1-0.4-0.2-0.5c-0.1-0.1-0.3-0.3-0.4-0.3
	l-7.4-4.2c-0.4-0.2-0.2-0.5,0.4-0.8l0.6-0.4c0.6-0.4,1.1-0.4,1.4-0.2l7.5,4.3c1.1,0.6,1.6,1.3,1.5,2.1c-0.1,0.7-0.7,1.5-1.9,2.2
	C162.2,198.9,160.9,199.3,159.6,199.3z"/>
<path class="st10" d="M167.7,195.2c-0.1-0.1-0.2-0.1-0.2-0.2l-7.8-7.4c-0.2-0.2,0-0.5,0.5-0.8l1-0.6c0.2-0.2,0.4-0.3,0.7-0.3
	c0.3-0.1,0.5-0.1,0.8,0l12.8,4.5l0.3,0.2c0.2,0.1,0.1,0.3-0.3,0.6l-0.8,0.5c-0.2,0.1-0.4,0.2-0.6,0.3c-0.2,0.1-0.4,0.1-0.6,0
	L171,191l-2.5,1.4l1.5,1.4c0.2,0.2,0,0.4-0.4,0.6l-0.8,0.5C168.3,195.3,167.9,195.3,167.7,195.2z M168.7,190.1l-4.2-1.6
	c-0.5-0.2-0.9-0.4-1.4-0.6l-0.1,0.1c0.4,0.3,0.7,0.6,1,0.8l2.7,2.4L168.7,190.1z"/>
<path class="st10" d="M177,190c-0.2,0-0.4-0.1-0.6-0.2l-10.2-5.8c-0.3-0.2-0.2-0.5,0.4-0.8l0.6-0.4c0.6-0.4,1.1-0.4,1.5-0.2l8.7,5
	l2.4-1.4c0.2-0.1,0.4-0.1,0.6-0.1c0.3,0,0.5,0.1,0.7,0.3l0.5,0.3c0.2,0.1,0.4,0.2,0.5,0.4c0,0.1,0,0.2-0.2,0.3l-4.3,2.5
	C177.5,189.9,177.2,190,177,190z"/>
<path class="st10" d="M183.1,186.1l-10.3-6c-0.4-0.2-0.2-0.5,0.4-0.8l0.7-0.4c0.6-0.4,1.1-0.4,1.5-0.2l10.4,6
	c0.3,0.2,0.2,0.5-0.4,0.8l-0.7,0.4C183.9,186.2,183.4,186.3,183.1,186.1z"/>
<path class="st10" d="M188.9,182.8l-8.7-5l-1.8,1c-0.2,0.1-0.4,0.1-0.6,0.1c-0.3,0-0.5-0.1-0.7-0.3l-0.5-0.3
	c-0.2-0.1-0.4-0.2-0.5-0.4c-0.1-0.1,0-0.2,0.2-0.3l6.1-3.5c0.2-0.1,0.4-0.1,0.6-0.1c0.3,0,0.5,0.1,0.7,0.3l0.5,0.3
	c0.2,0.1,0.4,0.2,0.5,0.4c0.1,0.1,0,0.2-0.2,0.3l-1.8,1l8.7,5c0.3,0.2,0.2,0.5-0.4,0.8l-0.7,0.4C189.7,182.9,189.2,183,188.9,182.8z
	"/>
<path class="st10" d="M196.5,178.4l-4.4-2.5l-8.2-1.9c-0.2,0-0.4-0.1-0.6-0.2c-0.1-0.1-0.1-0.2,0-0.3c0.2-0.2,0.4-0.3,0.6-0.5
	l0.8-0.5c0.3-0.3,0.8-0.4,1.2-0.3l5.2,1.6l-2.7-3c-0.1-0.1-0.1-0.2,0-0.3c0.2-0.2,0.4-0.3,0.6-0.4l0.7-0.4c0.7-0.4,1.1-0.5,1.3-0.4
	c0.1,0.1,0.2,0.2,0.3,0.3l3.3,4.8l4.3,2.5c0.2,0.1,0.2,0.2,0.2,0.4c-0.1,0.2-0.4,0.4-0.6,0.5l-0.6,0.4
	C197.3,178.5,196.8,178.6,196.5,178.4z"/>
<path class="st1" d="M333,258.2l-25.1,14.5c-0.1,0-0.2,0.1-0.2,0.1c-0.1,0-0.2,0-0.2-0.1c-0.1-0.1-0.1-0.2,0-0.3l25.1-14.5
	c0.1,0,0.2-0.1,0.2-0.1s0.2,0,0.2,0.1c0,0,0.1,0,0.1,0c0,0,0,0.1,0,0.1C333.1,258.1,333.1,258.2,333,258.2
	C333.1,258.2,333.1,258.2,333,258.2z"/>
<path class="st1" d="M254.7,303.5l-28.2,16.3c-0.1,0-0.2,0.1-0.2,0.1c-0.1,0-0.2,0-0.2-0.1c0,0-0.1,0-0.1-0.1c0,0,0-0.1,0-0.1
	c0,0,0-0.1,0-0.1c0,0,0,0,0.1-0.1l28.2-16.3c0.1,0,0.2-0.1,0.2-0.1c0.1,0,0.2,0,0.2,0.1C254.8,303.3,254.8,303.4,254.7,303.5z"/>
<path class="st12" d="M223.5,315.8c1.4,0.1,3.3,0,3.9-1.5c0.3-0.8,0.3-1.6,0-2.4c-0.1-0.3-0.2-0.6-0.4-0.8c-0.2-0.2-0.5-0.4-0.7-0.5
	c-0.8-0.3-1,0.4-1,1c0.1,0.8,0.3,1.6,0.7,2.3c0.3,0.6,0.9,1.1,1.5,1.3c0.7,0.2,1.4,0.2,2-0.1c0.3-0.2,0.6-0.4,0.7-0.7
	c0.2-0.3,0.3-0.6,0.2-1c0-0.3-0.1-0.7-0.3-1c-0.2-0.3-0.5-0.5-0.8-0.6c0,0-0.1,0-0.1,0c0,0-0.1,0-0.1,0c0,0,0,0-0.1,0.1
	c0,0,0,0,0,0.1c-0.1,0.7,0.1,1.3,0.5,1.8c0.4,0.4,0.9,0.7,1.4,0.7c0.5,0,0.7-0.6,0.7-1c0-0.7-0.2-1.4-0.6-2c-0.1-0.2-0.4-0.2-0.3,0
	c0.1,0.4,0.4,0.7,0.7,0.9c0.3,0.2,0.7,0.5,1,0.3c0.8-0.5,0.1-1.6-0.3-2.1l-0.1,0.2c0.5,0.4,1,0.8,1.7,1c0.1,0,0.1,0,0.1-0.1
	c0-0.5-0.1-1.1-0.4-1.5l-0.1,0.2c0.3,0.3,0.6,0.6,1,0.8c0.4,0.2,0.8,0.2,1.2,0.2c1-0.2,0.8-1.3,0.8-2.1c-0.2-2.2-1.1-4.4-2.6-6.1
	c-0.1-0.1-0.3-0.1-0.3,0.1c0.1,1.3,0.5,2.5,0.9,3.7c0.5,1.3,1,2.5,1.7,3.7c0.4,0.8,0.9,1.6,1.6,2.3c0.1,0.1,0.1,0.2,0.2,0.2
	s0.2,0.1,0.3,0.1c0.5,0,0.7-0.7,0.6-1.1c-0.2-0.9-0.5-1.8-1-2.6c-0.5-1.2-1-2.3-1.5-3.5l-0.3,0.1c0.7,1.2,1.7,2.3,2.8,3.3
	c0.1,0.1,0.2,0,0.2-0.2c-0.2-0.8-0.4-1.6-0.5-2.3l-0.2,0.1l1.7,1.2c0,0,0,0,0.1,0c0,0,0,0,0.1,0c0,0,0,0,0.1,0c0,0,0,0,0,0
	c0.2-0.6,0.2-1.3,0-1.9l-0.2,0.2c0.4,0.1,0.9,0.4,1.2,0.6c0.1,0.1,0.2,0,0.2-0.1c0-0.1,0-0.4,0-0.6h-0.3c0.1,0.6,0.7,0.7,1.2,0.8
	c0.4,0.1,0.7,0,1.1-0.1c0.3-0.1,0.7-0.3,0.9-0.6c0.5-0.7,0.8-1.6,0.8-2.4c0.1-0.9,0-1.9-0.4-2.7c-0.2-0.3-0.4-0.5-0.7-0.6
	c-0.3-0.1-0.6-0.1-1,0c-0.3,0.1-0.6,0.3-0.7,0.6c-0.2,0.3-0.2,0.6-0.1,0.9c0.1,0.8,0.4,1.6,0.9,2.3c0.5,0.8,1.2,1.4,2,1.7
	c0.2,0,0.4,0,0.6,0c0.2,0,0.4-0.1,0.5-0.2c0.2-0.1,0.3-0.3,0.4-0.4c0.1-0.2,0.2-0.4,0.2-0.5c0.1-0.5,0-1.1-0.1-1.6
	c-0.1-0.5-0.4-1-0.7-1.4c-0.1-0.1-0.4-0.1-0.3,0.1c0.1,0.5,0.4,0.9,0.8,1.2c0.4,0.3,0.9,0.5,1.4,0.5c0.6,0,2.1-0.3,1.8-1.2
	c-0.1-0.2-0.5-0.3-0.4,0c0.2,0.6-1.3,0.8-1.6,0.7c-0.4,0-0.7-0.1-1-0.3c-0.3-0.2-0.5-0.5-0.6-0.9h-0.4c0.4,0.6,0.7,1.3,0.8,2
	c0,0.6-0.1,1.3-0.7,1.5c-0.6,0.2-1.3-0.4-1.8-0.8c-0.5-0.5-0.9-1.1-1.1-1.8c-0.1-0.2-0.2-0.5-0.2-0.8c0-0.3,0-0.5,0.1-0.8
	c0.1-0.1,0.2-0.2,0.3-0.3c0.1-0.1,0.3-0.2,0.4-0.2c0.1,0,0.3,0,0.4,0c0.1,0,0.3,0.1,0.4,0.2c0.4,0.6,0.6,1.3,0.5,2
	c0,0.7-0.1,1.4-0.3,2.1c-0.1,0.3-0.3,0.6-0.5,0.9c-0.3,0.2-0.6,0.4-0.9,0.5c-0.3,0.1-1.5,0.1-1.6-0.4c0-0.2-0.4-0.3-0.3,0l0.1,0.6
	l0.2-0.1c-0.4-0.3-0.8-0.5-1.3-0.7c-0.1,0-0.2,0.1-0.2,0.2c0.2,0.5,0.2,1.1,0,1.6l0.2,0l-1.7-1.2c0,0,0,0-0.1,0c0,0-0.1,0-0.1,0
	c0,0,0,0-0.1,0.1c0,0,0,0.1,0,0.1c0.2,0.8,0.4,1.6,0.6,2.4l0.2-0.2c-1.1-0.9-2-1.9-2.7-3.1c-0.1-0.2-0.3-0.1-0.3,0.1
	c0.8,1.7,1.5,3.5,2.2,5.2c0.1,0.3,0.2,0.5,0.2,0.8c0,0.3-0.1,0.8-0.4,0.7c-0.2,0-0.3-0.2-0.4-0.3c-0.6-0.7-1-1.5-1.4-2.3
	c-0.6-1.1-1.1-2.2-1.5-3.3c-0.5-1.2-0.8-2.4-0.9-3.6l-0.2,0.1c1.2,1.4,2,3.2,2.4,5c0.1,0.4,0.1,0.8,0.1,1.2c0.1,0.4,0,0.8-0.2,1.2
	c-0.2,0.2-0.4,0.3-0.7,0.3c-0.2,0-0.5,0-0.7-0.1c-0.4-0.2-0.8-0.4-1.1-0.8c-0.1-0.1-0.2,0.1-0.1,0.2c0.2,0.4,0.3,0.8,0.3,1.3
	l0.1-0.1c-0.6-0.2-1.1-0.5-1.6-0.9c-0.1-0.1-0.3,0-0.2,0.2c0.3,0.3,0.4,0.7,0.5,1.2c0,0.1,0,0.2,0,0.2c0,0.1-0.1,0.1-0.2,0.2
	s-0.2,0.1-0.2,0.1c-0.1,0-0.2,0-0.2-0.1c-0.3-0.2-0.5-0.4-0.7-0.8l-0.3,0c0.2,0.4,0.4,0.9,0.5,1.3c0,0.4,0,1.1-0.6,1.1
	c-0.4-0.1-0.8-0.3-1-0.7c-0.2-0.4-0.3-0.9-0.3-1.3l-0.2,0.2c0.2,0.1,0.3,0.2,0.4,0.4c0.1,0.1,0.2,0.3,0.2,0.5c0,0.2,0,0.4,0,0.6
	s-0.1,0.4-0.2,0.5c-0.2,0.3-0.5,0.5-0.8,0.6c-0.3,0.1-0.7,0.1-1,0.1c-0.3-0.1-0.7-0.2-1-0.4c-0.3-0.2-0.5-0.5-0.6-0.8
	c-0.4-0.7-0.6-1.5-0.6-2.3c0-0.3,0.2-0.5,0.5-0.3c0.1,0.1,0.2,0.2,0.3,0.3c0.2,0.3,0.3,0.6,0.4,1c0.1,0.3,0.2,0.7,0.2,1
	c0,0.3-0.1,0.7-0.3,1c-0.7,1.1-2.3,1.2-3.5,1.2C223.4,315.6,223.4,315.8,223.5,315.8L223.5,315.8z"/>
<path class="st12" d="M304.6,267.5c-0.2-0.3-0.3-0.6-0.3-1c0-0.3,0-0.7,0.2-1c0.2-0.4,0.4-0.7,0.7-1c0.5-0.5,0.9,0.3,1.1,0.7
	c0.8,1.4,1.3,3,1.6,4.6h0.4c-0.2-0.6-0.3-1.3-0.2-2c0-0.3,0.2-0.7,0.4-1c0.3-0.3,0.8,0.3,1,0.6c0.1,0.1,0.4,0.2,0.3-0.1
	c-0.1-0.4,0-0.9,0.1-1.3l0.1-0.2c0.1-0.2,0.2-0.2,0.3,0c0.2,0.2,0.3,0.3,0.4,0.6l0.4,0c-0.1-0.2-0.3-0.9,0.1-0.9
	c0.3-0.1,0.4,0.2,0.5,0.4c0.1,0.3,0.4,0.5,0.7,0.6c0.4,0.1,0.5-0.4,0.6-0.7c0.2-0.7,0.4-1.4,0.4-2.1c0.2-0.8,0.1-1.7-0.1-2.6
	c0-0.1-0.1-0.2-0.2-0.3c-0.1-0.1-0.2-0.2-0.3-0.2c-0.3-0.1-0.5,0.1-0.8,0.3c-0.4,0.6-0.5,1.4-0.4,2.1c0.1,0.9,0.4,1.7,0.8,2.4
	c0.1,0.3,0.3,0.6,0.6,0.8s0.6,0.3,0.9,0.4c0.9,0,1-1.2,1.1-1.9c0.2-1.1,0.2-2.1-0.1-3.2c0-0.1-0.4-0.3-0.4-0.1
	c-0.2,0.5-0.2,1.1-0.1,1.6c0.1,0.5,0.4,1,0.8,1.4c0.1,0.1,0.2,0.1,0.3,0c0.2-0.3,0.4-0.7,0.5-1.2c0.1-0.4,0.1-0.8,0-1.3l-0.4,0.1
	l1.2,1.4c0.1,0.1,0.3,0.1,0.3,0c0.1-0.2,0.2-0.5,0.2-0.7c0-0.3-0.1-0.5-0.2-0.7l-0.3,0.2c0.3,0.3,0.7,0.6,1.1,0.8
	c0.4,0.1,0.6,0,0.9-0.2c0.7-0.5,1.2-1.1,1.7-1.8c1.2-1.7,2.1-3.7,2.6-5.7c0.1-0.4,0.2-0.8,0.1-1.2c-0.1-0.4-0.2-0.8-0.5-1.1
	c-0.2-0.2-0.6-0.4-0.9-0.4c-0.3,0-0.7,0.1-0.9,0.3c-0.8,0.6-1.5,1.2-2.1,2c-0.5,0.7-1,1.4-1.3,2.2c-0.5,1.4-1,3.6,0.2,4.8
	c1.2,1.2,3.3,0.5,4.5-0.4c1.4-1.1,2.4-2.7,2.8-4.5c0.1-0.4,0.2-0.8,0.2-1.3c0-0.4,0-0.7-0.1-1.1c-0.1-0.1-0.2-0.3-0.3-0.4
	c-0.1-0.1-0.3-0.2-0.4-0.2c-0.1,0-0.3,0-0.5,0c-0.1,0-0.3,0.1-0.4,0.2c-0.4,0.3-0.7,0.7-0.9,1.1c-0.2,0.4-0.4,0.9-0.4,1.3
	c-0.1,0.4-0.1,0.8,0,1.2c0.1,0.4,0.3,0.8,0.5,1.1c1.3,1.7,3.9,1.1,5.6,0.5c0.1-0.1,0-0.3-0.1-0.3c-1.4,0.3-3.5,0.9-4.7-0.1
	c-1.3-1-0.8-2.8-0.1-3.8c0.2-0.3,0.4-0.6,0.7-0.7c0.6-0.2,0.7,0.2,0.7,0.6c0,0.7-0.1,1.4-0.3,2c-0.4,1.4-1.2,2.7-2.3,3.7
	c-0.9,0.9-2.7,1.9-3.9,1c-1.2-0.9-0.8-2.8-0.4-3.9c0.4-1.3,1.2-2.5,2.1-3.4c0.5-0.6,1.1-1.1,1.8-1.4c1.1-0.2,1.1,1.2,0.9,1.9
	c-0.3,1.6-0.9,3.2-1.8,4.6c-0.4,0.8-0.9,1.5-1.5,2.1c-0.3,0.3-0.6,0.6-1,0.8c-0.1,0.1-0.2,0.1-0.4,0.1c-0.1,0-0.2-0.1-0.3-0.2
	l-0.6-0.5c-0.1-0.1-0.4-0.1-0.3,0.1c0.1,0.2,0.2,0.4,0.2,0.6c0,0.2-0.1,0.4-0.2,0.6h0.3l-1.1-1.3c-0.1-0.1-0.4-0.2-0.4,0.1
	c0.1,0.4,0.1,0.7,0,1.1c-0.1,0.4-0.2,0.7-0.4,1h0.3c-0.3-0.3-0.6-0.7-0.7-1.2c-0.1-0.4-0.1-0.9,0.1-1.3l-0.4-0.1
	c0.3,1.1,0.3,2.3,0,3.4c-0.1,0.4-0.2,0.7-0.3,1c-0.3,0.4-0.8,0.2-1.1-0.1c-0.3-0.3-0.5-0.6-0.6-1c-0.3-0.6-0.5-1.3-0.5-2.1
	c0-0.3,0-0.6,0.1-0.9c0-0.2,0.1-0.4,0.2-0.5c0-0.1,0.1-0.1,0.2-0.1c0.1,0,0.1-0.1,0.2-0.1c0.1,0,0.1,0,0.2,0c0.1,0,0.1,0.1,0.2,0.1
	c0.2,0.2,0.2,0.9,0.2,1.2c0,0.3,0,0.7-0.1,1.1c0,0.6-0.2,1.2-0.3,1.8c-0.1,0.2-0.1,0.3-0.2,0.5c0,0-0.1,0.2-0.1,0.3
	c0,0-0.2-0.1-0.3-0.2c-0.3-0.3-0.5-0.8-1-0.8c-0.5,0-0.4,1.1-0.3,1.4c0.1,0.2,0.5,0.2,0.4,0c-0.1-0.3-0.7-1.3-1.2-1
	c-0.3,0.1-0.4,0.6-0.5,0.9c-0.1,0.4-0.1,0.8,0,1.1l0.3,0c-0.2-0.4-0.6-0.7-1-1c-0.4-0.1-0.7,0.4-0.8,0.7c-0.3,0.9-0.3,1.9,0,2.8
	c0.1,0.2,0.4,0.3,0.4,0c-0.2-1.1-0.5-2.2-0.9-3.2c-0.2-0.5-0.5-1-0.7-1.6c-0.1-0.4-0.4-0.8-0.7-1.1c-0.7-0.4-1.3,0.6-1.5,1.1
	c-0.2,0.4-0.2,0.8-0.2,1.2C304.1,266.7,304.2,267.1,304.6,267.5c0,0.1,0.1,0,0-0.1L304.6,267.5z"/>
<path class="st2" d="M258.4,271.9c1.8,0.2,3.3-0.4,3.6-1.4c0.3-1.3,2.6-1.8,4.6-1.1c1.6,0.6,3.5,0.3,4.3-0.5c1-1.1,3.7-1.1,5.2-0.1
	c0.7,0.4,1.4,0.7,2.2,0.7c0.8,0.1,1.6,0,2.3-0.3c1.6-0.8,4.3-0.3,5.2,1c0.7,1,2.6,1.6,4.3,1.3c2-0.4,4.4,0.6,4.5,1.9
	c0.1,1,1.7,1.9,3.4,2c2.2,0.1,3.9,1.4,3.3,2.6c-0.5,0.9,0.5,2,2.2,2.5c2.1,0.5,3,2.1,1.7,3c-1,0.7-0.7,1.9,0.7,2.6
	c1.8,0.9,1.7,2.4-0.1,3c-1.5,0.5-1.9,1.6-0.9,2.5c1.2,1.2,0.3,2.5-1.9,2.7c-1.7,0.1-2.8,1-2.4,2.1c0.5,1.3-1.3,2.3-3.5,2
	c-1.8-0.2-3.3,0.4-3.6,1.4c-0.3,1.3-2.6,1.8-4.6,1.1c-1.6-0.6-3.5-0.3-4.3,0.5c-1,1.1-3.7,1.1-5.2,0.1c-0.7-0.4-1.4-0.7-2.2-0.7
	c-0.8-0.1-1.6,0-2.3,0.3c-1.6,0.8-4.3,0.3-5.2-1c-0.7-1-2.6-1.6-4.2-1.3c-2.1,0.4-4.4-0.6-4.5-1.9c-0.1-1-1.7-1.9-3.4-2
	c-2.2-0.1-3.9-1.4-3.3-2.6c0.5-0.9-0.5-2-2.2-2.5c-2.1-0.5-3-2.1-1.7-3c1.1-0.7,0.7-1.9-0.7-2.6c-1.8-0.9-1.7-2.4,0.1-3
	c1.5-0.5,1.9-1.6,0.9-2.5c-1.2-1.2-0.3-2.5,1.9-2.7c1.7-0.1,2.8-1,2.4-2.1C254.4,272.6,256.2,271.6,258.4,271.9z"/>
<path class="st5" d="M258.4,271.9c1.8,0.2,3.3-0.4,3.6-1.4c0.3-1.3,2.6-1.8,4.6-1.1c1.6,0.6,3.5,0.3,4.3-0.5c1-1.1,3.7-1.1,5.2-0.1
	c0.7,0.4,1.4,0.7,2.2,0.7c0.8,0.1,1.6,0,2.3-0.3c1.6-0.8,4.3-0.3,5.2,1c0.7,1,2.6,1.6,4.3,1.3c2-0.4,4.4,0.6,4.5,1.9
	c0.1,1,1.7,1.9,3.4,2c2.2,0.1,3.9,1.4,3.3,2.6c-0.5,0.9,0.5,2,2.2,2.5c2.1,0.5,3,2.1,1.7,3c-1,0.7-0.7,1.9,0.7,2.6
	c1.8,0.9,1.7,2.4-0.1,3c-1.5,0.5-1.9,1.6-0.9,2.5c1.2,1.2,0.3,2.5-1.9,2.7c-1.7,0.1-2.8,1-2.4,2.1c0.5,1.3-1.3,2.3-3.5,2
	c-1.8-0.2-3.3,0.4-3.6,1.4c-0.3,1.3-2.6,1.8-4.6,1.1c-1.6-0.6-3.5-0.3-4.3,0.5c-1,1.1-3.7,1.1-5.2,0.1c-0.7-0.4-1.4-0.7-2.2-0.7
	c-0.8-0.1-1.6,0-2.3,0.3c-1.6,0.8-4.3,0.3-5.2-1c-0.7-1-2.6-1.6-4.2-1.3c-2.1,0.4-4.4-0.6-4.5-1.9c-0.1-1-1.7-1.9-3.4-2
	c-2.2-0.1-3.9-1.4-3.3-2.6c0.5-0.9-0.5-2-2.2-2.5c-2.1-0.5-3-2.1-1.7-3c1.1-0.7,0.7-1.9-0.7-2.6c-1.8-0.9-1.7-2.4,0.1-3
	c1.5-0.5,1.9-1.6,0.9-2.5c-1.2-1.2-0.3-2.5,1.9-2.7c1.7-0.1,2.8-1,2.4-2.1C254.4,272.6,256.2,271.6,258.4,271.9z"/>
<path class="st2" d="M302,287.8c0.9-7.6-9.3-15-22.6-16.5s-24.9,3.4-25.7,11c-0.9,7.6,9.3,15,22.6,16.5S301.1,295.4,302,287.8z"/>
<path class="st19" d="M267.1,291.3c-6.7-3.9-7.4-9.8-1.5-13.2c5.9-3.4,16.2-3,22.9,0.9c6.7,3.9,7.4,9.8,1.5,13.2
	C284.1,295.6,273.8,295.2,267.1,291.3z"/>
<path class="st2" d="M290.9,292.7c-6.3,3.7-17.4,3.2-24.7-0.9c-7.2-4.2-8-10.6-1.6-14.2c6.4-3.7,17.4-3.2,24.7,0.9
	C296.6,282.6,297.3,289,290.9,292.7z M266.5,278.6c-5.4,3.1-4.8,8.6,1.4,12.2s15.7,3.9,21.1,0.8c5.4-3.1,4.8-8.6-1.4-12.2
	C281.5,275.8,272,275.5,266.5,278.6z"/>
<g class="st13">
	<path d="M290.9,292.7c-6.3,3.7-17.4,3.2-24.7-0.9c-7.2-4.2-8-10.6-1.6-14.2c6.4-3.7,17.4-3.2,24.7,0.9
		C296.6,282.6,297.3,289,290.9,292.7z M266.5,278.6c-5.4,3.1-4.8,8.6,1.4,12.2c6.2,3.6,15.7,3.9,21.1,0.8c5.4-3.1,4.8-8.6-1.4-12.2
		C281.5,275.8,272,275.5,266.5,278.6z"/>
</g>
<path class="st19" d="M282.7,296.8l0,0.1l0.1,0.1c0,0,0,0.1,0.1,0.1l0.1,0.1c0,0,0.1,0.1,0.1,0.1c0,0,0.1,0.1,0.2,0.1
	c0.1,0,0.1,0.1,0.2,0.1c0.1,0,0.2,0,0.3,0c0.1,0,0.2,0,0.3,0c0.1,0,0.1,0,0.1-0.1c0,0,0.1,0,0.1-0.1c0,0,0-0.1,0-0.1
	c0,0,0-0.1,0-0.1h0.1l0.6-0.1c0,0,0.1,0,0.1,0c0,0,0,0,0,0c0,0,0,0.1,0,0.1c0,0,0,0.1,0,0.1c0,0.1-0.1,0.2-0.2,0.3
	c-0.1,0.1-0.3,0.1-0.4,0.2c-0.2,0.1-0.4,0.1-0.6,0.1c-0.2,0-0.4,0-0.7,0c-0.2,0-0.4-0.1-0.5-0.1c-0.1-0.1-0.3-0.1-0.4-0.2
	c-0.1-0.1-0.2-0.2-0.3-0.3l-0.1-0.3c0-0.1-0.1-0.2-0.1-0.3c0-0.1-0.1-0.2,0-0.3c0-0.1,0.1-0.2,0.2-0.3c0.1-0.1,0.2-0.2,0.4-0.2
	c0.2-0.1,0.4-0.1,0.6-0.1c0.2,0,0.4,0,0.6,0c0.2,0,0.4,0.1,0.6,0.1c0.1,0,0.3,0.1,0.4,0.2c0.1,0.1,0.2,0.2,0.3,0.3v0c0,0,0,0-0.1,0
	l-0.6,0.1H284l-0.1-0.1l-0.1-0.1l-0.1-0.1l-0.2,0h-0.3c-0.1,0-0.2,0-0.3,0.1c-0.1,0-0.1,0.1-0.1,0.1c0,0,0,0.1,0,0.1
	C282.7,296.7,282.7,296.7,282.7,296.8z"/>
<path class="st19" d="M288.2,296.8c0,0,0.1,0,0.1,0c0,0,0.1,0,0.1,0l0.2,0.3c0,0,0,0,0,0c0,0,0,0,0,0c0,0-0.1,0-0.1,0l-2.2,0.4
	c0,0-0.1,0-0.1,0c0,0-0.1,0-0.1,0l-1.4-1.8c0,0,0,0,0,0c0,0,0,0,0,0c0,0,0,0,0,0c0,0,0,0,0,0l2.1-0.4c0,0,0.1,0,0.1,0
	c0,0,0.1,0,0.1,0l0.2,0.3c0,0,0,0,0,0.1c0,0,0,0-0.1,0l-1.4,0.3l0.2,0.3l1.3-0.3c0,0,0.1,0,0.1,0c0,0,0.1,0,0.1,0l0.2,0.3
	c0,0,0,0,0,0s0,0,0,0c0,0,0,0-0.1,0l-1.3,0.3l0.2,0.3L288.2,296.8z"/>
<path class="st19" d="M288.7,294.8c0.2-0.1,0.3-0.1,0.5-0.1c0.2,0,0.3,0,0.5,0c0.2,0,0.3,0.1,0.4,0.1c0.1,0.1,0.3,0.1,0.4,0.2
	c0.1,0.1,0.2,0.2,0.2,0.4c0,0.1,0,0.1,0,0.2c0,0.1-0.1,0.1-0.1,0.1l1.2,0.4h0c0,0,0,0,0,0c0,0,0,0,0,0c0,0,0,0,0,0l-0.6,0.2
	c0,0-0.1,0-0.1,0H291l-1.1-0.4l-0.4,0.1l0.6,0.5c0,0,0,0,0,0c0,0,0,0,0,0c0,0,0,0,0,0l-0.5,0.2c0,0-0.1,0-0.1,0c0,0-0.1,0-0.1,0
	l-1.8-1.7c0,0,0,0,0-0.1c0,0,0,0,0,0c0,0,0,0,0,0L288.7,294.8z M289.1,295.8l0.5-0.1c0.1,0,0.2-0.1,0.2-0.1c0-0.1,0-0.1-0.1-0.2
	c0,0-0.1-0.1-0.1-0.1c0,0-0.1,0-0.1,0c-0.1,0-0.2,0-0.3,0.1l-0.5,0.1L289.1,295.8z"/>
<path class="st19" d="M292,293.5C292,293.5,292,293.5,292,293.5c0.1,0,0.2,0,0.2,0l0.4,0.2c0,0,0,0,0,0c0,0,0,0,0,0c0,0,0,0,0,0
	c0,0,0,0,0,0l-0.6,0.3l1.8,1.2c0,0,0,0,0,0c0,0,0,0,0,0c0,0,0,0,0,0c0,0,0,0,0,0l-0.5,0.2c0,0-0.1,0-0.1,0c0,0-0.1,0-0.1,0l-1.8-1.2
	l-0.6,0.3c0,0-0.1,0-0.1,0c0,0-0.1,0-0.1,0l-0.4-0.2c0,0,0,0,0,0c0,0,0,0,0,0c0,0,0,0,0,0L292,293.5z"/>
<path class="st19" d="M295,294.7L295,294.7c-0.1,0-0.2,0-0.2,0l-2.5-1.4c0,0,0,0-0.1-0.1c0,0,0,0,0,0c0,0,0,0,0,0l0.4-0.3
	c0,0,0.1,0,0.1,0c0,0,0.1,0,0.1,0l2.5,1.4c0,0,0,0,0,0.1v0.1L295,294.7z"/>
<path class="st19" d="M294.5,291.6C294.5,291.6,294.5,291.6,294.5,291.6C294.5,291.6,294.6,291.6,294.5,291.6c0.1,0,0.2,0,0.2,0
	l0.5,0.2c0,0,0,0,0,0c0,0,0,0,0,0c0,0,0,0,0,0c0,0,0,0,0,0l-0.8,0.7l0.6,0.3l0.8-0.6c0,0,0,0,0,0c0,0,0,0,0,0c0,0,0.1,0,0.1,0
	l0.5,0.2c0,0,0,0,0,0c0,0,0,0,0,0c0,0,0,0,0,0c0,0,0,0,0,0l-0.8,0.6l0.9,0.4c0,0,0,0,0,0c0,0,0,0,0,0c0,0,0,0,0,0.1l-0.4,0.3
	c0,0-0.1,0-0.1,0h-0.1l-2.7-1.2c0,0,0,0,0,0c0,0,0,0,0,0c0,0,0,0,0,0c0,0,0,0,0,0L294.5,291.6z"/>
<path class="st19" d="M297.9,292.4C297.9,292.4,297.9,292.4,297.9,292.4c-0.1,0-0.1,0-0.2,0l-2.9-1c0,0,0,0-0.1-0.1c0,0,0,0,0-0.1
	l0.3-0.3c0,0,0,0,0.1,0c0,0,0.1,0,0.1,0l2.9,1l0.1,0c0,0,0,0,0,0c0,0,0,0,0,0L297.9,292.4z"/>
<path class="st19" d="M298.7,290.1C298.7,290.1,298.7,290.1,298.7,290.1l0.2,0l0.5,0.1c0,0,0.1,0,0.1,0c0,0,0,0,0,0c0,0,0,0,0,0
	l-0.8,1.2c0,0,0,0-0.1,0h-0.1l-3.1-0.8c0,0-0.1,0-0.1,0c0,0,0,0,0,0c0,0,0,0,0,0l0.8-1.2c0,0,0,0,0,0c0,0,0,0,0,0h0.1l0.5,0.1
	c0,0,0.1,0,0.1,0v0.1l-0.5,0.8l0.5,0.1l0.5-0.7c0,0,0,0,0,0c0,0,0,0,0,0h0.1l0.5,0.1c0,0,0,0,0.1,0c0,0,0,0,0,0.1l-0.5,0.7l0.5,0.1
	L298.7,290.1z"/>
<path class="st19" d="M296.6,288.3c0-0.1,0.1-0.2,0.2-0.3c0.1-0.1,0.2-0.2,0.4-0.2c0.2-0.1,0.3-0.1,0.5-0.1c0.2,0,0.4,0,0.6,0h0.2
	h0.2h0.2h0.2c0.2,0,0.4,0.1,0.5,0.2c0.1,0.1,0.3,0.1,0.4,0.3c0.1,0.1,0.2,0.2,0.2,0.3c0,0.1,0,0.2,0,0.4l-0.2,0.8c0,0,0,0,0,0
	c0,0,0,0,0,0c0,0-0.1,0-0.1,0l-3.2-0.5l-0.1,0c0,0,0,0,0,0c0,0,0,0,0,0L296.6,288.3z M298,288.2c-0.4-0.1-0.6,0-0.7,0.3l-0.1,0.3
	l1.9,0.3l0.1-0.3c0.1-0.2-0.1-0.4-0.5-0.5h-0.2h-0.2h-0.2L298,288.2z"/>
<path class="st19" d="M260.1,286.9C260.1,286.9,260.1,286.9,260.1,286.9C260.1,287,260.1,287,260.1,286.9
	C260.1,287,260.1,287,260.1,286.9C260,287,260,287,260.1,286.9l-3.6,0.2c0,0-0.1,0-0.1,0c0,0,0,0,0,0c0,0,0,0,0,0l-0.4-1
	c-0.1-0.1-0.1-0.3,0-0.4c0-0.1,0.1-0.2,0.2-0.3c0.1-0.1,0.2-0.1,0.3-0.1c0.1,0,0.3-0.1,0.4-0.1c0.1,0,0.2,0,0.3,0l0.2,0l0.2,0
	l0.1,0.1c0.1-0.1,0.2-0.2,0.3-0.2c0.1,0,0.3-0.1,0.5-0.1c0.1,0,0.3,0,0.5,0c0.1,0,0.3,0.1,0.4,0.1c0.1,0.1,0.3,0.1,0.4,0.2
	c0.1,0.1,0.2,0.2,0.2,0.3L260.1,286.9z M256.9,285.8c-0.1,0-0.1,0-0.2,0.1c0,0,0,0,0,0.1c0,0,0,0.1,0,0.1l0.2,0.5h0.6l-0.2-0.5
	c0,0,0-0.1-0.1-0.1c0,0-0.1,0-0.1-0.1C257.1,285.8,257,285.8,256.9,285.8z M259,286.4l-0.2-0.5c0,0,0-0.1-0.1-0.1c0,0-0.1,0-0.1-0.1
	c-0.1,0-0.2-0.1-0.3,0c-0.1,0-0.2,0-0.2,0.1c0,0,0,0,0,0.1c0,0,0,0.1,0,0.1l0.2,0.5L259,286.4z"/>
<path class="st19" d="M258.4,283.1C258.4,283.1,258.4,283.1,258.4,283.1C258.4,283.1,258.4,283.1,258.4,283.1l0.1-0.1l0.6,0
	c0,0,0.1,0,0.1,0c0,0,0,0,0,0c0,0,0,0,0,0l0.1,1.5c0,0,0,0,0,0c0,0,0,0,0,0h-0.1l-3.7-0.2c0,0-0.1,0-0.1,0c0,0,0,0,0,0c0,0,0,0,0,0
	l-0.1-1.5c0,0,0,0,0-0.1c0,0,0.1,0,0.1,0h0.6c0,0,0.1,0,0.1,0c0,0,0,0,0,0s0,0,0,0l0,1l0.6,0l0-0.9c0,0,0,0,0-0.1c0,0,0.1,0,0.1,0
	h0.6h0.1c0,0,0,0,0,0.1v0.9l0.6,0L258.4,283.1z"/>
<path class="st19" d="M255.6,281.3c0-0.1,0.1-0.3,0.2-0.3c0.1-0.1,0.2-0.2,0.4-0.2c0.1-0.1,0.3-0.1,0.4-0.1c0.1,0,0.3,0,0.4,0
	c0,0,0.1,0,0.1,0c0,0,0,0,0,0.1l-0.1,0.4c0,0,0,0,0,0.1l-0.1,0h-0.1l-0.1,0c0,0-0.1,0-0.1,0.1c0,0-0.1,0.1-0.1,0.1c0,0,0,0.1,0,0.1
	c0,0,0,0.1,0,0.1c0,0,0,0.1,0.1,0.1c0,0,0.1,0,0.1,0c0,0,0.1,0,0.1,0c0.1,0,0.1,0,0.1-0.1c0.1-0.1,0.1-0.1,0.1-0.2l0.2-0.3
	c0.1-0.1,0.2-0.2,0.2-0.3c0.1-0.1,0.2-0.1,0.3-0.2c0.1,0,0.2-0.1,0.4-0.1c0.2,0,0.3,0,0.5,0c0.2,0,0.3,0.1,0.5,0.2
	c0.1,0.1,0.2,0.2,0.3,0.3c0.1,0.1,0.1,0.2,0.1,0.3c0,0.1,0,0.3,0,0.4c0,0.1-0.1,0.3-0.2,0.4c-0.1,0.1-0.2,0.2-0.4,0.3
	c-0.1,0.1-0.3,0.1-0.4,0.1c-0.1,0-0.3,0-0.4,0c0,0-0.1,0-0.1,0c0,0,0,0,0-0.1l0.1-0.4c0,0,0,0,0-0.1c0,0,0,0,0.1,0h0.1l0.1-0.1
	c0,0,0.1-0.1,0.1-0.1c0,0,0.1-0.1,0.1-0.2c0-0.1,0-0.2,0-0.3c0,0,0-0.1-0.1-0.1c0,0-0.1,0-0.1,0c0,0-0.1,0-0.1,0
	c-0.1,0-0.1,0.1-0.1,0.1l-0.2,0.2c-0.1,0.1-0.1,0.2-0.2,0.3c-0.1,0.2-0.3,0.3-0.5,0.4c-0.3,0.1-0.6,0.1-0.8,0
	c-0.2,0-0.3-0.1-0.4-0.1c-0.1-0.1-0.2-0.1-0.3-0.2c-0.1-0.1-0.1-0.2-0.2-0.3C255.5,281.6,255.5,281.4,255.6,281.3z"/>
<path class="st19" d="M257.2,278.3C257.2,278.3,257.3,278.3,257.2,278.3c0.1,0,0.2,0,0.2,0l0.6,0.2c0,0,0.1,0,0.1,0.1c0,0,0,0,0,0
	c0,0,0,0,0,0l-0.3,0.5l2.7,0.8c0,0,0.1,0,0.1,0.1c0,0,0,0,0,0c0,0,0,0,0,0l-0.3,0.4c0,0,0,0-0.1,0c0,0-0.1,0-0.1,0l-2.7-0.8
	l-0.3,0.5c0,0-0.1,0-0.1,0c0,0-0.1,0-0.1,0l-0.6-0.2l-0.1,0c0,0,0,0,0,0c0,0,0,0,0,0L257.2,278.3z"/>
<path class="st19" d="M259.4,277.8c-0.2-0.1-0.3-0.2-0.4-0.3c-0.1-0.1-0.2-0.2-0.2-0.3c0-0.1,0-0.2,0-0.4c0.1-0.1,0.2-0.3,0.3-0.4
	c0.2-0.1,0.3-0.2,0.5-0.3c0.2-0.1,0.4-0.1,0.6-0.1c0.2,0,0.4,0,0.6,0c0.2,0,0.4,0.1,0.6,0.2l0.4,0.2l0.4,0.2
	c0.1,0.1,0.3,0.2,0.4,0.3c0.1,0.1,0.2,0.2,0.2,0.3l0.8,0.1h0c0,0,0,0,0,0s0,0,0,0c0,0,0,0,0,0l-0.5,0.3c0,0-0.1,0-0.1,0H263h-0.3
	l-0.1,0.1c0,0-0.1,0.1-0.1,0.1c-0.2,0.1-0.3,0.2-0.5,0.3c-0.2,0.1-0.4,0.1-0.6,0.1c-0.2,0-0.4,0-0.6,0c-0.2,0-0.4-0.1-0.6-0.2
	l-0.4-0.2L259.4,277.8z M261.6,277.1l-0.2-0.1l-0.2-0.1l-0.2-0.1l-0.2-0.1c-0.1,0-0.2-0.1-0.3-0.1c-0.2,0-0.3,0-0.5,0
	c-0.1,0-0.1,0.1-0.2,0.1c-0.1,0-0.1,0.1-0.1,0.1c0,0,0,0,0,0.1c0,0,0,0,0,0.1c0,0.1,0.1,0.1,0.1,0.1c0.1,0,0.1,0.1,0.2,0.1l0.2,0.1
	l0.2,0.1l0.2,0.1l0.2,0.1c0.2,0.1,0.3,0.1,0.5,0.1c0.2,0,0.3-0.1,0.5-0.2c0.1-0.1,0.2-0.2,0.1-0.3
	C261.9,277.2,261.8,277.2,261.6,277.1z"/>
<path class="st19" d="M263.3,274.1h0.1c0,0,0.1,0,0.1,0l1.6,1c0.2,0.1,0.3,0.2,0.4,0.4c0.1,0.1,0.1,0.2,0.1,0.4
	c0,0.1-0.1,0.2-0.2,0.3c-0.1,0.1-0.3,0.2-0.4,0.3c-0.2,0.1-0.4,0.2-0.6,0.2c-0.2,0-0.4,0-0.6,0c-0.2,0-0.4-0.1-0.6-0.1
	c-0.2-0.1-0.4-0.2-0.6-0.3l-1.6-1.1c0,0,0,0,0,0c0,0,0,0,0,0c0,0,0,0,0-0.1l0.5-0.3c0,0,0.1,0,0.1,0c0,0,0.1,0,0.1,0l1.6,1
	c0.1,0.1,0.3,0.2,0.5,0.2c0.2,0,0.3,0,0.5-0.1c0.2-0.1,0.2-0.2,0.2-0.3c0-0.1-0.1-0.2-0.3-0.3l-1.6-1c0,0,0,0,0,0c0,0,0,0,0,0
	c0,0,0,0,0,0c0,0,0,0,0,0L263.3,274.1z"/>
<path class="st19" d="M266.2,273.2c0.1,0,0.1,0,0.2,0l0.1,0.1l3,1.6l0.1,0c0,0,0,0,0,0.1c0,0,0,0,0,0l-0.6,0.2c-0.1,0-0.1,0-0.2,0
	c0,0-0.1,0-0.1,0l-0.4-0.2l-1.3,0.4l0.1,0.3c0,0,0,0,0,0s0,0,0,0c0,0,0,0.1-0.1,0.1l-0.6,0.2h0c0,0-0.1,0-0.1,0v0l-0.9-2.2
	c0,0,0-0.1,0-0.1c0,0,0,0,0-0.1s0,0,0.1,0L266.2,273.2z M266.7,274.7l0.8-0.2l-1.1-0.6L266.7,274.7z"/>
<path class="st19" d="M273,274.5c0,0-0.1,0-0.1,0c0,0-0.1,0-0.1-0.1l-0.9-2.1c0,0,0,0,0,0c0,0,0,0,0,0h0.1h0.7c0,0,0.1,0,0.1,0
	c0,0,0.1,0,0.1,0.1l0.9,2.1c0,0,0,0,0,0c0,0,0,0,0,0h-0.1L273,274.5z"/>
<path class="st19" d="M277,272.1h0.1c0,0,0,0,0,0c0,0,0,0,0,0l0.1,0.4c0,0,0,0,0,0c0,0,0,0,0,0h-0.1h-1l0.3,1.7c0,0,0,0,0,0
	c0,0,0,0,0,0c0,0-0.1,0-0.1,0h-0.7c0,0-0.1,0-0.1,0c0,0,0,0-0.1-0.1l-0.3-1.7h-1c0,0-0.1,0-0.1,0c0,0,0,0,0,0c0,0,0,0,0,0l-0.1-0.4
	c0,0,0,0,0,0c0,0,0,0,0,0c0,0,0.1,0,0.1,0H277z"/>
<path class="st19" d="M279.9,274.7C279.9,274.7,279.9,274.7,279.9,274.7C279.9,274.7,279.9,274.7,279.9,274.7
	c-0.1,0.1-0.1,0.1-0.2,0.1l-0.7-0.1c0,0-0.1,0-0.1,0c0,0,0,0,0,0c0,0,0,0,0,0l0.1-0.7l-1.1-1.5c0,0,0,0,0-0.1c0,0,0,0,0,0
	c0,0,0.1,0,0.1,0l0.8,0.1c0.1,0,0.1,0,0.2,0.1l0.1,0l0.6,0.9l0.8-0.7l0.1,0c0.1,0,0.1,0,0.2,0l0.8,0.1h0.1c0,0,0,0,0,0.1l-1.5,1.2
	L279.9,274.7z"/>
<path class="st2" d="M282,290.5l-7.2-0.3l-0.3-2.3l4.3,0.2l-1-9.3l2.9,0.1L282,290.5z"/>
<path class="st19" d="M289.9,276l1.2,0.3l1-0.4c0.2-0.1,0.6,0,0.6,0.2l0.1,0.7l1.1,0.5c0.3,0.1,0.2,0.3-0.1,0.4l-1.2,0.2l-0.3,0.7
	c-0.1,0.2-0.4,0.2-0.6,0l-0.8-0.6l-1.3,0c-0.3,0-0.5-0.2-0.3-0.4l0.7-0.6l-0.5-0.7C289.3,276.1,289.6,275.9,289.9,276z"/>
<path class="st19" d="M294.8,279.7l0.8,0.2l0.6-0.3c0.2-0.1,0.4,0,0.4,0.1l0.1,0.5l0.7,0.3c0.2,0.1,0.1,0.2,0,0.3l-0.8,0.1l-0.2,0.5
	c0,0.1-0.3,0.1-0.4,0l-0.5-0.4h-0.8c-0.2,0-0.3-0.1-0.2-0.2l0.5-0.4l-0.3-0.5C294.4,279.7,294.6,279.7,294.8,279.7z"/>
<path class="st19" d="M284.6,273.8l0.8,0.2l0.6-0.3c0.1-0.1,0.4,0,0.4,0.1l0.1,0.5l0.7,0.3c0.2,0.1,0.2,0.2,0,0.3l-0.8,0.1l-0.2,0.5
	c-0.1,0.1-0.3,0.1-0.4,0l-0.5-0.4h-0.8c-0.2,0-0.3-0.1-0.2-0.2l0.5-0.4l-0.3-0.5C284.2,273.8,284.4,273.8,284.6,273.8z"/>
<path class="st19" d="M262,292.1l0.5,0.7l-0.7,0.6c-0.2,0.1,0,0.3,0.3,0.4h1.3l0.8,0.6c0.2,0.2,0.6,0.1,0.6,0l0.3-0.7l1.2-0.2
	c0.3,0,0.3-0.3,0.1-0.4l-1.1-0.5l-0.1-0.7c0-0.2-0.4-0.3-0.6-0.2l-1,0.4l-1.2-0.3C262.2,291.8,261.9,291.9,262,292.1z"/>
<path class="st19" d="M268.4,294.9l0.3,0.5l-0.5,0.4c-0.1,0.1,0,0.2,0.2,0.2h0.8l0.5,0.4c0.1,0.1,0.4,0.1,0.4,0l0.2-0.5l0.8-0.1
	c0.2,0,0.2-0.2,0-0.2l-0.7-0.3l0-0.5c0-0.1-0.3-0.2-0.4-0.1l-0.6,0.3l-0.8-0.2C268.5,294.7,268.4,294.8,268.4,294.9z"/>
<path class="st19" d="M258.2,289l0.3,0.5l-0.5,0.4c-0.1,0.1,0,0.2,0.2,0.2h0.8l0.5,0.4c0.1,0.1,0.4,0.1,0.4,0l0.2-0.5l0.8-0.1
	c0.2,0,0.2-0.2,0-0.3l-0.7-0.3l0-0.5c0-0.1-0.3-0.2-0.4-0.1l-0.6,0.3l-0.8-0.2C258.3,288.8,258.2,288.9,258.2,289z"/>
<path class="st1" d="M103.7,250.9l0.8,0.4c0.3,0.1,0.6,0.2,0.9,0.1c0.3,0,0.6-0.1,0.9-0.3l113-65.2c0.6-0.3,0.7-0.8,0.3-1l-0.8-0.5
	c-0.3-0.1-0.6-0.2-0.9-0.1s-0.6,0.1-0.9,0.3l-112.9,65.2C103.4,250.2,103.2,250.7,103.7,250.9z"/>
<path class="st1" d="M108.6,253.8l0.8,0.4c0.3,0.1,0.6,0.2,0.9,0.1c0.3,0,0.6-0.1,0.9-0.3l112.9-65.2c0.6-0.3,0.7-0.8,0.3-1
	l-0.8-0.5c-0.3-0.1-0.6-0.2-0.9-0.1c-0.3,0-0.6,0.1-0.9,0.3l-112.9,65.2C108.3,253.1,108.2,253.5,108.6,253.8z"/>
<path class="st1" d="M113.3,256.5l0.8,0.5c0.3,0.1,0.6,0.2,0.9,0.1c0.3,0,0.6-0.1,0.9-0.3l112.9-65.2c0.6-0.3,0.7-0.8,0.3-1
	l-0.8-0.4c-0.3-0.1-0.6-0.2-0.9-0.1c-0.3,0-0.6,0.1-0.9,0.3l-112.9,65.2C113,255.8,112.9,256.3,113.3,256.5z"/>
<path class="st12" d="M135.2,268.4c-0.1,0-0.3,0.1-0.4,0.1c-0.2,0-0.4,0-0.7-0.1l-11.4-6.6c-0.1-0.1-0.1-0.2,0.1-0.3l15.1-8.7
	c0.2-0.1,0.5-0.2,0.7-0.2c0.2,0,0.4,0,0.7,0.1l11.4,6.6c0.1,0.1,0.1,0.2-0.1,0.3l-15.1,8.7C135.4,268.4,135.3,268.4,135.2,268.4z
	 M124.4,261.6l10.6,6.1l14-8.1l-10.6-6.1L124.4,261.6z"/>
<path class="st1" d="M146.3,249.4l0.8,0.5c0.3,0.1,0.6,0.2,0.9,0.1c0.3,0,0.6-0.1,0.9-0.3l51.1-29.5c0.6-0.3,0.7-0.8,0.3-1l-0.8-0.5
	c-0.3-0.1-0.6-0.2-0.9-0.1s-0.6,0.1-0.9,0.3l-51.1,29.5C145.9,248.6,145.8,249.1,146.3,249.4z"/>
<path class="st1" d="M151.2,252.2l0.8,0.5c0.3,0.1,0.6,0.2,0.9,0.1c0.3,0,0.6-0.1,0.9-0.3l90.3-52.1c0.6-0.3,0.7-0.8,0.3-1l-0.8-0.5
	c-0.3-0.1-0.6-0.2-0.9-0.1c-0.3,0-0.6,0.1-0.9,0.3l-90.3,52.1C150.9,251.5,150.8,252,151.2,252.2z"/>
<path class="st1" d="M155.9,254.9l0.8,0.5c0.3,0.1,0.6,0.2,0.9,0.1s0.6-0.1,0.9-0.3l90.3-52.2c0.6-0.3,0.7-0.8,0.3-1l-0.8-0.5
	c-0.3-0.1-0.6-0.2-0.9-0.1c-0.3,0-0.6,0.1-0.9,0.3l-90.3,52.1C155.6,254.2,155.5,254.7,155.9,254.9z"/>
<path class="st2" d="M140,262.7h-7v-1.4h4v-10h3L140,262.7z"/>
<path class="st12" d="M154.6,279.7c-0.1,0-0.3,0.1-0.4,0.1c-0.2,0-0.4,0-0.7-0.1l-11.4-6.6c-0.1-0.1-0.1-0.2,0.1-0.3l15.1-8.7
	c0.2-0.1,0.5-0.2,0.7-0.2c0.2,0,0.4,0,0.7,0.1l11.4,6.6c0.1,0.1,0.1,0.2-0.1,0.3l-15.1,8.7C154.8,279.6,154.7,279.6,154.6,279.7z
	 M143.7,272.8l10.6,6.1l14-8.1l-10.6-6.2L143.7,272.8z"/>
<path class="st1" d="M165.6,260.5l0.8,0.5c0.3,0.1,0.6,0.2,0.9,0.1s0.6-0.1,0.9-0.3l51.1-29.5c0.6-0.3,0.7-0.8,0.3-1l-0.8-0.4
	c-0.3-0.1-0.6-0.2-0.9-0.1c-0.3,0-0.6,0.1-0.9,0.3l-51.1,29.5C165.3,259.8,165.1,260.3,165.6,260.5z"/>
<path class="st1" d="M170.5,263.4l0.8,0.5c0.3,0.1,0.6,0.2,0.9,0.1c0.3,0,0.6-0.1,0.9-0.3l90.3-52.2c0.6-0.3,0.7-0.8,0.3-1l-0.8-0.4
	c-0.3-0.1-0.6-0.2-0.9-0.1c-0.3,0-0.6,0.1-0.9,0.3l-90.3,52.1C170.2,262.7,170.1,263.1,170.5,263.4z"/>
<path class="st1" d="M175.2,266.1l0.8,0.4c0.3,0.1,0.6,0.2,0.9,0.1c0.3,0,0.6-0.1,0.9-0.3l90.3-52.1c0.6-0.3,0.7-0.8,0.3-1l-0.8-0.5
	c-0.3-0.1-0.6-0.2-0.9-0.1c-0.3,0-0.6,0.1-0.9,0.3l-90.3,52.2C174.9,265.4,174.8,265.9,175.2,266.1z"/>
<path class="st2" d="M159.4,273.9h-7l0-1.4h4l0-10h3V273.9z"/>
<path class="st12" d="M173.9,290.8c-0.1,0-0.3,0.1-0.4,0.1c-0.2,0-0.5,0-0.7-0.1l-11.4-6.6c-0.1-0.1-0.1-0.2,0.1-0.3l15.1-8.7
	c0.2-0.1,0.5-0.2,0.7-0.2c0.2,0,0.4,0,0.7,0.1l11.4,6.6c0.1,0.1,0.1,0.2-0.1,0.3l-15.1,8.7C174.1,290.7,174,290.8,173.9,290.8z
	 M163.1,283.9l10.6,6.1l14-8.1l-10.6-6.1L163.1,283.9z"/>
<path class="st1" d="M184.9,271.7l0.8,0.5c0.3,0.1,0.6,0.2,0.9,0.1c0.3,0,0.6-0.1,0.9-0.3l51.1-29.5c0.6-0.3,0.7-0.8,0.3-1L238,241
	c-0.3-0.1-0.6-0.2-0.9-0.1c-0.3,0-0.6,0.1-0.9,0.3l-51.1,29.5C184.6,271,184.5,271.5,184.9,271.7z"/>
<path class="st1" d="M189.9,274.6l0.8,0.5c0.3,0.1,0.6,0.2,0.9,0.1c0.3,0,0.6-0.1,0.9-0.3l90.3-52.1c0.6-0.3,0.7-0.8,0.3-1l-0.8-0.5
	c-0.3-0.1-0.6-0.2-0.9-0.1s-0.6,0.1-0.9,0.3l-90.3,52.2C189.6,273.8,189.4,274.3,189.9,274.6z"/>
<path class="st1" d="M194.6,277.3l0.8,0.5c0.3,0.1,0.6,0.2,0.9,0.1c0.3,0,0.6-0.1,0.9-0.3l90.3-52.2c0.6-0.3,0.7-0.8,0.3-1l-0.8-0.5
	c-0.3-0.1-0.6-0.2-0.9-0.1c-0.3,0-0.6,0.1-0.9,0.3l-90.2,52.2C194.3,276.6,194.2,277,194.6,277.3z"/>
<path class="st2" d="M178.7,285.1h-7l0-1.4h4l0-10h3V285.1z"/>
<path class="st12" d="M193.3,302c-0.1,0-0.3,0.1-0.4,0.1c-0.2,0-0.4,0-0.7-0.1l-11.4-6.6c-0.1-0.1-0.1-0.2,0.1-0.3l15.1-8.7
	c0.2-0.1,0.5-0.2,0.7-0.2c0.2,0,0.4,0,0.7,0.1l11.4,6.6c0.1,0.1,0.1,0.2-0.1,0.3l-15.1,8.7C193.5,301.9,193.4,301.9,193.3,302z
	 M182.4,295.1l10.6,6.1l14-8.1l-10.6-6.1L182.4,295.1z"/>
<path class="st1" d="M204.3,282.9l0.8,0.4c0.3,0.1,0.6,0.2,0.9,0.1c0.3,0,0.6-0.1,0.9-0.3l51.1-29.5c0.6-0.3,0.7-0.8,0.3-1l-0.8-0.4
	c-0.3-0.1-0.6-0.2-0.9-0.1c-0.3,0-0.6,0.1-0.9,0.3l-51.1,29.5C204,282.2,203.8,282.6,204.3,282.9z"/>
<path class="st1" d="M209.2,285.7l0.8,0.5c0.3,0.1,0.6,0.2,0.9,0.1c0.3,0,0.6-0.1,0.9-0.3l90.3-52.2c0.6-0.3,0.7-0.8,0.3-1l-0.8-0.5
	c-0.3-0.1-0.6-0.2-0.9-0.1s-0.6,0.1-0.9,0.3l-90.3,52.1C208.9,285,208.8,285.5,209.2,285.7z"/>
<path class="st1" d="M213.9,288.5l0.8,0.5c0.3,0.1,0.6,0.2,0.9,0.1c0.3,0,0.6-0.1,0.9-0.3l90.3-52.1c0.6-0.3,0.7-0.8,0.3-1l-0.8-0.5
	c-0.3-0.1-0.6-0.2-0.9-0.1c-0.3,0-0.6,0.1-0.9,0.3l-90.3,52.2C213.6,287.7,213.5,288.2,213.9,288.5z"/>
<path class="st2" d="M198,296.2h-7l0-1.4h4l0-10h3V296.2z"/>
<path class="st6" d="M135.6,173.6c0.3-0.2,0.6-0.6,0.8-0.9c0.2-0.4,0.2-0.8,0.2-1.2c-0.1-1.1-0.4-2.3-1-3.3c-0.6-1-1.4-1.8-2.4-2.5
	c-0.3-0.2-0.7-0.4-1.1-0.4c-0.4,0-0.8,0-1.2,0.2l-52.6,30.4l4.7,8.1L135.6,173.6z"/>
<path class="st12" d="M80.6,199.9l54.9-31.7c0.6,1,0.9,2.1,1,3.3c0,0.1,0,0.2,0,0.4l-54.1,31.2L80.6,199.9z"/>
<path class="st7" d="M83.9,201.8c0,2.1-1.5,3-3.3,1.9c-1-0.6-1.8-1.5-2.4-2.5c-0.6-1-0.9-2.1-1-3.3c0-2.1,1.5-3,3.3-1.9
	c1,0.6,1.8,1.5,2.4,2.5C83.5,199.6,83.9,200.7,83.9,201.8z"/>
<path class="st16" d="M87.4,219.1c-1,0-2-0.2-2.9-0.7l-14-8.1c-0.4-0.2-0.8-0.5-1-0.9c-0.3-0.4-0.4-0.8-0.5-1.3
	c0-0.4,0.1-0.8,0.3-1.1c0.2-0.3,0.5-0.6,0.8-0.8l9.9-5.7c0.2-0.1,0.4-0.1,0.6-0.1c0.2,0.1,0.4,0.2,0.5,0.4c0.1,0.1,0.1,0.2,0.1,0.3
	c0,0.1,0,0.2,0,0.3c0,0.1-0.1,0.2-0.1,0.3c-0.1,0.1-0.1,0.2-0.2,0.2l-9.9,5.7c-0.2,0.1-0.3,0.3-0.3,0.4c0,0.1,0.2,0.5,0.7,0.7
	l14,8.1c0.5,0.3,1.2,0.5,1.8,0.5c0.6,0,1.2-0.1,1.8-0.3l26.9-15.6c2.1-1.2,3.8-2.9,5.2-4.9c1.2-1.8,2.8-3.4,4.7-4.6
	c1.1-0.7,2.5-1.1,3.8-1.1c3,0.1,6-0.7,8.5-2.3l24.4-14.1c0.2-0.1,0.4-0.3,0.4-0.4c0-0.1-0.2-0.5-0.7-0.7l-14-8.1
	c-0.5-0.3-1.2-0.5-1.8-0.5c-0.6,0-1.2,0.1-1.8,0.3l-8.7,5c-0.2-0.5-0.5-1-0.8-1.4l8.8-5.1c0.8-0.4,1.7-0.6,2.6-0.5
	c0.9,0,1.8,0.3,2.6,0.7l14,8.1c0.4,0.2,0.8,0.5,1,0.9c0.3,0.4,0.4,0.8,0.5,1.3c0,0.4-0.1,0.8-0.3,1.1c-0.2,0.3-0.5,0.6-0.8,0.8
	l-24.5,14.1c-2.8,1.7-6.1,2.6-9.4,2.5c-1,0-2,0.3-2.9,0.8c-1.7,1-3.1,2.4-4.2,4.1c-1.5,2.2-3.4,4.1-5.7,5.4l-26.9,15.6
	C89.1,219,88.3,219.2,87.4,219.1z"/>
<path class="st12" d="M87.4,217.7c-1,0-2-0.2-2.9-0.7l-14-8.1c-0.4-0.2-0.8-0.5-1-0.9c-0.3-0.4-0.4-0.8-0.5-1.3
	c0-0.4,0.1-0.8,0.3-1.1c0.2-0.3,0.5-0.6,0.8-0.8l9.9-5.7c0.1-0.1,0.2-0.1,0.3-0.1c0.1,0,0.2,0,0.3,0c0.1,0,0.2,0.1,0.3,0.1
	c0.1,0.1,0.2,0.2,0.2,0.2c0.1,0.1,0.1,0.2,0.1,0.3c0,0.1,0,0.2,0,0.3c0,0.1-0.1,0.2-0.1,0.3c-0.1,0.1-0.2,0.2-0.2,0.2l-9.9,5.7
	c-0.2,0.1-0.3,0.3-0.3,0.4c0,0.1,0.2,0.5,0.7,0.7l14,8.1c0.5,0.3,1.1,0.5,1.8,0.5c0.6,0,1.2-0.1,1.8-0.3l26.9-15.5
	c2.1-1.2,3.8-2.9,5.2-4.9c1.2-1.9,2.8-3.4,4.7-4.6c1.1-0.7,2.5-1.1,3.8-1.1c3,0.1,6-0.7,8.5-2.3l24.4-14.1c0.2-0.1,0.4-0.3,0.4-0.4
	c0-0.1-0.2-0.5-0.7-0.7l-14-8.1c-0.5-0.3-1.2-0.5-1.8-0.5s-1.2,0.1-1.8,0.3l-8.7,5c-0.2-0.5-0.5-1-0.8-1.4l8.8-5.1
	c0.8-0.4,1.7-0.6,2.6-0.5s1.8,0.3,2.6,0.7l14,8.1c0.4,0.2,0.8,0.5,1,0.9c0.3,0.4,0.4,0.8,0.5,1.3c0,0.4-0.1,0.8-0.3,1.1
	c-0.2,0.3-0.5,0.6-0.8,0.8l-24.5,14.2c-2.8,1.7-6.1,2.6-9.4,2.5c-1,0-2,0.3-2.9,0.8c-1.7,1-3.1,2.4-4.2,4.1
	c-1.5,2.2-3.4,4.1-5.7,5.4l-26.9,15.6C89.1,217.5,88.3,217.7,87.4,217.7z"/>
<path class="st12" d="M173.2,292.4l115.2-66.5V38l-115.2,66.5V292.4z"/>
<path class="st6" d="M288.4,38L224,0.9L108.9,67.4l64.4,37.2L288.4,38z"/>
<path class="st7" d="M108.9,67.4v187.8l64.4,37.2V104.5L108.9,67.4z"/>
<path class="st12" d="M164.8,124.1v-2.7L117.4,94v2.7L164.8,124.1z M117.4,114.4v2.6l47.4,27.4v-2.7L117.4,114.4z M117.4,107.6v2.7
	l47.4,27.4V135L117.4,107.6z M117.4,100.8v2.7l47.4,27.4v-2.7L117.4,100.8z M117.4,161.5v2.7l47.4,27.4v-2.7L117.4,161.5z
	 M117.4,168.2v2.7l47.4,27.4v-2.7L117.4,168.2z"/>
<path class="st19" d="M163,243.1v27.9c0,0.9-0.5,1.4-1.1,1.1l-41.7-24.1c-0.4-0.3-0.6-0.6-0.8-1c-0.2-0.4-0.3-0.8-0.3-1.3v-27.9
	c0-0.9,0.5-1.4,1.1-1.1l41.7,24.1c0.3,0.3,0.6,0.6,0.8,1C162.9,242.2,163,242.6,163,243.1z"/>
<path class="st12" d="M122.6,222.4l1.3,0.7v22.7l-1.3-0.7V222.4z"/>
<path class="st12" d="M127.8,225.4l2.2,1.3v22.7l-2.2-1.3V225.4z"/>
<path class="st12" d="M132.9,228.4l1.3,0.7l0,22.7l-1.3-0.7V228.4z"/>
<path class="st12" d="M136.8,230.5l2.5,1.5v22.7l-2.5-1.5V230.5z"/>
<path class="st12" d="M143.2,234.3l1.3,0.7v22.7l-1.3-0.7V234.3z"/>
<path class="st12" d="M146.9,236.4l2.7,1.6v22.7l-2.7-1.6V236.4z"/>
<path class="st12" d="M153.4,240.2l1.3,0.7v22.7l-1.3-0.7L153.4,240.2z"/>
<path class="st12" d="M156.4,241.9l0.6,0.4V265l-0.6-0.4V241.9z"/>
<path class="st12" d="M151.1,239l0.6,0.4l0,22.7l-0.6-0.4V239z"/>
<path class="st12" d="M140.7,232.9l0.6,0.4V256l-0.6-0.4V232.9z"/>
<path class="st12" d="M135.1,229.7l0.6,0.4l0,22.7l-0.6-0.4V229.7z"/>
<path class="st12" d="M131,227.4l0.6,0.4v22.7l-0.6-0.4V227.4z"/>
<path class="st12" d="M125.5,224.1l0.6,0.4v22.7l-0.6-0.4V224.1z"/>
<path class="st12" d="M158.6,243.2l1.3,0.7v22.7l-1.3-0.7V243.2z"/>
<path class="st2" d="M189.9,115.5l81.8-47.2v117.4l-81.8,47.2V115.5z"/>
<path class="st20" d="M189.9,115.5l81.8-47.2v117.4l-81.8,47.2V115.5z"/>
<path class="st21" d="M203.8,107.4l-13.9,28.3v21.9l28.9-58.8L203.8,107.4z M232.1,91.1l-42.2,86.1v9.6l48.8-99.5L232.1,91.1z
	 M189.9,115.5v6.1l4.2-8.6L189.9,115.5z M271.7,185.5v-21.7l-14.9,30.3L271.7,185.5z M225,212.5l46.7-95V95.6l-61.6,125.5L225,212.5
	z M252.5,79.3l-62.6,127.6v25.9l6.5-3.8l75.3-153.4v-7.4L252.5,79.3z M244,201.6l27.7-56.5v-9.6l-34.3,69.9L244,201.6z"/>
<path class="st7" d="M204,33.1l-10.7-2l-32.1,18.5l3.5,6.2l-37.9,21.9l0.7,0.4l38.4-22.2l-3.5-6.2l31.2-18l10.7,2l38.4-22.2
	l-0.7-0.4L204,33.1z"/>
<path class="st18" d="M209.5,247c0.8-0.8,1.4-1.8,1.8-2.8c0.4-1.1,0.6-2.2,0.6-3.3c0-1.6-0.4-2.7-1.2-3.2c-0.8-0.5-1.9-0.3-3.4,0.6
	l-4.6,2.7c-0.1,0.1-0.3,0.2-0.3,0.4c-0.1,0.2-0.1,0.3-0.1,0.5v15.3c0,0.1,0,0.1,0,0.2c0,0.1,0.1,0.1,0.1,0.2c0.1,0,0.1,0.1,0.2,0.1
	c0.1,0,0.1,0,0.2-0.1l1.4-0.8c0.1-0.1,0.3-0.2,0.3-0.4c0.1-0.2,0.1-0.3,0.2-0.5v-5.5l2.4-1.4l2.3,4.2c0.1,0.1,0.1,0.2,0.2,0.3
	c0.1,0.1,0.3,0.1,0.5-0.1l1.5-0.9c0.1-0.1,0.2-0.2,0.3-0.3c0.1-0.1,0.1-0.3,0.1-0.4c0-0.1,0-0.2-0.1-0.2L209.5,247z M208.8,244.5
	c-0.4,0.6-1,1.1-1.6,1.4l-2.6,1.5v-4.5l2.6-1.5c0.5-0.3,1-0.5,1.6-0.5c0.4,0.1,0.6,0.5,0.6,1.4C209.4,243.1,209.2,243.8,208.8,244.5
	L208.8,244.5z M199.1,244.5c-0.8-0.4-1.9-0.2-3.3,0.6l-4.8,2.8c-0.1,0.1-0.3,0.2-0.3,0.4c-0.1,0.2-0.1,0.3-0.1,0.5V264
	c0,0.1,0,0.1,0,0.2c0,0.1,0.1,0.1,0.1,0.2c0.1,0,0.1,0.1,0.2,0.1c0.1,0,0.1,0,0.2-0.1l1.4-0.8c0.1-0.1,0.3-0.2,0.3-0.4
	c0.1-0.2,0.1-0.3,0.1-0.5v-5.3l2.9-1.7c1.4-0.8,2.5-1.9,3.3-3.3c0.8-1.4,1.2-3,1.2-4.7C200.3,246,199.9,244.9,199.1,244.5
	L199.1,244.5z M197.3,251.3c-0.4,0.6-1,1.1-1.6,1.5l-2.8,1.6v-4.7l2.8-1.6c0.5-0.3,1-0.5,1.6-0.4c0.4,0.1,0.6,0.6,0.6,1.5
	C197.9,249.9,197.7,250.6,197.3,251.3z M236.3,225.4c-0.2-0.6-0.5-1.1-1-1.5c-0.5-0.3-1-0.5-1.6-0.4c-0.8,0.1-1.6,0.4-2.3,0.8
	l-4.4,2.5c-0.1,0.1-0.3,0.2-0.3,0.4c-0.1,0.2-0.1,0.3-0.1,0.5v15.3c0,0.1,0,0.1,0,0.2c0,0.1,0.1,0.1,0.1,0.2c0,0,0.1,0.1,0.2,0.1
	c0.1,0,0.1,0,0.2-0.1l4.5-2.6c0.8-0.5,1.6-1.1,2.2-1.8c0.6-0.7,1.2-1.4,1.6-2.2c0.4-0.8,0.8-1.7,1-2.6c0.2-1,0.4-2,0.4-2.9
	c0-1.2,0-2.4,0-3.5C236.7,227,236.6,226.2,236.3,225.4z M234.3,232.8c0,0.5-0.1,1-0.2,1.6c-0.1,0.5-0.3,1-0.5,1.5
	c-0.2,0.5-0.5,0.9-0.9,1.3c-0.4,0.4-0.8,0.7-1.3,1l-2.5,1.4v-10.7l2.4-1.4c0.4-0.3,0.8-0.4,1.3-0.5c0.3,0,0.7,0,0.9,0.2
	c0.3,0.2,0.5,0.5,0.6,0.8c0.1,0.4,0.2,0.8,0.2,1.3C234.4,230.4,234.4,231.6,234.3,232.8L234.3,232.8z M254,216.3
	c0.1-0.5,0.3-1,0.5-1.5c0.2-0.4,0.5-0.9,0.8-1.3c0.3-0.4,0.8-0.7,1.2-1c0.4-0.2,0.8-0.4,1.2-0.5c0.3-0.1,0.6,0,0.8,0.1
	c0.2,0.1,0.4,0.3,0.5,0.5c0.1,0.2,0.2,0.5,0.3,0.8c0,0.2,0.1,0.3,0.2,0.4c0.1,0,0.1,0,0.2,0c0.1,0,0.1,0,0.2-0.1l1.4-0.8
	c0.1-0.1,0.3-0.2,0.4-0.4c0.1-0.2,0.1-0.4,0.1-0.5c0-0.6-0.2-1.2-0.4-1.7c-0.2-0.5-0.5-0.9-1-1.2c-0.5-0.3-1.1-0.4-1.6-0.3
	c-0.8,0.1-1.6,0.4-2.4,0.8c-0.8,0.5-1.5,1.1-2.2,1.7c-0.6,0.7-1.2,1.5-1.6,2.3c-0.4,0.8-0.8,1.7-1,2.7c-0.2,0.9-0.4,1.9-0.4,2.9
	c0,0.6,0,1.3,0,2c0,0.7,0,1.4,0,2c0,0.8,0.2,1.6,0.4,2.4c0.2,0.6,0.5,1.1,1,1.5c0.5,0.3,1,0.5,1.6,0.4c0.8-0.1,1.5-0.4,2.2-0.8
	c0.9-0.5,1.7-1.1,2.4-1.9c0.6-0.7,1.2-1.4,1.6-2.2c0.4-0.7,0.7-1.5,1-2.3c0.2-0.7,0.3-1.4,0.4-2.2c0-0.2,0-0.3-0.1-0.4
	c-0.1,0-0.1-0.1-0.2-0.1c-0.1,0-0.1,0-0.2,0.1l-1.4,0.8c-0.1,0.1-0.2,0.2-0.3,0.3c-0.1,0.2-0.2,0.4-0.2,0.6c0,0.4-0.1,0.7-0.2,1.1
	c-0.1,0.4-0.3,0.8-0.6,1.1c-0.2,0.4-0.5,0.8-0.8,1.1c-0.4,0.4-0.8,0.7-1.2,0.9c-0.4,0.2-0.8,0.4-1.2,0.4c-0.3,0-0.6-0.1-0.8-0.3
	c-0.3-0.2-0.4-0.5-0.5-0.8c-0.1-0.4-0.2-0.8-0.2-1.3c0-0.6,0-1.2,0-2c0-0.7,0-1.4,0-2C253.8,217.2,253.9,216.7,254,216.3z
	 M224.2,234.8c0-0.8-0.1-1.6-0.4-2.3c-0.2-0.6-0.5-1.1-1-1.5c-0.5-0.3-1-0.5-1.6-0.5c-0.8,0.1-1.6,0.4-2.3,0.8
	c-0.9,0.5-1.6,1.1-2.3,1.8c-0.6,0.7-1.2,1.5-1.6,2.3c-0.4,0.8-0.8,1.7-1,2.6c-0.2,0.9-0.3,1.8-0.4,2.7c0,0.3,0,0.6,0,1s0,0.7,0,1.1
	s0,0.8,0,1.1c0,0.4,0,0.7,0,1c0,0.8,0.1,1.5,0.4,2.3c0.2,0.6,0.5,1.1,1,1.5c0.5,0.3,1,0.5,1.6,0.4c0.8-0.1,1.6-0.4,2.3-0.8
	c0.8-0.5,1.6-1.1,2.3-1.8c0.6-0.7,1.2-1.5,1.6-2.3c0.4-0.8,0.8-1.7,1-2.6c0.2-0.9,0.3-1.8,0.4-2.7c0-0.3,0-0.6,0-1s0-0.8,0-1.1
	s0-0.8,0-1.1S224.2,235.1,224.2,234.8L224.2,234.8z M221.8,240.3c0,1.1-0.3,2.2-0.8,3.1c-0.5,0.9-1.2,1.6-2,2.1
	c-0.8,0.5-1.5,0.6-2,0.2c-0.5-0.3-0.8-1.1-0.8-2.2c0-0.6,0-1.3,0-2c0-0.7,0-1.4,0-2c0-1.1,0.3-2.2,0.8-3.1c0.5-0.9,1.2-1.6,2-2.1
	c0.3-0.2,0.6-0.4,1-0.4c0.4,0,0.7,0,1,0.2c0.3,0.3,0.5,0.6,0.7,1c0.1,0.4,0.2,0.8,0.2,1.2c0,0.6,0,1.3,0,2
	C221.8,239,221.8,239.7,221.8,240.3L221.8,240.3z M272.6,200.8c0,0-0.1-0.1-0.2-0.1c-0.1,0-0.1,0-0.2,0.1l-8.8,5.1
	c-0.2,0.1-0.3,0.2-0.3,0.4c-0.1,0.2-0.1,0.3-0.1,0.5v1.7c0,0.1,0,0.1,0,0.2c0,0.1,0.1,0.1,0.1,0.2c0,0,0.1,0.1,0.2,0.1
	c0.1,0,0.1,0,0.2-0.1l3.2-1.8v13c0,0.1,0,0.1,0,0.2c0,0.1,0.1,0.1,0.1,0.2c0,0,0.1,0.1,0.2,0.1c0.1,0,0.1,0,0.2-0.1l1.4-0.8
	c0.1-0.1,0.3-0.2,0.3-0.4c0.1-0.2,0.1-0.3,0.1-0.5v-13l3.2-1.8c0.1-0.1,0.3-0.2,0.3-0.4c0.1-0.2,0.1-0.3,0.1-0.5v-1.7
	c0-0.1,0-0.1,0-0.2C272.7,200.9,272.7,200.8,272.6,200.8L272.6,200.8z M248.7,214.4l-1.4,0.8c-0.1,0.1-0.3,0.2-0.3,0.4
	c-0.1,0.2-0.1,0.3-0.1,0.5v9.6c0,0.6-0.1,1.2-0.2,1.8c-0.1,0.5-0.3,1-0.6,1.5c-0.2,0.4-0.5,0.8-0.8,1.1c-0.3,0.3-0.7,0.6-1.1,0.8
	c-0.3,0.2-0.7,0.3-1.1,0.4c-0.3,0.1-0.6,0-0.8-0.1c-0.3-0.2-0.5-0.5-0.5-0.8c-0.1-0.5-0.2-1-0.2-1.6v-9.6c0-0.1,0-0.1,0-0.2
	c0-0.1-0.1-0.1-0.1-0.2c-0.1,0-0.1-0.1-0.2-0.1s-0.1,0-0.2,0.1l-1.4,0.8c-0.1,0.1-0.3,0.2-0.3,0.4c-0.1,0.2-0.1,0.3-0.1,0.5v9.8
	c0,0.8,0.1,1.7,0.3,2.5c0.2,0.6,0.5,1.1,1,1.5c0.5,0.3,1,0.5,1.6,0.4c0.8-0.1,1.6-0.4,2.2-0.8c0.8-0.5,1.6-1.1,2.2-1.8
	c0.6-0.7,1.2-1.4,1.6-2.2c0.4-0.8,0.7-1.7,1-2.6c0.2-0.9,0.3-1.9,0.3-2.8v-9.8c0-0.1,0-0.1,0-0.2c0-0.1-0.1-0.1-0.1-0.2
	c0,0-0.1,0-0.1-0.1c0,0-0.1,0-0.1,0S248.8,214.3,248.7,214.4C248.7,214.4,248.7,214.4,248.7,214.4z"/>
<path class="st2" d="M161.8,164.2l14.3,62.9l5.7-15.1l5.1-13.7l8.4,1.1l9.2,1.2l-14.3-62.9L161.8,164.2z"/>
<g class="st22">
	<path class="st10" d="M161.8,164.2l14.3,62.9l5.7-15.1l5.1-13.7l8.4,1.1l9.2,1.2l-14.3-62.9L161.8,164.2z"/>
</g>
<path class="st2" d="M177.4,209l-10.9-48.2l1.4-1.3L178,204l6.4-16.8l10.3,1.2L184.5,144l1.4-1.3l11,48.2l-12-1.4L177.4,209z"/>
<g class="st8">
	<path d="M177.4,209l-10.9-48.2l1.4-1.3L178,204l6.4-16.8l10.3,1.2L184.5,144l1.4-1.3l11,48.2l-12-1.4L177.4,209z"/>
</g>
<path class="st23" d="M172.5,211.5l10.6-59.1l-11.5,2.5l-9.9,9.3L172.5,211.5z"/>
<path class="st2" d="M180.9,153.2l-14.3,79.4l-5.7-8.5l-5.1-7.8l-8.4,10.7l-9.2,11.8l14.3-79.4L180.9,153.2z"/>
<g class="st24">
	<path class="st10" d="M180.9,153.2l-14.3,79.4l-5.7-8.5l-5.1-7.8l-8.4,10.7l-9.2,11.8l14.3-79.4L180.9,153.2z"/>
</g>
<path class="st2" d="M165.2,216l-7.4-11l-12,15.3l10.9-60.9l1.4-0.3L148,215.3l10.3-13.1l6.4,9.5l10.1-56.2l1.4-0.3L165.2,216z"/>
<path class="st23" d="M190.2,137.6l-18.9,17.7l-18.9,4.2l-4.8,26.5c0.6,0.2,1.3,0.3,1.9,0.2c0.6-0.1,1.3-0.3,1.8-0.7
	c0.6-0.3,1.1-0.7,1.6-1.2c0.1-0.1,0.3-0.2,0.4-0.3c0.1-0.1,0.3-0.2,0.5-0.2c0.2,0,0.4,0,0.5,0.1c0.2,0.1,0.3,0.2,0.4,0.4
	s0.2,0.3,0.2,0.5c0.7,3.1,3.1,4.2,5.8,2.6c1.4-0.9,2.6-2,3.4-3.4c0.2-0.4,0.6-0.7,1-1c0.2-0.2,0.5-0.2,0.7-0.2
	c0.3,0,0.5,0.2,0.7,0.4c1.1,1.5,3,1.7,5,0.6c2.3-1.5,4-3.7,5-6.3c0.3-0.7,0.8-1.4,1.4-1.8c0.1-0.1,0.3-0.2,0.5-0.2s0.3,0,0.5,0
	c0.6,0.2,1.2,0.2,1.8,0.1c0.6-0.1,1.2-0.3,1.7-0.7c2.7-1.6,5.1-5.4,5.8-9.4c0.1-0.5,0.3-1,0.6-1.5c0.3-0.5,0.7-0.9,1.1-1.2
	c0.1-0.1,0.3-0.1,0.4-0.2c0.6-0.1,1.1-0.3,1.6-0.6c1.2-0.7,2.2-1.7,3-2.8L190.2,137.6z"/>
<path class="st2" d="M174.9,86.3c1.2,1.7,3.7,0.8,5.4-1.9c2.2-3.3,5.3-3.6,6-0.6c0.6,2.4,2.7,2.8,4.8,0.9c2.6-2.4,5.1-1.1,4.9,2.6
	c-0.2,3,1.4,4.5,3.5,3.6c2.7-1.2,4.3,1.6,3.2,5.5c-0.9,3.1-0.1,5.7,1.9,5.8c2.4,0.1,3,4.1,1.1,7.7c-1.5,2.9-1.5,6.2,0,7.3
	c1.9,1.5,1.3,6.1-1.1,9c-1.9,2.3-2.8,5.9-1.9,8c1.1,2.6-0.5,7.3-3.2,9.2c-1.1,0.9-2,2.1-2.7,3.4c-0.6,1.3-0.9,2.8-0.9,4.2
	c0.2,3.4-2.3,7.7-4.9,8.3c-2.1,0.5-4.2,3.3-4.8,6.4c-0.7,3.9-3.8,7.1-6,6.4c-1.8-0.6-4.2,1.4-5.4,4.4c-1.6,3.8-4.8,5.7-6.4,3.7
	c-1.2-1.6-3.7-0.8-5.4,1.9c-2.2,3.3-5.3,3.6-6,0.5c-0.6-2.4-2.7-2.8-4.8-0.9c-2.6,2.4-5.1,1.1-4.9-2.7c0.2-2.9-1.4-4.5-3.5-3.6
	c-2.7,1.2-4.3-1.6-3.2-5.5c0.9-3.1,0.1-5.7-1.9-5.8c-2.4-0.1-3-4.1-1.1-7.7c1.5-2.9,1.5-6.2,0-7.3c-1.9-1.5-1.3-6.1,1.1-9
	c1.9-2.3,2.8-5.9,1.9-8c-1.1-2.6,0.5-7.3,3.2-9.2c1.1-0.9,2-2.1,2.7-3.4c0.6-1.3,0.9-2.8,0.9-4.2c-0.2-3.5,2.3-7.7,4.9-8.3
	c2.1-0.5,4.2-3.3,4.8-6.4c0.7-3.9,3.8-7.1,6-6.4c1.8,0.6,4.2-1.4,5.4-4.4C170.1,86.1,173.4,84.2,174.9,86.3z"/>
<path class="st25" d="M174.9,86.3c1.2,1.7,3.7,0.8,5.4-1.9c2.2-3.3,5.3-3.6,6-0.6c0.6,2.4,2.7,2.8,4.8,0.9c2.6-2.4,5.1-1.1,4.9,2.6
	c-0.2,3,1.4,4.5,3.5,3.6c2.7-1.2,4.3,1.6,3.2,5.5c-0.9,3.1-0.1,5.7,1.9,5.8c2.4,0.1,3,4.1,1.1,7.7c-1.5,2.9-1.5,6.2,0,7.3
	c1.9,1.5,1.3,6.1-1.1,9c-1.9,2.3-2.8,5.9-1.9,8c1.1,2.6-0.5,7.3-3.2,9.2c-1.1,0.9-2,2.1-2.7,3.4c-0.6,1.3-0.9,2.8-0.9,4.2
	c0.2,3.4-2.3,7.7-4.9,8.3c-2.1,0.5-4.2,3.3-4.8,6.4c-0.7,3.9-3.8,7.1-6,6.4c-1.8-0.6-4.2,1.4-5.4,4.4c-1.6,3.8-4.8,5.7-6.4,3.7
	c-1.2-1.6-3.7-0.8-5.4,1.9c-2.2,3.3-5.3,3.6-6,0.5c-0.6-2.4-2.7-2.8-4.8-0.9c-2.6,2.4-5.1,1.1-4.9-2.7c0.2-2.9-1.4-4.5-3.5-3.6
	c-2.7,1.2-4.3-1.6-3.2-5.5c0.9-3.1,0.1-5.7-1.9-5.8c-2.4-0.1-3-4.1-1.1-7.7c1.5-2.9,1.5-6.2,0-7.3c-1.9-1.5-1.3-6.1,1.1-9
	c1.9-2.3,2.8-5.9,1.9-8c-1.1-2.6,0.5-7.3,3.2-9.2c1.1-0.9,2-2.1,2.7-3.4c0.6-1.3,0.9-2.8,0.9-4.2c-0.2-3.5,2.3-7.7,4.9-8.3
	c2.1-0.5,4.2-3.3,4.8-6.4c0.7-3.9,3.8-7.1,6-6.4c1.8,0.6,4.2-1.4,5.4-4.4C170.1,86.1,173.4,84.2,174.9,86.3z"/>
<path class="st2" d="M195.1,143.3c9.7-22.8,7.1-45.8-5.8-51.3c-12.9-5.5-31.2,8.6-40.9,31.4c-9.7,22.8-7.1,45.8,5.8,51.3
	C167.1,180.1,185.4,166.1,195.1,143.3z"/>
<path class="st19" d="M187.4,140c6.5-15.3,4.8-30.6-3.9-34.3s-20.9,5.7-27.4,21c-6.5,15.3-4.8,30.6,3.9,34.3
	C168.6,164.7,180.9,155.3,187.4,140z"/>
<path class="st2" d="M171.7,161.4c-11.6,6.7-21.1-0.4-21.1-15.9c0-15.5,9.5-33.6,21.1-40.3c11.6-6.7,21.1,0.4,21.1,15.9
	C192.8,136.7,183.4,154.7,171.7,161.4z M171.7,109.2c-10,5.8-18.1,21.2-18.1,34.5c0,13.3,8.1,19.4,18.1,13.7
	c10-5.8,18.1-21.2,18.1-34.5C189.8,109.6,181.7,103.5,171.7,109.2z"/>
<g class="st13">
	<path d="M171.7,161.4c-11.6,6.7-21.1-0.4-21.1-15.9c0-15.5,9.5-33.6,21.1-40.3c11.6-6.7,21.1,0.4,21.1,15.9
		C192.8,136.7,183.4,154.7,171.7,161.4z M171.7,109.2c-10,5.8-18.1,21.2-18.1,34.5c0,13.3,8.1,19.4,18.1,13.7
		c10-5.8,18.1-21.2,18.1-34.5C189.8,109.6,181.7,103.5,171.7,109.2z"/>
</g>
<path class="st19" d="M157.7,168.3c0,0.1-0.1,0.2-0.1,0.3c-0.1,0.1-0.1,0.3-0.2,0.4s-0.1,0.3-0.2,0.4l-0.1,0.3
	c0,0.1-0.1,0.3-0.1,0.4c0,0.1,0,0.2,0,0.4c0,0.1,0,0.2,0.1,0.3c0.1,0.1,0.2,0.1,0.3,0.2c0.1,0,0.2,0,0.3,0c0.1,0,0.2-0.1,0.3-0.1
	c0.1-0.1,0.1-0.1,0.2-0.2c0.1-0.1,0.1-0.1,0.1-0.2c0-0.1,0.1-0.1,0.1-0.2c0,0,0,0,0.1,0c0,0,0,0,0.1,0l0.7,0.2c0,0,0.1,0,0.1,0.1
	c0,0,0,0.1,0,0.1c-0.1,0.3-0.3,0.6-0.4,0.8c-0.2,0.2-0.4,0.4-0.6,0.6c-0.2,0.1-0.4,0.3-0.7,0.3c-0.2,0.1-0.5,0.1-0.7,0
	c-0.2-0.1-0.4-0.2-0.6-0.4c-0.1-0.2-0.2-0.4-0.3-0.7c0-0.3,0-0.6,0-0.8c0-0.3,0.1-0.7,0.2-1c0.1-0.2,0.2-0.5,0.3-0.8
	c0.1-0.3,0.2-0.5,0.3-0.8c0.1-0.3,0.3-0.6,0.5-0.8c0.2-0.2,0.4-0.5,0.6-0.7c0.2-0.2,0.4-0.3,0.7-0.4c0.2-0.1,0.5-0.1,0.7,0
	c0.2,0.1,0.4,0.2,0.5,0.4c0.2,0.2,0.3,0.4,0.3,0.6c0.1,0.3,0.1,0.5,0.1,0.8c0,0.3-0.1,0.6-0.2,0.8c0,0,0,0.1-0.1,0.1c0,0,0,0,0,0
	c0,0,0,0-0.1,0l-0.7-0.2c0,0,0,0-0.1,0c0,0,0,0,0-0.1c0-0.1,0-0.1,0-0.2c0-0.1,0-0.1,0-0.2c0-0.1,0-0.2,0-0.3c0-0.1-0.1-0.2-0.1-0.2
	c-0.1-0.1-0.2-0.1-0.3-0.1c-0.1,0-0.2,0-0.3,0c-0.1,0-0.2,0.1-0.3,0.2c-0.1,0.1-0.2,0.2-0.2,0.3
	C157.9,168.1,157.8,168.2,157.7,168.3z"/>
<path class="st19" d="M162.6,171.4C162.7,171.4,162.7,171.4,162.6,171.4C162.7,171.5,162.7,171.5,162.6,171.4
	c0.1,0.1,0.1,0.2,0.1,0.2l-0.3,0.9c0,0.1-0.1,0.1-0.1,0.2c0,0,0,0-0.1,0c0,0,0,0-0.1,0h-2.6c0,0,0,0-0.1,0c0,0,0,0,0,0
	c0-0.1,0-0.1,0-0.2l1.6-5.7c0-0.1,0.1-0.1,0.1-0.2c0,0,0,0,0.1,0c0,0,0,0,0.1,0h2.6c0,0,0,0,0.1,0c0,0,0,0,0,0.1c0,0.1,0,0.1,0,0.2
	l-0.3,0.9c0,0.1,0,0.1-0.1,0.2c0,0,0,0-0.1,0c0,0,0,0-0.1,0h-1.7l-0.3,0.9h1.6c0,0,0,0,0.1,0c0,0,0,0,0,0.1c0,0.1,0,0.1,0,0.2
	l-0.3,0.9c0,0.1,0,0.1-0.1,0.2c0,0,0,0-0.1,0.1s0,0-0.1,0h-1.6l-0.3,1L162.6,171.4z"/>
<path class="st19" d="M166.3,166.2c0.2-0.1,0.4-0.1,0.7-0.1c0.2,0,0.3,0.1,0.5,0.2c0.1,0.2,0.2,0.3,0.2,0.5c0,0.3,0,0.6,0,0.8
	c-0.1,0.4-0.2,0.8-0.4,1.1c-0.2,0.3-0.4,0.6-0.6,0.8l0.4,1.9c0,0,0,0.1,0,0.1c0,0.1,0,0.1-0.1,0.1c0,0-0.1,0.1-0.1,0.1l-0.8,0.2
	c-0.1,0-0.1,0-0.1,0c0,0,0-0.1-0.1-0.1l-0.3-1.7l-0.5,0.1l-0.3,1.9c0,0.1,0,0.1-0.1,0.2c0,0-0.1,0.1-0.1,0.1l-0.8,0.2c0,0,0,0-0.1,0
	s0,0-0.1,0c0-0.1,0-0.1,0-0.2l0.9-5.6c0-0.1,0-0.1,0.1-0.2c0,0,0.1-0.1,0.1-0.1L166.3,166.2z M165.2,169l0.7-0.2
	c0.2,0,0.3-0.1,0.4-0.2c0.1-0.1,0.2-0.3,0.3-0.5c0-0.2,0-0.4-0.1-0.5c-0.1,0-0.1,0-0.2,0c-0.1,0-0.1,0-0.2,0l-0.7,0.2L165.2,169z"/>
<path class="st19" d="M171.4,164.2C171.5,164.2,171.5,164.2,171.4,164.2c0.1,0,0.1,0,0.1,0c0,0,0,0.1,0,0.1l-0.1,0.9
	c0,0.1,0,0.1-0.1,0.2c0,0.1-0.1,0.1-0.1,0.1l-1.1,0.5l-0.3,4.3c0,0.1,0,0.1-0.1,0.2c0,0.1-0.1,0.1-0.1,0.1l-0.8,0.4c0,0,0,0-0.1,0
	c0,0,0,0-0.1,0c0,0,0,0,0-0.1s0,0,0-0.1l0.3-4.3l-1.1,0.5c0,0,0,0-0.1,0s0,0-0.1,0c0,0,0,0,0-0.1c0,0,0,0,0-0.1l0.1-0.9
	c0-0.1,0-0.1,0.1-0.2c0-0.1,0.1-0.1,0.1-0.1L171.4,164.2z"/>
<path class="st19" d="M172.3,169.3C172.2,169.3,172.2,169.3,172.3,169.3c-0.1,0-0.1,0-0.1,0c0,0-0.1-0.1-0.1-0.1L172,164
	c0-0.1,0-0.1,0.1-0.2c0-0.1,0-0.1,0.1-0.1l0.8-0.5c0,0,0.1,0,0.1,0c0,0,0,0,0,0.1c0,0,0,0,0,0.1l0.1,5.1c0,0.1,0,0.1,0,0.2
	c0,0.1-0.1,0.1-0.1,0.1L172.3,169.3z"/>
<path class="st19" d="M176.6,160.5C176.7,160.4,176.7,160.4,176.6,160.5c0.1,0,0.1,0,0.1,0c0,0,0,0,0,0c0,0,0,0,0,0.1l0.1,0.8
	c0,0.1,0,0.1,0,0.2c0,0.1-0.1,0.1-0.1,0.1l-1.8,1.4l0.1,1l1.7-1.3c0,0,0,0,0.1,0s0,0,0.1,0c0,0,0,0,0,0c0,0,0,0,0,0.1l0.1,0.8
	c0,0.1,0,0.1,0,0.2c0,0.1-0.1,0.1-0.1,0.1l-1.7,1.3l0.2,1.6c0,0.1,0,0.1,0,0.2c0,0.1-0.1,0.1-0.1,0.1l-0.8,0.6c0,0,0,0-0.1,0
	c0,0,0,0-0.1,0c0,0,0,0,0,0c0,0,0,0,0-0.1l-0.6-4.8c0-0.1,0-0.1,0-0.2c0-0.1,0.1-0.1,0.1-0.1L176.6,160.5z"/>
<path class="st19" d="M178.5,164.5C178.5,164.6,178.5,164.6,178.5,164.5c-0.1,0-0.1,0-0.1,0c0,0-0.1,0-0.1-0.1l-1-4.4
	c0-0.1,0-0.1,0-0.2c0-0.1,0.1-0.1,0.1-0.2l0.8-0.7c0,0,0,0,0.1,0c0,0,0,0,0.1,0c0,0,0,0,0.1,0c0,0,0,0,0,0.1l1,4.4
	c0,0.1,0,0.1,0,0.2c0,0.1-0.1,0.1-0.1,0.2L178.5,164.5z"/>
<path class="st19" d="M183,158.5C183,158.4,183,158.4,183,158.5c0.1-0.1,0.1-0.1,0.1-0.1c0,0,0,0,0.1,0c0,0,0,0,0,0l0.2,0.7
	c0,0.1,0,0.1,0,0.2c0,0.1,0,0.1-0.1,0.2l-2.7,3c0,0,0,0-0.1,0c0,0,0,0-0.1,0c0,0,0,0-0.1,0c0,0,0,0,0,0l-1.5-4c0-0.1,0-0.1,0-0.2
	c0-0.1,0-0.1,0.1-0.2l2.6-2.9c0,0,0,0,0.1-0.1c0,0,0,0,0.1,0c0,0,0,0,0.1,0c0,0,0,0,0,0l0.3,0.7c0,0.1,0,0.1,0,0.2
	c0,0.1,0,0.1-0.1,0.2l-1.7,1.9l0.2,0.7l1.6-1.8c0,0,0,0,0.1,0c0,0,0,0,0.1,0c0,0,0.1,0,0.1,0.1l0.2,0.6c0,0.1,0,0.1,0,0.2
	c0,0.1,0,0.1-0.1,0.2l-1.6,1.8l0.3,0.7L183,158.5z"/>
<path class="st19" d="M183.8,152.4c0.2-0.3,0.4-0.6,0.7-0.8c0.2-0.2,0.4-0.3,0.7-0.4c0.2-0.1,0.4-0.1,0.6,0c0.2,0.1,0.4,0.2,0.5,0.4
	l0.1,0.2l0.1,0.2l0.1,0.2c0,0.1,0.1,0.1,0.1,0.2c0.1,0.2,0.2,0.5,0.2,0.8c0,0.3,0,0.6,0,0.9c-0.1,0.3-0.2,0.7-0.3,1
	c-0.2,0.4-0.3,0.7-0.6,1l-1.4,2c0,0-0.1,0.1-0.1,0.1c0,0,0,0-0.1,0c0,0,0,0,0,0l-2.1-3.2c0,0,0-0.1,0-0.1s0-0.1,0-0.1
	c0-0.1,0-0.1,0.1-0.2L183.8,152.4z M185.4,152.8c-0.3-0.4-0.6-0.2-1.1,0.4l-0.5,0.7l1.2,1.9l0.6-0.8c0.4-0.6,0.5-1.1,0.3-1.5
	c0-0.1-0.1-0.1-0.1-0.2l-0.1-0.2c0-0.1-0.1-0.1-0.1-0.2C185.5,152.9,185.4,152.9,185.4,152.8z"/>
<path class="st19" d="M152.5,128.8c0,0.1-0.1,0.1-0.1,0.2c0,0,0,0-0.1,0s0,0-0.1,0l-3.5-1.4c0,0,0,0-0.1,0c0,0,0,0,0-0.1
	c0-0.1,0-0.1,0-0.2l1.3-3.1c0.1-0.4,0.3-0.7,0.6-1c0.2-0.2,0.3-0.4,0.6-0.6c0.2-0.1,0.3-0.2,0.5-0.2c0.2,0,0.3,0,0.5,0
	c0.1,0,0.2,0.1,0.3,0.2c0.1,0.1,0.1,0.1,0.1,0.2c0,0.1,0.1,0.2,0.1,0.2c0,0.1,0,0.1,0,0.2c0.1-0.2,0.3-0.3,0.6-0.4
	c0.2-0.1,0.4-0.1,0.5,0c0.2,0.1,0.3,0.2,0.4,0.3c0.1,0.2,0.2,0.3,0.2,0.5c0,0.3,0,0.5,0,0.8c-0.1,0.4-0.2,0.7-0.3,1.1L152.5,128.8z
	 M151.3,124.1c0,0-0.1,0-0.1,0c-0.1,0-0.1,0-0.1,0.1c-0.1,0.1-0.2,0.3-0.3,0.4l-0.6,1.5l0.6,0.3l0.6-1.5c0.1-0.1,0.1-0.3,0.1-0.5
	c0-0.1,0-0.1,0-0.1C151.4,124.2,151.3,124.1,151.3,124.1z M152.2,126.9l0.7-1.6c0.1-0.2,0.1-0.3,0.1-0.5c0-0.1,0-0.1,0-0.2
	c0,0-0.1-0.1-0.1-0.1c-0.1,0-0.1,0-0.2,0c-0.1,0-0.1,0-0.1,0.1c-0.1,0.1-0.2,0.3-0.3,0.4l-0.7,1.6L152.2,126.9z"/>
<path class="st19" d="M156.9,117.4c0-0.1,0.1-0.1,0.1-0.1c0,0,0,0,0.1,0c0,0,0,0,0.1,0l0.5,0.4c0,0,0,0,0,0.1c0,0,0,0.1,0,0.1
	c0,0.1,0,0.1-0.1,0.2l-2.4,4.3c0,0.1-0.1,0.1-0.1,0.1c0,0,0,0-0.1,0c0,0,0,0-0.1,0l-3-2.6c0,0,0,0,0-0.1s0-0.1,0-0.1
	c0-0.1,0-0.1,0.1-0.2l2.3-4.2c0-0.1,0.1-0.1,0.1-0.1c0,0,0,0,0.1,0c0,0,0,0,0.1,0l0.5,0.4c0,0,0,0,0,0.1c0,0,0,0.1,0,0.1
	c0,0.1,0,0.1-0.1,0.2l-1.5,2.8l0.5,0.4l1.4-2.6c0-0.1,0.1-0.1,0.1-0.1c0.1,0,0.1,0,0.1,0l0.5,0.4c0,0,0,0,0,0.1c0,0,0,0.1,0,0.1
	c0,0.1,0,0.1-0.1,0.2l-1.4,2.6l0.5,0.4L156.9,117.4z"/>
<path class="st19" d="M157.2,111.1c0.2-0.3,0.5-0.6,0.7-0.8c0.2-0.2,0.4-0.4,0.7-0.5c0.2-0.1,0.4-0.1,0.6-0.1c0.1,0,0.1,0,0.2,0.1
	c0.1,0,0.1,0.1,0.2,0.1c0,0,0,0.1,0,0.1c0,0.1,0,0.1-0.1,0.2l-0.7,1c0,0.1-0.1,0.1-0.1,0.2l-0.1,0.1h-0.1c-0.1,0-0.1,0-0.2,0.1
	c-0.1,0-0.2,0.1-0.2,0.2c-0.1,0.1-0.2,0.2-0.3,0.3c-0.1,0.1-0.1,0.2-0.2,0.3c-0.1,0.1-0.1,0.2-0.1,0.3c0,0.1-0.1,0.2-0.1,0.3
	c0,0.1,0,0.1,0,0.2c0,0,0,0,0.1,0.1c0,0,0.1,0,0.1,0c0.1,0,0.2-0.1,0.3-0.2c0.1-0.1,0.2-0.2,0.4-0.4l0.6-0.6
	c0.2-0.2,0.4-0.4,0.7-0.6c0.2-0.1,0.4-0.2,0.5-0.3c0.1-0.1,0.3-0.1,0.4,0c0.2,0.1,0.3,0.2,0.4,0.3c0.1,0.2,0.2,0.4,0.2,0.7
	c0,0.3,0,0.6-0.1,0.9c-0.1,0.4-0.2,0.7-0.4,1c-0.2,0.4-0.4,0.7-0.7,1.1c-0.2,0.3-0.5,0.6-0.8,0.9c-0.2,0.2-0.5,0.4-0.7,0.5
	c-0.2,0.1-0.4,0.2-0.6,0.1c-0.1,0-0.2,0-0.2-0.1s-0.1-0.1-0.2-0.2c0,0,0-0.1,0-0.1c0-0.1,0-0.1,0.1-0.2l0.8-1.1
	c0-0.1,0.1-0.1,0.1-0.2c0,0,0.1-0.1,0.1-0.1h0.1c0.1,0,0.1,0,0.2-0.1c0.1,0,0.2-0.1,0.3-0.2c0.1-0.1,0.2-0.2,0.3-0.4
	c0.2-0.2,0.3-0.5,0.5-0.8c0.1-0.2,0.1-0.4,0.1-0.5c-0.1-0.1-0.1-0.1-0.2,0c-0.1,0.1-0.2,0.1-0.3,0.2c-0.1,0.1-0.3,0.3-0.4,0.4
	l-0.6,0.7c-0.3,0.4-0.7,0.7-1.1,0.8c-0.2,0-0.3,0-0.4-0.1c-0.1-0.1-0.2-0.2-0.3-0.3c-0.1-0.2-0.2-0.4-0.2-0.6c0-0.3,0-0.6,0.1-0.8
	c0.1-0.3,0.2-0.7,0.3-1C156.7,111.8,156.9,111.5,157.2,111.1z"/>
<path class="st19" d="M163.4,103.6C163.4,103.6,163.5,103.6,163.4,103.6c0.1-0.1,0.1-0.1,0.1-0.1c0,0,0,0,0.1,0s0,0,0,0.1l0.3,0.7
	c0,0.1,0,0.1,0,0.2c0,0.1-0.1,0.1-0.1,0.2l-1.1,1.2l1.2,3.6c0,0.1,0,0.1,0,0.2c0,0.1-0.1,0.1-0.1,0.2l-0.8,0.9c0,0,0,0-0.1,0.1
	c0,0-0.1,0-0.1,0c-0.1,0-0.1,0-0.1-0.1l-1.2-3.6l-1.1,1.2c0,0,0,0-0.1,0.1c0,0-0.1,0-0.1,0c0,0,0,0-0.1,0c0,0,0,0,0-0.1l-0.3-0.7
	c0-0.1,0-0.1,0-0.2c0-0.1,0-0.1,0.1-0.2L163.4,103.6z"/>
<path class="st19" d="M166.3,103.4c0-0.3,0-0.7,0.1-1c0.1-0.4,0.2-0.7,0.3-1c0.2-0.3,0.4-0.7,0.6-1c0.2-0.3,0.5-0.6,0.8-0.8
	c0.3-0.2,0.6-0.4,0.9-0.5c0.2-0.1,0.5-0.1,0.7,0c0.2,0.1,0.4,0.2,0.5,0.4c0.1,0.2,0.2,0.5,0.3,0.8c0,0.2,0.1,0.5,0.1,0.8
	c0,0.3,0.1,0.5,0.1,0.8c0,0.3,0,0.6-0.1,1c-0.1,0.3-0.2,0.6-0.3,1l0.6,0.6c0,0.1,0,0.1,0,0.2c0,0-0.1,0.1-0.1,0.1l-1,0.7
	c-0.1,0.1-0.1,0.1-0.2,0.1c0,0,0,0-0.1,0l-0.2-0.2c-0.1,0.1-0.2,0.2-0.3,0.3l-0.3,0.3c-0.3,0.2-0.5,0.4-0.9,0.5
	c-0.2,0.1-0.5,0.1-0.7,0c-0.2-0.1-0.4-0.2-0.5-0.4c-0.1-0.2-0.2-0.5-0.3-0.8c0-0.2-0.1-0.5-0.1-0.7
	C166.4,103.9,166.3,103.6,166.3,103.4z M169.4,102.7c0-0.1,0-0.2,0-0.3s0-0.3,0-0.4c0-0.1,0-0.3,0-0.4c0-0.1,0-0.2-0.1-0.3
	c0-0.1-0.1-0.2-0.1-0.3c0-0.1-0.1-0.1-0.2-0.2c-0.1,0-0.2,0-0.3,0c-0.1,0-0.3,0.1-0.4,0.2c-0.1,0.1-0.3,0.2-0.4,0.3
	c-0.1,0.1-0.2,0.3-0.2,0.4c-0.1,0.1-0.1,0.3-0.1,0.4c0,0.1,0,0.3,0,0.4c0,0.1,0,0.2,0,0.3s0,0.3,0,0.4s0,0.3,0,0.4
	c0,0.1,0,0.2,0,0.3c0,0.1,0,0.2,0.1,0.3c0.1,0.1,0.1,0.2,0.2,0.2c0.2,0.1,0.4,0,0.6-0.2c0.3-0.2,0.5-0.4,0.6-0.7
	C169.3,103.3,169.4,103,169.4,102.7z"/>
<path class="st19" d="M175.7,95.4C175.7,95.3,175.7,95.3,175.7,95.4c0.1,0,0.1,0,0.1,0c0,0,0,0.1,0,0.1c0,0,0,0.1,0,0.1l-0.2,3.7
	c0,0.4-0.1,0.8-0.2,1.2c-0.1,0.4-0.3,0.7-0.5,1c-0.2,0.3-0.4,0.6-0.7,0.8c-0.2,0.2-0.5,0.4-0.8,0.6c-0.3,0.1-0.5,0.2-0.8,0.2
	c-0.2,0-0.4-0.1-0.6-0.2c-0.2-0.2-0.3-0.4-0.4-0.6c-0.1-0.3-0.1-0.7-0.1-1.1l0.2-3.7c0-0.1,0-0.1,0.1-0.2c0-0.1,0.1-0.1,0.1-0.1
	l0.9-0.4c0,0,0,0,0.1,0c0,0,0,0,0.1,0c0,0.1,0,0.1,0,0.2l-0.2,3.7c0,0.3,0,0.5,0.1,0.8c0.1,0.2,0.3,0.2,0.6,0
	c0.3-0.1,0.5-0.3,0.6-0.6c0.2-0.3,0.2-0.6,0.3-1l0.3-3.6c0-0.1,0-0.1,0.1-0.2c0-0.1,0.1-0.1,0.1-0.1L175.7,95.4z"/>
<path class="st19" d="M179.7,94.4c0.1,0,0.1,0,0.2,0.1c0,0.1,0.1,0.1,0.1,0.2l0.2,5.8c0,0,0,0.1,0,0.1c0,0.1,0,0.1-0.1,0.2
	c0,0-0.1,0.1-0.1,0.1l-0.8,0.1c-0.1,0-0.1,0-0.2,0c0,0,0-0.1,0-0.1V100l-1.7,0.3l-0.3,0.8c0,0.1-0.1,0.1-0.1,0.2
	c0,0-0.1,0.1-0.1,0.1c0,0-0.1,0-0.1,0l-0.8,0.2c0,0,0,0,0,0s0,0,0,0c0,0,0-0.1,0-0.1c0-0.1,0-0.1,0.1-0.2l2.6-6.4
	c0-0.1,0.1-0.2,0.1-0.2c0-0.1,0.1-0.1,0.2-0.2L179.7,94.4z M177.9,98.8l1.1-0.2l-0.1-2.2L177.9,98.8z"/>
<path class="st19" d="M183.8,99.7C183.9,99.7,183.9,99.7,183.8,99.7C183.9,99.7,183.9,99.8,183.8,99.7c0.1,0.2,0.1,0.2,0.1,0.3
	l-0.3,1c0,0.1-0.1,0.1-0.1,0.2c0,0,0,0-0.1,0.1c0,0-0.1,0-0.1,0l-2.8-0.3c-0.1,0-0.1,0-0.1-0.1c0-0.1,0-0.1,0-0.2l2-6.3
	c0-0.1,0.1-0.1,0.1-0.2c0,0,0,0,0.1,0c0,0,0,0,0.1,0l0.8,0.1c0,0,0,0,0.1,0c0,0,0,0,0,0.1c0,0.1,0,0.1,0,0.2l-1.6,5L183.8,99.7z"/>
<path class="st19" d="M184,101.5c0,0-0.1-0.1-0.1-0.1c0-0.1,0-0.1,0-0.2l2.5-6.2c0-0.1,0.1-0.1,0.1-0.2c0.1,0,0.1-0.1,0.1,0l0.7,0.3
	c0,0,0,0,0.1,0s0,0,0,0.1c0,0.1,0,0.1,0,0.2l-2.5,6.2c0,0.1-0.1,0.1-0.1,0.2c0,0,0,0-0.1,0c0,0,0,0-0.1,0L184,101.5z"/>
<path class="st19" d="M191.3,97.2c0,0,0.1,0.1,0.1,0.1c0,0.1,0,0.1,0,0.2l-0.5,1c0,0.1-0.1,0.1-0.1,0.2c0,0,0,0-0.1,0c0,0,0,0-0.1,0
	l-0.9-0.6l-2.3,4.8c0,0.1-0.1,0.1-0.1,0.2c0,0,0,0-0.1,0c0,0,0,0-0.1,0l-0.7-0.4c0,0,0,0,0-0.1c0,0,0-0.1,0-0.1c0-0.1,0-0.1,0-0.2
	l2.4-4.8l-0.9-0.6c0,0,0,0,0-0.1c0,0,0,0,0-0.1c0-0.1,0-0.1,0.1-0.2l0.5-1c0-0.1,0.1-0.1,0.1-0.2c0,0,0,0,0.1,0c0,0,0,0,0.1,0
	L191.3,97.2z"/>
<path class="st19" d="M190.1,105.6c0,0.1-0.1,0.1-0.1,0.1c0,0,0,0-0.1,0c0,0,0,0-0.1,0l-0.5-0.6c0,0,0-0.1,0-0.1c0,0,0-0.1,0-0.1
	c0-0.1,0-0.1,0.1-0.2l1.2-1.8l1.4-4.8c0,0,0-0.1,0.1-0.1c0,0,0.1-0.1,0.1-0.1c0,0,0,0,0,0c0,0,0,0,0,0l0.6,0.7c0,0,0.1,0.1,0.1,0.1
	s0,0.1,0,0.1c0,0.1,0,0.1,0,0.2l-0.8,2.7l1.9-1.5l0.1-0.1c0,0,0.1,0,0.1,0c0,0,0.1,0,0.1,0.1l0.6,0.7c0,0,0,0.1,0,0.1
	c0,0.1,0,0.1-0.1,0.2c0,0-0.1,0.1-0.1,0.1l-3.2,2.5L190.1,105.6z"/>
<path class="st19" d="M197.2,114.7l0.7,1.4l1.5-0.6c0.4-0.1,0.5,0.4,0.2,0.8l-1.1,2l0.3,1.9c0.1,0.4-0.3,1-0.6,1l-1.4-0.2l-1.4,1.8
	c-0.3,0.4-0.7,0.3-0.6-0.3l0.3-2.2l-1.1-0.8c-0.3-0.2-0.1-0.8,0.2-1.1l1.5-1.2l0.7-2.2C196.6,114.6,197.1,114.3,197.2,114.7z"/>
<path class="st19" d="M195.8,127.5l0.5,1l1-0.4c0.2-0.1,0.3,0.2,0.2,0.6l-0.7,1.4l0.2,1.2c0,0.3-0.2,0.7-0.4,0.7l-0.9-0.1l-0.9,1.2
	c-0.2,0.3-0.5,0.2-0.4-0.2l0.2-1.4l-0.7-0.5c-0.2-0.1-0.1-0.6,0.2-0.8l1-0.8l0.5-1.5C195.4,127.5,195.7,127.3,195.8,127.5z"/>
<path class="st19" d="M195.8,105.7l0.5,1l1-0.4c0.2-0.1,0.3,0.2,0.2,0.6l-0.7,1.4l0.2,1.2c0,0.3-0.2,0.7-0.4,0.7l-0.9-0.1l-0.9,1.2
	c-0.2,0.3-0.5,0.2-0.4-0.2l0.2-1.4l-0.7-0.5c-0.2-0.1-0.1-0.6,0.2-0.8l1-0.8l0.5-1.5C195.4,105.7,195.7,105.5,195.8,105.7z"/>
<path class="st19" d="M146.3,144.1l-0.7,2.2l-1.5,1.2c-0.4,0.3-0.5,0.9-0.3,1.1l1.1,0.8l-0.3,2.2c-0.1,0.5,0.3,0.7,0.6,0.3l1.3-1.7
	l1.4,0.2c0.3,0,0.7-0.5,0.6-1l-0.3-1.9l1.1-2c0.3-0.5,0.1-1-0.3-0.8l-1.5,0.6l-0.7-1.4C146.9,143.3,146.4,143.6,146.3,144.1z"/>
<path class="st19" d="M147.7,155.4l-0.5,1.5l-1,0.8c-0.2,0.2-0.3,0.6-0.2,0.8l0.7,0.5l-0.2,1.4c0,0.3,0.2,0.4,0.4,0.2l0.9-1.2
	l0.9,0.1c0.2,0,0.5-0.4,0.4-0.7l-0.2-1.2l0.7-1.4c0.2-0.3,0.1-0.7-0.2-0.6l-1,0.4l-0.5-1C148.1,154.8,147.8,155,147.7,155.4z"/>
<path class="st19" d="M147.7,133.5l-0.5,1.5l-1,0.8c-0.2,0.2-0.3,0.6-0.2,0.8l0.7,0.5l-0.2,1.4c0,0.3,0.2,0.4,0.4,0.2l0.9-1.2
	l0.9,0.1c0.2,0,0.5-0.4,0.4-0.7l-0.2-1.2l0.7-1.4c0.2-0.3,0.1-0.7-0.2-0.6l-1,0.4l-0.5-1C148.1,133,147.8,133.2,147.7,133.5z"/>
<path d="M344.5,219l-3.5-1.3l1.2-2.4l2.2,2L344.5,219z"/>
<path class="st7" d="M348.1,212.6c0,0,0.1,2.3,0.2,3c0,0.7-3.1,3-3.8,3.3l-0.2-1.7c-0.7,0.8-1.3,1.7-1.8,2.7c-0.6,1-1.4,3-3,4.3
	c-2.4,2-6.2,2.9-10,3.1c-3.8,0.1-6-0.8-7.1-1.7c-0.5-0.3-0.8-0.7-1-1.2c-0.2-0.5-0.2-1.1-0.1-1.6
	C321.6,221.9,348.1,212.6,348.1,212.6z"/>
<path class="st12" d="M337.9,204.7l0-1.3c-0.7,0-0.8,1.9-1.8,3.6c-1.5,2.5-3.3,4.8-5.4,6.9c-3.9,3.5-7.4,5.8-9.1,7.4
	c-2.3,2.1,1.7,5.6,8,5.2c3.1-0.2,8.6-1.7,10.2-3.5c1.6-1.8,2.5-4.7,3.8-6c1.3-1.3,3.9-2.7,4.7-4.3c0.4-0.9,0.2-3,0-4.8
	c-0.2-1.6-0.3-4.1-1.2-3.9l-0.1,0.8c-0.4,0.7-1.2,1.9-3.7,2.3C341.9,207.3,338.2,207.4,337.9,204.7z"/>
<path d="M339.5,209.6c0,0.1,0,0.1,0,0.2c0,0,0.1,0.1,0.1,0.1c0,0,0.1,0.1,0.1,0.1c0.1,0,0.1,0,0.2,0c0.1,0,0.1,0,0.2,0
	c0,0,0.1-0.1,0.1-0.1c0,0,0.1-0.1,0.1-0.1c0-0.1,0-0.1,0-0.2c0-0.1,0-0.1,0-0.2c0,0-0.1-0.1-0.1-0.1c0,0-0.1-0.1-0.1-0.1
	c-0.1,0-0.1,0-0.2,0c-0.1,0-0.1,0-0.2,0.1c0,0-0.1,0.1-0.1,0.1c0,0-0.1,0.1-0.1,0.1C339.5,209.5,339.5,209.5,339.5,209.6z"/>
<path d="M337.7,211.6c0,0.1,0.1,0.2,0.1,0.3c0.1,0.1,0.2,0.1,0.3,0.1c0.1,0,0.2-0.1,0.3-0.1c0.1-0.1,0.1-0.2,0.1-0.3
	c0-0.1-0.1-0.2-0.2-0.2c-0.1-0.1-0.2-0.1-0.3-0.1c-0.1,0-0.2,0.1-0.2,0.1C337.7,211.5,337.7,211.5,337.7,211.6z"/>
<path d="M335.8,213.7c0,0.1,0,0.1,0,0.1c0,0,0.1,0.1,0.1,0.1s0.1,0.1,0.1,0.1c0,0,0.1,0,0.1,0c0.1,0,0.1,0,0.2,0
	c0,0,0.1-0.1,0.1-0.1c0,0,0.1-0.1,0.1-0.1s0-0.1,0-0.2c0-0.1,0-0.1,0-0.2c0,0-0.1-0.1-0.1-0.1c0,0-0.1-0.1-0.1-0.1
	c-0.1,0-0.1,0-0.2,0c0,0-0.1,0-0.1,0s-0.1,0.1-0.1,0.1s-0.1,0.1-0.1,0.1C335.8,213.6,335.8,213.6,335.8,213.7z"/>
<path d="M334,215.7c0,0.1,0,0.1,0,0.1c0,0,0.1,0.1,0.1,0.1c0,0,0.1,0.1,0.1,0.1c0,0,0.1,0,0.2,0c0.1,0,0.2-0.1,0.2-0.2
	c0.1-0.1,0.1-0.2,0.1-0.3c0-0.1-0.1-0.2-0.1-0.2c-0.1-0.1-0.2-0.1-0.3-0.1c-0.1,0-0.2,0.1-0.3,0.1C334,215.5,334,215.6,334,215.7z"
	/>
<path d="M332.1,217.8c0,0,0,0.1,0,0.1c0,0,0.1,0.1,0.1,0.1c0,0,0.1,0.1,0.1,0.1c0,0,0.1,0,0.1,0c0.1,0,0.1,0,0.2,0
	c0,0,0.1-0.1,0.1-0.1c0,0,0.1-0.1,0.1-0.1c0-0.1,0-0.1,0-0.2c0-0.1,0-0.1,0-0.2c0,0-0.1-0.1-0.1-0.1c0,0-0.1-0.1-0.1-0.1
	c-0.1,0-0.1,0-0.2,0c0,0-0.1,0-0.1,0c0,0-0.1,0.1-0.1,0.1c0,0-0.1,0.1-0.1,0.1C332.1,217.7,332.1,217.7,332.1,217.8z"/>
<path class="st7" d="M339.9,209.7c0,0,0.1,0,0.1,0c0,0,0,0,0,0c0,0,0,0,0-0.1c0,0,0,0,0-0.1c0,0,0,0,0-0.1c-1.2-1.1-2.7-1.7-4.3-1.7
	c0,0-0.1,0-0.1,0.1c0,0,0,0.1,0,0.1c0,0,0,0,0,0.1c0,0,0,0,0,0c0,0,0,0,0.1,0c0,0,0,0,0.1,0c1.5,0,3,0.6,4.1,1.7
	C339.9,209.7,339.9,209.7,339.9,209.7z"/>
<path class="st7" d="M338.1,211.7C338.1,211.8,338.2,211.8,338.1,211.7c0.1,0,0.1-0.1,0.1-0.1c0,0,0-0.1,0-0.1
	c-1.2-1.1-2.7-1.7-4.3-1.7c0,0,0,0-0.1,0c0,0,0,0,0,0c0,0,0,0,0,0.1c0,0,0,0,0,0.1c0,0,0,0,0,0.1c0,0,0,0,0,0c0,0,0,0,0.1,0
	c0,0,0,0,0.1,0c1.5,0,3,0.6,4.1,1.7C338,211.8,338,211.8,338.1,211.7C338.1,211.8,338.1,211.8,338.1,211.7z"/>
<path class="st7" d="M336.2,213.8C336.3,213.8,336.3,213.8,336.2,213.8c0.1,0,0.1,0,0.1,0c0,0,0-0.1,0-0.1c0,0,0-0.1,0-0.1
	c-1.2-1.1-2.7-1.7-4.3-1.7c0,0,0,0-0.1,0c0,0,0,0,0,0c0,0,0,0,0,0.1c0,0,0,0,0,0.1c0,0,0,0.1,0,0.1c0,0,0.1,0,0.1,0
	C333.6,212.1,335,212.7,336.2,213.8C336.2,213.8,336.2,213.8,336.2,213.8z"/>
<path class="st7" d="M334.4,215.8C334.4,215.8,334.5,215.8,334.4,215.8c0.1-0.1,0.1-0.1,0.1-0.2c0,0,0-0.1,0-0.1
	c-1.2-1.1-2.7-1.7-4.3-1.7c0,0,0,0-0.1,0c0,0,0,0,0,0c0,0,0,0,0,0.1c0,0,0,0,0,0.1c0,0,0,0.1,0,0.1c0,0,0.1,0,0.1,0
	c1.5,0,3,0.6,4.1,1.7C334.3,215.8,334.3,215.8,334.4,215.8z"/>
<path class="st7" d="M332.5,217.9C332.5,217.9,332.6,217.9,332.5,217.9c0.1,0,0.1,0,0.1-0.1c0,0,0-0.1,0-0.1c0,0,0-0.1,0-0.1
	c-1.2-1.1-2.7-1.7-4.3-1.7c0,0,0,0-0.1,0c0,0,0,0,0,0c0,0,0,0,0,0.1c0,0,0,0,0,0.1c0,0,0,0.1,0.1,0.1c0,0,0.1,0,0.1,0
	c1.5,0,3,0.6,4.1,1.7C332.5,217.9,332.5,217.9,332.5,217.9z"/>
<path class="st7" d="M373.1,230.1c0.5,3,1.2,5,2.5,6.6c1.3,1.7,3.6,1.8,5.3,1.5c1.4-0.3,2.7-1,3.7-2c1-1,1.7-2.3,2-3.7
	c0.6-2.1,0.2-4.4-0.6-7.2L373.1,230.1z"/>
<path class="st12" d="M379.8,207c0.8,0,1.6,4,2.5,8c1,4.3,2.7,6.6,3.4,9.5c1.1,4,1,5.8-0.1,8.5c-1.1,2.7-7,5.8-9.9,2.6
	c-2.4-2.6-2.8-5.8-3.1-9.9c-0.3-4.2-0.5-7.2-1-10.4c-0.5-3-1.1-6-0.4-6.4c0.1,0.4,0.2,1,0.3,1.4c0.1,0.4,0.4,2,0.8,1.9
	c0-0.4,0-0.8-0.1-1.2c-0.1-0.3-0.1-0.7,0.1-1c0.2-0.3,0.5-0.5,0.9-0.5c0.8-0.3,1.6-0.5,2.5-0.7c0.4-0.1,0.8-0.2,1.3-0.2
	c0.7-0.1,1.5-0.2,2.2-0.2c0.1,0,0.2,0.1,0.3,0.1c0.1,0.1,0.2,0.1,0.2,0.2c0.1,0.1,0.1,0.3,0.1,0.5c0,0.3,0.1,0.6,0.2,0.8
	c0,0.1,0.1,0.3,0.3,0.2c0,0,0.1-0.1,0.1-0.1c0,0,0-0.1,0-0.2c-0.1-0.5-0.2-0.8-0.3-1.4c0-0.3-0.1-0.6-0.2-0.9
	C379.8,207.5,379.8,207.2,379.8,207z"/>
<path d="M382.8,225.9c0,0,0,0.1,0,0.1c0,0,0,0.1,0,0.1c0,0,0,0.1-0.1,0.1c0,0-0.1,0-0.1,0c0,0-0.1,0-0.1,0c0,0-0.1,0-0.1,0
	c0,0-0.1,0-0.1-0.1s0-0.1,0-0.1c0-0.1,0-0.2,0-0.2c0-0.1,0.1-0.1,0.2-0.1c0,0,0.1,0,0.1,0c0,0,0.1,0,0.1,0c0,0,0.1,0,0.1,0.1
	S382.8,225.8,382.8,225.9z"/>
<path d="M382.2,223.1c0,0.1,0,0.2,0,0.2c0,0.1-0.1,0.1-0.2,0.1c-0.1,0-0.1,0-0.2,0c-0.1,0-0.1-0.1-0.1-0.1c0,0-0.1-0.1-0.1-0.2
	c0-0.1,0-0.1,0-0.2c0-0.1,0.1-0.1,0.1-0.1c0.1,0,0.1,0,0.2,0s0.1,0,0.2,0.1S382.2,223,382.2,223.1z"/>
<path d="M381.6,220.4c0,0.1,0,0.2,0,0.2c0,0.1-0.1,0.1-0.2,0.1c-0.1,0-0.1,0-0.2,0c-0.1,0-0.1-0.1-0.1-0.1c0,0-0.1-0.1-0.1-0.2
	c0-0.1,0-0.1,0-0.2c0-0.1,0.1-0.1,0.1-0.1c0.1,0,0.1,0,0.2,0c0.1,0,0.1,0,0.2,0.1S381.6,220.4,381.6,220.4z"/>
<path d="M381,217.8c0,0,0,0.1,0,0.1c0,0,0,0.1,0,0.1c0,0,0,0.1-0.1,0.1c0,0-0.1,0-0.1,0c0,0-0.1,0-0.1,0c0,0-0.1,0-0.1,0
	c0,0-0.1,0-0.1-0.1c0,0,0-0.1,0-0.1c0-0.1,0-0.2,0-0.2c0-0.1,0.1-0.1,0.2-0.1c0,0,0.1,0,0.1,0c0,0,0.1,0,0.1,0c0,0,0.1,0,0.1,0.1
	C381,217.8,381,217.8,381,217.8z"/>
<path d="M374.4,219.1c0,0,0,0.1,0,0.1c0,0,0,0.1,0,0.1c0,0,0,0.1-0.1,0.1c0,0-0.1,0-0.1,0c0,0-0.1,0-0.1,0s-0.1,0-0.1,0
	c0,0-0.1,0-0.1-0.1c0,0,0-0.1,0-0.1c0-0.1,0-0.2,0-0.2c0-0.1,0.1-0.1,0.2-0.1c0.1,0,0.2,0,0.2,0C374.3,218.9,374.4,219,374.4,219.1z
	"/>
<path d="M375,221.7c0,0.1,0,0.2,0,0.2c0,0.1-0.1,0.1-0.2,0.1c-0.1,0-0.2,0-0.2,0c-0.1,0-0.1-0.1-0.1-0.2c0,0,0-0.1,0-0.1
	c0,0,0-0.1,0-0.1c0,0,0-0.1,0.1-0.1c0,0,0.1,0,0.1,0c0,0,0.1,0,0.1,0c0,0,0.1,0,0.1,0c0,0,0.1,0,0.1,0.1
	C375,221.6,375,221.6,375,221.7z"/>
<path d="M375.5,224.3c0,0.1,0,0.2,0,0.2c0,0.1-0.1,0.1-0.2,0.1c0,0-0.1,0-0.1,0c0,0-0.1,0-0.1,0c0,0-0.1,0-0.1-0.1c0,0,0-0.1,0-0.1
	c0-0.1,0-0.2,0-0.2c0-0.1,0.1-0.1,0.2-0.1c0,0,0.1,0,0.1,0c0,0,0.1,0,0.1,0c0,0,0.1,0,0.1,0.1S375.5,224.3,375.5,224.3z"/>
<path d="M376.2,227.1c0,0.1,0,0.2,0,0.2c0,0.1-0.1,0.1-0.2,0.1c0,0-0.1,0-0.1,0c0,0-0.1,0-0.1,0c0,0-0.1,0-0.1-0.1s0-0.1,0-0.1
	c0,0,0-0.1,0-0.1c0,0,0-0.1,0-0.1c0,0,0-0.1,0.1-0.1c0,0,0.1,0,0.1,0c0.1,0,0.2,0,0.2,0C376.1,227,376.2,227,376.2,227.1z"/>
<path d="M378.8,228.1l-4.6-19.4l1.1-0.2L378.8,228.1z"/>
<path class="st7" d="M382.5,226.1L382.5,226.1c-2-0.2-5.3,0.4-6.5,1.2c0,0,0,0-0.1,0c0,0,0,0-0.1,0c0,0,0,0-0.1,0c0,0,0,0,0,0
	c0,0,0,0,0-0.1s0,0,0-0.1c0,0,0,0,0-0.1c0,0,0,0,0,0c1.3-0.8,4.6-1.4,6.7-1.2c0,0,0.1,0,0.1,0.1c0,0,0,0.1,0,0.1
	C382.6,226,382.6,226,382.5,226.1C382.6,226,382.5,226.1,382.5,226.1z"/>
<path class="st7" d="M381.9,223.3L381.9,223.3c-1.6-0.5-5.2,0.3-6.5,1.2c0,0,0,0-0.1,0c0,0,0,0-0.1,0c0,0,0,0-0.1,0c0,0,0,0,0,0
	c0,0,0,0,0-0.1c0,0,0,0,0-0.1c0,0,0,0,0-0.1c0,0,0,0,0,0c1.5-0.9,5.1-1.8,6.7-1.2c0,0,0,0,0.1,0c0,0,0,0,0,0c0,0,0,0,0,0.1
	c0,0,0,0,0,0.1C382,223.2,382,223.2,381.9,223.3C382,223.3,381.9,223.3,381.9,223.3z"/>
<path class="st7" d="M381.3,220.7L381.3,220.7c-1.6-0.5-5.2,0.3-6.5,1.2c0,0,0,0-0.1,0c0,0,0,0-0.1,0c0,0-0.1,0-0.1-0.1
	c0,0,0-0.1,0-0.1s0-0.1,0.1-0.1c1.5-0.9,5.1-1.8,6.7-1.2c0,0,0,0,0.1,0c0,0,0,0,0,0c0,0,0,0,0,0.1c0,0,0,0,0,0.1
	C381.4,220.6,381.4,220.6,381.3,220.7C381.4,220.6,381.3,220.6,381.3,220.7z"/>
<path class="st7" d="M380.7,218.1C380.7,218.1,380.7,218.1,380.7,218.1c-1.6-0.5-5.1,0.3-6.5,1.2c0,0-0.1,0-0.1,0c0,0-0.1,0-0.1,0
	c0,0,0,0,0-0.1c0,0,0,0,0-0.1c0,0,0,0,0-0.1c0,0,0,0,0,0c1.5-1,5.1-1.8,6.7-1.2c0,0,0,0,0.1,0s0,0,0,0c0,0,0,0,0,0.1c0,0,0,0,0,0.1
	C380.8,218,380.8,218,380.7,218.1C380.8,218.1,380.8,218.1,380.7,218.1z"/>
<path class="st6" d="M374.8,108.6c2,25,3.6,58.4,3.6,58.4c0.2,1.9,2,10,2.9,19.4c1,9.9,1.7,28.4,1.7,28.4s-6.9,3.7-12.4,1.9
	c0,0-6-31.2-8.8-42.8c-2.7-11-6.9-31.9-6.9-31.9l-2.9,20.7c0,0,0.4,7.1,0.2,12.1c-0.3,5.8-3.9,33.7-3.9,33.7s-7.5,4.4-13.2,0
	c0,0-1-38.4-1.2-45.4c-0.3-11.7,1.2-36.6,1.7-54.8L374.8,108.6z"/>
<path class="st7" d="M365.1,136.8c0.5,6,1.1,12,1.7,18c0.3,3,0.6,6,1,9l0.5,4.5l0.3,2.2c0.1,0.8,0.2,1.5,0.3,2.2
	c1,5.9,2.5,16.7,3.6,22.6c1.1,5.9,2.2,11.8,3.4,17.7c-0.8-6-1.6-11.9-2.5-17.9c-0.9-5.9-2.4-16.7-3.3-22.6c-0.1-0.7-0.3-1.5-0.4-2.2
	l-0.3-2.2l-0.6-4.5c-0.4-3-0.8-6-1.2-8.9C366.9,148.7,366,142.8,365.1,136.8z"/>
<path class="st7" d="M337.6,135.1c-0.6,5.6-1,11.2-1.2,16.8s-0.5,11.3-0.3,16.9c0.2,5.6,0.3,15,0.5,20.7c0.2,5.6,0.5,11.2,0.8,16.8
	c0.1-5.6,0.1-11.2,0.1-16.9c0-5.6-0.1-15-0.3-20.7l-0.1-4.2v-1.1v-1v-2.1l0.1-8.4l0.1-8.4C337.4,140.8,337.5,138,337.6,135.1z"/>
<path class="st7" d="M354.9,142l-2.4-13.7c0,0-6.7-1-10.2-4.1c0,0,2.2,4.1,8.6,5.7l2.4,12.1l-1.3,20.6L354.9,142z"/>
<path class="st26" d="M305.5,85.6c1.5,1.2,3.1,3,5.7,5.1c2.6,2.1,6.5,5.8,10.3,8c3.8,2.2,5.6,3.1,10.3-1.8
	c4.2-4.7,8.1-9.6,11.7-14.9l-0.2-18c-3.9,1.2-6.2,3.3-8.6,7.1c-4.5,7.1-7.6,11.6-10.3,15.7c0,0-11.1-6.4-12.6-7.5
	c-1.1-0.8-1.9-1.9-2.3-3.1c-0.3-1.1-0.7-2.1-1.1-3.1c-0.5-1.1-0.6-1.5-1.2-2.9c-0.5-1.4-0.9-3.7-1.1-4.2c-0.3-0.6-1.2-0.5-1.9,0.9
	c-0.3,0.9-0.4,1.8-0.3,2.8c0,0.8,0.3,1.9,0,2c-0.3,0.1-1.4-0.5-2.6-0.8c-1.2-0.3-2.3-0.8-3.6-0.4c-0.2,0.1-0.4,0.2-0.6,0.3
	c-0.2,0.1-0.3,0.3-0.4,0.5c-0.1,0.2-0.2,0.4-0.2,0.6c0,0.2,0,0.4,0.1,0.7c0.2,0.3,0.4,0.6,0.7,0.8c-0.2,0-0.5,0-0.7,0.1
	c-0.2,0.1-0.4,0.2-0.6,0.3c-0.3,0.3-0.4,0.7-0.4,1.2c0,0.4,0.1,0.8,0.4,1.2c-0.3,0-0.5,0.1-0.7,0.3c-0.2,0.2-0.3,0.4-0.3,0.6
	c-0.1,0.8-0.1,1.6,0.7,1.9c0,0-0.7,0.2-0.7,0.5c-0.1,0.3,0,0.6,0.1,0.9c0.1,0.3,0.3,0.6,0.5,0.8c0.7,0.3,1.5,0.5,2.3,0.5
	c0,0,0.1,0.3,0.8,0.7c0.8,0.5,1.6,1,2.5,1.3C302.3,84.2,304.2,84.6,305.5,85.6z"/>
<path class="st6" d="M343.8,82.2L343.3,64c-2.2,0.6-4.2,1.8-5.8,3.5c-1.7,1.7-4.6,6.4-6.3,9.1c-1.8,2.6-6.7,9.9-6.7,9.9l-10.2-5.5
	c0,0,0.4,2.3-1.9,5.3s-3.1,2.8-3.1,2.8c2.3,2.2,4.6,4.3,7.1,6.3c4.4,3.6,7.5,5.7,9.5,5.6c2-0.1,3-0.5,5.8-3.2
	C334.5,94.9,343.8,82.2,343.8,82.2z"/>
<path class="st27" d="M300.1,79.9c0,0.1,0,0.2,0,0.3c0,0.1-0.1,0.2-0.1,0.3c-0.2,0.2-0.4,0.4-0.6,0.6c-0.1,0.1-0.2,0.2-0.3,0.3
	c-0.1,0.1-0.2,0.1-0.3,0.2l-0.8,0.3c0.3,0,0.6,0,0.8-0.1c0.2,0,0.3-0.1,0.4-0.2c0.1-0.1,0.2-0.2,0.3-0.3c0.2-0.2,0.4-0.4,0.6-0.7
	c0.1-0.1,0.1-0.3,0.1-0.4C300.3,80.1,300.2,80,300.1,79.9c0.3-0.1,0.5-0.2,0.7-0.3c0.3-0.1,0.6-0.3,0.8-0.6c0.1-0.2,0.2-0.3,0.2-0.5
	c0-0.1,0-0.1,0-0.2l0.2-0.4c0.2,0.7,0.6,1.4,1.1,1.9c0.6,0.7,1.4,1.2,2.2,1.5c-1-0.5-1.8-1.4-2.3-2.5c-0.4-1.1-0.4-2.3,0-3.4
	c0,0,0,0,0.1,0c0.1-0.1,0.2-0.2,0.3-0.3c0.1-0.2,0.1-0.5,0-0.7c-0.1-0.2-0.2-0.4-0.3-0.6c-0.6-0.7-1.4-1.1-2.3-1.3
	c-0.1-0.2-0.2-0.3-0.3-0.5c-0.1-0.1-0.3-0.3-0.4-0.4c0.1,0.1,0.3,0.3,0.4,0.4c0.1,0.2,0.2,0.3,0.3,0.5c0.8,0.2,1.6,0.7,2.1,1.3
	c0.1,0.1,0.2,0.3,0.3,0.5c0,0.2,0,0.4,0,0.6c-0.1,0.2-0.2,0.2-0.4,0.2c-0.2,0-0.4-0.1-0.6-0.1c-0.5-0.1-0.9-0.1-1.3-0.1
	c-0.4-0.1-0.8-0.2-1.2-0.3c-0.4-0.2-0.8-0.4-1.2-0.6c-0.4-0.2-0.8-0.4-1.1-0.6c0.7,0.6,1.4,1,2.2,1.4c0.4,0.2,0.8,0.3,1.3,0.4
	c0.4,0.1,0.9,0.1,1.3,0.2h0.3c0.2,0.1,0.3,0.3,0.3,0.5c0,0.2,0,0.3-0.1,0.5c-0.1,0.1-0.2,0.3-0.3,0.4c-0.3,0.2-0.6,0.4-0.9,0.5
	c-0.3,0.1-0.7,0.2-1,0.2c-0.7-0.1-1.4-0.3-2.1-0.6c-0.7-0.3-1.4-0.5-2.1-0.8c0.7,0.3,1.4,0.7,2,1l1,0.4c0.4,0.2,0.7,0.3,1.1,0.3
	c0.2,0,0.5-0.1,0.7-0.1c0.2,0.1,0.4,0.2,0.6,0.4c0,0.1,0.1,0.1,0.1,0.2c0,0.1,0,0.1,0,0.2c0,0.2-0.1,0.3-0.2,0.4
	c-0.5,0.4-1.1,0.7-1.7,0.7c-0.3-0.1-0.6-0.1-0.9-0.3c-0.3-0.1-0.7-0.2-1-0.2c-0.7-0.1-1.3-0.2-2-0.2l2,0.4c0.3,0.1,0.6,0.1,1,0.2
	c0.3,0.2,0.6,0.3,1,0.3C299.8,79.9,300,80,300.1,79.9z"/>
<path class="st7" d="M318,84.2c0-0.1-0.1-0.3-0.1-0.2c-0.1,0.5-0.2,0.8-0.3,1.2c-0.1,0.4-0.3,0.7-0.5,1.1c-0.3,0.7-0.6,1.3-1.1,1.9
	c-0.4,0.6-0.9,1.1-1.4,1.5c-0.3,0.2-0.5,0.5-0.8,0.7c-0.3,0.2-0.5,0.4-0.8,0.7c0,0,0,0.2,0,0.2c0.3-0.1,0.6-0.2,0.8-0.4
	c0.3-0.2,0.6-0.4,0.8-0.6c0.6-0.5,1.1-1.1,1.6-1.7c0.5-0.6,0.8-1.3,1.2-2C317.8,85.9,318.3,84.9,318,84.2z"/>
<path class="st12" d="M377.2,65.8c-2.6-0.6-7.7-2.5-12.4-3.5v-0.4l-0.4,0.3l-1.4-0.3l-11.2,0.5l-0.4,0.1c0.1-0.2,0.1-0.4,0.1-0.4
	l0.1-0.6c-0.4,0.3-0.7,0.7-1,1.1c-2.3,0.4-6.9,1.1-7.3,1.3c-5,2.4-6.6,10.2-7,23.6c-0.3,9.8-1,28.2-1,28.2s2.3,4.9,15.6,6.1
	c17,1.6,24.9-3.5,24.9-3.5c-0.1-7,0.4-9.8,0.3-14.1c0-4.4,1.5-12.5,1.9-14.9C380.3,75.7,377.2,65.8,377.2,65.8z"/>
<path class="st7" d="M344.3,41.2l-0.1-0.1c-0.4-0.6-0.8-1.3-1.1-2.1c-0.6-1.4-1.9-5.7,0.8-5.8c-0.6-0.6-1.4-1.9-0.4-2.6
	c0.8-0.6,2,0,2.9-0.1c-0.4-0.4-0.7-0.8-0.9-1.3c-0.2-0.5-0.3-1-0.3-1.5c0.5,0.1,0.9,0.3,1.4,0.4c1.2,0.2,2.5,0.2,3.7,0.1
	c1.4-0.1,2.7-0.6,4.1-0.7c1.4-0.1,2.7-0.1,4.1,0c4.5,0.4,8.9,2.3,9.7,6.9c3.6,1.1,3.1,7.1,2.2,9.7c-1.9,5.3-5.6,9.9-5.7,12.6
	l-1.1-0.8l-5.7-4.3c-2.5-1.9-4.9-3.7-7.3-5.6l-3.2-2.4C346.2,43,345.2,42.2,344.3,41.2z"/>
<path class="st26" d="M344,53.8c0.7,2.6,2.1,4.5,4.5,4.9c1.1,0.2,2.3,0.2,3.4,0.2l-0.1,3.5c-1.7,2.3-0.1,6.9,0.7,8
	c3-4.2,10.1-5,12.2-7.9l0.1-10.5c0,0,1.4,1.7,3.8,0.1c1-0.7,1.7-1.7,2-2.9c0.3-1.2,0.2-2.4-0.3-3.5c-1.2-2.5-3.6-1.5-4.3-0.8
	c-0.7,0.8-1.6,2.2-2.2,2c-0.3-0.1-0.7-0.3-0.9-0.6c-0.3-0.3-0.4-0.6-0.5-0.9c-0.5-1.6-0.8-3.2-0.7-4.9c-0.6-0.3-1.2-0.8-1.7-1.3
	c-0.8-1.1-1.2-2.4-1.1-3.8c-5.1-1.7-11.7-1.1-13.8,0.5c-1.3,2.2-1.4,7.2-1.7,10.1C343.2,48.6,343.4,51.3,344,53.8z"/>
<path class="st27" d="M351.9,58.9c2.6-0.1,8.3-1.4,9.7-2.8c1.4-1.5,2.1-4.4,2.1-4.4s-0.3,3.8-1.4,5.4s-3.9,2.3-5.6,2.7
	c-1.7,0.4-4.9,0.7-4.9,0.7L351.9,58.9z"/>
<path class="st7" d="M354.1,44.2c0,0.2,0.1,0.4,0.2,0.6c0.1,0.2,0.3,0.3,0.5,0.4c0.2,0.1,0.4,0.1,0.6,0.1c0.2,0,0.4-0.1,0.6-0.3
	c0.2-0.2,0.3-0.3,0.3-0.6c0-0.2,0-0.4-0.1-0.6c-0.1-0.2-0.2-0.4-0.4-0.5c-0.2-0.1-0.4-0.2-0.6-0.2c-0.3,0-0.6,0.1-0.8,0.3
	C354.2,43.6,354.1,43.9,354.1,44.2z"/>
<path class="st7" d="M345.5,41.4l2.6-0.4c0-0.2-0.1-0.3-0.1-0.5c-0.1-0.2-0.2-0.3-0.3-0.4c-0.1-0.1-0.3-0.2-0.5-0.2
	c-0.2,0-0.3-0.1-0.5,0c-0.4,0.1-0.7,0.2-0.9,0.5C345.5,40.7,345.4,41,345.5,41.4z"/>
<path class="st7" d="M354.6,41.1l2.5,0.8c0.1-0.2,0.1-0.3,0.1-0.5c0-0.2,0-0.3-0.1-0.5c-0.1-0.2-0.2-0.3-0.3-0.4
	c-0.1-0.1-0.3-0.2-0.4-0.3c-0.3-0.1-0.7-0.1-1,0.1C355,40.5,354.7,40.8,354.6,41.1z"/>
<path class="st7" d="M345.8,43.8c0,0.1,0,0.3,0.1,0.4c0,0.1,0.1,0.3,0.2,0.4c0.1,0.1,0.2,0.2,0.4,0.3c0.1,0.1,0.3,0.1,0.4,0.1
	c0.1,0,0.3,0,0.4-0.1c0.1-0.1,0.3-0.1,0.4-0.2c0.1-0.1,0.2-0.2,0.2-0.4c0.1-0.1,0.1-0.3,0.1-0.4c0-0.2,0-0.3-0.1-0.4
	c0-0.1-0.1-0.3-0.2-0.4c-0.1-0.1-0.2-0.2-0.4-0.3c-0.1-0.1-0.3-0.1-0.4-0.1c-0.2,0-0.3,0-0.4,0.1c-0.1,0.1-0.3,0.2-0.4,0.3
	c-0.1,0.1-0.2,0.2-0.2,0.4C345.9,43.6,345.8,43.7,345.8,43.8L345.8,43.8z"/>
<path class="st27" d="M351.8,42.3l-0.9,7.8l-4-2L351.8,42.3z"/>
<path class="st27" d="M354.5,51.2c0.1,0.2,0.1,0.5,0.1,0.7c0,0.3-0.1,0.5-0.2,0.7c-0.1,0.2-0.2,0.4-0.4,0.6
	c-0.2,0.2-0.4,0.3-0.6,0.4c-0.2,0.1-0.5,0.1-0.7,0.1c-0.3,0-0.5-0.1-0.7-0.2c-0.2-0.1-0.4-0.2-0.6-0.4c-0.2-0.2-0.3-0.4-0.4-0.6
	L354.5,51.2z"/>
<path class="st28" d="M354.2,52.2c-0.5,0-0.9,0.1-1.2,0.4c-0.3,0.3-0.6,0.7-0.7,1.1c0.3,0.1,0.5,0.1,0.8,0c0.3,0,0.5-0.1,0.7-0.3
	c0.2-0.1,0.4-0.3,0.5-0.5c0.1-0.2,0.2-0.5,0.3-0.7C354.5,52.2,354.3,52.2,354.2,52.2z"/>
<path class="st6" d="M352.6,70.3c1.3-0.8,4-3.3,5.3-1.7c1.2,1.7,2.1,3.5,3.1,3.3c0.9-0.3,4.4-2.6,5.7-5.1c0.6-1.2,0.9-2.6,1-3.9
	c-0.5-0.6-0.9-1.3-1.3-2c-0.5-1.1-0.7-2.1-1.5-2.1v2.7c0,0-0.7,1.5-3.5,2.5C357.6,65.3,354.3,66.7,352.6,70.3z"/>
<path class="st6" d="M352.6,70.3c-0.8-0.7-1.2-2.8-2.4-2.5c-1.3,0.3-3.1,3.2-3.1,2.5c0-0.7,0.8-5.5,1.8-6.9c1-1.4,2.2-4,3-3.9l0,2.7
	c-0.3,1-0.5,2-0.5,3.1C351.5,66.6,352.4,69.2,352.6,70.3z"/>
<path class="st27" d="M382.5,125.9c0.9-0.8,2-1.5,2.4-2.7c0.1-0.3,0.2-0.6,0.1-0.9c0-0.3-0.1-0.6-0.3-0.9c-0.1-0.1-0.2-0.2-0.2-0.3
	c0-0.1,0-0.2,0-0.3c0.1-0.4,0.1-0.9,0-1.4c-0.1-0.2-0.2-0.4-0.3-0.5c-0.1-0.1-0.3-0.3-0.5-0.3c0.3-0.7,0.3-1.4,0.1-2.1
	c-0.2-0.8-1-1.5-1.6-0.7c-0.3,0.4-0.5,0.9-0.7,1.3c-0.6,1.1-1.1,2.4-1.5,3.6c-0.2,1.3-0.4,4.9,1.7,5.3
	C382,126,382.4,126,382.5,125.9z"/>
<path class="st26" d="M377.6,66.3c7.6,2,8.1,4.1,12.3,10.8s9.8,15.5,11,18.7c1.5,3.9,1.8,5.4-2.6,9.2c-2.3,2-5.4,4.2-8.6,6.8
	c-2.5,2.1-5.5,4.2-8,6.3c-0.3,0.2-0.6,0.5-0.7,0.9c-0.1,0.4-0.2,0.8-0.1,1.2c0.1,0.5,0.2,1,0.3,1.6c-0.1,0.7-0.2,1.4-0.3,2
	c-0.1,0.3,0,0.7,0.1,1c0.1,0.3,0.3,0.6,0.6,0.8c0.3,0.1,0.6,0.2,1,0.2c-0.6,0.4-1.3,0.7-2,0.9c-0.7,0.2-1.5,0.1-2.1-0.2
	c-0.6-0.4-1-1-1.7-1.2c-0.3-0.1-0.7-0.1-1.1-0.3c-0.4-0.1-0.7-0.4-0.9-0.7c-0.3-0.5-0.5-1.2-1-1.5c-0.3-0.1-0.5-0.2-0.8-0.3
	c-0.3-0.2-0.5-0.4-0.6-0.6c-0.2-0.3-0.3-0.5-0.3-0.8c0-0.6,0-1.2,0.2-1.8c0.4-1.6,0.8-3.1,1.3-4.7c0.2-0.5,0.5-1,0.8-1.4
	c0.4-0.5,0.8-1,1.2-1.5c2.9-3.2,12.1-13.9,12.1-13.9l-8.9-13C378.8,84.8,371.8,77,377.6,66.3z"/>
<path class="st29" d="M387.7,97.8c2.2,2.5,5.8,2.9,7.2,2.9c-1.4,0.5-2.9,0.5-4.3,0.2c-1.4-0.3-2.7-1.1-3.7-2.1L387.7,97.8z"/>
<path class="st6" d="M377.2,65.8c3.4,0.6,6.7,2.3,7.8,3.6c1.1,1.2,2.7,3.7,7.5,11.5c4.8,7.8,7.6,12.2,8.8,15.6s0.9,4.9-0.8,6.7
	c-1.7,1.8-13.3,10.6-13.3,10.6s-1.5-0.4-4.1-2.8c-2.6-2.4-3.1-4.4-3.1-4.4l6.9-8.8c0,0-8.6-11.6-10.4-13.9
	C375,81.4,373.2,71.8,377.2,65.8z"/>
<path class="st7" d="M389.6,110.7c-0.5-0.6-1.1-1.1-1.7-1.5c-0.6-0.5-1.1-1-1.6-1.5c-0.5-0.5-1-1-1.4-1.6c-0.2-0.3-0.4-0.6-0.7-0.9
	c-0.2-0.3-0.4-0.6-0.7-0.8c-0.1-0.1-0.1,0.1-0.1,0.1c0.1,0.3,0.3,0.6,0.5,0.9c0.2,0.3,0.4,0.6,0.7,0.9c0.5,0.6,0.9,1.2,1.5,1.8
	c0.5,0.5,1,1.1,1.6,1.5c0.5,0.6,1.2,1,1.9,1.3C389.7,110.9,389.7,110.7,389.6,110.7z"/>
</svg>
