<svg width="131" height="80" viewBox="0 0 131 80" fill="none" xmlns="http://www.w3.org/2000/svg">
<path d="M120.513 3.66529C120.61 5.46174 121.129 7.20995 122.029 8.76771C122.928 10.3255 124.183 11.6488 125.69 12.63C126.566 13.2063 127.627 13.4305 128.661 13.2578C128.495 13.4309 128.306 13.58 128.098 13.701L129.344 12.99L129.409 12.9439L129.593 12.8239C129.676 12.7635 129.754 12.6955 129.824 12.6208L129.963 12.4823C129.963 12.4361 130.046 12.3899 130.082 12.3346C130.255 12.094 130.397 11.8336 130.507 11.559L130.599 11.3098C130.603 11.2668 130.603 11.2235 130.599 11.1805C130.622 11.1078 130.641 11.0338 130.655 10.9589C130.751 10.5349 130.797 10.1011 130.793 9.66638C130.696 7.87234 130.177 6.12649 129.279 4.5705C128.381 3.01451 127.13 1.69222 125.625 0.710889C124.93 0.27173 124.131 0.0263123 123.309 0H122.986L122.691 0.0553925L122.515 0.101544H122.405C122.331 0.121106 122.26 0.148979 122.192 0.184632L121.999 0.286204L120.919 0.904763C121.094 0.815553 121.28 0.750347 121.473 0.710889C120.779 1.53255 120.435 2.5929 120.513 3.66529ZM129.03 13.1378H129.123H129.03Z" fill="#066FA4"/>
<path d="M13.085 63.2319L20.3845 75.9172L21.6211 75.1971L128.097 13.6997C128.304 13.5788 128.493 13.4296 128.66 13.2565C129.328 12.4411 129.658 11.4002 129.582 10.3483C129.483 8.55256 128.962 6.80544 128.063 5.24813C127.164 3.69082 125.911 2.36701 124.405 1.38362C123.708 0.95054 122.909 0.708546 122.089 0.681943C121.868 0.678571 121.648 0.703379 121.434 0.755791C121.242 0.795249 121.055 0.860483 120.88 0.949693L120.788 0.995844L13.085 63.2319Z" fill="#EBEBEB"/>
<path d="M16.7493 63.5921C13.8886 61.9395 11.5723 63.2782 11.5723 66.5742C11.6691 68.3706 12.1884 70.1189 13.088 71.6766C13.9876 73.2344 15.2421 74.5577 16.7493 75.5389C19.6009 77.1915 21.9171 75.8528 21.9171 72.5476C21.8199 70.7535 21.3013 69.0077 20.4034 67.4517C19.5055 65.8957 18.2536 64.5734 16.7493 63.5921Z" fill="#066FA4"/>
<path d="M5.62879 71.283C5.66442 71.2277 5.70794 71.1779 5.75798 71.1353L12.3562 63.8693L12.4115 63.8139L12.5315 63.6847L12.5961 63.6108C13.5189 62.6876 15.0324 62.6322 16.7304 63.6108C18.2347 64.5921 19.4866 65.9144 20.3845 67.4704C21.2824 69.0264 21.801 70.7722 21.8982 72.5663C21.8982 74.4866 21.1138 75.733 19.9049 76.13H19.8311C19.707 76.1665 19.5806 76.1943 19.4527 76.2131H19.3697L9.80919 78.2997C9.22689 78.397 8.62944 78.2682 8.13887 77.9396C7.27768 77.3803 6.56055 76.6257 6.04582 75.7369C5.53108 74.8482 5.23328 73.8504 5.1766 72.8248C5.14581 72.2741 5.3055 71.7297 5.62879 71.283Z" fill="#E0E0E0"/>
<path d="M90.2057 24.1609L90.3811 24.0594C90.5807 23.9921 90.7934 23.9728 91.0019 24.0033C91.2104 24.0338 91.4087 24.1131 91.5807 24.2348C92.1174 24.5828 92.5642 25.0527 92.885 25.6062C93.2057 26.1597 93.3912 26.7812 93.4264 27.42C93.443 27.6255 93.4125 27.8321 93.3373 28.024C93.2622 28.216 93.1443 28.3883 92.9927 28.5279L92.762 28.6571L14.1649 74.0531L8.99707 71.0618L90.2057 24.1609Z" fill="#455A64"/>
<path d="M21.4557 69.8239L14.1561 74.0431L8.98828 71.0518L18.8717 65.3369C20.036 66.6362 20.9161 68.1645 21.4557 69.8239Z" fill="#37474F"/>
<path d="M3.0273 74.7277L8.99799 68.108L9.15486 67.9326C9.8193 67.2679 10.8898 67.2125 12.1079 67.9326C13.1794 68.6217 14.0724 69.5549 14.714 70.6557C15.3556 71.7566 15.7275 72.9938 15.7992 74.2661C15.7992 75.614 15.2547 76.4911 14.4057 76.7773H14.3504L14.1104 76.8327L5.30668 78.7715C4.98489 78.8119 4.65902 78.7401 4.38386 78.5684C3.89991 78.2507 3.49741 77.8237 3.20886 77.3217C2.92032 76.8197 2.7538 76.2569 2.72277 75.6787C2.69492 75.3339 2.80438 74.9921 3.0273 74.7277Z" fill="#066FA4"/>
<path opacity="0.1" d="M3.0273 74.7277L8.99799 68.108L9.15486 67.9326C9.8193 67.2679 10.8898 67.2125 12.1079 67.9326C13.1794 68.6217 14.0724 69.5549 14.714 70.6557C15.3556 71.7566 15.7275 72.9938 15.7992 74.2661C15.7992 75.614 15.2547 76.4911 14.4057 76.7773H14.3504L14.1104 76.8327L5.30668 78.7715C4.98489 78.8119 4.65902 78.7401 4.38386 78.5684C3.89991 78.2507 3.49741 77.8237 3.20886 77.3217C2.92032 76.8197 2.7538 76.2569 2.72277 75.6787C2.69492 75.3339 2.80438 74.9921 3.0273 74.7277Z" fill="black"/>
<path d="M2.69463 75.6783C2.72566 76.2566 2.89218 76.8194 3.18072 77.3214C3.46927 77.8234 3.87177 78.2504 4.35572 78.5681C4.62962 78.7426 4.95761 78.8115 5.27854 78.762L9.70811 77.7925C10.4095 77.6448 10.8709 76.9893 10.8709 75.9461C10.8223 75.0216 10.5562 74.1218 10.0944 73.3196C9.63257 72.5175 8.988 71.8357 8.21312 71.3298C7.91051 71.0879 7.53464 70.9561 7.14726 70.9561C6.75987 70.9561 6.38401 71.0879 6.0814 71.3298L5.96144 71.4591L2.98994 74.7274C2.87942 74.8579 2.79631 75.0094 2.74557 75.1728C2.69484 75.3362 2.67751 75.5081 2.69463 75.6783Z" fill="#066FA4"/>
<path opacity="0.1" d="M4.38371 74.7187C3.46077 74.1924 2.72241 74.6171 2.72241 75.6421C2.75345 76.2204 2.91999 76.7833 3.20857 77.2853C3.49716 77.7874 3.8997 78.2145 4.38371 78.5322C5.30665 79.0585 6.04501 78.6245 6.04501 77.5626C6.00694 76.9923 5.83709 76.4386 5.54881 75.9451C5.26053 75.4516 4.8617 75.0318 4.38371 74.7187Z" fill="black"/>
<path d="M109.743 12.8514C109.951 12.7542 110.182 12.715 110.411 12.7377C110.64 12.7605 110.858 12.8444 111.044 12.9807C111.578 13.3263 112.024 13.7932 112.345 14.3433C112.666 14.8935 112.852 15.5116 112.889 16.1474C112.915 16.3744 112.879 16.6041 112.785 16.8122C112.691 17.0202 112.542 17.1989 112.354 17.3292L92.9749 28.5004C93.1265 28.3609 93.2444 28.1885 93.3196 27.9966C93.3947 27.8046 93.4252 27.598 93.4086 27.3925C93.3734 26.7537 93.1879 26.1323 92.8672 25.5788C92.5464 25.0252 92.0996 24.5554 91.563 24.2074C91.3909 24.0857 91.1926 24.0064 90.9841 23.9759C90.7757 23.9454 90.5629 23.9646 90.3633 24.0319L109.743 12.8514Z" fill="#FAFAFA"/>
<path d="M109.207 14.0337C109.244 14.6709 109.431 15.2903 109.751 15.842C110.072 16.3938 110.518 16.8624 111.053 17.2101C111.228 17.3705 111.449 17.4711 111.685 17.4972C111.921 17.5233 112.159 17.4736 112.364 17.3553C112.57 17.237 112.733 17.0562 112.829 16.8392C112.925 16.6221 112.949 16.3801 112.899 16.1482C112.861 15.5124 112.675 14.8942 112.354 14.344C112.033 13.7937 111.588 13.3268 111.053 12.9811C110.878 12.8221 110.658 12.7223 110.424 12.6963C110.189 12.6702 109.952 12.7191 109.747 12.836C109.542 12.953 109.38 13.1318 109.283 13.347C109.185 13.5622 109.159 13.8026 109.207 14.0337Z" fill="#F5F5F5"/>
<path d="M113.277 6.25083H113.342L113.416 6.20468L121.048 1.80078L121.232 1.69924C121.75 1.49772 122.309 1.42847 122.86 1.49779C123.411 1.5671 123.937 1.77279 124.388 2.09623C125.736 2.98233 126.857 4.1739 127.658 5.57429C128.46 6.97468 128.921 8.54444 129.002 10.1562C129.064 10.7378 128.969 11.3253 128.727 11.8578C128.486 12.3902 128.106 12.8483 127.627 13.1844L119.903 17.6437H119.857C119.333 17.8637 118.761 17.9461 118.195 17.8831C117.63 17.8201 117.09 17.6137 116.627 17.2836C115.28 16.3945 114.16 15.2009 113.359 13.7993C112.557 12.3976 112.096 10.8271 112.013 9.21445C111.956 8.65381 112.042 8.08791 112.263 7.56963C112.485 7.05135 112.833 6.59761 113.277 6.25083Z" fill="#066FA4"/>
<path opacity="0.05" d="M113.277 6.25083H113.342L113.416 6.20468L121.048 1.80078L121.232 1.69924C121.75 1.49772 122.309 1.42847 122.86 1.49779C123.411 1.5671 123.937 1.77279 124.388 2.09623C125.736 2.98233 126.857 4.1739 127.658 5.57429C128.46 6.97468 128.921 8.54444 129.002 10.1562C129.064 10.7378 128.969 11.3253 128.727 11.8578C128.486 12.3902 128.106 12.8483 127.627 13.1844L119.903 17.6437H119.857C119.333 17.8637 118.761 17.9461 118.195 17.8831C117.63 17.8201 117.09 17.6137 116.627 17.2836C115.28 16.3945 114.16 15.2009 113.359 13.7993C112.557 12.3976 112.096 10.8271 112.013 9.21445C111.956 8.65381 112.042 8.08791 112.263 7.56963C112.485 7.05135 112.833 6.59761 113.277 6.25083Z" fill="black"/>
<path opacity="0.1" d="M116.682 6.46314C114.117 4.97671 112.068 6.18617 112.068 9.14979C112.152 10.7624 112.613 12.3329 113.414 13.7346C114.216 15.1362 115.335 16.3298 116.682 17.2189C119.257 18.7054 121.343 17.4959 121.343 14.5323C121.255 12.9154 120.787 11.342 119.978 9.9399C119.168 8.53783 118.039 7.34665 116.682 6.46314Z" fill="black"/>
<path d="M0.58155 77.5059L3.73801 75.6037C3.83462 75.5512 3.94432 75.5276 4.05399 75.5358C4.16366 75.544 4.26864 75.5836 4.35638 75.6499C4.60782 75.8088 4.81718 76.0261 4.96662 76.2833C5.11607 76.5405 5.20117 76.8301 5.21471 77.1273C5.22342 77.2332 5.20513 77.3396 5.16154 77.4365C5.11796 77.5334 5.05052 77.6176 4.96552 77.6813L1.81829 79.5834C1.63623 79.6797 1.43354 79.7304 1.22761 79.7312C0.906945 79.7312 0.599413 79.6037 0.372671 79.3769C0.14593 79.15 0.0185547 78.8424 0.0185547 78.5216C0.0188314 78.3184 0.070622 78.1187 0.169088 77.9411C0.267553 77.7634 0.409474 77.6137 0.58155 77.5059Z" fill="#455A64"/>
<path d="M0.396858 77.6448L0.562995 77.5063C0.656215 77.4784 0.754602 77.4722 0.850598 77.4882C0.946594 77.5042 1.03765 77.542 1.11677 77.5987C1.3665 77.7586 1.57404 77.9764 1.72184 78.2335C1.86964 78.4907 1.95335 78.7797 1.96587 79.0761C1.97669 79.1799 1.96024 79.2848 1.91816 79.3803C1.87607 79.4759 1.8098 79.5588 1.7259 79.6208H1.6613H1.59669C1.47361 79.67 1.3414 79.692 1.20905 79.6855C0.888391 79.6855 0.580872 79.558 0.354131 79.3312C0.127389 79.1043 0 78.7967 0 78.4759C0.0195225 78.1579 0.161822 77.8598 0.396858 77.6448Z" fill="#263238"/>
</svg>
