<svg width="586" height="329" viewBox="0 0 586 329" fill="none" xmlns="http://www.w3.org/2000/svg">
<path d="M303.556 207C314.98 196.413 335.231 197.649 345.284 209.567C349.24 214.263 351.93 220.414 357.372 223.261C365.68 227.635 375.816 222.118 385.204 222.918C396.212 223.853 405.247 235.032 403.897 245.994C403.285 250.939 400.938 256.207 403.264 260.612C406.224 266.233 414.791 266.462 418.395 271.688C421.646 276.415 419.112 283.387 414.386 286.649C409.661 289.912 403.575 290.317 397.843 290.057C392.11 289.797 386.295 289.018 380.707 290.265C374.549 291.657 369.284 295.46 363.374 297.787C349.282 303.439 332.78 300.291 319.757 292.53C306.734 284.769 296.598 272.903 287.791 260.529" fill="#066FA4"/>
<g opacity="0.8">
<path d="M303.556 207C314.98 196.413 335.231 197.649 345.284 209.567C349.24 214.263 351.93 220.414 357.372 223.261C365.68 227.635 375.816 222.118 385.204 222.918C396.212 223.853 405.247 235.032 403.897 245.994C403.285 250.939 400.938 256.207 403.264 260.612C406.224 266.233 414.791 266.462 418.395 271.688C421.646 276.415 419.112 283.387 414.386 286.649C409.661 289.912 403.575 290.317 397.843 290.057C392.11 289.797 386.295 289.018 380.707 290.265C374.549 291.657 369.284 295.46 363.374 297.787C349.282 303.439 332.78 300.291 319.757 292.53C306.734 284.769 296.598 272.903 287.791 260.529" fill="white"/>
</g>
<path d="M306.329 221.421C315.675 212.299 332.904 213.577 340.755 223.977C345.543 230.325 348.295 240.029 356.177 241.089C361.515 241.816 366.563 237.796 371.952 238.211C379.118 238.751 383.449 247.489 381.611 254.43C379.772 261.37 373.666 266.368 367.258 269.63C345.065 280.903 315.488 274.939 299.381 255.947" fill="#066FA4"/>
<path d="M94.7627 244.644L106.778 227.605L91.1487 216.519L80.2027 238.763L94.0461 244.499" fill="#FFBE9D"/>
<path d="M80.8573 235.719L72.3519 251.065C72.3519 251.065 53.9079 247.574 52.0593 250.254L81.2001 267.813L95.4277 244.446L80.8573 235.719Z" fill="#066FA4"/>
<g opacity="0.6">
<path d="M82.1352 255.23C82.3643 255.485 82.4911 255.817 82.4911 256.16C82.4911 256.503 82.3643 256.834 82.1352 257.09C81.8854 257.322 81.5571 257.451 81.2161 257.451C80.8751 257.451 80.5467 257.322 80.297 257.09C80.0532 256.819 79.9184 256.467 79.9184 256.103C79.9184 255.738 80.0532 255.387 80.297 255.116C80.5798 254.897 80.9361 254.795 81.2919 254.832C81.6477 254.868 81.9757 255.041 82.2078 255.313" fill="white"/>
</g>
<g opacity="0.6">
<path d="M81.2004 267.812L82.54 265.402L54.0952 249.474C54.0952 249.474 52.4543 249.256 52.0181 250.254L81.2004 267.812Z" fill="white"/>
</g>
<path d="M71.9677 250.628C71.895 250.774 72.5597 251.272 73.0063 252.145C73.4528 253.018 73.4528 253.849 73.6086 253.88C73.7644 253.912 74.0655 252.945 73.5255 251.896C72.9855 250.847 72.0197 250.483 71.9677 250.628Z" fill="#263238"/>
<path d="M68.1566 250.057C68.0423 250.171 68.5097 250.784 68.6343 251.678C68.7589 252.571 68.5097 253.299 68.6343 253.371C68.7589 253.444 69.3508 252.706 69.1847 251.595C69.0185 250.483 68.2396 249.943 68.1566 250.057Z" fill="#263238"/>
<path d="M64.2096 252.674C64.3238 252.778 64.9469 252.186 65.0508 251.189C65.1546 250.191 64.6769 249.474 64.5522 249.557C64.4276 249.64 64.5523 250.305 64.4796 251.126C64.4069 251.947 64.085 252.57 64.2096 252.674Z" fill="#263238"/>
<path d="M74.2932 247.345C74.2932 247.511 75.0514 247.708 75.8199 248.248C76.5884 248.788 77.0661 249.422 77.2115 249.339C77.3568 249.255 77.0661 248.393 76.1729 247.77C75.2798 247.147 74.2932 247.199 74.2932 247.345Z" fill="#263238"/>
<path d="M76.0696 244.28C76.0696 244.342 76.5473 244.768 77.5339 245.152C78.4625 245.516 79.4551 245.689 80.4522 245.661C80.6694 245.674 80.8874 245.65 81.0961 245.588C81.2513 245.546 81.3874 245.452 81.4818 245.321C81.5763 245.191 81.6234 245.032 81.6153 244.872C81.6047 244.729 81.5606 244.59 81.4866 244.468C81.4126 244.345 81.3108 244.241 81.1895 244.165C81.0068 244.051 80.8069 243.967 80.5975 243.916C80.2588 243.807 79.9114 243.727 79.559 243.677C78.9325 243.604 78.2983 243.628 77.6793 243.75C76.6408 243.968 76.0697 244.363 76.1008 244.425C76.132 244.487 76.7343 244.259 77.7416 244.155C78.323 244.096 78.9095 244.114 79.4863 244.207C79.8392 244.259 80.1868 244.342 80.5248 244.456C80.8883 244.56 81.148 244.716 81.148 244.903C81.148 245.09 81.148 244.996 81.013 245.048C80.8543 245.068 80.6939 245.068 80.5352 245.048C80.1821 245.048 79.829 245.048 79.4967 245.048C78.9072 244.995 78.3234 244.891 77.752 244.737C77.2014 244.549 76.6395 244.396 76.0696 244.28Z" fill="#263238"/>
<path d="M76.1316 244.601C76.1316 244.653 76.7547 244.31 77.3675 243.417C77.7188 242.894 77.9755 242.314 78.1256 241.702C78.2202 241.339 78.2759 240.966 78.2918 240.591C78.3279 240.35 78.302 240.105 78.2166 239.878C78.1311 239.65 77.989 239.449 77.8036 239.292C77.677 239.209 77.5291 239.165 77.3779 239.165C77.2266 239.165 77.0787 239.209 76.952 239.292C76.7693 239.413 76.6079 239.564 76.4744 239.739C76.2294 240.033 76.0299 240.362 75.8824 240.715C75.6367 241.313 75.5405 241.962 75.602 242.606C75.7162 243.645 76.2043 244.227 76.2459 244.185C76.1403 243.684 76.0606 243.178 76.007 242.668C76.0061 242.098 76.1302 241.534 76.3705 241.016C76.5095 240.715 76.6914 240.435 76.9105 240.185C77.139 239.905 77.409 239.728 77.5025 239.832C77.5942 239.938 77.6613 240.062 77.699 240.197C77.7368 240.332 77.7441 240.473 77.7206 240.611C77.7233 240.961 77.6849 241.31 77.6063 241.65C77.4897 242.22 77.2902 242.77 77.0143 243.281C76.5366 244.092 76.0693 244.528 76.1316 244.601Z" fill="#263238"/>
<path d="M139.264 184.082L101.939 242.764L81.5327 228.883L115.907 158.18" fill="#263238"/>
<path d="M136.241 171.208C136.085 171.27 137.207 173.66 137.737 176.808C138.266 179.956 138.048 182.574 138.214 182.595C138.975 178.672 138.273 174.606 136.241 171.166V171.208Z" fill="#455A64"/>
<path d="M140.073 171.374C139.918 171.374 140.073 173.951 139.648 177.068C139.222 180.185 138.443 182.616 138.609 182.668C140.225 179.137 140.739 175.201 140.084 171.374H140.073Z" fill="#455A64"/>
<path d="M284.812 183.904L310.411 175.997C341.296 215.344 339.23 258.576 289.516 284.166L261.902 253.225L284.812 183.904Z" fill="#263238"/>
<path d="M282.309 177.629C298.697 187.198 306.849 207.344 304.855 227.085C302.664 248.716 288.374 269.808 262.182 275.637L86.1228 240.425C78.8564 238.971 71.9712 236.023 65.9034 231.767C59.8356 227.511 54.7176 222.041 50.8738 215.702C47.0299 209.364 44.544 202.296 43.5736 194.946C42.6032 187.596 43.1695 180.125 45.2365 173.005C49.0742 159.784 57.8573 148.551 69.7598 141.641C81.6624 134.731 95.7688 132.676 109.147 135.903L282.309 177.629Z" fill="#E0E0E0"/>
<path d="M282.308 177.629L280.677 177.213L275.869 176.029L257.352 171.509L189.205 154.989L142.14 143.56L115.907 137.223L109.104 135.591L105.605 134.926C105.023 134.812 104.441 134.687 103.849 134.594L102.063 134.438C100.869 134.345 99.6747 134.199 98.4804 134.137H94.8456C93.6299 134.142 92.4158 134.225 91.2108 134.386L89.383 134.573L88.4691 134.677L87.5656 134.854L83.9412 135.591C82.7365 135.872 81.563 136.277 80.3687 136.63C79.7767 136.817 79.1743 136.984 78.5824 137.191L76.8481 137.887L75.1138 138.604C74.521 138.818 73.9448 139.075 73.3898 139.373L70.0354 141.119C68.9242 141.732 67.8857 142.469 66.8057 143.197C66.276 143.55 65.7671 143.872 65.2167 144.236L63.7108 145.42L62.1946 146.615L61.4365 147.207L60.7407 147.872C52.8757 154.939 47.254 164.157 44.571 174.387C41.7958 185.001 42.3468 196.212 46.1496 206.502C50.0798 217.08 57.2189 226.162 66.5668 232.477C70.5106 235.144 74.797 237.266 79.3094 238.784C83.7957 240.352 88.4587 241.038 92.997 241.994L119.998 247.386L171.55 257.756L262.088 275.824H262.181C266.797 274.735 271.279 273.143 275.547 271.075C283.432 267.112 290.188 261.218 295.186 253.942C297.437 250.616 299.35 247.073 300.897 243.366C301.271 242.472 301.562 241.547 301.936 240.654C302.283 239.775 302.578 238.876 302.819 237.963C303.078 237.059 303.327 236.165 303.577 235.272L304.138 232.602C304.344 231.728 304.5 230.844 304.605 229.952C304.719 229.079 304.844 228.207 304.958 227.344C305.072 226.482 305.083 225.62 305.145 224.768C305.207 223.916 305.259 223.074 305.249 222.243C305.38 216.139 304.517 210.054 302.694 204.227C301.254 199.558 299.156 195.118 296.463 191.042C294.49 188.043 292.145 185.306 289.484 182.896C288.944 182.419 288.446 181.93 287.957 181.535L286.524 180.444L285.32 179.52L284.281 178.844L282.36 177.639L284.25 178.896L285.288 179.582L286.493 180.517L287.864 181.608C288.352 182.013 288.84 182.491 289.38 182.98C292.016 185.396 294.337 188.137 296.286 191.136C298.961 195.204 301.042 199.633 302.466 204.289C304.259 210.097 305.104 216.156 304.968 222.233C304.968 223.064 304.968 223.905 304.864 224.747C304.761 225.588 304.761 226.451 304.657 227.313C304.553 228.176 304.428 229.038 304.304 229.911C304.197 230.795 304.041 231.673 303.836 232.539C303.649 233.412 303.462 234.306 303.276 235.199C303.089 236.093 302.767 236.965 302.517 237.869C302.272 238.778 301.977 239.673 301.635 240.55C301.302 241.433 301.012 242.347 300.596 243.23C299.054 246.913 297.147 250.432 294.905 253.735C292.45 257.19 289.63 260.371 286.493 263.221C283.097 266.14 279.375 268.657 275.402 270.722C271.164 272.773 266.713 274.348 262.13 275.418H262.213L171.706 257.215L120.113 246.888L93.1112 241.485C88.5625 240.519 83.91 239.843 79.4963 238.285C75.0303 236.789 70.7888 234.692 66.8887 232.051C57.6267 225.792 50.556 216.789 46.6688 206.305C42.9016 196.118 42.3541 185.02 45.1007 174.512C47.751 164.381 53.3113 155.249 61.0938 148.246L61.7896 147.592L62.5062 147.083L64.0016 145.908L65.4971 144.734C65.9956 144.35 66.5357 144.038 67.0757 143.695C68.1142 143.03 69.1526 142.293 70.2639 141.69L73.5871 139.955C74.141 139.669 74.7095 139.413 75.2903 139.186L77.0142 138.49L78.7382 137.784C79.3198 137.586 79.9117 137.42 80.5037 137.243C81.6876 136.9 82.8507 136.485 84.045 136.204L87.6279 135.477L88.521 135.29L89.4349 135.196L91.2419 135.009C92.4363 134.845 93.64 134.759 94.8456 134.75H98.4388C99.6331 134.812 100.817 134.958 101.991 135.051L103.766 135.207C104.348 135.29 104.93 135.415 105.511 135.529L108.969 136.184L115.803 137.732L142.025 144.038L189.101 155.394L257.28 171.707L275.828 176.174L280.657 177.317L282.308 177.629Z" fill="#263238"/>
<path d="M262.182 275.616L285.403 328.438C285.403 328.438 175.84 317.872 180.513 259.283L262.182 275.616Z" fill="#066FA4"/>
<path d="M199.393 157.638C199.393 157.638 252.077 106.499 319.02 128.037L282.287 177.628L199.393 157.638Z" fill="#066FA4"/>
<path d="M103.216 135.155C80.6073 151.779 66.7847 216.778 77.6787 237.423C13.6023 218.669 0.163925 163.654 0.163925 163.654C46.4817 120.495 103.216 135.155 103.216 135.155Z" fill="#066FA4"/>
<path d="M295.134 251.459C295.03 251.552 298.551 255.771 303.006 260.872C307.461 265.974 311.169 270.026 311.314 269.922C311.459 269.818 307.908 265.61 303.442 260.509C298.976 255.407 295.238 251.355 295.134 251.459Z" fill="#455A64"/>
<path d="M0.196045 163.633C0.196045 163.633 0.320679 163.872 0.590698 164.329L1.80576 166.345L3.78934 169.628C4.18399 170.272 4.60974 170.968 5.0563 171.706L6.65558 173.992C7.78757 175.602 9.02341 177.41 10.4254 179.342L15.3168 185.41C16.2411 186.449 17.2381 187.488 18.2455 188.62C19.2528 189.753 20.2498 190.896 21.361 191.976C23.6665 194.158 26.0343 196.538 28.7967 198.73C34.6774 203.68 41.1104 207.934 47.9678 211.405C51.7827 213.351 55.7241 215.038 59.7653 216.455C61.8423 217.213 63.9817 217.868 66.0899 218.637C68.2885 219.337 70.5249 219.913 72.7883 220.362C90.9415 224.382 110.954 228.497 131.984 232.829C174.012 241.515 212.074 249.266 239.636 254.835L272.287 261.433L281.166 263.189L283.482 263.625C284.001 263.729 284.271 263.76 284.271 263.76L283.493 263.573L281.187 263.074L272.329 261.225L239.719 254.492L132.087 232.331C111.089 227.967 91.0661 223.863 72.8921 219.863C70.655 219.421 68.4433 218.859 66.2664 218.18C64.1167 217.39 61.9877 216.756 59.9211 215.998C55.8962 214.594 51.9689 212.925 48.1651 211C41.3281 207.555 34.9066 203.341 29.0253 198.439C26.2732 196.257 23.895 193.899 21.5999 191.727C20.4367 190.688 19.4501 189.472 18.422 188.402C17.3939 187.332 16.4073 186.262 15.483 185.213L10.5708 179.186C9.15845 177.264 7.91223 175.467 6.75949 173.877L5.14978 171.602L3.86206 169.524L1.83691 166.272C1.28653 165.409 0.871094 164.745 0.580292 164.277C0.28952 163.809 0.196045 163.633 0.196045 163.633Z" fill="#263238"/>
<path d="M166.919 256.633C166.919 256.633 166.992 256.571 167.106 256.425L167.615 255.781L169.515 253.288L170.886 251.469C171.364 250.794 171.842 250.025 172.382 249.215C173.42 247.594 174.729 245.786 175.902 243.646L177.823 240.321C178.488 239.168 179.07 237.9 179.724 236.622C181.084 234.087 182.258 231.251 183.556 228.31C188.906 215.304 191.983 201.475 192.653 187.426C192.737 184.195 192.882 181.13 192.726 178.252C192.664 176.818 192.726 175.426 192.57 174.096C192.415 172.766 192.342 171.488 192.238 170.273C192.082 167.831 191.677 165.649 191.418 163.727C191.262 162.771 191.158 161.877 191.002 161.057C190.846 160.236 190.68 159.509 190.535 158.833C190.255 157.524 190.036 156.506 189.87 155.716C189.798 155.394 189.735 155.134 189.683 154.916C189.631 154.698 189.611 154.646 189.6 154.657C189.593 154.75 189.593 154.844 189.6 154.937C189.6 155.145 189.683 155.415 189.735 155.737L190.296 158.854C190.421 159.529 190.566 160.267 190.722 161.077C190.878 161.888 190.95 162.792 191.085 163.758C191.314 165.68 191.688 167.852 191.823 170.283C191.916 171.499 192.02 172.776 192.113 174.096C192.207 175.416 192.196 176.808 192.238 178.252C192.373 181.12 192.238 184.174 192.124 187.395C191.422 201.382 188.371 215.15 183.099 228.123C181.822 231.074 180.669 233.911 179.329 236.435C178.675 237.713 178.104 238.97 177.46 240.134L175.57 243.459C174.428 245.61 173.161 247.428 172.132 249.059C171.603 249.88 171.094 250.649 170.668 251.334C170.242 252.02 169.744 252.612 169.349 253.173C168.57 254.212 167.968 255.116 167.521 255.729L167.064 256.405C167.007 256.475 166.958 256.552 166.919 256.633Z" fill="#263238"/>
<path d="M216.372 202.148L326.798 225.006C326.798 225.006 327.286 235.801 324.575 235.884C322.311 235.957 240.217 221.141 213.589 216.32C212.566 216.135 211.595 215.73 210.744 215.133C209.892 214.536 209.18 213.762 208.657 212.863C208.133 211.964 207.811 210.962 207.713 209.927C207.614 208.891 207.741 207.847 208.085 206.865C208.667 205.212 209.825 203.824 211.348 202.957C212.871 202.091 214.655 201.803 216.372 202.148Z" fill="#066FA4"/>
<path d="M105.42 191.948C105.401 178.394 117.2 167.39 131.774 167.37C146.348 167.35 158.178 178.321 158.197 191.874C158.216 205.428 146.417 216.432 131.843 216.452C117.269 216.472 105.439 205.501 105.42 191.948Z" fill="#FAFAFA"/>
<path d="M105.408 191.955C105.419 191.817 105.419 191.678 105.408 191.539C105.408 191.238 105.47 190.843 105.502 190.334C105.502 190.064 105.502 189.773 105.564 189.441C105.626 189.108 105.678 188.765 105.751 188.402C105.824 188.038 105.886 187.612 105.959 187.176C106.031 186.739 106.208 186.282 106.343 185.794C106.648 184.73 107.026 183.688 107.475 182.677C109.402 178.512 112.429 174.952 116.229 172.381C119.477 170.166 123.171 168.69 127.051 168.058C128.109 167.879 129.177 167.768 130.249 167.726C130.8 167.726 131.35 167.653 131.901 167.664L133.573 167.747H134.414L135.265 167.861L136.969 168.11L138.661 168.516L139.523 168.713L140.354 169.004C145.108 170.515 149.327 173.365 152.505 177.212C155.954 181.328 157.845 186.527 157.845 191.898C157.845 197.269 155.954 202.468 152.505 206.584C149.339 210.438 145.132 213.298 140.385 214.823L139.544 215.114L138.682 215.322L136.989 215.727L135.286 215.977L134.445 216.101H133.593L131.921 216.184C131.371 216.184 130.821 216.184 130.281 216.132C129.208 216.092 128.14 215.981 127.082 215.8C123.226 215.176 119.555 213.707 116.333 211.498C111.502 208.384 107.969 203.616 106.395 198.085C106.27 197.597 106.114 197.15 106.021 196.714C105.927 196.277 105.865 195.862 105.803 195.477C105.74 195.093 105.668 194.75 105.616 194.438C105.564 194.127 105.616 193.815 105.554 193.555C105.512 193.043 105.481 192.637 105.46 192.34C105.452 192.203 105.434 192.068 105.408 191.934C105.396 192.073 105.396 192.212 105.408 192.35V193.555C105.408 193.825 105.408 194.127 105.408 194.459C105.408 194.792 105.512 195.145 105.574 195.498C105.637 195.851 105.699 196.298 105.761 196.745C105.824 197.192 106 197.638 106.125 198.137C106.417 199.226 106.788 200.292 107.236 201.327C107.788 202.554 108.437 203.736 109.178 204.859C110.998 207.597 113.328 209.957 116.043 211.81C119.33 214.076 123.079 215.584 127.02 216.226C128.095 216.41 129.18 216.524 130.27 216.569C130.821 216.569 131.381 216.641 131.942 216.631L133.635 216.558H134.497L135.359 216.434L137.093 216.184L138.817 215.779L139.69 215.571L140.541 215.28C145.391 213.736 149.693 210.825 152.931 206.896C156.465 202.69 158.403 197.372 158.403 191.877C158.403 186.383 156.465 181.064 152.931 176.859C149.661 172.948 145.334 170.063 140.468 168.547L139.617 168.266L138.744 168.058L137.01 167.653L135.276 167.404L134.424 167.29H133.562L131.859 167.217C131.298 167.217 130.737 167.269 130.187 167.29C129.097 167.332 128.011 167.45 126.937 167.643C123.035 168.283 119.322 169.776 116.063 172.017C113.352 173.875 111.027 176.243 109.219 178.989C107.827 181.042 106.798 183.319 106.177 185.721C106.052 186.209 105.917 186.667 105.824 187.113C105.73 187.56 105.689 187.976 105.637 188.36C105.585 188.745 105.522 189.098 105.47 189.399C105.419 189.7 105.47 190.023 105.47 190.293C105.47 190.812 105.47 191.207 105.47 191.508C105.437 191.655 105.416 191.805 105.408 191.955Z" fill="#263238"/>
<path d="M221.223 128.785C229.707 128.369 233.893 134.769 238.639 136.058C243.385 137.346 248.567 137.575 253.126 135.725C259.045 133.315 263.085 127.86 268.267 124.13C278.653 116.639 294.074 117.086 304.023 125.169C304.252 130.832 299.412 135.31 294.729 138.489C290.045 141.668 277.074 146.24 275.381 151.663C274.135 155.715 282.879 159.123 280.678 162.749C278.476 166.375 271.196 166.012 267.177 165.316C241.816 160.952 250.716 168.713 242.865 167.996C242.865 167.996 226.426 163.84 213.538 161.7" fill="#455A64"/>
<path d="M135.743 278.171L143.979 259.022L126.396 251.406L120.28 275.428L134.995 278.171" fill="#FFBE9D"/>
<path d="M120.29 272.312L115.097 289.091C115.097 289.091 96.3311 289.486 95.0745 292.499L127.268 303.647L136.355 277.839L120.29 272.312Z" fill="#066FA4"/>
<g opacity="0.6">
<path d="M125.565 291.138C125.842 291.34 126.034 291.638 126.105 291.973C126.176 292.309 126.12 292.659 125.949 292.956C125.76 293.24 125.469 293.44 125.137 293.515C124.804 293.591 124.456 293.536 124.163 293.361C123.869 293.148 123.665 292.833 123.591 292.478C123.516 292.123 123.575 291.753 123.758 291.439C123.986 291.161 124.312 290.983 124.669 290.943C125.026 290.902 125.384 291.002 125.669 291.221" fill="white"/>
</g>
<g opacity="0.6">
<path d="M127.268 303.647L128.078 301.008L96.9227 291.304C96.9227 291.304 95.2714 291.428 95.0845 292.499L127.268 303.647Z" fill="white"/>
</g>
<path d="M114.671 288.748C114.671 288.904 115.388 289.247 115.98 290.015C116.572 290.784 116.769 291.595 116.935 291.584C117.101 291.574 117.174 290.545 116.437 289.662C115.699 288.779 114.692 288.592 114.671 288.748Z" fill="#263238"/>
<path d="M110.819 288.966C110.735 289.112 111.317 289.61 111.618 290.462C111.919 291.314 111.836 292.062 111.992 292.114C112.148 292.166 112.563 291.304 112.169 290.254C111.774 289.205 110.87 288.821 110.819 288.966Z" fill="#263238"/>
<path d="M107.505 292.343C107.64 292.426 108.129 291.719 108.025 290.712C107.921 289.704 107.298 289.122 107.194 289.226C107.09 289.33 107.37 289.953 107.443 290.774C107.516 291.595 107.35 292.27 107.505 292.343Z" fill="#263238"/>
<path d="M116.271 285.05C116.271 285.216 117.081 285.247 117.953 285.621C118.826 285.995 119.407 286.504 119.542 286.4C119.677 286.296 119.199 285.507 118.171 285.081C117.143 284.655 116.24 284.904 116.271 285.05Z" fill="#263238"/>
<path d="M117.371 281.683C117.849 282.014 118.411 282.205 118.991 282.233C119.606 282.329 120.23 282.353 120.85 282.306C121.217 282.271 121.582 282.212 121.941 282.129C122.159 282.097 122.37 282.026 122.564 281.922C122.706 281.846 122.818 281.725 122.884 281.579C122.949 281.432 122.965 281.268 122.927 281.112C122.884 280.974 122.81 280.849 122.712 280.744C122.613 280.64 122.491 280.56 122.356 280.509C122.155 280.442 121.945 280.4 121.733 280.385C121.36 280.354 120.985 280.354 120.612 280.385C119.982 280.44 119.365 280.594 118.784 280.842C117.745 281.278 117.34 281.776 117.382 281.828C117.423 281.88 117.974 281.537 118.929 281.226C119.484 281.046 120.06 280.942 120.643 280.914C120.988 280.888 121.335 280.888 121.681 280.914C122.055 280.914 122.346 281.039 122.377 281.216C122.408 281.392 122.377 281.309 122.273 281.392C122.132 281.461 121.981 281.509 121.827 281.537C121.485 281.626 121.138 281.692 120.788 281.735C120.202 281.807 119.611 281.824 119.023 281.787C118.475 281.716 117.923 281.681 117.371 281.683Z" fill="#263238"/>
<path d="M117.495 281.985C117.495 281.985 118.056 281.57 118.461 280.572C118.7 279.987 118.834 279.365 118.856 278.733C118.867 278.358 118.842 277.982 118.783 277.611C118.773 277.368 118.698 277.132 118.567 276.928C118.435 276.724 118.252 276.558 118.035 276.447C117.893 276.399 117.74 276.393 117.595 276.43C117.449 276.467 117.317 276.545 117.215 276.655C117.065 276.816 116.939 276.998 116.841 277.195C116.665 277.521 116.54 277.871 116.467 278.234C116.339 278.867 116.375 279.521 116.571 280.136C116.914 281.175 117.506 281.601 117.537 281.559C117.321 281.06 117.13 280.55 116.966 280.032C116.847 279.477 116.847 278.903 116.966 278.349C117.04 278.026 117.159 277.715 117.319 277.424C117.485 277.102 117.713 276.873 117.828 276.946C117.939 277.033 118.031 277.143 118.095 277.268C118.16 277.394 118.196 277.532 118.202 277.673C118.268 278.016 118.302 278.364 118.305 278.712C118.302 279.293 118.218 279.87 118.056 280.427C117.797 281.403 117.423 281.933 117.495 281.985Z" fill="#263238"/>
<path d="M219.831 129.419C219.831 129.419 235.066 159.602 224.827 166.677C214.587 173.753 166.763 209.702 166.763 209.702L142.369 274.877L119.521 265.526L138.557 189.244L186.62 146.043L219.831 129.419Z" fill="#263238"/>
<path d="M161.166 197.742C161.031 197.846 162.609 199.945 163.783 202.937C164.956 205.929 165.278 208.516 165.444 208.496C165.372 204.51 163.851 200.687 161.166 197.742Z" fill="#455A64"/>
<path d="M164.936 197.12C164.78 197.12 165.465 199.634 165.694 202.772C165.922 205.91 165.694 208.455 165.829 208.476C166.33 206.605 166.468 204.654 166.234 202.731C166.173 200.793 165.732 198.887 164.936 197.12Z" fill="#455A64"/>
<path d="M140.063 273.902C140.125 273.801 140.174 273.693 140.208 273.58C140.312 273.341 140.437 273.019 140.603 272.603C140.956 271.72 141.444 270.463 142.077 268.842C143.334 265.559 145.193 260.779 147.353 254.816C149.513 248.852 152.161 241.693 154.893 233.61C155.578 231.594 156.253 229.506 156.918 227.376C157.582 225.246 158.195 223.033 159.088 220.851C160.833 216.518 162.92 212.134 165.205 207.687L165.132 207.76C167.698 205.588 170.408 203.313 173.191 201.027C175.362 199.24 177.512 197.484 179.682 195.832L186.121 190.949C190.337 187.739 194.429 184.653 198.386 181.837C202.342 179.021 206.247 176.549 209.809 174.086C213.17 171.865 216.323 169.344 219.229 166.554C220.498 165.323 221.62 163.949 222.573 162.46C223.405 161.113 224.022 159.644 224.4 158.107C224.965 155.641 224.997 153.084 224.494 150.605C224.187 149.048 223.742 147.522 223.165 146.044C222.978 145.535 222.801 145.161 222.697 144.901C222.647 144.767 222.585 144.639 222.51 144.517C222.51 144.517 222.51 144.662 222.645 144.922C222.78 145.182 222.895 145.566 223.061 146.075C223.59 147.564 224 149.093 224.286 150.647C224.742 153.095 224.678 155.612 224.099 158.034C223.719 159.536 223.106 160.97 222.282 162.283C221.327 163.736 220.212 165.078 218.959 166.283C216.047 169.035 212.899 171.525 209.55 173.723C205.977 176.154 202.041 178.606 198.074 181.432C194.107 184.258 190.005 187.313 185.778 190.523L179.339 195.406C177.148 197.069 174.998 198.825 172.828 200.601C170.045 202.897 167.334 205.173 164.769 207.355V207.407C162.484 211.874 160.397 216.269 158.652 220.633C157.82 222.773 157.099 224.954 156.492 227.168C155.838 229.308 155.163 231.386 154.498 233.402C151.798 241.485 149.222 248.644 147.073 254.629L141.942 268.707C141.35 270.338 140.904 271.616 140.561 272.51L140.218 273.549C140.15 273.658 140.098 273.777 140.063 273.902Z" fill="#455A64"/>
<path d="M201.045 139.082L171.593 143.259L156.493 147.103L177.169 154.521L201.045 139.082Z" fill="#263238"/>
<path d="M237.101 136.952C237.27 137.216 237.477 137.454 237.714 137.659C238.307 138.267 238.938 138.836 239.604 139.363C244.003 142.886 249.304 145.1 254.901 145.752C255.742 145.856 256.589 145.905 257.435 145.898C257.748 145.93 258.064 145.909 258.37 145.836C258.37 145.742 257.051 145.701 254.953 145.368C252.225 144.948 249.557 144.198 247.009 143.134C244.463 142.063 242.054 140.693 239.833 139.051C238.129 137.794 237.164 136.89 237.101 136.952Z" fill="#263238"/>
<path d="M215.958 93.8131L221.639 136.536C221.639 136.536 202.758 135.3 189.445 139.726C176.131 144.152 167.947 144.027 167.947 144.027L170.731 117.45L160.792 95.6313L156.42 121.139L136.003 142.168L122.699 139.155L136.491 116.047L146.066 68.9605C146.874 65.0354 148.999 61.5048 152.089 58.9551L152.474 58.6434L172.517 47.4639L179.246 47.5989C184.934 47.723 190.602 48.3068 196.195 49.3444C199.686 49.9942 202.89 51.7112 205.365 54.2588C207.593 56.7614 209.198 59.7555 210.049 62.9967L215.958 93.8131Z" fill="#066FA4"/>
<path d="M152.286 75.9424C152.408 76.4178 152.575 76.8805 152.785 77.3242L154.301 80.9815C155.609 84.0984 157.417 88.3063 159.494 92.9818L164.811 104.941C165.475 106.385 166.036 107.59 166.462 108.546C166.649 108.994 166.867 109.428 167.116 109.845C167.023 109.367 166.869 108.902 166.659 108.463C166.317 107.58 165.808 106.333 165.164 104.785C163.876 101.668 162.048 97.4494 159.971 92.7636C157.894 88.0778 156.015 83.8699 154.623 80.8256L152.941 77.2307C152.768 76.7797 152.548 76.348 152.286 75.9424Z" fill="#263238"/>
<path d="M208.937 68.5034C205.032 79.392 197.514 104.255 193.858 113.845C192.735 116.755 190.857 119.312 188.416 121.253L147.914 149.918L138.567 137.752L168.923 108.452L185.29 59.9421C187.596 53.4692 197.16 49.9574 203.101 53.4173C207.608 56.0875 210.692 63.5162 208.937 68.5034Z" fill="#066FA4"/>
<path d="M184.501 61.958C184.501 61.958 184.387 62.2385 184.189 62.7892L183.317 65.262C182.569 67.4542 181.468 70.6232 180.087 74.6648L168.664 108.38L168.726 108.286L138.318 137.555L138.152 137.721L138.297 137.908L145.027 146.667C145.931 147.83 146.824 149.004 147.654 150.085L147.81 150.293L148.028 150.137L179.121 127.726L186.09 122.708L187.762 121.502C188.331 121.115 188.872 120.687 189.382 120.224C190.371 119.3 191.236 118.253 191.958 117.107C192.648 116.013 193.215 114.846 193.65 113.627L194.99 110.177C195.842 107.923 196.652 105.751 197.399 103.663C200.38 95.3511 202.592 88.5561 204.067 83.8599C204.794 81.5221 205.354 79.7039 205.749 78.4467C205.926 77.8441 206.071 77.4078 206.164 77.0337C206.214 76.8732 206.256 76.7102 206.289 76.5454C206.289 76.5454 206.227 76.7012 206.112 77.0233C205.998 77.3454 205.853 77.8234 205.645 78.4156C205.24 79.6624 204.607 81.4702 203.869 83.7975C202.322 88.473 200.079 95.2264 197.046 103.538C196.288 105.616 195.468 107.777 194.606 110.032C194.159 111.154 193.713 112.307 193.256 113.471C192.823 114.661 192.262 115.8 191.584 116.869C190.875 117.968 190.03 118.973 189.07 119.861C188.576 120.312 188.048 120.725 187.492 121.097L185.809 122.302L178.82 127.342L147.665 149.711H148.028L145.401 146.293L138.671 137.544V137.898L169.017 108.64V108.588C173.69 94.5926 177.564 82.9663 180.285 74.8103L183.4 65.3659L184.2 62.8827C184.428 62.2489 184.501 61.958 184.501 61.958Z" fill="#263238"/>
<path d="M188.375 56.0355C188.437 56.0978 189.112 55.3913 190.452 54.5705C192.162 53.4948 194.12 52.8789 196.138 52.7825C198.156 52.686 200.164 53.1122 201.969 54.0198C203.36 54.7056 204.098 55.3497 204.16 55.277C203.614 54.6019 202.926 54.0555 202.145 53.677C200.31 52.6392 198.218 52.1422 196.112 52.2433C194.006 52.3444 191.972 53.0396 190.244 54.2484C189.499 54.7025 188.862 55.3121 188.375 56.0355Z" fill="#263238"/>
<path d="M135.598 116.681C135.598 116.847 137.519 116.681 139.752 117.2C141.984 117.72 143.594 118.78 143.688 118.634C142.643 117.611 141.315 116.927 139.876 116.67C138.482 116.237 136.989 116.24 135.598 116.681Z" fill="#263238"/>
<path d="M203.61 84.878C203.741 84.9276 203.877 84.9624 204.015 84.9819C204.385 85.063 204.76 85.1219 205.137 85.1585C206.388 85.2887 207.652 85.2079 208.876 84.9195C210.465 84.4977 211.941 83.7276 213.196 82.6649C213.307 82.5798 213.408 82.4822 213.497 82.374C212.086 83.4159 210.505 84.2035 208.824 84.7014C207.107 85.0421 205.346 85.1018 203.61 84.878Z" fill="#FAFAFA"/>
<path d="M200.452 94.1458C201.07 93.7316 201.711 93.3535 202.373 93.0133C204.006 92.2523 205.768 91.8047 207.566 91.6938C209.362 91.5826 211.165 91.6208 212.956 91.8081L214.586 91.964C214.787 91.978 214.988 91.978 215.188 91.964C214.996 91.9056 214.797 91.8673 214.597 91.8497C214.212 91.7873 213.662 91.7146 212.966 91.6315C211.173 91.3937 209.361 91.3311 207.555 91.4445C205.749 91.5649 203.984 92.0416 202.363 92.8471C201.874 93.0963 201.408 93.3884 200.971 93.7198C200.78 93.8377 200.605 93.981 200.452 94.1458Z" fill="#FAFAFA"/>
<g opacity="0.4">
<path d="M205.687 78.4053C205.687 78.4053 204.648 94.6551 203.433 102.167C202.218 109.679 199.85 117.326 194.471 122.697C189.091 128.069 181.365 130.5 173.856 132.048C176.286 130.22 178.654 128.339 180.991 126.396C183.992 123.903 188.395 121.461 190.815 118.386C195.468 112.474 196.475 105.003 198.874 97.8759C201.076 91.2887 203.475 85.0236 205.687 78.4468" fill="black"/>
</g>
<path d="M177.481 84.7434C177.741 84.9282 178.028 85.0719 178.332 85.1694C179.165 85.4642 180.046 85.5982 180.929 85.5642C183.162 85.5642 186.121 84.5252 189.486 84.8265C192.348 85.0484 195.119 85.938 197.576 87.424C198.317 87.8764 199.028 88.3762 199.705 88.9201L200.245 89.3773C200.37 89.4812 200.442 89.5332 200.442 89.5228C199.62 88.656 198.683 87.9046 197.659 87.2889C195.194 85.75 192.394 84.8303 189.496 84.6083C186.09 84.2862 183.11 85.398 180.929 85.4084C180.062 85.4572 179.193 85.3517 178.364 85.0967C177.782 84.9512 177.491 84.7434 177.481 84.7434Z" fill="#FAFAFA"/>
<path d="M180.493 76.8992C180.557 76.9508 180.627 76.9961 180.7 77.0343L181.292 77.3771C181.812 77.6784 182.58 78.0732 183.546 78.5304C188.616 80.905 194.12 82.2134 199.716 82.3747C200.754 82.3747 201.658 82.3747 202.25 82.3747H202.935C203.014 82.3822 203.094 82.3822 203.174 82.3747H202.935H202.25C201.658 82.3747 200.785 82.3746 199.726 82.3227C196.951 82.2007 194.194 81.8181 191.491 81.1798C188.787 80.5286 186.148 79.6313 183.608 78.4992C182.642 78.0629 181.863 77.6784 181.334 77.4602L180.721 77.1485C180.576 76.92 180.503 76.8888 180.493 76.8992Z" fill="#FAFAFA"/>
<path d="M157.49 85.4177L157.77 85.3554C158.038 85.2807 158.302 85.1905 158.559 85.0853C159.494 84.6733 160.351 84.104 161.093 83.4021C163.066 81.7189 164.884 78.5604 167.948 76.1292C171.357 73.4063 175.47 71.7091 179.807 71.2355L180.628 71.1524C180.72 71.1701 180.816 71.1701 180.908 71.1524C179.508 71.1483 178.113 71.3158 176.754 71.6511C173.475 72.4174 170.409 73.9085 167.781 76.0149C166.357 77.1941 165.065 78.5249 163.928 79.9838C163.021 81.1765 162.029 82.3016 160.958 83.3501C160.232 84.0513 159.398 84.6303 158.487 85.0645C157.874 85.3138 157.479 85.3866 157.49 85.4177Z" fill="#FAFAFA"/>
<path d="M158.704 90.374C159 90.3087 159.291 90.2254 159.577 90.1246C160.33 89.8066 161.03 89.3757 161.654 88.8466C162.575 88.0523 163.427 87.1798 164.198 86.2388C165.141 85.1083 166.184 84.0651 167.314 83.1218C168.471 82.2053 169.851 81.6135 171.312 81.4075C172.503 81.2405 173.709 81.2161 174.905 81.3348C175.944 81.4283 176.764 81.5529 177.335 81.6257L178 81.7192C178.076 81.7307 178.153 81.7307 178.229 81.7192C178.16 81.6861 178.086 81.665 178.01 81.6568L177.356 81.5218C176.785 81.4179 175.954 81.2724 174.926 81.1685C173.716 81.0128 172.491 81.0128 171.281 81.1685C169.762 81.3564 168.324 81.9605 167.127 82.914C165.986 83.8764 164.943 84.9482 164.011 86.1141C163.245 87.0464 162.412 87.9215 161.519 88.7323C160.894 89.267 160.194 89.708 159.442 90.0415C159.006 90.2597 158.704 90.3532 158.704 90.374Z" fill="#FAFAFA"/>
<path d="M142.795 87.0282C143.545 86.8244 144.325 86.7471 145.101 86.7996C145.942 86.873 146.769 87.0582 147.562 87.3502C148.455 87.6619 149.41 88.1191 150.418 88.5763C151.363 89.0221 152.351 89.3702 153.367 89.6152C154.208 89.8101 155.076 89.8558 155.932 89.7503C156.511 89.6711 157.07 89.4881 157.583 89.21C157.749 89.1224 157.906 89.0179 158.051 88.8983C157.385 89.3004 156.642 89.5554 155.87 89.6464C155.035 89.7319 154.192 89.6721 153.377 89.4698C152.376 89.2207 151.402 88.8726 150.47 88.4308C149.431 87.9736 148.496 87.5269 147.583 87.2152C146.772 86.9302 145.927 86.7555 145.069 86.6957C144.49 86.6606 143.908 86.7167 143.345 86.8619C143.156 86.8969 142.972 86.9527 142.795 87.0282Z" fill="#FAFAFA"/>
<path d="M141.153 92.6804C141.983 92.055 142.982 91.693 144.02 91.6414C145.137 91.6041 146.248 91.8061 147.281 92.2337C148.535 92.7928 149.722 93.4897 150.822 94.3116C151.932 95.1405 153.109 95.8738 154.343 96.5039C155.366 97.0054 156.477 97.3052 157.614 97.387C158.38 97.4319 159.147 97.3188 159.868 97.0546C160.132 96.9546 160.383 96.822 160.615 96.6597C159.688 97.1155 158.655 97.3129 157.624 97.2312C156.511 97.1304 155.427 96.8239 154.426 96.3273C153.212 95.6854 152.049 94.9526 150.947 94.135C149.831 93.3098 148.625 92.6128 147.353 92.057C146.293 91.6279 145.152 91.4364 144.009 91.496C143.239 91.54 142.49 91.7604 141.818 92.1401C141.573 92.2888 141.349 92.4706 141.153 92.6804Z" fill="#FAFAFA"/>
<g opacity="0.4">
<path d="M158.424 109.409C156.347 100.899 155.89 91.6835 155.589 82.9248C156.326 85.9898 158.206 88.6392 159.369 91.5796C159.93 92.9718 160.813 95.507 160.813 95.507L158.466 109.201" fill="black"/>
</g>
<path d="M172.132 9.31152C172.247 10.0959 172.577 10.8331 173.085 11.4418C173.592 12.0505 174.258 12.507 175.009 12.761C175.86 13.0415 176.795 13.0415 177.636 13.3636C178.069 13.4859 178.447 13.7524 178.707 14.119C178.968 14.4855 179.096 14.9302 179.069 15.3792C178.924 16.0442 178.311 16.4702 177.813 16.9169C177.314 17.3637 176.857 18.0702 177.148 18.6728C177.439 19.2754 178.425 19.4001 178.924 19.9508C179.152 20.269 179.264 20.6553 179.244 21.0461C179.223 21.437 179.07 21.8091 178.81 22.1015C178.273 22.6726 177.653 23.1595 176.972 23.5457C176.286 23.9393 175.78 24.5836 175.559 25.3431" fill="#263238"/>
<path d="M141.33 22.8086C139.045 17.9773 140.707 11.9615 144.269 7.9718C147.831 3.98209 152.941 1.73788 158.071 0.252123C158.808 0.0443249 159.722 -0.111526 160.242 0.459917C160.436 0.736457 160.528 1.07165 160.504 1.40871C160.479 1.74576 160.339 2.06394 160.107 2.30932C159.626 2.79179 159.034 3.14859 158.383 3.34831C160.454 2.26576 162.736 1.64543 165.071 1.53008C165.888 1.46754 166.706 1.6406 167.428 2.02879C167.78 2.23524 168.058 2.54664 168.224 2.91931C168.389 3.29198 168.434 3.70722 168.352 4.10677C168.291 4.30274 168.183 4.48102 168.038 4.62652C167.894 4.77203 167.716 4.88046 167.52 4.94265C167.325 5.00483 167.117 5.01893 166.915 4.98375C166.712 4.94857 166.522 4.86515 166.358 4.74055C168.581 4.49911 170.819 5.02321 172.704 6.2263C174.033 7.07827 175.248 8.55364 174.926 10.1017C174.588 10.9651 174.199 11.8081 173.763 12.6265C173.213 14.2369 174.012 15.9616 174.625 17.5409C175.642 19.9968 176 22.6757 175.664 25.3125C175.49 26.6295 175.028 27.8918 174.31 29.0091C173.592 30.1264 172.635 31.0709 171.509 31.775" fill="#263238"/>
<path d="M173.182 63.5481C174.552 63.1806 175.835 62.5423 176.956 61.6709C178.076 60.7995 179.011 59.7126 179.705 58.4742C180.398 57.2358 180.838 55.871 180.996 54.4602C181.155 53.0494 181.029 51.6211 180.628 50.2595L171.094 17.9677C170.569 15.9968 169.654 14.1513 168.404 12.5404C167.153 10.9294 165.592 9.58582 163.813 8.589C162.035 7.59219 160.074 6.96243 158.048 6.737C156.022 6.51156 153.971 6.69503 152.017 7.27655L151.269 7.54668C147.642 8.85942 144.641 11.4894 142.863 14.9139C141.085 18.3384 140.661 22.3067 141.673 26.0303C143.636 33.2097 145.9 41.1268 147.302 44.8567C150.199 52.5764 158.383 50.9764 158.383 50.9764L160.397 56.7635C161.277 59.3012 163.085 61.4115 165.456 62.6702C167.828 63.9289 170.588 64.2426 173.182 63.5481Z" fill="#FFBE9D"/>
<path d="M158.33 50.8725C161.932 49.6454 165.088 47.3741 167.396 44.3477C167.396 44.3477 167.023 50.7894 159.088 52.8881L158.33 50.8725Z" fill="#EB996E"/>
<path d="M159.795 12.0144C160.428 10.6221 161.228 7.58827 162.308 6.49733C163.388 5.4064 165.143 5.77004 166.618 6.18563C167.377 6.40583 168.074 6.8032 168.65 7.34507C169.225 7.88694 169.665 8.55784 169.931 9.3026C172.008 14.882 172.216 20.16 173.732 25.6459C173.87 26.0032 173.902 26.3927 173.825 26.768C173.535 27.6927 172.517 28.0252 171.551 28.1706C169.173 28.5135 167.958 26.7784 166.836 24.69C166.459 23.4253 166.181 22.133 166.005 20.825C165.873 18.9901 165.259 17.2224 164.228 15.6996C163.196 14.1767 161.782 12.9523 160.127 12.1494L159.795 12.0144Z" fill="#263238"/>
<path d="M169.754 22.4037C169.858 22.2998 174.511 18.9023 176.255 24.2635C178 29.6247 172.257 30.2792 172.195 30.1234C172.132 29.9675 169.754 22.4037 169.754 22.4037Z" fill="#FFBE9D"/>
<path d="M173.171 27.599C173.171 27.599 173.285 27.599 173.472 27.6614C173.726 27.6777 173.978 27.6001 174.178 27.4432C174.452 27.1104 174.632 26.7106 174.699 26.285C174.767 25.8595 174.72 25.4236 174.563 25.0223C174.426 24.557 174.189 24.1277 173.867 23.7652C173.761 23.6153 173.621 23.4928 173.458 23.4078C173.296 23.3229 173.115 23.278 172.932 23.2768C172.817 23.287 172.708 23.3355 172.623 23.4146C172.539 23.4936 172.483 23.5988 172.465 23.7132C172.465 23.8899 172.465 23.9834 172.465 24.0041C172.465 24.0249 172.319 23.9522 172.288 23.7132C172.277 23.5704 172.313 23.4278 172.392 23.308C172.448 23.2289 172.519 23.1615 172.601 23.1098C172.683 23.0581 172.774 23.0231 172.87 23.0067C173.104 22.9804 173.342 23.0143 173.56 23.1051C173.778 23.196 173.969 23.3409 174.116 23.5262C174.491 23.9166 174.768 24.3901 174.926 24.9081C175.106 25.3781 175.144 25.8907 175.035 26.3821C174.926 26.8735 174.675 27.322 174.313 27.6718C174.184 27.7601 174.037 27.8182 173.882 27.8415C173.728 27.8649 173.57 27.8531 173.42 27.8068C173.223 27.6925 173.161 27.599 173.171 27.599Z" fill="#EB996E"/>
<path d="M161.862 13.1679C159.224 11.3601 156.503 12.2536 154.686 13.3134C152.868 14.3732 151.331 15.8693 149.493 16.8356C147.655 17.8018 145.194 18.1343 143.532 16.8356C142.946 16.3113 142.475 15.6715 142.148 14.9563C141.821 14.2411 141.645 13.466 141.632 12.6796C141.513 11.183 141.693 9.67778 142.16 8.25107C142.627 6.82435 143.372 5.50445 144.352 4.3677C144.861 3.77547 145.651 3.20403 146.367 3.51573C147.25 3.91054 147.105 5.19889 146.824 6.12359C146.824 6.12359 155.838 2.78844 161.363 4.71056C166.888 6.63269 161.862 13.1679 161.862 13.1679Z" fill="#263238"/>
<path d="M158.476 0.148438C158.476 0.148438 158.372 0.543253 158.092 1.18743C157.668 2.08325 157.088 2.89606 156.378 3.58749C155.325 4.6149 154.111 5.4641 152.785 6.10184C152.002 6.46962 151.18 6.74507 150.334 6.92264C149.451 7.12005 148.506 7.25511 147.551 7.51486C146.593 7.74978 145.701 8.20117 144.944 8.83438C144.25 9.4381 143.712 10.201 143.376 11.0578C143.068 11.8361 142.958 12.6784 143.054 13.5098C143.149 14.2263 143.412 14.91 143.822 15.5047C144.408 16.3712 145.267 17.0153 146.263 17.3333C146.534 17.4097 146.813 17.4516 147.094 17.458C147.281 17.458 147.385 17.458 147.385 17.458C147.385 17.458 146.98 17.458 146.346 17.1775C145.43 16.8188 144.652 16.1785 144.124 15.3488C143.765 14.7832 143.538 14.144 143.459 13.4787C143.387 12.7172 143.505 11.9496 143.802 11.2448C144.117 10.4449 144.619 9.7323 145.266 9.16686C145.967 8.59549 146.787 8.18735 147.665 7.97202C148.579 7.72266 149.524 7.5772 150.427 7.3694C151.305 7.18051 152.156 6.88389 152.961 6.48626C154.322 5.81491 155.556 4.91132 156.607 3.81606C157.322 3.08118 157.881 2.20794 158.247 1.24976C158.346 0.988697 158.412 0.716536 158.445 0.439353C158.473 0.345219 158.484 0.246508 158.476 0.148438Z" fill="#455A64"/>
<path d="M164.426 1.76953C164.426 1.76953 164.291 2.16435 163.99 2.80852C163.539 3.74162 162.912 4.578 162.141 5.27092C160.985 6.28866 159.631 7.05625 158.164 7.52553C156.35 8.09326 154.497 8.52392 152.618 8.81387C150.702 9.0898 148.832 9.62819 147.062 10.4139C146.263 10.7992 145.621 11.4488 145.245 12.2529C144.969 12.9729 144.925 13.7614 145.12 14.5075C145.427 15.5628 146.111 16.4685 147.041 17.053C147.284 17.2134 147.541 17.3492 147.81 17.4583C147.901 17.5047 147.999 17.5362 148.101 17.5518C148.101 17.5518 147.737 17.344 147.145 16.8972C146.31 16.3001 145.711 15.4286 145.453 14.4348C145.286 13.7688 145.333 13.0673 145.588 12.4296C145.939 11.7168 146.526 11.1477 147.249 10.8191C148.989 10.0777 150.819 9.56769 152.691 9.3022C154.591 9.00623 156.463 8.55448 158.289 7.95151C159.8 7.4507 161.185 6.62838 162.349 5.54106C163.126 4.7987 163.735 3.89895 164.135 2.90203C164.241 2.63327 164.321 2.35492 164.374 2.07084C164.412 1.97513 164.43 1.87249 164.426 1.76953Z" fill="#455A64"/>
<path d="M146.844 29.7592C146.949 30.0741 147.173 30.3354 147.468 30.4869C147.763 30.6385 148.106 30.6681 148.423 30.5696C148.581 30.5299 148.73 30.4587 148.86 30.3603C148.99 30.2618 149.099 30.1381 149.181 29.9965C149.262 29.8549 149.314 29.6984 149.334 29.5362C149.354 29.374 149.34 29.2096 149.295 29.0526C149.188 28.7366 148.962 28.4744 148.666 28.3213C148.37 28.1682 148.026 28.1362 147.706 28.2318C147.548 28.2738 147.4 28.3469 147.271 28.4469C147.142 28.5469 147.034 28.6716 146.954 28.8139C146.873 28.9562 146.822 29.1132 146.803 29.2755C146.785 29.4378 146.798 29.6023 146.844 29.7592Z" fill="#263238"/>
<path d="M144.549 29.0727C144.757 29.1766 145.432 28.1895 146.74 27.7428C148.049 27.296 149.212 27.6077 149.295 27.3999C149.378 27.1921 149.098 27.0778 148.568 26.922C147.876 26.729 147.142 26.753 146.464 26.9908C145.786 27.2287 145.197 27.6688 144.778 28.2519C144.476 28.6986 144.445 29.0311 144.549 29.0727Z" fill="#263238"/>
<path d="M159.68 26.0605C159.787 26.3762 160.013 26.6377 160.31 26.7891C160.607 26.9405 160.951 26.9699 161.269 26.8709C161.427 26.8302 161.574 26.7582 161.703 26.6592C161.833 26.5603 161.941 26.4364 162.021 26.2949C162.101 26.1534 162.152 25.9973 162.171 25.8357C162.19 25.674 162.177 25.5102 162.131 25.354C162.026 25.0387 161.803 24.7767 161.508 24.6235C161.214 24.4703 160.871 24.4379 160.553 24.5332C160.394 24.5741 160.245 24.6463 160.114 24.7458C159.984 24.8453 159.875 24.9699 159.794 25.1124C159.712 25.2548 159.66 25.4121 159.641 25.5749C159.621 25.7378 159.635 25.9029 159.68 26.0605Z" fill="#263238"/>
<path d="M157.396 24.8768C157.604 24.9911 158.279 23.9937 159.577 23.5469C160.875 23.1002 162.059 23.4119 162.142 23.2041C162.225 22.9963 161.934 22.882 161.415 22.7261C160.732 22.5381 160.007 22.5634 159.338 22.7988C158.662 23.0302 158.076 23.4704 157.666 24.056C157.334 24.482 157.303 24.8353 157.396 24.8768Z" fill="#263238"/>
<path d="M155.973 36.1598C155.213 36.1838 154.46 36.3024 153.729 36.513C153.387 36.5961 153.054 36.6377 152.919 36.4299C152.776 36.1034 152.733 35.742 152.795 35.3909C152.795 34.4766 152.867 33.5207 152.899 32.5233C153.068 30.0659 153.036 27.5988 152.805 25.1465C152.449 27.5853 152.282 30.0482 152.307 32.5129C152.307 33.5519 152.307 34.4662 152.307 35.3805C152.234 35.8532 152.334 36.3362 152.587 36.7416C152.675 36.8418 152.783 36.9209 152.906 36.9731C153.028 37.0252 153.16 37.0491 153.293 37.0429C153.497 37.04 153.7 37.0085 153.896 36.9494C154.618 36.7722 155.315 36.507 155.973 36.1598Z" fill="#263238"/>
<path d="M160.127 35.7344C159.919 35.7344 160.407 37.1993 159.545 38.6227C158.683 40.0462 157.125 40.4098 157.188 40.6176C157.25 40.8254 157.613 40.7734 158.226 40.6176C159.056 40.3428 159.762 39.7835 160.22 39.0383C160.664 38.3261 160.81 37.4675 160.625 36.6487C160.532 35.9837 160.262 35.6928 160.127 35.7344Z" fill="#263238"/>
<path d="M155.287 19.8992C155.547 20.2109 156.783 19.5979 158.403 19.2446C160.023 18.8914 161.363 18.8914 161.456 18.507C161.456 18.3199 161.165 18.0602 160.552 17.894C159.746 17.6977 158.905 17.6892 158.095 17.8694C157.285 18.0495 156.527 18.4134 155.879 18.9329C155.36 19.3797 155.173 19.7537 155.287 19.8992Z" fill="#263238"/>
<path d="M143.708 25.1467C144.041 25.3649 144.83 24.7519 145.899 24.3571C146.969 23.9622 147.976 23.8687 148.06 23.4843C148.06 23.3077 147.852 23.0583 147.364 22.9129C146.712 22.7673 146.031 22.8168 145.407 23.0551C144.783 23.2934 144.243 23.71 143.854 24.2532C143.584 24.6895 143.511 25.0428 143.708 25.1467Z" fill="#263238"/>
<path d="M168.186 140.422C167.027 140.844 166.055 141.666 165.446 142.74C164.837 143.814 164.631 145.069 164.863 146.282L171.883 149.056L173.483 142.302L168.186 140.422Z" fill="#455A64"/>
<path d="M227.111 140.402C227.111 140.402 213.06 138.947 204.264 142.054C195.468 145.16 184.46 147.477 179.61 146.386C177.013 145.753 174.692 144.295 172.994 142.23C172.994 142.23 186.993 140.547 193.588 138.417C198.022 136.983 206.788 127.04 223.009 129.44L227.111 140.402Z" fill="#455A64"/>
<path d="M170.813 145.492C171.313 144.209 172.086 143.05 173.077 142.095L172.953 142.261C174.424 142.326 175.886 142.538 177.315 142.895C178.747 143.264 180.033 144.061 181.001 145.181C181.334 145.535 181.519 146.003 181.521 146.49C181.452 146.805 181.319 147.103 181.13 147.364C180.94 147.625 180.698 147.844 180.42 148.007C179.136 149.165 177.636 150.059 176.006 150.635C175.187 150.909 174.306 150.941 173.469 150.725C172.632 150.509 171.876 150.056 171.291 149.42C170.901 148.852 170.653 148.198 170.57 147.515C170.487 146.831 170.57 146.137 170.813 145.492Z" fill="#455A64"/>
<path d="M181.012 145.005C180.929 144.706 180.776 144.432 180.565 144.205C180.003 143.587 179.286 143.131 178.488 142.885C177.305 142.491 176.045 142.384 174.812 142.573C174.051 142.688 173.324 142.964 172.679 143.383C172.034 143.803 171.486 144.356 171.073 145.005C170.647 145.688 170.44 146.486 170.481 147.29C170.539 148.043 170.809 148.764 171.26 149.368C171.669 149.91 172.229 150.318 172.87 150.543C173.424 150.73 174.011 150.801 174.594 150.75C175.426 150.671 176.241 150.468 177.013 150.148C177.283 150.044 177.491 149.95 177.637 149.878C177.711 149.85 177.781 149.812 177.844 149.763L177.616 149.836L176.982 150.065C176.212 150.353 175.404 150.532 174.583 150.594C173.993 150.65 173.399 150.556 172.855 150.322C172.31 150.088 171.834 149.72 171.468 149.254C171.016 148.663 170.757 147.946 170.728 147.202C170.698 146.459 170.898 145.724 171.302 145.098C171.7 144.475 172.226 143.944 172.846 143.541C173.466 143.138 174.164 142.872 174.895 142.76C176.096 142.563 177.328 142.652 178.488 143.02C179.273 143.246 179.988 143.668 180.565 144.246C180.74 144.483 180.889 144.737 181.012 145.005Z" fill="#263238"/>
<path d="M178.042 145.232C178.302 144.972 178.58 144.729 178.873 144.505C179.204 144.302 179.552 144.124 179.911 143.976C179.538 144.048 179.184 144.197 178.871 144.414C178.558 144.63 178.293 144.909 178.094 145.232H178.042Z" fill="#FAFAFA"/>
<path d="M175.767 145.336C175.767 145.336 176.089 145.014 176.526 144.65C176.962 144.287 177.346 144.048 177.336 144.027C177.008 144.147 176.708 144.33 176.453 144.567C176.178 144.778 175.945 145.039 175.767 145.336Z" fill="#FAFAFA"/>
<path d="M174.843 150.198C174.843 150.198 174.895 149.96 175.009 149.585C175.162 149.108 175.378 148.654 175.653 148.235C175.945 147.82 176.295 147.449 176.691 147.133C176.993 146.884 177.2 146.759 177.19 146.749C176.996 146.837 176.811 146.945 176.639 147.071C176.236 147.384 175.885 147.759 175.601 148.183C175.318 148.606 175.107 149.073 174.978 149.565C174.91 149.77 174.865 149.983 174.843 150.198Z" fill="#FAFAFA"/>
<path d="M172.537 148.38C172.549 148.18 172.549 147.978 172.537 147.778C172.526 147.294 172.561 146.811 172.641 146.334C172.728 145.86 172.864 145.397 173.046 144.952C173.181 144.609 173.285 144.401 173.275 144.391C173.264 144.38 173.275 144.391 173.181 144.526C173.105 144.654 173.036 144.785 172.974 144.921C172.772 145.369 172.626 145.84 172.537 146.323C172.45 146.803 172.426 147.292 172.465 147.778C172.455 147.927 172.455 148.076 172.465 148.225C172.485 148.278 172.509 148.331 172.537 148.38Z" fill="#FAFAFA"/>
<path d="M172.527 144.048C174.794 144.818 176.786 146.234 178.26 148.121C178.113 147.798 177.917 147.5 177.678 147.238C176.588 145.899 175.151 144.885 173.524 144.308C173.206 144.173 172.87 144.086 172.527 144.048Z" fill="#263238"/>
<path d="M176.006 142.927C176.785 143.514 177.439 144.253 177.927 145.098C178.36 145.971 178.617 146.921 178.685 147.893C178.742 147.605 178.742 147.309 178.685 147.02C178.628 146.31 178.423 145.62 178.083 144.994C177.741 144.367 177.278 143.812 176.722 143.363C176.514 143.172 176.271 143.024 176.006 142.927Z" fill="#263238"/>
<path d="M172.154 150.198C172.154 150.198 172.216 149.855 172.424 149.357C172.705 148.713 173.127 148.141 173.659 147.684C174.926 146.645 176.204 146.073 176.152 145.99C175.867 146.074 175.591 146.189 175.331 146.333C174.677 146.648 174.066 147.046 173.514 147.518C172.957 147.998 172.531 148.613 172.278 149.305C172.161 149.587 172.118 149.895 172.154 150.198Z" fill="#263238"/>
<path d="M201.667 142.77C202.136 142.731 202.598 142.644 203.049 142.511C203.931 142.313 205.198 142.033 206.777 141.731C210.89 140.945 215.055 140.459 219.239 140.277C221.525 140.118 223.821 140.303 226.052 140.827C227.853 141.31 229.541 142.148 231.016 143.29C232.36 144.379 233.548 145.648 234.547 147.061C234.379 146.618 234.149 146.202 233.861 145.825C233.133 144.76 232.255 143.805 231.255 142.989C229.764 141.765 228.034 140.866 226.176 140.35C223.903 139.784 221.555 139.577 219.218 139.736C215.001 139.913 210.807 140.456 206.684 141.357C205.105 141.711 203.838 142.053 202.976 142.313C202.524 142.416 202.085 142.57 201.667 142.77Z" fill="#263238"/>
<path d="M304.906 128.682C304.686 128.472 304.446 128.284 304.19 128.121C303.478 127.627 302.715 127.209 301.915 126.874C298.937 125.619 295.632 125.364 292.496 126.147C290.327 126.677 288.315 127.717 286.628 129.181C284.747 130.883 283.09 132.817 281.695 134.937C280.156 137.241 278.499 139.464 276.731 141.597C274.814 143.861 272.732 145.98 270.5 147.935C265.91 151.935 260.946 155.208 255.961 156.808C253.599 157.607 251.123 158.017 248.629 158.023C246.466 158.11 244.323 157.58 242.45 156.496C240.948 155.521 239.639 154.277 238.587 152.828C237.621 151.571 236.863 150.418 236.24 149.483L234.817 147.322C234.661 147.064 234.488 146.817 234.298 146.584C234.417 146.864 234.563 147.132 234.734 147.384L236.063 149.597C236.655 150.553 237.392 151.675 238.348 153.005C239.394 154.51 240.715 155.804 242.242 156.818C244.171 157.966 246.386 158.543 248.629 158.48C251.173 158.494 253.703 158.09 256.117 157.286C261.237 155.644 266.263 152.382 270.895 148.35C273.153 146.377 275.257 144.234 277.188 141.94C278.962 139.789 280.619 137.545 282.152 135.217C283.521 133.127 285.139 131.212 286.971 129.513C288.598 128.081 290.541 127.055 292.641 126.521C295.703 125.726 298.938 125.919 301.884 127.072C302.935 127.522 303.946 128.061 304.906 128.682Z" fill="#263238"/>
<path d="M279.037 119.466H279.764C280.242 119.466 280.917 119.529 281.758 119.622C286.139 120.13 290.32 121.742 293.909 124.308C294.584 124.796 295.124 125.222 295.487 125.524L296.048 125.991C295.398 125.36 294.704 124.777 293.971 124.246C290.397 121.63 286.194 120.009 281.789 119.549C280.875 119.46 279.955 119.432 279.037 119.466Z" fill="#FAFAFA"/>
<path d="M262.369 129.564L263.127 129.668C263.626 129.731 264.332 129.845 265.204 130.022C267.464 130.484 269.658 131.224 271.737 132.224C273.82 133.226 275.773 134.479 277.552 135.954C278.227 136.515 278.757 136.993 279.11 137.346L279.671 137.876C279.023 137.17 278.329 136.507 277.594 135.892C275.822 134.399 273.872 133.132 271.789 132.12C269.697 131.122 267.489 130.393 265.215 129.949C264.275 129.76 263.325 129.632 262.369 129.564Z" fill="#FAFAFA"/>
<path d="M262.877 153.223C262.94 152.959 262.988 152.692 263.023 152.423C263.117 151.693 263.142 150.955 263.096 150.22C262.926 147.785 262.217 145.417 261.019 143.29C259.797 141.187 258.352 139.223 256.709 137.43C255.473 136.028 254.632 135.207 254.632 135.207L255.161 135.82L256.615 137.472C258.226 139.28 259.649 141.247 260.863 143.342C262.068 145.453 262.801 147.799 263.012 150.22C263.08 150.953 263.08 151.69 263.012 152.423C263.012 152.683 262.95 152.88 262.94 153.015L262.877 153.223Z" fill="#FAFAFA"/>
<path d="M244.6 142.75C244.716 142.491 244.809 142.224 244.88 141.95C245.216 140.623 245.24 139.236 244.953 137.898C244.896 137.624 244.812 137.356 244.704 137.098C244.704 137.098 244.776 137.409 244.88 137.918C245.13 139.247 245.101 140.612 244.797 141.929C244.683 142.438 244.59 142.739 244.6 142.75Z" fill="#FAFAFA"/>
<path d="M241.402 155.393C241.988 155.023 242.544 154.606 243.063 154.146C245.633 151.946 247.449 148.996 248.256 145.71C248.429 145.028 248.543 144.333 248.599 143.632C248.599 143.632 248.599 143.829 248.495 144.183C248.391 144.536 248.339 145.045 248.183 145.658C247.342 148.908 245.552 151.834 243.043 154.063C242.668 154.402 242.276 154.721 241.869 155.019C241.557 155.279 241.402 155.393 241.402 155.393Z" fill="#FAFAFA"/>
<path d="M227.392 141.036C227.392 141.036 227.922 140.797 228.742 140.319C229.801 139.698 230.814 139.004 231.775 138.241C232.738 137.477 233.647 136.647 234.496 135.758C235.14 135.072 235.534 134.604 235.534 134.604L235.243 134.895L234.475 135.706C233.617 136.576 232.709 137.395 231.754 138.158C230.789 138.906 229.784 139.6 228.742 140.236L227.777 140.807L227.392 141.036Z" fill="#FAFAFA"/>
<path d="M217.432 139.653C217.432 139.653 217.432 139.508 217.432 139.248C217.432 138.988 217.432 138.5 217.484 138.126C217.484 137.18 217.629 135.882 217.816 134.458C218.003 133.035 218.263 131.746 218.47 130.832L218.72 129.741C218.782 129.481 218.803 129.336 218.803 129.336C218.803 129.336 218.803 129.471 218.678 129.731C218.553 129.991 218.502 130.354 218.387 130.77C218.169 131.684 217.91 132.972 217.712 134.406C217.548 135.626 217.448 136.854 217.411 138.084C217.411 138.552 217.411 138.936 217.411 139.206C217.411 139.476 217.432 139.653 217.432 139.653Z" fill="#FAFAFA"/>
<path d="M204.503 132.536C204.487 132.65 204.487 132.765 204.503 132.879C204.503 133.201 204.565 133.502 204.586 133.793C204.679 134.573 204.835 135.643 205.074 136.806C205.313 137.97 205.593 139.019 205.822 139.767C205.915 140.048 206.008 140.339 206.102 140.651C206.195 140.962 206.227 140.962 206.227 140.962C206.21 140.849 206.183 140.738 206.143 140.63C206.06 140.329 205.977 140.027 205.894 139.747C205.687 138.999 205.417 137.949 205.178 136.786C204.939 135.622 204.773 134.562 204.658 133.783C204.658 133.492 204.586 133.191 204.544 132.869L204.503 132.536Z" fill="#FAFAFA"/>
<path d="M195.696 141.128C195.633 140.557 195.533 139.992 195.395 139.434C195.302 138.868 195.167 138.308 194.99 137.762C195.06 138.331 195.161 138.897 195.291 139.455C195.39 140.021 195.526 140.58 195.696 141.128Z" fill="#FAFAFA"/>
<path d="M181.137 145.96C181.137 145.96 181.137 145.7 181.054 145.264C180.971 144.827 180.971 144.225 180.96 143.56C180.96 143.103 180.96 142.604 180.96 141.856V141.336C180.971 141.275 180.971 141.211 180.96 141.149C180.922 141.383 180.901 141.619 180.898 141.856C180.898 142.292 180.898 142.895 180.898 143.57C180.908 144.14 180.953 144.71 181.033 145.274C181.045 145.506 181.08 145.735 181.137 145.96Z" fill="#FAFAFA"/>
<path d="M178.343 149.347C179.464 144.827 184.106 141.918 188.728 141.191C193.349 140.463 198.012 141.409 202.633 142.001C207.255 142.593 212.188 142.739 216.331 140.588C217.646 143.027 218.308 145.765 218.253 148.536H215.823C215.314 152.048 212.105 154.77 208.646 155.487C205.188 156.204 202.903 156.266 199.663 154.853C196.257 153.357 191.843 151.102 188.499 149.928C185.155 148.754 181.458 148.173 178.114 149.274" fill="#455A64"/>
<path d="M213.912 141.669C214.027 142.004 214.166 142.33 214.327 142.646C214.657 143.413 214.938 144.201 215.168 145.004C215.404 145.821 215.574 146.654 215.677 147.498C215.691 147.846 215.73 148.193 215.791 148.537C215.84 148.192 215.84 147.842 215.791 147.498C215.737 146.639 215.588 145.788 215.345 144.963C215.115 144.135 214.805 143.331 214.421 142.562C214.292 142.243 214.121 141.942 213.912 141.669Z" fill="#263238"/>
<path d="M215.625 146.562C216.054 146.568 216.482 146.53 216.903 146.448C217.336 146.434 217.768 146.378 218.19 146.282C217.76 146.183 217.313 146.183 216.882 146.282C216.448 146.283 216.019 146.378 215.625 146.562Z" fill="#263238"/>
<path d="M215.106 143.758C215.106 143.758 215.584 143.467 216.217 143.239C216.851 143.01 217.401 143 217.401 142.938C216.98 142.862 216.547 142.899 216.145 143.042C215.742 143.186 215.384 143.433 215.106 143.758Z" fill="#263238"/>
<path d="M210.277 142.273H209.55C209.083 142.273 208.387 142.273 207.473 142.273C204.927 142.246 202.39 141.985 199.892 141.493C196.133 140.709 192.264 140.603 188.468 141.182C186.208 141.543 184.058 142.406 182.175 143.706C180.14 145.146 178.624 147.205 177.854 149.577L177.792 149.805L178.01 149.701C178.987 149.226 180.043 148.937 181.126 148.849C183.761 148.791 186.381 149.26 188.831 150.231C191.155 151.029 193.433 151.955 195.655 153.005C196.693 153.504 197.732 154.044 198.77 154.439C199.754 154.898 200.775 155.27 201.823 155.551C203.729 156 205.704 156.078 207.639 155.78C209.238 155.553 210.766 154.974 212.115 154.086C213.123 153.398 213.975 152.506 214.618 151.468C215.018 150.82 215.329 150.121 215.542 149.39C215.677 148.881 215.719 148.611 215.719 148.611C215.473 149.61 215.078 150.566 214.545 151.447C213.899 152.465 213.046 153.335 212.042 154.003C210.706 154.877 209.19 155.442 207.608 155.655C205.694 155.937 203.745 155.849 201.865 155.395C200.825 155.12 199.813 154.748 198.843 154.283C197.804 153.837 196.766 153.348 195.727 152.85C193.5 151.787 191.215 150.85 188.883 150.044C186.404 149.072 183.757 148.598 181.095 148.652C179.977 148.743 178.886 149.039 177.875 149.525L178.02 149.65C178.776 147.324 180.262 145.305 182.258 143.893C184.123 142.607 186.252 141.752 188.489 141.39C192.252 140.814 196.087 140.905 199.819 141.66C202.324 142.145 204.87 142.381 207.421 142.366C209.29 142.345 210.277 142.273 210.277 142.273Z" fill="#263238"/>
<path d="M210.443 154.916C210.514 154.761 210.573 154.601 210.62 154.438C210.762 154.001 210.879 153.557 210.973 153.108C211.589 150.111 211.37 147.002 210.339 144.121C210.185 143.689 210.009 143.266 209.81 142.853C209.745 142.694 209.661 142.544 209.56 142.406C209.56 142.406 209.841 143.082 210.194 144.173C210.662 145.604 210.955 147.086 211.066 148.588C211.163 150.089 211.079 151.596 210.817 153.077C210.62 154.22 210.402 154.905 210.443 154.916Z" fill="#FAFAFA"/>
<path d="M201.45 148.796C201.37 149.082 201.314 149.374 201.284 149.669C201.201 150.209 201.045 150.947 200.837 151.747C200.412 153.357 199.996 154.656 200.059 154.677C200.208 154.419 200.323 154.143 200.401 153.856C200.588 153.336 200.837 152.619 201.045 151.778C201.232 151.097 201.364 150.402 201.44 149.7C201.493 149.401 201.496 149.096 201.45 148.796Z" fill="#FAFAFA"/>
<path d="M202.706 145.274C202.637 145.836 202.599 146.402 202.592 146.968C202.519 147.893 202.364 148.63 202.426 148.651C202.829 147.573 202.926 146.404 202.706 145.274Z" fill="#FAFAFA"/>
<path d="M200.504 141.648C200.442 141.648 200.722 142.345 200.878 143.207C201.034 144.069 201.024 144.797 201.086 144.797C201.221 144.261 201.221 143.701 201.086 143.165C201.024 142.619 200.824 142.096 200.504 141.648Z" fill="#FAFAFA"/>
<path d="M193.359 143.664C193.672 143.313 193.893 142.891 194.004 142.434C194.114 141.978 194.111 141.501 193.993 141.046C193.92 141.046 193.993 141.669 193.795 142.386C193.598 143.103 193.276 143.633 193.359 143.664Z" fill="#FAFAFA"/>
<path d="M187.752 149.503C187.981 149.254 188.179 148.979 188.344 148.683C188.781 147.992 189.16 147.265 189.476 146.511C189.797 145.76 190.061 144.985 190.265 144.194C190.364 143.856 190.423 143.507 190.441 143.155C190.307 143.464 190.2 143.784 190.119 144.111C189.933 144.703 189.652 145.514 189.278 146.387C188.904 147.259 188.52 148.018 188.24 148.568C188.045 148.862 187.881 149.175 187.752 149.503Z" fill="#FAFAFA"/>
<path d="M186.193 141.96C186.193 142.012 186.339 142.188 186.515 142.427C186.692 142.666 186.796 142.884 186.858 142.863C186.92 142.843 186.858 142.573 186.692 142.292C186.526 142.012 186.225 141.887 186.193 141.96Z" fill="#FAFAFA"/>
<path d="M177.98 149.701C178.085 149.62 178.186 149.533 178.281 149.441C179.627 148.25 181.32 147.522 183.11 147.363C185.177 147.138 187.267 147.365 189.237 148.028C191.64 148.866 193.994 149.837 196.289 150.937C198.579 152.032 201.036 152.734 203.558 153.015C205.651 153.204 207.761 153.021 209.79 152.475C211.149 152.119 212.46 151.599 213.694 150.927C214.131 150.688 214.453 150.48 214.671 150.335L215.003 150.116L214.66 150.324C214.442 150.459 214.11 150.657 213.674 150.885C210.585 152.533 207.088 153.254 203.6 152.963C201.078 152.678 198.622 151.976 196.33 150.885C194.035 149.779 191.677 148.807 189.268 147.976C187.284 147.311 185.179 147.087 183.1 147.321C181.698 147.503 180.354 147.993 179.164 148.755C178.733 149.023 178.336 149.34 177.98 149.701Z" fill="#FAFAFA"/>
<path d="M195.302 144.807C195.302 144.807 195.561 144.931 196.039 145.129C196.517 145.326 197.202 145.596 198.116 145.898C200.394 146.686 202.789 147.083 205.199 147.072C207.604 147.003 209.987 146.601 212.281 145.877C214.047 145.368 215.127 144.983 215.127 144.983L214.348 145.201L212.271 145.804C209.979 146.504 207.604 146.895 205.209 146.968C202.808 146.976 200.423 146.59 198.147 145.825C197.275 145.534 196.579 145.285 196.07 145.087L195.302 144.807Z" fill="#FAFAFA"/>
<path d="M184.76 143.704L185.02 143.538C185.256 143.376 185.502 143.231 185.757 143.102C186.688 142.605 187.69 142.255 188.727 142.063C190.255 141.787 191.815 141.727 193.359 141.886C195.114 142.053 197.015 142.447 199.019 142.821C202.439 143.505 205.951 143.603 209.404 143.112C212.063 142.738 213.662 142.333 213.662 142.333L212.52 142.541C211.793 142.676 210.723 142.863 209.404 143.029C205.95 143.509 202.439 143.404 199.019 142.717C197.015 142.343 195.104 141.949 193.338 141.783C191.777 141.609 190.198 141.669 188.655 141.959C187.615 142.143 186.612 142.494 185.685 142.998C185.358 143.208 185.049 143.444 184.76 143.704Z" fill="#FAFAFA"/>
<path d="M178.218 149.16C179.045 148.013 180.003 146.966 181.074 146.043C182.256 145.078 183.614 144.351 185.072 143.903C186.858 143.357 188.746 143.236 190.587 143.549C192.431 143.917 194.191 144.622 195.78 145.627C197.275 146.5 198.625 147.352 199.84 147.923C200.785 148.413 201.796 148.763 202.841 148.962C203.122 149.013 203.407 149.041 203.693 149.046C203.89 149.046 203.994 149.046 203.994 149.046C202.606 148.765 201.264 148.293 200.006 147.643C198.843 147.04 197.535 146.168 196.029 145.264C194.41 144.2 192.601 143.459 190.701 143.082C188.959 142.775 187.171 142.86 185.467 143.331C183.762 143.802 182.183 144.647 180.846 145.804C180.05 146.504 179.351 147.308 178.769 148.194C178.54 148.487 178.354 148.813 178.218 149.16Z" fill="#263238"/>
<path d="M192.643 143.862C194.647 144.727 196.797 145.206 198.978 145.274C201.147 145.521 203.343 145.352 205.448 144.776C205.448 144.62 202.551 144.994 199.02 144.776C195.489 144.557 192.685 143.706 192.643 143.862Z" fill="#263238"/>
<path d="M197.783 140.671L198.946 140.172C199.725 139.85 200.857 139.383 202.342 138.842C206.529 137.264 210.937 136.349 215.406 136.131C218.487 136.026 221.563 136.426 224.514 137.315C227.923 138.319 231.036 140.142 233.58 142.624C236.281 145.211 238.544 148.484 241.65 151.154C243.222 152.53 245.092 153.523 247.112 154.053C249.219 154.506 251.409 154.377 253.447 153.679C255.478 152.991 257.365 151.934 259.014 150.562C260.603 149.223 262.035 147.706 263.282 146.042C265.774 142.811 267.758 139.403 270.032 136.421C272.132 133.569 274.542 130.959 277.219 128.639C279.557 126.619 282.199 124.981 285.049 123.787C289.185 122.02 293.763 121.563 298.166 122.478C299.351 122.745 300.506 123.131 301.613 123.631L302.756 124.203L301.624 123.611C300.518 123.101 299.363 122.708 298.176 122.437C293.762 121.508 289.171 121.954 285.018 123.715C282.158 124.905 279.507 126.547 277.167 128.577C274.455 130.889 272.016 133.503 269.897 136.369C267.623 139.341 265.639 142.759 263.147 145.98C261.904 147.634 260.479 149.144 258.899 150.479C257.26 151.854 255.38 152.911 253.354 153.596C251.348 154.281 249.195 154.41 247.123 153.97C245.121 153.443 243.268 152.458 241.712 151.092C238.596 148.443 236.353 145.17 233.632 142.572C231.08 140.082 227.956 138.255 224.535 137.253C221.567 136.359 218.472 135.962 215.375 136.079C210.914 136.289 206.512 137.197 202.331 138.77C199.361 139.902 197.783 140.671 197.783 140.671Z" fill="#FAFAFA"/>
<path d="M248.743 143.704C249.29 143.752 249.842 143.731 250.384 143.642C251.878 143.389 253.297 142.807 254.538 141.938C256.34 140.627 257.897 139.009 259.139 137.159C260.631 134.895 262.24 132.71 263.957 130.613C267.192 126.886 271.086 123.786 275.443 121.47C276.766 120.774 278.125 120.15 279.514 119.6L281.01 119.028C281.01 119.028 280.449 119.205 279.452 119.569C278.057 120.107 276.695 120.724 275.371 121.418C270.99 123.717 267.076 126.814 263.833 130.551C262.113 132.65 260.505 134.839 259.014 137.107C257.784 138.953 256.241 140.57 254.455 141.886C253.236 142.75 251.843 143.339 250.374 143.611C249.975 143.671 249.572 143.706 249.169 143.715L248.743 143.704Z" fill="#FAFAFA"/>
<path d="M200.93 134.927C201.04 134.874 201.148 134.815 201.252 134.75C201.449 134.636 201.75 134.449 202.145 134.241C203.255 133.621 204.403 133.073 205.583 132.6C209.478 131.014 213.662 130.263 217.865 130.393C222.069 130.524 226.198 131.534 229.988 133.358C231.133 133.904 232.243 134.522 233.311 135.207C233.695 135.446 233.975 135.654 234.183 135.779L234.484 135.976C234.484 135.976 234.09 135.675 233.342 135.176C232.276 134.478 231.166 133.85 230.019 133.296C226.227 131.442 222.086 130.415 217.868 130.282C213.65 130.15 209.452 130.915 205.551 132.527C204.372 133.006 203.227 133.565 202.124 134.2C201.345 134.615 200.93 134.927 200.93 134.927Z" fill="#FAFAFA"/>
<path d="M222.044 139.561C222.044 139.561 222.095 139.415 222.168 139.145C222.241 138.875 222.366 138.501 222.511 138.033C222.92 136.818 223.409 135.631 223.975 134.48C224.55 133.333 225.206 132.229 225.938 131.176C226.218 130.771 226.447 130.449 226.613 130.231C226.779 130.012 226.862 129.888 226.862 129.888C226.51 130.284 226.18 130.7 225.876 131.134C224.372 133.23 223.211 135.552 222.438 138.013C222.277 138.521 222.145 139.037 222.044 139.561Z" fill="#FAFAFA"/>
<path d="M211.014 129.908C211.014 129.908 210.952 130.48 210.931 131.425C210.921 132.645 211.004 133.865 211.18 135.072C211.353 136.282 211.617 137.476 211.97 138.646C212.25 139.54 212.479 140.07 212.479 140.07C212.479 140.07 212.479 139.934 212.364 139.685C212.25 139.436 212.146 138.968 212.042 138.646C211.718 137.471 211.465 136.278 211.284 135.072C211.113 133.871 211.023 132.659 211.014 131.446C211.014 131.072 211.014 130.708 211.014 130.334C211.014 129.96 211.014 129.908 211.014 129.908Z" fill="#FAFAFA"/>
<path d="M234.9 147.53C235.319 147.296 235.724 147.039 236.115 146.761C237.059 146.089 237.945 145.338 238.763 144.517C239.592 143.707 240.35 142.828 241.027 141.888C241.304 141.493 241.561 141.084 241.796 140.662C241.796 140.662 241.702 140.776 241.567 140.984C241.432 141.192 241.224 141.483 240.965 141.847C240.29 142.78 239.544 143.658 238.732 144.475C237.918 145.295 237.043 146.052 236.115 146.74L235.253 147.343L234.9 147.53Z" fill="#FAFAFA"/>
<path d="M250.966 144.297C251.072 143.957 251.156 143.61 251.215 143.258C251.359 142.376 251.404 141.48 251.35 140.588C251.298 139.694 251.145 138.809 250.893 137.949C250.791 137.594 250.662 137.247 250.509 136.91C250.531 137.009 250.559 137.106 250.592 137.201C250.655 137.378 250.727 137.637 250.821 137.97C251.049 138.83 251.191 139.71 251.247 140.599C251.298 141.483 251.263 142.37 251.143 143.248C251.091 143.591 251.049 143.861 251.008 144.048C250.987 144.13 250.973 144.213 250.966 144.297Z" fill="#FAFAFA"/>
<path d="M251.018 157.764C251.304 157.217 251.561 156.655 251.786 156.08C252.334 154.689 252.761 153.254 253.064 151.789C253.358 150.325 253.518 148.836 253.541 147.343C253.552 146.725 253.531 146.108 253.479 145.493V146.044C253.479 146.356 253.479 146.823 253.479 147.395C253.423 148.881 253.249 150.361 252.96 151.821C252.668 153.279 252.254 154.711 251.724 156.101C251.516 156.631 251.34 157.057 251.215 157.348L251.018 157.764Z" fill="#FAFAFA"/>
<path d="M238.815 136.12C238.767 136.393 238.704 136.663 238.629 136.93C238.462 137.356 238.213 137.647 238.244 137.668C238.47 137.485 238.636 137.239 238.722 136.961C238.84 136.697 238.872 136.403 238.815 136.12Z" fill="#FAFAFA"/>
<path d="M259.087 132.235L259.762 132.609C260.198 132.838 260.801 133.191 261.58 133.648C265.537 136.052 269.007 139.178 271.809 142.864C272.339 143.571 272.754 144.163 273.024 144.568C273.294 144.973 273.471 145.202 273.471 145.202C272.977 144.381 272.439 143.587 271.861 142.823C269.096 139.093 265.615 135.953 261.621 133.586C260.801 133.091 259.955 132.641 259.087 132.235Z" fill="#FAFAFA"/>
<path d="M271.58 121.814L272.224 121.97C272.65 122.064 273.263 122.22 273.99 122.417C275.918 122.959 277.8 123.654 279.618 124.495C281.426 125.333 283.162 126.316 284.811 127.435C285.444 127.872 285.953 128.235 286.296 128.474L286.836 128.859C286.836 128.859 286.119 128.235 284.852 127.352C283.21 126.211 281.473 125.213 279.66 124.37C277.834 123.522 275.941 122.827 274 122.292C272.525 121.96 271.58 121.814 271.58 121.814Z" fill="#FAFAFA"/>
<path d="M186.827 140.12C186.834 140.338 186.869 140.555 186.931 140.764C186.963 140.979 187.034 141.186 187.139 141.377C187.138 141.158 187.103 140.941 187.035 140.733C187.003 140.518 186.932 140.31 186.827 140.12Z" fill="#FAFAFA"/>
<path d="M139.668 139.653C139.668 139.653 134.974 140.63 132.98 141.066C132.326 141.212 131.662 141.066 131.007 141.222C128.131 141.693 125.193 141.641 122.336 141.066C120.352 140.339 120.259 142.874 122.408 143.965C123.484 144.563 124.653 144.974 125.867 145.181L120.674 149.337C120.407 149.553 120.23 149.86 120.176 150.199L118.857 159.342C118.778 159.718 118.841 160.11 119.032 160.444C119.224 160.777 119.531 161.028 119.895 161.15C119.986 161.196 120.086 161.223 120.188 161.23C120.29 161.238 120.392 161.224 120.488 161.191C120.585 161.158 120.674 161.107 120.751 161.039C120.827 160.971 120.889 160.889 120.934 160.797L120.788 162.023C120.717 162.444 120.815 162.877 121.063 163.226C121.31 163.575 121.686 163.811 122.107 163.883C122.529 163.954 122.961 163.855 123.31 163.608C123.658 163.36 123.894 162.985 123.966 162.563C123.971 162.536 123.971 162.507 123.966 162.48L125.783 163.519C125.783 163.519 126.988 164.766 128.286 163.031C129.325 161.597 132.575 155.903 132.575 155.903C132.575 155.903 146.263 150.137 146.076 147.83L139.668 139.653Z" fill="#FFBE9D"/>
<path d="M123.924 162.553C124.107 161.826 124.232 161.086 124.298 160.34C124.506 158.989 124.901 157.088 125.171 155.01C125.358 153.971 125.596 152.984 125.825 152.163C125.963 151.801 126.224 151.5 126.562 151.311L127.518 150.709C128.176 150.345 128.789 149.905 129.345 149.399C128.613 149.631 127.914 149.96 127.268 150.376L126.282 150.927C125.844 151.147 125.498 151.515 125.306 151.966C125.007 152.93 124.768 153.912 124.589 154.906C124.309 156.984 123.987 158.885 123.862 160.278C123.766 161.035 123.787 161.802 123.924 162.553Z" fill="#EB996E"/>
<path d="M120.892 160.786C121.11 160.786 121.453 157.503 122.294 153.513C122.394 152.601 122.692 151.722 123.166 150.937C123.689 150.371 124.251 149.843 124.849 149.357C125.244 149.024 125.668 148.725 126.116 148.464C126.437 148.287 126.635 148.246 126.635 148.204C126.635 148.162 126.406 148.142 126.032 148.266C125.528 148.464 125.053 148.73 124.62 149.056C123.967 149.513 123.358 150.032 122.803 150.604C122.232 151.436 121.875 152.396 121.764 153.399C121.39 155.111 121.13 156.847 120.985 158.594C120.877 159.319 120.845 160.054 120.892 160.786Z" fill="#EB996E"/>
<path d="M132.087 152.131C131.453 152.322 130.851 152.605 130.301 152.972L129.428 153.45C129.035 153.617 128.681 153.865 128.39 154.178C128.106 154.53 127.907 154.942 127.808 155.383C127.684 155.809 127.549 156.245 127.403 156.682C126.66 158.808 126.087 160.99 125.69 163.206C126.602 161.153 127.348 159.03 127.922 156.858L128.307 155.56C128.386 155.184 128.545 154.829 128.774 154.521C129.007 154.254 129.289 154.035 129.605 153.876L130.436 153.336C131.042 153.017 131.598 152.611 132.087 152.131Z" fill="#EB996E"/>
<path d="M131.724 142.251C131.661 142.043 129.719 142.802 127.57 144.059C125.42 145.316 123.8 146.625 123.914 146.76C124.028 146.895 125.669 145.721 127.84 144.526L130.592 142.926C130.993 142.744 131.373 142.518 131.724 142.251Z" fill="#EB996E"/>
</svg>
