<?xml version="1.0" encoding="utf-8"?>
<!-- Generator: Adobe Illustrator 24.0.1, SVG Export Plug-In . SVG Version: 6.00 Build 0)  -->
<svg version="1.1" id="Слой_1" xmlns="http://www.w3.org/2000/svg" xmlns:xlink="http://www.w3.org/1999/xlink" x="0px" y="0px"
	 viewBox="0 0 407 436" style="enable-background:new 0 0 407 436;" xml:space="preserve">
<style type="text/css">
	.st0{fill:#263238;}
	.st1{fill:#455A64;}
	.st2{fill:#066FA4;}
	.st3{opacity:0.2;}
</style>
<path class="st0" d="M373.9,377.5h-66.3v9.1h66.3L373.9,377.5L373.9,377.5z"/>
<path class="st0" d="M307.5,377.4H374v9.3h-66.5V377.4z M373.8,377.6h-66.1v8.9h66.1V377.6z"/>
<path class="st0" d="M367.8,383.6l-9.6,47.1h-35.3l-9.2-44.1L367.8,383.6z"/>
<path class="st1" d="M367.8,426.2l-5.1,7h-42.9l-6.1-7H367.8z"/>
<path class="st0" d="M343.3,384.9c0.1,0,0.3-21.8,0.4-48.8c0.1-26.9,0-48.7-0.1-48.7s-0.3,21.8-0.4,48.7
	C343.1,363.1,343.1,384.9,343.3,384.9z"/>
<path class="st0" d="M328.5,330.3c0,0.2,0.1,0.3,0.2,0.5l0.6,1.4l0.4,1c0.1,0.4,0.3,0.8,0.4,1.2c0.2,0.4,0.3,1,0.5,1.4
	c0.2,0.5,0.3,1.1,0.5,1.6c0.8,2.7,1.4,5.4,1.9,8.1c0.5,3.4,0.9,6.8,1,10.2c0.2,6.2,0.1,12.4-0.5,18.6c-0.2,2.4-0.4,4.3-0.6,5.6
	c-0.1,0.6-0.1,1.1-0.2,1.5c0,0.2,0,0.4,0,0.5c0.1-0.2,0.1-0.3,0.1-0.5l0.3-1.5c0.2-1.3,0.5-3.2,0.7-5.6c0.7-6.2,0.9-12.4,0.7-18.6
	c-0.2-3.4-0.5-6.8-1.1-10.2c-0.5-2.8-1.1-5.5-1.9-8.2c-0.2-0.6-0.3-1.1-0.5-1.6s-0.4-1-0.5-1.4l-0.5-1.2c-0.2-0.4-0.3-0.7-0.5-1
	c-0.3-0.6-0.5-1-0.7-1.4C328.8,330.6,328.7,330.5,328.5,330.3z"/>
<path class="st0" d="M330.2,312.7c0.1,0.2,0.1,0.5,0.2,0.7l0.7,2l0.5,1.5c0.2,0.5,0.3,1.1,0.5,1.8c0.4,1.3,0.8,2.7,1.2,4.3l0.7,2.5
	c0.2,0.9,0.4,1.8,0.6,2.8c0.5,1.9,0.8,4,1.2,6.1c0.7,4.3,1.4,9.1,1.8,14.2c0.5,5.1,0.6,9.9,0.7,14.3s0,8.4-0.2,11.7
	c-0.1,1.7-0.2,3.2-0.3,4.5c-0.1,1.3-0.2,2.4-0.2,3.4s-0.1,1.6-0.2,2.1c0,0.3,0,0.5,0,0.8c0.1-0.2,0.1-0.5,0.1-0.7
	c0.1-0.5,0.1-1.2,0.3-2.1c0.1-0.9,0.2-2.1,0.3-3.4c0.1-1.3,0.2-2.8,0.3-4.5c0.2-3.3,0.3-7.3,0.3-11.7c0-4.4-0.2-9.3-0.6-14.3
	c-0.4-5.1-1.1-9.9-1.9-14.2c-0.4-2.2-0.8-4.2-1.3-6.1c-0.2-1-0.4-1.9-0.6-2.8l-0.7-2.5c-0.4-1.6-0.9-3-1.3-4.3
	c-0.2-0.6-0.4-1.2-0.6-1.8c-0.2-0.5-0.4-1-0.5-1.4l-0.8-2C330.4,313.1,330.3,312.9,330.2,312.7z"/>
<path class="st0" d="M347.5,388.8c0-0.1,0-0.2,0-0.3c0-0.2,0-0.4,0.1-0.8c0-0.7,0.1-1.7,0.2-2.9c0.2-2.6,0.4-6.2,0.7-10.6
	c0.6-9,1.4-21.4,2.9-35c0.8-6.8,1.7-13.3,2.6-19.2c0.5-2.9,1-5.7,1.5-8.3c0.5-2.6,1-5,1.4-7.2c0.5-2.2,0.9-4.2,1.3-5.9
	s0.8-3.2,1.1-4.5c0.3-1.2,0.5-2.1,0.7-2.8c0.1-0.3,0.1-0.5,0.2-0.7c0-0.1,0-0.2,0-0.3c0,0.1-0.1,0.2-0.1,0.2c0,0.2-0.1,0.4-0.2,0.7
	c-0.2,0.7-0.4,1.6-0.8,2.8c-0.3,1.2-0.7,2.7-1.1,4.4c-0.4,1.7-1,3.7-1.4,5.9c-0.4,2.2-1,4.6-1.5,7.2s-1,5.4-1.5,8.3
	c-1,5.9-1.9,12.4-2.6,19.2c-1.5,13.7-2.3,26-2.8,35c-0.3,4.5-0.4,8.1-0.5,10.6c0,1.2-0.1,2.2-0.1,2.9v0.8
	C347.4,388.6,347.4,388.7,347.5,388.8z"/>
<path class="st2" d="M343.8,297.9c0.3-3.1,3.4-5.4,6.5-5.5c1.6,0.1,3.1,0.5,4.4,1.2c1.4,0.7,2.5,1.8,3.5,3.1
	c1.8,2.6,3.1,5.4,3.8,8.4c2.1,7.3,3.2,14.9,2.3,22.5c-0.9,7.5-3.9,14.9-9.3,20.2c-0.9,0.9-2,1.7-3.2,1.5c-0.6-0.2-1.2-0.6-1.7-1.1
	c-5.3-4.8-9.5-10.8-12.3-17.4s-4.2-13.7-4-20.9c0.1-2.9,0.5-5.8,2-8.2C337.4,299.5,341.1,297,343.8,297.9z"/>
<path class="st2" d="M367,273.2l4.4,7.9c0.1,0.2,0.2,0.4,0.5,0.4c0.2,0,0.4-0.2,0.5-0.4l11.6-17.8l-2.7-1.5L367,273.2z"/>
<g class="st3">
	<path d="M367,273.2l4.4,7.9c0.1,0.2,0.2,0.4,0.5,0.4c0.2,0,0.4-0.2,0.5-0.4l11.6-17.8l-2.7-1.5L367,273.2z"/>
</g>
<path class="st2" d="M343.5,287.4l39.4-23.3c0.4-0.2,0.8-0.5,1-1c0.2-0.6-0.3-1.1-0.7-1.6c-2.7-2.8-6-5-9.6-6.4s-7.5-2.1-11.4-1.8
	s-7.7,1.5-11,3.6c-3.3,2.1-6.1,4.9-8.1,8.3C339.3,272,339.2,281,343.5,287.4"/>
<path class="st0" d="M377.3,256.7c-0.2,0-0.3-0.1-0.5-0.1c-0.3,0-0.8-0.1-1.5-0.1c-1.8,0-3.7,0.1-5.5,0.4c-2.7,0.5-5.3,1.3-7.8,2.4
	c-6.2,2.7-11.3,7.4-14.6,13.2c-1.4,2.4-2.4,4.9-3.1,7.5c-0.5,1.8-0.8,3.6-1,5.4c-0.1,0.6,0,0.8-0.1,1.2c0,0.3,0.1,0.6,0.3,0.9
	c-0.1-0.7-0.1-1.3-0.1-2c0.2-1.8,0.6-3.6,1.1-5.3c1.7-5.8,4.9-11,9.4-15.1c4.5-4,10-6.8,15.9-7.8c1.8-0.3,3.6-0.5,5.4-0.6
	C376.6,256.8,377.3,256.8,377.3,256.7z"/>
<path class="st0" d="M348.9,271.4c0.6,0.4,1.3,0.7,2,0.9c1.3,0.5,3,1.1,5,1.7s3.8,1.1,5.1,1.4c0.7,0.2,1.4,0.4,2.1,0.4
	c-0.7-0.3-1.3-0.6-2.1-0.7l-5-1.6l-5-1.6C350.3,271.7,349.6,271.5,348.9,271.4z"/>
<path class="st0" d="M355.1,254.7c-0.3,1.4-0.5,2.9-0.5,4.4c-0.1,1.5,0,3,0.3,4.4c0.2-1.5,0.3-2.9,0.2-4.4
	C355.2,257.6,355.2,256.2,355.1,254.7z"/>
<path class="st0" d="M383.3,263.7c-0.9-0.4-1.9-0.7-2.9-1c-1.8-0.5-4.3-1.3-7.1-1.9c-2.8-0.7-5.3-1.2-7.2-1.5c-1-0.2-2-0.4-3-0.4
	c1,0.3,2,0.6,2.9,0.7c1.8,0.4,4.3,1,7.1,1.6c2.8,0.7,5.3,1.3,7.1,1.8C381.3,263.4,382.3,263.6,383.3,263.7z"/>
<path class="st2" d="M360.2,291.2c3.4-2.6,7-3.1,11.2-2.9c4.3,0.3,8.4,1.4,12.3,3.2c6.6,2.9,12.9,7.2,16.9,13.3
	c4,6.1,5.3,14.1,2.4,20.8c-0.2,0.7-0.7,1.3-1.4,1.6c-0.7,0.2-1.5,0.1-2.2-0.2c-7.6-2.5-15.2-5-22.2-8.8s-13.3-9.2-17-16.3
	c-1-1.7-1.6-3.5-1.8-5.4c-0.1-1,0-1.9,0.3-2.8C359,292.8,359.5,292,360.2,291.2"/>
<path class="st0" d="M360.1,290.4c0.2,0.1,0.4,0.2,0.5,0.2l1.6,0.5l1.1,0.4c0.4,0.1,0.9,0.3,1.3,0.5c1,0.4,2.1,0.8,3.2,1.3l1.9,0.8
	c0.6,0.3,1.3,0.7,1.9,1c1.4,0.7,2.8,1.5,4.2,2.4c6.3,3.9,12,8.9,16.7,14.7c1.1,1.4,2.1,2.6,2.9,3.9c0.4,0.6,0.9,1.2,1.2,1.8l1.1,1.8
	c0.7,1.1,1.2,2.1,1.7,3c0.2,0.5,0.5,0.9,0.7,1.3l0.5,1.1c0.3,0.6,0.5,1.1,0.7,1.5c0.1,0.2,0.2,0.4,0.3,0.5c-0.1-0.2-0.1-0.4-0.2-0.6
	l-0.7-1.5c-0.2-0.3-0.3-0.7-0.5-1.1s-0.4-0.8-0.7-1.3c-0.5-0.9-1-2-1.7-3.1l-1.1-1.8c-0.4-0.6-0.8-1.2-1.2-1.8
	c-0.8-1.3-1.9-2.6-2.9-4c-2.4-2.9-4.9-5.6-7.7-8.1c-2.8-2.5-5.9-4.7-9-6.7c-1.5-0.9-2.9-1.7-4.3-2.4c-0.7-0.3-1.3-0.7-2-1l-1.9-0.8
	c-1.2-0.6-2.3-0.9-3.3-1.3c-0.5-0.2-1-0.3-1.4-0.5l-1.2-0.3l-1.6-0.5C360.5,290.5,360.3,290.5,360.1,290.4z"/>
<path class="st0" d="M386.6,304.8c2.7,1,5.5,1.9,8.2,2.7c2.8,0.9,5.5,1.6,8.4,2.2c-2.7-1-5.5-1.9-8.2-2.7
	C392.2,306.1,389.4,305.4,386.6,304.8z"/>
<path class="st0" d="M386.9,323c0.1-0.8,0.2-1.7,0.2-2.6c0-1.6,0-3.8,0-6.2c0-2.4-0.2-4.6-0.3-6.2c0-0.9-0.1-1.7-0.3-2.6
	c-0.1,0.9-0.1,1.7,0,2.6c0.1,1.7,0.1,3.9,0.2,6.2s0.1,4.5,0.2,6.2C386.8,321.3,386.8,322.1,386.9,323z"/>
<path class="st0" d="M371.3,315.1c0.1,0,0.5-4.5,1-10c0.4-5.5,0.6-10,0.5-10s-0.5,4.5-1,10C371.4,310.6,371.2,315.1,371.3,315.1z"/>
<path class="st0" d="M390.8,294.6c-0.9-0.1-1.8-0.1-2.6-0.1c-1.6,0-3.9,0.1-6.4,0.1c-2.5,0.1-4.7,0.2-6.4,0.3
	c-0.9,0-1.8,0.1-2.6,0.3c0.9,0.1,1.8,0.1,2.6,0.1c1.6,0,3.9-0.1,6.4-0.1c2.5-0.1,4.7-0.2,6.4-0.3C389,294.9,389.9,294.8,390.8,294.6
	z"/>
<path class="st0" d="M353.3,349c0-0.2,0.1-0.4,0.1-0.5c0-0.4,0-0.9,0.1-1.5c0.1-1.3,0.1-3.2,0-5.6s-0.2-5.2-0.5-8.3
	c-0.3-3.1-0.8-6.5-1.4-10.1c-0.6-3.5-1.4-6.9-2.2-9.9c-0.8-3-1.7-5.7-2.5-7.9c-0.8-2.2-1.5-4-2-5.2l-0.6-1.4
	c-0.1-0.2-0.1-0.3-0.2-0.5c0,0.2,0.1,0.3,0.2,0.5c0.1,0.4,0.3,0.8,0.5,1.4c0.5,1.2,1.1,3,1.9,5.3c0.7,2.2,1.6,4.9,2.4,7.9
	s1.6,6.4,2.2,9.9s1.1,6.9,1.4,10s0.5,5.9,0.6,8.2c0.1,2.3,0.1,4.3,0.1,5.6c0,0.6,0,1.1,0,1.5C353.2,348.6,353.3,348.8,353.3,349z"/>
<path class="st0" d="M351.2,323.1c0.5,0.6,1,1.2,1.6,1.7c1,1,2.5,2.4,4.1,3.9s3.2,2.7,4.3,3.6c0.6,0.5,1.2,1,1.9,1.3
	c-0.5-0.6-1.1-1.1-1.7-1.6l-4.2-3.7l-4.2-3.7C352.5,324.1,351.9,323.6,351.2,323.1z"/>
<path class="st0" d="M338.8,333.2c0.6-0.7,1.2-1.5,1.7-2.3l3.9-5.7l4-5.6c0.6-0.7,1.1-1.5,1.6-2.4c-0.7,0.7-1.3,1.4-1.9,2.2
	c-1.1,1.4-2.6,3.3-4.1,5.6c-1.5,2.2-2.9,4.3-3.8,5.8C339.6,331.5,339.1,332.3,338.8,333.2z"/>
<path class="st0" d="M345.3,301.6c-0.1,0.1,4.1,2.9,9.3,6.2c5.2,3.3,9.4,5.9,9.5,5.8s-4.1-2.9-9.3-6.2
	C349.6,304,345.4,301.5,345.3,301.6z"/>
<path class="st0" d="M333.6,314.2c2.2-1.8,4.3-3.7,6.3-5.8c2.1-1.9,4.1-4,5.9-6.1c-2.2,1.8-4.3,3.7-6.3,5.8
	C337.5,310,335.5,312,333.6,314.2z"/>
<path class="st2" d="M330.7,313.9l-3.6-0.3c-2.5-0.2-5-1-7.2-2.2c-1.1-0.6-2.2-1.2-3.4-1.7c-4.4-1.8-9.3-1.4-14-1.7
	c-7.8-0.4-15.4-2.3-22.3-5.7c-0.4-0.2-0.7-0.5-1-0.9c-0.7-1.3,0.6-2.5,1.8-3.2c6-3.7,12.1-7.4,18.9-9.3s14.5-1.5,20.3,2.5
	C327,296.1,329.5,305.8,330.7,313.9"/>
<path class="st0" d="M279.1,301c0.2-0.1,0.4-0.2,0.6-0.3l1.7-0.9c1.5-0.8,3.6-1.9,6.2-3.2c3.1-1.5,6.3-2.8,9.6-3.7
	c4.1-1.2,8.3-1.5,12.5-1s8.2,2.2,11.4,4.9c2.5,2.3,4.5,5.2,5.9,8.3c1,2.1,1.8,4.3,2.6,6.5c0.3,0.8,0.5,1.3,0.6,1.8
	c0.1,0.2,0.1,0.4,0.2,0.6c0-0.2-0.1-0.4-0.2-0.6c-0.1-0.5-0.3-1.1-0.5-1.8c-0.7-2.2-1.5-4.4-2.5-6.6c-1.4-3.2-3.4-6.1-5.9-8.5
	c-3.3-2.8-7.3-4.6-11.6-5c-4.3-0.5-8.6-0.1-12.7,1.1c-3.3,1-6.6,2.3-9.6,3.9c-2.7,1.3-4.7,2.5-6.2,3.3l-1.6,1
	C279.5,300.8,279.3,300.9,279.1,301z"/>
<path class="st0" d="M287.7,305.6c0.1,0.1,4.7-2.9,10.4-6.7c5.7-3.9,10.2-7,10.1-7.1s-4.7,2.9-10.4,6.7
	C292.1,302.4,287.6,305.5,287.7,305.6z"/>
<path class="st0" d="M292.6,291.5c2.2,0.6,4.5,0.8,6.8,0.6c-1.1-0.2-2.3-0.3-3.4-0.4S293.8,291.5,292.6,291.5z"/>
<path class="st0" d="M313,288.9c0.4,0.9,0.9,1.7,1.5,2.4c0.5,0.8,1.2,1.6,1.9,2.2c-0.4-0.9-0.9-1.7-1.5-2.4
	C314.4,290.3,313.8,289.5,313,288.9z"/>
<path class="st0" d="M308.9,308.4c0.8-0.3,1.5-0.7,2.2-1.2c1.3-0.8,3.2-2,5.1-3.4s3.7-2.7,4.9-3.7c0.7-0.5,1.3-1,1.9-1.7
	c-0.8,0.4-1.5,0.9-2.1,1.4c-1.4,1-3.1,2.2-5,3.6s-3.7,2.6-5,3.5C310.2,307.3,309.5,307.8,308.9,308.4z"/>
<path class="st2" d="M325.4,329.1c3.4-0.9,7.4,2.4,8.1,5.8s-0.6,7-2.1,10.1c-3.2,7.1-8,13.4-14,18.4c-6.1,5-13.6,7.8-21.5,7.9
	c1.4-6.7-0.4-13.6,0.4-20.4c0.7-6,3.4-11.5,7.7-15.7c4.3-4.2,9.8-6.9,15.8-7.5C322,327.4,324.5,327.1,325.4,329.1"/>
<path class="st0" d="M296,371.3c0.2-0.1,0.3-0.1,0.5-0.2c0.4-0.3,0.9-0.5,1.3-0.9c1.4-1.2,2.6-2.8,3.3-4.5c0.5-1.1,1.1-2.2,1.7-3.5
	s1.2-2.6,1.8-4c0.7-1.5,1.4-2.9,2.2-4.3c0.9-1.5,1.9-2.9,3.1-4.2c2.3-2.7,4.8-5.1,7-7.4c2-2,3.7-4.1,5.3-6.4c1.1-1.5,1.9-3.2,2.6-5
	c0.2-0.6,0.4-1.1,0.5-1.5c0.1-0.2,0.1-0.3,0.1-0.5c0,0-0.2,0.7-0.7,1.9c-0.7,1.7-1.6,3.3-2.7,4.8c-1.6,2.2-3.4,4.3-5.4,6.3
	c-2.2,2.2-4.7,4.6-7,7.3c-1.2,1.3-2.2,2.8-3.1,4.3c-0.8,1.4-1.6,2.9-2.2,4.4l-1.8,4c-0.6,1.3-1.2,2.4-1.7,3.5
	c-0.7,1.7-1.8,3.2-3.2,4.5C296.6,371,295.9,371.3,296,371.3z"/>
<path class="st0" d="M313.5,365.8c0-0.8-0.1-1.5-0.3-2.3c-0.3-1.4-0.7-3.3-1.3-5.4c-0.6-2.1-1.2-4-1.7-5.3c-0.2-0.7-0.6-1.4-1-2.1
	c0.1,0.8,0.3,1.5,0.6,2.2c0.4,1.4,1,3.2,1.6,5.3c0.6,2.1,1.1,4,1.4,5.4C313,364.3,313.2,365.1,313.5,365.8z"/>
<path class="st0" d="M296.6,349.4c0.8-0.1,1.6-0.3,2.4-0.5c1.5-0.4,3.5-0.9,5.7-1.4s4.3-0.9,5.8-1.2c0.8-0.1,1.6-0.3,2.4-0.5
	c-0.8,0-1.6,0.1-2.4,0.2c-1.5,0.2-3.6,0.5-5.8,1.1c-2.3,0.5-4.3,1.1-5.7,1.6C298.1,348.8,297.3,349,296.6,349.4z"/>
<path class="st0" d="M326.1,354.2c0-0.9-0.2-1.8-0.4-2.7c-0.3-1.6-0.8-3.9-1.4-6.3s-1.3-4.6-1.8-6.2c-0.2-0.9-0.6-1.7-1-2.5
	c0.1,0.9,0.4,1.7,0.7,2.6c0.4,1.6,1.1,3.8,1.7,6.2c0.6,2.4,1.2,4.6,1.5,6.2C325.6,352.5,325.8,353.3,326.1,354.2z"/>
<path class="st0" d="M304.4,335.2c0,0.1,4.3-0.2,9.5-0.8c3.2-0.3,6.3-0.7,9.4-1.2c0-0.1-4.3,0.2-9.5,0.8
	C310.7,334.2,307.5,334.6,304.4,335.2z"/>
<path class="st1" d="M307.5,386.6c0,0.1,14.9,0.2,33.3,0.2s33.3-0.1,33.3-0.2s-14.9-0.2-33.3-0.2
	C322.4,386.3,307.5,386.4,307.5,386.6z"/>
<path class="st1" d="M317.9,405.7c0,0.1,10,0.2,22.4,0.2s22.4-0.1,22.4-0.2s-10-0.2-22.4-0.2S317.9,405.6,317.9,405.7z"/>
<path class="st1" d="M318.3,408.5c0,0.1,9.9,0.2,22,0.2c12.2,0,22-0.1,22-0.2s-9.9-0.2-22-0.2C328.1,408.3,318.3,408.4,318.3,408.5z
	"/>
<path class="st1" d="M317.5,403.5c0,0.1,10.4,0.2,23.2,0.2c12.8,0,23.2-0.1,23.2-0.2s-10.4-0.2-23.2-0.2
	C327.8,403.2,317.5,403.4,317.5,403.5z"/>
</svg>
