<?xml version="1.0" encoding="utf-8"?>
<!-- Generator: Adobe Illustrator 24.0.1, SVG Export Plug-In . SVG Version: 6.00 Build 0)  -->
<svg version="1.1" id="Слой_1" xmlns="http://www.w3.org/2000/svg" xmlns:xlink="http://www.w3.org/1999/xlink" x="0px" y="0px"
	 viewBox="0 0 406 432" style="enable-background:new 0 0 406 432;" xml:space="preserve">
<style type="text/css">
	.st0{fill:#F5F5F5;}
	.st1{fill:#E0E0E0;}
	.st2{fill:#EBEBEB;}
	.st3{fill:#FFFFFF;}
	.st4{fill:#FAFAFA;}
</style>
<path class="st0" d="M156.4,313.8H0v72.2h156.4V313.8z"/>
<path class="st1" d="M152.7,382.5H3.6v-65h149.1V382.5z M4.6,381.6h147.2v-63H4.6V381.6z"/>
<path class="st1" d="M194.6,313.8h-38.2v72.2h38.2V313.8z"/>
<path class="st1" d="M4.1,337.7h148.1c0,0,0.1,0,0.1-0.1c0,0,0-0.1,0-0.1c0,0,0-0.1,0-0.1c0,0-0.1-0.1-0.1-0.1H4.1
	c0,0-0.1,0-0.1,0.1c0,0,0,0.1,0,0.1c0,0,0,0.1,0,0.1C4,337.6,4,337.7,4.1,337.7z"/>
<path class="st1" d="M78.6,337.5c0.4-6.5,0.4-13.1,0.1-19.6c0-0.1,0-0.1-0.1-0.1c0,0-0.1-0.1-0.1-0.1s-0.1,0-0.1,0.1
	c0,0-0.1,0.1-0.1,0.1c-0.4,6.5-0.4,13.1,0.1,19.6c0,0,0,0.1,0,0.1c0,0,0.1,0,0.1,0c0,0,0.1,0,0.1,0S78.6,337.5,78.6,337.5z"/>
<path class="st1" d="M118.5,327.7c0,0.4-0.1,0.8-0.3,1.1c-0.2,0.3-0.5,0.6-0.9,0.7c-0.4,0.2-0.8,0.2-1.2,0.1c-0.4-0.1-0.7-0.3-1-0.6
	c-0.3-0.3-0.5-0.6-0.5-1c-0.1-0.4,0-0.8,0.1-1.2c0.2-0.4,0.4-0.7,0.7-0.9c0.3-0.2,0.7-0.3,1.1-0.3c0.3,0,0.5,0.1,0.8,0.2
	c0.2,0.1,0.5,0.3,0.7,0.4c0.2,0.2,0.3,0.4,0.4,0.7C118.4,327.1,118.5,327.4,118.5,327.7z"/>
<path class="st1" d="M40.7,327.7c0,0.4-0.1,0.8-0.3,1.1c-0.2,0.3-0.5,0.6-0.9,0.7c-0.4,0.2-0.8,0.2-1.2,0.1c-0.4-0.1-0.7-0.3-1-0.6
	c-0.3-0.3-0.5-0.6-0.5-1c-0.1-0.4,0-0.8,0.1-1.2c0.2-0.4,0.4-0.7,0.7-0.9c0.3-0.2,0.7-0.3,1.1-0.3c0.3,0,0.5,0.1,0.8,0.2
	c0.2,0.1,0.5,0.3,0.7,0.4c0.2,0.2,0.3,0.4,0.4,0.7C40.7,327.1,40.7,327.4,40.7,327.7z"/>
<path class="st1" d="M80.2,350c0,0.4-0.1,0.8-0.3,1.1c-0.2,0.3-0.5,0.6-0.9,0.8s-0.8,0.2-1.2,0.1c-0.4-0.1-0.8-0.3-1-0.6
	c-0.3-0.3-0.5-0.6-0.6-1c-0.1-0.4,0-0.8,0.1-1.2c0.2-0.4,0.4-0.7,0.7-0.9s0.7-0.3,1.1-0.3c0.5,0,1,0.2,1.4,0.6
	C79.9,349,80.2,349.5,80.2,350z"/>
<path class="st1" d="M18.7,385.9l-8.1,45.3h4.5L30,385.9H18.7z"/>
<path class="st1" d="M145.3,385.9l6.7,45.4h-4.5L134,385.9H145.3z"/>
<path class="st1" d="M175.6,385.9l7.6,45.4h-4.5l-14.4-45.4H175.6z"/>
<path class="st1" d="M80,370.5c0,0.4-0.1,0.8-0.3,1.1c-0.2,0.3-0.5,0.6-0.9,0.8c-0.4,0.2-0.8,0.2-1.2,0.1c-0.4-0.1-0.8-0.3-1-0.6
	c-0.3-0.3-0.5-0.6-0.6-1c-0.1-0.4,0-0.8,0.1-1.2c0.2-0.4,0.4-0.7,0.7-0.9s0.7-0.3,1.1-0.3c0.5,0,1,0.2,1.4,0.6
	C79.8,369.4,80,369.9,80,370.5z"/>
<path class="st1" d="M4.1,360h148.1c0,0,0.1,0,0.1-0.1c0,0,0-0.1,0-0.1c0,0,0-0.1,0-0.1c0,0-0.1-0.1-0.1-0.1H4.1c0,0-0.1,0-0.1,0.1
	c0,0,0,0.1,0,0.1c0,0,0,0.1,0,0.1C4,360,4,360,4.1,360z"/>
<path class="st1" d="M109.2,289.3l-0.1-9.6l-47.3,0.2l0.1,9.6L109.2,289.3z"/>
<path class="st0" d="M114.9,313.6l-0.1-15l-52.7,0.3l0.1,15L114.9,313.6z"/>
<path class="st1" d="M104.7,313.5c-0.3-2.5-0.3-5-0.3-7.5c-0.1-2.5,0-5,0.3-7.5c0.2,2.5,0.3,5,0.3,7.5
	C105.1,308.5,105,311,104.7,313.5z"/>
<path class="st1" d="M106.9,313.5c-0.3-2.5-0.3-5-0.3-7.5c-0.1-2.5,0-5,0.3-7.5c0.2,2.5,0.3,5,0.3,7.5
	C107.3,308.5,107.2,311,106.9,313.5z"/>
<path class="st1" d="M70.1,313.5c-0.2-2.5-0.3-5-0.3-7.5c-0.1-2.5,0-5,0.3-7.5c0.3,2.5,0.3,5,0.3,7.5
	C70.4,308.5,70.4,311,70.1,313.5z"/>
<path class="st1" d="M72.3,313.5c-0.3-2.5-0.3-5-0.3-7.5c-0.1-2.5,0-5,0.3-7.5c0.3,2.5,0.3,5,0.3,7.5
	C72.7,308.5,72.6,311,72.3,313.5z"/>
<path class="st1" d="M77.1,306.2c0-0.1,5.3-0.3,11.9-0.3c6.6,0,11.9,0.1,11.9,0.3c0,0.1-5.3,0.3-11.9,0.3
	C82.5,306.5,77.1,306.4,77.1,306.2z"/>
<path class="st2" d="M134.7,298.5l-0.1-9.6l-65,0.3l0.1,9.6L134.7,298.5z"/>
<path class="st1" d="M125.4,297.3c-0.6,0-1.2-0.2-1.7-0.5c-0.5-0.3-0.9-0.8-1.2-1.4c-0.2-0.6-0.3-1.2-0.2-1.8
	c0.1-0.6,0.4-1.2,0.8-1.6c0.4-0.4,1-0.7,1.6-0.9c0.6-0.1,1.2-0.1,1.8,0.2c0.6,0.2,1.1,0.6,1.4,1.1c0.3,0.5,0.5,1.1,0.5,1.7
	c0,0.4-0.1,0.8-0.2,1.2c-0.2,0.4-0.4,0.7-0.7,1c-0.3,0.3-0.6,0.5-1,0.7C126.2,297.2,125.8,297.3,125.4,297.3z"/>
<path class="st1" d="M116.9,295.2v-1.9H73.4v1.9H116.9z"/>
<path class="st1" d="M108.2,3.1H14.8v135.5h93.4V3.1z"/>
<path class="st0" d="M103.6,3.1H10.1v135.5h93.4V3.1z"/>
<path class="st3" d="M91.9,17.8H21.7v106.1h70.2V17.8z"/>
<path class="st1" d="M91.9,123.9c0,0,0-0.2,0-0.5c0-0.3,0-0.8,0-1.5c0-1.3,0-3.3,0-5.8c0-5.1,0-12.5-0.1-21.9
	c0-18.7-0.1-45.2-0.1-76.4l0.2,0.2H21.8l0.3-0.3c0,40,0,77-0.1,106.1l-0.2-0.2l51.1,0.1H87h3.7C91.5,123.9,92,123.9,91.9,123.9
	l-1.2-0.1h-3.7L73,123.9L21.8,124h-0.2v-0.2c0-29.2,0-66.1,0-106.1v-0.3h0.3H92h0.2v0.2c0,31.3-0.1,57.9-0.1,76.6
	c0,9.3,0,16.7-0.1,21.8c0,2.5,0,4.5,0,5.8c0,0.6,0,1.1,0,1.5S91.9,123.9,91.9,123.9z"/>
<path class="st1" d="M103.8,3.1c-0.5,0.9-1,1.7-1.7,2.4c-1.1,1.4-2.6,3.4-4.4,5.6c-1.8,2.1-3.4,4-4.6,5.4c-0.6,0.8-1.3,1.5-2.1,2.1
	c0.5-0.8,1.1-1.6,1.8-2.3l4.5-5.5c1.7-2.1,3.2-3.9,4.5-5.5C102.4,4.5,103.1,3.8,103.8,3.1z"/>
<path class="st3" d="M92.3,123.6c3.5,5.6,7.6,10.7,12.2,15.3L92.3,123.6z"/>
<path class="st1" d="M104.5,138.9c-0.8-0.6-1.5-1.2-2.1-1.9c-3.2-3.3-6.2-7-8.7-10.9c-0.6-0.8-1-1.6-1.4-2.5
	c0.6,0.7,1.2,1.5,1.7,2.3c1,1.4,2.5,3.4,4.2,5.5c1.7,2.1,3.3,4,4.5,5.3C103.4,137.4,104,138.2,104.5,138.9z"/>
<path class="st3" d="M10.1,138.5l12.2-15.1L10.1,138.5z"/>
<path class="st1" d="M22.3,123.4c-1.8,2.7-3.8,5.2-5.9,7.7c-2,2.6-4.1,5.1-6.3,7.4c1.8-2.7,3.8-5.2,5.9-7.7
	C18,128.2,20.1,125.8,22.3,123.4z"/>
<path class="st1" d="M10.1,3.1c2.1,2.3,4.1,4.6,5.9,7.1c2,2.4,3.8,4.8,5.5,7.4c-2.1-2.3-4.1-4.6-5.9-7.1C13.7,8.2,11.8,5.7,10.1,3.1
	z"/>
<path class="st1" d="M70.1,39.4H46.5v66.8h23.5V39.4z"/>
<path class="st1" d="M390,155.8h-67.8v70.8H390V155.8z"/>
<path class="st4" d="M385.4,155.8h-67.8v70.8h67.8V155.8z"/>
<path class="st1" d="M385.4,226.6h-67.8v-70.8h67.8V226.6z M317.5,226.5h67.8v-70.7h-67.8L317.5,226.5z"/>
<path class="st3" d="M376.3,165.3h-49.6V217h49.6V165.3z"/>
<path class="st1" d="M326.7,217.4c-0.4,0.5-0.8,1-1.2,1.4c-0.8,0.8-1.9,1.9-3.2,3.2s-2.4,2.3-3.2,3.1c-0.4,0.5-0.9,0.9-1.4,1.2
	c0.4-0.5,0.8-1,1.2-1.4c0.8-0.8,1.9-1.9,3.2-3.2c1.2-1.3,2.4-2.3,3.2-3.1C325.7,218.1,326.2,217.7,326.7,217.4z"/>
<path class="st1" d="M376.3,217.3c0.5,0.4,1,0.8,1.4,1.2c0.8,0.8,1.9,1.9,3.2,3.2c1.3,1.2,2.3,2.4,3.1,3.2c0.5,0.4,0.9,0.9,1.2,1.4
	c-0.5-0.4-1-0.8-1.4-1.2c-0.8-0.8-1.9-1.9-3.2-3.2c-1.3-1.2-2.3-2.4-3.1-3.2C377,218.3,376.6,217.8,376.3,217.3z"/>
<path class="st1" d="M376.1,165.4c0.4-0.5,0.8-1,1.2-1.4c0.8-0.8,1.9-1.9,3.2-3.2s2.4-2.3,3.2-3.1c0.4-0.5,0.9-0.9,1.4-1.2
	c-0.3,0.5-0.8,1-1.2,1.4c-0.8,0.8-1.9,1.9-3.2,3.2c-1.2,1.3-2.4,2.3-3.2,3.1C377.1,164.7,376.7,165.1,376.1,165.4z"/>
<path class="st1" d="M326.6,165.5c-0.5-0.4-1-0.8-1.4-1.2c-0.8-0.8-1.9-1.9-3.2-3.2c-1.3-1.2-2.3-2.4-3.1-3.2
	c-0.5-0.4-0.8-0.9-1.2-1.4c0.5,0.3,1,0.8,1.4,1.2c0.8,0.8,1.9,1.9,3.2,3.2c1.3,1.2,2.3,2.4,3.1,3.2
	C325.8,164.5,326.3,165,326.6,165.5z"/>
<path class="st1" d="M376.2,217c0-0.1,0-0.2,0-0.3c0-0.2,0-0.4,0-0.7c0-0.6,0-1.6,0-2.8c0-2.5,0-6,0-10.5c0-9.1-0.1-22-0.1-37.4
	l0.2,0.2h-49.5l0.2-0.2c0,19,0,36.7,0,51.7l-0.2-0.2l35.8,0.1l10.1,0h2.7h-2.6l-10,0l-35.9,0.1h-0.2v-0.2c0-15,0-32.8,0-51.7V165
	h0.2h49.5h0.2v0.2c0,15.5-0.1,28.5-0.1,37.5c0,4.5,0,8.1-0.1,10.5c0,1.2,0,2.1,0,2.8c0,0.3,0,0.5,0,0.7
	C376.2,216.8,376.2,216.9,376.2,217z"/>
<path class="st2" d="M359.8,182.9h-16.6v16.6h16.6V182.9z"/>
</svg>
