<?xml version="1.0" encoding="utf-8"?>
<!-- Generator: Adobe Illustrator 24.0.1, SVG Export Plug-In . SVG Version: 6.00 Build 0)  -->
<svg version="1.1" id="Слой_1" xmlns="http://www.w3.org/2000/svg" xmlns:xlink="http://www.w3.org/1999/xlink" x="0px" y="0px"
	 viewBox="0 0 406 432" style="enable-background:new 0 0 406 432;" xml:space="preserve">
<style type="text/css">
	.st0{fill:#EBEBEB;}
</style>
<path class="st0" d="M405.3,17.5c0.1-2.9-0.7-5.7-2.3-8.1c-1.4-2.4-3.6-4.4-6.2-5.5c-2.2-0.9-4.7-1.1-7-0.4c-2.3,0.6-4.4,2-5.8,3.9
	c-0.8-2.2-2.3-4-4.2-5.3s-4.2-1.9-6.5-1.8c-2.8,0.2-5.5,1.3-7.7,3.1c-2.3,1.8-4,4.2-4.9,6.9c-1,3.5-0.9,7.3,0.3,10.7
	c1.5,3.6,3.9,6.7,6.9,9.2c4.8,4.2,11.2,9.5,11.2,9.5s6.7-3.5,12.7-5.8c3.7-1.3,7-3.5,9.6-6.3C403.8,24.6,405.1,21.1,405.3,17.5z"/>
</svg>
