<svg width="161" height="330" viewBox="0 0 161 330" fill="none" xmlns="http://www.w3.org/2000/svg">
<path d="M136.403 329.285L24.8301 329.218C21.6382 329.217 18.4778 328.586 15.5294 327.363C12.581 326.14 9.90227 324.348 7.64617 322.089C5.39007 319.83 3.60079 317.149 2.38048 314.198C1.16017 311.247 0.532733 308.085 0.533998 304.892L0.591836 24.9496C0.591834 18.5037 3.14995 12.3216 7.70399 7.76185C12.258 3.20212 18.4353 0.637924 24.8783 0.632812L136.49 0.72923C142.931 0.731783 149.108 3.2922 153.664 7.84804C158.219 12.4039 160.781 18.5825 160.786 25.0267L160.718 304.969C160.718 308.163 160.089 311.326 158.867 314.276C157.645 317.227 155.854 319.908 153.596 322.167C151.338 324.425 148.658 326.216 145.707 327.437C142.757 328.659 139.596 329.287 136.403 329.285Z" fill="#263238"/>
<path d="M136.364 10.6028H114.728C113.303 10.6357 111.95 11.2329 110.965 12.2634C109.98 13.2939 109.444 14.6733 109.475 16.0986V20.0132C109.504 21.4395 108.966 22.8189 107.979 23.8491C106.993 24.8793 105.639 25.4762 104.213 25.5091H62.0395C61.3337 25.4941 60.6377 25.3399 59.9916 25.0554C59.3454 24.771 58.7616 24.3618 58.2737 23.8513C57.7859 23.3407 57.4034 22.739 57.1483 22.0804C56.8932 21.4218 56.7705 20.7194 56.7871 20.0132V16.0504C56.8181 14.6225 56.2814 13.2407 55.2947 12.2084C54.3081 11.1761 52.9523 10.5778 51.525 10.5449H24.9834C22.7467 10.5424 20.5315 10.981 18.4643 11.8355C16.3972 12.6901 14.5186 13.944 12.9362 15.5254C11.3537 17.1068 10.0983 18.9847 9.24176 21.0519C8.38524 23.119 7.94436 25.3348 7.94436 27.5725L7.88654 300.813C7.88527 303.051 8.32449 305.266 9.17913 307.334C10.0338 309.401 11.2871 311.28 12.8675 312.863C14.448 314.446 16.3246 315.702 18.3902 316.559C20.4558 317.417 22.67 317.859 24.9063 317.86L136.296 317.918C138.533 317.919 140.747 317.48 142.814 316.625C144.88 315.77 146.758 314.516 148.341 312.935C149.923 311.353 151.178 309.476 152.035 307.409C152.892 305.343 153.334 303.128 153.335 300.89L153.383 27.6496C153.386 25.4119 152.948 23.1956 152.093 21.1275C151.239 19.0594 149.986 17.18 148.405 15.5968C146.825 14.0137 144.948 12.7577 142.881 11.9008C140.815 11.0438 138.6 10.6028 136.364 10.6028Z" fill="white"/>
<path d="M70.2905 305.99C70.2943 306.414 70.1723 306.83 69.94 307.184C69.7076 307.538 69.3754 307.815 68.9854 307.981C68.5953 308.146 68.1651 308.192 67.749 308.112C67.333 308.032 66.95 307.831 66.6485 307.533C66.3469 307.236 66.1405 306.855 66.0553 306.44C65.9701 306.025 66.0099 305.594 66.1698 305.202C66.3297 304.809 66.6024 304.473 66.9533 304.236C67.3043 303.999 67.7178 303.871 68.1413 303.869C68.4218 303.867 68.7001 303.92 68.9601 304.025C69.2201 304.13 69.4568 304.286 69.6565 304.483C69.8561 304.68 70.015 304.915 70.1238 305.174C70.2326 305.432 70.2892 305.71 70.2905 305.99Z" fill="#263238"/>
<path d="M82.2789 305.884C82.2827 306.307 82.1609 306.722 81.929 307.076C81.6971 307.43 81.3654 307.708 80.976 307.873C80.5865 308.039 80.1567 308.085 79.741 308.006C79.3252 307.927 78.9422 307.727 78.6403 307.43C78.3384 307.134 78.1312 306.754 78.0449 306.34C77.9586 305.925 77.9971 305.494 78.1555 305.102C78.3139 304.709 78.5851 304.373 78.9348 304.134C79.2845 303.896 79.697 303.767 80.1201 303.763C80.4011 303.76 80.6798 303.813 80.9403 303.918C81.2009 304.024 81.4382 304.179 81.6386 304.376C81.8391 304.573 81.9988 304.808 82.1087 305.066C82.2185 305.325 82.2764 305.603 82.2789 305.884Z" fill="#E0E0E0"/>
<path d="M94.2202 305.788C94.224 306.212 94.1022 306.627 93.8703 306.981C93.6384 307.335 93.3067 307.612 92.9172 307.778C92.5278 307.943 92.098 307.989 91.6822 307.911C91.2665 307.832 90.8835 307.631 90.5816 307.335C90.2797 307.038 90.0725 306.658 89.9862 306.244C89.8999 305.83 89.9384 305.399 90.0968 305.006C90.2552 304.614 90.5264 304.277 90.8761 304.039C91.2257 303.8 91.6383 303.671 92.0614 303.667C92.3424 303.665 92.6211 303.717 92.8816 303.823C93.1422 303.928 93.3795 304.083 93.5799 304.28C93.7804 304.477 93.9401 304.712 94.05 304.971C94.1598 305.229 94.2176 305.507 94.2202 305.788Z" fill="#E0E0E0"/>
<path d="M22.6707 48.3021C22.7602 48.2895 22.8511 48.2895 22.9406 48.3021H23.6634L26.3522 48.2346L26.2655 48.3118C26.2655 47.7236 26.2655 47.068 26.2655 46.3834C26.2655 46.017 26.2655 45.6795 26.2655 45.2553C26.3044 45.0357 26.4139 44.8349 26.5775 44.6835C26.7411 44.5321 26.9496 44.4383 27.1714 44.4164C27.6147 44.4164 27.9906 44.4164 28.4628 44.4164C28.7131 44.4539 28.9411 44.5812 29.1043 44.7747C29.2674 44.9681 29.3546 45.2143 29.3495 45.4674C29.3495 46.3737 29.3495 47.3283 29.3495 48.36L29.2049 48.2153H32.5973L32.4431 48.36C32.4431 47.0005 32.4431 45.5831 32.4431 44.1368C32.4431 43.7801 32.4431 43.4233 32.4431 43.0666C32.425 42.9088 32.3736 42.7567 32.2921 42.6204C32.2107 42.4841 32.1012 42.3666 31.9709 42.2759C31.4697 41.7842 31.0071 41.3118 30.4867 40.82L29.0315 39.2966L28.3376 38.6217C28.0966 38.3903 27.9135 38.1492 27.6437 38.101C27.5143 38.0637 27.378 38.0573 27.2457 38.0824C27.1135 38.1075 26.989 38.1635 26.8823 38.2457C26.6799 38.4096 26.4582 38.6603 26.2559 38.8627L25.0415 40.0872C24.2802 40.8779 23.4803 41.6107 22.902 42.2856C22.7333 42.6838 22.6734 43.1197 22.7286 43.5487V44.6961C22.7286 45.4288 22.7286 46.0652 22.7286 46.6244C22.7286 47.1837 22.7286 47.5115 22.7286 47.849C22.7422 47.9997 22.7422 48.1514 22.7286 48.3021C22.7286 48.3021 22.7286 48.1671 22.7286 47.8972C22.7286 47.6272 22.7286 47.1547 22.7286 46.6823C22.7286 46.2098 22.7286 45.4771 22.7286 44.7539C22.7286 44.3682 22.7286 43.9633 22.7286 43.539C22.7286 43.3173 22.7286 43.0955 22.7286 42.8641C22.7308 42.6137 22.7972 42.3681 22.9213 42.1506C23.5477 41.3793 24.2898 40.7043 25.0608 39.8848L26.2655 38.6506C26.4872 38.4288 26.6606 38.2264 26.9208 37.995C27.0575 37.894 27.2147 37.8244 27.3812 37.791C27.5478 37.7577 27.7197 37.7615 27.8846 37.8021C28.2085 37.9152 28.493 38.1195 28.7038 38.3903L29.3977 39.0652L30.8337 40.4729L32.3178 41.9288C32.4721 42.0426 32.6014 42.1869 32.6975 42.3528C32.7937 42.5187 32.8547 42.7026 32.8768 42.893C32.8768 43.2498 32.8768 43.6162 32.8768 43.9729C32.8768 45.4192 32.8768 46.8269 32.8768 48.1961V48.3407H32.7322H29.3495H29.2049V48.1961C29.2049 47.2319 29.2049 46.2677 29.2049 45.3035C29.2118 45.1117 29.1477 44.924 29.0251 44.7764C28.9024 44.6288 28.7297 44.5315 28.5399 44.5032C28.1544 44.5032 27.6918 44.5032 27.316 44.5032C27.143 44.5214 26.9801 44.5936 26.8504 44.7095C26.7206 44.8254 26.6307 44.9793 26.5932 45.1492C26.5932 45.4867 26.5932 45.8917 26.5932 46.2291C26.5932 46.933 26.5932 47.579 26.5932 48.1575V48.2443H26.5161H23.779H23.0755L22.6707 48.3021Z" fill="#263238"/>
<path d="M146.309 62.0615H146.164C145.206 62.0615 144.43 62.8386 144.43 63.7971V302.048C144.43 303.006 145.206 303.783 146.164 303.783H146.309C147.267 303.783 148.044 303.006 148.044 302.048V63.7971C148.044 62.8386 147.267 62.0615 146.309 62.0615Z" fill="#F5F5F5"/>
<path d="M146.299 73.1113H146.183C145.534 73.1113 145.008 73.638 145.008 74.2876V91.4212C145.008 92.0709 145.534 92.5975 146.183 92.5975H146.299C146.948 92.5975 147.475 92.0709 147.475 91.4212V74.2876C147.475 73.638 146.948 73.1113 146.299 73.1113Z" fill="#E0E0E0"/>
<path d="M136.605 60.7783H23.6637C21.3058 60.7783 19.3943 62.6907 19.3943 65.0497V108.747C19.3943 111.106 21.3058 113.018 23.6637 113.018H136.605C138.963 113.018 140.875 111.106 140.875 108.747V65.0497C140.875 62.6907 138.963 60.7783 136.605 60.7783Z" fill="white"/>
<path d="M23.2393 60.8652H81.1316V113.018H23.2393C22.2169 113.018 21.2364 112.612 20.5134 111.888C19.7905 111.165 19.3843 110.184 19.3843 109.161V64.7123C19.3869 63.6911 19.7942 62.7126 20.5168 61.9914C21.2395 61.2702 22.2186 60.8652 23.2393 60.8652Z" fill="#066FA4"/>
<g opacity="0.3">
<path d="M69.8757 89.0485C71.8031 87.8143 72.6127 85.4906 73.3355 83.3405C73.7981 81.9328 74.2511 80.3322 73.5475 79.0402C72.9058 78.1133 71.9835 77.4171 70.9165 77.054C67.1395 75.3564 63.213 74.0137 59.1877 73.043L29.8223 83.5044C29.5982 84.3602 29.635 85.2635 29.928 86.0982C30.2211 86.9329 30.7569 87.6608 31.4667 88.1885C32.1765 88.7161 33.0277 89.0194 33.9111 89.0592C34.7945 89.0991 35.6696 88.8737 36.424 88.4121C37.5779 94.1856 37.1109 100.166 35.0747 105.69C34.8805 106.046 34.7629 106.438 34.7297 106.841C34.6965 107.245 34.7484 107.651 34.882 108.033C35.3446 108.853 36.4625 108.949 37.3973 108.949L66.8398 109.036C68.2758 109.036 69.9142 108.959 70.8105 107.84C71.7068 106.722 71.4176 104.948 71.0418 103.521L68.1505 92.5292C67.9009 91.884 67.8805 91.1725 68.0927 90.514C68.4204 89.8005 69.2203 89.4341 69.8757 89.0485Z" fill="black"/>
</g>
<path d="M66.097 103.444C65.8946 103.01 63.2828 93.6288 63.2828 93.6288L63.7743 83.6398L64.2466 69.7845L57.5003 68.5889C52.6238 71.4139 44.9716 72.5999 39.9794 70.3051C39.9794 70.3051 37.3002 70.4305 35.9895 71.6357C35.4787 72.0985 36.2979 76.1288 37.04 80.1109C37.811 84.2955 39.989 94.699 39.989 94.699C39.989 94.699 36.2979 103.618 35.5076 106.182C35.5076 106.182 58.1075 102.085 65.6729 106.182C65.6826 106.182 67.2824 105.961 66.097 103.444Z" fill="white"/>
<path d="M27.7209 76.7165L36.1537 71.5195L38.4185 83.0898L34.072 86.773C34.072 86.773 27.48 83.3983 27.7209 76.7165Z" fill="white"/>
<path d="M64.2472 69.7842L72.8053 73.4867C72.8053 73.4867 69.9912 84.2373 68.3528 85.4715L64.0063 83.6395L62.9365 87.0046L62.8787 73.5059L64.2472 69.7842Z" fill="white"/>
<path d="M34.8617 85.7223C34.7075 85.6778 34.5612 85.6095 34.428 85.5198C34.0544 85.307 33.694 85.072 33.3486 84.816C32.2067 83.9589 31.2275 82.9042 30.4574 81.7016C30.0393 81.0318 29.6905 80.321 29.4165 79.5804C29.1995 78.9768 29.0413 78.3536 28.9443 77.7195C28.8747 77.2926 28.8456 76.86 28.8575 76.4275C28.835 76.2709 28.835 76.1118 28.8575 75.9551C28.9154 75.9551 28.9057 76.63 29.1178 77.681C29.237 78.2953 29.4079 78.8984 29.6285 79.484C29.9095 80.2001 30.258 80.8878 30.6694 81.5377C31.4523 82.701 32.4077 83.7381 33.5028 84.6135C34.3124 85.327 34.8906 85.6741 34.8617 85.7223Z" fill="#E0E0E0"/>
<path d="M37.2623 81.4793C37.2623 81.4793 37.137 81.4793 36.9346 81.3154C36.6718 81.1184 36.4238 80.9025 36.1925 80.6694C35.4602 79.8837 34.7901 79.0423 34.1879 78.1529C33.5746 77.2712 33.0146 76.3536 32.511 75.4049C32.2776 75.0224 32.1144 74.6012 32.0291 74.1611C32.0291 74.1611 32.2701 74.6047 32.6941 75.2989C33.1182 75.9931 33.7253 76.9573 34.4289 77.9793C35.1324 79.0013 35.8166 79.9077 36.3563 80.5248C36.6262 80.8333 36.8575 81.0647 37.0213 81.2286C37.1852 81.3925 37.2719 81.46 37.2623 81.4793Z" fill="#E0E0E0"/>
<path d="M63.2543 70.5655C62.9194 70.6866 62.5743 70.7769 62.2231 70.8355C61.5581 70.9994 60.5944 71.2597 59.4282 71.6165L55.3034 72.9085C53.6169 73.4492 51.8893 73.8523 50.1377 74.1137C46.9288 74.5391 43.665 74.209 40.6062 73.1495C39.6827 72.8306 38.784 72.4439 37.9174 71.9925C37.609 71.8382 37.3873 71.684 37.2331 71.5972L37.0018 71.4429C37.3318 71.571 37.6537 71.7191 37.9656 71.8865C38.8373 72.2995 39.7355 72.6538 40.6544 72.9471C43.6956 73.9362 46.9207 74.2262 50.0895 73.7955C51.825 73.5338 53.5387 73.1438 55.2167 72.6289C56.7683 72.1757 58.1657 71.7322 59.3511 71.3947C60.5365 71.0573 61.5099 70.8355 62.1845 70.7101C62.5219 70.633 62.7917 70.6041 62.9748 70.5752C63.067 70.5584 63.1612 70.5551 63.2543 70.5655Z" fill="#E0E0E0"/>
<path d="M64.1604 78.3848C64.1604 78.3848 64.0737 78.3848 63.8905 78.4522L63.1003 78.5872C62.416 78.6932 61.4234 78.8185 60.209 78.9437C57.0064 79.2596 53.7898 79.414 50.5716 79.4063C46.784 79.4063 43.3627 79.2714 40.9341 79.1461L38.0428 78.9727L37.2429 78.9148C37.1503 78.9284 37.0561 78.9284 36.9634 78.9148H37.2429H38.0428L40.9341 78.9919C43.4109 79.069 46.8322 79.175 50.5716 79.175C54.3109 79.175 57.7611 79.0016 60.209 78.7895C61.4426 78.6932 62.4353 78.5968 63.1003 78.5293L63.8905 78.4522C63.9783 78.4216 64.0686 78.399 64.1604 78.3848Z" fill="#E0E0E0"/>
<path d="M63.7753 83.6494C63.4607 83.772 63.1389 83.875 62.8115 83.9578C62.4935 84.0542 62.108 84.1409 61.6454 84.2373C61.1828 84.3337 60.6817 84.4493 60.0938 84.5457C57.0739 85.023 54.0241 85.2871 50.9671 85.336C47.3819 85.442 44.1437 85.336 41.8018 85.1529C40.6357 85.0661 39.6912 84.9697 39.0359 84.883C38.7106 84.8457 38.3885 84.7845 38.0721 84.6999C38.4106 84.7003 38.7486 84.7229 39.0841 84.7674C39.7394 84.7674 40.6839 84.883 41.85 84.9408C44.1919 85.0468 47.4205 85.1432 50.996 85.0372C54.04 84.9875 57.0783 84.7525 60.0938 84.3337C60.6849 84.2566 61.2053 84.1698 61.655 84.0735C62.108 83.9964 62.5031 83.9289 62.8212 83.8422C63.1324 83.7481 63.4519 83.6835 63.7753 83.6494Z" fill="#E0E0E0"/>
<path d="M63.0333 90.7649C62.7164 90.8365 62.394 90.8817 62.0696 90.8998C61.472 90.9673 60.6047 91.054 59.5253 91.1407C57.3665 91.3046 54.3788 91.4781 51.0732 91.5166C47.7675 91.5552 44.7799 91.4395 42.6211 91.2468C41.5514 91.1407 40.6936 91.0444 40.0768 90.9384C39.7518 90.9043 39.4296 90.8463 39.1131 90.7649C39.4355 90.7504 39.7585 90.7698 40.0768 90.8227C40.6744 90.8902 41.5417 90.9576 42.6211 91.0347C44.7799 91.1697 47.7579 91.266 51.0539 91.2178C54.3499 91.1697 57.3279 91.0444 59.4867 90.9287L62.0406 90.7842C62.3701 90.745 62.7026 90.7386 63.0333 90.7649Z" fill="#E0E0E0"/>
<path d="M64.4296 97.7838C64.0928 97.8115 63.7544 97.8115 63.4176 97.7838L60.642 97.591C58.3098 97.4368 55.0812 97.273 51.5057 97.273C47.9302 97.273 44.7016 97.4368 42.3694 97.591L39.6034 97.7838C39.2635 97.8116 38.9218 97.8116 38.5818 97.7838C38.8998 97.7137 39.2216 97.6622 39.5456 97.6296C40.1913 97.5428 41.1358 97.4465 42.3019 97.3405C44.6438 97.1381 47.882 96.9453 51.4575 96.9453C55.033 96.9453 58.2808 97.1284 60.6131 97.3405C61.7793 97.4465 62.7237 97.5428 63.3791 97.6296C63.7321 97.6587 64.083 97.7102 64.4296 97.7838Z" fill="#E0E0E0"/>
<path d="M67.1387 72.754C66.9073 73.6235 66.5257 74.4458 66.0111 75.1837C65.5831 75.9768 65.0112 76.683 64.3245 77.2664C64.2571 77.2664 64.9895 76.3022 65.7605 75.0294C66.5315 73.7567 67.0616 72.7154 67.1387 72.754Z" fill="#E0E0E0"/>
<path d="M36.3081 75.9355C36.3967 76.1688 36.4581 76.4114 36.4912 76.6587C36.6068 77.189 36.7418 77.8639 36.9152 78.6642C37.2814 80.419 37.7633 82.7234 38.303 85.2785C38.8427 87.8336 39.2668 90.2055 39.6041 91.9025C39.7487 92.751 39.8643 93.4452 39.9318 93.9273C39.9825 94.1746 40.0052 94.4269 39.9992 94.6793C39.9135 94.4419 39.8522 94.1964 39.8161 93.9465C39.7101 93.4162 39.5655 92.7413 39.3921 91.941C39.0258 90.1959 38.544 87.8818 38.0043 85.3364C37.4646 82.7909 37.0405 80.4094 36.7032 78.7028C36.5587 77.8543 36.443 77.1601 36.3755 76.6876C36.3249 76.4402 36.3023 76.188 36.3081 75.9355Z" fill="#263238"/>
<path d="M64.3428 79.0215C64.3692 79.2134 64.3692 79.4081 64.3428 79.6C64.3428 79.976 64.3428 80.5063 64.2754 81.1716C64.2079 82.4926 64.1019 84.3245 63.9573 86.3397C63.8128 88.3548 63.6682 90.1964 63.5429 91.4981C63.4851 92.1537 63.4273 92.6936 63.3887 93.06C63.3841 93.2541 63.3483 93.4462 63.2827 93.6289C63.2597 93.4368 63.2597 93.2425 63.2827 93.0504C63.2827 92.684 63.2827 92.1441 63.3406 91.4884C63.408 90.1578 63.5237 88.3355 63.6682 86.3204C63.8128 84.3052 63.9573 82.4636 64.0826 81.1523C64.1405 80.4967 64.1983 79.9567 64.2368 79.5904C64.2512 79.3974 64.2867 79.2066 64.3428 79.0215Z" fill="#263238"/>
<path d="M70.5021 72.6387C70.3112 73.22 70.0793 73.7871 69.8082 74.3356C69.3648 75.3866 68.7866 76.8425 68.2565 78.4913C67.7265 80.14 67.3603 81.6635 67.1193 82.7723C67.0151 83.3774 66.8768 83.9762 66.7049 84.5657C66.7049 84.5657 66.7049 84.3921 66.7049 84.0739C66.7049 83.7557 66.7916 83.2929 66.888 82.7337C67.146 81.268 67.5034 79.8216 67.9578 78.4045C68.4104 76.9842 68.9578 75.5959 69.5961 74.2489C69.8467 73.7378 70.0587 73.2847 70.2129 73.0533C70.2928 72.9043 70.3899 72.7651 70.5021 72.6387Z" fill="#E0E0E0"/>
<path d="M66.0683 103.791C65.9635 103.785 65.8599 103.765 65.76 103.733L64.8733 103.521C64.4974 103.425 64.0252 103.309 63.4759 103.203C62.9265 103.097 62.3194 102.943 61.6158 102.837C60.9123 102.73 60.1702 102.586 59.351 102.499C58.5319 102.412 57.6548 102.326 56.7296 102.248C52.7091 101.98 48.6708 102.249 44.7213 103.049C43.8154 103.251 42.948 103.425 42.1578 103.646C41.3675 103.868 40.6254 104.071 39.9508 104.283C39.2762 104.495 38.6883 104.707 38.1582 104.89C37.6282 105.073 37.1945 105.247 36.8186 105.401L35.9705 105.719C35.8763 105.766 35.7756 105.799 35.6718 105.816C35.6718 105.816 35.7585 105.758 35.9512 105.671L36.7704 105.286C37.1366 105.122 37.5703 104.929 38.1004 104.736C38.6305 104.543 39.2087 104.292 39.8833 104.08C40.5579 103.868 41.2904 103.618 42.0903 103.405C42.8902 103.193 43.7576 102.991 44.6635 102.779C48.6343 101.944 52.7024 101.672 56.7489 101.969C57.7127 102.056 58.5608 102.123 59.3799 102.258C60.1991 102.393 60.9701 102.499 61.6544 102.634C62.3387 102.769 62.9747 102.914 63.5144 103.039C64.0541 103.164 64.5264 103.299 64.9022 103.415L65.7696 103.675C65.8734 103.702 65.9737 103.741 66.0683 103.791Z" fill="#E0E0E0"/>
<path d="M81.266 113.423C81.1311 113.423 81.0154 101.852 81.0154 87.4764C81.0154 73.1004 81.1311 61.5205 81.266 61.5205C81.401 61.5205 81.5166 73.0907 81.5166 87.4764C81.5166 101.862 81.401 113.423 81.266 113.423Z" fill="#066FA4"/>
<path d="M136.624 113.019C136.624 113.019 136.923 113.019 137.492 112.903C138.325 112.708 139.085 112.276 139.68 111.659C140.108 111.198 140.436 110.653 140.643 110.059C140.834 109.323 140.899 108.56 140.836 107.803C140.836 106.144 140.836 104.235 140.836 102.085C140.836 93.4651 140.788 81.0175 140.759 65.6291C140.779 65.1581 140.75 64.6863 140.672 64.2213C140.523 63.5223 140.195 62.8741 139.721 62.34C139.246 61.8059 138.641 61.4043 137.964 61.1745C136.991 60.9557 135.99 60.8842 134.996 60.9624H118.718H89.8056H23.6347C22.9424 60.9602 22.2613 61.1364 21.657 61.4742C21.0526 61.812 20.5455 62.2999 20.1845 62.8908C19.8341 63.4753 19.6353 64.1382 19.6062 64.8191V75.6277C19.6062 81.3453 19.6062 86.9858 19.6062 92.5202V108.815C19.6329 109.442 19.8053 110.055 20.1097 110.604C20.4142 111.153 20.8424 111.623 21.3602 111.978C21.8725 112.33 22.4599 112.558 23.0757 112.643C23.7178 112.677 24.3612 112.677 25.0032 112.643H32.7132L86.7602 112.691L123.199 112.778H133.107H135.68H136.557C136.557 112.778 136.258 112.778 135.68 112.778H133.107L123.199 112.826L86.7602 112.903L32.7132 112.961H25.0032C24.342 112.999 23.6791 112.999 23.0179 112.961C22.3266 112.872 21.6661 112.621 21.0904 112.228C20.5165 111.829 20.0435 111.301 19.7089 110.687C19.3743 110.072 19.1874 109.389 19.1629 108.69C19.1629 103.361 19.1629 97.9229 19.1629 92.3756V64.8963C19.2003 63.723 19.6914 62.61 20.5327 61.7917C21.374 60.9734 22.4999 60.5136 23.6732 60.5092H89.8441H118.757H131.844H136.499C137.026 60.502 137.551 60.5835 138.051 60.7503C138.786 61.0009 139.444 61.4384 139.959 62.0198C140.474 62.6013 140.83 63.3068 140.99 64.0671C141.074 64.5573 141.106 65.055 141.087 65.5519C141.087 80.9789 141.019 93.388 141 102.008C141 104.158 141 106.067 141 107.725C141.055 108.498 140.977 109.274 140.769 110.02C140.566 110.625 140.237 111.18 139.805 111.65C139.198 112.277 138.415 112.704 137.559 112.874C137.255 112.961 136.941 113.01 136.624 113.019Z" fill="#066FA4"/>
<path d="M108.126 72.7545C108.126 72.8894 103.143 73.0051 97.0043 73.0051C90.8652 73.0051 85.8826 72.8894 85.8826 72.7545C85.8826 72.6196 90.8652 72.5039 97.0043 72.5039C103.143 72.5039 108.126 72.6099 108.126 72.7545Z" fill="#066FA4"/>
<path d="M129.57 79.609C129.57 79.7439 119.74 79.8595 107.616 79.8595C95.492 79.8595 85.6522 79.7439 85.6522 79.609C85.6522 79.474 95.4824 79.3584 107.616 79.3584C119.75 79.3584 129.57 79.4644 129.57 79.609Z" fill="#066FA4"/>
<path d="M129.57 83.65C129.57 83.7946 119.74 83.9006 107.616 83.9006C95.492 83.9006 85.6522 83.7946 85.6522 83.65C85.6522 83.5054 95.4824 83.3994 107.616 83.3994C119.75 83.3994 129.57 83.4958 129.57 83.65Z" fill="#066FA4"/>
<path d="M124.954 103.444C124.902 102.99 124.714 102.563 124.414 102.219C124.13 101.866 123.742 101.613 123.305 101.496C122.937 101.405 122.548 101.438 122.2 101.59C121.852 101.742 121.563 102.003 121.378 102.335C121.257 102.106 121.086 101.908 120.877 101.756C120.684 101.618 120.465 101.52 120.233 101.468C120.001 101.417 119.761 101.413 119.528 101.457C119.09 101.553 118.693 101.782 118.39 102.113C118.073 102.446 117.862 102.865 117.783 103.318C117.694 103.897 117.796 104.489 118.072 105.006C118.399 105.527 118.841 105.965 119.364 106.288L121.349 107.522C121.349 107.522 122.313 106.818 123.219 106.326C123.761 106.034 124.227 105.618 124.578 105.112C124.879 104.611 125.011 104.026 124.954 103.444Z" fill="#066FA4"/>
<path d="M121.339 107.668H121.272C121.272 107.668 120.134 106.973 119.296 106.433C118.747 106.11 118.287 105.657 117.956 105.112C117.67 104.572 117.562 103.954 117.648 103.348C117.732 102.872 117.957 102.432 118.294 102.085C118.61 101.73 119.033 101.487 119.498 101.391C119.748 101.346 120.005 101.351 120.253 101.405C120.501 101.46 120.736 101.563 120.944 101.709C121.11 101.834 121.256 101.984 121.378 102.152C121.59 101.853 121.887 101.625 122.231 101.496C122.574 101.367 122.948 101.344 123.305 101.429C123.765 101.552 124.174 101.819 124.471 102.191C124.792 102.551 124.991 103.003 125.04 103.483C125.101 104.092 124.963 104.705 124.645 105.228C124.279 105.749 123.797 106.179 123.238 106.482C122.37 106.964 121.387 107.658 121.378 107.668H121.339ZM119.836 101.545C119.739 101.535 119.643 101.535 119.547 101.545C119.13 101.648 118.751 101.869 118.457 102.182C118.163 102.495 117.966 102.887 117.889 103.309C117.808 103.862 117.906 104.427 118.168 104.92C118.482 105.425 118.911 105.848 119.421 106.154C120.144 106.617 121.079 107.195 121.349 107.349C121.59 107.185 122.418 106.617 123.161 106.192C123.686 105.913 124.139 105.513 124.481 105.026C124.778 104.551 124.907 103.991 124.847 103.435C124.805 103.001 124.626 102.593 124.336 102.268C124.075 101.931 123.709 101.69 123.296 101.584C122.951 101.5 122.589 101.531 122.263 101.672C121.938 101.813 121.668 102.056 121.493 102.365L121.387 102.557L121.291 102.365C121.171 102.155 121.01 101.971 120.819 101.825C120.527 101.633 120.184 101.535 119.836 101.545Z" fill="#263238"/>
<path d="M135.082 106.327H133.646H130.09L130.012 105.739C129.791 104.013 129.598 102.471 129.473 101.468H128.509H128.258C128.201 101.468 128.172 101.468 128.172 101.468H129.473C129.608 102.432 129.81 104.013 130.041 105.739C130.041 105.942 130.09 106.134 130.118 106.327L133.675 106.375H134.725H135.111L135.082 106.327Z" fill="#263238"/>
<path d="M133.637 106.414H130.062C130.062 106.414 129.994 106.414 129.994 106.356L129.917 105.739L129.377 101.545H128.269C128.163 101.545 128.105 101.545 128.105 101.458C128.105 101.371 128.173 101.391 128.269 101.381H129.464C129.464 101.381 129.551 101.381 129.551 101.439L130.129 105.835C130.129 105.961 130.129 106.086 130.177 106.202L134.996 106.279C135.112 106.279 135.169 106.279 135.169 106.356C135.169 106.433 135.112 106.433 134.996 106.433H133.647L133.637 106.414Z" fill="#263238"/>
<path d="M129.965 105.246H131.41H135.092C135.207 104.629 135.333 103.964 135.458 103.27L135.651 102.229H131.304H130.022H131.304H135.651C135.593 102.566 135.525 102.913 135.458 103.27C135.323 103.964 135.198 104.639 135.082 105.256H131.401H130.331H129.955L129.965 105.246Z" fill="#263238"/>
<path d="M135.122 105.401L130.015 105.324C130.015 105.324 129.918 105.324 129.918 105.246C129.913 105.231 129.913 105.214 129.918 105.198C129.93 105.191 129.943 105.188 129.957 105.188C129.97 105.188 129.984 105.191 129.995 105.198H131.422H135.016L135.537 102.392L129.61 102.306C129.61 102.306 129.504 102.306 129.504 102.229C129.504 102.151 129.581 102.151 129.61 102.151H131.325H135.71H135.768C135.773 102.16 135.776 102.17 135.776 102.18C135.776 102.19 135.773 102.2 135.768 102.209L135.566 103.289C135.489 103.733 135.402 104.176 135.325 104.6L135.19 105.295C135.198 105.306 135.202 105.319 135.203 105.332C135.203 105.346 135.2 105.359 135.192 105.371C135.185 105.382 135.174 105.391 135.162 105.396C135.15 105.402 135.136 105.403 135.122 105.401Z" fill="#263238"/>
<path d="M131.333 107.647C131.333 107.647 131.333 107.647 131.333 107.532C131.304 107.427 131.239 107.335 131.15 107.271C131.089 107.222 131.016 107.189 130.938 107.177C130.86 107.166 130.78 107.175 130.707 107.204C130.616 107.235 130.537 107.294 130.48 107.371C130.423 107.449 130.391 107.542 130.389 107.638C130.391 107.734 130.422 107.827 130.477 107.905C130.532 107.984 130.608 108.045 130.697 108.081C130.77 108.109 130.849 108.118 130.926 108.108C131.004 108.098 131.077 108.069 131.141 108.023C131.232 107.963 131.298 107.87 131.324 107.763C131.324 107.695 131.324 107.647 131.324 107.647C131.332 107.689 131.332 107.731 131.324 107.773C131.295 107.886 131.231 107.987 131.141 108.062C131.072 108.115 130.991 108.151 130.905 108.164C130.819 108.178 130.731 108.169 130.649 108.139C130.557 108.096 130.479 108.029 130.424 107.943C130.369 107.858 130.34 107.758 130.34 107.657C130.34 107.555 130.369 107.456 130.424 107.371C130.479 107.285 130.557 107.217 130.649 107.175C130.732 107.146 130.82 107.139 130.906 107.154C130.992 107.169 131.073 107.206 131.141 107.262C131.232 107.334 131.294 107.436 131.314 107.551C131.326 107.582 131.332 107.614 131.333 107.647Z" fill="#263238"/>
<path d="M130.842 108.246C130.775 108.259 130.706 108.259 130.639 108.246C130.522 108.204 130.422 108.126 130.351 108.024C130.28 107.922 130.243 107.801 130.244 107.677C130.246 107.566 130.278 107.458 130.338 107.364C130.398 107.271 130.483 107.196 130.583 107.148C130.683 107.1 130.794 107.08 130.905 107.092C131.015 107.104 131.12 107.146 131.208 107.214C131.31 107.302 131.381 107.42 131.41 107.552C131.415 107.596 131.415 107.642 131.41 107.687C131.42 107.731 131.42 107.777 131.41 107.821C131.387 107.955 131.315 108.076 131.208 108.159C131.098 108.226 130.97 108.257 130.842 108.246ZM130.842 107.282H130.707C130.631 107.309 130.566 107.359 130.519 107.424C130.473 107.49 130.447 107.568 130.446 107.648C130.447 107.728 130.471 107.806 130.516 107.873C130.56 107.94 130.623 107.992 130.697 108.024C130.76 108.047 130.828 108.055 130.896 108.047C130.963 108.038 131.027 108.014 131.082 107.976C131.156 107.92 131.21 107.842 131.237 107.754V107.677C131.244 107.652 131.244 107.625 131.237 107.6C131.214 107.51 131.159 107.431 131.082 107.378C131.054 107.34 131.017 107.309 130.976 107.286C130.935 107.262 130.889 107.248 130.842 107.243V107.282Z" fill="#263238"/>
<path d="M134.543 107.676C134.543 107.676 134.543 107.676 134.543 107.561C134.513 107.456 134.449 107.364 134.36 107.301C134.297 107.253 134.224 107.223 134.147 107.211C134.069 107.199 133.99 107.207 133.917 107.233C133.828 107.266 133.75 107.325 133.695 107.402C133.64 107.48 133.61 107.572 133.608 107.667C133.605 107.763 133.631 107.858 133.685 107.937C133.739 108.017 133.817 108.077 133.907 108.11C133.979 108.141 134.059 108.151 134.136 108.141C134.214 108.131 134.288 108.1 134.35 108.052C134.439 107.99 134.506 107.903 134.543 107.802C134.543 107.725 134.543 107.676 134.543 107.676C134.552 107.718 134.552 107.76 134.543 107.802C134.534 107.86 134.513 107.915 134.481 107.965C134.45 108.015 134.408 108.058 134.36 108.091C134.282 108.151 134.189 108.188 134.091 108.197C133.993 108.206 133.895 108.188 133.807 108.143C133.719 108.099 133.646 108.031 133.595 107.946C133.545 107.862 133.519 107.765 133.521 107.667C133.522 107.558 133.557 107.452 133.621 107.364C133.685 107.275 133.775 107.21 133.878 107.175C133.96 107.146 134.049 107.138 134.135 107.153C134.222 107.168 134.302 107.206 134.37 107.262C134.461 107.334 134.523 107.437 134.543 107.551C134.552 107.592 134.552 107.635 134.543 107.676Z" fill="#263238"/>
<path d="M134.031 108.275C133.965 108.289 133.896 108.289 133.829 108.275C133.712 108.234 133.611 108.158 133.54 108.057C133.468 107.956 133.43 107.835 133.43 107.711C133.43 107.587 133.468 107.466 133.54 107.365C133.611 107.264 133.712 107.188 133.829 107.147C133.924 107.112 134.027 107.103 134.126 107.119C134.226 107.136 134.32 107.179 134.398 107.244C134.5 107.331 134.571 107.449 134.6 107.581C134.61 107.625 134.61 107.671 134.6 107.716C134.605 107.764 134.605 107.812 134.6 107.86C134.567 107.99 134.493 108.105 134.388 108.188C134.282 108.255 134.157 108.285 134.031 108.275ZM134.031 107.311C133.987 107.302 133.941 107.302 133.897 107.311C133.822 107.34 133.757 107.39 133.711 107.455C133.665 107.52 133.639 107.597 133.636 107.677C133.637 107.757 133.661 107.836 133.706 107.902C133.75 107.969 133.813 108.021 133.887 108.053C133.95 108.077 134.018 108.085 134.086 108.077C134.153 108.069 134.217 108.044 134.272 108.005C134.35 107.953 134.404 107.874 134.427 107.783C134.435 107.758 134.435 107.731 134.427 107.706C134.425 107.677 134.425 107.648 134.427 107.619C134.396 107.533 134.343 107.457 134.272 107.398C134.211 107.334 134.129 107.293 134.041 107.282L134.031 107.311Z" fill="#263238"/>
<path d="M136.817 101.786C136.814 102.068 136.726 102.342 136.567 102.575C136.408 102.807 136.183 102.987 135.921 103.092C135.66 103.196 135.373 103.221 135.098 103.163C134.822 103.105 134.57 102.967 134.372 102.766C134.175 102.564 134.042 102.309 133.99 102.032C133.937 101.755 133.968 101.469 134.078 101.21C134.188 100.95 134.372 100.729 134.608 100.574C134.843 100.42 135.119 100.338 135.401 100.34C135.589 100.341 135.775 100.38 135.948 100.453C136.121 100.527 136.278 100.634 136.41 100.768C136.542 100.902 136.645 101.062 136.715 101.236C136.785 101.411 136.82 101.598 136.817 101.786Z" fill="#263238"/>
<path d="M135.431 102.547C135.413 102.306 135.413 102.065 135.431 101.824C135.426 101.572 135.445 101.32 135.489 101.072C135.524 101.322 135.524 101.575 135.489 101.824C135.487 102.066 135.471 102.307 135.441 102.547C135.437 102.547 135.434 102.547 135.431 102.547Z" fill="white"/>
<path d="M136.201 101.872C135.951 101.896 135.699 101.896 135.449 101.872C135.199 101.885 134.95 101.862 134.707 101.805C134.954 101.781 135.202 101.781 135.449 101.805C135.701 101.794 135.954 101.816 136.201 101.872Z" fill="white"/>
<path d="M107.346 105.103C107.346 105.238 102.816 105.354 97.2267 105.354C91.637 105.354 87.117 105.238 87.117 105.103C87.117 104.968 91.6466 104.853 97.2267 104.853C102.807 104.853 107.346 104.968 107.346 105.103Z" fill="#066FA4"/>
<path d="M136.605 121.165H23.6637C21.3058 121.165 19.3943 123.077 19.3943 125.436V169.133C19.3943 171.492 21.3058 173.405 23.6637 173.405H136.605C138.963 173.405 140.875 171.492 140.875 169.133V125.436C140.875 123.077 138.963 121.165 136.605 121.165Z" fill="#F5F5F5"/>
<path d="M23.2393 121.252H81.1316V173.405H23.2393C22.2169 173.405 21.2364 172.998 20.5134 172.275C19.7905 171.552 19.3843 170.571 19.3843 169.548V125.109C19.3843 124.086 19.7905 123.105 20.5134 122.382C21.2364 121.658 22.2169 121.252 23.2393 121.252Z" fill="white"/>
<path d="M81.266 173.811C81.1311 173.811 81.0154 162.241 81.0154 147.865C81.0154 133.489 81.1311 121.909 81.266 121.909C81.401 121.909 81.5166 133.479 81.5166 147.865C81.5166 162.251 81.401 173.811 81.266 173.811Z" fill="#E0E0E0"/>
<path d="M136.624 173.406C136.624 173.406 136.923 173.406 137.492 173.29C138.329 173.103 139.091 172.67 139.68 172.046C140.11 171.587 140.438 171.041 140.643 170.446C140.834 169.713 140.9 168.954 140.836 168.199C140.836 166.531 140.836 164.622 140.836 162.472C140.836 153.852 140.788 141.404 140.759 126.016C140.779 125.545 140.75 125.073 140.672 124.608C140.523 123.909 140.195 123.261 139.721 122.727C139.246 122.193 138.641 121.791 137.964 121.561C136.99 121.346 135.99 121.278 134.996 121.359H118.718H89.8056H23.6347C22.9428 121.359 22.2624 121.536 21.6584 121.873C21.0543 122.211 20.5469 122.698 20.1845 123.287C19.8341 123.872 19.6353 124.535 19.6062 125.216V136.024C19.6062 141.752 19.6062 147.382 19.6062 152.917V169.212C19.6399 170.16 20.0059 171.066 20.6403 171.771C21.2746 172.476 22.1368 172.935 23.0757 173.068C23.6732 173.145 24.3575 173.068 25.0032 173.068H32.7132L86.7602 173.126L123.199 173.203H133.107H135.68H136.557H135.68H133.107L123.199 173.252L86.7602 173.329L32.7132 173.387H25.0032C24.3419 173.42 23.6792 173.42 23.0179 173.387C21.9757 173.238 21.0188 172.728 20.3142 171.946C19.6096 171.163 19.2021 170.158 19.1629 169.106C19.1629 163.777 19.1629 158.339 19.1629 152.791V125.293C19.2029 124.118 19.6977 123.005 20.5429 122.188C21.3881 121.371 22.5174 120.915 23.6925 120.915H89.8634H118.776H131.864H136.518C137.046 120.908 137.57 120.99 138.07 121.157C138.807 121.407 139.466 121.846 139.981 122.429C140.497 123.013 140.851 123.721 141.009 124.483C141.093 124.97 141.126 125.464 141.106 125.958C141.106 141.385 141.038 153.794 141.019 162.414C141.019 164.564 141.019 166.473 141.019 168.141C141.073 168.911 140.995 169.684 140.788 170.426C140.587 171.033 140.259 171.588 139.824 172.056C139.217 172.683 138.434 173.11 137.579 173.28C137.269 173.37 136.947 173.413 136.624 173.406Z" fill="#E0E0E0"/>
<path d="M108.126 133.141C108.126 133.276 103.143 133.392 97.0043 133.392C90.8652 133.392 85.8826 133.276 85.8826 133.141C85.8826 133.006 90.8652 132.891 97.0043 132.891C103.143 132.891 108.126 132.997 108.126 133.141Z" fill="#263238"/>
<path d="M129.57 139.997C129.57 140.132 119.74 140.247 107.616 140.247C95.492 140.247 85.6522 140.132 85.6522 139.997C85.6522 139.862 95.4824 139.746 107.616 139.746C119.75 139.746 129.57 139.862 129.57 139.997Z" fill="#E0E0E0"/>
<path d="M129.57 144.017C129.57 144.162 119.74 144.268 107.616 144.268C95.492 144.268 85.6522 144.162 85.6522 144.017C85.6522 143.873 95.4824 143.767 107.616 143.767C119.75 143.767 129.57 143.882 129.57 144.017Z" fill="#E0E0E0"/>
<path d="M124.954 163.841C124.902 163.384 124.714 162.954 124.414 162.607C124.13 162.254 123.742 162.001 123.306 161.884C123.075 161.827 122.836 161.819 122.602 161.858C122.368 161.898 122.145 161.986 121.947 162.115C121.71 162.27 121.512 162.478 121.368 162.722C121.25 162.495 121.078 162.3 120.867 162.154C120.675 162.013 120.456 161.914 120.224 161.861C119.992 161.807 119.752 161.802 119.518 161.845C119.082 161.945 118.686 162.173 118.381 162.501C118.064 162.833 117.852 163.253 117.774 163.706C117.684 164.285 117.785 164.877 118.063 165.393C118.389 165.914 118.831 166.353 119.354 166.676C120.212 167.225 121.339 167.91 121.339 167.91C121.339 167.91 122.303 167.216 123.209 166.714C123.749 166.422 124.214 166.01 124.568 165.509C124.872 165.009 125.007 164.424 124.954 163.841Z" fill="#066FA4"/>
<path d="M121.339 168.054H121.272C121.272 168.054 120.134 167.37 119.296 166.82C118.747 166.497 118.287 166.043 117.956 165.499C117.67 164.958 117.562 164.341 117.648 163.735C117.732 163.258 117.957 162.818 118.294 162.472C118.613 162.12 119.034 161.877 119.498 161.777C119.748 161.732 120.005 161.738 120.253 161.792C120.501 161.847 120.736 161.95 120.944 162.096C121.11 162.225 121.256 162.377 121.378 162.549C121.509 162.352 121.68 162.185 121.879 162.057C122.313 161.787 122.836 161.7 123.334 161.816C123.795 161.937 124.204 162.204 124.5 162.578C124.823 162.94 125.022 163.396 125.069 163.879C125.13 164.485 124.991 165.095 124.674 165.615C124.311 166.139 123.828 166.568 123.267 166.868C122.399 167.36 121.416 168.045 121.407 168.054H121.339ZM119.836 161.932C119.739 161.922 119.643 161.922 119.547 161.932C119.131 162.025 118.754 162.244 118.467 162.558C118.162 162.869 117.96 163.266 117.889 163.696C117.807 164.249 117.905 164.814 118.168 165.306C118.479 165.814 118.909 166.237 119.421 166.54C120.144 167.003 121.079 167.582 121.349 167.736C121.59 167.572 122.418 167.003 123.161 166.579C123.69 166.305 124.144 165.905 124.481 165.412C124.778 164.938 124.907 164.378 124.847 163.821C124.805 163.388 124.626 162.979 124.336 162.655C124.075 162.318 123.709 162.077 123.296 161.97C123.082 161.918 122.859 161.91 122.642 161.946C122.425 161.983 122.218 162.063 122.033 162.182C121.811 162.327 121.626 162.522 121.493 162.751L121.387 162.944L121.291 162.751C121.173 162.543 121.012 162.362 120.819 162.221C120.53 162.022 120.186 161.921 119.836 161.932Z" fill="#263238"/>
<path d="M135.082 166.714H133.646H130.09L130.013 166.126C129.791 164.4 129.599 162.867 129.473 161.854H128.51H129.473L130.042 166.116C130.042 166.319 130.09 166.521 130.119 166.704L133.675 166.753H134.726H135.111L135.082 166.714Z" fill="#263238"/>
<path d="M133.637 166.801H130.062C130.045 166.801 130.029 166.795 130.017 166.784C130.005 166.774 129.996 166.759 129.994 166.743L129.377 161.922H128.269C128.173 161.922 128.105 161.922 128.105 161.845C128.105 161.768 128.173 161.768 128.269 161.768H129.464C129.464 161.768 129.551 161.768 129.551 161.835L130.129 166.212C130.129 166.338 130.129 166.473 130.177 166.598L134.996 166.666C135.112 166.666 135.169 166.666 135.169 166.752C135.169 166.839 135.112 166.82 134.996 166.83H133.647L133.637 166.801Z" fill="#263238"/>
<path d="M129.965 165.605H131.41H135.092C135.207 164.978 135.333 164.313 135.458 163.618C135.525 163.262 135.593 162.915 135.651 162.577H131.304H130.022H131.304H135.651C135.593 162.905 135.525 163.262 135.458 163.609C135.323 164.303 135.198 164.978 135.082 165.595L131.401 165.547H130.331H129.955L129.965 165.605Z" fill="#263238"/>
<path d="M135.122 165.787L130.015 165.71C129.937 165.71 129.918 165.662 129.918 165.633C129.913 165.617 129.913 165.601 129.918 165.585C129.918 165.585 129.918 165.585 129.995 165.585H131.422H135.016L135.537 162.779L129.61 162.692C129.61 162.692 129.504 162.692 129.504 162.615C129.504 162.538 129.581 162.538 129.61 162.538H131.325H135.71H135.768C135.772 162.547 135.775 162.557 135.775 162.567C135.775 162.577 135.772 162.587 135.768 162.596L135.566 163.676C135.489 164.119 135.402 164.553 135.325 164.968L135.19 165.681C135.19 165.681 135.161 165.787 135.122 165.787Z" fill="#263238"/>
<path d="M131.334 168.035C131.334 168.035 131.334 168.035 131.334 167.919C131.304 167.814 131.24 167.722 131.151 167.659C131.081 167.605 130.999 167.572 130.911 167.562C130.824 167.553 130.736 167.568 130.657 167.606C130.578 167.644 130.511 167.704 130.464 167.778C130.416 167.852 130.391 167.937 130.389 168.025C130.391 168.121 130.421 168.215 130.476 168.294C130.531 168.373 130.608 168.434 130.698 168.468C130.771 168.496 130.849 168.505 130.927 168.495C131.004 168.485 131.078 168.456 131.141 168.41C131.23 168.351 131.295 168.262 131.324 168.16C131.324 168.083 131.324 168.035 131.324 168.035C131.333 168.076 131.333 168.119 131.324 168.16C131.298 168.274 131.233 168.376 131.141 168.449C131.063 168.509 130.97 168.546 130.872 168.555C130.774 168.565 130.676 168.546 130.588 168.502C130.5 168.457 130.427 168.389 130.376 168.304C130.326 168.22 130.3 168.123 130.303 168.025C130.303 167.916 130.338 167.81 130.402 167.722C130.466 167.634 130.556 167.568 130.659 167.533C130.742 167.505 130.83 167.497 130.916 167.513C131.002 167.528 131.083 167.565 131.151 167.62C131.242 167.692 131.304 167.795 131.324 167.909C131.336 167.95 131.339 167.993 131.334 168.035Z" fill="#263238"/>
<path d="M130.842 168.632C130.775 168.646 130.706 168.646 130.639 168.632C130.522 168.591 130.42 168.514 130.349 168.412C130.278 168.31 130.241 168.188 130.244 168.064C130.245 167.94 130.285 167.82 130.358 167.72C130.43 167.62 130.532 167.545 130.649 167.505C130.744 167.47 130.846 167.46 130.946 167.477C131.046 167.494 131.139 167.537 131.217 167.601C131.32 167.688 131.391 167.807 131.42 167.938C131.425 167.983 131.425 168.028 131.42 168.073C131.43 168.121 131.43 168.17 131.42 168.218C131.397 168.349 131.324 168.466 131.217 168.545C131.105 168.615 130.973 168.646 130.842 168.632ZM130.842 167.668C130.797 167.66 130.751 167.66 130.707 167.668C130.632 167.697 130.567 167.747 130.521 167.812C130.475 167.877 130.449 167.955 130.446 168.035C130.446 168.115 130.47 168.194 130.514 168.261C130.559 168.328 130.623 168.38 130.697 168.411C130.761 168.434 130.829 168.442 130.896 168.433C130.963 168.425 131.027 168.401 131.083 168.362C131.16 168.31 131.215 168.231 131.237 168.141C131.24 168.115 131.24 168.089 131.237 168.064C131.244 168.035 131.244 168.005 131.237 167.977C131.214 167.887 131.159 167.808 131.083 167.755C131.052 167.721 131.015 167.693 130.974 167.673C130.932 167.653 130.887 167.642 130.842 167.64V167.668Z" fill="#263238"/>
<path d="M134.543 168.064C134.543 168.064 134.543 168.064 134.543 167.948C134.509 167.846 134.445 167.755 134.36 167.688C134.296 167.643 134.223 167.614 134.146 167.602C134.069 167.59 133.991 167.597 133.917 167.621C133.828 167.654 133.751 167.713 133.696 167.79C133.641 167.867 133.61 167.96 133.608 168.055C133.605 168.151 133.632 168.245 133.685 168.325C133.739 168.405 133.817 168.465 133.907 168.498C133.979 168.528 134.059 168.539 134.137 168.529C134.214 168.519 134.288 168.488 134.35 168.44C134.439 168.378 134.506 168.291 134.543 168.189C134.543 168.112 134.543 168.064 134.543 168.064C134.552 168.105 134.552 168.148 134.543 168.189C134.535 168.248 134.514 168.304 134.483 168.354C134.451 168.404 134.409 168.446 134.36 168.479C134.293 168.535 134.212 168.572 134.125 168.585C134.038 168.599 133.95 168.589 133.869 168.556C133.765 168.521 133.675 168.453 133.612 168.363C133.55 168.272 133.518 168.164 133.522 168.055C133.522 167.946 133.557 167.84 133.621 167.751C133.685 167.663 133.775 167.597 133.878 167.563C133.961 167.533 134.049 167.526 134.135 167.541C134.222 167.556 134.302 167.594 134.37 167.65C134.461 167.721 134.523 167.824 134.543 167.939C134.552 167.98 134.552 168.023 134.543 168.064Z" fill="#263238"/>
<path d="M134.031 168.662C133.965 168.675 133.896 168.675 133.829 168.662C133.712 168.621 133.611 168.544 133.54 168.443C133.468 168.342 133.43 168.222 133.43 168.098C133.43 167.974 133.468 167.853 133.54 167.752C133.611 167.651 133.712 167.575 133.829 167.534C133.924 167.499 134.027 167.489 134.126 167.506C134.226 167.523 134.32 167.566 134.398 167.63C134.5 167.718 134.571 167.836 134.6 167.968C134.61 168.015 134.61 168.064 134.6 168.112C134.605 168.157 134.605 168.202 134.6 168.247C134.567 168.377 134.493 168.492 134.388 168.575C134.282 168.642 134.157 168.672 134.031 168.662ZM134.031 167.698C133.987 167.689 133.941 167.689 133.897 167.698C133.822 167.729 133.758 167.781 133.711 167.848C133.665 167.914 133.639 167.993 133.636 168.074C133.635 168.153 133.659 168.231 133.704 168.296C133.749 168.362 133.813 168.412 133.887 168.44C133.949 168.469 134.018 168.48 134.087 168.471C134.155 168.463 134.219 168.435 134.272 168.392C134.347 168.341 134.402 168.266 134.427 168.18C134.434 168.151 134.434 168.121 134.427 168.093C134.425 168.064 134.425 168.035 134.427 168.006C134.396 167.92 134.343 167.843 134.272 167.785C134.208 167.724 134.128 167.684 134.041 167.669L134.031 167.698Z" fill="#263238"/>
<path d="M136.817 162.173C136.815 162.455 136.73 162.731 136.572 162.964C136.413 163.198 136.189 163.379 135.928 163.485C135.667 163.592 135.38 163.618 135.103 163.561C134.827 163.504 134.574 163.366 134.376 163.166C134.178 162.965 134.043 162.709 133.99 162.432C133.937 162.155 133.967 161.868 134.077 161.608C134.187 161.348 134.371 161.127 134.607 160.972C134.842 160.816 135.119 160.734 135.401 160.736C135.588 160.738 135.773 160.776 135.946 160.849C136.118 160.922 136.275 161.028 136.406 161.161C136.538 161.295 136.642 161.453 136.712 161.626C136.783 161.8 136.819 161.986 136.817 162.173Z" fill="#263238"/>
<path d="M135.431 162.934C135.413 162.693 135.413 162.451 135.431 162.211C135.426 161.959 135.445 161.707 135.489 161.459C135.524 161.708 135.524 161.961 135.489 162.211C135.487 162.452 135.471 162.694 135.441 162.934C135.437 162.934 135.434 162.934 135.431 162.934Z" fill="white"/>
<path d="M136.201 162.259C135.951 162.283 135.699 162.283 135.449 162.259C135.2 162.266 134.952 162.247 134.707 162.201C134.953 162.169 135.203 162.169 135.449 162.201C135.701 162.193 135.953 162.212 136.201 162.259Z" fill="white"/>
<path d="M107.346 165.49C103.979 165.744 100.602 165.828 97.2267 165.74C93.8547 165.827 90.4805 165.744 87.117 165.49C87.117 165.355 91.6466 165.239 97.2267 165.239C102.807 165.239 107.346 165.355 107.346 165.49Z" fill="#263238"/>
<path d="M136.605 180.811H23.6637C21.3058 180.811 19.3943 182.723 19.3943 185.082V228.779C19.3943 231.138 21.3058 233.05 23.6637 233.05H136.605C138.963 233.05 140.875 231.138 140.875 228.779V185.082C140.875 182.723 138.963 180.811 136.605 180.811Z" fill="#F5F5F5"/>
<path d="M23.2393 180.896H81.1316V233.049H23.2393C22.2169 233.049 21.2364 232.643 20.5134 231.92C19.7905 231.196 19.3843 230.215 19.3843 229.193V184.744C19.3869 183.722 19.7942 182.744 20.5168 182.023C21.2395 181.301 22.2186 180.896 23.2393 180.896Z" fill="white"/>
<path d="M81.266 233.454C81.1311 233.454 81.0154 221.835 81.0154 207.508C81.0154 193.18 81.1311 181.552 81.266 181.552C81.401 181.552 81.5166 193.17 81.5166 207.508C81.5166 221.845 81.401 233.454 81.266 233.454Z" fill="#E0E0E0"/>
<path d="M136.624 233.098C136.624 233.098 136.923 233.098 137.492 232.982C138.215 232.819 138.883 232.471 139.432 231.972C139.981 231.474 140.391 230.842 140.624 230.138C140.815 229.402 140.88 228.639 140.817 227.882C140.817 226.223 140.817 224.314 140.817 222.164C140.817 213.544 140.769 201.097 140.74 185.708C140.76 185.237 140.731 184.765 140.653 184.301C140.504 183.602 140.176 182.953 139.701 182.419C139.226 181.885 138.621 181.483 137.945 181.254C136.972 181.035 135.971 180.963 134.976 181.042H118.718H89.8056H23.6347C22.595 181.038 21.5944 181.438 20.8432 182.157C20.092 182.877 19.6486 183.859 19.6062 184.898V195.707C19.6062 201.425 19.6062 207.065 19.6062 212.599V228.894C19.6329 229.521 19.8053 230.134 20.1097 230.683C20.4142 231.232 20.8424 231.702 21.3602 232.057C21.8725 232.409 22.4599 232.637 23.0757 232.722C23.6732 232.789 24.3575 232.722 25.0032 232.722H32.7132L86.7602 232.77L123.199 232.857H133.107H135.68H136.557H135.68H133.107L123.199 232.905L86.7602 232.982L32.7132 233.04H25.0032C24.3411 233.062 23.6782 233.046 23.0179 232.992C21.975 232.849 21.0161 232.342 20.3106 231.561C19.6052 230.779 19.1987 229.773 19.1629 228.721C19.1629 223.392 19.1629 217.954 19.1629 212.407V184.889C19.2053 183.715 19.7012 182.605 20.5462 181.79C21.3911 180.975 22.5191 180.52 23.6925 180.521H89.8634H118.776H136.518C137.046 180.514 137.57 180.595 138.07 180.762C138.805 181.013 139.463 181.45 139.978 182.032C140.493 182.613 140.849 183.318 141.009 184.079C141.093 184.569 141.126 185.067 141.106 185.564C141.106 200.991 141.038 213.4 141.019 222.02C141.019 224.17 141.019 226.079 141.019 227.737C141.074 228.51 140.996 229.286 140.788 230.032C140.585 230.637 140.256 231.192 139.824 231.661C139.215 232.285 138.432 232.711 137.579 232.886C137.271 232.998 136.95 233.069 136.624 233.098Z" fill="#E0E0E0"/>
<path d="M108.126 192.775C108.126 192.92 103.143 193.035 97.0043 193.035C90.8652 193.035 85.8826 192.92 85.8826 192.775C85.8826 192.63 90.8652 192.524 97.0043 192.524C103.143 192.524 108.126 192.602 108.126 192.775Z" fill="#263238"/>
<path d="M129.57 199.641C129.57 199.776 119.74 199.892 107.616 199.892C95.492 199.892 85.6522 199.776 85.6522 199.641C85.6522 199.506 95.4824 199.391 107.616 199.391C119.75 199.391 129.57 199.497 129.57 199.641Z" fill="#E0E0E0"/>
<path d="M129.57 203.662C129.57 203.797 119.74 203.912 107.616 203.912C95.492 203.912 85.6522 203.797 85.6522 203.662C85.6522 203.527 95.4824 203.411 107.616 203.411C119.75 203.411 129.57 203.527 129.57 203.662Z" fill="#E0E0E0"/>
<path d="M124.953 223.456C124.9 223 124.712 222.571 124.414 222.222C124.127 221.875 123.74 221.626 123.305 221.509C122.937 221.418 122.548 221.451 122.2 221.603C121.852 221.754 121.563 222.016 121.378 222.347C121.26 222.117 121.088 221.919 120.877 221.769C120.684 221.63 120.465 221.532 120.233 221.481C120.001 221.43 119.761 221.426 119.528 221.47C119.088 221.561 118.69 221.791 118.39 222.126C118.071 222.457 117.86 222.877 117.783 223.331C117.694 223.91 117.795 224.502 118.072 225.018C118.399 225.539 118.84 225.978 119.364 226.301L121.349 227.535C121.349 227.535 122.313 226.831 123.219 226.339C123.761 226.047 124.227 225.631 124.578 225.124C124.878 224.623 125.01 224.038 124.953 223.456Z" fill="#066FA4"/>
<path d="M121.339 227.689H121.272C121.272 227.689 120.134 226.995 119.296 226.455C118.751 226.128 118.291 225.675 117.956 225.134C117.67 224.593 117.562 223.975 117.648 223.369C117.73 222.892 117.955 222.452 118.294 222.106C118.612 221.752 119.033 221.506 119.498 221.402C119.749 221.359 120.006 221.365 120.254 221.422C120.502 221.478 120.737 221.583 120.944 221.73C121.11 221.856 121.256 222.005 121.378 222.174C121.512 221.983 121.683 221.819 121.879 221.692C122.093 221.556 122.332 221.464 122.581 221.421C122.831 221.378 123.087 221.385 123.334 221.441C123.793 221.567 124.2 221.834 124.5 222.203C124.807 222.555 125.002 222.992 125.059 223.456C125.121 224.065 124.982 224.678 124.664 225.201C124.301 225.722 123.818 226.148 123.257 226.445C122.39 226.937 121.407 227.631 121.397 227.641L121.339 227.689ZM119.836 221.576H119.547C119.129 221.665 118.752 221.885 118.467 222.203C118.162 222.51 117.96 222.904 117.889 223.331C117.806 223.884 117.904 224.448 118.168 224.941C118.479 225.451 118.909 225.878 119.421 226.185C120.144 226.648 121.079 227.216 121.349 227.38C121.59 227.216 122.418 226.648 123.161 226.223C123.686 225.944 124.139 225.544 124.481 225.057C124.779 224.579 124.908 224.016 124.847 223.456C124.803 223.026 124.625 222.621 124.336 222.299C124.075 221.962 123.709 221.721 123.296 221.615C122.951 221.531 122.589 221.562 122.263 221.703C121.938 221.844 121.668 222.087 121.493 222.396L121.387 222.579L121.291 222.396C121.174 222.184 121.013 222 120.819 221.856C120.529 221.66 120.185 221.562 119.836 221.576Z" fill="#263238"/>
<path d="M135.082 226.349H133.646H130.09L130.013 225.761C129.791 224.035 129.599 222.492 129.473 221.489H128.51H129.473C129.608 222.502 129.811 224.035 130.042 225.761C130.042 225.963 130.09 226.156 130.119 226.349H133.675H134.726H135.111H135.082Z" fill="#263238"/>
<path d="M133.637 226.445H130.062C130.062 226.445 129.994 226.445 129.994 226.387L129.377 221.566H128.269C128.173 221.566 128.105 221.566 128.105 221.479C128.105 221.393 128.173 221.412 128.269 221.402H129.464C129.464 221.402 129.551 221.402 129.551 221.46L130.129 225.847C130.129 225.982 130.129 226.108 130.177 226.223L134.996 226.3C135.112 226.3 135.169 226.3 135.169 226.378C135.169 226.455 135.112 226.455 134.996 226.455H133.647L133.637 226.445Z" fill="#263238"/>
<path d="M129.965 225.279H131.41H135.092C135.207 224.662 135.333 223.996 135.458 223.302L135.651 222.261H131.304H130.022H131.304H135.651C135.593 222.598 135.525 222.945 135.458 223.302C135.323 223.996 135.198 224.662 135.082 225.288L131.401 225.24H130.331H129.955L129.965 225.279Z" fill="#263238"/>
<path d="M135.122 225.433L131.441 225.384H130.371H130.015C129.947 225.384 129.918 225.384 129.918 225.307C129.913 225.292 129.913 225.275 129.918 225.259C129.93 225.252 129.943 225.249 129.957 225.249C129.97 225.249 129.984 225.252 129.995 225.259H131.422H135.016L135.537 222.444L130.718 222.386H130.043H129.61C129.542 222.386 129.504 222.386 129.504 222.318C129.504 222.251 129.581 222.241 129.6 222.241H130.043H132.597H135.71H135.768C135.773 222.25 135.776 222.26 135.776 222.27C135.776 222.28 135.773 222.29 135.768 222.299L135.566 223.379L135.19 225.384C135.186 225.399 135.177 225.411 135.164 225.42C135.152 225.429 135.137 225.433 135.122 225.433Z" fill="#263238"/>
<path d="M131.334 227.68C131.334 227.68 131.334 227.632 131.334 227.564C131.304 227.459 131.239 227.368 131.151 227.304C131.089 227.254 131.016 227.222 130.938 227.21C130.86 227.198 130.781 227.207 130.707 227.237C130.616 227.268 130.537 227.326 130.481 227.404C130.424 227.481 130.392 227.574 130.389 227.67C130.392 227.766 130.422 227.859 130.477 227.938C130.532 228.017 130.609 228.078 130.698 228.114C130.771 228.141 130.849 228.151 130.927 228.14C131.004 228.13 131.078 228.101 131.141 228.056C131.233 227.995 131.298 227.902 131.324 227.796C131.324 227.728 131.324 227.68 131.324 227.68C131.333 227.721 131.333 227.764 131.324 227.805C131.295 227.919 131.231 228.02 131.141 228.094C131.071 228.146 130.99 228.179 130.905 228.193C130.819 228.206 130.732 228.199 130.649 228.171C130.547 228.134 130.459 228.065 130.397 227.976C130.335 227.886 130.302 227.779 130.303 227.67C130.302 227.572 130.33 227.476 130.383 227.392C130.435 227.309 130.51 227.243 130.599 227.2C130.688 227.158 130.787 227.141 130.884 227.153C130.982 227.165 131.074 227.204 131.151 227.266C131.244 227.336 131.306 227.44 131.324 227.555C131.336 227.595 131.339 227.638 131.334 227.68Z" fill="#263238"/>
<path d="M130.842 228.277C130.775 228.291 130.706 228.291 130.64 228.277C130.523 228.236 130.422 228.159 130.35 228.058C130.278 227.957 130.24 227.837 130.24 227.713C130.24 227.589 130.278 227.468 130.35 227.367C130.422 227.266 130.523 227.19 130.64 227.149C130.735 227.114 130.837 227.105 130.937 227.121C131.037 227.138 131.13 227.181 131.208 227.246C131.312 227.331 131.384 227.451 131.411 227.583C131.42 227.627 131.42 227.673 131.411 227.718C131.421 227.762 131.421 227.808 131.411 227.853C131.388 227.987 131.316 228.107 131.208 228.19C131.099 228.258 130.97 228.288 130.842 228.277ZM130.842 227.313H130.707C130.632 227.34 130.566 227.39 130.52 227.456C130.473 227.521 130.448 227.599 130.447 227.679C130.448 227.759 130.472 227.838 130.516 227.904C130.561 227.971 130.624 228.023 130.697 228.055C130.761 228.078 130.829 228.086 130.896 228.078C130.963 228.069 131.027 228.045 131.083 228.007C131.157 227.951 131.211 227.874 131.237 227.785C131.24 227.756 131.24 227.727 131.237 227.698C131.245 227.673 131.245 227.646 131.237 227.621C131.228 227.576 131.21 227.533 131.183 227.494C131.157 227.456 131.123 227.424 131.083 227.4C131.017 227.341 130.93 227.31 130.842 227.313Z" fill="#263238"/>
<path d="M134.543 227.709C134.543 227.709 134.543 227.709 134.543 227.593C134.513 227.488 134.449 227.396 134.36 227.333C134.297 227.286 134.224 227.255 134.147 227.243C134.069 227.231 133.99 227.239 133.917 227.265C133.828 227.298 133.75 227.357 133.695 227.435C133.64 227.512 133.61 227.604 133.608 227.699C133.605 227.787 133.627 227.873 133.671 227.949C133.715 228.025 133.779 228.086 133.857 228.127C133.935 228.167 134.023 228.185 134.11 228.177C134.197 228.17 134.28 228.138 134.35 228.085C134.441 228.021 134.509 227.93 134.543 227.824C134.543 227.757 134.543 227.709 134.543 227.709C134.552 227.75 134.552 227.793 134.543 227.834C134.522 227.951 134.456 228.054 134.36 228.123C134.291 228.177 134.21 228.212 134.124 228.226C134.038 228.239 133.95 228.23 133.868 228.2C133.765 228.164 133.676 228.096 133.614 228.006C133.552 227.916 133.519 227.808 133.521 227.699C133.522 227.59 133.557 227.484 133.621 227.396C133.685 227.308 133.775 227.242 133.878 227.208C133.96 227.178 134.049 227.17 134.135 227.185C134.222 227.201 134.302 227.238 134.37 227.294C134.461 227.366 134.523 227.469 134.543 227.583C134.552 227.625 134.552 227.667 134.543 227.709Z" fill="#263238"/>
<path d="M134.031 228.277C133.964 228.291 133.895 228.291 133.829 228.277C133.713 228.234 133.613 228.157 133.542 228.055C133.471 227.953 133.433 227.833 133.433 227.709C133.435 227.585 133.474 227.465 133.547 227.365C133.619 227.265 133.721 227.19 133.838 227.15C133.933 227.116 134.036 227.107 134.135 227.124C134.235 227.14 134.328 227.183 134.407 227.246C134.509 227.334 134.58 227.452 134.609 227.584C134.614 227.628 134.614 227.674 134.609 227.718C134.614 227.767 134.614 227.815 134.609 227.863C134.576 227.993 134.502 228.108 134.397 228.191C134.288 228.26 134.159 228.29 134.031 228.277ZM134.031 227.314H133.896C133.821 227.341 133.755 227.391 133.709 227.456C133.662 227.522 133.637 227.6 133.636 227.68C133.637 227.76 133.661 227.838 133.705 227.905C133.75 227.972 133.813 228.024 133.886 228.056C133.95 228.079 134.018 228.087 134.085 228.078C134.152 228.07 134.216 228.046 134.272 228.008C134.347 227.954 134.402 227.875 134.426 227.786C134.432 227.761 134.432 227.734 134.426 227.709C134.424 227.68 134.424 227.651 134.426 227.622C134.398 227.535 134.344 227.457 134.272 227.4C134.206 227.348 134.125 227.317 134.041 227.314H134.031Z" fill="#263238"/>
<path d="M136.817 221.808C136.815 222.09 136.73 222.365 136.572 222.599C136.413 222.833 136.189 223.014 135.928 223.12C135.667 223.226 135.38 223.253 135.103 223.196C134.827 223.139 134.574 223.001 134.376 222.8C134.178 222.599 134.043 222.344 133.99 222.067C133.937 221.79 133.967 221.503 134.077 221.243C134.187 220.983 134.371 220.762 134.607 220.606C134.842 220.451 135.119 220.369 135.401 220.371C135.778 220.376 136.138 220.53 136.404 220.799C136.669 221.068 136.817 221.43 136.817 221.808Z" fill="#263238"/>
<path d="M135.431 222.579C135.414 222.338 135.414 222.097 135.431 221.856C135.425 221.604 135.445 221.353 135.488 221.104C135.524 221.354 135.524 221.607 135.488 221.856C135.487 222.098 135.471 222.339 135.44 222.579C135.437 222.579 135.434 222.579 135.431 222.579Z" fill="white"/>
<path d="M136.201 221.894C135.951 221.927 135.698 221.927 135.449 221.894C135.2 221.901 134.951 221.878 134.707 221.826C135.203 221.775 135.704 221.775 136.201 221.826V221.894Z" fill="white"/>
<path d="M107.346 225.134C107.346 225.269 102.816 225.385 97.2266 225.385C91.6369 225.385 87.1169 225.269 87.1169 225.134C87.1169 224.999 91.6465 224.884 97.2266 224.884C102.807 224.884 107.346 224.999 107.346 225.134Z" fill="#263238"/>
<path d="M136.605 240.821H23.6637C21.3058 240.821 19.3943 242.734 19.3943 245.093V288.79C19.3943 291.149 21.3058 293.061 23.6637 293.061H136.605C138.963 293.061 140.875 291.149 140.875 288.79V245.093C140.875 242.734 138.963 240.821 136.605 240.821Z" fill="#F5F5F5"/>
<path d="M23.2393 240.918H81.1316V293.071H23.2393C22.2169 293.071 21.2364 292.665 20.5134 291.941C19.7905 291.218 19.3843 290.237 19.3843 289.214V244.765C19.3869 243.744 19.7942 242.765 20.5168 242.044C21.2395 241.323 22.2186 240.918 23.2393 240.918Z" fill="white"/>
<path d="M81.266 293.466C81.1311 293.466 81.0154 281.847 81.0154 267.52C81.0154 253.192 81.1311 241.573 81.266 241.573C81.401 241.573 81.5166 253.143 81.5166 267.52C81.5166 281.896 81.401 293.466 81.266 293.466Z" fill="#E0E0E0"/>
<path d="M136.624 293.061C136.624 293.061 136.923 293.061 137.492 292.945C138.329 292.758 139.091 292.325 139.68 291.701C140.11 291.242 140.438 290.696 140.643 290.101C140.834 289.368 140.9 288.608 140.836 287.854C140.836 286.196 140.836 284.277 140.836 282.127C140.836 273.507 140.788 261.059 140.759 245.68C140.779 245.206 140.75 244.731 140.672 244.263C140.577 243.805 140.4 243.368 140.152 242.971C139.656 242.145 138.879 241.526 137.964 241.226C136.992 241.002 135.99 240.93 134.996 241.014H131.806H118.718H89.8056H23.6347C22.9428 241.013 22.2624 241.191 21.6584 241.528C21.0543 241.866 20.5469 242.353 20.1845 242.942C19.8341 243.527 19.6353 244.19 19.6062 244.871V255.689C19.6062 261.403 19.6062 267.031 19.6062 272.572V288.866C19.6329 289.495 19.8052 290.109 20.1096 290.659C20.414 291.21 20.8422 291.682 21.3602 292.039C21.8753 292.384 22.4617 292.608 23.0757 292.694C23.6732 292.771 24.3575 292.694 25.0032 292.742H32.7132L86.7602 292.8L123.199 292.877L133.107 292.926H135.68H136.557H135.68H133.107L123.199 292.974L86.7602 293.061L32.7132 293.109H25.0032C24.3479 293.109 23.7214 293.109 23.0179 293.061C21.9757 292.912 21.0188 292.402 20.3142 291.62C19.6096 290.837 19.2021 289.832 19.1629 288.78C19.1629 283.457 19.1629 278.01 19.1629 272.466V244.948C19.2029 243.773 19.6977 242.659 20.5429 241.843C21.3881 241.026 22.5174 240.57 23.6925 240.57H89.8634H118.776H131.864H136.518C137.305 240.547 138.083 240.733 138.774 241.109C139.464 241.485 140.043 242.038 140.451 242.711C140.718 243.147 140.907 243.627 141.009 244.128C141.093 244.618 141.126 245.116 141.106 245.613C141.106 260.992 141.038 273.439 141.019 282.059C141.019 284.209 141.019 286.128 141.019 287.787C141.073 288.556 140.995 289.329 140.788 290.072C140.59 290.679 140.261 291.235 139.824 291.701C139.22 292.332 138.436 292.76 137.579 292.926C137.269 293.019 136.947 293.064 136.624 293.061Z" fill="#E0E0E0"/>
<path d="M108.126 252.795C108.126 252.93 103.143 253.046 97.0043 253.046C90.8652 253.046 85.8826 252.93 85.8826 252.795C85.8826 252.661 90.8652 252.545 97.0043 252.545C103.143 252.545 108.126 252.661 108.126 252.795Z" fill="#263238"/>
<path d="M129.57 259.652C129.57 259.797 119.74 259.903 107.616 259.903C95.492 259.903 85.6522 259.797 85.6522 259.652C85.6522 259.507 95.4824 259.401 107.616 259.401C119.75 259.401 129.57 259.517 129.57 259.652Z" fill="#E0E0E0"/>
<path d="M129.57 263.682C129.57 263.817 119.74 263.933 107.616 263.933C95.492 263.933 85.6522 263.817 85.6522 263.682C85.6522 263.547 95.4824 263.422 107.616 263.422C119.75 263.422 129.57 263.538 129.57 263.682Z" fill="#E0E0E0"/>
<path d="M124.954 283.496C124.902 283.04 124.714 282.609 124.414 282.262C124.13 281.909 123.742 281.656 123.306 281.539C123.075 281.482 122.836 281.474 122.602 281.514C122.368 281.554 122.145 281.641 121.947 281.77C121.71 281.925 121.512 282.133 121.368 282.378C121.25 282.15 121.078 281.955 120.867 281.809C120.675 281.669 120.456 281.569 120.224 281.516C119.992 281.463 119.752 281.457 119.518 281.5C119.08 281.6 118.683 281.832 118.381 282.166C118.062 282.493 117.85 282.91 117.774 283.361C117.684 283.94 117.785 284.533 118.063 285.049C118.386 285.572 118.829 286.011 119.354 286.331C120.212 286.88 121.339 287.565 121.339 287.565C121.339 287.565 122.303 286.871 123.209 286.369C123.749 286.078 124.214 285.665 124.568 285.164C124.872 284.664 125.007 284.079 124.954 283.496Z" fill="#066FA4"/>
<path d="M121.339 287.71H121.272C121.272 287.71 120.134 287.016 119.296 286.476C118.748 286.148 118.288 285.691 117.956 285.145C117.67 284.605 117.562 283.987 117.648 283.381C117.732 282.905 117.957 282.464 118.294 282.118C118.613 281.766 119.034 281.523 119.498 281.424C119.853 281.357 120.218 281.395 120.552 281.532C120.885 281.668 121.172 281.899 121.378 282.195C121.587 281.892 121.884 281.66 122.228 281.529C122.572 281.399 122.947 281.375 123.305 281.462C123.766 281.583 124.175 281.851 124.471 282.224C124.794 282.586 124.993 283.042 125.04 283.525C125.101 284.132 124.962 284.741 124.645 285.261C124.282 285.785 123.8 286.214 123.238 286.514C122.37 287.006 121.387 287.691 121.378 287.7L121.339 287.71ZM119.836 281.597H119.547C119.131 281.691 118.754 281.909 118.467 282.224C118.162 282.534 117.96 282.932 117.889 283.362C117.806 283.914 117.904 284.479 118.168 284.972C118.479 285.479 118.909 285.903 119.421 286.206C120.144 286.678 121.079 287.247 121.349 287.401C121.59 287.238 122.418 286.669 123.161 286.244C123.69 285.971 124.144 285.57 124.481 285.078C124.778 284.604 124.907 284.043 124.847 283.487C124.795 283.061 124.621 282.66 124.345 282.331C124.07 282.003 123.705 281.761 123.296 281.636C123.082 281.585 122.86 281.578 122.643 281.615C122.426 281.651 122.219 281.73 122.033 281.848C121.811 281.993 121.626 282.187 121.493 282.417L121.387 282.609L121.291 282.417C121.173 282.208 121.012 282.027 120.819 281.886C120.53 281.687 120.186 281.586 119.836 281.597Z" fill="#263238"/>
<path d="M135.082 286.379H133.646H130.09L130.013 285.791C129.791 284.065 129.599 282.532 129.473 281.52H128.51H129.473L130.042 285.781C130.042 285.984 130.09 286.186 130.119 286.369L133.675 286.418H134.726H135.111L135.082 286.379Z" fill="#263238"/>
<path d="M133.637 286.456H130.061C130.044 286.454 130.028 286.446 130.016 286.434C130.004 286.422 129.996 286.405 129.994 286.388L129.377 281.567H128.519H128.269C128.172 281.567 128.105 281.567 128.105 281.49C128.105 281.413 128.163 281.413 128.269 281.413H129.464C129.464 281.413 129.551 281.413 129.551 281.481L130.129 285.848C130.129 285.983 130.129 286.109 130.177 286.244L134.996 286.311C135.111 286.311 135.169 286.311 135.169 286.398C135.169 286.485 135.111 286.465 134.996 286.475H133.647L133.637 286.456Z" fill="#263238"/>
<path d="M129.965 285.29H131.41H135.092C135.207 284.673 135.333 283.998 135.458 283.303L135.66 282.272L131.314 282.214H130.032H131.314H135.66C135.603 282.542 135.535 282.898 135.468 283.255C135.333 283.94 135.207 284.615 135.092 285.232L131.41 285.184H130.341H129.965V285.29Z" fill="#263238"/>
<path d="M135.122 285.444L130.015 285.366C130.015 285.366 129.918 285.367 129.918 285.289C129.913 285.274 129.913 285.257 129.918 285.241C129.943 285.232 129.97 285.232 129.995 285.241H131.422H135.016L135.537 282.426L129.976 282.349H129.61C129.61 282.349 129.504 282.349 129.504 282.271C129.504 282.194 129.504 282.194 129.61 282.194H131.325H135.71H135.768C135.772 282.203 135.775 282.213 135.775 282.223C135.775 282.233 135.772 282.243 135.768 282.252L135.566 283.332C135.489 283.776 135.402 284.209 135.325 284.634L135.19 285.338C135.19 285.338 135.161 285.444 135.122 285.444Z" fill="#263238"/>
<path d="M131.332 287.691C131.332 287.691 131.332 287.691 131.332 287.575C131.302 287.47 131.238 287.378 131.149 287.315C131.08 287.261 130.997 287.228 130.909 287.219C130.822 287.209 130.734 287.225 130.655 287.263C130.576 287.301 130.509 287.36 130.462 287.434C130.415 287.508 130.389 287.593 130.388 287.681C130.389 287.777 130.419 287.871 130.474 287.95C130.529 288.029 130.606 288.09 130.696 288.125C130.757 288.147 130.823 288.157 130.888 288.154C130.953 288.15 131.017 288.133 131.075 288.105C131.134 288.076 131.186 288.035 131.229 287.986C131.271 287.936 131.303 287.878 131.322 287.816C131.322 287.739 131.322 287.691 131.322 287.691C131.331 287.732 131.331 287.775 131.322 287.816C131.296 287.93 131.231 288.032 131.139 288.105C131.072 288.162 130.991 288.199 130.904 288.212C130.818 288.226 130.729 288.215 130.648 288.182C130.544 288.147 130.454 288.079 130.391 287.989C130.329 287.899 130.297 287.791 130.301 287.681C130.301 287.572 130.336 287.466 130.4 287.378C130.464 287.29 130.554 287.224 130.657 287.19C130.74 287.161 130.829 287.154 130.915 287.169C131.001 287.184 131.081 287.221 131.149 287.276C131.24 287.348 131.302 287.451 131.322 287.566C131.334 287.606 131.338 287.649 131.332 287.691Z" fill="#263238"/>
<path d="M130.842 288.287C130.775 288.301 130.706 288.301 130.639 288.287C130.522 288.247 130.42 288.17 130.349 288.068C130.278 287.965 130.241 287.843 130.244 287.719C130.246 287.608 130.279 287.5 130.338 287.406C130.398 287.313 130.483 287.238 130.583 287.19C130.683 287.142 130.795 287.122 130.905 287.134C131.015 287.146 131.12 287.188 131.208 287.256C131.31 287.344 131.381 287.462 131.41 287.594C131.42 287.638 131.42 287.684 131.41 287.729C131.421 287.776 131.421 287.825 131.41 287.873C131.387 288.004 131.315 288.121 131.208 288.201C131.098 288.268 130.97 288.299 130.842 288.287ZM130.842 287.324C130.797 287.315 130.751 287.315 130.707 287.324C130.632 287.352 130.567 287.402 130.521 287.467C130.475 287.533 130.449 287.61 130.446 287.69C130.446 287.77 130.47 287.849 130.514 287.916C130.559 287.983 130.623 288.035 130.697 288.066C130.761 288.089 130.829 288.097 130.896 288.089C130.963 288.08 131.027 288.056 131.083 288.018C131.16 287.965 131.215 287.886 131.237 287.796C131.24 287.77 131.24 287.744 131.237 287.719C131.244 287.69 131.244 287.661 131.237 287.632C131.214 287.542 131.159 287.463 131.083 287.41C131.018 287.345 130.933 287.304 130.842 287.295V287.324Z" fill="#263238"/>
<path d="M134.543 287.729C134.543 287.729 134.543 287.681 134.543 287.604C134.508 287.501 134.445 287.411 134.36 287.344C134.296 287.299 134.223 287.269 134.146 287.257C134.069 287.246 133.991 287.252 133.917 287.276C133.826 287.309 133.747 287.37 133.692 287.449C133.637 287.528 133.607 287.623 133.607 287.719C133.607 287.816 133.637 287.91 133.692 287.99C133.747 288.069 133.826 288.129 133.917 288.163C133.99 288.189 134.068 288.197 134.145 288.187C134.222 288.177 134.296 288.149 134.36 288.105C134.447 288.038 134.514 287.948 134.553 287.845C134.553 287.768 134.553 287.729 134.553 287.729C134.561 287.77 134.561 287.813 134.553 287.854C134.532 287.971 134.466 288.075 134.37 288.143C134.3 288.195 134.219 288.229 134.133 288.242C134.048 288.255 133.96 288.248 133.878 288.221C133.776 288.183 133.687 288.115 133.625 288.025C133.563 287.935 133.53 287.828 133.531 287.719C133.532 287.61 133.567 287.503 133.631 287.413C133.695 287.324 133.784 287.256 133.888 287.218C133.97 287.189 134.059 287.181 134.145 287.196C134.231 287.211 134.312 287.249 134.379 287.305C134.473 287.378 134.536 287.486 134.553 287.604C134.558 287.646 134.555 287.688 134.543 287.729Z" fill="#263238"/>
<path d="M134.031 288.317H133.829C133.711 288.273 133.61 288.194 133.539 288.09C133.469 287.987 133.432 287.864 133.433 287.738C133.436 287.615 133.476 287.496 133.549 287.396C133.621 287.296 133.722 287.221 133.838 287.179C133.934 287.146 134.037 287.138 134.137 287.156C134.237 287.175 134.33 287.219 134.407 287.286C134.51 287.368 134.582 287.484 134.609 287.613C134.619 287.661 134.619 287.71 134.609 287.758C134.614 287.803 134.614 287.848 134.609 287.893C134.577 288.022 134.502 288.137 134.397 288.22C134.289 288.293 134.16 288.327 134.031 288.317ZM134.031 287.353H133.896C133.821 287.384 133.757 287.436 133.711 287.503C133.665 287.569 133.639 287.648 133.636 287.729C133.637 287.809 133.661 287.887 133.705 287.954C133.75 288.021 133.813 288.073 133.886 288.105C133.94 288.123 133.996 288.13 134.052 288.126C134.108 288.123 134.162 288.108 134.213 288.083C134.263 288.057 134.308 288.023 134.344 287.98C134.381 287.938 134.409 287.888 134.426 287.835C134.433 287.806 134.433 287.777 134.426 287.748C134.424 287.719 134.424 287.69 134.426 287.661C134.396 287.575 134.342 287.498 134.272 287.44C134.208 287.379 134.127 287.339 134.041 287.324L134.031 287.353Z" fill="#263238"/>
<path d="M136.817 281.827C136.815 282.11 136.73 282.385 136.572 282.618C136.413 282.852 136.189 283.033 135.928 283.14C135.667 283.246 135.38 283.272 135.103 283.215C134.827 283.158 134.574 283.021 134.376 282.82C134.178 282.619 134.043 282.364 133.99 282.087C133.937 281.809 133.967 281.523 134.077 281.263C134.187 281.003 134.371 280.781 134.607 280.626C134.842 280.471 135.119 280.389 135.401 280.391C135.588 280.392 135.773 280.43 135.946 280.503C136.118 280.576 136.275 280.682 136.406 280.815C136.538 280.949 136.642 281.107 136.712 281.28C136.783 281.454 136.819 281.64 136.817 281.827Z" fill="#263238"/>
<path d="M135.431 282.599C135.413 282.358 135.413 282.116 135.431 281.876C135.425 281.627 135.444 281.379 135.489 281.134C135.524 281.383 135.524 281.636 135.489 281.886C135.487 282.124 135.471 282.362 135.441 282.599H135.431Z" fill="white"/>
<path d="M136.201 281.915C135.951 281.938 135.699 281.938 135.449 281.915C135.2 281.921 134.951 281.902 134.707 281.857C134.953 281.821 135.203 281.821 135.449 281.857C135.701 281.851 135.952 281.871 136.201 281.915Z" fill="white"/>
<path d="M107.346 285.165C103.979 285.419 100.602 285.502 97.2266 285.415C93.8547 285.502 90.4805 285.419 87.1169 285.165C87.1169 285.03 91.6465 284.914 97.2266 284.914C102.807 284.914 107.346 285.01 107.346 285.165Z" fill="#263238"/>
<path d="M35.2197 134.278C35.2197 134.278 27.5097 152.01 27.9241 161.642L47.9026 167.658L51.3143 161.169L54.2055 167.658C54.2055 167.658 69.6255 163.888 73.8274 160.118C73.8274 160.118 69.7411 139.388 66.5511 134.355C66.5511 134.355 68.5365 130.171 66.9945 129.959C65.4525 129.747 62.9467 130.171 61.0578 129.959C59.1688 129.747 58.5424 130.258 56.239 129.901C53.9357 129.544 54.1381 132.475 51.3143 131.829C48.4905 131.183 48.4809 130.595 45.5318 129.853C42.5827 129.11 40.9444 131.444 39.0747 130.817C37.7388 130.426 36.3763 130.133 34.9981 129.939C34.482 129.85 33.9512 129.962 33.5154 130.253C33.0795 130.543 32.772 130.99 32.6561 131.501C32.6191 131.599 32.6038 131.704 32.6112 131.808C32.6185 131.913 32.6484 132.014 32.6988 132.106C32.7492 132.197 32.8189 132.277 32.903 132.339C32.9872 132.401 33.0838 132.444 33.1862 132.466C33.6358 132.603 34.0504 132.836 34.4014 133.149C34.7524 133.462 35.0316 133.847 35.2197 134.278Z" fill="#263238"/>
<path d="M62.4161 130.238C62.5188 131.023 62.3703 131.819 61.9921 132.514C61.6989 133.248 61.1876 133.874 60.5272 134.307C60.9647 133.688 61.3669 133.044 61.7318 132.379C62.0035 131.68 62.232 130.965 62.4161 130.238Z" fill="#263238"/>
<path d="M51.0822 143.66C50.9646 143.559 50.858 143.446 50.7641 143.322L49.9353 142.358L47.0441 138.935H47.2368L43.3818 143.756V143.573L43.4878 143.708L47.2657 148.616H47.073L49.9642 145.038C50.3015 144.624 50.5714 144.286 50.7931 144.074C50.8859 143.941 50.9925 143.818 51.1111 143.708C51.0378 143.834 50.9574 143.957 50.8702 144.074L50.1088 145.106L47.3139 148.808L47.2175 148.943L47.1212 148.808L43.2662 143.93L43.1698 143.795L43.1024 143.708L43.1698 143.621L47.0826 138.8L47.179 138.675L47.2754 138.8L50.0702 142.358L50.8316 143.322C50.9208 143.43 51.0044 143.543 51.0822 143.66Z" fill="#FAFAFA"/>
<path d="M65.6634 140.594C65.5505 140.484 65.4443 140.368 65.3453 140.247L64.5261 139.282L61.6349 135.85H61.8276L57.9727 140.671V140.536L58.0787 140.661L61.8566 145.569H61.6638L64.5551 141.992L65.3839 141.027C65.4815 140.901 65.5878 140.782 65.7019 140.671C65.6343 140.798 65.5536 140.917 65.461 141.027L64.6996 142.059L61.9047 145.771L61.8084 145.897L61.712 145.771L57.857 140.883L57.7606 140.758L57.6932 140.661L57.7606 140.574L61.6734 135.753L61.7698 135.638L61.8662 135.753L64.6611 139.311L65.4224 140.275C65.5102 140.376 65.5908 140.482 65.6634 140.594Z" fill="#FAFAFA"/>
<path d="M54.908 130.238C55.8035 131.158 56.6283 132.144 57.3752 133.189H57.1728L57.2403 133.112L57.3559 132.957L57.5969 132.658L58.0402 132.09L58.8112 131.125C59.0311 130.817 59.2903 130.538 59.5822 130.296C59.424 130.643 59.2197 130.968 58.975 131.26L58.2522 132.225C58.1109 132.404 57.9663 132.597 57.8185 132.803L57.5776 133.102L57.4619 133.256L57.4041 133.333H57.1632C56.339 132.357 55.5853 131.322 54.908 130.238Z" fill="#FAFAFA"/>
<path d="M40.6544 134.307C40.3435 134.046 40.0652 133.748 39.8256 133.42C39.3437 132.851 38.6883 132.06 37.9848 131.173L37.821 130.961H38.0523C37.5029 131.925 37.0018 132.706 36.6259 133.295C36.4447 133.62 36.2281 133.923 35.9802 134.201C36.097 133.859 36.259 133.535 36.4621 133.237C36.7898 132.62 37.262 131.79 37.8113 130.855L37.9174 130.682L38.0426 130.846L38.2065 131.048C38.91 131.945 39.5364 132.755 39.9798 133.352C40.2406 133.644 40.467 133.964 40.6544 134.307Z" fill="#FAFAFA"/>
<path d="M60.8352 155.963C60.7193 155.857 60.6129 155.741 60.5172 155.616L59.6884 154.652L56.8453 151.22H57.0284C55.9009 152.637 54.5709 154.286 53.1735 156.04V155.867L53.2795 155.992L57.0574 160.9H56.855C58.0211 159.444 58.9945 158.229 59.7462 157.323L60.575 156.359C60.6693 156.23 60.7758 156.11 60.8931 156.002C60.8208 156.126 60.7403 156.245 60.6521 156.359L59.8908 157.4L57.0959 161.102L56.9995 161.228L56.8935 161.102C55.7852 159.666 54.4745 157.998 53.0385 156.214L52.9421 156.089L52.8747 156.002L52.9421 155.915C54.3685 154.151 55.7081 152.512 56.855 151.094L56.9513 150.979L57.0381 151.094L59.8426 154.652L60.6039 155.616C60.6896 155.726 60.7669 155.842 60.8352 155.963Z" fill="#FAFAFA"/>
<path d="M43.7384 159.994C43.6195 159.89 43.5128 159.774 43.4204 159.646L42.5916 158.682L39.7003 155.25H39.8931L36.0381 160.071V159.897L36.1441 160.022L39.922 164.93H39.7293L42.6205 161.353L43.4493 160.389C43.5421 160.256 43.6487 160.133 43.7673 160.022C43.694 160.149 43.6136 160.271 43.5264 160.389L42.7651 161.421L39.9702 165.123L39.8738 165.248L39.7774 165.123L35.9224 160.235L35.8261 160.109L35.7586 160.022L35.8261 159.936L39.7389 155.115L39.8353 154.999L39.9316 155.115L42.7265 158.673L43.4879 159.637C43.5776 159.751 43.6612 159.87 43.7384 159.994Z" fill="#FAFAFA"/>
<path d="M29.3494 151.412C29.4686 151.271 29.6045 151.145 29.7542 151.036L30.9011 150.072C31.8648 149.301 33.2526 148.25 34.7561 147.102L35.315 146.678V146.861C34.4862 145.328 33.7537 143.969 33.243 143.005C32.9417 142.487 32.6838 141.945 32.472 141.385C32.8316 141.867 33.1538 142.377 33.4357 142.908C33.9947 143.872 34.756 145.222 35.5945 146.765L35.6523 146.881L35.556 146.948L34.997 147.372C33.4743 148.52 32.1057 149.551 31.0745 150.265C30.5637 150.631 30.1108 150.921 29.8698 151.113C29.7122 151.238 29.5368 151.339 29.3494 151.412Z" fill="#FAFAFA"/>
<path d="M72.7856 155.346C72.6296 155.253 72.487 155.14 72.3616 155.008C72.0918 154.787 71.7255 154.449 71.2629 154.044C70.357 153.205 69.1041 152.039 67.7356 150.727L67.6778 150.67V150.583C68.3042 148.799 68.8825 147.189 69.3162 146.032C69.5282 145.444 69.7113 144.981 69.8366 144.653C69.8909 144.482 69.9688 144.32 70.0679 144.171C70.049 144.349 70.0069 144.524 69.9426 144.692C69.8462 145.029 69.692 145.501 69.4993 146.09C69.1234 147.276 68.5355 148.895 67.9476 150.679V150.535C69.3162 151.836 70.5401 153.032 71.4171 153.909C71.8508 154.343 72.2074 154.7 72.4387 154.95C72.5711 155.067 72.6878 155.199 72.7856 155.346Z" fill="#FAFAFA"/>
<path d="M66.6853 134.191C66.5874 134.235 66.4835 134.264 66.377 134.278C66.1746 134.278 65.8758 134.394 65.471 134.442C64.3534 134.592 63.2243 134.64 62.0979 134.586C60.6619 134.538 58.9754 134.345 57.1057 134.104C55.0918 133.81 53.0598 133.655 51.0245 133.642C48.856 133.642 46.8033 133.883 44.9239 134.066C43.0446 134.249 41.3581 134.403 39.9317 134.442C38.8036 134.487 37.6738 134.461 36.549 134.365C36.1538 134.365 35.8454 134.278 35.6431 134.249C35.5352 134.242 35.4284 134.223 35.325 134.191H35.6431C35.8551 134.191 36.1635 134.239 36.5586 134.249C37.679 134.307 38.8017 134.307 39.9221 134.249C41.3388 134.181 43.0254 134.018 44.895 133.815C46.7647 133.613 48.8367 133.391 51.0245 133.362C53.0735 133.379 55.1188 133.543 57.1443 133.854C59.0043 134.114 60.6908 134.326 62.1075 134.394C63.2251 134.468 64.347 134.449 65.4614 134.336C66.2709 134.249 66.6853 134.162 66.6853 134.191Z" fill="#263238"/>
<path d="M37.6191 148.645C37.5916 148.453 37.5916 148.258 37.6191 148.067C37.6191 147.7 37.6962 147.17 37.7733 146.505C37.9835 144.787 38.2794 143.082 38.66 141.394C39.0936 139.466 39.6237 137.653 40.0188 136.39C40.2309 135.764 40.4043 135.262 40.5393 134.915C40.5942 134.728 40.6753 134.549 40.7802 134.385C40.7608 134.576 40.7154 134.765 40.6453 134.944C40.5296 135.368 40.3851 135.908 40.2116 136.458C39.8454 137.731 39.3731 139.485 38.9298 141.462C38.4865 143.438 38.1781 145.232 37.9661 146.534C37.8697 147.141 37.7926 147.652 37.7251 148.086C37.7124 148.276 37.6768 148.464 37.6191 148.645Z" fill="#263238"/>
<path d="M40.4716 143.284C40.5856 141.785 40.7916 140.294 41.0884 138.82C41.2933 137.331 41.5926 135.856 41.9846 134.404C41.8713 135.904 41.6653 137.395 41.3679 138.868C41.1629 140.358 40.8636 141.833 40.4716 143.284Z" fill="#263238"/>
<path d="M64.1515 156.406C64.0019 156.147 63.873 155.876 63.766 155.596C63.5347 155.066 63.2359 154.294 62.889 153.33C61.0783 148.282 60.0039 142.998 59.699 137.643C59.6411 136.621 59.6219 135.792 59.6315 135.213C59.607 134.918 59.607 134.621 59.6315 134.326C59.6828 134.619 59.7086 134.916 59.7086 135.213C59.7086 135.782 59.7953 136.611 59.8724 137.633C60.0786 140.289 60.4487 142.93 60.9807 145.54C61.513 148.15 62.2017 150.726 63.0432 153.253C63.3708 154.217 63.6407 155.008 63.8431 155.548C63.9683 155.825 64.0714 156.112 64.1515 156.406Z" fill="#455A64"/>
<path d="M63.5234 142.56C63.3248 142.209 63.1756 141.833 63.0801 141.442C62.8488 140.728 62.5501 139.745 62.2706 138.645C61.9911 137.546 61.7694 136.534 61.6345 135.801C61.5333 135.411 61.4815 135.009 61.4803 134.605C61.6458 134.975 61.7655 135.364 61.8369 135.762C62.0489 136.592 62.2802 137.537 62.55 138.578C62.8199 139.619 63.0608 140.554 63.2729 141.384C63.3927 141.767 63.4766 142.161 63.5234 142.56Z" fill="#455A64"/>
<path d="M49.0391 165.654C49.0391 165.654 48.962 165.654 48.8078 165.654C48.6536 165.654 48.4416 165.606 48.1621 165.548C47.3791 165.379 46.6067 165.163 45.8491 164.902C43.3709 163.971 40.9508 162.893 38.6017 161.672C36.2643 160.457 33.7797 159.55 31.2098 158.972C30.4274 158.82 29.6351 158.723 28.839 158.683C28.28 158.683 27.962 158.683 27.962 158.635H28.1933C28.3378 158.635 28.5595 158.635 28.8486 158.635C29.6533 158.632 30.4566 158.703 31.2484 158.847C33.8526 159.368 36.3703 160.254 38.727 161.479C41.5123 162.839 44.0084 164.102 45.9166 164.777C46.6615 165.058 47.4207 165.299 48.191 165.5C48.4767 165.533 48.76 165.585 49.0391 165.654Z" fill="#455A64"/>
<path d="M73.2772 157.419C73.0544 157.593 72.8192 157.751 72.5737 157.891C72.1207 158.181 71.4365 158.586 70.5884 159.058C68.3714 160.289 66.0833 161.387 63.7361 162.346C61.3845 163.301 58.9771 164.112 56.5273 164.776C55.5636 165.026 54.8215 165.219 54.2914 165.325C54.0173 165.401 53.7365 165.449 53.4529 165.47C53.7159 165.365 53.9865 165.282 54.2625 165.219C54.7829 165.075 55.5443 164.862 56.4695 164.583C58.3295 164.033 60.8834 163.194 63.6205 162.076C66.3575 160.958 68.7765 159.781 70.492 158.885L72.5159 157.795C72.7571 157.646 73.012 157.52 73.2772 157.419Z" fill="#455A64"/>
<path d="M64.1304 131.983C63.9995 132.525 63.715 133.017 63.3112 133.401C62.9693 133.839 62.5121 134.172 61.9909 134.365C61.9427 134.297 62.521 133.854 63.0992 133.198C63.6775 132.542 64.063 131.945 64.1304 131.983Z" fill="#263238"/>
<path d="M42.3502 130.499C42.4273 130.499 42.4851 131.338 42.8417 132.302C43.1983 133.266 43.6898 133.941 43.6223 133.999C43.1208 133.582 42.755 133.025 42.5719 132.398C42.3068 131.803 42.2295 131.14 42.3502 130.499Z" fill="#263238"/>
<path d="M66.0106 262.148L40.9532 262.192C39.6279 262.194 38.5554 263.271 38.5577 264.597L38.5841 279.744C38.5865 281.07 39.6627 282.143 40.988 282.141L66.0454 282.097C67.3708 282.095 68.4433 281.018 68.441 279.692L68.4146 264.545C68.4122 263.219 67.336 262.146 66.0106 262.148Z" fill="#263238"/>
<path d="M60.2764 265.88C60.2635 265.752 60.2635 265.623 60.2764 265.494L60.3342 264.405C60.4485 263.077 60.4485 261.741 60.3342 260.413C60.1727 258.452 59.37 256.598 58.0502 255.139C57.2487 254.316 56.2233 253.746 55.1011 253.5C53.8798 253.258 52.6351 253.155 51.3907 253.191C48.8464 253.191 46.331 253.712 44.6444 255.12C43.8423 255.783 43.211 256.63 42.8037 257.588C42.4437 258.427 42.2067 259.314 42.1001 260.22C41.9667 261.544 41.9667 262.878 42.1001 264.202C42.1001 264.636 42.1676 265.003 42.1869 265.292C42.2016 265.417 42.2016 265.543 42.1869 265.668C42.147 265.546 42.1212 265.42 42.1098 265.292C42.1098 265.051 42.0134 264.684 41.9556 264.212C41.7634 262.881 41.7246 261.532 41.8399 260.191C41.9271 259.256 42.1545 258.34 42.5146 257.472C42.9363 256.461 43.5978 255.567 44.4421 254.869C45.3797 254.121 46.4679 253.585 47.6321 253.297C48.8674 252.989 50.1366 252.836 51.4099 252.844C52.6809 252.806 53.952 252.916 55.1975 253.172C56.3825 253.432 57.4631 254.039 58.3007 254.917C59.6561 256.436 60.4666 258.363 60.6041 260.394C60.7086 261.733 60.6828 263.08 60.527 264.415C60.527 264.887 60.4403 265.253 60.4017 265.504C60.3756 265.634 60.3335 265.76 60.2764 265.88Z" fill="#263238"/>
<path d="M62.2431 262.049L37.1857 262.092C35.8603 262.095 34.7878 263.172 34.7901 264.497L34.8166 279.645C34.8189 280.971 35.8952 282.044 37.2205 282.041L62.2779 281.998C63.6032 281.995 64.6757 280.919 64.6734 279.593L64.647 264.445C64.6447 263.119 63.5684 262.046 62.2431 262.049Z" fill="#455A64"/>
<path d="M62.2519 282.02C62.5832 281.994 62.9083 281.916 63.2156 281.789C63.5696 281.63 63.8803 281.389 64.1215 281.085C64.4451 280.669 64.6214 280.157 64.6227 279.629C64.6227 277.19 64.5745 273.699 64.5456 269.399C64.5456 268.319 64.5456 267.182 64.5456 266.005C64.5456 265.427 64.5456 264.8 64.5456 264.212C64.5133 263.919 64.4234 263.635 64.2812 263.377C64.139 263.119 63.9471 262.891 63.7168 262.708C63.2308 262.327 62.6153 262.15 62.0013 262.216H59.9967H55.8237H37.2522C36.8654 262.21 36.4837 262.305 36.1454 262.493C35.8071 262.681 35.5241 262.954 35.3247 263.286C35.1216 263.604 35.0084 263.97 34.9971 264.347V270.296C34.9971 273.401 34.9971 276.399 34.9971 279.263C34.9782 279.587 35.0108 279.913 35.0934 280.227C35.1979 280.537 35.3652 280.823 35.585 281.066C35.8024 281.306 36.0692 281.495 36.3671 281.622C36.6649 281.748 36.9866 281.809 37.3101 281.799H48.3064H58.5414H61.317H62.0398C62.1227 281.784 62.2075 281.784 62.2904 281.799H62.0398H61.317H58.5414L48.3064 281.876H41.2422H37.3101C36.7548 281.888 36.2103 281.722 35.7572 281.401C35.3041 281.079 34.9665 280.62 34.7947 280.092C34.6924 279.735 34.6501 279.364 34.6694 278.993C34.6694 276.1 34.6694 273.131 34.6694 270.026C34.6694 268.474 34.6694 266.892 34.6694 265.282C34.6694 264.877 34.6694 264.482 34.6694 264.067C34.6817 263.63 34.8115 263.203 35.0453 262.833C35.2759 262.456 35.5986 262.144 35.9831 261.927C36.3675 261.709 36.8009 261.593 37.2426 261.589H61.9916C62.6834 261.524 63.3738 261.727 63.9191 262.158C64.1842 262.363 64.406 262.618 64.5714 262.91C64.7369 263.201 64.8428 263.522 64.8829 263.855C64.8829 264.501 64.8829 265.08 64.8829 265.677V269.071C64.8829 273.372 64.8829 276.862 64.8829 279.301C64.872 279.857 64.6752 280.394 64.3239 280.825C64.0612 281.131 63.7314 281.372 63.3602 281.529C63.0532 281.808 62.6645 281.98 62.2519 282.02Z" fill="#263238"/>
<path d="M64.266 272.147C64.266 272.292 57.6932 272.398 49.5977 272.398C41.5023 272.398 34.9295 272.292 34.9295 272.147C34.9295 272.003 41.4926 271.896 49.5977 271.896C57.7029 271.896 64.266 272.012 64.266 272.147Z" fill="#263238"/>
<path d="M49.6752 274.615C49.3411 273.065 49.3411 271.461 49.6752 269.91C50.0093 271.461 50.0093 273.065 49.6752 274.615Z" fill="#E0E0E0"/>
<path d="M27.2869 213.255C27.2869 213.255 34.7849 192.766 36.6353 191.542C38.4857 190.317 46.1764 188.148 46.1764 188.148L51.901 207.065L58.7244 187.878C58.7244 187.878 65.9428 190.057 68.0149 193.297C70.0869 196.536 75.4068 213.323 75.4068 213.323L64.0057 217.671L65.461 224.565L36.7027 224.189L38.4375 218.279L27.2869 213.255Z" fill="#066FA4"/>
<g opacity="0.3">
<path d="M42.8995 200.836C40.9445 197.593 39.9425 193.863 40.0082 190.076L37.117 191.175C37.2779 195.023 38.4406 198.762 40.4901 202.022C40.7726 202.545 41.184 202.986 41.6852 203.305C41.9398 203.455 42.238 203.514 42.5305 203.472C42.823 203.43 43.0925 203.289 43.2946 203.073C43.7765 202.437 43.3235 201.531 42.8995 200.836Z" fill="black"/>
</g>
<g opacity="0.3">
<path d="M46.5143 211.982C46.4193 211.802 46.282 211.647 46.1142 211.531C45.9463 211.415 45.753 211.342 45.5506 211.317C45.3086 211.286 45.0626 211.306 44.8291 211.377C44.5956 211.448 44.38 211.568 44.1966 211.729C44.0132 211.89 43.8663 212.089 43.7656 212.311C43.6649 212.533 43.6129 212.775 43.6129 213.019C43.6129 213.263 43.6649 213.504 43.7656 213.727C43.8663 213.949 44.0132 214.148 44.1966 214.309C44.38 214.47 44.5956 214.59 44.8291 214.661C45.0626 214.732 45.3086 214.752 45.5506 214.721C45.8769 214.673 46.1749 214.509 46.389 214.258C46.5693 214.004 46.6821 213.709 46.7167 213.4C46.8027 212.918 46.7318 212.421 46.5143 211.982Z" fill="black"/>
</g>
<g opacity="0.3">
<path d="M64.2757 218.943C63.2048 220.164 61.8921 221.149 60.4207 221.836C59.6711 222.205 58.8468 222.397 58.0113 222.397C57.1758 222.397 56.3515 222.205 55.6019 221.836C54.937 221.47 54.2816 220.872 53.5299 220.978C52.9806 221.045 52.4409 221.46 51.9204 221.267C51.7717 221.203 51.6416 221.102 51.5423 220.974C51.4429 220.846 51.3774 220.694 51.3518 220.534C51.3196 220.22 51.3822 219.903 51.5317 219.625C51.6811 219.346 51.9105 219.119 52.1903 218.972C52.7629 218.699 53.4053 218.609 54.031 218.712C54.6575 218.789 55.2646 218.972 55.8911 219.059C58.4354 219.426 61.4808 217.439 63.283 215.415L64.6226 213.853L63.9577 217.584L64.2757 218.943Z" fill="black"/>
</g>
<path d="M66.0392 207.895C65.8378 209.549 65.5418 211.191 65.1525 212.812C64.8591 214.439 64.4762 216.048 64.0057 217.633C64.2175 215.98 64.5135 214.338 64.8923 212.715C65.1898 211.089 65.5726 209.48 66.0392 207.895Z" fill="#263238"/>
<path d="M65.6541 191.243C65.6444 191.412 65.6087 191.578 65.5481 191.735C65.4206 192.177 65.2461 192.603 65.0277 193.008C64.2954 194.355 63.187 195.461 61.8377 196.19C60.4791 196.891 58.9436 197.177 57.4237 197.009C56.9656 196.962 56.5135 196.869 56.0745 196.729C55.91 196.688 55.7537 196.62 55.6119 196.527C55.6119 196.527 56.2961 196.739 57.4334 196.826C58.9129 196.928 60.3924 196.625 61.7124 195.948C63.0205 195.247 64.1081 194.195 64.8542 192.911C65.4325 191.928 65.6059 191.234 65.6541 191.243Z" fill="white"/>
<path d="M67.8512 193.162C67.8046 193.357 67.7265 193.542 67.6199 193.712C67.3702 194.196 67.0732 194.655 66.7333 195.081C65.6139 196.512 64.1226 197.607 62.4228 198.246C60.723 198.885 58.88 199.045 57.0958 198.706C56.5604 198.608 56.0348 198.463 55.5249 198.272C55.333 198.213 55.151 198.125 54.9852 198.012C54.9852 197.964 55.7851 198.311 57.1247 198.523C58.8722 198.8 60.6616 198.617 62.3174 197.994C63.9732 197.37 65.4384 196.326 66.5694 194.965C67.0344 194.392 67.4626 193.79 67.8512 193.162Z" fill="white"/>
<path d="M50.8509 204.915C50.6629 205.023 50.4622 205.107 50.2534 205.166C49.8679 205.301 49.2897 205.522 48.6343 205.812C46.866 206.571 45.1776 207.504 43.5939 208.598C42.011 209.692 40.542 210.942 39.2089 212.33C38.6981 212.86 38.2933 213.294 38.0235 213.622C37.8879 213.787 37.7396 213.942 37.5801 214.084C37.6779 213.894 37.7976 213.716 37.9367 213.554C38.1873 213.217 38.5728 212.754 39.0643 212.204C40.3678 210.753 41.8362 209.458 43.4397 208.348C45.0363 207.244 46.7531 206.325 48.5572 205.609C49.1024 205.39 49.659 205.2 50.2245 205.04C50.4281 204.976 50.6381 204.934 50.8509 204.915Z" fill="white"/>
<path d="M50.5135 202.784C50.3281 202.881 50.1303 202.953 49.9256 202.996C49.5401 203.112 48.9619 203.286 48.3065 203.517C46.5302 204.11 44.7922 204.812 43.1023 205.619C41.4171 206.437 39.7823 207.354 38.2065 208.367C37.6089 208.753 37.1174 209.08 36.7898 209.331C36.6211 209.458 36.4403 209.568 36.2501 209.659C36.392 209.504 36.5503 209.365 36.7223 209.244C37.0403 208.984 37.5126 208.637 38.1005 208.232C39.6511 207.158 41.2851 206.21 42.9866 205.397C44.6856 204.582 46.4449 203.898 48.2487 203.353C48.9426 203.151 49.5016 202.996 49.8967 202.919C50.0957 202.848 50.303 202.802 50.5135 202.784Z" fill="white"/>
<path d="M71.0894 214.567C70.2597 213.835 69.3876 213.152 68.4777 212.522C67.5138 211.977 66.5159 211.494 65.4901 211.076C65.8205 211.088 66.1465 211.157 66.4538 211.279C67.2139 211.509 67.9423 211.832 68.6222 212.243C69.3011 212.667 69.9257 213.172 70.4823 213.747C70.7264 213.987 70.9313 214.263 71.0894 214.567Z" fill="white"/>
<path d="M31.4315 214.606C30.8329 213.655 30.3599 212.631 30.0244 211.559C29.6121 210.513 29.3399 209.417 29.2149 208.3C29.292 208.3 29.6679 209.736 30.275 211.472C30.8822 213.208 31.5086 214.577 31.4315 214.606Z" fill="white"/>
<path d="M43.4204 224.305C42.3793 223.962 41.3828 223.496 40.4521 222.917C39.4705 222.423 38.557 221.804 37.7343 221.075C37.7343 221.017 39.0161 221.798 40.6256 222.685C42.235 223.573 43.459 224.238 43.4204 224.305Z" fill="white"/>
<path d="M50.8512 210.922C50.7154 210.652 50.6026 210.371 50.5139 210.083C50.3019 209.543 50.0224 208.743 49.6851 207.759C49.0008 205.831 48.0853 203.054 47.1215 200.046C46.1578 197.037 45.329 194.26 44.7411 192.245C44.452 191.281 44.2303 190.433 44.0761 189.873C43.987 189.582 43.9162 189.286 43.8641 188.986C43.9934 189.262 44.0967 189.549 44.1725 189.844C44.3652 190.442 44.6254 191.233 44.9242 192.197C45.5699 194.222 46.4276 196.951 47.3817 199.959C48.3359 202.967 49.2129 205.696 49.8586 207.672C50.167 208.636 50.4176 209.427 50.6103 210.025C50.7149 210.317 50.7955 210.617 50.8512 210.922Z" fill="#263238"/>
<path d="M53.2506 210.999C52.8596 211.128 52.446 211.174 52.0363 211.134C51.6241 211.186 51.2055 211.143 50.8123 211.009C51.6144 210.823 52.4485 210.823 53.2506 211.009V210.999Z" fill="#263238"/>
<path d="M60.4879 188.467C60.5843 188.052 59.0905 193.23 57.0859 199.564C55.0813 205.899 53.4043 211.019 53.3369 211C53.2694 210.98 54.8307 205.822 56.8353 199.429C58.8399 193.037 60.4879 188.467 60.4879 188.467Z" fill="#263238"/>
<path d="M38.4087 218.269C38.3316 218.269 37.6955 215.82 36.9824 212.763C36.499 210.927 36.1097 209.067 35.8162 207.19C35.8837 207.19 36.5294 209.639 37.2426 212.706C37.9558 215.772 38.4762 218.259 38.4087 218.269Z" fill="#263238"/>
<path d="M71.2914 41.5625L69.3639 47.3958H67.9183L66.6365 43.4427L65.3065 47.3958H63.8609L61.9334 41.5625H63.379L64.6897 45.6603L66.0679 41.5625H67.3111L68.6411 45.6892L70 41.5625H71.2914Z" fill="black"/>
<path d="M72.0545 41.5625H73.4037V47.3958H72.0545V41.5625Z" fill="black"/>
<path d="M74.3084 46.8174L74.7614 45.8532C75.3286 46.2442 76.0001 46.4558 76.6889 46.4606C77.4888 46.4606 77.8068 46.1907 77.8068 45.8339C77.8068 44.7444 74.4241 45.4965 74.4241 43.327C74.4241 42.3629 75.224 41.5144 76.8816 41.5144C77.5897 41.5011 78.2885 41.6775 78.9055 42.0254L78.4815 43.0571C77.9939 42.7663 77.4394 42.6069 76.872 42.5943C76.0721 42.5943 75.7637 42.8932 75.7637 43.2595C75.7637 44.3394 79.1464 43.597 79.1464 45.7375C79.1464 46.7017 78.3465 47.5405 76.6792 47.5405C75.8333 47.5502 75.0051 47.2976 74.3084 46.8174Z" fill="black"/>
<path d="M85.4093 41.5625V47.3958H84.06V45.0046H81.4194V47.3958H80.0701V41.5625H81.4194V43.8573H84.06V41.5625H85.4093Z" fill="black"/>
<path d="M87.7821 41.5625H88.4374L87.3773 46.8559H90.6444L90.5384 47.3958H86.6834L87.7821 41.5625Z" fill="black"/>
<path d="M92.6775 41.5625H93.2558L92.0993 47.3958H91.4825L92.6775 41.5625Z" fill="black"/>
<path d="M93.6111 46.7014L93.9099 46.2194C94.4211 46.682 95.0904 46.9305 95.7796 46.9136C96.8011 46.9136 97.495 46.499 97.495 45.7662C97.495 44.426 94.4689 45.1009 94.4689 43.2689C94.4689 42.1698 95.4326 41.5141 96.8011 41.5141C97.4388 41.4949 98.0672 41.6697 98.6034 42.0155L98.3431 42.5169C97.8796 42.1948 97.3269 42.0262 96.7626 42.0348C95.7507 42.0348 95.0664 42.4879 95.0664 43.2111C95.0664 44.5706 98.1022 43.9149 98.1022 45.689C98.1022 46.8075 97.1385 47.4439 95.7218 47.4439C94.95 47.4704 94.1965 47.2053 93.6111 46.7014Z" fill="black"/>
<path d="M101.244 42.0928H99.1912L99.2972 41.5625H104.02L103.904 42.0928H101.851L100.801 47.3958H100.194L101.244 42.0928Z" fill="black"/>
<path d="M140.229 40.2608C140.229 40.3476 137.415 40.4343 133.945 40.4632C130.476 40.4921 127.652 40.4632 127.652 40.3669C127.652 40.2705 130.466 40.1934 133.936 40.1645C137.405 40.1356 140.229 40.1548 140.229 40.2608Z" fill="#263238"/>
<path d="M140.249 43.4623C140.249 43.549 137.435 43.6358 133.965 43.6647C130.496 43.6936 127.681 43.6647 127.681 43.5683C127.681 43.4719 130.496 43.3949 133.965 43.3659C137.435 43.337 140.249 43.3756 140.249 43.4623Z" fill="#263238"/>
<path d="M140.278 46.6817C140.278 46.7588 137.464 46.8552 133.994 46.8841C131.899 46.9538 129.802 46.9184 127.711 46.7781C127.711 46.701 130.515 46.6046 133.994 46.5757C136.089 46.506 138.187 46.5414 140.278 46.6817Z" fill="#263238"/>
</svg>
