<?xml version="1.0" encoding="utf-8"?>
<!-- Generator: Adobe Illustrator 24.0.1, SVG Export Plug-In . SVG Version: 6.00 Build 0)  -->
<svg version="1.1" id="Слой_1" xmlns="http://www.w3.org/2000/svg" xmlns:xlink="http://www.w3.org/1999/xlink" x="0px" y="0px"
	 viewBox="0 0 181.4 428.9" style="enable-background:new 0 0 181.4 428.9;" xml:space="preserve">
<style type="text/css">
	.st0{fill:#FF8B7B;}
	.st1{fill:#066FA4;}
	.st2{opacity:0.2;enable-background:new    ;}
	.st3{fill:#263238;}
	.st4{opacity:0.6;fill:#FFFFFF;enable-background:new    ;}
	.st5{opacity:0.2;fill:#066FA4;enable-background:new    ;}
	.st6{fill:#FFFFFF;}
	.st7{fill:#FF5652;}
</style>
<path class="st0" d="M80.6,98.4L79.3,98l-1.1-0.4c-0.7-0.3-1.5-0.6-2.2-1c-1.4-0.7-2.8-1.4-4.2-2.2c-2.8-1.6-5.5-3.3-8-5.3
	c-1.3-1-2.5-2.1-3.8-3.3c-1.2-1.2-2.4-2.5-3.5-3.8c-1.1-1.4-2.2-2.8-3.1-4.4c-0.9-1.6-1.8-3.3-2.4-5L50.8,72
	c-0.6-1.6-0.7-3.5-0.1-5.1c0.6-1.7,1.7-3.1,3.2-4c3.5-2.1,7.4-3.7,11.3-4.8c3.6-1,7.4-1.8,11.1-2.3c3.6-0.5,7.3-0.8,11-0.9
	c3.7-0.1,7.3,0,11,0.3c1,0.1,2,0.6,2.7,1.3s1.2,1.7,1.2,2.8c0.1,1-0.2,2.1-0.9,2.9c-0.6,0.8-1.5,1.4-2.5,1.6h-0.2
	c-3.2,0.7-6.6,1.4-9.9,2.2s-6.5,1.6-9.7,2.6c-3.1,0.9-6.1,2-9.1,3.2c-2.6,1.1-5.2,2.5-7.5,4.1l2.9-9.7c1,1.7,2.1,3.2,3.5,4.6
	c1.6,1.5,3.3,2.9,5,4.2c2,1.3,4,2.6,6.1,3.7c1,0.6,2.1,1.1,3.2,1.7l1.6,0.8l1.4,0.6l0.6,0.3c2.1,0.9,3.7,2.6,4.5,4.7s0.8,4.4,0,6.5
	c-0.9,2.1-2.5,3.8-4.6,4.7c-2.1,0.9-4.4,1-6.5,0.2L80.6,98.4z"/>
<path class="st1" d="M102.3,80.8L76.8,75c-7.4,2.3-10.1,16.1-9,24.8c0,0,7.4,9.8,18.9,7.1C99.7,103.9,114.6,83.7,102.3,80.8z"/>
<path class="st0" d="M106.6,44.2l-4.1-2.4c-0.4-0.3-0.9-0.4-1.4-0.5s-1,0-1.5,0.1s-0.9,0.4-1.3,0.7s-0.7,0.7-1,1.2l-2.4,4.4
	c-0.6,1.1-1,2.3-1.1,3.5l-0.5,6.3c-0.1,0.8,0.1,1.7,0.5,2.4s1,1.4,1.7,1.8l1.7,1c0.9,0.5,1.9,0.7,2.8,0.5c1-0.1,1.9-0.6,2.6-1.3
	c2.6-2.8,3.6-7.9,3.6-7.9l2-5.1c0.3-0.8,0.4-1.8,0.1-2.6C108,45.4,107.4,44.7,106.6,44.2z"/>
<path class="st2" d="M106.7,44.2l-4.1-2.4l-0.3-0.1c-4,5.6-6.3,12.2-6.8,19.1c0,0.3,0,0.5,0,0.8c-0.1,1-0.1,2,0,3l3.2-0.7H99
	c0.6-0.1,1.3-0.4,1.8-0.8c0.8-0.2,1.4-0.7,2-1.3c2.6-2.8,3.6-7.9,3.6-7.9l2-5.1c0.3-0.8,0.4-1.8,0.1-2.6
	C108,45.4,107.4,44.7,106.7,44.2z"/>
<path class="st0" d="M30.8,411l-10.2-3.7l7.6-24l10.2,3.7L30.8,411z"/>
<path class="st3" d="M22.4,403.1l11.2,3.8c0.2,0.1,0.4,0.2,0.5,0.4c0.1,0.2,0.1,0.4,0.1,0.6l-1.5,9.7c0,0.2-0.1,0.5-0.3,0.7
	c-0.1,0.2-0.3,0.4-0.5,0.5s-0.4,0.2-0.7,0.2c-0.2,0-0.5,0-0.7-0.1c-4-1.4-9.8-3.7-14.8-5.4c-5.9-2-5.4-1.6-12.4-4
	c-4.2-1.4-3.7-6-1.8-5.8c8.7,1,9.6,1.3,18.2-0.6C20.5,402.8,21.5,402.8,22.4,403.1z"/>
<path class="st2" d="M28.2,383.4l-3.9,12.4l10.2,3.7l3.9-12.4L28.2,383.4z"/>
<path class="st1" d="M20.3,403.4h0.1l0.1-0.1c0-0.1,0-0.1,0-0.2s0-0.1-0.1-0.1c-0.4-0.4-3.9-3.9-5.4-3.7c-0.1,0-0.3,0.1-0.4,0.2
	c-0.1,0.1-0.2,0.2-0.2,0.3c-0.1,0.2-0.1,0.5-0.1,0.7s0.1,0.5,0.2,0.7C15.4,402.6,18.5,403.2,20.3,403.4L20.3,403.4z M15.2,399.9
	c0.9,0,2.8,1.6,4.2,3c-2.4-0.4-4-1.1-4.5-1.9c-0.1-0.1-0.1-0.3-0.1-0.4s0-0.3,0.1-0.4c0-0.1,0-0.1,0.1-0.1
	C15.1,399.9,15.1,399.9,15.2,399.9L15.2,399.9z"/>
<path class="st1" d="M20.3,403.5L20.3,403.5c0.1,0,0.2,0,0.2-0.1c0,0,0-0.1,0.1-0.1c0-0.1,0.6-3-0.4-4.6c-0.1-0.2-0.3-0.4-0.5-0.6
	s-0.5-0.3-0.7-0.3c-0.7-0.2-1,0.1-1.1,0.4c-0.5,1.1,1.3,4.2,2.4,5.2C20.1,403.4,20.2,403.5,20.3,403.5z M18.5,398.3
	c0.1,0,0.2,0,0.3,0c0.2,0,0.4,0.1,0.5,0.2c0.2,0.1,0.3,0.3,0.4,0.4c0.5,1.2,0.7,2.4,0.4,3.7c-1-1.2-2.2-3.5-1.9-4.2l0.1-0.1
	C18.4,398.3,18.4,398.3,18.5,398.3L18.5,398.3z"/>
<path class="st1" d="M75.9,291.2c19.3-53.6,34.4-76.1,32.5-103.9l-38.1-3.8c0,0-16.5,74-23.7,105.9c-7.6,33.1-23.3,98.5-23.3,98.5
	l16.9,4.6C40.2,392.4,67.3,335.3,75.9,291.2z"/>
<path class="st4" d="M75.9,291.2c19.3-53.6,34.4-76.1,32.5-103.9l-38.1-3.8c0,0-16.5,74-23.7,105.9c-7.6,33.1-23.3,98.5-23.3,98.5
	l16.9,4.6C40.2,392.4,67.3,335.3,75.9,291.2z"/>
<path class="st5" d="M106.6,208.7c-3.2,14.2-10,29.5-18.6,51C87.8,235.4,93.3,206.6,106.6,208.7z"/>
<path class="st1" d="M22.2,382.6l-1,7.6l18.1,6.4l3-6.5L22.2,382.6z"/>
<path class="st0" d="M138.9,394.6l0.9,25.2l-12-0.2l-0.9-25.2L138.9,394.6z"/>
<path class="st3" d="M128,416.4l11.8,0.2c0.2,0,0.4,0.1,0.6,0.2c0.2,0.1,0.3,0.3,0.3,0.5l1,9.7c0,0.2,0,0.5-0.1,0.7
	s-0.2,0.4-0.4,0.6s-0.4,0.3-0.6,0.4c-0.2,0.1-0.5,0.1-0.7,0.1c-4.2-0.1-5.6-0.5-11-0.6c-6.3-0.1-3.4,0.2-10.7,0
	c-4.4-0.1-5.2-4.6-3.3-5c6-1.3,7.6-3.7,10.3-6.2C126.1,416.5,127.1,416.3,128,416.4z"/>
<path class="st2" d="M138.9,394.7l0.4,13l-12-0.2l-0.4-13L138.9,394.7z"/>
<path class="st1" d="M130.2,417.2h0.1l0.1-0.1c0,0,0-0.1,0-0.2s0-0.1,0-0.2c-0.4-0.4-3.6-4-5.1-3.8c-0.1,0-0.3,0.1-0.4,0.2
	s-0.2,0.2-0.3,0.3c-0.1,0.2-0.2,0.4-0.2,0.7c0,0.2,0.1,0.5,0.2,0.7C125.4,416.3,128.4,417,130.2,417.2L130.2,417.2z M125.4,413.5
	c0.9,0,2.7,1.7,4.1,3.1c-2.4-0.5-4-1.3-4.4-2c-0.1-0.1-0.1-0.3-0.1-0.4c0-0.2,0-0.3,0.1-0.4c0-0.1,0-0.1,0.1-0.1
	c0,0,0.1-0.1,0.2-0.1h0V413.5z"/>
<path class="st1" d="M130.2,417.2h0.1c0,0,0.1,0,0.1-0.1l0.1-0.1c0-0.1,0.8-3-0.1-4.5c-0.1-0.2-0.3-0.4-0.5-0.6s-0.4-0.3-0.7-0.3
	c-0.7-0.2-1,0.1-1.2,0.3c-0.6,1.1,1,4.2,2,5.2C130.1,417.2,130.1,417.2,130.2,417.2z M128.8,412.1h0.3c0.2,0,0.4,0.1,0.5,0.3
	c0.1,0.1,0.3,0.3,0.4,0.4c0.4,1.2,0.5,2.4,0.1,3.6c-1-1.3-1.9-3.6-1.6-4.2C128.5,412.1,128.6,412,128.8,412.1L128.8,412.1z"/>
<path class="st1" d="M130.2,291.6c-1.6-38.9,7.6-74.1,2.1-102.4l-39.8-3.4c0,0,0.9,80.4,7.9,113c7.3,33.9,23.6,100.7,23.6,100.7
	l17.5,0.3C141.5,399.8,139.7,328.7,130.2,291.6z"/>
<path class="st4" d="M130.2,291.6c-1.6-38.9,7.6-74.1,2.1-102.4l-39.8-3.4c0,0,0.9,80.4,7.9,113c7.3,33.9,23.6,100.7,23.6,100.7
	l17.5,0.3C141.5,399.8,139.7,328.7,130.2,291.6z"/>
<path class="st1" d="M121.5,395.8l1.1,7.5l19.6,0.3l1.1-7.1L121.5,395.8z"/>
<path class="st1" d="M94.2,80.8c9.6-0.7,25,1.3,38.7,4.4c3.1,0.7,6,2,8.5,3.8c2.6,1.8,4.7,4.2,6.4,6.8c1.6,2.7,2.7,5.7,3.2,8.8
	c0.5,3.1,0.3,6.3-0.4,9.3c-4,15.7-11.8,38.9-17.6,76c-5.8,1.7-22.6,1.2-36-0.1c-1.4-0.1-4.9-3.6-4.9-3.6s-3.3,2.7-5.1,2.4
	c-8.8-1.3-15.9-3-17.5-4.8c3.6-11,5.3-40.4,7.2-59.4c0.3-7.5-0.2-18,1.2-26.3C79.3,90.4,82.6,81.7,94.2,80.8z"/>
<path class="st0" d="M125.7,63.1c-1.9,7.4-5.4,17-0.8,22.7c-3.3,5-11,8.8-18.7,10.8c-4.9-5.8-4.3-11.4-2.1-14.7
	c4.5-3.2,3.8-8.1,3.6-11.4L125.7,63.1z"/>
<path class="st3" d="M106.2,96.7c-1-1.3-1.7-2.9-1.9-4.6c-0.2-2.4-4.4-0.8-4.4-0.8C101.4,93.6,103.6,95.5,106.2,96.7z"/>
<path class="st3" d="M106.2,96.7c0.2-0.9,0.7-1.7,1.4-2.2c0.7-0.6,1.6-0.9,2.5-1c2.1-0.3,4.3-0.1,6.3,0.6
	C116.4,94,110.4,96.8,106.2,96.7z"/>
<path class="st2" d="M107.6,70.6c0.1,1.6,0.1,3.3,0,4.9c6.2-0.1,12.3-3.6,13.1-10.4L107.6,70.6z"/>
<path class="st0" d="M131.5,51.8c-3.7,10.1-6.3,17.2-13.6,19.6c-14.9,5-20-2.8-19.4-13.9c0.5-9.9,6.5-24.8,17.8-25.8
	c2.5-0.2,5,0.2,7.3,1.2s4.3,2.6,5.8,4.6s2.5,4.4,2.9,6.8C132.7,47,132.4,49.5,131.5,51.8z"/>
<path class="st3" d="M125.5,60.6c-1.3-5.5,1-8.6,2.5-9c-2.5-0.8-6-9.3-3.6-12.2c-4.2,0.1-8.1-1.3-8.3-2.5
	c-7.6,2.1-17.3,0.8-17.5-2.9c-0.1-2.7,8.2-1.4,8.2-1.4c-1.3-0.5-2.4-1.3-3.3-2.3c-1-1-1.7-2.1-2.2-3.4c-1.5-4.1,7.9-0.5,10.3,2.2
	c-2-5.7-1.5-9,4.6-5c1.9,1.4,3.6,3,5,4.8c0,0,20.2-3,16.1,7.9c5,5.3,3.7,8.7,1.1,11.1C141.9,50.9,133.2,60.8,125.5,60.6z"/>
<path class="st3" d="M134,36.6c4.4,0.4,5.6-5.6,8.7-4.8C145.7,32.8,139.2,40.1,134,36.6z"/>
<path class="st3" d="M115.2,64.7c0,0-3.3-0.2-12.5-2.7c1.1-2.4,3.2-4.1,7.9-2.7c1.3,0.3,2.4,0.9,3.2,1.9
	C114.7,62.2,115.2,63.4,115.2,64.7z"/>
<path class="st6" d="M108.4,60.8c1.7,0.6,3.5,0.6,5.2,0.1c-0.8-0.8-1.8-1.3-2.9-1.6c-1.7-0.6-3.5-0.6-5.2-0.1
	C106.3,60,107.3,60.6,108.4,60.8z"/>
<path class="st6" d="M114.8,64.7c-0.1-0.4-0.3-0.7-0.5-1s-0.5-0.5-0.9-0.7c-2.7-0.7-5.4-1.3-8.2-1.6c-0.4-0.1-0.8-0.1-1.2,0.1
	c-0.4,0.1-0.7,0.4-0.9,0.7C107,63.3,110.9,64.1,114.8,64.7z"/>
<path class="st2" d="M117.4,65.9c0,0-1.6,2-2.7,0.3C115.6,66.4,116.6,66.3,117.4,65.9z"/>
<path class="st2" d="M118.2,50.7c1.5-0.4,3.1-0.1,4.4,0.7C121.1,51.5,119.6,51.2,118.2,50.7z"/>
<path class="st2" d="M118.1,51.8c0.7,0,1.4,0.1,2.1,0.4c0.7,0.3,1.2,0.7,1.7,1.2C120.5,53.1,119.2,52.6,118.1,51.8z"/>
<path class="st0" d="M133.6,61.5c-0.8,1.1-1.7,2-2.8,2.8c-1.1,0.7-2.4,1.2-3.7,1.5c-3.5,0.6-5-2.6-3.7-5.8c1.1-2.8,4.3-6.6,7.7-5.7
	C134.5,55,135.5,58.7,133.6,61.5z"/>
<path class="st7" d="M109.6,48.8c-1.8,2.2-3.9,4.1-6.3,5.7c0.4,0.6,1,1.1,1.6,1.5s1.3,0.6,2.1,0.7L109.6,48.8z"/>
<path class="st3" d="M118.3,42.6c-0.1-0.1-0.2-0.1-0.3-0.1c-0.1,0-0.1,0-0.2,0s-0.1,0.1-0.2,0.1c0,0-0.1,0.1-0.1,0.2
	c0,0.1,0,0.1,0,0.2c0,0.8,0.1,1.6,0.4,2.4c0.3,0.8,0.8,1.4,1.4,1.9c0.1,0,0.1,0.1,0.2,0.1s0.1,0,0.2,0s0.1,0,0.2-0.1
	c0.1,0,0.1-0.1,0.2-0.1c0-0.1,0.1-0.1,0.1-0.2c0-0.1,0-0.1,0-0.2c0-0.1,0-0.1-0.1-0.2c0-0.1-0.1-0.1-0.2-0.1c-0.5-0.4-0.9-1-1.1-1.5
	c-0.3-0.6-0.4-1.2-0.3-1.9c0-0.1,0-0.2-0.1-0.3C118.4,42.7,118.4,42.7,118.3,42.6z"/>
<path class="st3" d="M116.5,50.3c0.1,0,0.1-0.1,0.1-0.2V50v-0.1c0,0,0-0.1-0.1-0.1l-0.1-0.1c-0.5-0.2-1.1-0.4-1.7-0.3
	c-0.6,0-1.2,0.2-1.7,0.5l-0.1,0.1c0,0,0,0.1-0.1,0.1v0.1c0,0,0,0.1,0.1,0.1c0.1,0.1,0.1,0.1,0.2,0.2c0.1,0,0.2,0,0.3,0
	c0.4-0.2,0.9-0.4,1.3-0.4c0.5,0,0.9,0.1,1.4,0.3c0.1,0,0.1,0,0.2,0C116.3,50.4,116.4,50.4,116.5,50.3z"/>
<path class="st3" d="M105.6,48.3c0.1,0,0.1,0,0.2,0l0.1-0.1l0.1-0.1V48v-0.1c-0.3-0.5-0.7-1-1.1-1.3c-0.5-0.3-1-0.6-1.6-0.7h-0.1
	c0,0-0.1,0-0.1,0.1s-0.1,0.1-0.1,0.1v0.1v0.1c0,0,0,0.1,0.1,0.1l0.1,0.1h0.1c0.5,0.1,0.9,0.3,1.3,0.5c0.4,0.3,0.7,0.6,0.9,1.1
	c0,0.1,0.1,0.1,0.1,0.1C105.5,48.3,105.5,48.3,105.6,48.3z"/>
<path class="st3" d="M107.9,40.2c-0.1,0-0.2-0.1-0.2-0.1c-0.1,0-0.2,0-0.2,0.1c-0.5,0.3-1.2,0.6-1.8,0.6c-0.6,0.1-1.3,0-1.9-0.3
	c-0.1,0-0.1-0.1-0.2-0.1s-0.1,0-0.2,0s-0.1,0.1-0.2,0.1c0,0-0.1,0.1-0.1,0.2c-0.1,0.1-0.1,0.3,0,0.4c0,0.1,0.1,0.2,0.3,0.3
	c0.7,0.3,1.6,0.5,2.4,0.4s1.6-0.3,2.3-0.8c0.1-0.1,0.2-0.2,0.2-0.3s0-0.3-0.1-0.4C108.1,40.3,108,40.2,107.9,40.2z"/>
<path class="st0" d="M140.1,87l0.8,0.1l1,0.2c0.7,0.1,1.3,0.2,2,0.3c1.3,0.2,2.7,0.3,4,0.4c2.6,0.2,5.2,0,7.7-0.3
	c2.2-0.3,4.4-1,6.5-2c1.8-0.9,3.5-2.3,4.8-3.9l1.3,10.3c-2.6-2.4-5.3-4.6-8.3-6.4c-3.2-2-6.5-4-10-5.8s-6.9-3.7-10.5-5.5
	s-7.2-3.4-10.8-5h-0.1c-1-0.4-1.7-1.2-2.2-2.2c-0.4-1-0.5-2.1-0.2-3.1s1-1.9,1.9-2.4s2-0.7,3.1-0.5c4.2,0.8,8.2,1.8,12.2,2.9
	c4,1.1,8,2.4,12,3.8c4,1.5,8,3.1,11.8,5c4.2,2,8.1,4.5,11.7,7.4c1.4,1.2,2.3,2.8,2.6,4.7c0.3,1.8-0.1,3.7-1.1,5.2l-0.2,0.4
	c-1.2,1.9-2.6,3.7-4.1,5.2c-1.6,1.6-3.3,3-5.2,4.2c-1.8,1.2-3.8,2.1-5.8,2.9c-2,0.7-4,1.3-6,1.7c-3.9,0.8-7.8,1.1-11.7,0.9
	c-1.9-0.1-3.8-0.2-5.7-0.5c-0.9-0.1-1.9-0.3-2.8-0.5l-1.4-0.3l-0.7-0.2l-0.9-0.2c-2.2-0.5-4.2-1.9-5.4-3.9s-1.6-4.3-1.1-6.6
	c0.5-2.3,1.9-4.2,3.8-5.4c1.9-1.2,4.3-1.7,6.6-1.2L140.1,87z"/>
<path class="st1" d="M127.4,84c8.5,0,27.2,2.5,27.2,2.5c6.1,4.8,9.3,16.2,5.3,25.2c0,0-16.2,10.5-26,3.9
	C122.9,108.1,114.7,84,127.4,84z"/>
<path class="st0" d="M135.8,66l2.4-7.8L125,58c0,0-0.9,5.1,0.5,8.7c0.4,0.9,1,1.7,1.9,2.2s1.9,0.7,2.8,0.5l1.9-0.3
	c0.8-0.1,1.6-0.5,2.2-1C135.1,67.5,135.5,66.8,135.8,66z"/>
<path class="st0" d="M133,48.1l-4.6,0.7c-0.9,0.1-1.7,0.6-2.3,1.3c-0.6,0.7-0.9,1.6-0.9,2.5l-0.1,5.5l13.2,0.2l-0.9-6.9
	c-0.1-0.5-0.2-1-0.5-1.4s-0.6-0.8-1-1.1s-0.9-0.5-1.4-0.7C134,48,133.5,48,133,48.1z"/>
<path class="st6" d="M123.7,79.6c-0.3,2.5-2.7,12.5-13.6,13.9c6.3,0.6,10.1,7.7,10.1,7.7s7.5-8.3,7.9-17.3
	C125.9,81.7,123.7,79.6,123.7,79.6z"/>
<path class="st6" d="M106.9,78.7c-0.3,2.4-3.7,6.3-2.5,13.4c-3.9-0.9-10.3,4.1-10.3,4.1s2.5-13.5,7.8-16.4
	C103.4,79.1,105.1,78.7,106.9,78.7z"/>
</svg>
