<?xml version="1.0" encoding="utf-8"?>
<!-- Generator: Adobe Illustrator 24.0.1, SVG Export Plug-In . SVG Version: 6.00 Build 0)  -->
<svg version="1.1" id="Слой_1" xmlns="http://www.w3.org/2000/svg" xmlns:xlink="http://www.w3.org/1999/xlink" x="0px" y="0px"
	 viewBox="0 0 163.1 84.6" style="enable-background:new 0 0 163.1 84.6;" xml:space="preserve">
<style type="text/css">
	.st0{fill:#066FA4;}
</style>
<path class="st0" d="M0.1,38.9c-0.6-11.3,2.8-20.8,9.8-28.3l1.1,1C4.2,18.8,1.1,28,1.6,38.8L0.1,38.9z"/>
<path class="st0" d="M8.6,60.5c-2.7-3.4-4.9-7.2-6.4-11.2l1.4-0.5c1.5,3.9,3.5,7.5,6.1,10.8L8.6,60.5z"/>
<path class="st0" d="M5.4,38.6C7.1,73.5,71.6,94.8,110,79.5c21.9-8.7,39.5-34.3,26.1-52.8c8.8-2.4,18-2.9,27-1.3
	c-16.7-10.9-31.9-12.4-43.6-10.7c-10.5-4.5-21.3-8.2-32.3-11C47.4-6,3.6,2.5,5.4,38.6z"/>
</svg>
