<?xml version="1.0" encoding="utf-8"?>
<!-- Generator: Adobe Illustrator 24.0.1, SVG Export Plug-In . SVG Version: 6.00 Build 0)  -->
<svg version="1.1" id="Слой_1" xmlns="http://www.w3.org/2000/svg" xmlns:xlink="http://www.w3.org/1999/xlink" x="0px" y="0px"
	 viewBox="0 0 22.1 22.1" style="enable-background:new 0 0 22.1 22.1;" xml:space="preserve">
<style type="text/css">
	.st0{fill:#066FA4;}
	.st1{opacity:0.5;fill:#FFFFFF;enable-background:new    ;}
	.st2{fill:#FFFFFF;}
</style>
<path class="st0" d="M15.2,21.3c5.6-2.3,8.4-8.7,6.1-14.4C19,1.2,12.5-1.5,6.9,0.8C1.2,3.1-1.5,9.6,0.8,15.2
	C3.1,20.9,9.6,23.6,15.2,21.3z"/>
<path class="st1" d="M15.2,21.3c5.6-2.3,8.4-8.7,6.1-14.4C19,1.2,12.5-1.5,6.9,0.8C1.2,3.1-1.5,9.6,0.8,15.2
	C3.1,20.9,9.6,23.6,15.2,21.3z"/>
<path class="st2" d="M12.6,7.3c-2.4-1-5.2-0.1-6.1,2c-0.3,0.8-0.4,1.6-0.2,2.4c0.2,0.8,0.6,1.5,1.1,2.1c-0.3,0.4-0.7,0.6-1.1,0.8
	c0.3,0.1,0.7,0.2,1,0.2c0.3,0,0.7-0.1,1-0.2c0.3,0.2,0.6,0.4,1,0.5c2.4,1,5.2,0.1,6.1-2C16.3,10.8,15.1,8.3,12.6,7.3z"/>
</svg>
