<?xml version="1.0" encoding="utf-8"?>
<!-- Generator: Adobe Illustrator 24.0.1, SVG Export Plug-In . SVG Version: 6.00 Build 0)  -->
<svg version="1.1" id="Слой_1" xmlns="http://www.w3.org/2000/svg" xmlns:xlink="http://www.w3.org/1999/xlink" x="0px" y="0px"
	 viewBox="0 0 16.9 17" style="enable-background:new 0 0 16.9 17;" xml:space="preserve">
<style type="text/css">
	.st0{fill:#066FA4;}
	.st1{opacity:0.3;fill:#FFFFFF;enable-background:new    ;}
</style>
<path class="st0" d="M15.8,12.8c2.4-4,1.1-9.2-3-11.6c-4-2.4-9.2-1.1-11.6,3c-2.4,4-1.1,9.2,3,11.6C8.2,18.2,13.4,16.8,15.8,12.8z"
	/>
<path class="st1" d="M15.4,11.2c-0.4,1.4-1.3,2.6-2.4,3.4c-1.1,0.9-2.5,1.4-3.9,1.5C7.7,16.3,6.2,16,5,15.3c-1.2-0.7-2.3-1.8-2.9-3
	c-0.6-1.3-0.9-2.7-0.7-4.1c0.2-1.4,0.8-2.8,1.7-3.8C4,3.2,5.2,2.4,6.6,2C8,1.6,9.4,1.6,10.8,2.1c0.9,0.3,1.7,0.8,2.5,1.4
	C14,4.1,14.6,4.8,15,5.7c0.4,0.8,0.7,1.8,0.8,2.7C15.8,9.4,15.7,10.3,15.4,11.2z"/>
<path class="st0" d="M7.8,12.8L7.4,14l-0.9-0.3L7,12.6c-0.9-0.3-1.7-0.9-2.3-1.7L5.5,10c0.5,0.7,1.1,1.2,1.8,1.5L8,9.4
	C7,8.7,5.9,7.9,6.3,6.5c0.3-1.1,1.4-1.7,3.1-1.4L9.8,4l0.8,0.3l-0.4,1.1c0.7,0.3,1.4,0.7,1.9,1.3l-0.8,0.9c-0.4-0.5-0.9-0.9-1.5-1.1
	L9.2,8.6c1.1,0.7,2.2,1.4,1.7,2.9C10.6,12.5,9.5,13.2,7.8,12.8z M8.4,8.1L9,6.3C8.3,6.1,7.8,6.4,7.7,6.9C7.5,7.3,7.9,7.7,8.4,8.1z
	 M9.6,11.1c0.2-0.5-0.2-0.9-0.8-1.3l-0.6,1.8C9,11.8,9.4,11.6,9.6,11.1z"/>
</svg>
