<?xml version="1.0" encoding="utf-8"?>
<!-- Generator: Adobe Illustrator 24.0.1, SVG Export Plug-In . SVG Version: 6.00 Build 0)  -->
<svg version="1.1" id="Слой_1" xmlns="http://www.w3.org/2000/svg" xmlns:xlink="http://www.w3.org/1999/xlink" x="0px" y="0px"
	 viewBox="0 0 407 305" style="enable-background:new 0 0 407 305;" xml:space="preserve">
<style type="text/css">
	.st0{fill:#EBEBEB;}
	.st1{fill:#F5F5F5;}
	.st2{fill:#066FA4;}
	.st3{opacity:0.7;fill:#FFFFFF;enable-background:new    ;}
</style>
<path class="st0" d="M366.2,280.6h-27v0.2h27V280.6z"/>
<path class="st0" d="M269.6,282.8h-7.1v0.2h7.1V282.8z"/>
<path class="st0" d="M338.4,273h-15.6v0.2h15.6V273z"/>
<path class="st0" d="M77.9,274.4H42.7v0.2h35.2V274.4z"/>
<path class="st0" d="M90.3,274.4h-5.2v0.2h5.2V274.4z"/>
<path class="st1" d="M203.5,304.2c87.2,0,157.8-4.1,157.8-9.2s-70.7-9.2-157.8-9.2c-87.2,0-157.8,4.1-157.8,9.2
	C45.7,300.1,116.3,304.2,203.5,304.2z"/>
<path class="st2" d="M78.2,286.2h98.7c0-0.4-0.1-0.8-0.1-1.3c0-1.5,0.3-3,0.9-4.4c0.6-1.4,1.4-2.7,2.5-3.7c1.1-1.1,2.3-1.9,3.7-2.5
	s2.9-0.9,4.4-0.9h0.4c0.8-2.2,2.4-4.1,4.5-5.3c2.1-1.2,4.5-1.6,6.8-1.2s4.5,1.7,6,3.5s2.4,4.1,2.4,6.5c2.4,0.1,4.7,1.1,6.4,2.8
	c1.7,1.7,2.7,4,2.8,6.4h0.5c0.7,0,1.4,0.1,2,0.3c0.6,0.2,1.2,0.6,1.7,1.1s0.9,1,1.2,1.7c0.3,0.6,0.4,1.3,0.4,2s-0.1,1.4-0.4,2
	c-0.3,0.6-0.7,1.2-1.2,1.7s-1.1,0.8-1.7,1.1c-0.6,0.2-1.3,0.4-2,0.3H78.2c-0.7,0-1.4-0.1-2-0.3c-0.6-0.2-1.2-0.6-1.7-1.1
	s-0.9-1-1.2-1.7c-0.3-0.6-0.4-1.3-0.4-2s0.1-1.4,0.4-2s0.7-1.2,1.2-1.7s1.1-0.8,1.7-1.1C76.8,286.2,77.5,286.1,78.2,286.2
	L78.2,286.2z"/>
<path class="st3" d="M78.2,286.2h98.7c0-0.4-0.1-0.8-0.1-1.3c0-1.5,0.3-3,0.9-4.4c0.6-1.4,1.4-2.7,2.5-3.7c1.1-1.1,2.3-1.9,3.7-2.5
	s2.9-0.9,4.4-0.9h0.4c0.8-2.2,2.4-4.1,4.5-5.3c2.1-1.2,4.5-1.6,6.8-1.2s4.5,1.7,6,3.5s2.4,4.1,2.4,6.5c2.4,0.1,4.7,1.1,6.4,2.8
	c1.7,1.7,2.7,4,2.8,6.4h0.5c0.7,0,1.4,0.1,2,0.3c0.6,0.2,1.2,0.6,1.7,1.1s0.9,1,1.2,1.7c0.3,0.6,0.4,1.3,0.4,2s-0.1,1.4-0.4,2
	c-0.3,0.6-0.7,1.2-1.2,1.7s-1.1,0.8-1.7,1.1c-0.6,0.2-1.3,0.4-2,0.3H78.2c-0.7,0-1.4-0.1-2-0.3c-0.6-0.2-1.2-0.6-1.7-1.1
	s-0.9-1-1.2-1.7c-0.3-0.6-0.4-1.3-0.4-2s0.1-1.4,0.4-2s0.7-1.2,1.2-1.7s1.1-0.8,1.7-1.1C76.8,286.2,77.5,286.1,78.2,286.2
	L78.2,286.2z"/>
</svg>
