<svg width="49" height="29" viewBox="0 0 49 29" fill="none" xmlns="http://www.w3.org/2000/svg">
<path d="M41.3773 7.12276C40.1308 5.12138 38.3913 3.47378 36.3258 2.33783C34.2602 1.20188 31.9376 0.615626 29.5806 0.635242C27.2236 0.654859 24.9112 1.27969 22.8647 2.44987C20.8183 3.62004 19.1066 5.29635 17.8934 7.3182C16.7961 7.00849 15.642 6.95752 14.5217 7.16931C13.4014 7.38109 12.3454 7.84986 11.4368 8.53879C10.5281 9.22771 9.79143 10.118 9.28468 11.1398C8.77792 12.1616 8.51486 13.287 8.51616 14.4277H4.61711C3.63914 14.4277 2.70123 14.8163 2.0097 15.5082C1.31818 16.2 0.929688 17.1384 0.929688 18.1168C0.929688 19.0952 1.31818 20.0335 2.0097 20.7253C2.70123 21.4172 3.63914 21.8059 4.61711 21.8059H18.0644C19.176 23.5621 20.6704 25.044 22.4356 26.1405C24.2009 27.237 26.1912 27.9197 28.2576 28.1375C30.324 28.3552 32.4128 28.1025 34.3677 27.398C36.3226 26.6936 38.0928 25.5558 39.5458 24.0698C39.7819 24.0698 40.0098 24.0698 40.254 24.0698C42.4204 24.0718 44.5064 23.2491 46.0887 21.7686C47.6709 20.2882 48.631 18.261 48.7739 16.0983C48.9168 13.9357 48.232 11.7996 46.8583 10.1236C45.4847 8.44765 43.5251 7.35732 41.3773 7.07389V7.12276Z" fill="#F0F0F0"/>
</svg>
