<?xml version="1.0" encoding="utf-8"?>
<!-- Generator: Adobe Illustrator 24.0.1, SVG Export Plug-In . SVG Version: 6.00 Build 0)  -->
<svg version="1.1" id="Слой_1" xmlns="http://www.w3.org/2000/svg" xmlns:xlink="http://www.w3.org/1999/xlink" x="0px" y="0px"
	 viewBox="0 0 407 305" style="enable-background:new 0 0 407 305;" xml:space="preserve">
<style type="text/css">
	.st0{display:none;fill:#EBEBEB;}
	.st1{display:none;fill:#F0F0F0;}
	.st2{fill:#066FA4;}
	.st3{opacity:0.8;fill:#FFFFFF;enable-background:new    ;}
</style>
<path class="st0" d="M90.3,274.4h-5.2v0.2h5.2V274.4z"/>
<path class="st1" d="M88.2,254.3h-2.4v2.4h2.4V254.3z"/>
<path class="st2" d="M52,260.1c0-1.1,0.5-2.2,1.3-3c0.8-0.8,1.9-1.3,3-1.3c0.4,0,0.8,0.1,1.2,0.2c-0.1-0.4-0.1-0.9-0.1-1.3
	c0-1.2,0.2-2.4,0.7-3.5c0.5-1.1,1.1-2.1,2-2.9c0.8-0.8,1.8-1.5,2.9-2c1.1-0.5,2.3-0.7,3.5-0.7c0.5,0,1.1,0.1,1.6,0.2
	c0.9-1.5,2.2-2.6,3.8-3.2c1.6-0.6,3.3-0.7,5-0.3c1.6,0.4,3.1,1.4,4.2,2.8c1.1,1.3,1.6,3,1.7,4.7H83c1-0.1,2,0,3,0.4
	c1,0.3,1.8,0.9,2.6,1.5c0.7,0.7,1.3,1.5,1.7,2.4C90.7,255,91,256,91,257s-0.2,2-0.6,2.9c-0.4,0.9-1,1.8-1.7,2.4
	c-0.7,0.7-1.6,1.2-2.6,1.5c-1,0.3-2,0.5-3,0.4H56.2c-1.1,0-2.2-0.5-2.9-1.3C52.4,262.2,52,261.2,52,260.1z"/>
<path class="st3" d="M52,260.1c0-1.1,0.5-2.2,1.3-3c0.8-0.8,1.9-1.3,3-1.3c0.4,0,0.8,0.1,1.2,0.2c-0.1-0.4-0.1-0.9-0.1-1.3
	c0-1.2,0.2-2.4,0.7-3.5c0.5-1.1,1.1-2.1,2-2.9c0.8-0.8,1.8-1.5,2.9-2c1.1-0.5,2.3-0.7,3.5-0.7c0.5,0,1.1,0.1,1.6,0.2
	c0.9-1.5,2.2-2.6,3.8-3.2c1.6-0.6,3.3-0.7,5-0.3c1.6,0.4,3.1,1.4,4.2,2.8c1.1,1.3,1.6,3,1.7,4.7H83c1-0.1,2,0,3,0.4
	c1,0.3,1.8,0.9,2.6,1.5c0.7,0.7,1.3,1.5,1.7,2.4C90.7,255,91,256,91,257s-0.2,2-0.6,2.9c-0.4,0.9-1,1.8-1.7,2.4
	c-0.7,0.7-1.6,1.2-2.6,1.5c-1,0.3-2,0.5-3,0.4H56.2c-1.1,0-2.2-0.5-2.9-1.3C52.4,262.2,52,261.2,52,260.1z"/>
<path class="st2" d="M291.9,264.3c-1.2-2-3-3.6-5.1-4.8c-2.1-1.1-4.4-1.7-6.7-1.7c-2.4,0-4.7,0.6-6.7,1.8c-2,1.2-3.8,2.8-5,4.9
	c-1.1-0.3-2.3-0.4-3.4-0.2c-1.1,0.2-2.2,0.7-3.1,1.4c-0.9,0.7-1.6,1.6-2.2,2.6c-0.5,1-0.8,2.2-0.7,3.3h-3.9c-0.5,0-1,0.1-1.5,0.2
	c-0.5,0.2-0.9,0.4-1.3,0.8c-0.4,0.3-0.6,0.8-0.8,1.2c-0.2,0.5-0.3,1-0.3,1.5c0,0.5,0.1,1,0.3,1.5c0.2,0.5,0.5,0.9,0.8,1.2
	c0.4,0.3,0.8,0.6,1.3,0.8c0.5,0.2,1,0.3,1.5,0.2h13.5c1.1,1.8,2.6,3.2,4.4,4.3c1.8,1.1,3.8,1.8,5.8,2c2.1,0.2,4.2,0,6.1-0.7
	c2-0.7,3.7-1.8,5.2-3.3c0.2,0,0.5,0,0.7,0c2.2,0,4.3-0.8,5.8-2.3c1.6-1.5,2.5-3.5,2.7-5.7c0.1-2.2-0.5-4.3-1.9-6
	S294.1,264.5,291.9,264.3L291.9,264.3z"/>
<path class="st3" d="M291.9,264.3c-1.2-2-3-3.6-5.1-4.8c-2.1-1.1-4.4-1.7-6.7-1.7c-2.4,0-4.7,0.6-6.7,1.8c-2,1.2-3.8,2.8-5,4.9
	c-1.1-0.3-2.3-0.4-3.4-0.2c-1.1,0.2-2.2,0.7-3.1,1.4c-0.9,0.7-1.6,1.6-2.2,2.6c-0.5,1-0.8,2.2-0.7,3.3h-3.9c-0.5,0-1,0.1-1.5,0.2
	c-0.5,0.2-0.9,0.4-1.3,0.8c-0.4,0.3-0.6,0.8-0.8,1.2c-0.2,0.5-0.3,1-0.3,1.5c0,0.5,0.1,1,0.3,1.5c0.2,0.5,0.5,0.9,0.8,1.2
	c0.4,0.3,0.8,0.6,1.3,0.8c0.5,0.2,1,0.3,1.5,0.2h13.5c1.1,1.8,2.6,3.2,4.4,4.3c1.8,1.1,3.8,1.8,5.8,2c2.1,0.2,4.2,0,6.1-0.7
	c2-0.7,3.7-1.8,5.2-3.3c0.2,0,0.5,0,0.7,0c2.2,0,4.3-0.8,5.8-2.3c1.6-1.5,2.5-3.5,2.7-5.7c0.1-2.2-0.5-4.3-1.9-6
	S294.1,264.5,291.9,264.3L291.9,264.3z"/>
</svg>
