<?xml version="1.0" encoding="utf-8"?>
<!-- Generator: Adobe Illustrator 24.0.1, SVG Export Plug-In . SVG Version: 6.00 Build 0)  -->
<svg version="1.1" id="Слой_1" xmlns="http://www.w3.org/2000/svg" xmlns:xlink="http://www.w3.org/1999/xlink" x="0px" y="0px"
	 viewBox="0 0 78.4 92.3" style="enable-background:new 0 0 78.4 92.3;" xml:space="preserve">
<style type="text/css">
	.st0{fill:#263238;}
</style>
<path d="M48.9,84.2c0,0-6.7-1.2-7.5-3.7c0-0.1,0-0.1-0.1-0.2l-0.1-0.1c-0.1,0-0.1,0-0.2-0.1c-0.1,0-0.1,0-0.2,0l-4.6,1.2
	c-0.1,0-0.2,0.1-0.3,0.2c-0.1,0.1-0.1,0.2-0.2,0.3l-0.9,4.6l1.3-0.1l0.5-0.7l0.7,0.6c7.3-0.5,10.5-0.8,12-1.3
	C49.2,84.4,48.9,84.2,48.9,84.2z"/>
<path class="st0" d="M45.9,44.4c0.1-14.9-4-38-4-38H30.8c0,0,2.4,14.2,3.4,23.4c0.7,5.7,1.5,12.1,1.3,14.6c-0.3,3.6,0,38,0,38
	l6.1-1.3C41.7,81.1,45.9,58.9,45.9,44.4z"/>
<image style="display:none;overflow:visible;enable-background:new    ;" width="102" height="120" xlink:href="int-man-up-leg-r.png"  transform="matrix(0.75 0 0 0.75 0.95 1.1199)">
</image>
</svg>
