<?xml version="1.0" encoding="utf-8"?>
<!-- Generator: Adobe Illustrator 24.0.1, SVG Export Plug-In . SVG Version: 6.00 Build 0)  -->
<svg version="1.1" id="Слой_1" xmlns="http://www.w3.org/2000/svg" xmlns:xlink="http://www.w3.org/1999/xlink" x="0px" y="0px"
	 viewBox="0 0 96 173" style="enable-background:new 0 0 96 173;" xml:space="preserve">
<style type="text/css">
	.st0{fill:#FFB573;}
	.st1{fill:#066FA4;}
	.st2{opacity:0.7;fill:#FFFFFF;enable-background:new    ;}
	.st3{opacity:0.1;enable-background:new    ;}
</style>
<path class="st0" d="M98.3,27l0.7-1.6c0.1-0.3,0.2-0.4,0.1-0.7c0-0.2-0.1-0.4-0.3-0.6l-1-1.4c-0.2-0.2-0.4-0.4-0.6-0.5
	c-0.3-0.1-0.6-0.1-0.9-0.1l-7.1,2l0,2.9c2.6,2.5,6.6,0.7,6.6,0.7l1,0.1c0.2,0,0.5,0,0.8-0.1C97.9,27.5,98.2,27.3,98.3,27L98.3,27z"
	/>
<path class="st1" d="M65.1,5.3c0,0,0.8,2.5,1.5,3.8c0.6,1.4,1.2,2.9,1.9,4.2c0.7,1.3,1.3,2.7,2.1,3.9c0.3,0.5,0.7,1,1.1,1.6l0.4,0.5
	c0.2,0.1-0.1,0,0,0.1c0.5,0.2,1.1,0.4,1.8,0.6c0.7,0.1,1.5,0.4,2.2,0.5c1.5,0.4,3,0.7,4.6,1l9.3,1.8L89.6,28c-1.6,0-3.3,0-4.9,0
	c-1.7-0.1-3.2-0.2-4.9-0.2c-1.7-0.1-3.3-0.3-4.9-0.4c-0.8-0.1-1.6-0.2-2.5-0.3c-1-0.1-2-0.4-2.9-0.7c-0.7-0.2-1.4-0.7-2-1.2
	c-0.5-0.3-0.9-0.8-1.3-1.2c-0.6-0.7-1.3-1.4-1.8-2.3c-1-1.4-2-2.9-2.8-4.5c-1.6-2.9-3.1-6-4.2-9.1L65.1,5.3z"/>
<path class="st2" d="M89.5,27.9c-1.6,0-3.3,0-4.9,0c-1.7-0.1-3.2-0.2-4.9-0.2s-3.3-0.3-4.9-0.5c-0.8-0.1-1.6-0.2-2.5-0.3
	c-1-0.1-2-0.4-2.9-0.7c-0.8-0.3-1.4-0.7-2-1.2c-0.5-0.3-0.9-0.8-1.3-1.2c-0.6-0.7-1.3-1.4-1.8-2.3c-1-1.4-2-2.9-2.8-4.5
	c-0.4-0.6-0.6-1.3-1-1.9c-1.2-2.3-2.3-4.7-3.2-7.1L59,7.4l6.3-2.1c0,0,0.8,2.5,1.5,3.8c0.6,1.4,1.2,2.9,1.9,4.2s1.3,2.7,2.1,3.9
	c0.3,0.5,0.7,1,1.1,1.6c0.1,0.2,0.2,0.3,0.4,0.5c0.2,0.1-0.1,0,0,0.1c0.5,0.2,1.1,0.4,1.8,0.6c0.7,0.1,1.5,0.4,2.2,0.5
	c1.5,0.4,3,0.7,4.6,1l9.3,1.8L89.5,27.9z"/>
<path class="st3" d="M60.5,15.1c-1.2-2.3-2.3-4.7-3.2-7.1l1.6-0.6l1.6,0C61.5,9.8,61.5,12.6,60.5,15.1L60.5,15.1z"/>
</svg>
