<?xml version="1.0" encoding="utf-8"?>
<!-- Generator: Adobe Illustrator 24.0.1, SVG Export Plug-In . SVG Version: 6.00 Build 0)  -->
<svg version="1.1" id="Слой_1" xmlns="http://www.w3.org/2000/svg" xmlns:xlink="http://www.w3.org/1999/xlink" x="0px" y="0px"
	 viewBox="0 0 96 173" style="enable-background:new 0 0 96 173;" xml:space="preserve">
<style type="text/css">
	.st0{fill:#263238;}
</style>
<path d="M33.9,171.3c0,0-8.5-2.8-9.1-6.2c0-0.1,0-0.2-0.1-0.2c0-0.1-0.1-0.1-0.2-0.2c-0.1,0-0.1-0.1-0.2-0.1c-0.1,0-0.2,0-0.2,0
	l-6.2,1c-0.2,0-0.3,0.1-0.4,0.2c-0.1,0.1-0.2,0.2-0.2,0.4l-2,6l1.7,0.1l0.6-0.9l0.8,0.9c9.6,0.6,13.7,0.7,15.6,0.2
	C34.3,171.6,33.9,171.3,33.9,171.3z"/>
<path class="st0" d="M46.5,67.6c0,0,0,1-0.2,2.9c-0.2,2-0.4,4.8-0.7,8.2c-0.2,2.3-0.4,4.8-0.7,7.5c-1.2,12.3-2.9,27.5-4.6,35.6
	c-3.3,15.3-14.8,45.7-14.8,45.7l-8.3-0.5c0,0,6-29.7,8.9-44.6c1-6.1,1.8-12,2-18.1c0.2-3.4,0.4-6.8,0.6-10.3
	c0.1-1.6,0.1-3.1,0.2-4.6c0.2-4,0.3-7.9,0.3-11.3c0-0.4,0-0.9,0.1-1.3c0.1-1.4,0-2.7,0.1-4c0.1-5.1,0.1-8.4,0.1-8.5l7.8,1.7
	L46.5,67.6z"/>
</svg>
