<?xml version="1.0" encoding="utf-8"?>
<!-- Generator: Adobe Illustrator 24.0.1, SVG Export Plug-In . SVG Version: 6.00 Build 0)  -->
<svg version="1.1" id="Слой_1" xmlns="http://www.w3.org/2000/svg" xmlns:xlink="http://www.w3.org/1999/xlink" x="0px" y="0px"
	 viewBox="0 0 63 27" style="enable-background:new 0 0 63 27;" xml:space="preserve">
<style type="text/css">
	.st0{fill:#F0F0F0;}
</style>
<path class="st0" d="M5.4,9.2h15.6C21,9.6,21,10,21,10.4c0,2.7,1.1,5.3,3,7.2c1.9,1.9,4.5,3,7.2,3h0.4c0.7,2,2.2,3.7,4,4.7
	c1.9,1.1,4,1.4,6.1,1.1c2.1-0.4,4-1.5,5.4-3.1c1.4-1.6,2.1-3.7,2.1-5.8c2.2-0.1,4.2-1,5.7-2.5c1.5-1.5,2.4-3.6,2.5-5.7h0.4
	c1.2,0,2.4-0.5,3.2-1.3c0.9-0.9,1.3-2,1.3-3.2c0-1.2-0.5-2.4-1.3-3.2c-0.9-0.9-2-1.3-3.2-1.3H5.4c-1.2,0-2.4,0.5-3.2,1.3
	c-0.9,0.9-1.3,2-1.3,3.2c0,1.2,0.5,2.4,1.3,3.2C3.1,8.7,4.2,9.2,5.4,9.2z"/>
</svg>
