<?xml version="1.0" encoding="utf-8"?>
<!-- Generator: Adobe Illustrator 24.0.1, SVG Export Plug-In . SVG Version: 6.00 Build 0)  -->
<svg version="1.1" id="Слой_1" xmlns="http://www.w3.org/2000/svg" xmlns:xlink="http://www.w3.org/1999/xlink" x="0px" y="0px"
	 viewBox="0 0 259 145" style="enable-background:new 0 0 259 145;" xml:space="preserve">
<style type="text/css">
	.st0{fill:#066FA4;}
	.st1{opacity:0.2;fill:#FFFFFF;enable-background:new    ;}
	.st2{display:none;fill:#066FA4;}
	.st3{display:none;opacity:0.7;fill:#FFFFFF;enable-background:new    ;}
</style>
<path class="st0" d="M9,139h137.5l72.8-58.8l3.2,3.9h17.9l18.3-84.1l-17.9,0l0,0l-86,0.2L164.9,13L9,139z"/>
<path class="st1" d="M9,139h119.6l83.6-67.6l10.3,12.7l18.3-84.1l-86,0.2L164.9,13L9,139z"/>
<path class="st2" d="M6.2,134.2h98.7c0-0.4-0.1-0.8-0.1-1.3c0-1.5,0.3-3,0.9-4.4c0.6-1.4,1.4-2.7,2.5-3.7c1.1-1.1,2.3-1.9,3.7-2.5
	c1.4-0.6,2.9-0.9,4.4-0.9h0.4c0.8-2.2,2.4-4.1,4.5-5.3c2.1-1.2,4.5-1.6,6.8-1.2c2.3,0.4,4.5,1.7,6,3.5c1.5,1.8,2.4,4.1,2.4,6.5
	c2.4,0.1,4.7,1.1,6.4,2.8c1.7,1.7,2.7,4,2.8,6.4h0.5c0.7,0,1.4,0.1,2,0.3c0.6,0.2,1.2,0.6,1.7,1.1c0.5,0.5,0.9,1,1.2,1.7
	c0.3,0.6,0.4,1.3,0.4,2c0,0.7-0.1,1.4-0.4,2c-0.3,0.6-0.7,1.2-1.2,1.7c-0.5,0.5-1.1,0.8-1.7,1.1c-0.6,0.2-1.3,0.4-2,0.3H6.2
	c-0.7,0-1.4-0.1-2-0.3s-1.2-0.6-1.7-1.1c-0.5-0.5-0.9-1-1.2-1.7s-0.4-1.3-0.4-2c0-0.7,0.1-1.4,0.4-2s0.7-1.2,1.2-1.7
	c0.5-0.5,1.1-0.8,1.7-1.1C4.8,134.2,5.5,134.1,6.2,134.2L6.2,134.2z"/>
<path class="st3" d="M6.2,134.2h98.7c0-0.4-0.1-0.8-0.1-1.3c0-1.5,0.3-3,0.9-4.4c0.6-1.4,1.4-2.7,2.5-3.7c1.1-1.1,2.3-1.9,3.7-2.5
	c1.4-0.6,2.9-0.9,4.4-0.9h0.4c0.8-2.2,2.4-4.1,4.5-5.3c2.1-1.2,4.5-1.6,6.8-1.2c2.3,0.4,4.5,1.7,6,3.5c1.5,1.8,2.4,4.1,2.4,6.5
	c2.4,0.1,4.7,1.1,6.4,2.8c1.7,1.7,2.7,4,2.8,6.4h0.5c0.7,0,1.4,0.1,2,0.3c0.6,0.2,1.2,0.6,1.7,1.1c0.5,0.5,0.9,1,1.2,1.7
	c0.3,0.6,0.4,1.3,0.4,2c0,0.7-0.1,1.4-0.4,2c-0.3,0.6-0.7,1.2-1.2,1.7c-0.5,0.5-1.1,0.8-1.7,1.1c-0.6,0.2-1.3,0.4-2,0.3H6.2
	c-0.7,0-1.4-0.1-2-0.3s-1.2-0.6-1.7-1.1c-0.5-0.5-0.9-1-1.2-1.7s-0.4-1.3-0.4-2c0-0.7,0.1-1.4,0.4-2s0.7-1.2,1.2-1.7
	c0.5-0.5,1.1-0.8,1.7-1.1C4.8,134.2,5.5,134.1,6.2,134.2L6.2,134.2z"/>
</svg>
