<svg width="39" height="23" viewBox="0 0 39 23" fill="none" xmlns="http://www.w3.org/2000/svg">
<path d="M0.812537 18.3637C0.812537 17.2276 1.26364 16.1381 2.0666 15.3347C2.86956 14.5314 3.95862 14.0801 5.09418 14.0801C5.51029 14.0814 5.92413 14.1418 6.32332 14.2593C6.25752 13.8253 6.22487 13.387 6.22564 12.9481C6.22564 10.5421 7.18101 8.23455 8.88158 6.5332C10.5822 4.83186 12.8886 3.87605 15.2936 3.87605C15.8538 3.87658 16.4126 3.93113 16.9623 4.03893C17.8618 2.58582 19.2069 1.46264 20.7967 0.837009C22.3866 0.21138 24.1361 0.11684 25.7841 0.567494C27.432 1.01815 28.8902 1.98983 29.9409 3.33756C30.9917 4.68528 31.5787 6.33679 31.6143 8.04564H31.7445C33.5779 8.19577 35.2878 9.03045 36.5343 10.3838C37.7808 11.7372 38.4729 13.5102 38.4729 15.3505C38.4729 17.1909 37.7808 18.9639 36.5343 20.3173C35.2878 21.6706 33.5779 22.5053 31.7445 22.6554H4.97208C3.85572 22.6257 2.79537 22.1599 2.01797 21.3578C1.24057 20.5556 0.807886 19.481 0.812537 18.3637Z" fill="#F0F0F0"/>
</svg>
