<svg width="35" height="33" viewBox="0 0 35 33" fill="none" xmlns="http://www.w3.org/2000/svg">
<path d="M27.9298 2.20238L26.479 12.2126L33.8915 19.0529C34.0708 19.2188 34.2002 19.4317 34.265 19.6674C34.3297 19.9031 34.3272 20.1522 34.2578 20.3865C34.1884 20.6209 34.0549 20.8311 33.8722 20.9935C33.6896 21.1558 33.4652 21.2638 33.2244 21.3052L23.2772 22.9736L19.0414 32.1496C18.9384 32.3703 18.7758 32.5578 18.5721 32.6912C18.3683 32.8246 18.1314 32.8984 17.888 32.9045C17.6446 32.9106 17.4043 32.8486 17.1942 32.7255C16.984 32.6025 16.8124 32.4233 16.6984 32.208L12.0041 23.2739L1.99847 22.0726C1.7566 22.0434 1.52771 21.9471 1.33753 21.7948C1.14735 21.6424 1.00344 21.44 0.921997 21.2103C0.840549 20.9806 0.824797 20.7327 0.876506 20.4945C0.928216 20.2563 1.04533 20.0373 1.21469 19.862L8.26034 12.638L6.28422 2.73626C6.23785 2.49723 6.259 2.25001 6.34529 2.02235C6.43159 1.79468 6.57961 1.59559 6.77274 1.44743C6.96586 1.29926 7.19645 1.2079 7.43861 1.18359C7.68077 1.15928 7.92491 1.20299 8.14361 1.3098L17.2154 5.79771L26.0287 0.876025C26.2403 0.763014 26.479 0.710727 26.7184 0.724942C26.9578 0.739158 27.1886 0.819324 27.3854 0.956578C27.5821 1.09383 27.7371 1.28283 27.8331 1.50269C27.9292 1.72254 27.9627 1.9647 27.9298 2.20238Z" fill="#F0F0F0"/>
</svg>
