<svg width="52" height="35" viewBox="0 0 52 35" fill="none" xmlns="http://www.w3.org/2000/svg">
<path d="M0 33.6951L51.7244 3.82812V4.82525L0 34.6923V33.6951Z" fill="#E0E0E0"/>
<path d="M12.0342 18.1841C14.1844 16.7439 16.5838 14.3157 16.1962 11.4444C15.9655 9.69947 14.5443 9.02552 12.9386 9.64409C9.79179 10.8535 7.80772 15.5898 6.70955 18.4518C5.78673 20.9538 4.52245 25.6716 8.27835 26.4748C12.6802 27.3981 16.0855 20.9354 17.0821 17.5748C17.2205 17.1039 16.4546 16.8454 16.2331 17.2701C15.8455 18.0364 13.2524 23.0958 16.1039 22.4587C17.119 22.2372 17.7004 20.6584 18.0695 19.8552C18.7155 18.4149 19.0385 16.4115 20.0536 15.1743L19.3061 14.8327C19.3523 16.1622 19.3061 17.067 20.2289 18.101C20.2991 18.1972 20.4044 18.2617 20.5219 18.2807C20.6393 18.2997 20.7595 18.2717 20.8565 18.2026C22.3145 16.8454 22.416 14.6388 24.0218 13.4109L23.3665 13.097C23.3665 13.5217 23.1728 14.7312 23.1451 15.2944C23.1451 15.5621 23.505 15.7375 23.7172 15.6544C23.9257 15.6112 24.1199 15.5157 24.2813 15.3768C24.4427 15.2379 24.5662 15.0602 24.6401 14.8604L23.9387 14.6019C24.5478 17.861 27.3255 14.6019 28.276 13.3648C31.0445 9.67179 33.0193 5.71106 33.0931 0.984041C33.0931 0.60551 32.3826 0.411624 32.3733 0.864014C32.3087 4.5016 30.7215 7.83451 29.6971 11.269C28.599 14.962 27.6854 18.7381 26.9287 22.5418L27.5839 22.7819C27.7919 20.0902 28.4794 17.4576 29.6141 15.0081C30.3297 12.8262 31.5248 10.8324 33.1116 9.17323L32.5025 8.94242C32.6636 9.89159 32.6148 10.8645 32.3597 11.7928C32.1046 12.7211 31.6494 13.5823 31.026 14.3157C30.8322 14.565 31.2659 15.0358 31.4597 14.7866C32.4748 13.5125 34.1452 13.1063 35.2341 11.8691C36.2574 10.4793 37.1678 9.00974 37.9564 7.47446L37.4581 7.22519C37.3935 10.3273 40.3189 5.48949 40.7157 4.97247L40.2358 4.78781C40.4296 5.42485 40.688 5.84955 41.4078 5.85878C42.8382 5.85878 43.3734 3.77225 44.4531 3.53221C44.4531 3.53221 44.9238 3.92919 45.0899 3.94765C45.685 4.03497 46.2923 3.92126 46.8156 3.62451C48.0223 2.84382 48.9975 1.7534 49.6394 0.467025C49.8055 0.171586 49.2426 -0.197707 49.058 0.125429C48.3475 1.32565 46.1327 4.51084 44.5269 2.95056C44.4254 2.85823 44.2132 2.76591 44.1024 2.89517C43.6687 3.43065 41.1863 6.27425 40.7249 4.74166C40.6695 4.55701 40.4019 4.35388 40.2543 4.557C39.8759 5.05555 39.5714 5.60949 39.2207 6.13574C39.0269 6.42195 37.9472 8.24074 37.9841 7.31749C37.9841 7.09591 37.6427 6.83742 37.4858 7.06823C36.4799 8.61005 35.7416 10.632 34.3389 11.8876C33.2962 12.8108 31.9304 13.1616 31.026 14.2788L31.4597 14.7496C32.1568 13.9637 32.6701 13.0321 32.9622 12.0228C33.2543 11.0135 33.318 9.95173 33.1485 8.91472C33.1349 8.85135 33.1057 8.7924 33.0635 8.74325C33.0213 8.69409 32.9674 8.65629 32.9068 8.63333C32.8462 8.61038 32.7809 8.60297 32.7167 8.61181C32.6525 8.62064 32.5916 8.64544 32.5394 8.68391C30.8138 10.2719 29.8448 12.5061 28.9866 14.6481C27.8352 17.1489 27.1353 19.8339 26.9194 22.5787C26.9194 22.865 27.5008 23.1881 27.5746 22.8188C28.3546 18.7143 29.3683 14.6577 30.6107 10.6689C31.6258 7.45599 33.0009 4.36311 33.0655 0.947103L32.3457 0.827076C32.2774 4.36421 31.1631 7.80181 29.1434 10.7058C28.6267 11.509 28.0822 12.3123 27.4916 13.0693C27.2332 13.4109 24.9446 16.4023 24.6493 14.6666C24.6031 14.4173 24.114 14.0664 23.9479 14.408L23.2835 14.9989L23.8556 15.3497C23.9018 14.6019 24.0494 13.9002 24.0863 13.1432C24.0863 12.857 23.6434 12.6723 23.4312 12.8385C21.7977 14.0849 21.6778 16.2914 20.2105 17.6486L20.838 17.7502C20.3396 16.915 20.0959 15.9523 20.1367 14.9805C20.1367 14.6573 19.6383 14.3434 19.3892 14.6389C18.2633 15.9868 17.9127 18.1379 17.1744 19.7075C16.7684 20.5661 15.3287 22.8557 15.7902 20.4184C16.0958 19.4082 16.5333 18.4428 17.0913 17.5471L16.2423 17.2424C15.3749 20.1783 13.0586 24.6284 9.8933 25.5516C5.85132 26.7611 6.55266 21.7478 7.29092 19.5136C8.16931 16.9104 9.47277 14.4707 11.1483 12.2938C11.4554 11.8602 11.8047 11.4582 12.1911 11.0936C13.0124 10.355 13.2524 10.1703 14.3967 10.8258C15.541 11.4814 15.5964 11.8414 15.3195 13.0786C15.1502 13.6928 14.8955 14.2802 14.5628 14.8235C13.8319 15.9388 12.9141 16.9196 11.8497 17.7225C11.702 17.8425 11.9143 18.2395 12.0804 18.1195L12.0342 18.1841Z" fill="#455A64"/>
</svg>
