<svg version="1.1" id="Слой_1" xmlns="http://www.w3.org/2000/svg" x="0" y="0" viewBox="0 0 936 980" xml:space="preserve"><style>.st1{fill:#d0d0d0}</style><path d="M329.1 978.5c-21.5-4.8-39-14.8-52.6-29.8-6.9-7.7-255.3-335.2-261.2-344.5-17.7-27.6-19.7-64.4-5.3-94.6 9-19 25.3-35.7 44-45.1 37.2-18.7 83.6-11.6 112.8 17.3 3.9 3.9 41.3 52.3 90.2 116.9 63.5 83.9 83.7 110 84.6 109 .6-.6 13.3-20.8 28.1-44.7C479 487.1 755 44.4 758.5 39.5c9.3-13 24.4-25.1 39.5-31.6C812.8 1.6 818.4.5 837.5.5c14.7 0 18.2.3 25.4 2.3 16.6 4.5 30.1 12.3 43 24.6 13.4 12.9 21.9 27.6 26.7 46.1 2.1 8.1 2.6 12.5 2.7 23 .1 17.4-2.7 30.2-9.8 44.5-3.3 6.5-492 791.8-497.6 799.5-5 6.8-17.1 18.5-24.1 23.1-8.7 5.8-20 11-29.6 13.6-10.1 2.7-35.5 3.5-45.1 1.3z" fill="#fff" id="layer101"/><g id="layer102"><path class="st1" d="M336.3 979.3c.9-.2 2.5-.2 3.5 0 .9.3.1.5-1.8.5s-2.7-.2-1.7-.5zM358.3 979.3c.9-.2 2.5-.2 3.5 0 .9.3.1.5-1.8.5s-2.7-.2-1.7-.5zM388 971.5c1.4-.8 3-1.4 3.5-1.4.6 0-.1.6-1.5 1.4s-2.9 1.4-3.5 1.4c-.5 0 .1-.6 1.5-1.4zM293.3 963.5c-2.8-1.9-5.5-3.9-5.8-4.6-.6-.9 8.3 4.9 11 7.3 2.1 1.9-.4.6-5.2-2.7zM400 965.7c0-.2 1.8-1.6 4-3.1 2.3-1.5 5.8-4.1 7.9-5.9 2.1-1.8 1.7-1.2-1 1.3-4.3 4.1-10.9 8.7-10.9 7.7zM278.9 951.3c-6.2-6.5-19.5-23.3-18.5-23.3.3 0 3.3 3.7 6.8 8.3 3.4 4.5 9.1 11.2 12.7 15 3.5 3.7 6.2 6.7 5.9 6.7-.2 0-3.4-3-6.9-6.7zM417 952.2c0-.5 1.4-2.1 3.1-3.8 1.7-1.6 5.2-5.8 7.7-9.4 4.7-6.7 7.2-9.8 5.7-7-3.4 6.1-16.5 22.2-16.5 20.2zM434.9 928.5c.5-1.1 1.7-2.9 2.6-4l1.6-2-1 2c-.5 1.1-1.7 2.9-2.6 4l-1.6 2 1-2zM439.9 920.5c.5-1.1 1.7-2.9 2.6-4l1.6-2-1 2c-.5 1.1-1.7 2.9-2.6 4l-1.6 2 1-2zM242.5 905c-4.2-5.5-7.3-10-7.1-10 .3 0 3.9 4.5 8.1 10s7.3 10 7.1 10c-.3 0-3.9-4.5-8.1-10zM444.9 912.5c.5-1.1 1.7-2.9 2.6-4l1.6-2-1 2c-.5 1.1-1.7 2.9-2.6 4l-1.6 2 1-2zM449.9 904.5c.5-1.1 1.7-2.9 2.6-4l1.6-2-1 2c-.5 1.1-1.7 2.9-2.6 4l-1.6 2 1-2zM217.5 872c-4.2-5.5-7.3-10-7.1-10 .3 0 3.9 4.5 8.1 10s7.3 10 7.1 10c-.3 0-3.9-4.5-8.1-10zM467.9 875.5c.5-1.1 1.7-2.9 2.6-4l1.6-2-1 2c-.5 1.1-1.7 2.9-2.6 4l-1.6 2 1-2zM472.9 867.5c.5-1.1 1.7-2.9 2.6-4l1.6-2-1 2c-.5 1.1-1.7 2.9-2.6 4l-1.6 2 1-2zM477.9 859.5c.5-1.1 1.7-2.9 2.6-4l1.6-2-1 2c-.5 1.1-1.7 2.9-2.6 4l-1.6 2 1-2zM194 841c-5-6.6-8.8-12-8.6-12 .3 0 4.6 5.4 9.6 12s8.8 12 8.6 12c-.3 0-4.6-5.4-9.6-12zM482.9 851.5c.5-1.1 1.7-2.9 2.6-4l1.6-2-1 2c-.5 1.1-1.7 2.9-2.6 4l-1.6 2 1-2zM487.9 843.5c.5-1.1 1.7-2.9 2.6-4l1.6-2-1 2c-.5 1.1-1.7 2.9-2.6 4l-1.6 2 1-2zM492.9 835.5c.5-1.1 1.7-2.9 2.6-4l1.6-2-1 2c-.5 1.1-1.7 2.9-2.6 4l-1.6 2 1-2zM169 808c-5-6.6-8.8-12-8.6-12 .3 0 4.6 5.4 9.6 12s8.8 12 8.6 12c-.3 0-4.6-5.4-9.6-12zM505.9 814.5c.5-1.1 1.7-2.9 2.6-4l1.6-2-1 2c-.5 1.1-1.7 2.9-2.6 4l-1.6 2 1-2zM510.9 806.5c.5-1.1 1.7-2.9 2.6-4l1.6-2-1 2c-.5 1.1-1.7 2.9-2.6 4l-1.6 2 1-2zM515.9 798.5c.5-1.1 1.7-2.9 2.6-4l1.6-2-1 2c-.5 1.1-1.7 2.9-2.6 4l-1.6 2 1-2zM520.9 790.5c.5-1.1 1.7-2.9 2.6-4l1.6-2-1 2c-.5 1.1-1.7 2.9-2.6 4l-1.6 2 1-2zM144 775c-5-6.6-8.8-12-8.6-12 .3 0 4.6 5.4 9.6 12s8.8 12 8.6 12c-.3 0-4.6-5.4-9.6-12zM525.9 782.5c.5-1.1 1.7-2.9 2.6-4l1.6-2-1 2c-.5 1.1-1.7 2.9-2.6 4l-1.6 2 1-2zM530.9 774.5c.5-1.1 1.7-2.9 2.6-4l1.6-2-1 2c-.5 1.1-1.7 2.9-2.6 4l-1.6 2 1-2zM543.9 753.5c.5-1.1 1.7-2.9 2.6-4l1.6-2-1 2c-.5 1.1-1.7 2.9-2.6 4l-1.6 2 1-2zM120.5 744c-4.2-5.5-7.3-10-7.1-10 .3 0 3.9 4.5 8.1 10 4.2 5.5 7.3 10 7.1 10-.3 0-3.9-4.5-8.1-10zM548.9 745.5c.5-1.1 1.7-2.9 2.6-4l1.6-2-1 2c-.5 1.1-1.7 2.9-2.6 4l-1.6 2 1-2zM553.9 737.5c.5-1.1 1.7-2.9 2.6-4l1.6-2-1 2c-.5 1.1-1.7 2.9-2.6 4l-1.6 2 1-2zM558.9 729.5c.5-1.1 1.7-2.9 2.6-4l1.6-2-1 2c-.5 1.1-1.7 2.9-2.6 4l-1.6 2 1-2zM563.9 721.5c.5-1.1 1.7-2.9 2.6-4l1.6-2-1 2c-.5 1.1-1.7 2.9-2.6 4l-1.6 2 1-2zM95.5 711c-4.2-5.5-7.3-10-7.1-10 .3 0 3.9 4.5 8.1 10 4.2 5.5 7.3 10 7.1 10-.3 0-3.9-4.5-8.1-10zM333 700.4c-4-5.3-6.8-9.4-6.2-9 .6.3 3.9 4.4 7.3 9.1 5.3 7.2 6.5 8.3 7.8 7.2 1.4-1.1 1.4-1 .2.6-.7.9-1.5 1.7-1.6 1.7s-3.5-4.3-7.5-9.6zM581.9 692.5c.5-1.1 1.7-2.9 2.6-4l1.6-2-1 2c-.5 1.1-1.7 2.9-2.6 4l-1.6 2 1-2zM70.5 678c-4.2-5.5-7.3-10-7.1-10 .3 0 3.9 4.5 8.1 10 4.2 5.5 7.3 10 7.1 10-.3 0-3.9-4.5-8.1-10zM586.9 684.5c.5-1.1 1.7-2.9 2.6-4l1.6-2-1 2c-.5 1.1-1.7 2.9-2.6 4l-1.6 2 1-2zM356.9 683.5c.5-1.1 1.7-2.9 2.6-4l1.6-2-1 2c-.5 1.1-1.7 2.9-2.6 4l-1.6 2 1-2zM310 670c-5-6.6-8.8-12-8.6-12 .3 0 4.6 5.4 9.6 12s8.8 12 8.6 12c-.3 0-4.6-5.4-9.6-12zM591.9 676.5c.5-1.1 1.7-2.9 2.6-4l1.6-2-1 2c-.5 1.1-1.7 2.9-2.6 4l-1.6 2 1-2zM361.9 675.5c.5-1.1 1.7-2.9 2.6-4l1.6-2-1 2c-.5 1.1-1.7 2.9-2.6 4l-1.6 2 1-2zM596.9 668.5c.5-1.1 1.7-2.9 2.6-4l1.6-2-1 2c-.5 1.1-1.7 2.9-2.6 4l-1.6 2 1-2zM366.9 667.5c.5-1.1 1.7-2.9 2.6-4l1.6-2-1 2c-.5 1.1-1.7 2.9-2.6 4l-1.6 2 1-2zM601.9 660.5c.5-1.1 1.7-2.9 2.6-4l1.6-2-1 2c-.5 1.1-1.7 2.9-2.6 4l-1.6 2 1-2zM371.9 659.5c.5-1.1 1.7-2.9 2.6-4l1.6-2-1 2c-.5 1.1-1.7 2.9-2.6 4l-1.6 2 1-2zM47 647c-5-6.6-8.8-12-8.6-12 .3 0 4.6 5.4 9.6 12s8.8 12 8.6 12c-.3 0-4.6-5.4-9.6-12zM606.9 652.5c.5-1.1 1.7-2.9 2.6-4l1.6-2-1 2c-.5 1.1-1.7 2.9-2.6 4l-1.6 2 1-2zM285 637c-5-6.6-8.8-12-8.6-12 .3 0 4.6 5.4 9.6 12s8.8 12 8.6 12c-.3 0-4.6-5.4-9.6-12zM619.9 631.5c.5-1.1 1.7-2.9 2.6-4l1.6-2-1 2c-.5 1.1-1.7 2.9-2.6 4l-1.6 2 1-2zM24.9 617.8c-3.4-4.6-6.7-8.9-7.2-9.5-.5-.7-.7-1.3-.4-1.3.2 0 3.7 4.3 7.6 9.5s6.9 9.5 6.7 9.5c-.3 0-3.3-3.7-6.7-8.2zM624.9 623.5c.5-1.1 1.7-2.9 2.6-4l1.6-2-1 2c-.5 1.1-1.7 2.9-2.6 4l-1.6 2 1-2zM394.9 622.5c.5-1.1 1.7-2.9 2.6-4l1.6-2-1 2c-.5 1.1-1.7 2.9-2.6 4l-1.6 2 1-2zM629.9 615.5c.5-1.1 1.7-2.9 2.6-4l1.6-2-1 2c-.5 1.1-1.7 2.9-2.6 4l-1.6 2 1-2zM260 604c-5-6.6-8.8-12-8.6-12 .3 0 4.6 5.4 9.6 12s8.8 12 8.6 12c-.3 0-4.6-5.4-9.6-12zM399.9 614.5c.5-1.1 1.7-2.9 2.6-4l1.6-2-1 2c-.5 1.1-1.7 2.9-2.6 4l-1.6 2 1-2zM634.9 607.5c.5-1.1 1.7-2.9 2.6-4l1.6-2-1 2c-.5 1.1-1.7 2.9-2.6 4l-1.6 2 1-2zM404.9 606.5c.5-1.1 1.7-2.9 2.6-4l1.6-2-1 2c-.5 1.1-1.7 2.9-2.6 4l-1.6 2 1-2zM10.4 595.9c-1.4-2.8-2.4-5.3-2.2-5.5.2-.2 1.6 2.1 3.1 5.1s2.5 5.5 2.2 5.5-1.6-2.3-3.1-5.1zM639.9 599.5c.5-1.1 1.7-2.9 2.6-4l1.6-2-1 2c-.5 1.1-1.7 2.9-2.6 4l-1.6 2 1-2zM409.9 598.5c.5-1.1 1.7-2.9 2.6-4l1.6-2-1 2c-.5 1.1-1.7 2.9-2.6 4l-1.6 2 1-2zM644.9 591.5c.5-1.1 1.7-2.9 2.6-4l1.6-2-1 2c-.5 1.1-1.7 2.9-2.6 4l-1.6 2 1-2zM235 571c-5-6.6-8.8-12-8.6-12 .3 0 4.6 5.4 9.6 12s8.8 12 8.6 12c-.3 0-4.6-5.4-9.6-12zM657.9 570.5c.5-1.1 1.7-2.9 2.6-4l1.6-2-1 2c-.5 1.1-1.7 2.9-2.6 4l-1.6 2 1-2zM427.9 569.5c.5-1.1 1.7-2.9 2.6-4l1.6-2-1 2c-.5 1.1-1.7 2.9-2.6 4l-1.6 2 1-2zM662.9 562.5c.5-1.1 1.7-2.9 2.6-4l1.6-2-1 2c-.5 1.1-1.7 2.9-2.6 4l-1.6 2 1-2zM432.9 561.5c.5-1.1 1.7-2.9 2.6-4l1.6-2-1 2c-.5 1.1-1.7 2.9-2.6 4l-1.6 2 1-2zM.3 552.5c0-3.8.2-5.3.4-3.2.2 2 .2 5.2 0 7-.2 1.7-.4.1-.4-3.8zM667.9 554.5c.5-1.1 1.7-2.9 2.6-4l1.6-2-1 2c-.5 1.1-1.7 2.9-2.6 4l-1.6 2 1-2zM437.9 553.5c.5-1.1 1.7-2.9 2.6-4l1.6-2-1 2c-.5 1.1-1.7 2.9-2.6 4l-1.6 2 1-2zM210 538c-5-6.6-8.8-12-8.6-12 .3 0 4.6 5.4 9.6 12s8.8 12 8.6 12c-.3 0-4.6-5.4-9.6-12zM672.9 546.5c.5-1.1 1.7-2.9 2.6-4l1.6-2-1 2c-.5 1.1-1.7 2.9-2.6 4l-1.6 2 1-2zM442.9 545.5c.5-1.1 1.7-2.9 2.6-4l1.6-2-1 2c-.5 1.1-1.7 2.9-2.6 4l-1.6 2 1-2zM677.9 538.5c.5-1.1 1.7-2.9 2.6-4l1.6-2-1 2c-.5 1.1-1.7 2.9-2.6 4l-1.6 2 1-2zM447.9 537.5c.5-1.1 1.7-2.9 2.6-4l1.6-2-1 2c-.5 1.1-1.7 2.9-2.6 4l-1.6 2 1-2zM682.9 530.5c.5-1.1 1.7-2.9 2.6-4l1.6-2-1 2c-.5 1.1-1.7 2.9-2.6 4l-1.6 2 1-2zM185 505c-5-6.6-8.8-12-8.6-12 .3 0 4.6 5.4 9.6 12s8.8 12 8.6 12c-.3 0-4.6-5.4-9.6-12zM9 511.6c0-1.1 4-8.6 4.5-8.6.3 0-.4 1.9-1.6 4.3-2.3 4.5-2.9 5.4-2.9 4.3zM695.9 509.5c.5-1.1 1.7-2.9 2.6-4l1.6-2-1 2c-.5 1.1-1.7 2.9-2.6 4l-1.6 2 1-2zM465.9 508.5c.5-1.1 1.7-2.9 2.6-4l1.6-2-1 2c-.5 1.1-1.7 2.9-2.6 4l-1.6 2 1-2zM700.9 501.5c.5-1.1 1.7-2.9 2.6-4l1.6-2-1 2c-.5 1.1-1.7 2.9-2.6 4l-1.6 2 1-2zM15.7 498.9c1-1.7 2.4-3.6 3.2-4.2.8-.7.2.7-1.4 3.1-3.2 4.9-4.5 5.7-1.8 1.1zM470.9 500.5c.5-1.1 1.7-2.9 2.6-4l1.6-2-1 2c-.5 1.1-1.7 2.9-2.6 4l-1.6 2 1-2zM705.9 493.5c.5-1.1 1.7-2.9 2.6-4l1.6-2-1 2c-.5 1.1-1.7 2.9-2.6 4l-1.6 2 1-2zM475.9 492.5c.5-1.1 1.7-2.9 2.6-4l1.6-2-1 2c-.5 1.1-1.7 2.9-2.6 4l-1.6 2 1-2zM27.5 484.1c2.2-2.3 5.8-5.7 8-7.4 4.7-3.6 3.5-2.3-5.5 5.8-4.6 4.3-5.4 4.7-2.5 1.6zM710.9 485.5c.5-1.1 1.7-2.9 2.6-4l1.6-2-1 2c-.5 1.1-1.7 2.9-2.6 4l-1.6 2 1-2zM166.9 482.3l-3.4-3.8 3.8 3.4c3.4 3.3 4.2 4.1 3.4 4.1-.2 0-1.9-1.7-3.8-3.7zM480.9 484.5c.5-1.1 1.7-2.9 2.6-4l1.6-2-1 2c-.5 1.1-1.7 2.9-2.6 4l-1.6 2 1-2zM158 475.2c-2.5-2-5.7-4.5-7-5.5-2.4-1.7-2.4-1.7.7 0 3.1 1.6 12.4 9.2 11.3 9.2-.3 0-2.5-1.7-5-3.7zM715.9 477.5c.5-1.1 1.7-2.9 2.6-4l1.6-2-1 2c-.5 1.1-1.7 2.9-2.6 4l-1.6 2 1-2zM45.5 469.4c2.4-1.9 15.6-8.7 16-8.2.2.2-3.8 2.4-8.8 5-5.1 2.6-8.3 4.1-7.2 3.2zM142 465c-3-1.6-5.1-2.9-4.7-3 1 0 10.7 4.9 10.7 5.5 0 .7.1.7-6-2.5zM498.9 455.5c.5-1.1 1.7-2.9 2.6-4l1.6-2-1 2c-.5 1.1-1.7 2.9-2.6 4l-1.6 2 1-2zM92.8 454.3c2.8-.2 7.6-.2 10.5 0 2.8.2.5.3-5.3.3s-8.1-.1-5.2-.3zM733.9 448.5c.5-1.1 1.7-2.9 2.6-4l1.6-2-1 2c-.5 1.1-1.7 2.9-2.6 4l-1.6 2 1-2zM503.9 447.5c.5-1.1 1.7-2.9 2.6-4l1.6-2-1 2c-.5 1.1-1.7 2.9-2.6 4l-1.6 2 1-2zM738.9 440.5c.5-1.1 1.7-2.9 2.6-4l1.6-2-1 2c-.5 1.1-1.7 2.9-2.6 4l-1.6 2 1-2zM508.9 439.5c.5-1.1 1.7-2.9 2.6-4l1.6-2-1 2c-.5 1.1-1.7 2.9-2.6 4l-1.6 2 1-2zM743.9 432.5c.5-1.1 1.7-2.9 2.6-4l1.6-2-1 2c-.5 1.1-1.7 2.9-2.6 4l-1.6 2 1-2zM513.9 431.5c.5-1.1 1.7-2.9 2.6-4l1.6-2-1 2c-.5 1.1-1.7 2.9-2.6 4l-1.6 2 1-2zM748.9 424.5c.5-1.1 1.7-2.9 2.6-4l1.6-2-1 2c-.5 1.1-1.7 2.9-2.6 4l-1.6 2 1-2zM518.9 423.5c.5-1.1 1.7-2.9 2.6-4l1.6-2-1 2c-.5 1.1-1.7 2.9-2.6 4l-1.6 2 1-2zM753.9 416.5c.5-1.1 1.7-2.9 2.6-4l1.6-2-1 2c-.5 1.1-1.7 2.9-2.6 4l-1.6 2 1-2zM758.9 408.5c.5-1.1 1.7-2.9 2.6-4l1.6-2-1 2c-.5 1.1-1.7 2.9-2.6 4l-1.6 2 1-2zM536.9 394.5c.5-1.1 1.7-2.9 2.6-4l1.6-2-1 2c-.5 1.1-1.7 2.9-2.6 4l-1.6 2 1-2zM771.9 387.5c.5-1.1 1.7-2.9 2.6-4l1.6-2-1 2c-.5 1.1-1.7 2.9-2.6 4l-1.6 2 1-2zM541.9 386.5c.5-1.1 1.7-2.9 2.6-4l1.6-2-1 2c-.5 1.1-1.7 2.9-2.6 4l-1.6 2 1-2zM776.9 379.5c.5-1.1 1.7-2.9 2.6-4l1.6-2-1 2c-.5 1.1-1.7 2.9-2.6 4l-1.6 2 1-2zM546.9 378.5c.5-1.1 1.7-2.9 2.6-4l1.6-2-1 2c-.5 1.1-1.7 2.9-2.6 4l-1.6 2 1-2zM781.9 371.5c.5-1.1 1.7-2.9 2.6-4l1.6-2-1 2c-.5 1.1-1.7 2.9-2.6 4l-1.6 2 1-2zM551.9 370.5c.5-1.1 1.7-2.9 2.6-4l1.6-2-1 2c-.5 1.1-1.7 2.9-2.6 4l-1.6 2 1-2zM786.9 363.5c.5-1.1 1.7-2.9 2.6-4l1.6-2-1 2c-.5 1.1-1.7 2.9-2.6 4l-1.6 2 1-2zM556.9 362.5c.5-1.1 1.7-2.9 2.6-4l1.6-2-1 2c-.5 1.1-1.7 2.9-2.6 4l-1.6 2 1-2zM791.9 355.5c.5-1.1 1.7-2.9 2.6-4l1.6-2-1 2c-.5 1.1-1.7 2.9-2.6 4l-1.6 2 1-2zM796.9 347.5c.5-1.1 1.7-2.9 2.6-4l1.6-2-1 2c-.5 1.1-1.7 2.9-2.6 4l-1.6 2 1-2zM574.9 333.5c.5-1.1 1.7-2.9 2.6-4l1.6-2-1 2c-.5 1.1-1.7 2.9-2.6 4l-1.6 2 1-2zM809.9 326.5c.5-1.1 1.7-2.9 2.6-4l1.6-2-1 2c-.5 1.1-1.7 2.9-2.6 4l-1.6 2 1-2zM579.9 325.5c.5-1.1 1.7-2.9 2.6-4l1.6-2-1 2c-.5 1.1-1.7 2.9-2.6 4l-1.6 2 1-2zM814.9 318.5c.5-1.1 1.7-2.9 2.6-4l1.6-2-1 2c-.5 1.1-1.7 2.9-2.6 4l-1.6 2 1-2zM584.9 317.5c.5-1.1 1.7-2.9 2.6-4l1.6-2-1 2c-.5 1.1-1.7 2.9-2.6 4l-1.6 2 1-2zM819.9 310.5c.5-1.1 1.7-2.9 2.6-4l1.6-2-1 2c-.5 1.1-1.7 2.9-2.6 4l-1.6 2 1-2zM589.9 309.5c.5-1.1 1.7-2.9 2.6-4l1.6-2-1 2c-.5 1.1-1.7 2.9-2.6 4l-1.6 2 1-2zM824.9 302.5c.5-1.1 1.7-2.9 2.6-4l1.6-2-1 2c-.5 1.1-1.7 2.9-2.6 4l-1.6 2 1-2zM829.9 294.5c.5-1.1 1.7-2.9 2.6-4l1.6-2-1 2c-.5 1.1-1.7 2.9-2.6 4l-1.6 2 1-2zM834.9 286.5c.5-1.1 1.7-2.9 2.6-4l1.6-2-1 2c-.5 1.1-1.7 2.9-2.6 4l-1.6 2 1-2zM612.9 272.5c.5-1.1 1.7-2.9 2.6-4l1.6-2-1 2c-.5 1.1-1.7 2.9-2.6 4l-1.6 2 1-2zM847.9 265.5c.5-1.1 1.7-2.9 2.6-4l1.6-2-1 2c-.5 1.1-1.7 2.9-2.6 4l-1.6 2 1-2zM617.9 264.5c.5-1.1 1.7-2.9 2.6-4l1.6-2-1 2c-.5 1.1-1.7 2.9-2.6 4l-1.6 2 1-2zM852.9 257.5c.5-1.1 1.7-2.9 2.6-4l1.6-2-1 2c-.5 1.1-1.7 2.9-2.6 4l-1.6 2 1-2zM622.9 256.5c.5-1.1 1.7-2.9 2.6-4l1.6-2-1 2c-.5 1.1-1.7 2.9-2.6 4l-1.6 2 1-2zM857.9 249.5c.5-1.1 1.7-2.9 2.6-4l1.6-2-1 2c-.5 1.1-1.7 2.9-2.6 4l-1.6 2 1-2zM627.9 248.5c.5-1.1 1.7-2.9 2.6-4l1.6-2-1 2c-.5 1.1-1.7 2.9-2.6 4l-1.6 2 1-2zM862.9 241.5c.5-1.1 1.7-2.9 2.6-4l1.6-2-1 2c-.5 1.1-1.7 2.9-2.6 4l-1.6 2 1-2zM867.9 233.5c.5-1.1 1.7-2.9 2.6-4l1.6-2-1 2c-.5 1.1-1.7 2.9-2.6 4l-1.6 2 1-2zM872.9 225.5c.5-1.1 1.7-2.9 2.6-4l1.6-2-1 2c-.5 1.1-1.7 2.9-2.6 4l-1.6 2 1-2zM650.9 211.5c.5-1.1 1.7-2.9 2.6-4l1.6-2-1 2c-.5 1.1-1.7 2.9-2.6 4l-1.6 2 1-2zM885.9 204.5c.5-1.1 1.7-2.9 2.6-4l1.6-2-1 2c-.5 1.1-1.7 2.9-2.6 4l-1.6 2 1-2zM655.9 203.5c.5-1.1 1.7-2.9 2.6-4l1.6-2-1 2c-.5 1.1-1.7 2.9-2.6 4l-1.6 2 1-2zM890.9 196.5c.5-1.1 1.7-2.9 2.6-4l1.6-2-1 2c-.5 1.1-1.7 2.9-2.6 4l-1.6 2 1-2zM660.9 195.5c.5-1.1 1.7-2.9 2.6-4l1.6-2-1 2c-.5 1.1-1.7 2.9-2.6 4l-1.6 2 1-2zM895.9 188.5c.5-1.1 1.7-2.9 2.6-4l1.6-2-1 2c-.5 1.1-1.7 2.9-2.6 4l-1.6 2 1-2zM665.9 187.5c.5-1.1 1.7-2.9 2.6-4l1.6-2-1 2c-.5 1.1-1.7 2.9-2.6 4l-1.6 2 1-2zM900.9 180.5c.5-1.1 1.7-2.9 2.6-4l1.6-2-1 2c-.5 1.1-1.7 2.9-2.6 4l-1.6 2 1-2zM905.9 172.5c.5-1.1 1.7-2.9 2.6-4l1.6-2-1 2c-.5 1.1-1.7 2.9-2.6 4l-1.6 2 1-2zM910.9 164.5c.5-1.1 1.7-2.9 2.6-4l1.6-2-1 2c-.5 1.1-1.7 2.9-2.6 4l-1.6 2 1-2zM683.9 158.5c.5-1.1 1.7-2.9 2.6-4l1.6-2-1 2c-.5 1.1-1.7 2.9-2.6 4l-1.6 2 1-2zM688.9 150.5c.5-1.1 1.7-2.9 2.6-4l1.6-2-1 2c-.5 1.1-1.7 2.9-2.6 4l-1.6 2 1-2zM921.5 147c.9-1.6 1.8-3 2.1-3 .2 0-.2 1.4-1.1 3-.9 1.7-1.8 3-2.1 3-.2 0 .2-1.3 1.1-3zM693.9 142.5c.5-1.1 1.7-2.9 2.6-4l1.6-2-1 2c-.5 1.1-1.7 2.9-2.6 4l-1.6 2 1-2zM698.9 134.5c.5-1.1 1.7-2.9 2.6-4l1.6-2-1 2c-.5 1.1-1.7 2.9-2.6 4l-1.6 2 1-2zM935.3 98c0-3.6.2-5 .4-3.2.2 1.7.2 4.7 0 6.5-.2 1.7-.4.3-.4-3.3zM721.9 97.5c.5-1.1 1.7-2.9 2.6-4l1.6-2-1 2c-.5 1.1-1.7 2.9-2.6 4l-1.6 2 1-2zM726.9 89.5c.5-1.1 1.7-2.9 2.6-4l1.6-2-1 2c-.5 1.1-1.7 2.9-2.6 4l-1.6 2 1-2zM731.9 81.5c.5-1.1 1.7-2.9 2.6-4l1.6-2-1 2c-.5 1.1-1.7 2.9-2.6 4l-1.6 2 1-2zM736.9 73.5c.5-1.1 1.7-2.9 2.6-4l1.6-2-1 2c-.5 1.1-1.7 2.9-2.6 4l-1.6 2 1-2zM919.4 44.8c-2.1-3.5-7.6-10.3-12.3-15.3-8.4-8.9-8.4-8.9-1.2-2 6.7 6.4 14.1 15.8 17 21.3 2.3 4.4.3 2.1-3.5-4zM760.7 36.5c4-5.2 14.8-15.5 19.3-18.4l3.5-2.2-3.5 2.7c-1.9 1.5-7.8 7.1-13 12.3-5.2 5.3-8.1 7.8-6.3 5.6zM785.5 14.4c2.4-1.9 11.6-6.7 12-6.2.2.2-2.9 2-6.8 4.1-4 2-6.3 3-5.2 2.1zM881 10.5c-3.6-1.9-6.1-3.4-5.7-3.5 1 0 12.7 5.9 12.7 6.5 0 .7.2.8-7-3z"/></g></svg>