<svg version="1.0" xmlns="http://www.w3.org/2000/svg" width="936" height="980" viewBox="0 0 9360 9800"><path d="M3291 9785c-215-48-390-148-526-298-69-77-2553-3352-2612-3445-177-276-197-644-53-946 90-190 253-357 440-451 372-187 836-116 1128 173 39 39 413 523 902 1169 635 839 837 1100 846 1090 6-6 133-208 281-447C4790 4871 7550 444 7585 395c93-130 244-251 395-316 148-63 204-74 395-74 147 0 182 3 254 23 166 45 301 123 430 246 134 129 219 276 267 461 21 81 26 125 27 230 1 174-27 302-98 445-33 65-4920 7918-4976 7995-50 68-171 185-241 231-87 58-200 110-296 136-101 27-355 35-451 13z"/><g fill="#d0d0d0"><path d="M3363 9793c9-2 25-2 35 0 9 3 1 5-18 5s-27-2-17-5zM3583 9793c9-2 25-2 35 0 9 3 1 5-18 5s-27-2-17-5zM3880 9715c14-8 30-14 35-14 6 0-1 6-15 14s-29 14-35 14c-5 0 1-6 15-14zM2933 9635c-28-19-55-39-58-46-6-9 83 49 110 73 21 19-4 6-52-27zM4000 9657c0-2 18-16 40-31 23-15 58-41 79-59s17-12-10 13c-43 41-109 87-109 77zM2789 9513c-62-65-195-233-185-233 3 0 33 37 68 83 34 45 91 112 127 150 35 37 62 67 59 67-2 0-34-30-69-67zM4170 9522c0-5 14-21 31-38 17-16 52-58 77-94 47-67 72-98 57-70-34 61-165 222-165 202zM4349 9285c5-11 17-29 26-40l16-20-10 20c-5 11-17 29-26 40l-16 20 10-20zM4399 9205c5-11 17-29 26-40l16-20-10 20c-5 11-17 29-26 40l-16 20 10-20zM2425 9050c-42-55-73-100-71-100 3 0 39 45 81 100s73 100 71 100c-3 0-39-45-81-100zM4449 9125c5-11 17-29 26-40l16-20-10 20c-5 11-17 29-26 40l-16 20 10-20zM4499 9045c5-11 17-29 26-40l16-20-10 20c-5 11-17 29-26 40l-16 20 10-20zM2175 8720c-42-55-73-100-71-100 3 0 39 45 81 100s73 100 71 100c-3 0-39-45-81-100zM4679 8755c5-11 17-29 26-40l16-20-10 20c-5 11-17 29-26 40l-16 20 10-20zM4729 8675c5-11 17-29 26-40l16-20-10 20c-5 11-17 29-26 40l-16 20 10-20zM4779 8595c5-11 17-29 26-40l16-20-10 20c-5 11-17 29-26 40l-16 20 10-20zM1940 8410c-50-66-88-120-86-120 3 0 46 54 96 120s88 120 86 120c-3 0-46-54-96-120zM4829 8515c5-11 17-29 26-40l16-20-10 20c-5 11-17 29-26 40l-16 20 10-20zM4879 8435c5-11 17-29 26-40l16-20-10 20c-5 11-17 29-26 40l-16 20 10-20zM4929 8355c5-11 17-29 26-40l16-20-10 20c-5 11-17 29-26 40l-16 20 10-20zM1690 8080c-50-66-88-120-86-120 3 0 46 54 96 120s88 120 86 120c-3 0-46-54-96-120zM5059 8145c5-11 17-29 26-40l16-20-10 20c-5 11-17 29-26 40l-16 20 10-20zM5109 8065c5-11 17-29 26-40l16-20-10 20c-5 11-17 29-26 40l-16 20 10-20zM5159 7985c5-11 17-29 26-40l16-20-10 20c-5 11-17 29-26 40l-16 20 10-20zM5209 7905c5-11 17-29 26-40l16-20-10 20c-5 11-17 29-26 40l-16 20 10-20zM1440 7750c-50-66-88-120-86-120 3 0 46 54 96 120s88 120 86 120c-3 0-46-54-96-120zM5259 7825c5-11 17-29 26-40l16-20-10 20c-5 11-17 29-26 40l-16 20 10-20zM5309 7745c5-11 17-29 26-40l16-20-10 20c-5 11-17 29-26 40l-16 20 10-20zM5439 7535c5-11 17-29 26-40l16-20-10 20c-5 11-17 29-26 40l-16 20 10-20zM1205 7440c-42-55-73-100-71-100 3 0 39 45 81 100s73 100 71 100c-3 0-39-45-81-100zM5489 7455c5-11 17-29 26-40l16-20-10 20c-5 11-17 29-26 40l-16 20 10-20zM5539 7375c5-11 17-29 26-40l16-20-10 20c-5 11-17 29-26 40l-16 20 10-20zM5589 7295c5-11 17-29 26-40l16-20-10 20c-5 11-17 29-26 40l-16 20 10-20zM5639 7215c5-11 17-29 26-40l16-20-10 20c-5 11-17 29-26 40l-16 20 10-20zM955 7110c-42-55-73-100-71-100 3 0 39 45 81 100s73 100 71 100c-3 0-39-45-81-100zM3330 7004c-40-53-68-94-62-90 6 3 39 44 73 91 53 72 65 83 78 72 14-11 14-10 2 6-7 9-15 17-16 17s-35-43-75-96zM5819 6925c5-11 17-29 26-40l16-20-10 20c-5 11-17 29-26 40l-16 20 10-20zM705 6780c-42-55-73-100-71-100 3 0 39 45 81 100s73 100 71 100c-3 0-39-45-81-100zM5869 6845c5-11 17-29 26-40l16-20-10 20c-5 11-17 29-26 40l-16 20 10-20zM3569 6835c5-11 17-29 26-40l16-20-10 20c-5 11-17 29-26 40l-16 20 10-20zM3100 6700c-50-66-88-120-86-120 3 0 46 54 96 120s88 120 86 120c-3 0-46-54-96-120zM5919 6765c5-11 17-29 26-40l16-20-10 20c-5 11-17 29-26 40l-16 20 10-20zM3619 6755c5-11 17-29 26-40l16-20-10 20c-5 11-17 29-26 40l-16 20 10-20zM5969 6685c5-11 17-29 26-40l16-20-10 20c-5 11-17 29-26 40l-16 20 10-20zM3669 6675c5-11 17-29 26-40l16-20-10 20c-5 11-17 29-26 40l-16 20 10-20zM6019 6605c5-11 17-29 26-40l16-20-10 20c-5 11-17 29-26 40l-16 20 10-20zM3719 6595c5-11 17-29 26-40l16-20-10 20c-5 11-17 29-26 40l-16 20 10-20zM470 6470c-50-66-88-120-86-120 3 0 46 54 96 120s88 120 86 120c-3 0-46-54-96-120zM6069 6525c5-11 17-29 26-40l16-20-10 20c-5 11-17 29-26 40l-16 20 10-20zM2850 6370c-50-66-88-120-86-120 3 0 46 54 96 120s88 120 86 120c-3 0-46-54-96-120zM6199 6315c5-11 17-29 26-40l16-20-10 20c-5 11-17 29-26 40l-16 20 10-20zM249 6178c-34-46-67-89-72-95-5-7-7-13-4-13 2 0 37 43 76 95s69 95 67 95c-3 0-33-37-67-82zM6249 6235c5-11 17-29 26-40l16-20-10 20c-5 11-17 29-26 40l-16 20 10-20zM3949 6225c5-11 17-29 26-40l16-20-10 20c-5 11-17 29-26 40l-16 20 10-20zM6299 6155c5-11 17-29 26-40l16-20-10 20c-5 11-17 29-26 40l-16 20 10-20zM2600 6040c-50-66-88-120-86-120 3 0 46 54 96 120s88 120 86 120c-3 0-46-54-96-120zM3999 6145c5-11 17-29 26-40l16-20-10 20c-5 11-17 29-26 40l-16 20 10-20zM6349 6075c5-11 17-29 26-40l16-20-10 20c-5 11-17 29-26 40l-16 20 10-20zM4049 6065c5-11 17-29 26-40l16-20-10 20c-5 11-17 29-26 40l-16 20 10-20zM104 5959c-14-28-24-53-22-55s16 21 31 51 25 55 22 55-16-23-31-51zM6399 5995c5-11 17-29 26-40l16-20-10 20c-5 11-17 29-26 40l-16 20 10-20zM4099 5985c5-11 17-29 26-40l16-20-10 20c-5 11-17 29-26 40l-16 20 10-20zM6449 5915c5-11 17-29 26-40l16-20-10 20c-5 11-17 29-26 40l-16 20 10-20zM2350 5710c-50-66-88-120-86-120 3 0 46 54 96 120s88 120 86 120c-3 0-46-54-96-120zM6579 5705c5-11 17-29 26-40l16-20-10 20c-5 11-17 29-26 40l-16 20 10-20zM4279 5695c5-11 17-29 26-40l16-20-10 20c-5 11-17 29-26 40l-16 20 10-20zM6629 5625c5-11 17-29 26-40l16-20-10 20c-5 11-17 29-26 40l-16 20 10-20zM4329 5615c5-11 17-29 26-40l16-20-10 20c-5 11-17 29-26 40l-16 20 10-20zM3 5525c0-38 2-53 4-32 2 20 2 52 0 70-2 17-4 1-4-38zM6679 5545c5-11 17-29 26-40l16-20-10 20c-5 11-17 29-26 40l-16 20 10-20zM4379 5535c5-11 17-29 26-40l16-20-10 20c-5 11-17 29-26 40l-16 20 10-20zM2100 5380c-50-66-88-120-86-120 3 0 46 54 96 120s88 120 86 120c-3 0-46-54-96-120zM6729 5465c5-11 17-29 26-40l16-20-10 20c-5 11-17 29-26 40l-16 20 10-20zM4429 5455c5-11 17-29 26-40l16-20-10 20c-5 11-17 29-26 40l-16 20 10-20zM6779 5385c5-11 17-29 26-40l16-20-10 20c-5 11-17 29-26 40l-16 20 10-20zM4479 5375c5-11 17-29 26-40l16-20-10 20c-5 11-17 29-26 40l-16 20 10-20zM6829 5305c5-11 17-29 26-40l16-20-10 20c-5 11-17 29-26 40l-16 20 10-20zM1850 5050c-50-66-88-120-86-120 3 0 46 54 96 120s88 120 86 120c-3 0-46-54-96-120zM90 5116c0-11 40-86 45-86 3 0-4 19-16 43-23 45-29 54-29 43zM6959 5095c5-11 17-29 26-40l16-20-10 20c-5 11-17 29-26 40l-16 20 10-20zM4659 5085c5-11 17-29 26-40l16-20-10 20c-5 11-17 29-26 40l-16 20 10-20zM7009 5015c5-11 17-29 26-40l16-20-10 20c-5 11-17 29-26 40l-16 20 10-20zM157 4989c10-17 24-36 32-42 8-7 2 7-14 31-32 49-45 57-18 11zM4709 5005c5-11 17-29 26-40l16-20-10 20c-5 11-17 29-26 40l-16 20 10-20zM7059 4935c5-11 17-29 26-40l16-20-10 20c-5 11-17 29-26 40l-16 20 10-20zM4759 4925c5-11 17-29 26-40l16-20-10 20c-5 11-17 29-26 40l-16 20 10-20zM275 4841c22-23 58-57 80-74 47-36 35-23-55 58-46 43-54 47-25 16zM7109 4855c5-11 17-29 26-40l16-20-10 20c-5 11-17 29-26 40l-16 20 10-20zM1669 4823l-34-38 38 34c34 33 42 41 34 41-2 0-19-17-38-37zM4809 4845c5-11 17-29 26-40l16-20-10 20c-5 11-17 29-26 40l-16 20 10-20zM1580 4752c-25-20-57-45-70-55-24-17-24-17 7 0 31 16 124 92 113 92-3 0-25-17-50-37zM7159 4775c5-11 17-29 26-40l16-20-10 20c-5 11-17 29-26 40l-16 20 10-20zM455 4694c24-19 156-87 160-82 2 2-38 24-88 50-51 26-83 41-72 32zM1420 4650c-30-16-51-29-47-30 10 0 107 49 107 55 0 7 1 7-60-25zM4989 4555c5-11 17-29 26-40l16-20-10 20c-5 11-17 29-26 40l-16 20 10-20zM928 4543c28-2 76-2 105 0 28 2 5 3-53 3s-81-1-52-3zM7339 4485c5-11 17-29 26-40l16-20-10 20c-5 11-17 29-26 40l-16 20 10-20zM5039 4475c5-11 17-29 26-40l16-20-10 20c-5 11-17 29-26 40l-16 20 10-20zM7389 4405c5-11 17-29 26-40l16-20-10 20c-5 11-17 29-26 40l-16 20 10-20zM5089 4395c5-11 17-29 26-40l16-20-10 20c-5 11-17 29-26 40l-16 20 10-20zM7439 4325c5-11 17-29 26-40l16-20-10 20c-5 11-17 29-26 40l-16 20 10-20zM5139 4315c5-11 17-29 26-40l16-20-10 20c-5 11-17 29-26 40l-16 20 10-20zM7489 4245c5-11 17-29 26-40l16-20-10 20c-5 11-17 29-26 40l-16 20 10-20zM5189 4235c5-11 17-29 26-40l16-20-10 20c-5 11-17 29-26 40l-16 20 10-20zM7539 4165c5-11 17-29 26-40l16-20-10 20c-5 11-17 29-26 40l-16 20 10-20zM7589 4085c5-11 17-29 26-40l16-20-10 20c-5 11-17 29-26 40l-16 20 10-20zM5369 3945c5-11 17-29 26-40l16-20-10 20c-5 11-17 29-26 40l-16 20 10-20zM7719 3875c5-11 17-29 26-40l16-20-10 20c-5 11-17 29-26 40l-16 20 10-20zM5419 3865c5-11 17-29 26-40l16-20-10 20c-5 11-17 29-26 40l-16 20 10-20zM7769 3795c5-11 17-29 26-40l16-20-10 20c-5 11-17 29-26 40l-16 20 10-20zM5469 3785c5-11 17-29 26-40l16-20-10 20c-5 11-17 29-26 40l-16 20 10-20zM7819 3715c5-11 17-29 26-40l16-20-10 20c-5 11-17 29-26 40l-16 20 10-20zM5519 3705c5-11 17-29 26-40l16-20-10 20c-5 11-17 29-26 40l-16 20 10-20zM7869 3635c5-11 17-29 26-40l16-20-10 20c-5 11-17 29-26 40l-16 20 10-20zM5569 3625c5-11 17-29 26-40l16-20-10 20c-5 11-17 29-26 40l-16 20 10-20zM7919 3555c5-11 17-29 26-40l16-20-10 20c-5 11-17 29-26 40l-16 20 10-20zM7969 3475c5-11 17-29 26-40l16-20-10 20c-5 11-17 29-26 40l-16 20 10-20zM5749 3335c5-11 17-29 26-40l16-20-10 20c-5 11-17 29-26 40l-16 20 10-20zM8099 3265c5-11 17-29 26-40l16-20-10 20c-5 11-17 29-26 40l-16 20 10-20zM5799 3255c5-11 17-29 26-40l16-20-10 20c-5 11-17 29-26 40l-16 20 10-20zM8149 3185c5-11 17-29 26-40l16-20-10 20c-5 11-17 29-26 40l-16 20 10-20zM5849 3175c5-11 17-29 26-40l16-20-10 20c-5 11-17 29-26 40l-16 20 10-20zM8199 3105c5-11 17-29 26-40l16-20-10 20c-5 11-17 29-26 40l-16 20 10-20zM5899 3095c5-11 17-29 26-40l16-20-10 20c-5 11-17 29-26 40l-16 20 10-20zM8249 3025c5-11 17-29 26-40l16-20-10 20c-5 11-17 29-26 40l-16 20 10-20zM8299 2945c5-11 17-29 26-40l16-20-10 20c-5 11-17 29-26 40l-16 20 10-20zM8349 2865c5-11 17-29 26-40l16-20-10 20c-5 11-17 29-26 40l-16 20 10-20zM6129 2725c5-11 17-29 26-40l16-20-10 20c-5 11-17 29-26 40l-16 20 10-20zM8479 2655c5-11 17-29 26-40l16-20-10 20c-5 11-17 29-26 40l-16 20 10-20zM6179 2645c5-11 17-29 26-40l16-20-10 20c-5 11-17 29-26 40l-16 20 10-20zM8529 2575c5-11 17-29 26-40l16-20-10 20c-5 11-17 29-26 40l-16 20 10-20zM6229 2565c5-11 17-29 26-40l16-20-10 20c-5 11-17 29-26 40l-16 20 10-20zM8579 2495c5-11 17-29 26-40l16-20-10 20c-5 11-17 29-26 40l-16 20 10-20zM6279 2485c5-11 17-29 26-40l16-20-10 20c-5 11-17 29-26 40l-16 20 10-20zM8629 2415c5-11 17-29 26-40l16-20-10 20c-5 11-17 29-26 40l-16 20 10-20zM8679 2335c5-11 17-29 26-40l16-20-10 20c-5 11-17 29-26 40l-16 20 10-20zM8729 2255c5-11 17-29 26-40l16-20-10 20c-5 11-17 29-26 40l-16 20 10-20zM6509 2115c5-11 17-29 26-40l16-20-10 20c-5 11-17 29-26 40l-16 20 10-20zM8859 2045c5-11 17-29 26-40l16-20-10 20c-5 11-17 29-26 40l-16 20 10-20zM6559 2035c5-11 17-29 26-40l16-20-10 20c-5 11-17 29-26 40l-16 20 10-20zM8909 1965c5-11 17-29 26-40l16-20-10 20c-5 11-17 29-26 40l-16 20 10-20zM6609 1955c5-11 17-29 26-40l16-20-10 20c-5 11-17 29-26 40l-16 20 10-20zM8959 1885c5-11 17-29 26-40l16-20-10 20c-5 11-17 29-26 40l-16 20 10-20zM6659 1875c5-11 17-29 26-40l16-20-10 20c-5 11-17 29-26 40l-16 20 10-20zM9009 1805c5-11 17-29 26-40l16-20-10 20c-5 11-17 29-26 40l-16 20 10-20zM9059 1725c5-11 17-29 26-40l16-20-10 20c-5 11-17 29-26 40l-16 20 10-20zM9109 1645c5-11 17-29 26-40l16-20-10 20c-5 11-17 29-26 40l-16 20 10-20zM6839 1585c5-11 17-29 26-40l16-20-10 20c-5 11-17 29-26 40l-16 20 10-20zM6889 1505c5-11 17-29 26-40l16-20-10 20c-5 11-17 29-26 40l-16 20 10-20zM9215 1470c9-16 18-30 21-30 2 0-2 14-11 30-9 17-18 30-21 30-2 0 2-13 11-30zM6939 1425c5-11 17-29 26-40l16-20-10 20c-5 11-17 29-26 40l-16 20 10-20zM6989 1345c5-11 17-29 26-40l16-20-10 20c-5 11-17 29-26 40l-16 20 10-20zM9353 980c0-36 2-50 4-32 2 17 2 47 0 65-2 17-4 3-4-33zM7219 975c5-11 17-29 26-40l16-20-10 20c-5 11-17 29-26 40l-16 20 10-20zM7269 895c5-11 17-29 26-40l16-20-10 20c-5 11-17 29-26 40l-16 20 10-20zM7319 815c5-11 17-29 26-40l16-20-10 20c-5 11-17 29-26 40l-16 20 10-20zM7369 735c5-11 17-29 26-40l16-20-10 20c-5 11-17 29-26 40l-16 20 10-20zM9194 448c-21-35-76-103-123-153-84-89-84-89-12-20 67 64 141 158 170 213 23 44 3 21-35-40zM7607 365c40-52 148-155 193-184l35-22-35 27c-19 15-78 71-130 123-52 53-81 78-63 56zM7855 144c24-19 116-67 120-62 2 2-29 20-68 41-40 20-63 30-52 21zM8810 105c-36-19-61-34-57-35 10 0 127 59 127 65 0 7 2 8-70-30z"/></g></svg>