<svg width="45" height="45" viewBox="0 0 45 45" fill="none" xmlns="http://www.w3.org/2000/svg">
<circle cx="22.5" cy="22.5" r="22.5" fill="black"/>
<g clip-path="url(#clip0)">
<g filter="url(#filter0_d)">
<path d="M28.72 11.6H17.28C14.6951 11.6 12.6 13.6951 12.6 16.28V27.72C12.6 30.3049 14.6951 32.4 17.28 32.4H28.72C31.3049 32.4 33.4 30.3049 33.4 27.72V16.28C33.4 13.6951 31.3049 11.6 28.72 11.6ZM29.8588 20.0521C30.1968 19.907 30.5972 19.8872 30.9352 19.9891C31.0756 20.0328 31.2004 20.0911 31.32 20.1633V20.8029C30.9456 20.5461 30.514 20.4733 30.1812 20.6527C29.8276 20.8466 29.6196 21.2533 29.63 21.6797C29.6248 22.1497 29.7808 22.5855 30.1084 22.7888C30.3996 22.9875 30.8572 22.9875 31.32 22.9147V23.4477C31.138 23.5059 30.9456 23.5397 30.748 23.5589C30.4204 23.5834 30.0564 23.5345 29.734 23.3603C29.4064 23.1908 29.1672 22.8954 29.032 22.5995C28.902 22.2943 28.8552 21.9844 28.85 21.6885C28.8344 21.0593 29.1724 20.3521 29.8588 20.0521ZM27.68 18.3652C27.967 18.3652 28.2 18.5981 28.2 18.8852C28.2 19.1722 27.967 19.4052 27.68 19.4052C27.3929 19.4052 27.16 19.1722 27.16 18.8852C27.16 18.5981 27.3929 18.3652 27.68 18.3652ZM28.07 19.9252V23.5652H27.29V19.9252H28.07ZM24.04 22.611C24.3728 22.7467 24.7784 22.8876 25.0956 22.9178C25.4128 22.9531 25.7612 22.9126 25.964 22.8018C26.0628 22.7415 26.0836 22.6573 26.0836 22.5637C26.0836 22.4701 26.0649 22.417 26.0196 22.3468C25.9369 22.2189 25.7092 22.1222 25.3504 22.0364C25.1736 21.9859 24.9812 21.9355 24.768 21.8201C24.5548 21.7244 24.1216 21.377 24.2059 20.7847C24.2511 20.4681 24.5792 20.1581 25.0384 20.0136C25.5735 19.8446 26.1564 19.9283 26.64 20.1597V20.804C26.2084 20.5825 25.6936 20.4707 25.2568 20.6163C25.1268 20.6563 24.9552 20.7468 24.9552 20.9095C24.9552 21.3001 25.4076 21.3739 25.5792 21.4295C25.756 21.4847 25.9484 21.5351 26.1564 21.6407C26.3644 21.7415 26.7814 21.9932 26.7814 22.5678C26.7814 23.118 26.51 23.3203 26.2864 23.4107C25.8236 23.612 25.4128 23.5766 25.0124 23.5215C24.6744 23.4612 24.3468 23.3603 24.04 23.1695V22.611ZM20.53 19.9262L21.31 19.9252L21.3115 21.1836C21.3188 21.5944 21.3178 22.0421 21.3131 22.4227C21.2949 22.6261 21.5221 22.8632 21.8206 22.8996C21.9797 22.9173 22.0983 22.9043 22.2813 22.8268C22.3895 22.7841 22.4997 22.7477 22.61 22.7098V19.9252L23.39 19.9257V23.4711H22.61V23.3483C22.5887 23.3598 22.5684 23.3723 22.5476 23.3832C22.3495 23.5017 22.0317 23.5839 21.7603 23.5615C21.4785 23.5433 21.1945 23.4445 20.9631 23.2568C20.7333 23.0717 20.5596 22.781 20.5373 22.4617C20.5232 22.0041 20.5269 21.6121 20.5315 21.1841L20.53 19.9262ZM14.81 19.9252H15.59V20.2829C15.7824 20.2133 15.9732 20.1405 16.1667 20.0744C16.4449 19.9756 16.7938 19.9954 17.0678 20.1477C17.1812 20.2086 17.2805 20.2944 17.3679 20.3916C17.6601 20.2835 17.9518 20.1748 18.2461 20.0739C18.5243 19.9751 18.8733 19.9949 19.1473 20.1472C19.4239 20.2959 19.6392 20.5679 19.7157 20.8846C19.7359 20.9636 19.7448 21.0437 19.7495 21.1243L19.7515 21.2891L19.7547 21.6141L19.7515 22.2641L19.75 23.5641H18.97L18.9669 21.0453C18.945 20.8243 18.697 20.6308 18.437 20.7015C18.1718 20.7717 17.9045 20.8341 17.6377 20.8986C17.6554 20.973 17.6648 21.0479 17.6695 21.1238L17.6715 21.2886L17.6747 21.6136L17.6715 22.2636L17.67 23.5636H16.89L16.8869 21.0447C16.865 20.8232 16.617 20.6303 16.357 20.701C16.1027 20.7686 15.8458 20.8284 15.59 20.8903V23.5631H14.81V19.9252ZM30.1593 26.6446C29.0081 27.461 27.7216 27.9992 26.3711 28.3487C25.0217 28.6934 23.6167 28.8239 22.2184 28.7277C20.8207 28.6341 19.4557 28.293 18.1692 27.7949C16.8869 27.2801 15.6747 26.6181 14.6035 25.7507C14.5479 25.7055 14.5391 25.6233 14.5843 25.5677C14.6243 25.5183 14.693 25.5058 14.7471 25.5349L14.7543 25.5391C15.9238 26.1719 17.1739 26.6566 18.4292 27.0414C19.6943 27.4012 20.9819 27.6586 22.2772 27.7111C23.5694 27.7564 24.8756 27.6555 26.1507 27.3903C27.4205 27.1282 28.7013 26.7476 29.8791 26.2052L29.8993 26.1959C30.0299 26.1361 30.1838 26.1927 30.2441 26.3233C30.2982 26.4392 30.2597 26.5739 30.1593 26.6446ZM30.7386 28.1838C30.5941 28.293 30.4495 28.2566 30.5218 28.0746C30.7386 27.4922 31.2082 26.2541 30.9913 25.9629C30.7386 25.6353 29.4381 25.8173 28.8604 25.8901C28.6799 25.8901 28.6799 25.7445 28.8245 25.6353C29.3299 25.2713 30.0163 25.1257 30.5946 25.1257C31.1723 25.1257 31.6783 25.2349 31.7864 25.4169C31.9663 25.6348 31.7136 27.3461 30.7386 28.1838Z" fill="#F6F8FB"/>
</g>
</g>
<defs>
<filter id="filter0_d" x="8.59998" y="11.6" width="28.8" height="28.8" filterUnits="userSpaceOnUse" color-interpolation-filters="sRGB">
<feFlood flood-opacity="0" result="BackgroundImageFix"/>
<feColorMatrix in="SourceAlpha" type="matrix" values="0 0 0 0 0 0 0 0 0 0 0 0 0 0 0 0 0 0 127 0"/>
<feOffset dy="4"/>
<feGaussianBlur stdDeviation="2"/>
<feColorMatrix type="matrix" values="0 0 0 0 0 0 0 0 0 0 0 0 0 0 0 0 0 0 0.25 0"/>
<feBlend mode="normal" in2="BackgroundImageFix" result="effect1_dropShadow"/>
<feBlend mode="normal" in="SourceGraphic" in2="effect1_dropShadow" result="shape"/>
</filter>
<clipPath id="clip0">
<rect width="26" height="26" fill="white" transform="translate(10 9)"/>
</clipPath>
</defs>
</svg>
