<svg width="46" height="46" viewBox="0 0 46 46" fill="none" xmlns="http://www.w3.org/2000/svg">
<ellipse cx="24" cy="23.5" rx="22" ry="22.5" fill="url(#paint0_linear)"/>
<path d="M28.4109 14.4177C28.7233 14.361 29.0001 14.4319 29.2415 14.6307C29.4829 14.8295 29.6035 15.085 29.6035 15.3974V26.3223C29.6035 27.3304 29.3196 28.1183 28.7517 28.6862C28.1838 29.2399 27.4029 29.5168 26.4091 29.5168C25.7276 29.5168 25.1668 29.3393 24.7267 28.9844C24.2866 28.6152 24.0665 28.1538 24.0665 27.6001C24.0665 26.9045 24.3433 26.3223 24.8971 25.8538C25.4508 25.3853 26.1677 25.151 27.048 25.151C27.3745 25.151 27.7223 25.2078 28.0915 25.3214C28.1057 25.3214 28.1199 25.3143 28.1341 25.3001C28.1483 25.3001 28.1554 25.293 28.1554 25.2788V18.2511C28.1554 18.2085 28.1341 18.173 28.0915 18.1446C28.0489 18.102 28.0063 18.0878 27.9637 18.102L19.9776 19.6353C19.864 19.6637 19.8072 19.7347 19.8072 19.8483V28.452C19.8072 29.46 19.5233 30.248 18.9554 30.8159C18.3875 31.3696 17.6066 31.6464 16.6128 31.6464C15.9313 31.6464 15.3705 31.4619 14.9304 31.0927C14.4903 30.7378 14.2702 30.2834 14.2702 29.7297C14.2702 29.0341 14.5471 28.452 15.1008 27.9834C15.6545 27.5149 16.3714 27.2807 17.2517 27.2807C17.5782 27.2807 17.9261 27.3374 18.2952 27.451C18.3094 27.451 18.3236 27.4439 18.3378 27.4297C18.352 27.4297 18.3591 27.4226 18.3591 27.4084V17.527C18.3591 17.1721 18.4656 16.8597 18.6785 16.5899C18.9057 16.306 19.1896 16.1356 19.5304 16.0788L28.4109 14.4177Z" fill="#F6F8FB"/>
<defs>
<linearGradient id="paint0_linear" x1="39.1556" y1="39.5" x2="9.08888" y2="6.67165" gradientUnits="userSpaceOnUse">
<stop stop-color="#5AC8FA"/>
<stop offset="0.536458" stop-color="#AF52DE" stop-opacity="0.9222"/>
<stop offset="0.791667" stop-color="#FF2D55" stop-opacity="0.74"/>
<stop offset="0.984375" stop-color="#FF3B30"/>
</linearGradient>
</defs>
</svg>
