<svg width="45" height="45" viewBox="0 0 45 45" fill="none" xmlns="http://www.w3.org/2000/svg">
<circle cx="22.5" cy="22.5" r="22.5" fill="url(#paint0_linear)"/>
<path d="M26.875 10H17.125C12.6384 10 9 13.6384 9 18.125V27.875C9 32.3616 12.6384 36 17.125 36H26.875C31.3616 36 35 32.3616 35 27.875V18.125C35 13.6384 31.3616 10 26.875 10ZM32.5625 27.875C32.5625 31.0112 30.0112 33.5625 26.875 33.5625H17.125C13.9887 33.5625 11.4375 31.0112 11.4375 27.875V18.125C11.4375 14.9887 13.9887 12.4375 17.125 12.4375H26.875C30.0112 12.4375 32.5625 14.9887 32.5625 18.125V27.875Z" fill="#F6F8FB"/>
<path d="M22 16.5C18.4104 16.5 15.5 19.4104 15.5 23C15.5 26.5896 18.4104 29.5 22 29.5C25.5896 29.5 28.5 26.5896 28.5 23C28.5 19.4104 25.5896 16.5 22 16.5ZM22 27.0625C19.7607 27.0625 17.9375 25.2393 17.9375 23C17.9375 20.7591 19.7607 18.9375 22 18.9375C24.2393 18.9375 26.0625 20.7591 26.0625 23C26.0625 25.2393 24.2393 27.0625 22 27.0625Z" fill="#F6F8FB"/>
<path d="M28.9875 16.8786C29.4659 16.8786 29.8536 16.4908 29.8536 16.0125C29.8536 15.5341 29.4659 15.1464 28.9875 15.1464C28.5092 15.1464 28.1214 15.5341 28.1214 16.0125C28.1214 16.4908 28.5092 16.8786 28.9875 16.8786Z" fill="#F6F8FB"/>
<defs>
<linearGradient id="paint0_linear" x1="10" y1="39.5" x2="36" y2="4.5" gradientUnits="userSpaceOnUse">
<stop stop-color="#FFC107"/>
<stop offset="0.526042" stop-color="#F0423B"/>
<stop offset="1" stop-color="#9C27B0"/>
</linearGradient>
</defs>
</svg>
