<svg width="45" height="45" viewBox="0 0 45 45" fill="none" xmlns="http://www.w3.org/2000/svg">
<circle cx="22.5" cy="22.5" r="22.5" fill="#1976D2"/>
<path d="M14.8142 18.125H9V36H14.8142V18.125Z" fill="#F6F8FB"/>
<path d="M30.6515 18.3346C30.5898 18.3151 30.5312 18.294 30.4663 18.2761C30.3883 18.2582 30.3102 18.2436 30.2306 18.2306C29.9219 18.1689 29.5839 18.125 29.1874 18.125C25.7976 18.125 23.6477 20.5901 22.9392 21.5424V18.125H17.125V36H22.9392V26.25C22.9392 26.25 27.3333 20.1302 29.1874 24.625C29.1874 28.6371 29.1874 36 29.1874 36H35V23.9376C35 21.2369 33.1491 18.9863 30.6515 18.3346Z" fill="#F6F8FB"/>
<path d="M11.8438 15.6875C13.4143 15.6875 14.6875 14.4143 14.6875 12.8438C14.6875 11.2732 13.4143 10 11.8438 10C10.2732 10 9 11.2732 9 12.8438C9 14.4143 10.2732 15.6875 11.8438 15.6875Z" fill="#F6F8FB"/>
</svg>
