<svg width="45" height="45" viewBox="0 0 45 45" fill="none" xmlns="http://www.w3.org/2000/svg">
<circle cx="22.5" cy="22.5" r="22.5" fill="black"/>
<g clip-path="url(#clip0)">
<path d="M33.778 30.6505C33.613 30.6505 33.444 30.6009 33.2962 30.5034C32.8989 30.2329 32.7924 29.6909 33.0549 29.3009C33.8552 28.1171 34.2736 26.7245 34.2736 25.2734C34.2736 23.8263 33.8552 22.4296 33.0549 21.2442C32.7843 20.842 32.8989 20.3049 33.288 20.0425C33.6943 19.7752 34.2314 19.8857 34.4897 20.274C35.481 21.756 36.001 23.4907 36.001 25.2799C36.001 27.0665 35.481 28.8053 34.4897 30.2824C34.3427 30.5449 34.0672 30.6716 33.7918 30.6716L33.778 30.6505ZM31.2982 29.2506C31.1333 29.2506 30.9643 29.1994 30.8164 29.0978C30.4191 28.8402 30.3167 28.3024 30.5832 27.9124C31.1122 27.1291 31.3917 26.2362 31.3917 25.2799C31.3917 24.3536 31.1122 23.4436 30.5832 22.6482C30.3167 22.2541 30.4183 21.7211 30.8164 21.4587C31.2186 21.2011 31.7427 21.2986 32.0132 21.7049C32.7372 22.7749 33.1223 24.0278 33.1223 25.2929C33.1223 26.5961 32.7364 27.8279 32.0132 28.8866C31.8572 29.1441 31.5737 29.2757 31.2982 29.2757V29.2506ZM27.2577 21.4977C26.9189 18.0364 23.9906 15.3235 20.4319 15.3235C17.4865 15.3235 14.8752 17.219 13.9408 19.9653C11.7235 20.2911 10.001 22.2086 10.001 24.5145C10.001 27.0535 12.0704 29.123 14.6184 29.123H26.433C28.5617 29.123 30.2964 27.3972 30.2964 25.2726C30.2964 23.4233 28.9972 21.8828 27.2585 21.5017L27.2577 21.4977ZM26.4322 27.4005H14.6176C13.0308 27.4005 11.7275 26.1102 11.7275 24.5185C11.7275 22.9325 13.0178 21.6415 14.6176 21.6415C15.3879 21.6415 16.1159 21.9502 16.661 22.4873C16.9869 22.8261 17.5418 22.8261 17.8798 22.4873C18.2056 22.1623 18.2056 21.6074 17.8798 21.2685C17.2794 20.6803 16.5473 20.2578 15.7519 20.0628C16.5644 18.2599 18.3835 17.059 20.4148 17.059C23.2423 17.059 25.5522 19.3657 25.5522 22.1915C25.5522 22.7465 25.4677 23.2835 25.2898 23.7995C25.146 24.2569 25.3873 24.7428 25.8447 24.9086C25.9252 24.9378 26.0227 24.9549 26.1023 24.9549C26.4622 24.9549 26.801 24.7266 26.9148 24.3707C27.0294 24.027 27.1098 23.689 27.161 23.3299C27.9564 23.6386 28.5235 24.4178 28.5235 25.3148C28.5235 26.4986 27.5672 27.4557 26.3948 27.4557L26.4322 27.4005Z" fill="#F6F8FB"/>
</g>
<defs>
<clipPath id="clip0">
<rect width="26" height="26" fill="white" transform="translate(10 10)"/>
</clipPath>
</defs>
</svg>
