<svg width="45" height="45" viewBox="0 0 45 45" fill="none" xmlns="http://www.w3.org/2000/svg">
<circle cx="22.5" cy="22.5" r="22.5" fill="#161144"/>
<path d="M24.2617 27.7679C23.6236 28.3791 22.8552 28.851 21.9968 29.1386C21.143 28.851 20.37 28.3791 19.7364 27.7679H24.2617ZM26.239 18.7982C27.1378 18.0387 28.1984 17.4859 29.3668 17.1714V24.4155C29.3668 34.2751 14.6269 34.1942 14.6269 24.4285V17.1664C15.7908 17.4765 16.8558 18.0472 17.7501 18.8022C20.3026 17.0046 23.7045 17.0091 26.239 18.7985V18.7982ZM16.8558 16.1692C19.7499 13.4729 24.2393 13.4684 27.1423 16.1599C26.8232 16.3172 26.5177 16.488 26.2166 16.6767C23.5787 15.3061 20.4105 15.3106 17.7726 16.6804C17.4895 16.5007 17.1479 16.3119 16.8558 16.1681V16.1692ZM12.8248 15.1671V18.2813C10.2004 19.9216 10.2004 23.7234 12.8293 25.3952C14.0157 36.4097 29.9824 36.194 31.1464 25.4626L31.1599 25.3863C33.7978 23.755 33.8068 19.9172 31.1688 18.2769V15.1672C30.3914 15.1896 29.6409 15.302 28.9174 15.4997C25.2324 11.3878 18.7837 11.3878 15.0987 15.5034C14.3662 15.3057 13.6112 15.1889 12.8248 15.1664L12.8248 15.1671ZM22.5046 26.7973C22.5046 26.7973 24.1224 26.7843 25.2594 26.7298C25.7178 26.7074 26.2076 26.5501 26.4053 26.4377C27.5872 25.7592 27.5468 24.6761 27.5827 24.3076C24.0101 24.2807 23.0933 24.1323 22.5046 26.7973ZM16.4154 24.3121C16.4514 24.6806 16.4109 25.7637 17.5928 26.4422C17.7906 26.5546 18.2759 26.7119 18.7388 26.7343C19.8757 26.7837 21.4935 26.8018 21.4935 26.8018C20.9003 24.1324 19.9791 24.2807 16.4154 24.3121ZM24.0146 29.8576C23.8708 29.6194 23.7045 29.5295 23.7045 29.5295C22.59 29.8576 21.3587 29.8396 20.2936 29.5295C20.2936 29.5295 20.1633 29.5969 20.006 29.8261C19.8802 30.0104 19.8398 30.2575 19.8398 30.2575C21.1475 31.0485 22.8552 31.0485 24.1629 30.2575C24.1584 30.2538 24.1494 30.0778 24.0146 29.8576H24.0146Z" fill="#F6F8FB"/>
</svg>
