<svg width="45" height="45" viewBox="0 0 45 45" fill="none" xmlns="http://www.w3.org/2000/svg">
<circle cx="22.5" cy="22.5" r="22.5" fill="#EF4E2D"/>
<path d="M28.8699 33.2917H15.13C13.973 33.2917 13.0197 32.3822 12.9655 31.2263L12.2765 16.5255C12.2619 16.2167 12.5083 15.9584 12.8176 15.9584H31.1823C31.4916 15.9584 31.738 16.2167 31.7234 16.5255L31.0344 31.2263C30.9802 32.3822 30.0269 33.2917 28.8699 33.2917Z" fill="#F6F8FB"/>
<path opacity="0.05" d="M22.0358 18.7062C19.8534 18.7062 18.2078 20.1123 18.2078 21.9773C18.2078 24.1196 20.1708 24.8373 21.6046 25.3611C23.3434 25.9965 23.9219 26.3523 23.9219 27.2082C23.9219 27.888 23.0265 28.4616 21.967 28.4616C20.6329 28.4616 19.4358 27.4519 19.4239 27.4422L19.3675 27.3896C19.2668 27.297 19.1357 27.2466 19.0008 27.2466C18.9803 27.2466 18.9591 27.2477 18.9385 27.2504C18.782 27.2688 18.6412 27.3539 18.5529 27.4844L17.9863 28.3197C17.8287 28.5521 17.8747 28.8657 18.0919 29.0433L18.1493 29.0905C18.5718 29.4323 20.0896 30.5438 21.9675 30.5438C24.2317 30.5438 26.0051 29.0786 26.0051 27.2082C26.0051 24.7517 23.8764 23.9739 22.3218 23.4062C20.823 22.8586 20.2911 22.5601 20.2911 21.9773C20.2911 21.2883 21.0256 20.7883 22.0374 20.7883C22.8304 20.7883 23.5362 21.1047 23.8861 21.2937C23.9343 21.3197 24.1087 21.4243 24.2057 21.4893L24.2761 21.5364C24.366 21.5965 24.4711 21.6279 24.5773 21.6279C24.6157 21.6279 24.6547 21.6236 24.6927 21.6155C24.8367 21.5841 24.9613 21.4952 25.0388 21.3701L25.5577 20.5262C25.711 20.2765 25.6384 19.9498 25.393 19.7895L25.308 19.7337C24.853 19.4271 23.6137 18.7062 22.0358 18.7062Z" fill="black"/>
<path opacity="0.07" d="M22.0358 18.9771C20.0078 18.9771 18.4787 20.2668 18.4787 21.9773C18.4787 23.9306 20.2634 24.5828 21.6972 25.1071C23.3937 25.7273 24.1927 26.1363 24.1927 27.2088C24.1927 28.0494 23.1944 28.733 21.967 28.733C20.524 28.733 19.2603 27.6589 19.2473 27.6481L19.1834 27.589C19.133 27.543 19.0674 27.5175 19.0003 27.5175C18.99 27.5175 18.9797 27.5181 18.9689 27.5191C18.8909 27.5283 18.8199 27.5711 18.776 27.6361L18.2094 28.4714C18.1309 28.5873 18.1537 28.7444 18.2625 28.8332L18.3199 28.8803C18.724 29.2075 20.1779 30.273 21.9664 30.273C24.0789 30.273 25.7332 28.9269 25.7332 27.2082C25.7332 24.9413 23.7892 24.2312 22.2275 23.6603C20.726 23.1116 20.0186 22.7666 20.0186 21.9773C20.0186 21.1318 20.8669 20.5176 22.0358 20.5176C22.8884 20.5176 23.6407 20.8545 24.0129 21.0549C24.0724 21.0868 24.2528 21.1957 24.3547 21.2634L24.4251 21.3106C24.47 21.3409 24.5226 21.3561 24.5756 21.3561C24.5951 21.3561 24.6141 21.3539 24.6336 21.3501C24.7056 21.3344 24.7679 21.29 24.8064 21.2271L25.3253 20.3832C25.4022 20.2586 25.3654 20.0951 25.243 20.0149L25.1579 19.9591C24.7224 19.6655 23.5389 18.9771 22.0358 18.9771Z" fill="black"/>
<path d="M26.6042 16.2292H25.5209C25.5209 13.9889 23.9414 12.1667 22 12.1667C20.0587 12.1667 18.4792 13.9889 18.4792 16.2292H17.3959C17.3959 13.392 19.4612 11.0834 22 11.0834C24.5388 11.0834 26.6042 13.392 26.6042 16.2292Z" fill="#F6F8FB"/>
<path d="M22.1343 23.9144C20.6496 23.3716 19.7482 22.9702 19.7482 21.9768C19.7482 20.9742 20.7102 20.2462 22.0362 20.2462C22.9489 20.2462 23.7474 20.6037 24.1422 20.816C24.2094 20.8523 24.399 20.9661 24.5062 21.0381L24.5767 21.0852L25.0956 20.2413L25.0105 20.1855C24.5924 19.9033 23.4646 19.2468 22.0368 19.2468C20.1632 19.2468 18.7505 20.4201 18.7505 21.9763C18.7505 23.7405 20.3663 24.3309 21.7919 24.852C23.4549 25.4597 24.4645 25.9218 24.4645 27.2077C24.4645 28.1979 23.3449 29.0028 21.968 29.0028C20.4167 29.0028 19.0831 27.8626 19.0706 27.8517L19.0013 27.7878L18.4347 28.6231L18.4921 28.6702C18.8778 28.9827 20.2666 30.0016 21.9674 30.0016C23.9277 30.0016 25.4634 28.7742 25.4634 27.2077C25.4628 25.1304 23.6943 24.4847 22.1343 23.9144Z" fill="#EF4E2D"/>
</svg>
