<svg width="45" height="45" viewBox="0 0 45 45" fill="none" xmlns="http://www.w3.org/2000/svg">
<circle cx="22.5" cy="22.5" r="22.5" fill="#FFEB3B"/>
<g clip-path="url(#clip0)">
<path d="M35.4902 29.0144C32.0142 28.4423 30.4476 24.8818 30.3843 24.7307C30.3794 24.7209 30.3761 24.7112 30.3696 24.7014C30.1925 24.3406 30.1503 24.0433 30.2478 23.8174C30.4379 23.3721 31.1659 23.1413 31.6469 22.9886C31.7867 22.9447 31.9183 22.9025 32.0272 22.8602C32.5017 22.6733 32.8398 22.4702 33.064 22.241C33.3305 21.9664 33.3825 21.7031 33.3793 21.5325C33.3712 21.1165 33.0526 20.746 32.544 20.5656C32.3734 20.4957 32.1767 20.4583 31.9785 20.4583C31.8436 20.4583 31.6421 20.4762 31.4519 20.5656C31.0457 20.7557 30.6817 20.8597 30.368 20.8744C30.2023 20.8662 30.0853 20.8305 30.0089 20.7964C30.0186 20.6338 30.0284 20.4665 30.0397 20.2942L30.0446 20.2195C30.1568 18.4595 30.2949 16.2705 29.7131 14.9705C29.315 14.0799 28.7803 13.3145 28.1222 12.6937C27.5713 12.1737 26.931 11.7512 26.2192 11.4392C24.9825 10.8931 23.8287 10.8119 23.2502 10.8119H23.2486C23.2258 10.8119 23.2047 10.8119 23.1852 10.8119C23.0243 10.8135 22.7627 10.8168 22.7383 10.8168C22.1614 10.8168 21.006 10.898 19.766 11.444C19.0559 11.7561 18.4188 12.177 17.8696 12.697C17.2147 13.3178 16.6816 14.0815 16.2851 14.9688C15.7033 16.2673 15.8415 18.4562 15.952 20.2146V20.2178C15.9634 20.4063 15.9764 20.603 15.9877 20.7947C15.9032 20.8321 15.7651 20.8744 15.562 20.8744C15.2337 20.8744 14.8437 20.7704 14.4033 20.564C14.2733 20.5038 14.1254 20.473 13.9629 20.473C13.7013 20.473 13.4234 20.5493 13.1845 20.6907C12.8822 20.8679 12.6872 21.1165 12.6336 21.3944C12.5995 21.5764 12.6011 21.9388 13.0041 22.3061C13.2267 22.5076 13.5517 22.6944 13.9726 22.8602C14.0831 22.9041 14.2148 22.9447 14.3529 22.9886C14.8339 23.1413 15.5636 23.3721 15.7537 23.8174C15.8496 24.0433 15.8073 24.3406 15.6302 24.7014C15.6253 24.7112 15.6205 24.7209 15.6172 24.7307C15.5717 24.8347 15.1573 25.7691 14.3074 26.7555C13.8248 27.3162 13.2934 27.7858 12.7278 28.1498C12.0372 28.5951 11.2913 28.8844 10.5096 29.0127C10.2025 29.0631 9.98308 29.3361 10.001 29.6465C10.0058 29.7359 10.027 29.8253 10.0643 29.9114V29.913C10.1895 30.2039 10.4771 30.4493 10.9451 30.6654C11.5172 30.9303 12.3719 31.153 13.4884 31.3268C13.5452 31.4341 13.6037 31.7022 13.6444 31.8859C13.6866 32.0809 13.7305 32.2824 13.7939 32.4953C13.8621 32.726 14.0376 33.0023 14.491 33.0023C14.6633 33.0023 14.8599 32.9633 15.0891 32.9194C15.4238 32.8544 15.8821 32.765 16.4525 32.765C16.7694 32.765 17.0977 32.7927 17.4275 32.8479C18.0646 32.9536 18.6139 33.3403 19.2493 33.7888C20.1788 34.4454 21.2318 35.188 22.8407 35.188C22.8845 35.188 22.9284 35.1864 22.9723 35.1832C23.0243 35.1864 23.0909 35.188 23.1592 35.188C24.768 35.188 25.8211 34.4454 26.7506 33.7905L26.7522 33.7888C27.3876 33.3419 27.9369 32.9552 28.5739 32.8495C28.9038 32.7943 29.2321 32.7667 29.549 32.7667C30.095 32.7667 30.5273 32.8365 30.9124 32.9113C31.1643 32.9601 31.3593 32.9844 31.5104 32.9844H31.5251H31.5397C31.8712 32.9844 32.115 32.8024 32.2076 32.4855C32.2694 32.2759 32.3132 32.0809 32.3571 31.881C32.3945 31.7087 32.4562 31.4325 32.5115 31.3252C33.6279 31.1497 34.4827 30.9287 35.0547 30.6638C35.5211 30.4477 35.8088 30.2023 35.9339 29.913C35.9713 29.8269 35.994 29.7375 35.9989 29.6449C36.0168 29.3378 35.7974 29.0631 35.4902 29.0144Z" fill="#F6F8FB"/>
</g>
<defs>
<clipPath id="clip0">
<rect width="26" height="26" fill="white" transform="translate(10 10)"/>
</clipPath>
</defs>
</svg>
