<svg width="45" height="45" viewBox="0 0 45 45" fill="none" xmlns="http://www.w3.org/2000/svg">
<circle cx="22.5" cy="22.5" r="22.5" fill="#FF9800"/>
<path d="M30.9375 22.1875C30.6482 22.1875 30.3639 22.2184 30.0909 22.2769C29.7253 18.5832 26.6004 15.6875 22.8125 15.6875C22.364 15.6875 22 16.0515 22 16.5V29.5C22 29.9485 22.364 30.3125 22.8125 30.3125H30.9375C33.1784 30.3125 35 28.4909 35 26.25C35 24.0107 33.1784 22.1875 30.9375 22.1875Z" fill="#F6F8FB"/>
<path d="M19.5625 17.3125C19.114 17.3125 18.75 17.6765 18.75 18.125V29.5C18.75 29.9485 19.114 30.3125 19.5625 30.3125C20.011 30.3125 20.375 29.9485 20.375 29.5V18.125C20.375 17.6765 20.011 17.3125 19.5625 17.3125Z" fill="#F6F8FB"/>
<path d="M16.3125 20.5625C15.864 20.5625 15.5 20.9265 15.5 21.375V29.5C15.5 29.9485 15.864 30.3125 16.3125 30.3125C16.761 30.3125 17.125 29.9485 17.125 29.5V21.375C17.125 20.9265 16.761 20.5625 16.3125 20.5625Z" fill="#F6F8FB"/>
<path d="M13.0625 20.5625C12.614 20.5625 12.25 20.9265 12.25 21.375V29.5C12.25 29.9485 12.614 30.3125 13.0625 30.3125C13.511 30.3125 13.875 29.9485 13.875 29.5V21.375C13.875 20.9265 13.511 20.5625 13.0625 20.5625Z" fill="#F6F8FB"/>
<path d="M9.8125 23C9.364 23 9 23.364 9 23.8125V28.6875C9 29.136 9.364 29.5 9.8125 29.5C10.261 29.5 10.625 29.136 10.625 28.6875V23.8125C10.625 23.364 10.261 23 9.8125 23Z" fill="#F6F8FB"/>
</svg>
