<svg width="45" height="45" viewBox="0 0 45 45" fill="none" xmlns="http://www.w3.org/2000/svg">
<path d="M22.5 45C34.9264 45 45 34.9264 45 22.5C45 10.0736 34.9264 0 22.5 0C10.0736 0 0 10.0736 0 22.5C0 34.9264 10.0736 45 22.5 45Z" fill="#8BC34A"/>
<path d="M31.6715 33.0777C31.3903 33.0777 31.109 32.9962 30.8643 32.8218C25.5909 29.1149 16.8187 28.9096 10.8956 30.2905C10.1447 30.4677 9.38247 29.9952 9.20809 29.2387C9.03372 28.4821 9.50059 27.7255 10.26 27.5483C16.7709 26.0408 26.5022 26.3165 32.4787 30.5212C33.1172 30.9683 33.2662 31.8458 32.8218 32.4787C32.5462 32.8696 32.1131 33.0777 31.6715 33.0777Z" fill="#37474F"/>
<path d="M34.4222 27.5766C34.1353 27.5766 33.8512 27.4922 33.6009 27.3122C27.4866 22.9219 19.9716 21.8307 9.94218 23.8782C9.18562 24.0272 8.43749 23.5435 8.28281 22.7813C8.12531 22.0219 8.61749 21.2766 9.37687 21.1219C20.2247 18.9085 28.4428 20.146 35.2434 25.0257C35.8734 25.4785 36.0169 26.3588 35.5641 26.9888C35.2912 27.3713 34.8609 27.5766 34.4222 27.5766Z" fill="#37474F"/>
<path d="M37.1756 20.2387C36.9028 20.2387 36.6272 20.16 36.3853 19.9969C28.6312 14.7347 16.8441 14.7094 9.21374 17.4094C8.48249 17.6625 7.67812 17.2828 7.41937 16.5487C7.16062 15.8175 7.54312 15.0131 8.27718 14.7544C16.5769 11.8209 29.4384 11.8828 37.9687 17.6681C38.6128 18.104 38.7759 18.9787 38.3428 19.62C38.0672 20.0222 37.6228 20.2387 37.1756 20.2387Z" fill="#37474F"/>
</svg>
