<svg width="45" height="45" viewBox="0 0 45 45" fill="none" xmlns="http://www.w3.org/2000/svg">
<circle cx="22.5" cy="22.5" r="22.5" fill="#37AEE2"/>
<path d="M36.9912 8H7.00879C7.00393 8 7 8.00393 7 8.00879V37.9912C7 37.9961 7.00393 38 7.00879 38H36.9912C36.9961 38 37 37.9961 37 37.9912V8.00879C37 8.00393 36.9961 8 36.9912 8Z" fill="#37AEE2"/>
<path d="M18.6602 31.6719C18.0156 31.6719 18.0742 31.4375 17.8984 30.8516L16.0234 24.6992L30.3789 16.2617" fill="#C8DAEA"/>
<path d="M18.6602 31.6719C19.0703 31.6719 19.3047 31.4375 19.5977 31.2031L22.2344 28.6836L18.9531 26.6914" fill="#A9C9DD"/>
<path d="M18.9531 26.6914L26.8633 32.4921C27.6836 33.0195 28.3867 32.7265 28.6211 31.6718L31.8437 16.5546C32.1367 15.2656 31.3164 14.6796 30.4375 15.0898L11.6289 22.3554C10.3984 22.8242 10.3984 23.5859 11.3945 23.8789L16.2578 25.4023L27.3906 18.3125C27.918 18.0195 28.3867 18.1367 28.0352 18.5468" fill="#F6FBFE"/>
</svg>
