<svg width="45" height="45" viewBox="0 0 45 45" fill="none" xmlns="http://www.w3.org/2000/svg">
<path d="M22.5 45C34.9264 45 45 34.9264 45 22.5C45 10.0736 34.9264 0 22.5 0C10.0736 0 0 10.0736 0 22.5C0 34.9264 10.0736 45 22.5 45Z" fill="black"/>
<path fill-rule="evenodd" clip-rule="evenodd" d="M13.4556 15.75H13.5113C13.7831 16.0618 14.0775 16.3508 14.3728 16.6406H14.3729C14.5392 16.8038 14.7058 16.9674 14.8689 17.1354L17.9461 20.2126V20.2684C17.2037 21.0073 16.4631 21.7496 15.7223 22.492C14.9766 23.2395 14.231 23.987 13.4835 24.7309C12.7351 23.986 11.9884 23.2393 11.2417 22.4927C10.495 21.746 9.7484 20.9993 9 20.2544C9.05223 20.1548 9.13659 20.078 9.22028 20.0017L9.22028 20.0016C9.25953 19.9658 9.29861 19.9301 9.33417 19.8923C9.88283 19.3382 10.4347 18.7873 10.9866 18.2367V18.2366C11.8141 17.4108 12.6411 16.5854 13.4556 15.75ZM26.9905 20.1551C27.4231 19.7332 27.8492 19.3046 28.2753 18.8762C28.5739 18.576 28.8724 18.2758 29.173 17.9779C29.4366 17.7118 29.7019 17.4485 29.9671 17.1853L29.9673 17.185L29.9674 17.1849C30.4446 16.7112 30.9216 16.2378 31.3869 15.75H31.4426C31.6199 15.9627 31.8168 16.1557 32.0137 16.3485C32.1263 16.4588 32.2388 16.569 32.3477 16.6829L33.4715 17.8067L35.7243 20.0595C35.74 20.0771 35.7585 20.0943 35.7774 20.1118C35.8256 20.1563 35.8764 20.2033 35.8913 20.2684C35.1604 20.979 34.4409 21.7028 33.721 22.427H33.7209C32.9528 23.1996 32.1843 23.9727 31.4009 24.7309L27.1193 20.4493C27.0983 20.4263 27.0755 20.4052 27.0529 20.3842H27.0528C27.0302 20.3633 27.0079 20.3424 26.9877 20.3202C26.9686 20.3407 26.9479 20.3599 26.9271 20.379C26.912 20.3931 26.8969 20.4071 26.8824 20.4215C26.1657 21.1349 25.4506 21.8499 24.7355 22.5651L24.7352 22.5653C24.0127 23.2878 23.2902 24.0102 22.5661 24.7309C21.8977 24.0719 21.2348 23.4073 20.572 22.7427C19.7435 21.912 18.9149 21.0813 18.0756 20.2613C18.8472 19.4567 19.6401 18.6675 20.433 17.8785C21.1423 17.1726 21.8515 16.4667 22.5452 15.75H22.6009C22.6428 15.8127 22.6844 15.8684 22.7401 15.9241C23.3169 16.4953 23.8904 17.0699 24.4641 17.6447C25.3021 18.4843 26.1406 19.3243 26.9905 20.1551ZM19.5876 27.771C19.0971 28.2607 18.6068 28.7501 18.1174 29.2395C18.1104 29.2535 18.1035 29.2709 18.0966 29.2883C18.0895 29.3057 18.0826 29.323 18.0756 29.337C18.8364 30.0873 19.5893 30.8416 20.3432 31.5968C20.5896 31.8437 20.8361 32.0906 21.0831 32.3376C21.2892 32.535 21.4906 32.7398 21.6921 32.9446C21.9738 33.231 22.2559 33.5178 22.5521 33.7856C22.7649 33.5978 22.9703 33.3875 23.1756 33.1771C23.3128 33.0366 23.45 32.896 23.5894 32.7623C24.1281 32.2269 24.667 31.6881 25.2059 31.1492C25.7392 30.6159 26.2725 30.0827 26.8057 29.5528C26.8324 29.5214 26.8624 29.4933 26.8923 29.4653C26.9483 29.4128 27.0037 29.3609 27.0355 29.2883C25.5456 27.8193 24.0697 26.3364 22.5937 24.8535L22.5312 24.8257C21.5517 25.8098 20.5691 26.7909 19.5876 27.771Z" fill="#F6F8FB"/>
</svg>
