<svg width="45" height="45" viewBox="0 0 45 45" fill="none" xmlns="http://www.w3.org/2000/svg">
<circle cx="22.5" cy="22.5" r="22.5" fill="black"/>
<path d="M32.5625 17.8813V21.6594C32.3593 21.6594 32.1156 21.7 31.8718 21.7C30.0437 21.7 28.3375 21.0094 27.0375 19.9125V27.9563C27.0375 29.5813 26.5093 31.125 25.575 32.3438C24.275 34.0907 22.1625 35.2688 19.7656 35.2688C17.1656 35.2688 14.8906 33.8875 13.6312 31.8563C14.9312 33.075 16.6781 33.8469 18.5875 33.8469C20.9437 33.8469 23.0562 32.7094 24.3562 30.9219C25.25 29.7031 25.8187 28.2 25.8187 26.5344V18.45C27.1187 19.5875 28.7844 20.2375 30.6531 20.2375C30.8969 20.2375 31.1 20.2375 31.3437 20.1969V17.7594C31.7093 17.8406 32.0343 17.8813 32.4 17.8813H32.5625Z" fill="#FF004F"/>
<path d="M20.7812 20.6843V24.8687C20.4969 24.7874 20.1719 24.7468 19.8875 24.7468C18.1 24.7468 16.6375 26.2499 16.6375 28.0781C16.6375 28.4843 16.7187 28.8499 16.8406 29.2156C16.0281 28.6062 15.4594 27.6312 15.4594 26.5343C15.4594 24.7062 16.9219 23.2031 18.7094 23.2031C19.0344 23.2031 19.3187 23.2437 19.6031 23.3249V20.6437C19.6844 20.6437 19.7656 20.6437 19.8469 20.6437C20.1719 20.6437 20.4969 20.6437 20.7812 20.6843Z" fill="#FF004F"/>
<path d="M27.6468 14.875C26.9156 14.225 26.3875 13.3312 26.1031 12.3969H27.0781C27.0781 12.6 27.0781 12.7625 27.0781 12.9656C27.1593 13.6156 27.3625 14.2656 27.6468 14.875Z" fill="#FF004F"/>
<path d="M31.3844 17.8V20.2375C31.1813 20.2781 30.9375 20.2781 30.6938 20.2781C28.8656 20.2781 27.1594 19.5875 25.8594 18.4906V26.5343C25.8594 28.1593 25.3313 29.7031 24.3969 30.9218C23.0563 32.7093 20.9844 33.8468 18.6281 33.8468C16.7188 33.8468 14.9719 33.075 13.6719 31.8562C12.9813 30.7187 12.575 29.4187 12.575 27.9968C12.575 24.0562 15.7031 20.8468 19.6031 20.725V23.4062C19.3188 23.325 18.9938 23.2844 18.7094 23.2844C16.9219 23.2844 15.4594 24.7875 15.4594 26.6156C15.4594 27.7125 15.9875 28.7281 16.8406 29.2968C17.2875 30.5562 18.5063 31.4906 19.8875 31.4906C21.675 31.4906 23.1375 29.9875 23.1375 28.1593V12.3969H26.1031C26.3875 13.3719 26.9156 14.225 27.6469 14.875C28.3781 16.3375 29.7594 17.4344 31.3844 17.8Z" fill="#F6F8FB"/>
<path d="M19.6031 19.2625V20.6438C15.7031 20.7656 12.575 23.975 12.575 27.9156C12.575 29.3375 12.9813 30.6375 13.6719 31.775C12.2906 30.4344 11.4375 28.5656 11.4375 26.4531C11.4375 22.4313 14.6875 19.1813 18.6688 19.1813C18.9938 19.1813 19.3188 19.2219 19.6031 19.2625Z" fill="#00F7EF"/>
<path d="M26.1031 12.3969H23.1375V28.0781C23.1375 29.9063 21.675 31.4094 19.8875 31.4094C18.4656 31.4094 17.2875 30.5156 16.8406 29.2156C17.3688 29.5813 18.0188 29.825 18.7094 29.825C20.4969 29.825 21.9594 28.3625 21.9594 26.5344V10.8125H25.9V10.8938C25.9 11.0563 25.9 11.2188 25.9406 11.3813C25.9406 11.7063 26.0219 12.0719 26.1031 12.3969Z" fill="#00F7EF"/>
<path d="M31.3844 16.2969V17.7594C29.7594 17.4344 28.3781 16.3375 27.6063 14.875C28.6219 15.8094 29.9219 16.3375 31.3844 16.2969Z" fill="#00F7EF"/>
</svg>
