<svg width="45" height="45" viewBox="0 0 45 45" fill="none" xmlns="http://www.w3.org/2000/svg">
<circle cx="22.5" cy="22.5" r="22.5" fill="#03A9F4"/>
<g clip-path="url(#clip0)">
<path d="M35 14.9384C34.0331 15.3625 33.0029 15.6436 31.9287 15.7801C33.0337 15.1204 33.8771 14.0836 34.2736 12.834C33.2434 13.4482 32.1059 13.8821 30.8936 14.1243C29.9154 13.0826 28.5211 12.4375 27.0001 12.4375C24.0491 12.4375 21.6734 14.8328 21.6734 17.7691C21.6734 18.1916 21.7091 18.5979 21.7969 18.9846C17.3655 18.7685 13.4444 16.6446 10.8102 13.4093C10.3504 14.2071 10.0806 15.1204 10.0806 16.1035C10.0806 17.9495 11.0312 19.5859 12.4483 20.5332C11.5919 20.517 10.7517 20.2684 10.04 19.8767C10.04 19.893 10.04 19.9141 10.04 19.9352C10.04 22.5255 11.8876 24.677 14.3105 25.1726C13.8766 25.2913 13.4037 25.3481 12.913 25.3481C12.5717 25.3481 12.2272 25.3286 11.9039 25.2571C12.5945 27.368 14.5543 28.9199 16.8845 28.9702C15.071 30.3889 12.7684 31.2436 10.2756 31.2436C9.8385 31.2436 9.41925 31.2241 9 31.1705C11.3611 32.6931 14.1594 33.5625 17.177 33.5625C26.9855 33.5625 32.348 25.4375 32.348 18.3947C32.348 18.1591 32.3399 17.9316 32.3285 17.7057C33.3864 16.955 34.2752 16.0174 35 14.9384Z" fill="#F6F8FB"/>
</g>
<defs>
<clipPath id="clip0">
<rect width="26" height="26" fill="white" transform="translate(9 10)"/>
</clipPath>
</defs>
</svg>
