<svg width="45" height="45" viewBox="0 0 45 45" fill="none" xmlns="http://www.w3.org/2000/svg">
<circle cx="22.5" cy="22.5" r="22.5" fill="#3794E5"/>
<g clip-path="url(#clip0)">
<path d="M21.7216 30.355H23.2753C23.2753 30.355 23.7449 30.303 23.9838 30.0446C24.2048 29.8073 24.1967 29.3621 24.1967 29.3621C24.1967 29.3621 24.1658 27.277 25.1344 26.9699C26.0883 26.6676 27.3137 28.985 28.6121 29.8772C29.5937 30.5516 30.3396 30.4038 30.3396 30.4038L33.8125 30.355C33.8125 30.355 35.6294 30.2429 34.7681 28.8144C34.6982 28.6974 34.2659 27.7581 32.1858 25.8274C30.0081 23.8058 30.3006 24.134 32.9236 20.6384C34.5211 18.5095 35.1597 17.2094 34.9599 16.6536C34.7697 16.1238 33.5948 16.2636 33.5948 16.2636L29.688 16.2863C29.688 16.2863 29.3987 16.2473 29.1826 16.3757C28.9729 16.5025 28.838 16.795 28.838 16.795C28.838 16.795 28.2189 18.4429 27.3933 19.8437C25.6528 22.7998 24.9556 22.9558 24.6712 22.7722C24.0098 22.3448 24.1756 21.0528 24.1756 20.1362C24.1756 17.2712 24.6095 16.0767 23.3289 15.7679C22.9031 15.6655 22.5911 15.5973 21.5039 15.5859C20.1095 15.5713 18.9281 15.5908 18.2601 15.9174C17.8149 16.1352 17.472 16.6211 17.6816 16.6487C17.94 16.6829 18.525 16.8064 18.8354 17.2289C19.2368 17.7733 19.2222 18.9987 19.2222 18.9987C19.2222 18.9987 19.453 22.3708 18.6843 22.7901C18.1561 23.0777 17.433 22.491 15.881 19.808C15.0863 18.4347 14.485 16.9153 14.485 16.9153C14.485 16.9153 14.3696 16.6325 14.1632 16.4813C13.9129 16.2977 13.5619 16.2392 13.5619 16.2392L9.8469 16.262C9.8469 16.262 9.28948 16.2782 9.08472 16.5204C8.9027 16.7365 9.07009 17.1818 9.07009 17.1818C9.07009 17.1818 11.9791 23.9862 15.2715 27.4168C18.2926 30.5614 21.7216 30.355 21.7216 30.355Z" fill="#F6F8FB"/>
</g>
<defs>
<clipPath id="clip0">
<rect width="26" height="26" fill="white" transform="translate(9 10)"/>
</clipPath>
</defs>
</svg>
