<svg width="45" height="45" viewBox="0 0 45 45" fill="none" xmlns="http://www.w3.org/2000/svg">
<circle cx="22.5" cy="22.5" r="22.5" fill="#F44336"/>
<g clip-path="url(#clip0)">
<path d="M45.0025 8.3667C43.7276 5.91473 42.3441 5.46372 39.527 5.2922C36.7129 5.08576 29.6364 5 23.5059 5C17.3636 5 10.2842 5.08576 7.473 5.28903C4.66181 5.46372 3.27531 5.91155 1.98869 8.3667C0.675625 10.8155 0 15.0334 0 22.4592C0 22.4656 0 22.4688 0 22.4688C0 22.4751 0 22.4783 0 22.4783V22.4846C0 29.8787 0.675625 34.1283 1.98869 36.5517C3.27531 39.0037 4.65887 39.4484 7.47006 39.6548C10.2842 39.8327 17.3636 39.9375 23.5059 39.9375C29.6364 39.9375 36.7129 39.8327 39.5299 39.658C42.347 39.4515 43.7306 39.0069 45.0054 36.5549C46.3302 34.1315 47 29.8819 47 22.4878C47 22.4878 47 22.4783 47 22.4719C47 22.4719 47 22.4656 47 22.4624C47 15.0334 46.3302 10.8155 45.0025 8.3667Z" fill="#F44336"/>
<path d="M17.625 31.9975V12.9407L32.3125 22.4691L17.625 31.9975Z" fill="#FAFAFA"/>
</g>
<defs>
<clipPath id="clip0">
<rect width="26" height="26" fill="white" transform="translate(10 10)"/>
</clipPath>
</defs>
</svg>
