<svg width="25" height="26" viewBox="0 0 25 26" fill="none" xmlns="http://www.w3.org/2000/svg">
<path d="M16.3572 0H6.31617C4.84922 0 3.65532 1.24251 3.65532 2.76723V12.9999H3.39539C2.80334 12.9999 2.32324 13.4988 2.32324 14.1151V20.8777C2.32324 21.4939 2.80334 21.9927 3.39539 21.9927H3.65532V23.2327C3.65532 24.7591 4.84922 25.9999 6.31612 25.9999H20.0165C21.4826 25.9999 22.6765 24.759 22.6765 23.2327V6.54929L16.3572 0ZM4.097 15.044C4.47174 14.9819 4.95992 14.9471 5.47528 14.9471C6.33167 14.9471 6.88701 15.1069 7.32215 15.4477C7.79043 15.8097 8.08459 16.3877 8.08459 17.2155C8.08459 18.113 7.77036 18.7325 7.33522 19.115C6.86041 19.5254 6.13764 19.7201 5.25465 19.7201C4.72597 19.7201 4.35123 19.6853 4.09705 19.6505V15.044H4.097ZM20.0166 24.3053H6.31617C5.74813 24.3053 5.28561 23.8242 5.28561 23.2327V21.9927H18.0573C18.6494 21.9927 19.1296 21.4939 19.1296 20.8777V14.1151C19.1296 13.4988 18.6494 12.9999 18.0573 12.9999H5.28561V2.76723C5.28561 2.17738 5.74813 1.69636 6.31617 1.69636L15.7476 1.68611V5.31173C15.7476 6.37074 16.5738 7.23081 17.5927 7.23081L21.0079 7.22062L21.0463 23.2327C21.0463 23.8242 20.5845 24.3053 20.0166 24.3053ZM8.54872 17.3616C8.54872 15.956 9.41174 14.9054 10.7434 14.9054C12.1285 14.9054 12.8844 15.984 12.8844 17.2783C12.8844 18.8158 11.988 19.7481 10.6698 19.7481C9.33168 19.7481 8.54872 18.6977 8.54872 17.3616ZM15.8644 18.8643C16.1721 18.8643 16.5132 18.7945 16.7142 18.7112L16.8679 19.5391C16.6807 19.6369 16.2591 19.7414 15.7107 19.7414C14.1515 19.7414 13.3486 18.7325 13.3486 17.3966C13.3486 15.7961 14.4461 14.9055 15.8108 14.9055C16.3396 14.9055 16.7408 15.0168 16.9214 15.1137L16.7142 15.956C16.5066 15.8649 16.2189 15.7817 15.8578 15.7817C15.0479 15.7817 14.4192 16.29 14.4192 17.3336C14.4192 18.2727 14.9544 18.8643 15.8644 18.8643Z" fill="black"/>
<path d="M7.00103 17.2504C7.00756 16.2756 6.45886 15.7614 5.58235 15.7614C5.35472 15.7614 5.20761 15.7818 5.12061 15.803V18.8711C5.20761 18.8924 5.34824 18.8924 5.47533 18.8924C6.39876 18.8991 7.00103 18.3705 7.00103 17.2504Z" fill="black"/>
<path d="M11.8076 17.3123C11.8076 16.4709 11.4194 15.7469 10.7169 15.7469C10.0277 15.7469 9.62598 16.4293 9.62598 17.3404C9.62598 18.2591 10.0411 18.9059 10.7235 18.9059C11.4129 18.9059 11.8076 18.2242 11.8076 17.3123Z" fill="black"/>
</svg>
