<svg width="26" height="26" viewBox="0 0 26 26" fill="none" xmlns="http://www.w3.org/2000/svg">
<path d="M7.65887 16.7275C7.65887 16.2958 7.35925 16.0383 6.83062 16.0383C6.61475 16.0383 6.46856 16.0596 6.39209 16.0799V17.4653C6.48263 17.4857 6.59394 17.4925 6.74736 17.4925C7.31083 17.4925 7.65887 17.2078 7.65887 16.7275Z" fill="black"/>
<path d="M10.9309 16.0529C10.6942 16.0529 10.5412 16.0733 10.4507 16.0945V19.1627C10.5412 19.1839 10.6874 19.1839 10.8196 19.1839C11.78 19.1907 12.4063 18.6621 12.4063 17.5419C12.4131 16.5679 11.8424 16.0529 10.9309 16.0529Z" fill="black"/>
<path d="M17.0113 0H6.56861C5.04303 0 3.80138 1.24251 3.80138 2.76723V12.9999H3.5311C2.91537 12.9999 2.41602 13.4988 2.41602 14.1151V20.8777C2.41602 21.4939 2.91532 21.9927 3.5311 21.9927H3.80138V23.2327C3.80138 24.7591 5.04303 25.9999 6.56861 25.9999H20.8172C22.3418 25.9999 23.5836 24.759 23.5836 23.2327V6.54929L17.0113 0ZM5.34135 15.3355C5.66815 15.2803 6.12749 15.2386 6.77466 15.2386C7.42868 15.2386 7.89481 15.3635 8.20802 15.6142C8.5072 15.8505 8.7091 16.2406 8.7091 16.6996C8.7091 17.1585 8.55611 17.5487 8.27774 17.813C7.91568 18.1538 7.38025 18.3068 6.7539 18.3068C6.6145 18.3068 6.48955 18.2999 6.39184 18.2863V19.9632H5.34135V15.3355ZM20.8172 24.3053H6.56861C5.9779 24.3053 5.49688 23.8242 5.49688 23.2327V21.9927H18.7794C19.3953 21.9927 19.8946 21.4939 19.8946 20.8777V14.1151C19.8946 13.4988 19.3953 12.9999 18.7794 12.9999H5.49688V2.76723C5.49688 2.17738 5.97795 1.69636 6.56861 1.69636L16.3772 1.68611V5.31174C16.3772 6.37074 17.2365 7.23081 18.2963 7.23081L21.848 7.22062L21.888 23.2327C21.888 23.8242 21.4078 24.3053 20.8172 24.3053ZM9.38647 19.942V15.3355C9.77608 15.2735 10.2839 15.2386 10.8198 15.2386C11.7105 15.2386 12.288 15.3984 12.7406 15.7392C13.2276 16.1012 13.5335 16.6784 13.5335 17.5069C13.5335 18.4044 13.2067 19.024 12.7541 19.4064C12.2603 19.8169 11.5086 20.0116 10.5903 20.0116C10.0404 20.0116 9.65076 19.9768 9.38647 19.942ZM16.9807 17.2147V18.0773H15.2966V19.9632H14.2321V15.2735H17.0988V16.1429H15.2966V17.2147H16.9807Z" fill="black"/>
</svg>
