<svg width="30" height="20" viewBox="0 0 30 20" fill="none" xmlns="http://www.w3.org/2000/svg">
<path d="M23.8125 6.96284C24.4312 5.40662 25.4062 3.8691 26.7094 2.38783C27.1219 1.91908 27.1781 1.24411 26.8406 0.719107C26.5781 0.306607 26.1469 0.0816157 25.6781 0.0816157C25.5469 0.0816158 25.4156 0.0909427 25.2843 0.137865C22.5282 0.944106 16.0875 3.80346 15.9093 12.9722C15.8438 16.5066 18.4312 19.5441 21.7969 19.8909C23.6625 20.0785 25.5187 19.4691 26.8969 18.2316C28.275 16.9847 29.0625 15.2034 29.0625 13.3472C29.0625 10.2535 26.8687 7.54408 23.8125 6.96284Z" fill="#1C84E3"/>
<path d="M6.83355 19.8909C8.68984 20.0785 10.5461 19.4691 11.9242 18.2316C13.3023 16.9847 14.0898 15.2034 14.0898 13.3472C14.0898 10.2535 11.8961 7.54409 8.83981 6.96284C9.45858 5.40661 10.4336 3.8691 11.7367 2.38784C12.1492 1.91909 12.2055 1.24411 11.8679 0.719114C11.6054 0.306614 11.1742 0.0816233 10.7054 0.0816234C10.5742 0.0816234 10.4429 0.0909503 10.3117 0.137873C7.55544 0.944113 1.11482 3.80347 0.936691 12.9723L0.936691 13.1035C0.936691 16.5816 3.49605 19.5441 6.83355 19.8909Z" fill="#1C84E3"/>
</svg>
