<svg width="60" height="52" viewBox="0 0 60 52" fill="none" xmlns="http://www.w3.org/2000/svg">
<g filter="url(#filter0_d_412_1970)">
<path fill-rule="evenodd" clip-rule="evenodd" d="M47.4508 24.5301L47.4511 24.5305C47.676 24.8045 47.676 25.1991 47.4511 25.473L37.3255 37.8488L37.325 37.8494C37.1839 38.0232 36.9729 38.123 36.7491 38.123H27.7492C27.461 38.123 27.1996 37.9573 27.0781 37.7001C26.9545 37.436 26.9925 37.1277 27.1735 36.9084L27.1741 36.9078L36.9111 25.0029L27.1718 13.098L27.1713 13.0974C26.99 12.8778 26.9527 12.5699 27.0755 12.3089C27.1994 12.048 27.4616 11.8828 27.7492 11.8828H36.7491C36.9729 11.8828 37.1839 11.9826 37.325 12.1565L37.3255 12.157L47.4508 24.5301ZM36.3957 36.6324L45.911 25.0029L36.3957 13.3734H29.3216L38.4509 24.5301L38.4513 24.5305C38.6761 24.8045 38.6761 25.1991 38.4513 25.473L38.4509 25.4735L29.3217 36.6324H36.3957Z" fill="url(#paint0_linear_412_1970)"/>
</g>
<g filter="url(#filter1_d_412_1970)">
<path fill-rule="evenodd" clip-rule="evenodd" d="M32.7984 24.5301L32.7988 24.5305C33.0236 24.8045 33.0236 25.1991 32.7988 25.473L22.6731 37.8488L22.6727 37.8494C22.5315 38.0232 22.3206 38.123 22.0967 38.123H13.0969C12.8086 38.123 12.5472 37.9573 12.4258 37.7001C12.3022 37.436 12.3402 37.1277 12.5212 36.9084L12.5217 36.9078L22.2588 25.0029L12.5195 13.098L12.5189 13.0974C12.3376 12.8778 12.3003 12.5699 12.4231 12.3089C12.5471 12.048 12.8093 11.8828 13.0969 11.8828H22.0967C22.3206 11.8828 22.5315 11.9826 22.6727 12.1565L22.6731 12.157L32.7984 24.5301ZM21.7434 36.6324L31.2587 25.0029L21.7434 13.3734H14.6693L23.7986 24.5301L23.7989 24.5305C24.0238 24.8045 24.0238 25.1991 23.7989 25.473L23.7986 25.4735L14.6694 36.6324H21.7434Z" fill="url(#paint1_linear_412_1970)"/>
</g>
<defs>
<filter id="filter0_d_412_1970" x="15.0039" y="0.882812" width="44.6152" height="50.2402" filterUnits="userSpaceOnUse" color-interpolation-filters="sRGB">
<feFlood flood-opacity="0" result="BackgroundImageFix"/>
<feColorMatrix in="SourceAlpha" type="matrix" values="0 0 0 0 0 0 0 0 0 0 0 0 0 0 0 0 0 0 127 0" result="hardAlpha"/>
<feOffset dy="1"/>
<feGaussianBlur stdDeviation="6"/>
<feComposite in2="hardAlpha" operator="out"/>
<feColorMatrix type="matrix" values="0 0 0 0 0.111458 0 0 0 0 0.517167 0 0 0 0 0.891667 0 0 0 0.8 0"/>
<feBlend mode="normal" in2="BackgroundImageFix" result="effect1_dropShadow_412_1970"/>
<feBlend mode="normal" in="SourceGraphic" in2="effect1_dropShadow_412_1970" result="shape"/>
</filter>
<filter id="filter1_d_412_1970" x="0.351562" y="0.882812" width="44.6152" height="50.2402" filterUnits="userSpaceOnUse" color-interpolation-filters="sRGB">
<feFlood flood-opacity="0" result="BackgroundImageFix"/>
<feColorMatrix in="SourceAlpha" type="matrix" values="0 0 0 0 0 0 0 0 0 0 0 0 0 0 0 0 0 0 127 0" result="hardAlpha"/>
<feOffset dy="1"/>
<feGaussianBlur stdDeviation="6"/>
<feComposite in2="hardAlpha" operator="out"/>
<feColorMatrix type="matrix" values="0 0 0 0 0.111458 0 0 0 0 0.517167 0 0 0 0 0.891667 0 0 0 0.8 0"/>
<feBlend mode="normal" in2="BackgroundImageFix" result="effect1_dropShadow_412_1970"/>
<feBlend mode="normal" in="SourceGraphic" in2="effect1_dropShadow_412_1970" result="shape"/>
</filter>
<linearGradient id="paint0_linear_412_1970" x1="37.3118" y1="11.8828" x2="37.3118" y2="38.123" gradientUnits="userSpaceOnUse">
<stop stop-color="#36A9FC"/>
<stop offset="1" stop-color="#1C84E3"/>
</linearGradient>
<linearGradient id="paint1_linear_412_1970" x1="22.6595" y1="11.8828" x2="22.6595" y2="38.123" gradientUnits="userSpaceOnUse">
<stop stop-color="#36A9FC"/>
<stop offset="1" stop-color="#1C84E3"/>
</linearGradient>
</defs>
</svg>
