<svg width="48" height="61" viewBox="0 0 48 61" fill="none" xmlns="http://www.w3.org/2000/svg">
<g filter="url(#filter0_d_412_2029)">
<path d="M21 47.0029C20.1585 47.0029 19.5 46.3444 19.5 45.5029C19.5 45.4759 19.5015 45.3754 19.5045 45.3484L20.916 32.0029H13.5C12.6585 32.0029 12 31.3444 12 30.5029C12 30.1834 12.1095 29.8549 12.3015 29.6014L24.276 11.6374C24.5805 11.2279 25.0305 11.0029 25.5 11.0029C26.3415 11.0029 27 11.6614 27 12.5029C27 12.5329 26.9985 12.6514 26.9955 12.6814L25.593 24.5029H34.5C35.3415 24.5029 36 25.1614 36 26.0029C36 26.3194 35.8905 26.6479 35.7 26.9029L22.2165 46.3804C21.9195 46.7779 21.4695 47.0029 21 47.0029ZM25.5045 12.5044L13.524 30.4699L21.75 30.5029C21.963 30.5029 22.1655 30.5929 22.308 30.7519C22.4505 30.9109 22.5195 31.1209 22.4955 31.3324L20.9955 45.5074L34.5 26.0029C34.5 25.9984 34.5 25.9969 34.5 25.9969L24.75 26.0029C24.5355 26.0029 24.3315 25.9114 24.189 25.7509C24.0465 25.5904 23.979 25.3774 24.0045 25.1644L25.5045 12.5044Z" fill="url(#paint0_linear_412_2029)"/>
</g>
<defs>
<filter id="filter0_d_412_2029" x="0" y="0.00292969" width="48" height="60" filterUnits="userSpaceOnUse" color-interpolation-filters="sRGB">
<feFlood flood-opacity="0" result="BackgroundImageFix"/>
<feColorMatrix in="SourceAlpha" type="matrix" values="0 0 0 0 0 0 0 0 0 0 0 0 0 0 0 0 0 0 127 0" result="hardAlpha"/>
<feOffset dy="1"/>
<feGaussianBlur stdDeviation="6"/>
<feComposite in2="hardAlpha" operator="out"/>
<feColorMatrix type="matrix" values="0 0 0 0 0.111458 0 0 0 0 0.517167 0 0 0 0 0.891667 0 0 0 0.8 0"/>
<feBlend mode="normal" in2="BackgroundImageFix" result="effect1_dropShadow_412_2029"/>
<feBlend mode="normal" in="SourceGraphic" in2="effect1_dropShadow_412_2029" result="shape"/>
</filter>
<linearGradient id="paint0_linear_412_2029" x1="24" y1="11.0029" x2="24" y2="47.0029" gradientUnits="userSpaceOnUse">
<stop stop-color="#36A9FC"/>
<stop offset="1" stop-color="#1C84E3"/>
</linearGradient>
</defs>
</svg>
