<svg width="20" height="20" viewBox="0 0 20 20" fill="none" xmlns="http://www.w3.org/2000/svg">
<path d="M10.2432 0C6.2493 0 3 3.2493 3 7.2432C3 12.1998 9.48199 19.4763 9.75797 19.7836C10.0172 20.0723 10.4698 20.0718 10.7285 19.7836C11.0045 19.4763 17.4865 12.1998 17.4865 7.2432C17.4864 3.2493 14.2371 0 10.2432 0ZM10.2432 10.8875C8.23379 10.8875 6.59902 9.25266 6.59902 7.2432C6.59902 5.23375 8.23383 3.59898 10.2432 3.59898C12.2527 3.59898 13.8874 5.23379 13.8874 7.24324C13.8874 9.2527 12.2527 10.8875 10.2432 10.8875Z" fill="url(#paint0_linear_412_1579)"/>
<defs>
<linearGradient id="paint0_linear_412_1579" x1="10.2432" y1="0" x2="10.2432" y2="20" gradientUnits="userSpaceOnUse">
<stop stop-color="#CCD2E6"/>
<stop offset="1" stop-color="#838BA3"/>
</linearGradient>
</defs>
</svg>
