<svg width="20" height="20" viewBox="0 0 20 20" fill="none" xmlns="http://www.w3.org/2000/svg">
<path d="M10.3349 12.7234C10.1695 12.818 9.98044 12.8652 9.81501 12.8652C9.64958 12.8652 9.46052 12.818 9.29509 12.7234L1 7.66602V14.4013C1 15.8429 2.158 17.0009 3.5996 17.0009H16.0304C17.472 17.0009 18.63 15.8429 18.63 14.4013V7.66602L10.3349 12.7234Z" fill="url(#paint0_linear_412_1583)"/>
<path d="M16.0299 4H3.59902C2.37012 4 1.33027 4.87441 1.07031 6.03242L9.81445 11.3734L18.5586 6.03242C18.2986 4.87441 17.2588 4 16.0299 4Z" fill="url(#paint1_linear_412_1583)"/>
<defs>
<linearGradient id="paint0_linear_412_1583" x1="9.81501" y1="7.66602" x2="9.81501" y2="17.0009" gradientUnits="userSpaceOnUse">
<stop stop-color="#CCD2E6"/>
<stop offset="1" stop-color="#838BA3"/>
</linearGradient>
<linearGradient id="paint1_linear_412_1583" x1="9.81445" y1="4" x2="9.81445" y2="11.3734" gradientUnits="userSpaceOnUse">
<stop stop-color="#CCD2E6"/>
<stop offset="1" stop-color="#838BA3"/>
</linearGradient>
</defs>
</svg>
