<svg width="24" height="30" viewBox="0 0 24 30" fill="none" xmlns="http://www.w3.org/2000/svg">
<path d="M6.65201 15.5119H5.38005V13.6704H6.59505C6.68365 13.6704 6.77224 13.6894 6.86083 13.7273C6.94943 13.759 7.02853 13.8128 7.09814 13.8887C7.16775 13.9646 7.22154 14.0596 7.2595 14.1735C7.3038 14.2874 7.32595 14.4234 7.32595 14.5816C7.32595 14.8854 7.25951 15.1164 7.12661 15.2746C6.99372 15.4328 6.83552 15.5119 6.65201 15.5119Z" fill="white"/>
<path d="M13.9045 14.8569C13.9867 15.0974 14.0279 15.3663 14.0279 15.6637C14.0279 15.9548 13.9867 16.2238 13.9045 16.4706C13.8285 16.7111 13.7146 16.923 13.5628 17.1066C13.4172 17.2837 13.2337 17.423 13.0122 17.5242C12.7907 17.6255 12.5376 17.6761 12.2528 17.6761H11.2941V13.6704H12.2528C12.5313 13.6704 12.7812 13.7179 13.0027 13.8128C13.2242 13.9077 13.4109 14.0437 13.5628 14.2209C13.7146 14.3981 13.8285 14.6101 13.9045 14.8569Z" fill="white"/>
<path fill-rule="evenodd" clip-rule="evenodd" d="M15.8086 6.73828C15.8086 7.22367 16.2021 7.61719 16.6875 7.61719H23.4258V27.3633C23.4258 28.8172 22.2429 30 20.7891 30H3.21094C1.75705 30 0.574219 28.8172 0.574219 27.3633V2.63672C0.574219 1.18283 1.75705 0 3.21094 0H15.8086V6.73828ZM3.82333 12.3035V19.043H5.38005V16.8693H6.74693C7.06966 16.8693 7.36392 16.806 7.6297 16.6794C7.89548 16.5529 8.12013 16.382 8.30365 16.1668C8.49349 15.9517 8.63904 15.708 8.74029 15.4359C8.84786 15.1638 8.90165 14.8791 8.90165 14.5816C8.90165 14.3032 8.8447 14.0279 8.73079 13.7558C8.62322 13.4837 8.47134 13.2401 8.27517 13.0249C8.08532 12.8098 7.85435 12.6357 7.58224 12.5029C7.31646 12.37 7.0222 12.3035 6.69947 12.3035H3.82333ZM9.73741 12.3035V19.043H12.2528C12.7591 19.043 13.2179 18.9639 13.6292 18.8057C14.0469 18.6411 14.4012 18.4133 14.6923 18.1222C14.9898 17.8248 15.2176 17.4704 15.3758 17.0591C15.534 16.6414 15.6131 16.1763 15.6131 15.6637C15.6131 15.2018 15.5403 14.7683 15.3948 14.3633C15.2555 13.952 15.0435 13.5945 14.7588 13.2907C14.4803 12.987 14.1323 12.7465 13.7146 12.5693C13.297 12.3921 12.8097 12.3035 12.2528 12.3035H9.73741ZM16.5321 12.3035V19.043H18.0888V16.3852H20.5758V15.1227H18.0888V13.6704H21.1073V12.3035H16.5321Z" fill="white"/>
<path d="M17.5664 0.514629V5.85938H22.9108L17.5664 0.514629Z" fill="white"/>
</svg>
