<svg width="16" height="15" viewBox="0 0 16 15" fill="none" xmlns="http://www.w3.org/2000/svg">
<path d="M10.5006 10.6604L11.7923 9.36823C11.9663 9.19635 12.1864 9.0787 12.4259 9.02954C12.6654 8.98039 12.914 9.00186 13.1416 9.09134L14.7158 9.72012C14.9457 9.8135 15.1429 9.97289 15.2825 10.1782C15.422 10.3835 15.4977 10.6256 15.5 10.8738V13.7581C15.4987 13.927 15.4632 14.0939 15.3957 14.2487C15.3282 14.4035 15.23 14.5431 15.1072 14.6589C14.9844 14.7748 14.8394 14.8646 14.6809 14.923C14.5225 14.9813 14.3539 15.007 14.1853 14.9984C3.1544 14.3119 0.928617 4.96679 0.507679 1.39026C0.488139 1.21462 0.505992 1.03684 0.560065 0.868608C0.614137 0.700373 0.703203 0.545498 0.821403 0.414172C0.939604 0.282846 1.08426 0.178045 1.24585 0.106664C1.40745 0.0352829 1.58232 -0.00106094 1.75896 2.35757e-05H4.54407C4.79261 0.000759526 5.03523 0.0758619 5.24075 0.215671C5.44627 0.35548 5.60528 0.553602 5.69733 0.784554L6.32585 2.35938C6.41826 2.58613 6.44183 2.83509 6.39363 3.07516C6.34543 3.31523 6.2276 3.53577 6.05484 3.70923L4.76319 5.0014C4.76319 5.0014 5.50704 10.0374 10.5006 10.6604Z" fill="#D9DCE3"/>
</svg>
