<svg width="32" height="22" viewBox="0 0 32 22" fill="none" xmlns="http://www.w3.org/2000/svg">
<path fill-rule="evenodd" clip-rule="evenodd" d="M31.3407 3.44244C30.9718 2.09639 29.891 1.03537 28.5204 0.672907C26.0162 0 15.9997 0 15.9997 0C15.9997 0 5.98337 0 3.47923 0.647256C2.135 1.00948 1.02783 2.09663 0.658933 3.44244C0 5.90106 0 11 0 11C0 11 0 16.1246 0.658933 18.5576C1.02807 19.9034 2.10863 20.9646 3.47948 21.3271C6.00974 22 15.9999 22 15.9999 22C15.9999 22 26.0162 22 28.5204 21.3527C29.8912 20.9905 30.9718 19.9293 31.3409 18.5834C31.9963 16.138 31.9998 11.0816 31.9999 11.0263C31.9999 11.0246 31.9999 11.0281 31.9999 11.0263C32.0001 10.9711 32.0225 5.88768 31.3407 3.44244ZM14.9742 14.8835L19.7517 11.4753C20.0828 11.2392 20.0828 10.7608 19.7517 10.5247L14.9742 7.11651C14.5707 6.82865 14 7.10709 14 7.59183V14.4082C14 14.8929 14.5707 15.1713 14.9742 14.8835Z" fill="#D9DCE3"/>
</svg>
