<svg width="33" height="22" viewBox="0 0 33 22" fill="none" xmlns="http://www.w3.org/2000/svg">
<path fill-rule="evenodd" clip-rule="evenodd" d="M31.8407 3.44244C31.4718 2.09639 30.391 1.03537 29.0204 0.672907C26.5162 0 16.4997 0 16.4997 0C16.4997 0 6.48337 0 3.97923 0.647256C2.635 1.00948 1.52783 2.09663 1.15893 3.44244C0.5 5.90106 0.5 11 0.5 11C0.5 11 0.5 16.1246 1.15893 18.5576C1.52807 19.9034 2.60863 20.9646 3.97948 21.3271C6.50974 22 16.4999 22 16.4999 22C16.4999 22 26.5162 22 29.0204 21.3527C30.3912 20.9905 31.4718 19.9293 31.8409 18.5834C32.4963 16.138 32.4998 11.0816 32.4999 11.0263C32.4999 11.0246 32.4999 11.0281 32.4999 11.0263C32.5001 10.9711 32.5225 5.88768 31.8407 3.44244ZM15.4742 14.8835L20.2517 11.4753C20.5828 11.2392 20.5828 10.7608 20.2517 10.5247L15.4742 7.11651C15.0707 6.82865 14.5 7.10709 14.5 7.59183V14.4082C14.5 14.8929 15.0707 15.1713 15.4742 14.8835Z" fill="white"/>
</svg>
