<svg width="20" height="20" viewBox="0 0 20 20" fill="none" xmlns="http://www.w3.org/2000/svg">
<path d="M9.99987 13.3964C8.1179 13.3964 6.60216 11.8754 6.60216 9.99997C6.60216 8.12452 8.1179 6.60357 9.99987 6.60357C11.8623 6.60357 13.3976 8.12452 13.3976 9.99997C13.3976 11.8754 11.8818 13.3964 9.99987 13.3964Z" fill="white"/>
<path fill-rule="evenodd" clip-rule="evenodd" d="M0 5.76577C0 2.58142 2.58142 0 5.76577 0H14.2342C17.4186 0 20 2.58142 20 5.76577V14.2342C20 17.4186 17.4186 20 14.2342 20H5.76577C2.58142 20 0 17.4186 0 14.2342V5.76577ZM9.99987 4.80501C7.1339 4.80501 4.80621 7.1288 4.80621 9.99997C4.80621 12.8698 7.13521 15.1962 9.99987 15.1962C12.8658 15.1962 15.1961 12.8698 15.1961 9.99997C15.1961 7.1288 12.8658 4.80501 9.99987 4.80501ZM14.5161 4.1052C14.5161 3.4366 15.0465 2.90486 15.7151 2.90486C16.3824 2.90486 16.9154 3.4366 16.9154 4.1052C16.9154 4.77249 16.3837 5.30293 15.7151 5.30293C15.0465 5.30293 14.5161 4.77249 14.5161 4.1052Z" fill="white"/>
</svg>
