<svg width="26" height="18" viewBox="0 0 26 18" fill="none" xmlns="http://www.w3.org/2000/svg">
<path d="M24.9849 2.98833C24.6968 1.91756 23.8524 1.07348 22.7815 0.785157C20.8252 0.25 12.9997 0.25 12.9997 0.25C12.9997 0.25 5.17454 0.25 3.21821 0.764867C2.16794 1.05289 1.30292 1.91771 1.01483 2.98833C0.5 4.94407 0.5 9 0.5 9C0.5 9 0.5 13.0764 1.01483 15.0117C1.30322 16.0823 2.14734 16.9264 3.21836 17.2147C5.19514 17.75 13 17.75 13 17.75C13 17.75 20.8252 17.75 22.7815 17.2351C23.8526 16.947 24.6968 16.1029 24.9852 15.0323C25.4999 13.0764 25.4999 9.02059 25.4999 9.02059C25.4999 9.02059 25.5205 4.94407 24.9849 2.98833ZM10.5083 12.747V5.25299L17.0155 9L10.5083 12.747Z" fill="white"/>
</svg>
