<svg width="24" height="24" viewBox="0 0 24 24" fill="none" xmlns="http://www.w3.org/2000/svg">
<path d="M11.9998 16.0757C9.74148 16.0757 7.92259 14.2505 7.92259 12C7.92259 9.74942 9.74148 7.92428 11.9998 7.92428C14.2347 7.92428 16.0771 9.74942 16.0771 12C16.0771 14.2505 14.2582 16.0757 11.9998 16.0757Z" fill="white"/>
<path fill-rule="evenodd" clip-rule="evenodd" d="M0 6.91892C0 3.09771 3.09771 0 6.91892 0H17.0811C20.9023 0 24 3.09771 24 6.91892V17.0811C24 20.9023 20.9023 24 17.0811 24H6.91892C3.09771 24 0 20.9023 0 17.0811V6.91892ZM11.9998 5.76601C8.56069 5.76601 5.76745 8.55456 5.76745 12C5.76745 15.4438 8.56225 18.2355 11.9998 18.2355C15.439 18.2355 18.2354 15.4438 18.2354 12C18.2354 8.55456 15.439 5.76601 11.9998 5.76601ZM17.4193 4.92624C17.4193 4.12392 18.0558 3.48583 18.8581 3.48583C19.6589 3.48583 20.2985 4.12392 20.2985 4.92624C20.2985 5.72699 19.6604 6.36352 18.8581 6.36352C18.0558 6.36352 17.4193 5.72699 17.4193 4.92624Z" fill="white"/>
</svg>
