<svg width="30" height="22" viewBox="0 0 30 22" fill="none" xmlns="http://www.w3.org/2000/svg">
<path d="M29.3819 3.786C29.0362 2.50107 28.0229 1.48818 26.7378 1.14219C24.3902 0.5 14.9997 0.5 14.9997 0.5C14.9997 0.5 5.60945 0.5 3.26185 1.11784C2.00153 1.46347 0.963503 2.50126 0.617799 3.786C0 6.13288 0 11 0 11C0 11 0 15.8917 0.617799 18.214C0.963869 19.4987 1.97681 20.5116 3.26203 20.8576C5.63417 21.5 15 21.5 15 21.5C15 21.5 24.3902 21.5 26.7378 20.8822C28.0231 20.5364 29.0362 19.5235 29.3823 18.2387C29.9999 15.8917 29.9999 11.0247 29.9999 11.0247C29.9999 11.0247 30.0246 6.13288 29.3819 3.786ZM12.0099 15.4964V6.50358L19.8186 11L12.0099 15.4964Z" fill="white"/>
</svg>
