<svg width="35" height="35" viewBox="0 0 35 35" fill="none" xmlns="http://www.w3.org/2000/svg">
<path d="M17.4854 2.91669C9.43541 2.91669 2.91666 9.45002 2.91666 17.5C2.91666 25.55 9.43541 32.0834 17.4854 32.0834C25.55 32.0834 32.0833 25.55 32.0833 17.5C32.0833 9.45002 25.55 2.91669 17.4854 2.91669ZM17.5 29.1667C11.0542 29.1667 5.83333 23.9459 5.83333 17.5C5.83333 11.0542 11.0542 5.83335 17.5 5.83335C23.9458 5.83335 29.1667 11.0542 29.1667 17.5C29.1667 23.9459 23.9458 29.1667 17.5 29.1667Z" fill="#7166F9"/>
<path d="M18.2292 10.2083H16.0417V18.9583L23.6979 23.5521L24.7917 21.7583L18.2292 17.8646V10.2083Z" fill="#7166F9"/>
</svg>
