<svg width="469" height="415" viewBox="0 0 469 415" fill="none" xmlns="http://www.w3.org/2000/svg">
<path opacity="0.4" d="M146.348 412.202L51.9795 363.338C43.9904 359.186 44.9902 351.971 54.2197 347.188L282.17 229.167C291.427 224.384 305.36 223.87 313.349 228.005L407.717 276.869C415.706 281.02 414.706 288.244 405.477 293.018L177.526 411.048C168.297 415.822 154.337 416.345 146.348 412.202Z" fill="#D6D8E5"/>
<path d="M158.299 405.775L63.9398 356.911C55.9416 352.76 56.9506 345.536 66.1801 340.761L294.121 222.716C303.379 217.941 317.264 217.418 325.309 221.561L419.668 270.426C427.657 274.577 426.657 281.793 417.428 286.575L189.487 404.613C180.257 409.395 166.297 409.91 158.299 405.775Z" fill="#B1B4C4"/>
<path d="M58.5428 349.787V341.999L68.7351 345.445L58.5428 349.787Z" fill="#B1B4C4"/>
<path d="M425.065 277.168V269.678L416.965 274.361L425.065 277.168Z" fill="#B1B4C4"/>
<path d="M158.299 399.174L63.9398 350.31C55.9416 346.159 56.9506 338.943 66.1801 334.161L294.121 216.123C303.379 211.34 317.264 210.825 325.309 214.96L419.668 263.824C427.657 267.976 426.657 275.2 417.428 279.974L189.487 398.02C180.257 402.794 166.297 403.317 158.299 399.174Z" fill="#616E84"/>
<path d="M75.3257 360.325C75.8083 360.075 75.8079 359.264 75.3247 358.514C74.8416 357.763 74.0587 357.357 73.5761 357.607C73.0935 357.857 73.0939 358.668 73.577 359.419C74.0602 360.169 74.8431 360.575 75.3257 360.325Z" fill="#757B89"/>
<path d="M79.8684 362.68C80.351 362.43 80.3506 361.619 79.8675 360.868C79.3843 360.118 78.6014 359.712 78.1188 359.962C77.6362 360.212 77.6366 361.023 78.1197 361.773C78.6029 362.524 79.3858 362.93 79.8684 362.68Z" fill="#757B89"/>
<path d="M84.4111 365.026C84.8937 364.776 84.8933 363.965 84.4101 363.215C83.927 362.464 83.1441 362.058 82.6614 362.308C82.1788 362.558 82.1793 363.369 82.6624 364.12C83.1456 364.87 83.9284 365.276 84.4111 365.026Z" fill="#757B89"/>
<path d="M88.9504 367.384C89.433 367.134 89.4326 366.323 88.9495 365.572C88.4663 364.822 87.6834 364.416 87.2008 364.666C86.7182 364.916 86.7186 365.727 87.2018 366.477C87.6849 367.228 88.4678 367.634 88.9504 367.384Z" fill="#757B89"/>
<path d="M127.956 387.575C128.439 387.325 128.439 386.514 127.956 385.763C127.472 385.013 126.689 384.607 126.207 384.857C125.724 385.106 125.725 385.918 126.208 386.668C126.691 387.419 127.474 387.825 127.956 387.575Z" fill="#757B89"/>
<path d="M132.491 389.933C132.974 389.683 132.973 388.872 132.49 388.122C132.007 387.371 131.224 386.965 130.741 387.215C130.259 387.465 130.259 388.276 130.742 389.027C131.226 389.777 132.008 390.183 132.491 389.933Z" fill="#757B89"/>
<path d="M137.034 392.28C137.516 392.03 137.516 391.219 137.033 390.468C136.55 389.718 135.767 389.312 135.284 389.562C134.802 389.812 134.802 390.623 135.285 391.373C135.768 392.124 136.551 392.53 137.034 392.28Z" fill="#757B89"/>
<path d="M141.581 394.633C142.064 394.383 142.063 393.572 141.58 392.822C141.097 392.071 140.314 391.665 139.832 391.915C139.349 392.165 139.349 392.976 139.833 393.727C140.316 394.477 141.099 394.883 141.581 394.633Z" fill="#757B89"/>
<path d="M113.864 381.057L101.395 374.589C100.957 374.311 100.599 373.944 100.349 373.518C100.1 373.093 99.9665 372.62 99.9598 372.139C99.9598 371.193 100.599 370.761 101.395 371.168L113.864 377.636C114.302 377.914 114.66 378.28 114.909 378.706C115.159 379.132 115.292 379.604 115.299 380.085C115.253 381.032 114.614 381.464 113.864 381.057Z" fill="#757B89"/>
<path d="M396.506 295.725L384.898 301.737C384.167 302.11 383.565 301.737 383.565 300.832C383.573 300.384 383.698 299.945 383.93 299.548C384.161 299.152 384.493 298.809 384.898 298.548L396.506 292.545C397.238 292.163 397.83 292.545 397.83 293.442C397.823 293.889 397.7 294.328 397.47 294.724C397.24 295.121 396.91 295.464 396.506 295.725Z" fill="#757B89"/>
<path d="M378.733 304.925L367.124 310.937C366.393 311.319 365.791 310.937 365.791 310.032C365.801 309.586 365.927 309.148 366.158 308.753C366.389 308.358 366.72 308.017 367.124 307.757L378.733 301.745C379.464 301.363 380.056 301.745 380.056 302.65C380.05 303.096 379.927 303.534 379.697 303.929C379.467 304.325 379.137 304.666 378.733 304.925Z" fill="#757B89"/>
<path d="M158.299 397.978L63.9398 349.114C55.9416 344.963 56.9506 337.747 66.1801 332.965L294.121 214.927C303.379 210.145 317.264 209.622 325.309 213.765L419.668 262.629C427.657 266.78 426.657 273.996 417.428 278.778L189.487 396.816C180.257 401.599 166.297 402.113 158.299 397.978Z" fill="#20232D"/>
<path d="M409.541 264.58L372.697 245.483L372.614 245.533C368.253 247.783 361.199 247.783 356.876 245.533C352.553 243.283 352.525 239.621 356.876 237.371L356.969 237.321L320.125 218.224C314.571 215.326 305.461 215.326 299.861 218.224L77.835 333.222C72.2806 336.12 72.2806 340.82 77.835 343.718L167.269 390.033C172.87 392.93 181.942 392.93 187.533 390.033L409.541 275.067C415.132 272.169 415.132 267.478 409.541 264.58Z" fill="white"/>
<path opacity="0.5" d="M409.541 275.067L187.533 390.032C182.479 392.648 174.573 392.905 168.963 390.78C168.385 390.562 167.822 390.313 167.278 390.032L77.8349 343.751C76.5944 343.141 75.522 342.29 74.6967 341.26C72.5861 338.578 73.6321 335.389 77.8349 333.214L299.833 218.257C305.434 215.367 314.496 215.367 320.097 218.257L356.941 237.354H356.848C352.497 239.604 352.497 243.258 356.848 245.516C361.199 247.774 368.263 247.766 372.586 245.516L372.678 245.466L409.522 264.563C415.132 267.478 415.132 272.169 409.541 275.067Z" fill="url(#paint0_linear)"/>
<path d="M362.31 244.91C364.647 244.91 366.541 243.929 366.541 242.718C366.541 241.507 364.647 240.526 362.31 240.526C359.974 240.526 358.08 241.507 358.08 242.718C358.08 243.929 359.974 244.91 362.31 244.91Z" fill="#2B303F"/>
<path opacity="0.1" d="M361.033 243.366C360.884 243.317 360.756 243.229 360.666 243.113C360.575 242.997 360.527 242.859 360.527 242.718C360.527 242.577 360.575 242.438 360.666 242.323C360.756 242.207 360.884 242.119 361.033 242.07C361.421 241.894 361.851 241.802 362.287 241.802C362.723 241.802 363.152 241.894 363.541 242.07C363.694 242.115 363.827 242.201 363.921 242.318C364.015 242.434 364.066 242.574 364.066 242.718C364.066 242.862 364.015 243.002 363.921 243.118C363.827 243.235 363.694 243.321 363.541 243.366C363.152 243.542 362.723 243.634 362.287 243.634C361.851 243.634 361.421 243.542 361.033 243.366Z" fill="white"/>
<path d="M377.474 258.519L375.872 257.688L378.547 256.302L380.149 257.132L377.474 258.519Z" fill="#E9EAF2"/>
<path d="M379.612 259.623L378.01 258.793L381.75 256.858L383.352 257.688L379.612 259.623Z" fill="#E9EAF2"/>
<path d="M381.75 260.727L380.149 259.897L385.49 257.132L387.092 257.962L381.75 260.727Z" fill="#E9EAF2"/>
<path d="M383.889 261.84L382.287 261.01L389.767 257.132L391.369 257.962L383.889 261.84Z" fill="#E9EAF2"/>
<path d="M390.832 265.435L388.342 264.14L393.331 261.558L395.821 262.853L390.832 265.435Z" fill="#E9EAF2"/>
<path d="M394.164 267.154L391.665 265.867L396.655 263.285L399.145 264.572L394.164 267.154Z" fill="#E9EAF2"/>
<path d="M397.488 268.873L394.988 267.586L399.978 265.004L402.468 266.291L397.488 268.873Z" fill="#E9EAF2"/>
<path d="M293.131 243.515L281.661 237.57C280.069 236.74 280.272 235.32 282.105 234.373L292.686 228.893C293.624 228.421 294.673 228.154 295.747 228.114C296.822 228.073 297.892 228.261 298.87 228.661L310.34 234.597C311.923 235.428 311.729 236.856 309.896 237.802L299.315 243.282C298.376 243.752 297.327 244.017 296.254 244.058C295.18 244.098 294.11 243.912 293.131 243.515Z" fill="#E9EAF2"/>
<path d="M371.151 283.918L304.027 249.161C302.444 248.331 302.647 246.903 304.471 245.956L315.061 240.476C315.998 240.006 317.045 239.74 318.118 239.7C319.19 239.659 320.258 239.846 321.236 240.243L388.36 275.001C389.943 275.831 389.749 277.259 387.916 278.206L377.335 283.686C376.395 284.153 375.347 284.418 374.273 284.458C373.2 284.498 372.131 284.314 371.151 283.918Z" fill="#E9EAF2"/>
<path d="M269.895 255.546L258.425 249.601C256.842 248.771 257.037 247.351 258.87 246.404L269.451 240.924C270.389 240.452 271.437 240.185 272.512 240.145C273.586 240.105 274.656 240.292 275.635 240.692L287.104 246.604C288.687 247.434 288.493 248.862 286.66 249.809L276.079 255.289C275.142 255.762 274.095 256.032 273.021 256.077C271.947 256.122 270.876 255.94 269.895 255.546Z" fill="#E9EAF2"/>
<path d="M347.915 295.949L280.8 261.192C279.217 260.362 279.412 258.934 281.245 257.987L291.826 252.507C292.764 252.038 293.813 251.772 294.887 251.732C295.961 251.692 297.03 251.878 298.009 252.275L365.124 287.032C366.707 287.862 366.513 289.29 364.68 290.237L354.099 295.717C353.16 296.185 352.111 296.449 351.038 296.489C349.964 296.53 348.895 296.345 347.915 295.949Z" fill="#E9EAF2"/>
<g opacity="0.6">
<path opacity="0.6" d="M246.669 267.577L235.19 261.632C233.607 260.802 233.801 259.382 235.634 258.436L246.224 252.956C247.16 252.484 248.208 252.217 249.281 252.176C250.353 252.136 251.422 252.323 252.399 252.723L263.878 258.66C265.461 259.49 265.257 260.918 263.434 261.865L252.843 267.362C251.905 267.829 250.857 268.092 249.785 268.129C248.712 268.167 247.645 267.978 246.669 267.577Z" fill="#E9EAF2"/>
<path opacity="0.6" d="M324.689 307.981L257.564 273.224C255.981 272.393 256.176 270.965 258.009 270.019L268.59 264.539C269.529 264.069 270.577 263.804 271.651 263.763C272.725 263.723 273.794 263.909 274.774 264.306L341.898 299.063C343.481 299.893 343.277 301.322 341.454 302.268L330.863 307.748C329.925 308.216 328.879 308.48 327.807 308.52C326.735 308.561 325.667 308.376 324.689 307.981Z" fill="#E9EAF2"/>
</g>
<path d="M223.433 279.609L211.991 273.664C210.408 272.834 210.612 271.414 212.435 270.467L223.026 264.979C223.963 264.51 225.011 264.246 226.083 264.207C227.156 264.168 228.223 264.355 229.2 264.755L240.688 270.683C242.271 271.513 242.077 272.941 240.244 273.888L229.58 279.376C228.646 279.842 227.604 280.106 226.537 280.146C225.47 280.187 224.407 280.003 223.433 279.609Z" fill="#E9EAF2"/>
<path d="M301.453 320.012L234.329 285.255C232.746 284.425 232.949 282.996 234.773 282.05L245.363 276.57C246.3 276.1 247.347 275.834 248.42 275.793C249.492 275.753 250.56 275.939 251.538 276.337L318.662 311.094C320.245 311.925 320.042 313.353 318.218 314.299L307.628 319.779C306.69 320.247 305.643 320.511 304.571 320.552C303.499 320.592 302.431 320.407 301.453 320.012Z" fill="#E9EAF2"/>
<path d="M200.197 291.64L188.727 285.695C187.144 284.865 187.339 283.445 189.172 282.498L199.753 277.01C200.692 276.541 201.741 276.277 202.815 276.238C203.889 276.199 204.958 276.386 205.937 276.786L217.406 282.722C218.989 283.553 218.795 284.981 216.962 285.927L206.381 291.441C205.439 291.905 204.389 292.165 203.316 292.199C202.242 292.234 201.174 292.042 200.197 291.64Z" fill="#E9EAF2"/>
<path d="M278.217 332.043L211.065 297.253C209.482 296.423 209.686 294.995 211.51 294.048L222.1 288.568C223.038 288.098 224.087 287.832 225.161 287.792C226.235 287.751 227.305 287.937 228.284 288.335L295.399 323.092C296.982 323.923 296.787 325.351 294.954 326.297L284.373 331.778C283.44 332.246 282.399 332.514 281.33 332.56C280.262 332.607 279.196 332.43 278.217 332.043Z" fill="#E9EAF2"/>
<g opacity="0.6">
<path opacity="0.6" d="M176.962 303.671L165.492 297.726C163.909 296.896 164.103 295.476 165.936 294.529L176.517 289.041C177.457 288.572 178.505 288.308 179.579 288.269C180.653 288.23 181.723 288.418 182.701 288.817L194.171 294.762C195.763 295.592 195.559 297.02 193.726 297.967L183.145 303.447C182.206 303.915 181.157 304.179 180.083 304.218C179.009 304.257 177.94 304.07 176.962 303.671Z" fill="#E9EAF2"/>
<path opacity="0.6" d="M254.982 344.074L187.867 309.317C186.284 308.487 186.478 307.059 188.311 306.112L198.892 300.632C199.831 300.163 200.879 299.897 201.953 299.857C203.027 299.817 204.097 300.003 205.076 300.4L272.163 335.157C273.746 335.987 273.552 337.415 271.719 338.362L261.138 343.842C260.202 344.306 259.158 344.568 258.09 344.608C257.022 344.648 255.958 344.466 254.982 344.074Z" fill="#E9EAF2"/>
</g>
<path d="M153.735 315.702L142.256 309.757C140.673 308.927 140.877 307.507 142.701 306.561L153.291 301.072C154.228 300.604 155.276 300.339 156.348 300.3C157.421 300.261 158.489 300.449 159.465 300.848L170.944 306.785C172.527 307.615 172.324 309.043 170.5 309.99L159.91 315.47C158.973 315.94 157.926 316.206 156.853 316.246C155.781 316.287 154.713 316.1 153.735 315.702Z" fill="#E9EAF2"/>
<path d="M231.755 356.106L164.631 321.332C163.048 320.502 163.242 319.074 165.075 318.127L175.656 312.647C176.595 312.178 177.644 311.912 178.717 311.872C179.791 311.831 180.861 312.017 181.84 312.415L248.964 347.171C250.547 348.002 250.344 349.43 248.52 350.377L237.911 355.873C236.976 356.338 235.932 356.601 234.864 356.641C233.795 356.682 232.731 356.498 231.755 356.106Z" fill="#E9EAF2"/>
<g opacity="0.6">
<path opacity="0.6" d="M130.527 327.734L119.048 321.789C117.465 320.958 117.669 319.539 119.493 318.592L130.083 313.104C131.022 312.635 132.071 312.37 133.145 312.331C134.219 312.293 135.288 312.48 136.267 312.879L147.709 318.841C149.292 319.671 149.097 321.1 147.264 322.046L136.674 327.526C135.738 327.988 134.695 328.248 133.628 328.284C132.561 328.32 131.499 328.131 130.527 327.734Z" fill="#E9EAF2"/>
<path opacity="0.6" d="M208.52 368.137L141.395 333.38C139.812 332.55 140.016 331.121 141.84 330.175L152.43 324.695C153.367 324.225 154.414 323.959 155.486 323.918C156.559 323.878 157.627 324.064 158.604 324.462L225.729 359.219C227.312 360.05 227.117 361.478 225.284 362.424L214.694 367.904C213.756 368.372 212.71 368.636 211.638 368.677C210.565 368.717 209.498 368.532 208.52 368.137Z" fill="#E9EAF2"/>
</g>
<g opacity="0.6">
<path opacity="0.6" d="M107.264 339.765L95.794 333.787C94.211 332.957 94.4054 331.537 96.2383 330.59L106.819 325.102C107.759 324.633 108.808 324.369 109.882 324.33C110.956 324.291 112.025 324.478 113.003 324.878L124.473 330.814C126.056 331.645 125.862 333.073 124.029 334.019L113.448 339.5C112.512 339.974 111.465 340.246 110.391 340.292C109.317 340.338 108.246 340.158 107.264 339.765Z" fill="#E9EAF2"/>
<path opacity="0.6" d="M185.284 380.168L118.169 345.411C116.576 344.581 116.78 343.161 118.604 342.215L129.194 336.735C130.133 336.265 131.181 335.999 132.255 335.958C133.329 335.918 134.399 336.104 135.378 336.502L202.493 371.259C204.076 372.089 203.882 373.518 202.049 374.464L191.468 379.944C190.527 380.41 189.479 380.674 188.405 380.712C187.332 380.751 186.263 380.565 185.284 380.168Z" fill="#E9EAF2"/>
</g>
<path d="M66.3467 153.658V194.676C66.3457 194.959 66.2893 195.24 66.1801 195.506C66.1205 195.676 66.043 195.84 65.9487 195.996C65.6718 196.494 65.2495 196.916 64.7267 197.217L3.16601 229.101C2.99302 229.22 2.78417 229.29 2.56638 229.302C2.34859 229.314 2.13183 229.267 1.94405 229.167C1.83721 229.095 1.75144 229.001 1.6941 228.893C1.59046 228.696 1.53973 228.48 1.54599 228.262V187.244C1.54699 186.962 1.59696 186.682 1.6941 186.414C1.76076 186.238 1.84119 186.066 1.93479 185.899C2.21793 185.402 2.64272 184.981 3.16601 184.679L64.7082 152.778C64.884 152.66 65.0956 152.591 65.3152 152.583C65.5349 152.574 65.7524 152.624 65.9394 152.728C66.0414 152.801 66.1264 152.891 66.1894 152.994C66.3009 153.201 66.3549 153.429 66.3467 153.658Z" fill="#DDB545"/>
<path d="M2.06439 229.2L4.43425 230.371L4.58236 226.601L2.06439 229.2Z" fill="#DDB545"/>
<path d="M65.7728 152.678L68.3277 153.932L64.7267 157.801L65.7728 152.678Z" fill="#DDB545"/>
<path d="M68.7351 154.837V195.855C68.7293 196.138 68.6731 196.418 68.5684 196.685C68.5048 196.853 68.4275 197.017 68.337 197.175C68.0602 197.673 67.6379 198.095 67.115 198.396L5.55433 230.263C5.37944 230.38 5.16962 230.447 4.95185 230.456C4.73409 230.465 4.51834 230.415 4.33237 230.313C4.22784 230.242 4.14241 230.152 4.08242 230.047C3.97209 229.852 3.91799 229.635 3.92505 229.416V188.399C3.92458 188.116 3.9778 187.835 4.08242 187.568C4.3468 186.867 4.86486 186.265 5.55433 185.858L67.0965 153.99C67.271 153.873 67.4802 153.805 67.6977 153.795C67.9152 153.785 68.1312 153.832 68.3185 153.932C68.4253 154.004 68.5111 154.098 68.5684 154.206C68.682 154.401 68.7393 154.618 68.7351 154.837Z" fill="#FFD44D"/>
<path opacity="0.12" d="M4.19357 230.462L36.3255 191.961L68.4019 197.042V201.111L3.92511 234.498L4.19357 230.462Z" fill="black"/>
<path opacity="0.05" d="M36.3254 191.961L4.25833 187.211L1.30527 186.365L0 233.144L4.33239 230.313L36.3254 191.961Z" fill="black"/>
<path opacity="0.05" d="M36.3254 191.961L68.4018 153.99L71.3549 150.096L72.6601 195.514L68.4018 197.042L36.3254 191.961Z" fill="black"/>
<path d="M461.613 51.6706V99.696C461.605 100.024 461.539 100.349 461.418 100.659C461.341 100.854 461.251 101.046 461.15 101.232C460.825 101.816 460.329 102.31 459.715 102.66L387.629 140.024C387.423 140.16 387.176 140.238 386.921 140.248C386.666 140.258 386.413 140.201 386.194 140.083C386.07 139.999 385.968 139.891 385.898 139.767C385.774 139.537 385.714 139.283 385.722 139.028V90.9611C385.726 90.6441 385.789 90.33 385.907 90.0312C385.982 89.8257 386.075 89.6258 386.185 89.4333C386.51 88.845 387.01 88.3481 387.629 87.9969L459.696 50.6493C459.901 50.5105 460.147 50.4299 460.402 50.418C460.658 50.4062 460.912 50.4636 461.131 50.5829C461.258 50.664 461.36 50.7726 461.428 50.8984C461.558 51.1387 461.621 51.4036 461.613 51.6706Z" fill="#DDB545"/>
<path d="M386.333 140.124L389.11 141.494L389.286 137.077L386.333 140.124Z" fill="#DDB545"/>
<path d="M460.937 50.5081L463.936 51.986L459.715 56.5112L460.937 50.5081Z" fill="#DDB545"/>
<path d="M464.408 53.0489V101.074C464.401 101.403 464.335 101.728 464.214 102.037C464.136 102.233 464.047 102.424 463.946 102.61C463.615 103.191 463.121 103.684 462.511 104.039L390.425 141.403C390.219 141.539 389.973 141.618 389.717 141.628C389.461 141.638 389.208 141.58 388.99 141.461C388.863 141.38 388.761 141.271 388.693 141.145C388.57 140.915 388.509 140.662 388.518 140.406V92.3394C388.522 92.0224 388.585 91.7083 388.703 91.4094C388.774 91.2027 388.867 91.0025 388.98 90.8116C389.306 90.2232 389.806 89.7263 390.425 89.3752L462.492 52.0525C462.698 51.914 462.946 51.8337 463.203 51.8218C463.46 51.81 463.716 51.8672 463.936 51.9861C464.061 52.0696 464.162 52.1775 464.233 52.3016C464.355 52.535 464.415 52.7909 464.408 53.0489Z" fill="#FFD44D"/>
<path opacity="0.12" d="M388.814 141.594L426.463 96.5076L464.02 102.461V107.227L388.518 146.326L388.814 141.594Z" fill="black"/>
<path opacity="0.05" d="M426.463 96.5077L388.906 90.9529L385.453 89.9565L383.917 144.741L388.99 141.428L426.463 96.5077Z" fill="black"/>
<path opacity="0.05" d="M426.463 96.5077L464.02 52.0526L467.473 47.4858L469 100.676L464.02 102.461L426.463 96.5077Z" fill="black"/>
<path d="M304.138 37.1816C304.031 36.9449 303.851 36.7405 303.619 36.5921C303.155 36.3751 302.655 36.2265 302.138 36.152L223.961 16.0002L145.783 117.124C145.236 117.669 144.77 118.275 144.395 118.926C144.156 119.334 143.954 119.759 143.793 120.197C143.553 120.836 143.424 121.506 143.413 122.181V224.185C143.4 224.73 143.527 225.269 143.784 225.763C143.934 226.025 144.149 226.252 144.413 226.427C144.875 226.682 145.411 226.806 145.953 226.784C146.494 226.762 147.016 226.594 147.449 226.303L300.481 147.057C302.177 146.037 303.45 144.542 304.101 142.806C304.362 142.147 304.5 141.454 304.508 140.755V38.7509C304.522 38.2091 304.395 37.6718 304.138 37.1816Z" fill="#DDB545"/>
<path d="M303.406 36.4758L308.211 39.0332L301.499 43.4505L303.406 36.4758Z" fill="#CEB95F"/>
<path d="M149.329 229.042L144.413 226.385L151.995 221.487L149.329 229.042Z" fill="#DDB545"/>
<path d="M223.961 16.0002L228.654 18.5327L308.211 39.0249L304.258 36.9242C302.731 36.3275 301.152 35.8443 299.537 35.4794L223.961 16.0002Z" fill="#C19B3D"/>
<path d="M309.192 41.2833V143.246C309.18 143.942 309.042 144.632 308.785 145.289C308.625 145.705 308.43 146.111 308.202 146.501C307.515 147.742 306.465 148.792 305.165 149.54L152.152 228.785C151.718 229.08 151.196 229.25 150.652 229.273C150.109 229.297 149.57 229.173 149.106 228.918C148.845 228.739 148.633 228.509 148.486 228.245C148.226 227.756 148.099 227.218 148.116 226.676V124.705C148.127 124.03 148.255 123.36 148.495 122.721C148.659 122.284 148.86 121.859 149.097 121.45C149.789 120.203 150.849 119.149 152.161 118.403L305.137 39.1743L302.527 40.7851C303.749 40.1623 307.47 38.5349 308.211 39.0331C308.472 39.212 308.684 39.442 308.831 39.7057C309.09 40.1982 309.214 40.7391 309.192 41.2833Z" fill="#FFD44D"/>
<path opacity="0.12" d="M149.106 228.918L228.654 133.556L308.396 146.194V156.307L148.107 239.305L149.106 228.918Z" fill="black"/>
<path opacity="0.05" d="M228.654 133.556L148.921 121.757L141.599 119.648L138.34 235.942L149.107 228.918L228.654 133.556Z" fill="black"/>
<path opacity="0.05" d="M228.487 133.423L308.22 39.0496L315.543 29.3599L318.801 142.274L308.22 146.061L228.487 133.423Z" fill="black"/>
<path d="M149.088 121.45L228.654 18.5327L308.211 39.0332L228.654 133.556L149.088 121.45Z" fill="#FFD44D"/>
<path opacity="0.3" d="M308.211 39.0332L290.206 60.4304L228.654 133.556L167.112 124.19L149.088 121.45L167.112 98.1351L211.454 40.7769L228.654 18.5327L245.854 22.9666L290.206 34.4L308.211 39.0332Z" fill="black"/>
<path d="M290.205 0V60.4304L228.654 133.556L167.112 124.19V63.7433L290.205 0Z" fill="#FAFBFF"/>
<path d="M208.047 90.2968L177.674 106.023V74.5706L208.047 58.8362V90.2968Z" fill="#E9EAF2"/>
<path d="M243.845 71.7558L213.472 87.4903V56.0296L243.845 40.2952V71.7558Z" fill="#E9EAF2"/>
<path d="M279.643 53.2231L249.261 68.9576V37.4969L279.643 21.7625V53.2231Z" fill="#E9EAF2"/>
<path d="M279.643 66.284L177.674 119.084V113.612L279.643 60.804V66.284Z" fill="#E9EAF2"/>
<path d="M264.452 80.4658V85.9459L185.673 126.739L177.665 126.009V125.411L264.452 80.4658Z" fill="#E9EAF2"/>
<path d="M249.261 99.2891V104.769L202.817 128.815L193.227 128.309L249.261 99.2891Z" fill="#E9EAF2"/>
<path d="M241.272 115.223V118.569L238.087 122.347L219.175 132.145L210.945 130.932L241.272 115.223Z" fill="#E9EAF2"/>
<defs>
<linearGradient id="paint0_linear" x1="243.688" y1="392.208" x2="243.688" y2="216.09" gradientUnits="userSpaceOnUse">
<stop offset="0.21" stop-color="white" stop-opacity="0"/>
<stop offset="1" stop-color="white" stop-opacity="0.2"/>
</linearGradient>
</defs>
</svg>
