<svg width="248" height="233" viewBox="0 0 248 233" fill="none" xmlns="http://www.w3.org/2000/svg">
<g clip-path="url(#clip0)">
<path opacity="0.4" d="M96.8317 130.149L76.8181 120.885L98.288 110.894L118.302 120.158L96.8317 130.149Z" fill="#D6D8E5"/>
<path d="M99.074 109.347L77.6098 99.3512L99.074 89.3555L120.544 99.3512L99.074 109.347Z" fill="#EFDA86"/>
<path d="M119.093 119.781L99.074 129.101V110.461L119.093 101.145V119.781Z" fill="#D1B66B"/>
<path d="M99.074 129.101L79.0604 119.781V101.145L99.074 110.461V129.101Z" fill="#E2C979"/>
<path opacity="0.1" d="M79.0604 101.145V106.02L99.074 115.232V110.484L79.0604 101.145Z" fill="black"/>
<path opacity="0.1" d="M119.093 101.145V106.369L99.074 115.232V110.484L119.093 101.145Z" fill="black"/>
<path d="M77.6098 99.3513V104.519L99.074 114.38V109.347L77.6098 99.3513Z" fill="#E2C979"/>
<path d="M99.074 114.38L120.544 104.925V99.3513L99.074 109.347V114.38Z" fill="#D1B66B"/>
<path opacity="0.4" d="M177.424 172.42L113.435 142.708C113.069 142.536 112.766 142.289 112.559 141.991C112.352 141.693 112.248 141.355 112.258 141.014C112.268 140.672 112.392 140.339 112.616 140.049C112.841 139.76 113.158 139.524 113.534 139.367L121.584 136.021C121.936 135.876 122.326 135.804 122.721 135.811C123.115 135.818 123.501 135.905 123.844 136.063L189.988 166.772C190.356 166.942 190.66 167.19 190.869 167.488C191.077 167.786 191.182 168.124 191.172 168.466C191.161 168.808 191.037 169.142 190.811 169.432C190.586 169.722 190.267 169.957 189.889 170.113L184.047 172.541C183.019 172.971 181.873 173.184 180.716 173.163C179.558 173.142 178.426 172.887 177.424 172.42Z" fill="#D6D8E5"/>
<path d="M181.353 166.828L126.82 141.44C122.197 139.292 118.458 133.518 118.458 128.555V5.90881C118.475 0.931925 122.203 -1.34215 126.82 0.810766L181.353 26.1938C185.977 28.3467 189.716 34.1158 189.716 39.0787V161.73C189.716 166.697 185.971 168.976 181.353 166.828Z" fill="#B1B4C4"/>
<path d="M182.29 169.037L186.607 167.275L182.463 161.548L182.29 169.037Z" fill="#B1B4C4"/>
<path d="M117.614 2.03187L121.59 0.349609L120.787 5.07951L117.614 2.03187Z" fill="#B1B4C4"/>
<path d="M177.874 168.226L123.347 142.838C118.724 140.69 114.984 134.916 114.984 129.953V7.31155C115.007 2.33001 118.729 0.0605932 123.347 2.20885L177.874 27.5965C182.498 29.7495 186.243 35.5185 186.243 40.4814V163.133C186.243 168.096 182.498 170.379 177.874 168.226Z" fill="#616E84"/>
<path d="M185.659 40.7938V163.44C185.659 168.413 181.92 170.691 177.296 168.543L155.913 158.589L149.261 155.49L122.763 143.155C118.14 141.002 114.406 135.233 114.406 130.27V7.62392C114.43 2.65169 118.146 0.372954 122.763 2.52121L177.296 27.9089C181.92 30.0618 185.659 35.8262 185.659 40.7938Z" fill="#20232D"/>
<path d="M181.723 39.5494V159.004C181.723 162.014 179.105 163.235 175.881 161.725L172.991 160.374L163.085 155.765L158.826 153.78L157.323 153.076L156.82 152.839L153.151 151.138L142.488 146.18L138.096 144.134L136.316 143.304L125.682 138.355L124.231 137.68C120.995 136.175 118.383 132.516 118.383 129.501V10.0377C118.383 7.02729 120.995 5.80637 124.231 7.31155L145.476 17.242V17.2886C145.561 18.5636 146.018 19.8044 146.809 20.9104C147.6 22.0164 148.704 22.9564 150.03 23.6542C152.55 24.8192 154.59 23.8732 154.59 21.5339C154.59 21.5339 154.59 21.4966 154.59 21.4826L175.886 31.3944C179.105 32.881 181.723 36.5391 181.723 39.5494Z" fill="white"/>
<path d="M151.849 22.4929C152.526 22.1789 152.528 21.1566 151.853 20.2095C151.178 19.2624 150.082 18.7491 149.404 19.0631C148.726 19.3771 148.724 20.3994 149.399 21.3465C150.075 22.2936 151.171 22.8069 151.849 22.4929Z" fill="#2B303F"/>
<path opacity="0.1" d="M150.03 21.3662C149.819 21.2552 149.644 21.1059 149.519 20.9302C149.393 20.7545 149.321 20.5574 149.307 20.355C149.307 19.9822 149.631 19.8331 150.03 20.0195C150.242 20.1293 150.419 20.2784 150.545 20.4542C150.672 20.63 150.745 20.8276 150.758 21.0307C150.758 21.4035 150.434 21.5526 150.03 21.3662Z" fill="white"/>
<path d="M187.872 56.9314C187.427 57.1411 187.069 56.9314 187.069 56.4654V51.2136C187.073 50.9706 187.148 50.7318 187.287 50.5164C187.427 50.3011 187.627 50.1153 187.872 49.974C188.317 49.7643 188.676 49.974 188.676 50.4633V55.6919C188.672 55.9348 188.597 56.1737 188.458 56.389C188.318 56.6044 188.118 56.7902 187.872 56.9314Z" fill="#757B89"/>
<path d="M187.872 65.5009C187.427 65.706 187.069 65.5009 187.069 65.0116V59.7784C187.074 59.5357 187.15 59.2972 187.289 59.082C187.428 58.8669 187.628 58.6809 187.872 58.5389C188.317 58.3338 188.676 58.5389 188.676 59.0328V64.2614C188.672 64.5042 188.597 64.743 188.457 64.9582C188.318 65.1735 188.117 65.3594 187.872 65.5009Z" fill="#757B89"/>
<path d="M169.818 80.3896L128.785 61.2836C127.051 60.4727 125.63 58.2965 125.63 56.4185V19.1385C125.63 17.2745 127.04 16.4031 128.785 17.214L169.818 36.32C171.552 37.1308 172.974 39.307 172.974 41.1803V78.4603C172.974 80.3383 171.563 81.2004 169.818 80.3896Z" fill="#E9EAF2"/>
<path d="M169.818 130.275L128.785 111.169C127.051 110.358 125.63 108.182 125.63 106.309V69.0287C125.63 67.1647 127.04 66.2933 128.785 67.1041L169.818 86.2101C171.552 87.0209 172.974 89.1972 172.974 91.0751V128.355C172.974 130.224 171.563 131.086 169.818 130.275Z" fill="#E9EAF2"/>
<path d="M172.979 140.946V160.374L158.826 153.78L157.323 153.076L156.82 152.839L153.151 151.138L142.488 146.18L138.067 144.125L136.287 143.295L125.653 138.346V118.914C125.653 117.05 127.069 116.183 128.808 116.994L169.841 136.1C171.563 136.897 172.979 139.073 172.979 140.946Z" fill="#E9EAF2"/>
<path d="M161.652 49.6151L156.04 41.7723C155.827 41.4603 155.519 41.1973 155.144 41.008C155.095 40.9841 155.043 40.9638 154.988 40.9475C154.937 40.9163 154.883 40.8882 154.827 40.8636L153.266 40.1366C152.839 39.9362 152.44 39.9502 152.209 40.1786C151.712 40.6446 150.59 40.6026 149.354 40.0248C148.108 39.4443 147.112 38.5713 146.499 37.5224C146.288 37.0969 145.916 36.7363 145.435 36.4925L143.904 35.7702C143.854 35.7448 143.802 35.723 143.748 35.705C143.609 35.6007 143.436 35.5308 143.25 35.5035C143.063 35.4762 142.871 35.4928 142.696 35.5512L137.084 38.1654C136.587 38.3984 136.587 39.1394 137.084 39.8291L140.153 44.1163C140.357 44.4246 140.653 44.6872 141.014 44.8805C141.143 44.9544 141.293 44.9998 141.45 45.012C141.608 45.0243 141.766 45.003 141.91 44.9504L142.615 44.6195V55.1045C142.646 55.4567 142.779 55.798 143.003 56.1015C143.226 56.4049 143.535 56.6619 143.904 56.852L154.827 61.978C155.526 62.3042 156.086 62.0386 156.086 61.3909V50.9059L156.797 51.8938C157.008 52.2045 157.315 52.4661 157.687 52.6534C157.816 52.7273 157.966 52.7726 158.124 52.7849C158.281 52.7972 158.439 52.7759 158.583 52.7233L161.652 51.2927C162.143 51.0457 162.143 50.328 161.652 49.6151Z" fill="#D9DAE2"/>
<path d="M159.277 97.5152L139.425 88.2744C138.9 89.6474 138.622 91.0738 138.598 92.5104V102.52L147.695 106.756L149.354 99.0577L151.007 108.298L160.086 112.534V102.52C160.042 100.833 159.77 99.1549 159.277 97.5152Z" fill="#D9DAE2"/>
<path d="M159.277 94.4349L139.425 85.1941V87.5054L159.277 96.7462V94.4349Z" fill="#D9DAE2"/>
<path d="M163.074 155.765L158.826 153.78L157.323 153.076L156.82 152.839L153.151 151.138L142.488 146.18L138.096 144.134V139.213C138.096 138.724 138.518 138.523 139.049 138.747C139.459 138.97 139.762 139.299 139.91 139.679L140.089 140.145C140.692 141.667 141.93 142.974 143.592 143.845C145.713 144.833 147.446 144.027 147.446 142.046V141.45C147.446 140.844 147.978 140.588 148.602 140.895C148.91 141.048 149.17 141.257 149.359 141.506L151.053 143.598L149.146 144.46L150.203 145.923L152.203 144.991L153.07 146.068L151.249 146.916L152.295 148.384L154.22 147.489L155.087 148.566L153.353 149.376L154.399 150.844L156.243 149.987C157.317 151.262 158.713 152.341 160.34 153.151L160.675 153.3C161.788 153.888 162.631 154.754 163.074 155.765Z" fill="#D9DAE2"/>
<path opacity="0.1" d="M176.505 46.0688L125.271 22.368V7.73096L176.505 31.4271V46.0688Z" fill="black"/>
<path d="M114.718 21.1191L108.408 18.1786L125.451 7.89868L131.762 10.8345L114.718 21.1191Z" fill="#E26161"/>
<path d="M121.035 24.0549L114.719 21.1191L131.762 10.8345L138.073 13.7749L121.035 24.0549Z" fill="#F4F5F9"/>
<path d="M127.346 26.9953L121.035 24.0549L138.072 13.7749L144.383 16.7107L127.346 26.9953Z" fill="#E26161"/>
<path d="M133.657 29.9311L127.346 26.9953L144.383 16.7107L150.694 19.6512L133.657 29.9311Z" fill="#F4F5F9"/>
<path d="M139.968 32.8715L133.657 29.9311L150.694 19.6511L157.005 22.5869L139.968 32.8715Z" fill="#E26161"/>
<path d="M146.279 35.8076L139.968 32.8718L157.005 22.5872L163.316 25.5276L146.279 35.8076Z" fill="#F4F5F9"/>
<path d="M152.59 38.748L146.279 35.8076L163.316 25.5276L169.627 28.4634L152.59 38.748Z" fill="#E26161"/>
<path d="M158.901 41.6838L152.59 38.748L169.627 28.4634L175.944 31.4038L158.901 41.6838Z" fill="#F4F5F9"/>
<path d="M111.609 22.5497C113.343 23.3606 114.765 22.7035 114.765 21.0818L108.454 18.1414C108.514 19.0243 108.831 19.8834 109.379 20.6492C109.927 21.4151 110.691 22.0661 111.609 22.5497Z" fill="#E26161"/>
<path d="M117.926 25.4855C119.66 26.301 121.081 25.6393 121.081 24.0176L114.765 21.0818C114.825 21.9646 115.143 22.8235 115.692 23.5886C116.241 24.3538 117.007 25.0037 117.926 25.4855Z" fill="#F4F5F9"/>
<path d="M124.254 28.4259C125.988 29.2368 127.41 28.5797 127.41 26.958L121.099 24.0176C121.157 24.9008 121.474 25.7603 122.022 26.5263C122.57 27.2923 123.335 27.9432 124.254 28.4259Z" fill="#E26161"/>
<path d="M130.548 31.3664C132.282 32.1772 133.703 31.5155 133.703 29.8938L127.392 26.958C127.452 27.841 127.769 28.7003 128.317 29.4662C128.865 30.2321 129.63 30.8831 130.548 31.3664Z" fill="#F4F5F9"/>
<path d="M136.859 34.3024C138.593 35.1132 140.014 34.4562 140.014 32.8345L133.703 29.894C133.762 30.7772 134.078 31.6368 134.627 32.4028C135.175 33.1688 135.94 33.8196 136.859 34.3024Z" fill="#E26161"/>
<path d="M143.17 37.2428C144.904 38.0537 146.325 37.3966 146.325 35.7703L140.014 32.8345C140.074 33.7175 140.391 34.5767 140.939 35.3426C141.487 36.1085 142.251 36.7595 143.17 37.2428Z" fill="#F4F5F9"/>
<path d="M149.481 40.1786C151.215 40.9895 152.636 40.3324 152.636 38.7107L146.325 35.7703C146.381 36.654 146.696 37.5143 147.245 38.2807C147.794 39.0471 148.56 39.6975 149.481 40.1786Z" fill="#E26161"/>
<path d="M155.792 43.119C157.526 43.9299 158.947 43.2728 158.947 41.6465L152.636 38.7107C152.696 39.5937 153.013 40.453 153.561 41.2189C154.109 41.9848 154.873 42.6357 155.792 43.119Z" fill="#F4F5F9"/>
<g opacity="0.15">
<path opacity="0.15" d="M111.609 22.5497C113.343 23.3606 114.765 22.7035 114.765 21.0818L108.454 18.1414C108.514 19.0243 108.831 19.8834 109.379 20.6492C109.927 21.4151 110.691 22.0661 111.609 22.5497Z" fill="black"/>
<path opacity="0.15" d="M117.926 25.4855C119.66 26.301 121.081 25.6393 121.081 24.0176L114.765 21.0818C114.825 21.9646 115.143 22.8235 115.692 23.5886C116.241 24.3538 117.007 25.0037 117.926 25.4855Z" fill="black"/>
<path opacity="0.15" d="M124.254 28.4259C125.988 29.2368 127.41 28.5797 127.41 26.958L121.099 24.0176C121.157 24.9008 121.474 25.7603 122.022 26.5263C122.57 27.2923 123.335 27.9432 124.254 28.4259Z" fill="black"/>
<path opacity="0.15" d="M130.548 31.3664C132.282 32.1772 133.703 31.5155 133.703 29.8938L127.392 26.958C127.452 27.841 127.769 28.7003 128.317 29.4662C128.865 30.2321 129.629 30.8831 130.548 31.3664Z" fill="black"/>
<path opacity="0.15" d="M136.859 34.3024C138.593 35.1133 140.014 34.4562 140.014 32.8345L133.703 29.894C133.762 30.7772 134.078 31.6368 134.627 32.4028C135.175 33.1688 135.94 33.8196 136.859 34.3024Z" fill="black"/>
<path opacity="0.15" d="M143.17 37.2428C144.904 38.0537 146.325 37.3966 146.325 35.7703L140.014 32.8345C140.074 33.7175 140.391 34.5767 140.939 35.3426C141.487 36.1085 142.251 36.7595 143.17 37.2428Z" fill="black"/>
<path opacity="0.15" d="M149.481 40.1786C151.215 40.9895 152.636 40.3324 152.636 38.7107L146.325 35.7703C146.381 36.654 146.696 37.5143 147.245 38.2807C147.794 39.0471 148.56 39.6975 149.481 40.1786Z" fill="black"/>
<path opacity="0.15" d="M155.792 43.1191C157.526 43.9299 158.947 43.2728 158.947 41.6465L152.636 38.7107C152.696 39.5937 153.013 40.453 153.561 41.2189C154.109 41.9848 154.873 42.6357 155.792 43.1191Z" fill="black"/>
</g>
<path opacity="0.4" d="M220.063 183.842L197.241 173.217L200.101 171.879L222.93 182.5L220.063 183.842Z" fill="#D6D8E5"/>
<path d="M228.882 179.834L205.967 169.163L208.834 148.09L226.021 156.091L228.882 179.834Z" fill="#C65555"/>
<path d="M222.93 182.499L200.009 171.833L202.875 150.76L220.063 158.761L222.93 182.499Z" fill="#FF6C6C"/>
<path d="M222.93 182.5L228.882 179.834L226.021 156.092L220.063 158.762L222.93 182.5Z" fill="#DD6262"/>
<path d="M202.876 150.76L208.834 148.09L208.135 153.207L202.876 150.76Z" fill="#C65555"/>
<path d="M215.763 156.711L214.706 156.217C214.706 154.227 213.255 151.935 211.469 151.091C209.683 150.248 208.239 151.203 208.239 153.193L207.175 152.699C207.175 150.169 209.106 149.004 211.469 150.103C213.833 151.203 215.763 154.181 215.763 156.711Z" fill="#20232D"/>
<path d="M221.346 153.957L220.288 153.463C220.288 151.473 218.838 149.181 217.052 148.337C215.266 147.494 213.821 148.449 213.821 150.439L212.758 149.945C212.758 147.414 214.688 146.249 217.052 147.349C219.416 148.449 221.346 151.45 221.346 153.957Z" fill="#20232D"/>
<path opacity="0.4" d="M199.535 197.318L166.651 182.02L170.777 180.086L203.661 195.389L199.535 197.318Z" fill="#D6D8E5"/>
<path d="M212.238 191.544L179.227 176.176L183.353 145.821L208.111 157.349L212.238 191.544Z" fill="#C65555"/>
<path d="M203.661 195.389L170.645 180.02L174.771 149.665L199.535 161.189L203.661 195.389Z" fill="#FF6C6C"/>
<path d="M203.661 195.389L212.238 191.545L208.111 157.35L199.535 161.189L203.661 195.389Z" fill="#DD6262"/>
<path d="M174.771 149.665L183.353 145.821L182.347 153.193L174.771 149.665Z" fill="#C65555"/>
<path d="M193.34 158.24L191.814 157.508C191.814 154.642 189.722 151.338 187.156 150.145C184.59 148.952 182.492 150.304 182.492 153.17L180.966 152.461C180.966 148.813 183.74 147.135 187.156 148.733C190.571 150.332 193.34 154.591 193.34 158.24Z" fill="#20232D"/>
<path d="M201.39 154.274L199.865 153.561C199.865 150.695 197.772 147.391 195.206 146.194C192.64 144.996 190.543 146.357 190.543 149.223L189.017 148.514C189.017 144.861 191.797 143.188 195.206 144.786C198.616 146.385 201.39 150.621 201.39 154.274Z" fill="#20232D"/>
<path opacity="0.4" d="M63.2657 130.76L50.9096 125.042L64.7856 118.583L77.1359 124.305L63.2657 130.76Z" fill="#D6D8E5"/>
<path d="M65.2711 117.632L52.0192 111.463L65.2711 105.293L78.5229 111.463L65.2711 117.632Z" fill="#EFDA86"/>
<path d="M77.6271 124.072L65.2711 129.823V118.317L77.6271 112.567V124.072Z" fill="#D1B66B"/>
<path d="M65.271 129.823L52.915 124.072V112.567L65.271 118.317V129.823Z" fill="#E2C979"/>
<path opacity="0.1" d="M52.915 112.567V115.577L65.271 121.262V118.331L52.915 112.567Z" fill="black"/>
<path opacity="0.1" d="M77.6271 112.567V115.792L65.2711 121.262V118.331L77.6271 112.567Z" fill="black"/>
<path d="M52.0192 111.463V114.65L65.2711 120.736V117.632L52.0192 111.463Z" fill="#E2C979"/>
<path d="M65.2711 120.736L78.5229 114.902V111.463L65.2711 117.632V120.736Z" fill="#D1B66B"/>
<path opacity="0.4" d="M224.958 196.801L213.804 191.642L226.357 185.799L237.511 190.962L224.958 196.801Z" fill="#D6D8E5"/>
<path d="M226.796 184.937L214.833 179.368L226.796 173.799L238.759 179.368L226.796 184.937Z" fill="#EFDA86"/>
<path d="M237.95 190.752L226.796 195.944V185.556L237.95 180.365V190.752Z" fill="#D1B66B"/>
<path d="M226.796 195.944L215.642 190.752V180.365L226.796 185.556V195.944Z" fill="#E2C979"/>
<path opacity="0.1" d="M215.642 180.365V183.082L226.796 188.217V185.57L215.642 180.365Z" fill="black"/>
<path opacity="0.1" d="M237.95 180.365V183.278L226.796 188.217V185.57L237.95 180.365Z" fill="black"/>
<path d="M214.833 179.368V182.248L226.796 187.742V184.937L214.833 179.368Z" fill="#E2C979"/>
<path d="M226.796 187.742L238.759 182.472V179.368L226.796 184.937V187.742Z" fill="#D1B66B"/>
<path opacity="0.4" d="M93.26 146.1L69.513 135.052L72.4951 133.658L96.2422 144.707L93.26 146.1Z" fill="#D6D8E5"/>
<path d="M102.438 141.93L78.5923 130.83L81.5744 108.909L99.4554 117.236L102.438 141.93Z" fill="#C65555"/>
<path d="M96.2422 144.707L72.3969 133.607L75.379 111.686L93.2601 120.009L96.2422 144.707Z" fill="#FF6C6C"/>
<path d="M96.2421 144.707L102.438 141.93L99.4554 117.236L93.26 120.009L96.2421 144.707Z" fill="#DD6262"/>
<path d="M75.379 111.686L81.5744 108.909L80.852 114.231L75.379 111.686Z" fill="#C65555"/>
<path d="M88.7869 117.898L87.6889 117.385C87.6889 115.312 86.1747 112.926 84.3195 112.064C82.4644 111.202 80.956 112.18 80.956 114.249L79.8522 113.737C79.8522 111.104 81.8576 109.892 84.3195 111.038C86.7815 112.185 88.7869 115.242 88.7869 117.898Z" fill="#20232D"/>
<path d="M94.6008 115.013L93.5028 114.501C93.5028 112.432 91.9886 110.041 90.1335 109.179C88.2783 108.317 86.7699 109.296 86.7699 111.365L85.6661 110.852C85.6661 108.219 87.6715 107.008 90.1335 108.154C92.5954 109.3 94.6008 112.376 94.6008 115.013Z" fill="#20232D"/>
<path opacity="0.4" d="M25.1976 233C39.1139 233 50.3952 227.749 50.3952 221.271C50.3952 214.793 39.1139 209.542 25.1976 209.542C11.2814 209.542 0 214.793 0 221.271C0 227.749 11.2814 233 25.1976 233Z" fill="#D6D8E5"/>
<path d="M6.72129 133.411C6.4381 135.387 3.51957 143.906 4.14373 146.823C4.76789 149.74 14.7487 154.619 14.7487 154.619L16.1357 149.624L10.605 145.262L12.1018 137.004L6.72129 133.411Z" fill="#FFCEA9"/>
<path d="M14.4482 125.019C13.4774 124.655 12.3748 124.593 11.3506 124.843C10.3263 125.093 9.45197 125.638 8.89429 126.375C7.42635 128.332 5.90063 135.061 5.76192 136.207C5.76192 136.207 7.82512 138.505 10.9113 138.118L14.4482 125.019Z" fill="#EDEDED"/>
<path d="M25.8391 219.985C28.0096 220.47 30.33 220.244 32.2946 219.356C33.8492 219.393 42.2927 216.48 43.4428 218.927C44.4484 221.07 40.7959 223.056 38.8194 223.438C34.5543 224.272 31.3988 225.987 29.6881 226.276C28.4109 226.495 26.758 226.635 25.7409 225.81C24.5388 224.854 24.6428 221.266 25.8391 219.985Z" fill="#2B2A30"/>
<path d="M29.7055 225.684C31.4392 225.39 34.5716 223.676 38.8367 222.841C40.478 222.525 43.2983 221.08 43.5815 219.356C43.9629 221.332 40.6918 223.084 38.8367 223.438C34.5716 224.272 31.4161 225.987 29.7055 226.276C28.4282 226.495 26.7754 226.635 25.7582 225.81C25.488 225.575 25.29 225.293 25.1803 224.985C26.6829 226.01 28.4282 225.898 29.7055 225.684Z" fill="#9C73FF"/>
<path d="M12.1365 215.027C14.3069 215.512 16.6273 215.286 18.5919 214.397C20.1465 214.435 28.59 211.518 29.7401 213.969C30.7457 216.112 27.0932 218.097 25.1167 218.48C20.8516 219.314 17.6961 221.029 15.9855 221.318C14.7082 221.537 13.0554 221.676 12.0382 220.852C10.8419 219.896 10.9459 216.303 12.1365 215.027Z" fill="#2B2A30"/>
<path d="M16.0086 220.721C17.7424 220.432 20.8747 218.717 25.1398 217.883C26.7811 217.566 29.6014 216.117 29.8846 214.397C30.266 216.373 26.9661 218.125 25.1398 218.48C20.8747 219.314 17.7192 221.029 16.0086 221.318C14.7314 221.537 13.0785 221.676 12.0613 220.852C11.7899 220.619 11.5917 220.338 11.4834 220.031C12.986 221.043 14.7314 220.94 16.0086 220.721Z" fill="#9C73FF"/>
<path d="M11.9746 196.526C12.3366 193.998 12.9886 191.502 13.9223 189.07C13.9223 189.07 13.3443 182.635 13.0496 176.535C12.7144 169.624 9.73807 163.51 12.0902 157.974L38.5882 162.727C38.5882 162.727 36.9873 190.342 36.629 193.684C36.4346 196.286 36.0389 198.876 35.4443 201.438C34.2306 206.797 32.2657 219.547 32.2657 219.547C29.4627 220.856 25.7871 220.129 25.7871 220.129C25.7871 220.129 25.9894 204.01 26.1685 200.147C26.3881 195.431 26.5673 195.79 26.5673 195.79L25.6946 184.07L25.1167 178.226C25.1167 178.226 24.3827 182.514 23.9088 186.344C23.4927 189.685 22.4929 192.705 21.3717 198.926C20.4066 204.318 18.8346 215.157 18.8346 215.157C16.0317 216.471 12.2289 215.381 12.2289 215.381C12.2289 215.381 11.2118 201.205 11.9746 196.526Z" fill="#8C50FF"/>
<path d="M15.841 125.135C17.8579 125.214 19.3606 125.634 19.6148 125.135C19.8302 124.295 19.9846 123.445 20.0772 122.591C19.8402 122.125 19.6437 121.612 19.6437 121.612C17.1066 120.354 16.3091 118.145 15.9739 115.554C15.396 111.16 18.3492 107.315 23.8048 106.854C28.9252 106.425 32.6991 109.328 33.7047 113.313C34.2479 115.284 35.3229 119.003 33.8665 122.241C33.0516 124.054 31.9998 125.503 30.948 125.769C29.934 125.748 28.9226 125.677 27.9196 125.555C27.9196 125.555 27.648 126.776 27.4631 127.558C27.2781 128.341 27.3475 128.756 29.2836 129.716C31.2196 130.676 26.3592 132.652 23.1806 132.461C20.0021 132.27 16.4305 130.718 15.4538 129.064C14.3615 127.255 14.4482 125.084 15.841 125.135Z" fill="#FFCEA9"/>
<path d="M18.7595 125.377C18.1816 126.5 19.6206 127.875 23.3829 128.835C27.1452 129.795 27.5151 128.56 27.5151 128.56C27.5151 128.56 33.0748 130.601 34.8837 131.622C37.1549 132.903 38.1663 136.613 38.4726 142.876C38.8251 150.127 38.8598 160.882 38.5593 162.737C38.5593 162.737 34.3057 166.152 28.8674 165.794C23.4292 165.435 14.2748 161.548 12.0498 158.552C12.1133 152.196 13.038 151.161 11.7608 147.498C8.8365 139.11 7.29922 135.685 8.72092 130.117C9.87677 125.527 11.5296 124.953 13.7778 124.991C15.4459 125.046 17.109 125.175 18.7595 125.377Z" fill="#F4F4F4"/>
<path d="M47.0548 148.873C42.5874 149.777 41.5414 147.508 40.9519 145.611C39.5302 141.058 38.7673 136.948 37.7097 134.367C36.4614 131.319 35.1553 130.834 33.3175 130.243C31.1618 129.544 29.3067 131.011 30.0291 134.903C30.8729 139.493 31.9883 142.713 34.115 148.137C34.693 149.535 35.9182 152.075 37.7849 153.291C40.0966 154.791 43.5641 154.726 48.8059 153.678C51.0425 153.212 53.4987 152.149 57.7349 150.555C58.8907 150.127 59.7576 149.842 61.9364 149.022C64.1152 148.202 66.3864 146.837 67.5307 145.499C68.675 144.162 68.4785 143.318 68.2416 143.016C67.9469 142.633 67.785 142.936 67.1724 143.482C66.2893 144.43 65.2007 145.241 63.9592 145.877C63.9592 145.877 65.3693 144.703 66.1379 143.938C66.8205 143.261 67.388 142.514 67.8255 141.715C68.23 140.937 67.3978 139.879 66.7621 140.434C66.1264 140.988 65.8316 141.552 64.6758 142.671C64.0674 143.265 63.3728 143.799 62.6068 144.26C63.3225 143.478 63.9602 142.653 64.514 141.79C65.2479 140.583 62.7802 141.212 61.3989 142.386C60.376 143.239 59.5091 143.733 59.486 143.496C59.4629 143.258 57.469 144.982 56.4577 145.826C55.3596 146.813 51.2968 148.011 47.0548 148.873Z" fill="#FFCEA9"/>
<path d="M31.6646 129.637C34.6467 129.282 36.7562 130.364 38.0681 134.008C39.38 137.652 40.3104 140.639 40.3104 140.639C39.1308 142.014 37.3412 142.972 35.3113 143.314C31.7455 144.013 30.4625 142.638 30.4625 142.638C30.4625 142.638 29.4743 138.821 28.8559 136.221C28.2375 133.621 27.9774 130.079 31.6646 129.637Z" fill="#EDEDED"/>
<path d="M33.5198 112.772C33.5198 112.772 38.2299 106.994 28.0237 105.819C20.6609 104.971 15.9334 108.783 15.3844 112.921C14.8643 116.878 17.8811 120.983 20.0656 122.609C21.129 122.917 23.4176 123.075 26.4228 121.99C26.5453 120.913 26.5936 119.832 26.5673 118.751C26.5673 118.751 22.9899 112.665 33.5198 112.772Z" fill="#3A2C6D"/>
<path d="M57.4459 144.334C57.4459 144.334 56.2901 142.633 57.0183 142.209C57.7465 141.785 58.8041 143.379 59.0179 144.003C59.2317 144.628 58.937 143.812 58.937 143.812C58.937 143.812 58.1452 141.892 58.6596 141.524C59.1739 141.156 59.8674 141.99 60.5552 143.183C61.2429 144.376 60.7286 143.076 60.7286 143.076C60.7286 143.076 59.5727 141.151 60.0755 140.886C60.7286 140.527 61.8093 141.669 62.4508 142.699C63.0923 143.728 61.5897 144.945 61.5897 144.945L57.4459 144.334Z" fill="#FFCEA9"/>
<path d="M59.6766 147.373L55.348 145.355C54.9839 145.187 55.0301 144.889 55.452 144.693L65.8836 139.823C66.1003 139.726 66.3425 139.671 66.5904 139.663C66.8384 139.655 67.0852 139.694 67.311 139.777L71.6397 141.79C72.0038 141.962 71.9576 142.256 71.5357 142.456L61.081 147.321C60.8676 147.416 60.6299 147.471 60.3863 147.479C60.1427 147.488 59.8998 147.452 59.6766 147.373Z" fill="#B1B4C4"/>
<path d="M55.0995 145.066V144.744L55.5677 144.884L55.0995 145.066Z" fill="#B1B4C4"/>
<path d="M71.9057 142.07V141.762L71.5358 141.953L71.9057 142.07Z" fill="#B1B4C4"/>
<path d="M59.6767 147.099L55.348 145.086C54.9839 144.913 55.0302 144.62 55.4521 144.419L65.8836 139.554C66.1004 139.457 66.3425 139.402 66.5905 139.394C66.8385 139.386 67.0853 139.425 67.3111 139.508L71.6398 141.521C72.0039 141.693 71.9577 141.987 71.5358 142.187L61.0811 147.052C60.8672 147.146 60.6292 147.2 60.3857 147.208C60.1421 147.216 59.8994 147.179 59.6767 147.099Z" fill="#616E84"/>
<path d="M56.0907 146.078C56.1129 146.068 56.1128 146.034 56.0905 146.003C56.0683 145.972 56.0323 145.955 56.0101 145.965C55.9879 145.975 55.988 146.009 56.0103 146.04C56.0325 146.071 56.0685 146.088 56.0907 146.078Z" fill="#757B89"/>
<path d="M56.0783 145.594C56.1004 145.584 56.1003 145.551 56.0779 145.519C56.0556 145.488 56.0195 145.471 55.9974 145.482C55.9753 145.492 55.9754 145.526 55.9977 145.557C56.0201 145.588 56.0561 145.605 56.0783 145.594Z" fill="#757B89"/>
<path d="M56.2845 145.693C56.3066 145.683 56.3064 145.649 56.2841 145.618C56.2618 145.587 56.2257 145.57 56.2036 145.58C56.1814 145.591 56.1816 145.624 56.2039 145.656C56.2263 145.687 56.2623 145.704 56.2845 145.693Z" fill="#757B89"/>
<path d="M56.4964 145.792C56.5186 145.782 56.5184 145.748 56.4961 145.717C56.4737 145.686 56.4377 145.669 56.4156 145.679C56.3934 145.689 56.3936 145.723 56.4159 145.754C56.4382 145.785 56.4743 145.802 56.4964 145.792Z" fill="#757B89"/>
<path d="M58.2828 146.624C58.3049 146.614 58.3048 146.58 58.2824 146.549C58.2601 146.517 58.2241 146.501 58.2019 146.511C58.1798 146.521 58.1799 146.555 58.2023 146.586C58.2246 146.617 58.2607 146.634 58.2828 146.624Z" fill="#757B89"/>
<path d="M58.4861 146.719C58.5082 146.708 58.5081 146.675 58.4857 146.643C58.4634 146.612 58.4273 146.595 58.4052 146.606C58.3831 146.616 58.3832 146.65 58.4056 146.681C58.4279 146.712 58.464 146.729 58.4861 146.719Z" fill="#757B89"/>
<path d="M58.6981 146.817C58.7202 146.807 58.7201 146.773 58.6977 146.742C58.6754 146.711 58.6393 146.694 58.6172 146.704C58.5951 146.715 58.5952 146.748 58.6176 146.78C58.6399 146.811 58.6759 146.828 58.6981 146.817Z" fill="#757B89"/>
<path d="M59.1378 147.5C59.16 147.489 59.1599 147.456 59.1376 147.425C59.1154 147.393 59.0794 147.376 59.0572 147.387C59.035 147.397 59.0351 147.431 59.0574 147.462C59.0796 147.493 59.1156 147.51 59.1378 147.5Z" fill="#757B89"/>
<path d="M57.6367 146.352L57.0587 146.086C57.0392 146.074 57.0233 146.059 57.0122 146.041C57.0012 146.023 56.9954 146.004 56.9952 145.984C56.9952 145.947 57.0241 145.928 57.0587 145.947L57.6367 146.212C57.6561 146.223 57.672 146.238 57.6831 146.255C57.6941 146.272 57.7 146.291 57.7002 146.31C57.7002 146.352 57.6713 146.371 57.6367 146.352Z" fill="#757B89"/>
<path d="M70.5996 142.834L70.0679 143.081C70.0332 143.081 70.0043 143.081 70.0043 143.044C70.0058 143.025 70.0123 143.007 70.0233 142.991C70.0342 142.975 70.0495 142.961 70.0679 142.95L70.5996 142.703C70.6342 142.703 70.6573 142.703 70.6573 142.741C70.6583 142.759 70.6536 142.777 70.6434 142.793C70.6333 142.81 70.6182 142.824 70.5996 142.834Z" fill="#757B89"/>
<path d="M69.7847 143.216L69.253 143.463C69.2183 143.463 69.1894 143.463 69.1894 143.426C69.1896 143.407 69.1955 143.389 69.2066 143.373C69.2177 143.356 69.2336 143.342 69.253 143.332L69.7847 143.081C69.8194 143.081 69.8425 143.081 69.8425 143.118C69.8425 143.137 69.8373 143.155 69.8273 143.172C69.8173 143.189 69.8027 143.204 69.7847 143.216Z" fill="#757B89"/>
<path d="M59.678 147.051L55.3493 145.033C54.9852 144.866 55.0314 144.567 55.4533 144.372L65.8849 139.502C66.1021 139.406 66.3441 139.351 66.5918 139.343C66.8395 139.335 67.0862 139.373 67.3124 139.455L71.641 141.468C72.0051 141.641 71.9589 141.934 71.537 142.135L61.0823 147C60.8689 147.095 60.6312 147.149 60.3876 147.158C60.144 147.167 59.9011 147.13 59.678 147.051Z" fill="#20232D"/>
<path d="M71.1948 141.552L69.5073 140.765C69.3953 140.811 69.2716 140.834 69.146 140.834C69.0205 140.834 68.8968 140.811 68.7848 140.765C68.7413 140.753 68.7035 140.73 68.6767 140.7C68.6499 140.67 68.6355 140.634 68.6355 140.597C68.6355 140.56 68.6499 140.524 68.6767 140.494C68.7035 140.464 68.7413 140.441 68.7848 140.429L67.0973 139.642C66.9534 139.582 66.7939 139.551 66.6321 139.551C66.4702 139.551 66.3107 139.582 66.1668 139.642L55.9838 144.381C55.9273 144.396 55.8782 144.425 55.8434 144.464C55.8086 144.503 55.7899 144.55 55.7899 144.598C55.7899 144.645 55.8086 144.692 55.8434 144.731C55.8782 144.77 55.9273 144.799 55.9838 144.814L60.0871 146.72C60.231 146.78 60.3905 146.811 60.5523 146.811C60.7141 146.811 60.8736 146.78 61.0175 146.72L71.1948 141.981C71.2521 141.967 71.3023 141.939 71.338 141.9C71.3737 141.862 71.393 141.815 71.393 141.767C71.393 141.718 71.3737 141.672 71.338 141.633C71.3023 141.594 71.2521 141.566 71.1948 141.552Z" fill="#2B303F"/>
<path opacity="0.5" d="M71.1948 141.552L69.5073 140.765C69.3953 140.811 69.2716 140.834 69.146 140.834C69.0205 140.834 68.8968 140.811 68.7848 140.765C68.7413 140.753 68.7035 140.73 68.6767 140.7C68.6499 140.67 68.6355 140.634 68.6355 140.597C68.6355 140.56 68.6499 140.524 68.6767 140.494C68.7035 140.464 68.7413 140.441 68.7848 140.429L67.0973 139.642C66.9534 139.582 66.7939 139.551 66.6321 139.551C66.4702 139.551 66.3107 139.582 66.1668 139.642L55.9838 144.381C55.9273 144.396 55.8782 144.425 55.8434 144.464C55.8086 144.503 55.7899 144.55 55.7899 144.598C55.7899 144.645 55.8086 144.692 55.8434 144.731C55.8782 144.77 55.9273 144.799 55.9838 144.814L60.0871 146.72C60.231 146.78 60.3905 146.811 60.5523 146.811C60.7141 146.811 60.8736 146.78 61.0175 146.72L71.1948 141.981C71.2521 141.967 71.3023 141.939 71.338 141.9C71.3737 141.862 71.393 141.815 71.393 141.767C71.393 141.718 71.3737 141.672 71.338 141.633C71.3023 141.594 71.2521 141.566 71.1948 141.552Z" fill="url(#paint0_linear)"/>
<path d="M69.0334 140.737C69.1419 140.737 69.2299 140.697 69.2299 140.648C69.2299 140.599 69.1419 140.56 69.0334 140.56C68.9249 140.56 68.8369 140.599 68.8369 140.648C68.8369 140.697 68.9249 140.737 69.0334 140.737Z" fill="#2B303F"/>
<path opacity="0.1" d="M68.9756 140.676C68.9409 140.676 68.9409 140.639 68.9756 140.625C68.9928 140.616 69.0129 140.611 69.0335 140.611C69.0541 140.611 69.0743 140.616 69.0914 140.625C69.0976 140.627 69.1029 140.631 69.1066 140.635C69.1103 140.64 69.1123 140.645 69.1123 140.65C69.1123 140.656 69.1103 140.661 69.1066 140.666C69.1029 140.67 69.0976 140.674 69.0914 140.676C69.0734 140.683 69.0536 140.687 69.0335 140.687C69.0135 140.687 68.9937 140.683 68.9756 140.676Z" fill="white"/>
<path d="M66.4038 146.566C66.4038 146.566 68.7155 144.903 68.5826 142.699C68.4439 141.161 67.2938 142.27 67.2938 142.27L66.138 143.961C66.138 143.961 64.9821 145.168 63.9187 145.443C63.106 145.506 62.2977 145.603 61.4972 145.732C60.0755 145.956 58.6596 147.387 58.6596 147.387L60.4916 148.519L66.4038 146.566Z" fill="#FFCEA9"/>
<path d="M245.428 64.5876L231.847 58.25C231.626 58.1299 231.375 58.0523 231.111 58.0232C230.848 57.9941 230.579 58.0143 230.327 58.0822C230.217 58.1184 230.114 58.1671 230.021 58.2267L227.53 59.3777L229.264 61.3163V71.722C229.264 73.2505 230.419 75.026 231.841 75.6877L243.822 81.2797L244.215 83.4653C244.295 83.4326 246.359 82.4773 247.012 82.1698C247.075 82.1464 247.135 82.1183 247.191 82.0859C247.469 81.8835 247.684 81.6314 247.82 81.3498C247.955 81.0682 248.007 80.7649 247.971 80.4642V68.5532C248 67.0248 246.85 65.24 245.428 64.5876Z" fill="#D9DAE2"/>
<path d="M242.619 83.3254L229.038 77.0018C227.617 76.34 226.466 74.5646 226.466 73.0361V61.1298C226.466 59.6013 227.622 58.9023 229.038 59.564L242.619 65.883C244.041 66.5447 245.197 68.3248 245.197 69.8533V81.755C245.197 83.2834 244.041 83.9871 242.619 83.3254Z" fill="#EFF0F9"/>
<path d="M230.471 65.5896C230.471 64.9186 230.708 64.4852 231.177 64.2848C231.645 64.0845 232.257 64.159 233.014 64.5132C233.781 64.8701 234.42 65.3805 234.87 65.9951C235.327 66.5982 235.569 67.2917 235.569 67.9989V68.5394C235.569 69.2151 235.338 69.6485 234.87 69.8442C234.401 70.0399 233.789 69.9561 233.032 69.6019C232.264 69.2464 231.625 68.7356 231.177 68.12C230.717 67.5189 230.473 66.827 230.471 66.1209V65.5896ZM232.02 66.8898C232.02 67.1885 232.116 67.4822 232.298 67.7426C232.466 67.9993 232.72 68.2126 233.032 68.3577C233.332 68.4975 233.569 68.5161 233.748 68.4136C233.849 68.3337 233.925 68.2362 233.971 68.1287C234.017 68.0212 234.032 67.9066 234.014 67.7938V67.2393C234.014 66.9417 233.923 66.6488 233.748 66.3865C233.583 66.1274 233.328 65.9122 233.014 65.7667C232.918 65.7062 232.803 65.6685 232.681 65.6578C232.56 65.6471 232.437 65.6638 232.327 65.7061C232.142 65.804 232.049 66.0137 232.049 66.3399L232.02 66.8898ZM233.482 75.0261L232.327 73.9264L238.106 68.0361L239.262 69.1359L233.482 75.0261ZM236.077 74.3737C236.077 73.698 236.314 73.2646 236.788 73.0689C237.262 72.8732 237.875 72.9571 238.626 73.3066C239.387 73.6633 240.023 74.17 240.475 74.7791C240.94 75.3854 241.184 76.0844 241.18 76.7969V77.3375C241.18 78.0039 240.949 78.4419 240.487 78.6376C240.025 78.8333 239.412 78.7541 238.643 78.3953C237.873 78.0395 237.231 77.5269 236.782 76.9088C236.327 76.313 236.083 75.628 236.077 74.9283V74.3737ZM237.626 75.6785C237.634 75.9747 237.733 76.2647 237.915 76.522C238.082 76.7813 238.334 76.9988 238.643 77.1511C239.296 77.4586 239.626 77.2722 239.626 76.5965V76.0234C239.626 75.7267 239.532 75.4349 239.354 75.1752C239.187 74.9198 238.935 74.7069 238.626 74.5601C238.526 74.4946 238.404 74.454 238.276 74.4432C238.148 74.4325 238.018 74.452 237.904 74.4995C237.798 74.5755 237.717 74.6715 237.669 74.7789C237.62 74.8862 237.606 75.0016 237.626 75.1147V75.6785Z" fill="#E26161"/>
<path d="M71.6976 31.3805L58.1163 25.0569C57.8959 24.9368 57.6442 24.8591 57.3806 24.8301C57.117 24.801 56.8487 24.8212 56.5964 24.8891C56.4876 24.9274 56.3848 24.9759 56.2901 25.0336L53.7992 26.1846L55.533 28.1231V38.5289C55.533 40.0574 56.6888 41.8329 58.1048 42.4946L70.0852 48.0866L70.4839 50.2768L73.2753 48.9766C73.3369 48.953 73.3967 48.9266 73.4545 48.8974C73.7351 48.6964 73.9526 48.4446 74.0892 48.1628C74.2258 47.8809 74.2777 47.5769 74.2405 47.2757V35.3461C74.2751 33.8177 73.1193 32.0422 71.6976 31.3805Z" fill="#D9DAE2"/>
<path d="M68.8947 50.1183L55.3134 43.804C53.8917 43.1423 52.7358 41.3668 52.7358 39.8384V27.9274C52.7358 26.3989 53.8917 25.6953 55.3134 26.357L68.8947 32.6806C70.3164 33.3423 71.4664 35.1178 71.4664 36.6463V48.5479C71.4664 50.0764 70.3164 50.794 68.8947 50.1183Z" fill="#EFF0F9"/>
<path d="M62.104 32.6152L63.9418 36.9444L68.0625 39.4188L65.0804 40.7376L65.7854 44.8804L62.104 41.3667L58.4169 41.4506L59.1219 37.9603L56.1398 33.8688L60.2604 35.2295L62.104 32.6152Z" fill="#F9CB07"/>
</g>
<defs>
<linearGradient id="paint0_linear" x1="53.1768" y1="149.774" x2="57.1223" y2="141.26" gradientUnits="userSpaceOnUse">
<stop offset="0.21" stop-color="white" stop-opacity="0"/>
<stop offset="1" stop-color="white" stop-opacity="0.2"/>
</linearGradient>
<clipPath id="clip0">
<rect width="248" height="233" fill="white"/>
</clipPath>
</defs>
</svg>
