<svg width="317" height="343" viewBox="0 0 317 343" fill="none" xmlns="http://www.w3.org/2000/svg">
<g clip-path="url(#clip0)">
<path opacity="0.4" d="M123.773 191.593L98.1908 177.955L125.634 163.247L151.216 176.885L123.773 191.593Z" fill="#D6D8E5"/>
<path d="M126.639 160.97L99.2029 146.255L126.639 131.541L154.082 146.255L126.639 160.97Z" fill="#EFDA86"/>
<path d="M152.228 176.329L126.639 190.049V162.609L152.228 148.896V176.329Z" fill="#D1B66B"/>
<path d="M126.639 190.049L101.057 176.329V148.896L126.639 162.609V190.049Z" fill="#E2C979"/>
<path opacity="0.1" d="M101.057 148.896V156.072L126.639 169.634V162.644L101.057 148.896Z" fill="black"/>
<path opacity="0.1" d="M152.228 148.896V156.586L126.639 169.634V162.644L152.228 148.896Z" fill="black"/>
<path d="M99.2029 146.255V153.863L126.639 168.379V160.97L99.2029 146.255Z" fill="#E2C979"/>
<path d="M126.639 168.379L154.082 154.46V146.255L126.639 160.97V168.379Z" fill="#D1B66B"/>
<path opacity="0.4" d="M226.787 253.82L144.996 210.081C144.528 209.828 144.141 209.464 143.876 209.025C143.611 208.586 143.478 208.09 143.491 207.587C143.504 207.084 143.662 206.594 143.949 206.167C144.236 205.74 144.641 205.393 145.122 205.162L155.412 200.237C155.861 200.023 156.36 199.917 156.865 199.928C157.369 199.939 157.862 200.066 158.3 200.298L242.847 245.506C243.318 245.756 243.707 246.12 243.973 246.559C244.239 246.998 244.373 247.496 244.36 248C244.347 248.503 244.188 248.994 243.9 249.421C243.612 249.848 243.204 250.195 242.722 250.424L235.253 253.998C233.939 254.63 232.475 254.945 230.996 254.914C229.516 254.883 228.069 254.507 226.787 253.82Z" fill="#D6D8E5"/>
<path d="M231.811 245.588L162.105 208.215C156.195 205.052 151.416 196.553 151.416 189.247V8.69858C151.438 1.3721 156.203 -1.97558 162.105 1.19374L231.811 38.5602C237.72 41.7295 242.5 50.2222 242.5 57.5281V238.083C242.5 245.396 237.713 248.751 231.811 245.588Z" fill="#B1B4C4"/>
<path d="M233.007 248.84L238.526 246.247L233.229 237.816L233.007 248.84Z" fill="#B1B4C4"/>
<path d="M150.337 2.99099L155.42 0.514526L154.393 7.47742L150.337 2.99099Z" fill="#B1B4C4"/>
<path d="M227.364 247.646L157.665 210.273C151.755 207.11 146.976 198.611 146.976 191.305V10.7633C147.006 3.42998 151.763 0.0891629 157.665 3.25162L227.364 40.6249C233.273 43.7942 238.06 52.2869 238.06 59.5928V240.148C238.06 247.454 233.273 250.815 227.364 247.646Z" fill="#616E84"/>
<path d="M237.314 60.0525V240.601C237.314 247.92 232.535 251.275 226.625 248.113L199.292 233.46L190.789 228.898L156.919 210.739C151.009 207.57 146.237 199.077 146.237 191.771V11.223C146.267 3.90337 151.017 0.548831 156.919 3.71129L226.625 41.0846C232.535 44.2539 237.314 52.7397 237.314 60.0525Z" fill="#20232D"/>
<path d="M232.283 58.2208V234.07C232.283 238.502 228.937 240.299 224.815 238.076L221.121 236.087L208.46 229.302L203.015 226.38L201.095 225.344L200.452 224.994L195.761 222.49L182.132 215.191L176.517 212.18L174.242 210.959L160.65 203.673L158.795 202.679C154.659 200.463 151.32 195.078 151.32 190.639V14.7764C151.32 10.3449 154.659 8.54753 158.795 10.7633L185.951 25.382V25.4506C186.06 27.3275 186.644 29.1541 187.655 30.7823C188.666 32.4104 190.077 33.7942 191.772 34.8213C194.993 36.5363 197.6 35.1438 197.6 31.7C197.6 31.7 197.6 31.6451 197.6 31.6246L224.822 46.2158C228.937 48.4041 232.283 53.7892 232.283 58.2208Z" fill="white"/>
<path d="M194.097 33.112C194.963 32.6497 194.965 31.1448 194.103 29.7505C193.24 28.3562 191.838 27.6006 190.972 28.0629C190.106 28.5251 190.103 30.0301 190.966 31.4243C191.829 32.8186 193.231 33.5742 194.097 33.112Z" fill="#2B303F"/>
<path opacity="0.1" d="M191.772 31.4531C191.503 31.2897 191.279 31.0698 191.119 30.8112C190.958 30.5526 190.866 30.2625 190.849 29.9645C190.849 29.4157 191.262 29.1961 191.772 29.4705C192.043 29.6323 192.269 29.8517 192.431 30.1105C192.593 30.3694 192.686 30.6603 192.703 30.9592C192.703 31.508 192.289 31.7275 191.772 31.4531Z" fill="white"/>
<path d="M240.143 83.8087C239.575 84.1174 239.117 83.8087 239.117 83.1227V75.3915C239.121 75.0338 239.217 74.6822 239.395 74.3652C239.574 74.0482 239.83 73.7746 240.143 73.5667C240.712 73.258 241.17 73.5667 241.17 74.287V81.9839C241.165 82.3416 241.07 82.6932 240.892 83.0102C240.713 83.3272 240.457 83.6008 240.143 83.8087Z" fill="#757B89"/>
<path d="M240.143 96.4242C239.575 96.7261 239.117 96.4242 239.117 95.7039V88.0001C239.123 87.6428 239.219 87.2917 239.398 86.975C239.576 86.6582 239.831 86.3844 240.143 86.1753C240.712 85.8735 241.17 86.1753 241.17 86.9025V94.5994C241.165 94.957 241.069 95.3084 240.891 95.6254C240.712 95.9423 240.456 96.2159 240.143 96.4242Z" fill="#757B89"/>
<path d="M217.066 118.342L164.617 90.2159C162.4 89.0223 160.583 85.8187 160.583 83.0541V28.1741C160.583 25.4301 162.386 24.1473 164.617 25.3409L217.066 53.4669C219.282 54.6606 221.099 57.8642 221.099 60.6219V115.502C221.099 118.266 219.297 119.536 217.066 118.342Z" fill="#E9EAF2"/>
<path d="M217.066 191.778L164.617 163.652C162.4 162.459 160.583 159.255 160.583 156.497V101.617C160.583 98.8732 162.386 97.5904 164.617 98.784L217.066 126.91C219.282 128.104 221.099 131.307 221.099 134.072V188.952C221.099 191.703 219.297 192.972 217.066 191.778Z" fill="#E9EAF2"/>
<path d="M221.107 207.488V236.087L203.015 226.38L201.095 225.344L200.452 224.994L195.761 222.49L182.132 215.191L176.481 212.166L174.205 210.945L160.613 203.66V175.053C160.613 172.309 162.423 171.034 164.646 172.227L217.095 200.353C219.297 201.526 221.107 204.73 221.107 207.488Z" fill="#E9EAF2"/>
<path d="M206.628 73.0385L199.455 61.4931C199.182 61.0338 198.788 60.6467 198.31 60.368C198.246 60.3328 198.179 60.3029 198.11 60.2789C198.045 60.2329 197.976 60.1916 197.903 60.1554L195.909 59.0852C195.362 58.7902 194.852 58.8108 194.557 59.147C193.922 59.833 192.489 59.7712 190.908 58.9206C189.316 58.0661 188.043 56.7809 187.258 55.2368C186.99 54.6105 186.514 54.0796 185.899 53.7207L183.942 52.6574C183.878 52.62 183.811 52.5879 183.742 52.5614C183.565 52.4079 183.344 52.3049 183.106 52.2648C182.867 52.2247 182.622 52.249 182.398 52.335L175.225 56.1834C174.589 56.5264 174.589 57.6172 175.225 58.6325L179.147 64.9437C179.408 65.3975 179.786 65.7841 180.248 66.0687C180.412 66.1775 180.605 66.2443 180.806 66.2623C181.007 66.2804 181.209 66.2491 181.393 66.1716L182.294 65.6845V81.1195C182.334 81.6379 182.504 82.1404 182.79 82.5871C183.076 83.0337 183.47 83.4121 183.942 83.692L197.903 91.238C198.797 91.7182 199.514 91.3272 199.514 90.3737V74.9387L200.422 76.393C200.692 76.8503 201.084 77.2355 201.56 77.5112C201.724 77.62 201.917 77.6867 202.118 77.7048C202.319 77.7229 202.521 77.6916 202.705 77.6141L206.628 75.5081C207.256 75.1445 207.256 74.088 206.628 73.0385Z" fill="#D9DAE2"/>
<path d="M203.592 143.552L178.217 129.949C177.546 131.97 177.19 134.07 177.16 136.185V150.92L188.788 157.156L190.908 145.823L193.021 159.426L204.626 165.662V150.92C204.569 148.437 204.223 145.966 203.592 143.552Z" fill="#D9DAE2"/>
<path d="M203.592 139.018L178.216 125.415V128.817L203.592 142.42V139.018Z" fill="#D9DAE2"/>
<path d="M208.445 229.302L203.015 226.38L201.095 225.344L200.452 224.994L195.761 222.49L182.132 215.191L176.517 212.18V204.936C176.517 204.215 177.057 203.92 177.736 204.25C178.26 204.578 178.648 205.062 178.837 205.622L179.066 206.308C179.837 208.549 181.418 210.473 183.543 211.754C186.254 213.209 188.47 212.022 188.47 209.107V208.228C188.47 207.337 189.15 206.959 189.947 207.412C190.341 207.637 190.673 207.945 190.915 208.311L193.08 211.391L190.642 212.66L191.994 214.814L194.55 213.442L195.658 215.027L193.331 216.275L194.668 218.436L197.128 217.119L198.236 218.704L196.02 219.897L197.357 222.058L199.713 220.796C201.087 222.674 202.871 224.261 204.951 225.454L205.379 225.673C206.802 226.539 207.879 227.814 208.445 229.302Z" fill="#D9DAE2"/>
<path opacity="0.1" d="M225.613 67.818L160.125 32.928V11.3807L225.613 46.2638V67.818Z" fill="black"/>
<path d="M146.636 31.0895L138.569 26.7608L160.354 11.6277L168.421 15.9495L146.636 31.0895Z" fill="#E26161"/>
<path d="M154.71 35.4113L146.636 31.0895L168.421 15.9495L176.488 20.2781L154.71 35.4113Z" fill="#F4F5F9"/>
<path d="M162.777 39.74L154.71 35.4114L176.488 20.2782L184.555 24.6L162.777 39.74Z" fill="#E26161"/>
<path d="M170.844 44.0618L162.777 39.74L184.555 24.6L192.621 28.9286L170.844 44.0618Z" fill="#F4F5F9"/>
<path d="M178.911 48.3904L170.844 44.0617L192.621 28.9286L200.688 33.2504L178.911 48.3904Z" fill="#E26161"/>
<path d="M186.978 52.7122L178.911 48.3904L200.688 33.2504L208.755 37.579L186.978 52.7122Z" fill="#F4F5F9"/>
<path d="M195.044 57.0409L186.978 52.7123L208.755 37.5791L216.822 41.9009L195.044 57.0409Z" fill="#E26161"/>
<path d="M203.111 61.3627L195.045 57.0409L216.822 41.9009L224.896 46.2295L203.111 61.3627Z" fill="#F4F5F9"/>
<path d="M142.662 33.1956C144.878 34.3893 146.695 33.422 146.695 31.0347L138.628 26.7061C138.705 28.0058 139.11 29.2705 139.811 30.3979C140.512 31.5253 141.488 32.4837 142.662 33.1956Z" fill="#E26161"/>
<path d="M150.736 37.5174C152.952 38.7179 154.769 37.7437 154.769 35.3565L146.695 31.0347C146.772 32.3342 147.178 33.5986 147.88 34.725C148.582 35.8514 149.561 36.8081 150.736 37.5174Z" fill="#F4F5F9"/>
<path d="M158.825 41.846C161.041 43.0396 162.858 42.0724 162.858 39.6851L154.792 35.3564C154.867 36.6566 155.271 37.9219 155.972 39.0496C156.673 40.1772 157.65 41.1353 158.825 41.846Z" fill="#E26161"/>
<path d="M166.87 46.1746C169.086 47.3683 170.903 46.3941 170.903 44.0069L162.836 39.6851C162.912 40.9849 163.317 42.2499 164.018 43.3773C164.719 44.5048 165.696 45.4631 166.87 46.1746Z" fill="#F4F5F9"/>
<path d="M174.937 50.4965C177.153 51.6902 178.97 50.7229 178.97 48.3356L170.903 44.007C170.978 45.3071 171.383 46.5724 172.083 47.7001C172.784 48.8277 173.762 49.7858 174.937 50.4965Z" fill="#E26161"/>
<path d="M183.003 54.8251C185.22 56.0188 187.037 55.0515 187.037 52.6574L178.97 48.3356C179.046 49.6355 179.451 50.9004 180.152 52.0279C180.852 53.1554 181.829 54.1137 183.003 54.8251Z" fill="#F4F5F9"/>
<path d="M191.07 59.1469C193.286 60.3405 195.104 59.3733 195.104 56.986L187.037 52.6573C187.108 53.9582 187.511 55.2248 188.212 56.353C188.914 57.4811 189.893 58.4387 191.07 59.1469Z" fill="#E26161"/>
<path d="M199.137 63.4756C201.353 64.6693 203.17 63.702 203.17 61.3079L195.104 56.9861C195.18 58.286 195.585 59.5509 196.285 60.6784C196.986 61.8058 197.963 62.7642 199.137 63.4756Z" fill="#F4F5F9"/>
<g opacity="0.15">
<path opacity="0.15" d="M142.662 33.1956C144.878 34.3893 146.695 33.422 146.695 31.0347L138.628 26.7061C138.705 28.0058 139.11 29.2705 139.811 30.3979C140.512 31.5253 141.488 32.4837 142.662 33.1956Z" fill="black"/>
<path opacity="0.15" d="M150.736 37.5175C152.952 38.718 154.77 37.7439 154.77 35.3566L146.695 31.0348C146.772 32.3343 147.178 33.5987 147.88 34.7251C148.583 35.8516 149.561 36.8083 150.736 37.5175Z" fill="black"/>
<path opacity="0.15" d="M158.825 41.8461C161.041 43.0398 162.858 42.0725 162.858 39.6852L154.792 35.3566C154.867 36.6567 155.271 37.922 155.972 39.0497C156.673 40.1773 157.65 41.1354 158.825 41.8461Z" fill="black"/>
<path opacity="0.15" d="M166.87 46.1747C169.086 47.3684 170.903 46.3943 170.903 44.007L162.836 39.6852C162.912 40.9851 163.317 42.25 164.018 43.3775C164.719 44.5049 165.696 45.4633 166.87 46.1747Z" fill="black"/>
<path opacity="0.15" d="M174.936 50.4965C177.153 51.6902 178.97 50.7229 178.97 48.3356L170.903 44.007C170.978 45.3071 171.382 46.5724 172.083 47.7001C172.784 48.8277 173.762 49.7859 174.936 50.4965Z" fill="black"/>
<path opacity="0.15" d="M183.003 54.8253C185.22 56.0189 187.037 55.0516 187.037 52.6575L178.97 48.3357C179.046 49.6356 179.451 50.9005 180.152 52.028C180.852 53.1555 181.829 54.1138 183.003 54.8253Z" fill="black"/>
<path opacity="0.15" d="M191.07 59.147C193.286 60.3407 195.104 59.3734 195.104 56.9861L187.037 52.6575C187.108 53.9584 187.511 55.2249 188.212 56.3531C188.914 57.4813 189.893 58.4388 191.07 59.147Z" fill="black"/>
<path opacity="0.15" d="M199.137 63.4757C201.353 64.6693 203.17 63.702 203.17 61.3079L195.104 56.9861C195.18 58.286 195.585 59.5509 196.285 60.6784C196.986 61.8059 197.963 62.7642 199.137 63.4757Z" fill="black"/>
</g>
<path opacity="0.4" d="M281.29 270.634L252.118 254.993L255.775 253.024L284.954 268.658L281.29 270.634Z" fill="#D6D8E5"/>
<path d="M292.563 264.734L263.273 249.025L266.937 218.004L288.906 229.783L292.563 264.734Z" fill="#C65555"/>
<path d="M284.954 268.658L255.657 252.956L259.321 221.935L281.29 233.713L284.954 268.658Z" fill="#FF6C6C"/>
<path d="M284.954 268.658L292.563 264.734L288.906 229.783L281.29 233.713L284.954 268.658Z" fill="#DD6262"/>
<path d="M259.321 221.935L266.937 218.004L266.043 225.536L259.321 221.935Z" fill="#C65555"/>
<path d="M275.794 230.695L274.442 229.968C274.442 227.039 272.588 223.663 270.305 222.422C268.023 221.18 266.176 222.586 266.176 225.516L264.817 224.789C264.817 221.064 267.284 219.349 270.305 220.968C273.327 222.586 275.794 226.97 275.794 230.695Z" fill="#20232D"/>
<path d="M282.93 226.641L281.578 225.914C281.578 222.984 279.724 219.609 277.441 218.368C275.159 217.126 273.312 218.532 273.312 221.461L271.953 220.734C271.953 217.009 274.42 215.294 277.441 216.913C280.463 218.532 282.93 222.95 282.93 226.641Z" fill="#20232D"/>
<path opacity="0.4" d="M255.051 290.473L213.018 267.952L218.292 265.105L260.325 287.633L255.051 290.473Z" fill="#D6D8E5"/>
<path d="M271.288 281.973L229.092 259.349L234.367 214.663L266.013 231.635L271.288 281.973Z" fill="#C65555"/>
<path d="M260.325 287.633L218.122 265.009L223.397 220.323L255.051 237.287L260.325 287.633Z" fill="#FF6C6C"/>
<path d="M260.325 287.633L271.288 281.973L266.014 231.635L255.051 237.287L260.325 287.633Z" fill="#DD6262"/>
<path d="M223.397 220.323L234.367 214.663L233.081 225.516L223.397 220.323Z" fill="#C65555"/>
<path d="M247.132 232.945L245.181 231.868C245.181 227.649 242.507 222.785 239.227 221.029C235.947 219.273 233.266 221.263 233.266 225.481L231.316 224.439C231.316 219.067 234.862 216.598 239.227 218.951C243.593 221.304 247.132 227.574 247.132 232.945Z" fill="#20232D"/>
<path d="M257.422 227.107L255.472 226.058C255.472 221.839 252.798 216.975 249.518 215.212C246.238 213.449 243.556 215.452 243.556 219.671L241.606 218.628C241.606 213.25 245.159 210.787 249.518 213.14C253.876 215.493 257.422 221.729 257.422 227.107Z" fill="#20232D"/>
<path opacity="0.4" d="M80.8678 192.492L65.0739 184.074L82.8106 174.566L98.5971 182.99L80.8678 192.492Z" fill="#D6D8E5"/>
<path d="M83.4312 173.167L66.4923 164.084L83.4312 155.002L100.37 164.084L83.4312 173.167Z" fill="#EFDA86"/>
<path d="M99.225 182.648L83.4312 191.113V174.175L99.225 165.71V182.648Z" fill="#D1B66B"/>
<path d="M83.4312 191.113L67.6373 182.648V165.71L83.4312 174.175V191.113Z" fill="#E2C979"/>
<path opacity="0.1" d="M67.6373 165.71V170.142L83.4312 178.511V174.196L67.6373 165.71Z" fill="black"/>
<path opacity="0.1" d="M99.225 165.71V170.457L83.4312 178.511V174.196L99.225 165.71Z" fill="black"/>
<path d="M66.4923 164.084V168.777L83.4312 177.736V173.167L66.4923 164.084Z" fill="#E2C979"/>
<path d="M83.4312 177.736L100.37 169.147V164.084L83.4312 173.167V177.736Z" fill="#D1B66B"/>
<path opacity="0.4" d="M287.547 289.712L273.29 282.117L289.335 273.515L303.592 281.116L287.547 289.712Z" fill="#D6D8E5"/>
<path d="M289.896 272.246L274.605 264.048L289.896 255.851L305.188 264.048L289.896 272.246Z" fill="#EFDA86"/>
<path d="M304.154 280.807L289.896 288.449V273.158L304.154 265.516V280.807Z" fill="#D1B66B"/>
<path d="M289.896 288.449L275.639 280.807V265.516L289.896 273.158V288.449Z" fill="#E2C979"/>
<path opacity="0.1" d="M275.639 265.516V269.516L289.896 277.075V273.179L275.639 265.516Z" fill="black"/>
<path opacity="0.1" d="M304.154 265.516V269.804L289.896 277.075V273.179L304.154 265.516Z" fill="black"/>
<path d="M274.605 264.048V268.288L289.896 276.376V272.246L274.605 264.048Z" fill="#E2C979"/>
<path d="M289.896 276.376L305.188 268.617V264.048L289.896 272.246V276.376Z" fill="#D1B66B"/>
<path opacity="0.4" d="M119.207 215.075L88.8534 198.81L92.6652 196.759L123.019 213.024L119.207 215.075Z" fill="#D6D8E5"/>
<path d="M130.938 208.935L100.459 192.595L104.271 160.325L127.127 172.584L130.938 208.935Z" fill="#C65555"/>
<path d="M123.019 213.024L92.5396 196.683L96.3514 164.414L119.207 176.666L123.019 213.024Z" fill="#FF6C6C"/>
<path d="M123.019 213.024L130.938 208.935L127.126 172.584L119.207 176.666L123.019 213.024Z" fill="#DD6262"/>
<path d="M96.3513 164.414L104.27 160.325L103.347 168.159L96.3513 164.414Z" fill="#C65555"/>
<path d="M113.49 173.558L112.086 172.803C112.086 169.751 110.151 166.238 107.779 164.969C105.408 163.7 103.48 165.141 103.48 168.187L102.069 167.432C102.069 163.556 104.632 161.773 107.779 163.46C110.926 165.148 113.49 169.648 113.49 173.558Z" fill="#20232D"/>
<path d="M120.921 169.312L119.518 168.557C119.518 165.511 117.582 161.992 115.211 160.723C112.84 159.454 110.912 160.894 110.912 163.94L109.501 163.186C109.501 159.31 112.064 157.526 115.211 159.214C118.358 160.901 120.921 165.429 120.921 169.312Z" fill="#20232D"/>
<path opacity="0.4" d="M32.2082 343C49.9964 343 64.4165 335.269 64.4165 325.733C64.4165 316.197 49.9964 308.467 32.2082 308.467C14.4201 308.467 0 316.197 0 325.733C0 335.269 14.4201 343 32.2082 343Z" fill="#D6D8E5"/>
<path d="M8.59131 196.395C8.22934 199.304 4.4988 211.844 5.29662 216.138C6.09444 220.432 18.8521 227.615 18.8521 227.615L20.6251 220.261L13.5555 213.84L15.4688 201.684L8.59131 196.395Z" fill="#FFCEA9"/>
<path d="M18.468 184.04C17.2272 183.505 15.8179 183.413 14.5086 183.781C13.1993 184.149 12.0818 184.952 11.3689 186.036C9.49257 188.918 7.54234 198.823 7.36505 200.511C7.36505 200.511 10.0023 203.893 13.9471 203.324L18.468 184.04Z" fill="#EDEDED"/>
<path d="M33.0282 323.84C35.8025 324.554 38.7685 324.222 41.2797 322.914C43.2669 322.969 54.0596 318.681 55.5296 322.283C56.815 325.438 52.1463 328.361 49.6199 328.923C44.1681 330.151 40.1347 332.676 37.9481 333.101C36.3155 333.423 34.2028 333.629 32.9026 332.415C31.3661 331.009 31.499 325.727 33.0282 323.84Z" fill="#2B2A30"/>
<path d="M37.9703 332.23C40.1864 331.798 44.1903 329.273 49.6421 328.045C51.74 327.579 55.345 325.452 55.707 322.914C56.1945 325.823 52.0134 328.402 49.6421 328.923C44.1903 330.151 40.1569 332.676 37.9703 333.101C36.3377 333.424 34.225 333.629 32.9248 332.415C32.5794 332.07 32.3264 331.654 32.1861 331.201C34.1068 332.71 36.3377 332.545 37.9703 332.23Z" fill="#9C73FF"/>
<path d="M15.5131 316.541C18.2875 317.255 21.2534 316.922 23.7647 315.615C25.7518 315.67 36.5445 311.375 38.0146 314.984C39.3 318.139 34.6312 321.062 32.1048 321.624C26.6531 322.852 22.6196 325.377 20.433 325.802C18.8004 326.124 16.6877 326.33 15.3876 325.116C13.8584 323.71 13.9914 318.421 15.5131 316.541Z" fill="#2B2A30"/>
<path d="M20.4626 324.924C22.6788 324.499 26.6826 321.974 32.1344 320.746C34.2324 320.28 37.8373 318.146 38.1993 315.615C38.6868 318.524 34.4687 321.103 32.1344 321.624C26.6826 322.852 22.6492 325.377 20.4626 325.802C18.83 326.124 16.7173 326.33 15.4171 325.116C15.0702 324.774 14.8169 324.36 14.6784 323.909C16.5991 325.397 18.83 325.246 20.4626 324.924Z" fill="#9C73FF"/>
<path d="M15.3063 289.307C15.769 285.585 16.6024 281.91 17.7958 278.331C17.7958 278.331 17.0571 268.857 16.6803 259.877C16.2519 249.704 12.4475 240.704 15.4541 232.554L49.3244 239.551C49.3244 239.551 47.2782 280.204 46.8202 285.122C46.5716 288.953 46.0659 292.765 45.3058 296.537C43.7545 304.426 41.2428 323.195 41.2428 323.195C37.66 325.123 32.9617 324.053 32.9617 324.053C32.9617 324.053 33.2203 300.324 33.4493 294.637C33.73 287.695 33.959 288.223 33.959 288.223L32.8436 270.97L32.1048 262.368C32.1048 262.368 31.1667 268.679 30.5609 274.318C30.029 279.236 28.751 283.682 27.3179 292.84C26.0843 300.777 24.0749 316.733 24.0749 316.733C20.4921 318.668 15.6313 317.062 15.6313 317.062C15.6313 317.062 14.3312 296.194 15.3063 289.307Z" fill="#8C50FF"/>
<path d="M20.2483 184.212C22.8265 184.328 24.7471 184.946 25.0722 184.212C25.3475 182.975 25.5448 181.724 25.6632 180.466C25.3603 179.78 25.1091 179.025 25.1091 179.025C21.8661 177.173 20.8467 173.922 20.4182 170.107C19.6795 163.638 23.4544 157.979 30.4279 157.3C36.973 156.669 41.7968 160.943 43.0822 166.808C43.7766 169.71 45.1506 175.184 43.289 179.952C42.2474 182.62 40.903 184.754 39.5585 185.145C38.2624 185.114 36.9696 185.009 35.6876 184.829C35.6876 184.829 35.3404 186.626 35.104 187.779C34.8676 188.931 34.9563 189.542 37.431 190.955C39.9057 192.368 33.6931 195.277 29.6301 194.996C25.5671 194.714 21.0018 192.43 19.7534 189.995C18.3572 187.333 18.468 184.136 20.2483 184.212Z" fill="#FFCEA9"/>
<path d="M23.9789 184.568C23.2402 186.222 25.0796 188.245 29.8887 189.658C34.6978 191.072 35.1705 189.254 35.1705 189.254C35.1705 189.254 42.277 192.258 44.5892 193.761C47.4924 195.647 48.7852 201.108 49.1767 210.328C49.6273 221.002 49.6716 236.835 49.2875 239.565C49.2875 239.565 43.8505 244.593 36.8991 244.065C29.9478 243.537 18.2464 237.816 15.4024 233.405C15.4836 224.048 16.6656 222.525 15.033 217.133C11.2951 204.785 9.33007 199.743 11.1473 191.545C12.6248 184.788 14.7375 183.944 17.6111 183.999C19.7434 184.08 21.8691 184.27 23.9789 184.568Z" fill="#F4F4F4"/>
<path d="M60.1466 219.156C54.4363 220.487 53.0993 217.146 52.3458 214.354C50.5285 207.652 49.5534 201.602 48.2015 197.801C46.6059 193.315 44.9364 192.601 42.5873 191.73C39.8318 190.701 37.4605 192.862 38.3839 198.59C39.4625 205.347 40.8882 210.088 43.6067 218.073C44.3454 220.131 45.9115 223.869 48.2976 225.66C51.2524 227.869 55.6848 227.773 62.385 226.229C65.2438 225.543 68.3834 223.979 73.7982 221.633C75.2757 221.002 76.3837 220.583 79.1687 219.376C81.9537 218.169 84.8569 216.159 86.3195 214.19C87.7822 212.221 87.531 210.979 87.2282 210.533C86.8514 209.971 86.6446 210.417 85.8615 211.219C84.7327 212.615 83.3412 213.81 81.7542 214.745C81.7542 214.745 83.5567 213.017 84.5392 211.892C85.4116 210.895 86.137 209.794 86.6963 208.619C87.2134 207.474 86.1496 205.917 85.337 206.733C84.5244 207.549 84.1477 208.379 82.6702 210.026C81.8926 210.901 81.0047 211.686 80.0256 212.365C80.9404 211.215 81.7556 209.999 82.4634 208.729C83.4016 206.953 80.2472 207.879 78.4817 209.607C77.1742 210.863 76.0661 211.59 76.0365 211.24C76.007 210.89 73.4584 213.428 72.1656 214.67C70.7621 216.124 65.5689 217.887 60.1466 219.156Z" fill="#FFCEA9"/>
<path d="M40.4745 190.838C44.2863 190.317 46.9827 191.908 48.6596 197.273C50.3365 202.638 51.5258 207.035 51.5258 207.035C50.0179 209.059 47.7305 210.469 45.1359 210.972C40.578 212.001 38.938 209.978 38.938 209.978C38.938 209.978 37.6748 204.359 36.8843 200.532C36.0939 196.704 35.7615 191.49 40.4745 190.838Z" fill="#EDEDED"/>
<path d="M42.8458 166.012C42.8458 166.012 48.8664 157.506 35.8206 155.777C26.4093 154.528 20.3666 160.14 19.6648 166.232C18.9999 172.056 22.856 178.099 25.6484 180.493C27.0077 180.946 29.933 181.179 33.7743 179.581C33.931 177.996 33.9926 176.405 33.959 174.813C33.959 174.813 29.3863 165.854 42.8458 166.012Z" fill="#3A2C6D"/>
<path d="M73.4289 212.475C73.4289 212.475 71.9514 209.971 72.8822 209.347C73.813 208.722 75.1649 211.069 75.4382 211.988C75.7115 212.907 75.3348 211.707 75.3348 211.707C75.3348 211.707 74.3227 208.88 74.9802 208.338C75.6376 207.796 76.5241 209.024 77.4032 210.78C78.2823 212.537 77.6248 210.623 77.6248 210.623C77.6248 210.623 76.1473 207.789 76.79 207.398C77.6248 206.87 79.0062 208.551 79.8262 210.067C80.6462 211.583 78.7255 213.374 78.7255 213.374L73.4289 212.475Z" fill="#FFCEA9"/>
<path d="M76.2802 216.948L70.7472 213.977C70.2818 213.73 70.3409 213.291 70.8801 213.003L84.2141 205.834C84.4911 205.691 84.8006 205.61 85.1176 205.598C85.4345 205.586 85.7501 205.644 86.0387 205.766L91.5717 208.729C92.0371 208.983 91.978 209.415 91.4388 209.71L78.0753 216.872C77.8025 217.012 77.4986 217.092 77.1873 217.105C76.8759 217.118 76.5655 217.064 76.2802 216.948Z" fill="#B1B4C4"/>
<path d="M70.4297 213.552V213.078L71.028 213.284L70.4297 213.552Z" fill="#B1B4C4"/>
<path d="M91.9118 209.141V208.688L91.439 208.969L91.9118 209.141Z" fill="#B1B4C4"/>
<path d="M76.2802 216.542L70.7472 213.578C70.2818 213.325 70.3409 212.892 70.8801 212.597L84.2141 205.436C84.4911 205.292 84.8006 205.211 85.1176 205.199C85.4345 205.187 85.7501 205.245 86.0387 205.367L91.5717 208.331C92.0371 208.584 91.978 209.017 91.4388 209.312L78.0753 216.473C77.802 216.612 77.4978 216.691 77.1864 216.703C76.875 216.715 76.5649 216.66 76.2802 216.542Z" fill="#616E84"/>
<path d="M71.6966 215.042C71.7249 215.027 71.7248 214.977 71.6963 214.931C71.6679 214.885 71.6219 214.86 71.5935 214.875C71.5652 214.89 71.5653 214.94 71.5937 214.986C71.6222 215.032 71.6682 215.057 71.6966 215.042Z" fill="#757B89"/>
<path d="M71.6807 214.33C71.709 214.315 71.7088 214.265 71.6802 214.219C71.6517 214.174 71.6056 214.149 71.5773 214.164C71.549 214.179 71.5492 214.228 71.5778 214.274C71.6063 214.32 71.6524 214.345 71.6807 214.33Z" fill="#757B89"/>
<path d="M71.9443 214.475C71.9726 214.46 71.9724 214.411 71.9438 214.365C71.9153 214.319 71.8692 214.294 71.8409 214.309C71.8126 214.324 71.8128 214.374 71.8414 214.42C71.8699 214.466 71.916 214.491 71.9443 214.475Z" fill="#757B89"/>
<path d="M72.2152 214.621C72.2435 214.606 72.2433 214.556 72.2147 214.51C72.1862 214.464 72.1401 214.439 72.1118 214.455C72.0835 214.47 72.0837 214.519 72.1122 214.565C72.1408 214.611 72.1869 214.636 72.2152 214.621Z" fill="#757B89"/>
<path d="M74.4986 215.845C74.5269 215.83 74.5267 215.781 74.4982 215.735C74.4696 215.689 74.4235 215.664 74.3952 215.679C74.3669 215.694 74.3671 215.744 74.3957 215.79C74.4242 215.836 74.4703 215.861 74.4986 215.845Z" fill="#757B89"/>
<path d="M74.7585 215.985C74.7868 215.97 74.7866 215.92 74.758 215.874C74.7295 215.828 74.6834 215.803 74.6551 215.819C74.6268 215.834 74.627 215.883 74.6555 215.929C74.6841 215.975 74.7302 216 74.7585 215.985Z" fill="#757B89"/>
<path d="M75.0295 216.13C75.0578 216.115 75.0575 216.065 75.029 216.02C75.0004 215.974 74.9544 215.949 74.9261 215.964C74.8978 215.979 74.898 216.029 74.9265 216.075C74.9551 216.12 75.0011 216.145 75.0295 216.13Z" fill="#757B89"/>
<path d="M75.5915 217.135C75.6198 217.12 75.6198 217.07 75.5913 217.024C75.5629 216.978 75.5168 216.953 75.4885 216.968C75.4602 216.983 75.4603 217.033 75.4887 217.079C75.5172 217.125 75.5632 217.15 75.5915 217.135Z" fill="#757B89"/>
<path d="M73.6727 215.445L72.934 215.054C72.909 215.036 72.8886 215.014 72.8746 214.987C72.8605 214.961 72.853 214.933 72.8527 214.903C72.8527 214.848 72.8897 214.821 72.934 214.848L73.6727 215.239C73.6976 215.256 73.7179 215.277 73.732 215.302C73.7462 215.327 73.7537 215.355 73.754 215.384C73.754 215.445 73.717 215.473 73.6727 215.445Z" fill="#757B89"/>
<path d="M90.2422 210.266L89.5626 210.63C89.5183 210.63 89.4813 210.63 89.4813 210.575C89.4833 210.548 89.4915 210.521 89.5056 210.498C89.5196 210.474 89.5391 210.453 89.5626 210.437L90.2422 210.074C90.2865 210.074 90.3161 210.074 90.3161 210.129C90.3174 210.156 90.3112 210.182 90.2983 210.206C90.2854 210.23 90.2661 210.251 90.2422 210.266Z" fill="#757B89"/>
<path d="M89.2006 210.828L88.521 211.192C88.4766 211.192 88.4397 211.192 88.4397 211.137C88.4399 211.11 88.4475 211.083 88.4616 211.059C88.4758 211.035 88.4962 211.015 88.521 211L89.2006 210.63C89.2449 210.63 89.2745 210.63 89.2745 210.684C89.2745 210.712 89.2679 210.739 89.2551 210.764C89.2423 210.789 89.2237 210.811 89.2006 210.828Z" fill="#757B89"/>
<path d="M76.2818 216.474L70.7488 213.504C70.2834 213.257 70.3425 212.818 70.8818 212.53L84.2157 205.361C84.4933 205.219 84.8027 205.139 85.1193 205.127C85.436 205.115 85.7512 205.172 86.0403 205.292L91.5733 208.256C92.0387 208.51 91.9796 208.942 91.4404 209.237L78.0769 216.399C77.8042 216.539 77.5003 216.619 77.1889 216.632C76.8775 216.645 76.5671 216.591 76.2818 216.474Z" fill="#20232D"/>
<path d="M91.003 208.379L88.846 207.22C88.7029 207.288 88.5447 207.323 88.3843 207.323C88.2238 207.323 88.0656 207.288 87.9226 207.22C87.8669 207.203 87.8186 207.169 87.7844 207.125C87.7501 207.081 87.7317 207.028 87.7317 206.973C87.7317 206.919 87.7501 206.865 87.7844 206.821C87.8186 206.777 87.8669 206.744 87.9226 206.726L85.7655 205.567C85.5815 205.479 85.3777 205.433 85.1708 205.433C84.964 205.433 84.7601 205.479 84.5762 205.567L71.5599 212.543C71.4878 212.566 71.425 212.609 71.3805 212.666C71.336 212.723 71.3121 212.792 71.3121 212.862C71.3121 212.933 71.336 213.002 71.3805 213.059C71.425 213.116 71.4878 213.159 71.5599 213.181L76.8048 215.987C76.9888 216.075 77.1926 216.121 77.3995 216.121C77.6063 216.121 77.8102 216.075 77.9942 215.987L91.003 209.011C91.0762 208.99 91.1404 208.949 91.186 208.892C91.2317 208.835 91.2563 208.766 91.2563 208.695C91.2563 208.624 91.2317 208.555 91.186 208.498C91.1404 208.441 91.0762 208.4 91.003 208.379Z" fill="#2B303F"/>
<path opacity="0.5" d="M91.003 208.379L88.846 207.22C88.7029 207.288 88.5447 207.323 88.3843 207.323C88.2238 207.323 88.0656 207.288 87.9226 207.22C87.8669 207.203 87.8186 207.169 87.7844 207.125C87.7501 207.081 87.7317 207.028 87.7317 206.973C87.7317 206.919 87.7501 206.865 87.7844 206.821C87.8186 206.777 87.8669 206.744 87.9226 206.726L85.7655 205.567C85.5815 205.479 85.3777 205.433 85.1708 205.433C84.964 205.433 84.7601 205.479 84.5762 205.567L71.5599 212.543C71.4878 212.566 71.425 212.609 71.3805 212.666C71.336 212.723 71.3121 212.792 71.3121 212.862C71.3121 212.933 71.336 213.002 71.3805 213.059C71.425 213.116 71.4878 213.159 71.5599 213.181L76.8048 215.987C76.9888 216.075 77.1926 216.121 77.3995 216.121C77.6063 216.121 77.8102 216.075 77.9942 215.987L91.003 209.011C91.0762 208.99 91.1404 208.949 91.186 208.892C91.2317 208.835 91.2563 208.766 91.2563 208.695C91.2563 208.624 91.2317 208.555 91.186 208.498C91.1404 208.441 91.0762 208.4 91.003 208.379Z" fill="url(#paint0_linear)"/>
<path d="M88.2403 207.179C88.379 207.179 88.4915 207.121 88.4915 207.049C88.4915 206.977 88.379 206.918 88.2403 206.918C88.1016 206.918 87.9891 206.977 87.9891 207.049C87.9891 207.121 88.1016 207.179 88.2403 207.179Z" fill="#2B303F"/>
<path opacity="0.1" d="M88.1664 207.089C88.122 207.089 88.122 207.035 88.1664 207.014C88.1883 207.001 88.214 206.993 88.2404 206.993C88.2668 206.993 88.2925 207.001 88.3144 207.014C88.3224 207.017 88.3291 207.023 88.3338 207.029C88.3386 207.036 88.3411 207.044 88.3411 207.052C88.3411 207.06 88.3386 207.067 88.3338 207.074C88.3291 207.081 88.3224 207.086 88.3144 207.089C88.2914 207.1 88.266 207.105 88.2404 207.105C88.2148 207.105 88.1895 207.1 88.1664 207.089Z" fill="white"/>
<path d="M84.8791 215.761C84.8791 215.761 87.834 213.312 87.6641 210.067C87.4868 207.803 86.0167 209.436 86.0167 209.436L84.5393 211.926C84.5393 211.926 83.0618 213.703 81.7026 214.107C80.6637 214.2 79.6306 214.342 78.6073 214.533C76.7901 214.862 74.9802 216.968 74.9802 216.968L77.322 218.635L84.8791 215.761Z" fill="#FFCEA9"/>
<path d="M313.713 95.0796L296.353 85.75C296.071 85.5732 295.749 85.4589 295.412 85.4161C295.075 85.3733 294.732 85.403 294.41 85.503C294.269 85.5563 294.137 85.6279 294.018 85.7157L290.834 87.4101L293.051 90.2639V105.582C293.051 107.832 294.528 110.446 296.345 111.42L311.659 119.652L312.161 122.869C312.265 122.821 314.902 121.415 315.737 120.962C315.817 120.928 315.894 120.887 315.966 120.839C316.321 120.541 316.597 120.17 316.77 119.755C316.943 119.341 317.009 118.894 316.963 118.452V100.917C317 98.6674 315.53 96.04 313.713 95.0796Z" fill="#D9DAE2"/>
<path d="M310.122 122.664L292.763 113.355C290.945 112.381 289.475 109.767 289.475 107.517V89.9895C289.475 87.7394 290.953 86.7104 292.763 87.6846L310.122 96.9867C311.94 97.9608 313.417 100.581 313.417 102.831V120.352C313.417 122.602 311.94 123.638 310.122 122.664Z" fill="#EFF0F9"/>
<path d="M294.595 96.5545C294.595 95.5666 294.897 94.9287 295.496 94.6337C296.094 94.3387 296.877 94.4485 297.845 94.9698C298.825 95.4952 299.641 96.2466 300.216 97.1513C300.801 98.0392 301.111 99.0601 301.11 100.101V100.897C301.11 101.892 300.815 102.53 300.216 102.818C299.618 103.106 298.835 102.982 297.867 102.461C296.886 101.938 296.069 101.186 295.496 100.279C294.909 99.3945 294.597 98.3759 294.595 97.3365V96.5545ZM296.574 98.4684C296.574 98.9082 296.697 99.3406 296.929 99.7238C297.143 100.102 297.469 100.416 297.867 100.629C298.251 100.835 298.554 100.863 298.783 100.712C298.911 100.594 299.009 100.45 299.068 100.292C299.127 100.134 299.146 99.9654 299.123 99.7993V98.9829C299.123 98.5449 299.006 98.1137 298.783 97.7275C298.571 97.3461 298.246 97.0294 297.845 96.8152C297.722 96.7261 297.574 96.6706 297.419 96.6548C297.264 96.6391 297.107 96.6637 296.966 96.726C296.73 96.87 296.611 97.1787 296.611 97.6589L296.574 98.4684ZM298.443 110.446L296.966 108.827L304.353 100.156L305.831 101.775L298.443 110.446ZM301.76 109.486C301.76 108.491 302.063 107.853 302.669 107.565C303.275 107.277 304.058 107.4 305.018 107.915C305.991 108.44 306.804 109.186 307.382 110.082C307.975 110.975 308.288 112.004 308.283 113.053V113.849C308.283 114.829 307.988 115.474 307.397 115.762C306.806 116.051 306.023 115.934 305.04 115.406C304.055 114.882 303.235 114.127 302.661 113.217C302.08 112.34 301.768 111.332 301.76 110.302V109.486ZM303.74 111.406C303.75 111.842 303.877 112.269 304.109 112.648C304.323 113.03 304.645 113.35 305.04 113.574C305.875 114.027 306.296 113.752 306.296 112.758V111.914C306.296 111.477 306.176 111.048 305.949 110.665C305.735 110.289 305.412 109.976 305.018 109.76C304.89 109.664 304.734 109.604 304.571 109.588C304.407 109.572 304.241 109.601 304.095 109.671C303.959 109.783 303.856 109.924 303.794 110.082C303.732 110.24 303.714 110.41 303.74 110.576V111.406Z" fill="#E26161"/>
<path d="M91.6458 46.1952L74.2858 36.8862C74.0041 36.7094 73.6823 36.5952 73.3454 36.5523C73.0085 36.5095 72.6655 36.5393 72.343 36.6393C72.2039 36.6956 72.0725 36.767 71.9515 36.8519L68.7676 38.5463L70.9837 41.4001V56.7185C70.9837 58.9686 72.4612 61.5822 74.2711 62.5563L89.5847 70.7883L90.0944 74.0125L93.6625 72.0986C93.7412 72.0638 93.8176 72.0249 93.8915 71.982C94.2501 71.6861 94.5282 71.3154 94.7028 70.9005C94.8774 70.4855 94.9437 70.038 94.8961 69.5947V52.0331C94.9405 49.783 93.463 47.1694 91.6458 46.1952Z" fill="#D9DAE2"/>
<path d="M88.063 73.7794L70.703 64.4841C68.8858 63.51 67.4083 60.8963 67.4083 58.6462V41.1121C67.4083 38.862 68.8858 37.8261 70.703 38.8003L88.063 48.1093C89.8802 49.0834 91.3503 51.6971 91.3503 53.9471V71.4676C91.3503 73.7176 89.8802 74.7741 88.063 73.7794Z" fill="#EFF0F9"/>
<path d="M79.383 48.0132L81.7321 54.3861L86.9992 58.0288L83.1874 59.9702L84.0887 66.0687L79.383 60.8963L74.67 61.0197L75.5712 55.8816L71.7594 49.8585L77.0265 51.8616L79.383 48.0132Z" fill="#F9CB07"/>
</g>
<defs>
<linearGradient id="paint0_linear" x1="67.972" y1="220.482" x2="74.2962" y2="208.632" gradientUnits="userSpaceOnUse">
<stop offset="0.21" stop-color="white" stop-opacity="0"/>
<stop offset="1" stop-color="white" stop-opacity="0.2"/>
</linearGradient>
<clipPath id="clip0">
<rect width="317" height="343" fill="white"/>
</clipPath>
</defs>
</svg>
