<svg width="742" height="467" viewBox="0 0 742 467" fill="none" xmlns="http://www.w3.org/2000/svg">
<g clip-path="url(#clip0)">
<path d="M299.682 39.4242L284.11 28.4021L234.865 0L36.633 16.8303L0.163606 37.9982L0 93.9704L5.19079 96.9711V97.0305L10.3816 99.9865V100.046L15.5724 102.987V103.047L20.8524 105.988L40.6042 117.381L40.4554 170.561L88.1095 198.042L103.682 204.028L147.781 179.191L160.691 186.634L176.264 192.947L211.424 173.146L211.499 143.303L299.534 93.7327L299.682 39.4242Z" fill="#D6D8E5"/>
<path d="M478.936 271.869L442.466 293.037L442.303 349.009L447.493 352.01V352.07L452.684 355.026V355.1L457.875 358.026V358.086L463.155 361.042L482.907 372.42L482.758 425.6L530.427 453.081L545.999 459.068L590.099 434.231L602.994 441.673L618.566 447.986L653.727 428.185L653.816 398.342L741.836 348.772L742 294.463L726.428 283.441L677.167 255.039L478.936 271.869Z" fill="#D6D8E5"/>
<path d="M450.914 281.377L451.673 280.931L456.284 278.168L458.054 277.054C459.184 276.356 460.299 275.657 461.385 274.959L463.304 273.712C464.3 273.073 465.267 272.419 466.279 271.78L468.167 270.488C469.09 269.864 469.997 269.225 470.889 268.602L472.659 267.339L475.262 265.423L476.868 264.219L479.516 262.14L480.78 261.13C482.044 260.105 483.264 259.095 484.424 258.07L485.911 256.837C486.462 256.346 486.967 255.856 487.488 255.351L488.217 254.668C489.228 253.717 490.18 252.767 491.087 251.816C491.295 251.608 491.489 251.385 491.682 251.177C492.381 250.419 493.065 249.692 493.705 248.919C493.958 248.637 494.211 248.34 494.449 248.043L495.073 247.315C495.594 246.676 496.085 246.052 496.561 245.413L496.769 245.131C497.498 244.151 498.182 243.17 498.806 242.16C499.163 241.596 499.52 241.031 499.848 240.467C499.996 240.214 500.115 239.947 500.264 239.694C500.413 239.442 500.725 238.848 500.933 238.417C501.142 237.986 501.499 237.273 501.766 236.709C502.034 236.144 502.138 235.877 502.302 235.461C502.465 235.045 502.48 235.06 502.555 234.867C502.822 234.198 503.045 233.545 503.268 232.876C503.556 231.955 503.794 231.034 503.982 230.113C503.982 230.009 504.057 229.89 504.087 229.772C504.116 229.653 504.087 229.43 504.161 229.252C504.25 228.821 504.31 228.39 504.369 227.974C504.429 227.558 504.458 227.335 504.488 227.009C504.518 226.682 504.562 226.147 504.592 225.716C504.622 225.285 504.592 225.315 504.592 225.107C504.592 224.899 504.592 224.647 504.592 224.409L504.741 170.1C504.741 170.531 504.741 170.962 504.741 171.408V171.853C505.116 165.663 503.409 159.525 499.892 154.414C494.835 146.63 485.227 138.772 471.068 130.84C468.867 129.622 466.606 128.478 464.449 127.364C462.724 126.413 460.999 125.492 459.258 124.616C457.518 123.739 455.808 122.729 454.068 121.838C441.687 114.788 428.337 109.593 414.445 106.419C400.292 103.295 385.729 102.463 371.312 103.953C355.917 105.554 340.791 109.123 326.306 114.574C309.561 120.99 293.387 128.802 277.953 137.925C261.156 147.67 247.844 156.974 238.018 165.837C228.191 174.7 221.994 183.336 219.426 191.744C218.54 194.63 218.118 197.638 218.177 200.656C218.177 200.463 218.177 200.255 218.177 200.047L218.013 256.035C218.094 261.962 219.937 267.733 223.308 272.612C228.563 280.654 238.102 288.635 251.924 296.558C253.679 297.568 255.434 298.548 257.189 299.529L258.915 300.405C260.09 301.014 261.28 301.623 262.47 302.203C263.154 302.544 263.853 302.841 264.552 303.168C265.608 303.673 266.679 304.178 267.735 304.654C268.493 304.995 269.222 305.292 269.995 305.604C271.007 306.02 272.003 306.466 272.97 306.852L273.178 306.941C273.535 307.09 273.892 307.194 274.249 307.342C275.737 307.922 277.224 308.486 278.8 309.006L280.823 309.675L284.675 310.878L285.746 311.205L287.516 311.68L288.929 312.051C290.491 312.452 292.067 312.839 293.629 313.18L294.938 313.448C296.053 313.685 297.154 313.893 298.27 314.086L298.969 314.22C300.387 314.468 301.8 314.691 303.208 314.889H303.46L304.159 315.007C305.567 315.265 306.98 315.488 308.398 315.676H308.651L309.35 315.81L313.589 316.478C313.673 316.471 313.758 316.471 313.842 316.478L314.541 316.597C316.028 316.849 317.397 317.072 318.839 317.265H319.345L320.52 317.414C321.74 317.562 322.959 317.696 324.194 317.815L325.592 317.949L326.588 318.038C327.719 318.142 328.864 318.201 329.994 318.275H330.336C331.645 318.35 332.954 318.394 334.263 318.424H340.078H341.566H342.384C343.366 318.424 344.347 318.335 345.359 318.275H346.667C348.274 318.171 349.88 318.053 351.486 317.889H351.858C353.752 317.701 355.656 317.478 357.57 317.221L359.488 316.924C360.767 316.731 362.046 316.552 363.325 316.329L363.801 316.255L365.913 315.854L368.888 315.275L371.536 314.681C372.532 314.458 373.543 314.25 374.51 313.997L377.187 313.329L380.162 312.542L382.884 311.769L385.859 310.863L386.691 310.625L389.369 309.749L391.094 309.199C392.879 308.59 394.678 307.981 396.463 307.313C413.264 301.109 429.525 293.538 445.084 284.674C447.067 283.545 449.011 282.426 450.914 281.317V281.377ZM504.592 172.626C504.592 172.938 504.518 173.265 504.473 173.576C504.429 173.888 504.339 174.438 504.265 174.869C504.265 174.869 504.265 174.958 504.265 175.002C504.426 174.212 504.546 173.414 504.622 172.611L504.592 172.626ZM504.116 175.73C503.922 176.664 503.679 177.586 503.387 178.493C503.679 177.586 503.922 176.664 504.116 175.73ZM221.137 212.525C220.973 212.198 220.854 211.872 220.72 211.545C220.958 212.109 221.211 212.674 221.508 213.223C221.375 212.986 221.241 212.763 221.137 212.525Z" fill="#D6D8E5"/>
<path d="M188.311 28.8625L188.147 84.8348L71.853 94.728L72.0166 38.7557L188.311 28.8625Z" fill="#653AB8"/>
<path d="M86.6519 87.8651L86.4883 143.837L0 93.9703L0.163606 37.998L86.6519 87.8651Z" fill="#4B2B89"/>
<path d="M284.11 28.4021L283.961 84.3744L169.303 150.923L169.467 94.936L284.11 28.4021Z" fill="#6C3EC5"/>
<path d="M160.84 130.646L160.691 186.634L134.142 171.318L134.306 115.346L160.84 130.646Z" fill="#4B2B89"/>
<path d="M196.001 110.251L195.852 166.223L160.691 186.634L160.84 130.646L196.001 110.251Z" fill="#6C3EC5"/>
<path d="M88.2732 142.07L88.1096 198.042L40.4555 170.561L40.6042 114.589L88.2732 142.07Z" fill="#4B2B89"/>
<path d="M134.306 115.346L134.143 171.318L88.1097 198.042L88.2733 142.07L134.306 115.346Z" fill="#6C3EC5"/>
<path d="M169.466 94.9508L196 110.251L160.854 130.661L134.305 115.331L88.2724 142.07L40.6778 114.589L86.785 87.8503L0.162842 37.9982L36.6322 16.8303L234.819 0L284.08 28.4021L169.466 94.9508ZM121.871 67.4697L188.37 28.8477L72.0753 38.7409L121.782 67.4697" fill="#7945DC"/>
<path d="M419.323 143.555C418.624 143.154 417.91 142.783 417.197 142.426L416.542 142.129C416.007 141.877 415.471 141.639 414.921 141.416L414.519 141.238L414.281 141.164C413.315 140.792 412.318 140.451 411.307 140.154L411.084 140.079L410.667 139.975C410.028 139.797 409.373 139.634 408.704 139.5L408.287 139.396H408.079C407.326 139.247 406.552 139.114 405.759 138.995C404.986 138.876 404.272 138.802 403.394 138.728H403.23H402.65L400.91 138.624H397.237C396.195 138.624 395.139 138.698 394.069 138.846H393.86L392.998 138.95L391.689 139.099L390.514 139.277L389.175 139.485L388.803 139.559H388.387C387.108 139.797 385.829 140.064 384.505 140.391C383.568 140.614 382.586 140.867 381.53 141.149L380.564 141.446L378.452 142.07L378.005 142.218L377.515 142.382C376.027 142.857 374.54 143.362 372.978 143.941L372.681 144.06C371.193 144.625 369.572 145.249 367.951 145.902L367.207 146.199C365.571 146.883 363.876 147.685 362.15 148.368L361.124 148.829C359.369 149.616 357.584 150.448 355.74 151.324L354.981 151.696C353.167 152.567 351.308 153.488 349.404 154.459L348.824 154.741C346.861 155.751 344.823 156.82 342.756 157.92L341.566 158.558C339.523 159.638 337.436 160.777 335.304 161.975L334.174 162.614C331.913 163.876 329.637 165.169 327.287 166.535L323.123 168.986L321.829 169.759L319.553 171.125L319.226 171.319C317.664 172.269 316.132 173.205 314.66 174.126L313.812 174.661L310.347 176.859L309.008 177.736L306.212 179.607L304.977 180.439C303.877 181.167 302.836 181.925 301.809 182.623L301.319 182.965C300.158 183.782 299.058 184.584 297.987 185.371L297.095 186.054L294.893 187.733L293.927 188.505L291.948 190.125L291.205 190.748C290.372 191.461 289.569 192.234 288.81 192.858C288.245 193.393 287.71 193.898 287.189 194.418L286.787 194.819L285.672 195.977L285.181 196.527L284.318 197.507L283.872 198.057L283.575 198.413C283.317 198.73 283.079 199.042 282.861 199.349C282.578 199.736 282.325 200.107 282.073 200.493L281.82 200.909L281.403 201.607C281.195 201.993 280.987 202.38 280.808 202.766L280.66 203.093C280.541 203.375 280.422 203.642 280.317 203.91V204.029C280.095 204.639 279.916 205.264 279.782 205.9C279.675 206.434 279.61 206.975 279.589 207.519C279.589 207.519 279.589 207.623 279.589 207.668C279.581 207.757 279.581 207.846 279.589 207.935L279.44 263.908C279.44 263.774 279.44 263.625 279.44 263.492C279.469 262.948 279.533 262.407 279.633 261.872C279.764 261.229 279.948 260.598 280.184 259.986C280.179 259.922 280.179 259.857 280.184 259.793L280.526 258.991C280.526 258.887 280.615 258.768 280.674 258.649C280.853 258.263 281.061 257.877 281.284 257.49C281.507 257.104 281.582 256.97 281.745 256.718C281.909 256.465 281.879 256.48 281.968 256.361C282.206 255.99 282.474 255.604 282.742 255.218C283.01 254.831 283.396 254.356 283.753 253.925C283.902 253.732 284.051 253.554 284.214 253.376C284.378 253.197 284.765 252.722 285.062 252.395L285.553 251.846L286.683 250.687L287.07 250.286C287.605 249.751 288.171 249.216 288.766 248.682C289.509 247.983 290.253 247.285 291.16 246.557L291.904 245.933C292.528 245.399 293.183 244.864 293.882 244.314L294.834 243.557C295.548 242.992 296.321 242.428 297.035 241.863L297.927 241.195C298.998 240.393 300.099 239.591 301.259 238.774L301.75 238.625C302.761 237.912 303.802 237.139 304.888 236.456L306.123 235.624L308.919 233.768L310.257 232.906L313.738 230.693L314.571 230.158C316.058 229.237 317.545 228.301 319.152 227.35L321.695 225.865L323.048 225.048L327.213 222.612C329.543 221.265 331.834 219.963 334.084 218.705L335.215 218.051C337.357 216.863 339.439 215.719 341.491 214.635L342.681 213.996C344.749 212.897 346.771 211.827 348.75 210.817L349.344 210.401C351.248 209.411 353.107 208.49 354.922 207.638L355.681 207.267C357.525 206.395 359.324 205.563 361.08 204.771L362.091 204.311C363.831 203.553 365.512 202.825 367.148 202.142L367.891 201.845C369.513 201.191 371.104 200.567 372.621 200.003L372.934 199.884C374.495 199.32 375.997 198.8 377.47 198.399L378.392 198.102C379.106 197.864 379.805 197.656 380.504 197.463L381.486 197.166C382.482 196.898 383.464 196.631 384.46 196.408C385.769 196.081 387.063 195.829 388.327 195.591L389.131 195.443L390.454 195.22L391.629 195.041L392.938 194.893L394.009 194.774C395.095 194.67 396.151 194.596 397.192 194.551H399.914H400.776C401.371 194.551 401.951 194.581 402.517 194.64H403.26C404.063 194.64 404.852 194.789 405.64 194.908C406.413 195.027 407.127 195.16 407.945 195.309L408.585 195.457C409.239 195.606 409.894 195.754 410.533 195.933L411.188 196.111C412.199 196.408 413.181 196.75 414.162 197.121L414.802 197.374C415.337 197.591 415.873 197.829 416.408 198.087C416.631 198.191 416.854 198.28 417.063 198.399C417.796 198.735 418.51 199.107 419.204 199.513C425.154 202.949 428.128 206.861 428.128 211.248L428.277 155.276C428.277 150.879 425.302 146.967 419.353 143.54" fill="#512E94"/>
<path d="M489.154 164.426C489.154 164.872 489.124 165.317 489.064 165.763C489.064 166.09 488.99 166.417 488.945 166.743C488.901 167.07 488.812 167.635 488.737 168.08L488.559 168.957C488.365 169.919 488.122 170.871 487.83 171.809C487.562 172.685 487.22 173.576 486.878 174.468C486.7 174.899 486.521 175.314 486.328 175.745C486.134 176.176 485.792 176.934 485.51 177.513L484.826 178.835C483.783 180.763 482.621 182.623 481.345 184.405L481.137 184.703C480.483 185.594 479.769 186.5 479.04 187.406L478.296 188.312C477.642 189.085 476.972 189.798 476.273 190.63L475.678 191.298C474.756 192.278 473.804 193.259 472.808 194.269L472.079 194.967C471.112 195.903 470.131 196.824 469.104 197.76C468.078 198.696 466.71 199.854 465.461 200.909L464.196 201.934C463.319 202.647 462.441 203.419 461.534 204.088L459.942 205.321L457.34 207.296L455.555 208.604L452.833 210.564L450.959 211.887L447.984 213.877L446.081 215.155L442.734 217.323C442.154 217.71 441.574 218.081 440.964 218.452C439.477 219.403 437.915 220.369 436.353 221.319L435.61 221.78C433.686 222.938 431.703 224.107 429.66 225.285C414.191 234.395 397.993 242.211 381.233 248.652C379.433 249.32 377.648 249.959 375.864 250.583L374.138 251.162L370.628 252.306L367.579 253.227L364.872 254.029L361.898 254.846C360.99 255.069 360.098 255.322 359.206 255.529C358.313 255.737 357.198 256.02 356.231 256.242C355.264 256.465 354.461 256.658 353.583 256.837C352.706 257.015 351.576 257.238 350.609 257.446L347.857 257.936L343.99 258.56L342.086 258.842C340.183 259.109 338.279 259.347 336.375 259.54C334.471 259.733 332.924 259.852 331.199 259.971H329.875C328.626 260.045 327.377 260.105 326.127 260.134H324.64C323.45 260.134 322.26 260.134 321.07 260.134H319.583C318.006 260.134 316.43 260.134 314.853 259.971H314.511C313.024 259.882 311.537 259.763 310.049 259.644L308.636 259.496C307.417 259.377 306.197 259.243 304.977 259.08L303.802 258.931C302.196 258.708 300.59 258.471 298.983 258.188L298.314 258.055C296.752 257.772 295.206 257.475 293.659 257.149C292.112 256.822 290.521 256.421 288.944 256.02L287.546 255.648L284.705 254.831C283.426 254.46 282.132 254.059 280.853 253.643L278.83 252.974C277.343 252.44 275.781 251.89 274.264 251.296C273.848 251.132 273.416 250.999 272.985 250.821C271.988 250.434 270.992 249.989 270.01 249.573L267.75 248.622C266.694 248.162 265.638 247.657 264.582 247.137L262.469 246.156C261.295 245.577 260.12 244.968 258.93 244.359L257.204 243.468C255.449 242.547 253.694 241.566 251.924 240.497C238.112 232.515 228.573 224.508 223.308 216.477C222.442 215.169 221.667 213.805 220.988 212.392C219.046 208.506 218.028 204.226 218.013 199.884L217.85 255.871C217.93 261.799 219.773 267.569 223.144 272.449C228.509 280.599 238.102 288.635 251.924 296.558C253.679 297.568 255.434 298.548 257.189 299.529L258.915 300.405C260.09 301.014 261.28 301.623 262.469 302.203C263.154 302.544 263.853 302.841 264.552 303.168C265.608 303.673 266.679 304.178 267.735 304.654L269.995 305.604C271.007 306.02 272.003 306.466 272.97 306.852L273.178 306.941C273.535 307.09 273.892 307.194 274.249 307.328C275.736 307.922 277.224 308.486 278.8 309.006L280.823 309.675C282.117 310.091 283.396 310.492 284.675 310.863L285.746 311.205L287.516 311.68L288.929 312.051C290.491 312.452 292.067 312.839 293.629 313.18L294.938 313.448C296.053 313.685 297.154 313.893 298.27 314.086L298.969 314.22C300.456 314.473 301.824 314.695 303.267 314.903H303.773L304.948 315.052C306.167 315.215 307.387 315.349 308.621 315.483L310.019 315.616L311.016 315.706C312.146 315.81 313.292 315.869 314.422 315.943H314.764C316.073 316.018 317.382 316.077 318.691 316.107H320.951C322.126 316.107 323.316 316.107 324.506 316.107H325.993H326.811C327.793 316.107 328.775 316.018 329.786 315.958H331.095C332.701 315.854 334.308 315.72 335.914 315.572H336.286C338.175 315.379 340.078 315.141 341.982 314.889L343.916 314.577C345.195 314.384 346.459 314.19 347.753 313.968L348.229 313.893L350.341 313.477C351.352 313.269 352.349 313.091 353.316 312.868C354.282 312.646 355.071 312.482 355.963 312.274L358.938 311.576L361.615 310.878L364.59 310.061C365.497 309.808 366.404 309.526 367.297 309.259C368.189 308.991 369.334 308.664 370.271 308.338L371.104 308.085L373.781 307.194L375.507 306.615C377.291 305.991 379.076 305.352 380.876 304.683C397.641 298.243 413.844 290.427 429.318 281.317C431.301 280.158 433.245 279.005 435.149 277.856H435.223L435.982 277.395L440.592 274.543L442.362 273.4L445.694 271.246L447.613 269.953C448.609 269.285 449.576 268.631 450.587 267.963L452.491 266.641C453.413 265.987 454.32 265.334 455.198 264.68C455.808 264.249 456.403 263.818 456.983 263.373C457.875 262.719 458.723 262.065 459.586 261.397L461.192 260.164C462.099 259.451 462.962 258.679 463.839 258.025L465.104 256.985C466.368 255.931 467.587 254.876 468.747 253.836L470.16 252.559C470.711 252.053 471.216 251.548 471.737 251.073L472.466 250.375C473.477 249.395 474.429 248.414 475.336 247.404L475.931 246.736C476.63 245.963 477.315 245.25 477.954 244.418L478.698 243.512C478.906 243.26 479.129 243.007 479.322 242.754C479.843 242.101 480.319 241.462 480.81 240.809L481.018 240.511C481.747 239.501 482.431 238.491 483.056 237.54C483.413 236.961 483.77 236.382 484.097 235.803C484.246 235.52 484.365 235.268 484.513 235C484.662 234.733 484.974 234.124 485.182 233.693C485.391 233.262 485.748 232.505 486.001 231.911C486.253 231.316 486.387 231.064 486.551 230.633C486.714 230.202 486.729 230.232 486.804 230.024C487.071 229.341 487.295 228.657 487.503 227.974C487.8 227.023 488.038 226.073 488.232 225.137C488.268 225.02 488.298 224.901 488.321 224.78C488.321 224.602 488.321 224.424 488.41 224.246C488.499 223.8 488.559 223.354 488.618 222.909C488.678 222.463 488.707 222.255 488.737 221.928C488.767 221.601 488.812 221.037 488.841 220.591C488.841 220.383 488.841 220.175 488.841 219.967C488.841 219.76 488.841 219.492 488.841 219.24L488.99 163.267C488.99 163.713 488.99 164.173 488.99 164.619" fill="#492A85"/>
<path d="M469.045 197.73C459.129 206.583 446.001 215.758 429.66 225.256C414.191 234.365 397.993 242.181 381.233 248.622C366.824 254.171 351.756 257.831 336.405 259.51C322.182 260.994 307.814 260.212 293.837 257.193C279.139 253.872 265.048 248.284 252.073 240.63C238.261 232.648 228.722 224.642 223.457 216.61C218.191 208.579 216.853 200.29 219.441 191.744C222.009 183.326 228.206 174.69 238.032 165.837C247.859 156.984 261.165 147.68 277.952 137.925C293.384 128.781 309.559 120.95 326.306 114.514C340.79 109.064 355.917 105.494 371.312 103.893C385.729 102.403 400.292 103.236 414.445 106.359C428.84 109.677 442.647 115.162 455.391 122.625C469.56 130.795 479.174 138.891 484.23 146.912C486.667 150.519 488.252 154.631 488.868 158.938C489.484 163.245 489.114 167.635 487.785 171.779C485.197 180.197 478.95 188.837 469.045 197.7V197.73ZM323.286 222.671C337.247 219.234 356.211 210.564 380.177 196.66C404.321 182.648 419.264 171.66 425.005 163.698C430.746 155.736 428.852 149.022 419.323 143.555C409.923 138.128 398.317 137.078 384.505 140.406C370.693 143.733 351.64 152.448 327.347 166.55C303.549 180.355 288.716 191.308 282.846 199.409C276.976 207.509 278.746 214.268 288.156 219.685C297.585 225.122 309.286 226.112 323.257 222.656" fill="#7945DC"/>
<path d="M630.614 283.902L630.45 339.874L514.171 349.782L514.334 293.81L630.614 283.902Z" fill="#653AB8"/>
<path d="M528.955 342.904L528.791 398.892L442.318 349.025L442.481 293.052L528.955 342.904Z" fill="#4B2B89"/>
<path d="M726.428 283.441L726.264 339.429L611.606 405.962L611.769 349.99L726.428 283.441Z" fill="#6C3EC5"/>
<path d="M603.158 385.701L602.994 441.673L576.46 426.373L576.609 370.4L603.158 385.701Z" fill="#4B2B89"/>
<path d="M638.318 365.291L638.154 421.263L602.994 441.673L603.158 385.701L638.318 365.291Z" fill="#6C3EC5"/>
<path d="M530.576 397.109L530.427 453.081L482.758 425.6L482.922 369.628L530.576 397.109Z" fill="#4B2B89"/>
<path d="M576.609 370.4L576.46 426.373L530.412 453.081L530.576 397.109L576.609 370.4Z" fill="#6C3EC5"/>
<path d="M611.784 350.034L638.318 365.35L603.158 385.686L576.624 370.385L530.591 397.124L482.922 369.643L528.955 342.904L442.481 293.037L478.951 271.869L677.182 255.039L726.428 283.441L611.784 350.034ZM564.115 322.553L630.629 283.931L514.349 293.825L564.115 322.524" fill="#7945DC"/>
<path d="M546.089 337.958C549.244 343.564 553.07 348.767 557.482 353.451C558.716 354.937 568.19 351.268 566.197 350.243C564.204 349.218 558.017 340.587 554.909 334.838C552.303 327.952 550.088 320.925 548.275 313.789C546.327 306.748 544.646 296.395 543.218 291.508C541.79 286.62 538.875 284.808 535.96 284.08C532.554 283.293 530.353 284.229 530.963 288.344C532.063 295.593 537.715 323.683 546.089 337.899" fill="#FFCEA9"/>
<path d="M540.66 448.075C543.635 450.467 547.918 448.283 548.097 448.506C551.55 451.7 555.169 454.709 558.939 457.523C560.769 459.008 563.624 460.88 563.119 463.658C562.182 468.59 554.195 467.074 551.22 465.559C548.245 464.044 545.791 461.549 542.965 459.781C540.943 458.533 538.964 457.894 538.637 455.324C538.459 453.839 540.035 448.001 540.571 448.061" fill="#2B2A30"/>
<path d="M538.771 454.284C539.158 456.721 541.121 457.389 543.129 458.637C545.999 460.419 548.528 462.989 551.517 464.504C554.507 466.02 561.17 467.297 563.119 463.762C562.063 468.53 554.195 467.03 551.309 465.529C548.424 464.029 545.88 461.519 543.054 459.751C541.032 458.503 539.054 457.849 538.741 455.294C538.698 454.954 538.698 454.61 538.741 454.27" fill="#BF4B4B"/>
<path d="M570.451 430.903C573.426 433.295 578.542 430.68 578.75 430.903C581.805 434 585.038 436.916 588.433 439.638C590.277 441.123 593.133 443.01 592.612 445.773C591.69 450.719 583.763 449.189 580.714 447.674C577.665 446.159 575.27 443.663 572.444 441.911C570.421 440.648 568.443 440.009 568.131 437.454C567.937 435.969 569.871 430.844 570.392 430.903" fill="#2B2A30"/>
<path d="M568.28 436.786C568.667 439.222 570.63 439.89 572.623 441.138C575.508 442.921 578.037 445.491 581.026 447.006C584.016 448.521 590.679 449.784 592.627 446.263C591.571 451.031 583.778 449.531 580.818 448.031C577.858 446.531 575.389 444.005 572.563 442.252C570.541 441.005 568.548 440.351 568.235 437.796C568.194 437.456 568.194 437.111 568.235 436.771" fill="#BF4B4B"/>
<path d="M501.365 353.986C498.078 374.307 507.15 381.883 518.9 386.206C527.318 389.31 539.411 394.093 539.411 394.093C539.411 394.093 539.247 398.55 539.158 408.562C539.068 417.371 540.229 449.546 540.229 449.546C540.229 449.546 545.107 452.071 549.227 449.442C549.227 449.442 553.971 424.798 554.968 413.687C556.336 398.609 558.657 388.746 557.943 385.463C557.258 382.611 540.764 374.5 535.529 370.162L570.094 381.734C569.406 385.478 569.067 389.277 569.083 393.083C569.41 405.056 570.064 430.948 570.064 430.948C570.064 430.948 574.809 434.364 578.855 430.948C578.855 430.948 587.555 379.684 586.499 372.896C585.488 366.464 555.028 353.302 549.673 348.772C548.722 348.02 547.621 347.478 546.444 347.184C545.267 346.889 544.04 346.848 542.846 347.064L501.365 353.986Z" fill="#E26D6D"/>
<path d="M584.253 362.453L561.021 349.084C560.818 348.967 560.587 348.905 560.352 348.905C560.117 348.905 559.886 348.967 559.683 349.084L518.9 372.554L542.787 386.325L584.253 362.453Z" fill="#F4F4F4"/>
<path d="M541.761 381.408L539.991 382.418C539.842 382.507 539.857 382.656 539.991 382.745L541.686 383.725C541.774 383.77 541.871 383.793 541.969 383.793C542.067 383.793 542.164 383.77 542.251 383.725L544.021 382.715C544.17 382.626 544.14 382.477 544.021 382.388L542.341 381.408C542.253 381.363 542.156 381.34 542.058 381.34C541.96 381.34 541.863 381.363 541.775 381.408" fill="#3A2C6D"/>
<path d="M544.259 379.952L542.489 380.977C542.341 381.066 542.37 381.214 542.489 381.304L544.185 382.284C544.27 382.328 544.364 382.351 544.46 382.351C544.556 382.351 544.65 382.328 544.735 382.284L546.505 381.259C546.654 381.259 546.639 381.036 546.505 380.947L544.81 379.967C544.722 379.923 544.625 379.901 544.527 379.901C544.429 379.901 544.332 379.923 544.244 379.967" fill="#3A2C6D"/>
<path d="M546.803 378.496L545.033 379.521C544.884 379.521 544.899 379.744 545.033 379.848L546.728 380.813C546.816 380.857 546.913 380.879 547.011 380.879C547.109 380.879 547.206 380.857 547.294 380.813L549.063 379.788C549.212 379.699 549.182 379.566 549.063 379.462L547.383 378.496C547.296 378.449 547.199 378.425 547.1 378.425C547.002 378.425 546.904 378.449 546.818 378.496" fill="#3A2C6D"/>
<path d="M549.272 377.07L547.502 378.095C547.353 378.169 547.383 378.318 547.502 378.407L549.197 379.387C549.284 379.427 549.377 379.448 549.472 379.448C549.568 379.448 549.661 379.427 549.748 379.387L551.518 378.362C551.666 378.273 551.652 378.125 551.518 378.036L549.822 377.055C549.734 377.011 549.638 376.988 549.539 376.988C549.441 376.988 549.344 377.011 549.257 377.055" fill="#3A2C6D"/>
<path d="M551.785 375.629L550.015 376.639C549.866 376.728 549.881 376.877 550.015 376.966L551.711 377.946C551.798 377.991 551.895 378.014 551.993 378.014C552.092 378.014 552.188 377.991 552.276 377.946L554.046 376.936C554.195 376.847 554.165 376.699 554.046 376.609L552.365 375.629C552.278 375.585 552.181 375.562 552.083 375.562C551.984 375.562 551.888 375.585 551.8 375.629" fill="#3A2C6D"/>
<path d="M554.284 374.173L552.514 375.198C552.365 375.287 552.395 375.421 552.514 375.525L554.209 376.49C554.293 376.537 554.388 376.562 554.485 376.562C554.581 376.562 554.676 376.537 554.76 376.49L556.53 375.466C556.678 375.391 556.663 375.243 556.53 375.139L554.834 374.173C554.746 374.13 554.649 374.107 554.551 374.107C554.453 374.107 554.357 374.13 554.269 374.173" fill="#3A2C6D"/>
<path d="M556.797 372.732L555.028 373.757C554.879 373.757 554.894 373.98 555.028 374.084L556.723 375.05C556.811 375.093 556.908 375.115 557.006 375.115C557.104 375.115 557.2 375.093 557.288 375.05L559.058 374.025C559.207 373.936 559.177 373.802 559.058 373.698L557.378 372.732C557.291 372.686 557.194 372.661 557.095 372.661C556.996 372.661 556.899 372.686 556.812 372.732" fill="#3A2C6D"/>
<path d="M559.296 371.291L557.571 372.316C557.437 372.406 557.452 372.554 557.571 372.643L559.267 373.624C559.354 373.668 559.451 373.691 559.549 373.691C559.647 373.691 559.744 373.668 559.832 373.624L561.602 372.614C561.736 372.524 561.721 372.376 561.602 372.287L559.906 371.306C559.819 371.262 559.722 371.239 559.624 371.239C559.525 371.239 559.429 371.262 559.341 371.306" fill="#3A2C6D"/>
<path d="M561.81 369.836L560.04 370.861C559.891 370.95 559.906 371.099 560.04 371.188L561.735 372.168C561.823 372.213 561.92 372.236 562.018 372.236C562.116 372.236 562.213 372.213 562.301 372.168L564.071 371.143C564.219 371.069 564.189 370.92 564.071 370.831L562.39 369.851C562.302 369.808 562.205 369.785 562.107 369.785C562.009 369.785 561.913 369.808 561.825 369.851" fill="#3A2C6D"/>
<path d="M564.308 368.395L562.539 369.42C562.405 369.494 562.42 369.643 562.539 369.747L564.234 370.712C564.322 370.756 564.419 370.778 564.517 370.778C564.615 370.778 564.711 370.756 564.799 370.712L566.569 369.687C566.703 369.613 566.688 369.465 566.569 369.361L564.874 368.395C564.787 368.348 564.69 368.324 564.591 368.324C564.492 368.324 564.395 368.348 564.308 368.395Z" fill="#3A2C6D"/>
<path d="M566.822 366.954L565.052 367.964C564.904 368.053 564.918 368.202 565.052 368.291L566.748 369.271C566.837 369.311 566.933 369.332 567.03 369.332C567.128 369.332 567.224 369.311 567.313 369.271L569.083 368.246C569.232 368.157 569.202 368.009 569.083 367.919L567.402 366.939C567.315 366.895 567.218 366.872 567.12 366.872C567.021 366.872 566.925 366.895 566.837 366.939" fill="#3A2C6D"/>
<path d="M569.321 365.498L567.551 366.523C567.417 366.612 567.432 366.761 567.551 366.85L569.247 367.831C569.334 367.875 569.431 367.898 569.529 367.898C569.627 367.898 569.724 367.875 569.812 367.831L571.582 366.82C571.716 366.731 571.701 366.583 571.582 366.494L569.886 365.513C569.797 365.473 569.701 365.452 569.604 365.452C569.506 365.452 569.41 365.473 569.321 365.513" fill="#3A2C6D"/>
<path d="M571.834 364.057L570.064 365.082C569.916 365.172 569.93 365.305 570.064 365.409L571.76 366.375C571.847 366.422 571.944 366.446 572.043 366.446C572.141 366.446 572.238 366.422 572.325 366.375L574.095 365.35C574.244 365.275 574.214 365.127 574.095 365.023L572.414 364.057C572.327 364.014 572.23 363.992 572.132 363.992C572.034 363.992 571.937 364.014 571.849 364.057" fill="#3A2C6D"/>
<path d="M575.538 361.918L572.563 363.642C572.414 363.642 572.444 363.864 572.563 363.968L574.259 364.934C574.344 364.977 574.438 365 574.534 365C574.629 365 574.724 364.977 574.809 364.934L577.784 363.211C577.917 363.137 577.903 362.988 577.784 362.884L576.088 361.918C576.001 361.872 575.904 361.847 575.805 361.847C575.707 361.847 575.61 361.872 575.523 361.918" fill="#3A2C6D"/>
<path d="M543.04 377.857L541.27 378.882C541.136 378.957 541.151 379.105 541.27 379.209L542.965 380.175C543.053 380.218 543.15 380.24 543.248 380.24C543.346 380.24 543.443 380.218 543.531 380.175L545.3 379.15C545.434 379.061 545.419 378.927 545.3 378.823L543.605 377.857C543.518 377.811 543.421 377.786 543.322 377.786C543.224 377.786 543.127 377.811 543.04 377.857Z" fill="#3A2C6D"/>
<path d="M545.553 376.417L543.784 377.427C543.635 377.516 543.665 377.664 543.784 377.754L545.464 378.734C545.552 378.778 545.649 378.801 545.747 378.801C545.845 378.801 545.942 378.778 546.029 378.734L547.799 377.724C547.948 377.635 547.933 377.486 547.799 377.397L546.104 376.417C546.016 376.372 545.919 376.349 545.821 376.349C545.723 376.349 545.626 376.372 545.539 376.417" fill="#3A2C6D"/>
<path d="M548.067 374.961L546.297 375.986C546.148 375.986 546.163 376.209 546.297 376.313L547.977 377.278C548.064 377.325 548.161 377.349 548.26 377.349C548.359 377.349 548.456 377.325 548.543 377.278L550.312 376.253C550.461 376.179 550.446 376.03 550.312 375.926L548.647 374.991C548.559 374.947 548.462 374.925 548.364 374.925C548.266 374.925 548.169 374.947 548.082 374.991" fill="#3A2C6D"/>
<path d="M550.581 373.52L548.811 374.53C548.662 374.619 548.677 374.767 548.811 374.857L550.506 375.837C550.594 375.881 550.691 375.904 550.789 375.904C550.887 375.904 550.984 375.881 551.071 375.837L552.841 374.827C552.99 374.738 552.96 374.589 552.841 374.5L551.161 373.52C551.073 373.475 550.976 373.452 550.878 373.452C550.78 373.452 550.683 373.475 550.595 373.52" fill="#3A2C6D"/>
<path d="M553.109 372.079L551.339 373.104C551.19 373.178 551.22 373.327 551.339 373.431L553.019 374.396C553.107 374.44 553.204 374.462 553.302 374.462C553.4 374.462 553.497 374.44 553.585 374.396L555.354 373.371C555.503 373.282 555.488 373.149 555.354 373.045L553.659 372.079C553.572 372.032 553.475 372.008 553.376 372.008C553.278 372.008 553.181 372.032 553.094 372.079" fill="#3A2C6D"/>
<path d="M555.578 370.638L553.808 371.648C553.659 371.737 553.689 371.886 553.808 371.975L555.489 372.955C555.576 373 555.673 373.023 555.771 373.023C555.869 373.023 555.966 373 556.054 372.955L557.824 371.945C557.972 371.856 557.958 371.707 557.824 371.618L556.128 370.638C556.041 370.593 555.944 370.57 555.846 370.57C555.747 370.57 555.651 370.593 555.563 370.638" fill="#3A2C6D"/>
<path d="M558.091 369.182L556.321 370.207C556.173 370.281 556.188 370.43 556.321 370.534L558.017 371.5C558.105 371.543 558.202 371.565 558.3 371.565C558.398 371.565 558.494 371.543 558.582 371.5L560.352 370.475C560.501 370.475 560.471 370.252 560.352 370.148L558.671 369.182C558.585 369.135 558.487 369.111 558.389 369.111C558.29 369.111 558.193 369.135 558.106 369.182" fill="#3A2C6D"/>
<path d="M560.546 367.741L558.776 368.751C558.627 368.841 558.642 368.989 558.776 369.078L560.471 370.059C560.559 370.103 560.656 370.126 560.754 370.126C560.852 370.126 560.949 370.103 561.036 370.059L562.806 369.048C562.955 368.959 562.925 368.811 562.806 368.722L561.126 367.741C561.038 367.697 560.941 367.674 560.843 367.674C560.745 367.674 560.648 367.697 560.56 367.741" fill="#3A2C6D"/>
<path d="M563.104 366.286L561.334 367.311C561.2 367.4 561.215 367.533 561.334 367.637L563.029 368.603C563.116 368.65 563.213 368.674 563.312 368.674C563.411 368.674 563.508 368.65 563.595 368.603L565.364 367.578C565.498 367.504 565.483 367.355 565.364 367.251L563.669 366.375C563.581 366.332 563.484 366.309 563.386 366.309C563.288 366.309 563.192 366.332 563.104 366.375" fill="#3A2C6D"/>
<path d="M565.617 364.889L563.847 365.899C563.698 365.989 563.728 366.137 563.847 366.226L565.543 367.207C565.628 367.251 565.722 367.274 565.818 367.274C565.914 367.274 566.008 367.251 566.093 367.207L567.863 366.197C568.012 366.107 567.997 365.959 567.863 365.87L566.168 364.889C566.08 364.845 565.983 364.822 565.885 364.822C565.787 364.822 565.69 364.845 565.602 364.889" fill="#3A2C6D"/>
<path d="M568.131 363.404L566.361 364.429C566.212 364.518 566.227 364.652 566.361 364.756L568.042 365.736C568.129 365.78 568.226 365.804 568.324 365.804C568.423 365.804 568.519 365.78 568.607 365.736L570.377 364.711C570.526 364.637 570.511 364.488 570.377 364.384L568.696 363.419C568.608 363.376 568.512 363.353 568.414 363.353C568.316 363.353 568.219 363.376 568.131 363.419" fill="#3A2C6D"/>
<path d="M570.644 361.918L568.874 362.943C568.726 363.018 568.741 363.166 568.874 363.255L570.555 364.236C570.644 364.276 570.74 364.297 570.838 364.297C570.935 364.297 571.032 364.276 571.12 364.236L572.89 363.211C573.039 363.121 573.024 362.973 572.89 362.884L571.21 361.903C571.122 361.859 571.025 361.836 570.927 361.836C570.829 361.836 570.732 361.859 570.644 361.903" fill="#3A2C6D"/>
<path d="M540.541 379.313L537.566 381.021C537.432 381.11 537.447 381.259 537.566 381.348L539.262 382.328C539.349 382.373 539.446 382.396 539.544 382.396C539.643 382.396 539.739 382.373 539.827 382.328L542.802 380.62C542.936 380.531 542.921 380.383 542.802 380.293L541.106 379.313C541.021 379.269 540.927 379.246 540.831 379.246C540.735 379.246 540.641 379.269 540.556 379.313" fill="#3A2C6D"/>
<path d="M575.419 361.829L573.649 362.854C573.567 362.891 573.478 362.91 573.389 362.91C573.299 362.91 573.21 362.891 573.128 362.854L571.343 361.814C571.304 361.814 571.266 361.799 571.238 361.771C571.21 361.743 571.195 361.705 571.195 361.666C571.195 361.626 571.21 361.589 571.238 361.561C571.266 361.533 571.304 361.517 571.343 361.517L571.477 361.428C571.611 361.354 571.611 361.235 571.477 361.146L569.588 360.062C569.549 360.062 569.511 360.046 569.483 360.018C569.455 359.99 569.44 359.952 569.44 359.913C569.44 359.874 569.455 359.836 569.483 359.808C569.511 359.78 569.549 359.764 569.588 359.764L570.719 359.111C570.8 359.07 570.889 359.049 570.979 359.049C571.069 359.049 571.159 359.07 571.239 359.111L573.009 360.136L573.366 360.344L573.634 360.492L573.902 360.641L575.389 361.517C575.538 361.606 575.538 361.74 575.389 361.829" fill="#3A2C6D"/>
<path d="M532.048 375.793L530.278 376.817C530.13 376.892 530.159 377.04 530.278 377.144L531.959 378.11C532.047 378.153 532.144 378.176 532.242 378.176C532.34 378.176 532.436 378.153 532.524 378.11L534.294 377.085C534.443 376.996 534.428 376.862 534.294 376.758L532.599 375.793C532.512 375.746 532.415 375.721 532.316 375.721C532.217 375.721 532.12 375.746 532.033 375.793" fill="#3A2C6D"/>
<path d="M534.547 374.352L532.777 375.377C532.628 375.451 532.658 375.599 532.777 375.703L534.458 376.669C534.546 376.712 534.642 376.735 534.74 376.735C534.838 376.735 534.935 376.712 535.023 376.669L536.793 375.644C536.942 375.57 536.927 375.421 536.793 375.317L535.097 374.352C535.01 374.305 534.913 374.28 534.815 374.28C534.716 374.28 534.619 374.305 534.532 374.352" fill="#3A2C6D"/>
<path d="M537.046 372.911L535.276 373.936C535.127 374.01 535.157 374.158 535.276 374.262L536.971 375.228C537.057 375.271 537.151 375.294 537.247 375.294C537.342 375.294 537.436 375.271 537.522 375.228L539.292 374.203C539.44 374.129 539.425 373.98 539.292 373.876L537.596 372.911C537.509 372.864 537.412 372.839 537.313 372.839C537.215 372.839 537.118 372.864 537.031 372.911" fill="#3A2C6D"/>
<path d="M558.33 360.641L556.56 361.666C556.411 361.74 556.441 361.888 556.56 361.978L558.24 362.958C558.328 363.001 558.425 363.024 558.523 363.024C558.621 363.024 558.717 363.001 558.805 362.958L560.575 361.933C560.724 361.844 560.709 361.71 560.575 361.606L558.88 360.641C558.793 360.594 558.696 360.569 558.597 360.569C558.499 360.569 558.401 360.594 558.315 360.641" fill="#3A2C6D"/>
<path d="M560.828 359.2L559.058 360.225C558.91 360.299 558.939 360.448 559.058 360.537L560.739 361.517C560.827 361.561 560.924 361.583 561.022 361.583C561.12 361.583 561.216 361.561 561.304 361.517L563.074 360.492C563.223 360.403 563.208 360.255 563.074 360.166L561.379 359.185C561.291 359.141 561.194 359.118 561.096 359.118C560.998 359.118 560.901 359.141 560.813 359.185" fill="#3A2C6D"/>
<path d="M563.327 357.759L561.557 358.784C561.408 358.858 561.438 359.007 561.557 359.111L563.238 360.076C563.326 360.119 563.422 360.142 563.52 360.142C563.618 360.142 563.715 360.119 563.803 360.076L565.573 359.051C565.721 358.962 565.707 358.828 565.573 358.724L563.877 357.759C563.79 357.712 563.693 357.688 563.595 357.688C563.496 357.688 563.399 357.712 563.312 357.759" fill="#3A2C6D"/>
<path d="M565.826 356.318L564.056 357.343C563.907 357.418 563.937 357.566 564.056 357.655L565.736 358.636C565.824 358.679 565.921 358.701 566.019 358.701C566.117 358.701 566.214 358.679 566.302 358.636L568.071 357.611C568.22 357.522 568.205 357.373 568.071 357.284L566.376 356.318C566.289 356.272 566.192 356.247 566.093 356.247C565.995 356.247 565.898 356.272 565.811 356.318" fill="#3A2C6D"/>
<path d="M540.184 371.099L537.775 372.495C537.626 372.569 537.656 372.718 537.775 372.822L539.455 373.787C539.543 373.831 539.64 373.853 539.738 373.853C539.836 373.853 539.933 373.831 540.02 373.787L542.445 372.391C542.579 372.302 542.564 372.168 542.445 372.064L540.749 371.099C540.662 371.052 540.565 371.027 540.467 371.027C540.368 371.027 540.271 371.052 540.184 371.099Z" fill="#3A2C6D"/>
<path d="M555.831 362.082L553.421 363.478C553.272 363.552 553.287 363.701 553.421 363.805L555.117 364.77C555.205 364.814 555.301 364.836 555.399 364.836C555.497 364.836 555.594 364.814 555.682 364.77L558.091 363.374C558.24 363.285 558.225 363.151 558.091 363.047L556.396 362.082C556.309 362.035 556.212 362.01 556.113 362.01C556.015 362.01 555.917 362.035 555.831 362.082Z" fill="#3A2C6D"/>
<path d="M552.693 363.894L540.913 370.683C540.779 370.757 540.794 370.905 540.913 371.009L542.608 371.975C542.696 372.018 542.793 372.041 542.891 372.041C542.989 372.041 543.086 372.018 543.174 371.975L554.938 365.186C555.087 365.097 555.057 364.964 554.938 364.86L553.258 363.894C553.171 363.847 553.074 363.823 552.975 363.823C552.876 363.823 552.779 363.847 552.693 363.894Z" fill="#3A2C6D"/>
<path d="M541.299 376.06L539.53 377.085C539.381 377.174 539.396 377.308 539.53 377.412L541.21 378.377C541.297 378.424 541.394 378.448 541.493 378.448C541.591 378.448 541.689 378.424 541.775 378.377L543.545 377.352C543.694 377.278 543.679 377.129 543.545 377.025L541.865 376.06C541.777 376.017 541.68 375.994 541.582 375.994C541.484 375.994 541.387 376.017 541.299 376.06Z" fill="#3A2C6D"/>
<path d="M543.798 374.619L542.028 375.644C541.894 375.718 541.909 375.867 542.028 375.971L543.724 376.936C543.809 376.98 543.903 377.002 543.999 377.002C544.095 377.002 544.189 376.98 544.274 376.936L546.044 375.912C546.193 375.837 546.178 375.689 546.044 375.585L544.348 374.619C544.262 374.572 544.165 374.548 544.066 374.548C543.967 374.548 543.87 374.572 543.783 374.619" fill="#3A2C6D"/>
<path d="M546.297 373.178L544.542 374.203C544.393 374.277 544.408 374.426 544.542 374.53L546.237 375.496C546.325 375.539 546.422 375.561 546.52 375.561C546.618 375.561 546.715 375.539 546.803 375.496L548.573 374.471C548.706 374.381 548.692 374.248 548.573 374.144L546.877 373.178C546.79 373.131 546.693 373.107 546.594 373.107C546.496 373.107 546.399 373.131 546.312 373.178" fill="#3A2C6D"/>
<path d="M548.811 371.737L547.041 372.748C546.892 372.837 546.907 372.985 547.041 373.074L548.721 374.055C548.809 374.099 548.906 374.122 549.004 374.122C549.102 374.122 549.199 374.099 549.286 374.055L551.056 373.045C551.205 372.955 551.19 372.807 551.056 372.718L549.376 371.737C549.288 371.693 549.191 371.67 549.093 371.67C548.995 371.67 548.898 371.693 548.811 371.737Z" fill="#3A2C6D"/>
<path d="M551.309 370.297L549.539 371.307C549.39 371.396 549.42 371.544 549.539 371.633L551.22 372.614C551.307 372.658 551.404 372.681 551.502 372.681C551.601 372.681 551.697 372.658 551.785 372.614L553.555 371.604C553.704 371.515 553.689 371.366 553.555 371.277L551.859 370.297C551.772 370.252 551.675 370.229 551.577 370.229C551.479 370.229 551.382 370.252 551.294 370.297" fill="#3A2C6D"/>
<path d="M553.808 368.841L552.038 369.866C551.904 369.955 551.919 370.103 552.038 370.192L553.734 371.173C553.821 371.217 553.918 371.24 554.016 371.24C554.114 371.24 554.211 371.217 554.299 371.173L556.069 370.163C556.203 370.073 556.188 369.925 556.069 369.836L554.373 368.855C554.284 368.815 554.188 368.794 554.091 368.794C553.993 368.794 553.897 368.815 553.808 368.855" fill="#3A2C6D"/>
<path d="M556.322 367.4L554.552 368.425C554.403 368.514 554.418 368.648 554.552 368.751L556.232 369.717C556.319 369.764 556.416 369.788 556.515 369.788C556.614 369.788 556.711 369.764 556.798 369.717L558.567 368.692C558.716 368.618 558.701 368.469 558.567 368.365L556.887 367.4C556.799 367.356 556.702 367.334 556.604 367.334C556.506 367.334 556.409 367.356 556.322 367.4Z" fill="#3A2C6D"/>
<path d="M558.82 365.959L557.05 366.984C556.902 366.984 556.931 367.207 557.05 367.311L558.731 368.276C558.819 368.32 558.916 368.342 559.014 368.342C559.112 368.342 559.208 368.32 559.296 368.276L561.066 367.251C561.215 367.162 561.2 367.029 561.066 366.925L559.371 365.959C559.284 365.912 559.187 365.888 559.088 365.888C558.989 365.888 558.892 365.912 558.805 365.959" fill="#3A2C6D"/>
<path d="M561.319 364.518L559.549 365.543C559.415 365.617 559.43 365.766 559.549 365.855L561.245 366.835C561.332 366.878 561.429 366.901 561.527 366.901C561.625 366.901 561.722 366.878 561.81 366.835L563.58 365.81C563.713 365.721 563.699 365.587 563.58 365.483L561.884 364.503C561.796 364.459 561.7 364.436 561.601 364.436C561.503 364.436 561.406 364.459 561.319 364.503" fill="#3A2C6D"/>
<path d="M563.832 363.077L562.062 364.087C561.914 364.176 561.929 364.325 562.062 364.414L563.758 365.394C563.846 365.438 563.942 365.462 564.041 365.462C564.139 365.462 564.236 365.438 564.323 365.394L566.093 364.384C566.242 364.295 566.212 364.146 566.093 364.057L564.412 363.077C564.325 363.032 564.228 363.009 564.13 363.009C564.032 363.009 563.935 363.032 563.847 363.077" fill="#3A2C6D"/>
<path d="M566.331 361.621L564.561 362.646C564.413 362.735 564.442 362.884 564.561 362.973L566.242 363.954C566.329 363.998 566.426 364.021 566.524 364.021C566.623 364.021 566.72 363.998 566.807 363.954L568.577 362.943C568.726 362.854 568.711 362.706 568.577 362.617L566.881 361.636C566.793 361.596 566.696 361.575 566.599 361.575C566.501 361.575 566.405 361.596 566.316 361.636" fill="#3A2C6D"/>
<path d="M568.83 360.18L567.06 361.205C566.926 361.294 566.941 361.443 567.06 361.532L568.756 362.512C568.843 362.557 568.94 362.58 569.038 362.58C569.137 362.58 569.233 362.557 569.321 362.512L571.091 361.487C571.225 361.413 571.21 361.265 571.091 361.176L569.395 360.195C569.307 360.152 569.211 360.129 569.113 360.129C569.015 360.129 568.918 360.152 568.83 360.195" fill="#3A2C6D"/>
<path d="M538.801 377.516L535.127 379.625C534.993 379.7 535.008 379.848 535.127 379.952L536.822 380.918C536.91 380.961 537.007 380.983 537.105 380.983C537.203 380.983 537.3 380.961 537.388 380.918L541.047 378.808C541.18 378.719 541.166 378.571 541.047 378.481L539.366 377.501C539.278 377.457 539.181 377.434 539.083 377.434C538.985 377.434 538.888 377.457 538.801 377.501" fill="#3A2C6D"/>
<path d="M537.626 375.377L535.856 376.402C535.707 376.491 535.722 376.625 535.856 376.729L537.536 377.694C537.623 377.741 537.72 377.765 537.819 377.765C537.918 377.765 538.015 377.741 538.102 377.694L539.872 376.669C540.02 376.595 540.005 376.446 539.872 376.342L538.191 375.377C538.103 375.334 538.006 375.311 537.908 375.311C537.81 375.311 537.714 375.334 537.626 375.377Z" fill="#3A2C6D"/>
<path d="M540.124 373.936L538.354 374.961C538.221 375.035 538.235 375.183 538.354 375.287L540.05 376.253C540.138 376.296 540.235 376.319 540.333 376.319C540.431 376.319 540.527 376.296 540.615 376.253L542.37 375.228C542.519 375.139 542.504 375.005 542.37 374.901L540.675 373.936C540.588 373.889 540.491 373.864 540.392 373.864C540.293 373.864 540.196 373.889 540.11 373.936" fill="#3A2C6D"/>
<path d="M542.698 372.495L540.928 373.52C540.779 373.594 540.794 373.742 540.928 373.846L542.623 374.812C542.711 374.855 542.808 374.878 542.906 374.878C543.004 374.878 543.1 374.855 543.188 374.812L544.958 373.787C545.107 373.698 545.077 373.564 544.958 373.46L543.278 372.495C543.191 372.448 543.094 372.423 542.995 372.423C542.896 372.423 542.799 372.448 542.712 372.495" fill="#3A2C6D"/>
<path d="M545.137 371.054L543.367 372.064C543.218 372.153 543.233 372.302 543.367 372.391L545.048 373.371C545.135 373.415 545.232 373.439 545.33 373.439C545.428 373.439 545.525 373.415 545.613 373.371L547.383 372.361C547.532 372.272 547.517 372.123 547.383 372.034L545.702 371.054C545.614 371.009 545.518 370.986 545.419 370.986C545.321 370.986 545.224 371.009 545.137 371.054Z" fill="#3A2C6D"/>
<path d="M547.636 369.613L545.866 370.623C545.717 370.712 545.747 370.861 545.866 370.95L547.546 371.93C547.634 371.975 547.731 371.998 547.829 371.998C547.927 371.998 548.024 371.975 548.112 371.93L549.881 370.92C550.03 370.831 550.015 370.682 549.881 370.593L548.186 369.613C548.098 369.569 548.001 369.545 547.903 369.545C547.805 369.545 547.708 369.569 547.621 369.613" fill="#3A2C6D"/>
<path d="M550.134 368.158L548.364 369.182C548.23 369.272 548.245 369.42 548.364 369.509L550.06 370.49C550.147 370.534 550.244 370.557 550.342 370.557C550.441 370.557 550.537 370.534 550.625 370.49L552.395 369.48C552.529 369.39 552.514 369.242 552.395 369.153L550.699 368.172C550.611 368.132 550.514 368.111 550.417 368.111C550.319 368.111 550.223 368.132 550.134 368.172" fill="#3A2C6D"/>
<path d="M552.648 366.717L550.878 367.742C550.729 367.831 550.744 367.964 550.878 368.068L552.573 369.034C552.66 369.081 552.757 369.105 552.856 369.105C552.955 369.105 553.052 369.081 553.139 369.034L554.908 368.009C555.057 367.935 555.027 367.786 554.908 367.682L553.228 366.717C553.14 366.673 553.043 366.651 552.945 366.651C552.847 366.651 552.751 366.673 552.663 366.717" fill="#3A2C6D"/>
<path d="M555.146 365.275L553.377 366.3C553.228 366.375 553.258 366.523 553.377 366.627L555.057 367.593C555.145 367.636 555.242 367.658 555.34 367.658C555.438 367.658 555.534 367.636 555.622 367.593L557.392 366.568C557.541 366.479 557.526 366.345 557.392 366.241L555.697 365.275C555.61 365.229 555.513 365.204 555.414 365.204C555.315 365.204 555.218 365.229 555.132 365.275" fill="#3A2C6D"/>
<path d="M557.645 363.834L555.875 364.859C555.741 364.859 555.756 365.082 555.875 365.186L557.571 366.152C557.659 366.195 557.755 366.218 557.853 366.218C557.951 366.218 558.048 366.195 558.136 366.152L559.891 365.127C560.04 365.038 560.025 364.904 559.891 364.8L558.196 363.834C558.109 363.788 558.012 363.763 557.913 363.763C557.814 363.763 557.717 363.788 557.63 363.834" fill="#3A2C6D"/>
<path d="M560.159 362.394L558.389 363.404C558.24 363.493 558.255 363.642 558.389 363.731L560.085 364.711C560.173 364.751 560.27 364.772 560.367 364.772C560.465 364.772 560.561 364.751 560.65 364.711L562.42 363.686C562.568 363.597 562.539 363.449 562.42 363.359L560.739 362.379C560.651 362.335 560.555 362.312 560.456 362.312C560.358 362.312 560.261 362.335 560.174 362.379" fill="#3A2C6D"/>
<path d="M562.658 360.953L560.888 361.963C560.739 362.052 560.754 362.201 560.888 362.29L562.568 363.27C562.656 363.314 562.753 363.338 562.851 363.338C562.949 363.338 563.046 363.314 563.133 363.27L564.903 362.26C565.052 362.171 565.037 362.022 564.903 361.933L563.223 360.953C563.135 360.908 563.038 360.885 562.94 360.885C562.842 360.885 562.745 360.908 562.658 360.953Z" fill="#3A2C6D"/>
<path d="M568.25 357.714L563.386 360.522C563.238 360.611 563.267 360.76 563.386 360.849L565.067 361.829C565.155 361.874 565.251 361.897 565.35 361.897C565.448 361.897 565.545 361.874 565.632 361.829L570.511 359.022C570.644 358.947 570.63 358.799 570.511 358.695L568.815 357.729C568.727 357.686 568.63 357.664 568.532 357.664C568.434 357.664 568.338 357.686 568.25 357.729" fill="#3A2C6D"/>
<path d="M535.127 376.773L532.703 378.169C532.569 378.258 532.584 378.407 532.703 378.496L534.398 379.476C534.486 379.521 534.583 379.544 534.681 379.544C534.779 379.544 534.876 379.521 534.963 379.476L537.373 378.08C537.522 378.006 537.492 377.857 537.373 377.768L535.692 376.788C535.604 376.747 535.507 376.727 535.41 376.727C535.312 376.727 535.216 376.747 535.127 376.788" fill="#3A2C6D"/>
<path d="M578.066 363.404L542.519 383.903C542.37 383.977 542.385 384.126 542.519 384.23L543.367 384.705C543.455 384.748 543.551 384.771 543.649 384.771C543.747 384.771 543.844 384.748 543.932 384.705L579.479 364.206C579.628 364.117 579.598 363.968 579.479 363.879L578.631 363.389C578.546 363.344 578.452 363.321 578.356 363.321C578.26 363.321 578.166 363.344 578.081 363.389" fill="#3A2C6D"/>
<path d="M536.466 364.28L536.689 364.414L542.831 367.949L553.748 361.651L553.972 361.532L547.606 357.848L536.466 364.28Z" fill="#BFBFBF"/>
<path d="M536.689 364.414L542.831 367.949L553.748 361.651L547.606 358.116L536.689 364.414Z" fill="#E5E5E5"/>
<path d="M518.9 372.554V373.089C518.9 373.482 519.003 373.869 519.199 374.21C519.395 374.552 519.676 374.836 520.016 375.035L541.671 387.513C542.008 387.713 542.394 387.816 542.787 387.81C543.183 387.814 543.574 387.711 543.917 387.513L583.123 364.889C583.466 364.693 583.752 364.41 583.95 364.068C584.149 363.727 584.253 363.339 584.253 362.943V362.409L542.831 386.28L518.9 372.554Z" fill="#E5E5E5"/>
<path d="M543.471 386.666C543.842 386.807 544.24 386.864 544.636 386.833C545.032 386.802 545.416 386.685 545.761 386.488L584.759 363.998C585.096 363.8 585.387 363.532 585.61 363.211C585.833 362.891 585.985 362.526 586.053 362.141L590.292 336.665C590.292 336.517 590.292 336.368 590.292 336.235C590.293 335.884 590.224 335.536 590.089 335.212C589.954 334.888 589.755 334.594 589.504 334.348L549.034 357.759C548.784 357.907 548.57 358.107 548.406 358.346C548.242 358.584 548.131 358.855 548.082 359.141L543.471 386.666Z" fill="#F4F4F4"/>
<path d="M542.831 386.324L543.099 386.488L543.471 386.666L548.082 359.14C548.131 358.855 548.242 358.584 548.406 358.345C548.57 358.107 548.785 357.907 549.034 357.759L589.563 334.392C589.405 334.23 589.225 334.09 589.028 333.977L548.409 357.462C548.159 357.605 547.944 357.802 547.779 358.038C547.615 358.275 547.505 358.544 547.457 358.828L542.831 386.324Z" fill="#E5E5E5"/>
<path d="M513.397 277.499C513.397 277.499 513.888 287.17 513.68 288.031C513.471 288.893 509.218 291.715 507.998 292.74C506.778 293.765 514.691 301.564 518.558 303.332C522.425 305.099 534.621 300.45 534.919 294.419C535.216 288.388 532.822 283.397 530.948 283.129C529.074 282.862 513.471 277.47 513.471 277.47" fill="#FFCEA9"/>
<path d="M512.311 289.695C512.311 289.695 519.346 300.168 529.148 301.148C532.242 298.177 532.524 287.259 528.241 283.798C528.241 283.798 532.182 280.634 534.874 281.243C537.765 282.998 539.916 285.744 540.928 288.967C543.431 296.179 544.605 303.783 544.393 311.413C544.23 321.677 544.393 347.628 544.393 347.628C544.393 347.628 542.906 357.551 534.056 362.483C526.987 366.465 518.665 367.612 510.779 365.691C505.812 364.533 503.967 361.755 502.257 358.145C502.703 350.956 505.544 336.146 504.354 327.084C503.164 318.023 501.231 311.294 500.74 303.97C500.249 296.647 501.707 296.796 505.38 294.196C507.584 292.551 509.9 291.062 512.311 289.74" fill="#F4F4F4"/>
<path d="M523.585 373.089C521.817 371.928 519.98 370.876 518.082 369.94C516.302 369.386 514.684 368.407 513.367 367.088C511.642 365.409 508.816 359.022 506.808 352.813C504.789 345.796 503.984 338.486 504.429 331.199C505.291 322.479 508.43 310.269 509.233 305.248C510.036 300.227 508.4 298.237 506.065 296.335C503.328 294.167 499.535 295.132 497.512 302.158C494.928 311.896 493.431 321.89 493.05 331.957C492.972 339.433 494.128 346.871 496.471 353.971C498.559 360.059 501.381 365.87 504.875 371.277C505.842 372.896 506.154 374.337 507.626 377.65C509.05 380.979 511.26 383.915 514.067 386.206C516.521 387.974 517.696 388.211 518.276 387.87C518.856 387.528 518.841 386.666 517.815 385.73C516.039 384.378 514.527 382.711 513.353 380.814C513.353 380.814 515.494 382.968 516.907 384.156C518.16 385.204 519.545 386.083 521.027 386.77C522.515 387.394 524.463 386.176 523.452 385.211C522.44 384.245 521.384 383.725 519.317 381.987C518.202 381.055 517.203 379.993 516.342 378.823C517.783 379.932 519.31 380.925 520.908 381.794C522.161 382.557 523.605 382.949 525.073 382.923C525.846 382.923 526.768 381.824 525.34 380.799C523.379 379.783 521.547 378.536 519.882 377.085C518.305 375.51 517.413 374.114 517.859 374.114C518.305 374.114 519.168 375.08 521.012 375.6C522.857 376.12 524.835 375.6 525.073 374.634C525.311 373.669 525.236 373.817 523.511 372.955" fill="#FFCEA9"/>
<path d="M535.261 263.075C534.101 255.559 528.687 249.869 520.938 250.3C518.975 250.407 517.053 250.898 515.281 251.748C513.509 252.597 511.922 253.787 510.611 255.249C509.3 256.712 508.29 258.418 507.64 260.271C506.99 262.124 506.713 264.086 506.823 266.046C506.956 268.324 507.613 270.541 508.743 272.525C509.873 274.509 511.445 276.206 513.338 277.484C513.612 278.624 514.011 279.73 514.528 280.782C517.279 283.976 525.578 285.966 527.914 285.625C530.977 285.179 532.628 283.902 534.086 280.559C536.659 274.617 535.856 266.789 535.216 263.075" fill="#FFCEA9"/>
<path d="M513.397 277.484L514.111 270.934C514.111 270.934 508.742 257.074 521.414 259.733C529.773 261.501 531.825 262.259 534.413 256.658C537.001 251.058 527.988 246.008 517.324 247.404C513.668 247.793 510.29 249.532 507.852 252.28C505.414 255.028 504.092 258.587 504.146 262.258C504.428 266.388 505.529 274.721 513.397 277.41" fill="#2B2A30"/>
<path d="M491.712 315.111C491.712 315.111 498.628 321.974 506.808 319.998C507.968 319.211 510.779 303.153 510.779 303.153C510.779 303.153 510.779 294.241 503.953 294.493C497.126 294.746 491.712 315.111 491.712 315.111Z" fill="#EDEDED"/>
<path d="M543.917 301.787C543.917 301.787 547.531 301.608 549.019 299.514C548.751 295.919 544.14 282.268 534.874 281.243C537.394 283.01 539.392 285.422 540.66 288.224C542.098 292.653 543.187 297.188 543.917 301.787Z" fill="#EDEDED"/>
<path d="M93.3449 5.89732C95.1743 2.92639 109.111 1.03985 113.706 12.8344C115.447 17.2908 115.194 28.7586 116.681 35.9482C118.168 43.1379 121.56 47.2081 122.794 53.0459C124.029 58.8838 122.021 68.6433 107.921 70.3813C93.8209 72.1193 83.0228 67.1727 79.6615 62.6866C76.3001 58.2005 76.2704 48.6935 79.6615 43.5687C83.0526 38.4438 85.7446 34.2994 85.6108 27.6296L93.3449 5.89732Z" fill="#2B2A30"/>
<path d="M102.552 3.92174C102.552 3.92174 92.0511 0.950817 85.6853 6.58072C83.5872 8.5135 82.0614 10.985 81.2744 13.7253C80.4875 16.4655 80.4699 19.3691 81.2233 22.1187C82.0711 25.4313 83.7667 29.9471 86.3992 30.1996C89.0318 30.4521 102.552 3.92174 102.552 3.92174Z" fill="#2B2A30"/>
<path d="M106.567 32.4722C106.567 32.4722 105.883 44.1628 106.091 45.0095C106.3 45.8562 110.687 46.7029 111.922 47.7279C113.156 48.7529 105.556 60.6068 101.689 62.3597C97.8218 64.1125 85.8636 59.6413 85.0307 53.6994C84.2722 48.2181 88.4665 43.9697 90.0728 42.4842C91.1721 42.4078 92.2754 42.4078 93.3747 42.4842L93.7167 36.8097C98.9522 35.146 106.567 32.5464 106.567 32.5464" fill="#FFCEA9"/>
<path d="M72.1355 94.8616C68.8156 99.4151 64.8873 103.493 60.46 106.983C59.0553 108.445 57.7249 109.977 56.4739 111.573C54.3843 113.98 51.6808 115.777 48.6506 116.772C46.0031 117.455 44.8876 117.277 44.4414 116.772C43.9952 116.267 44.2035 115.51 45.3636 115.064C47.2372 114.513 48.9818 113.594 50.4949 112.36C50.4949 112.36 48.0259 113.489 46.4791 114.039C45.0831 114.522 43.6262 114.807 42.1509 114.886C40.6636 114.886 39.1763 113.192 40.3215 112.702C41.4668 112.212 42.5228 112.167 44.7835 111.321C45.9862 110.894 47.1266 110.31 48.1746 109.583C46.5995 110.05 44.9874 110.383 43.3557 110.578C41.9954 110.8 40.5999 110.641 39.325 110.117C38.6408 109.82 38.0459 108.632 39.5778 108.171C41.5666 107.982 43.5218 107.532 45.3933 106.834C47.1781 106.017 48.368 105.171 47.9069 104.992C47.4458 104.814 46.4196 105.379 44.6943 105.245C42.969 105.111 41.2288 103.982 41.2437 103.017C41.2585 102.051 41.6304 102.586 43.3854 102.437C45.1405 102.289 46.5386 101.487 49.0522 101.487C50.9351 101.561 52.8179 101.336 54.6296 100.818C56.5334 100.254 60.8169 95.129 64.104 90.42C67.6742 85.1812 70.4975 79.4719 72.4925 73.456C74.4707 66.9794 76.8206 54.8581 78.4418 50.6542C80.063 46.4503 83.0079 44.5192 85.7595 44.4301C88.987 44.3261 90.3702 48.5745 89.5076 52.2436C88.0202 58.6757 80.8216 83.4384 72.076 94.9061" fill="#FFCEA9"/>
<path d="M108.174 46.1532C111.461 46.6583 115.224 48.4111 115.744 50.2085C116.339 52.3179 117.648 62.1962 114.792 69.7275C111.937 77.2588 108.724 90.8211 107.088 94.0743C107.088 94.0743 94.0588 96.3916 82.5766 89.2911C82.5766 89.2911 81.8924 76.2041 81.8478 71.8963C71.258 62.6567 80.3605 51.2929 89.2844 42.4396C90.3584 42.3506 91.438 42.3506 92.512 42.4396C92.512 42.4396 84.5101 51.8871 90.0727 57.2942C101.971 53.6845 104.366 48.3814 108.174 46.2126" fill="#F4F4F4"/>
<path d="M84.7035 17.9742C85.8785 10.5468 91.3073 4.7981 99.0712 5.24374C102.199 5.40418 105.197 6.5468 107.636 8.50871C110.076 10.4706 111.833 13.1517 112.657 16.1697C113.482 19.1876 113.331 22.3885 112.227 25.3159C111.122 28.2432 109.121 30.7477 106.508 32.4723C106.24 33.6089 105.84 34.7105 105.318 35.7552C102.552 38.9489 95.2636 40.9691 92.8541 40.9989C90.7718 40.9989 88.9722 39.0826 87.0238 35.8592C82.9634 29.13 84.0491 21.6878 84.644 18.0336" fill="#FFCEA9"/>
<path d="M101.466 5.40712C106.909 6.47666 111.386 8.00668 112.859 13.3395C113.87 17.0234 115.194 24.02 113.929 26.976L113.156 29.1003L106.567 32.502C106.567 32.502 103.488 29.9321 104.455 22.4305C104.413 21.4161 104.089 20.4335 103.518 19.5933C103.109 18.8878 102.804 18.1274 102.611 17.3354C101.834 15.3054 100.306 13.6514 98.3422 12.7156C93.434 9.96749 86.2502 12.3442 85.2537 13.3246C86.6368 10.348 89.0025 7.9367 91.9542 6.49516C94.9058 5.05363 98.264 4.66947 101.466 5.40712Z" fill="#2B2A30"/>
<path d="M71.5107 185.148C68.7591 187.391 64.4756 185.846 64.2674 186.054C61.4712 188.847 57.2918 191.298 54.1833 193.734C52.4728 195.086 49.7957 196.898 50.2865 199.483C51.1491 204.118 58.5709 202.692 61.382 201.28C64.193 199.869 66.4686 197.507 69.1161 195.858C71.005 194.685 72.8642 194.091 73.1616 191.699C73.3401 190.214 72.0015 185.104 71.5107 185.148Z" fill="#2B2A30"/>
<path d="M73.132 190.763C72.7602 193.051 70.9307 193.734 69.0567 194.848C66.3498 196.512 63.9849 198.933 61.1887 200.344C58.3925 201.756 52.1309 202.974 50.3907 199.646C51.3723 204.103 58.6751 202.706 61.4564 201.31C64.2377 199.914 66.5431 197.537 69.1906 195.888C71.0795 194.715 72.9386 194.12 73.2361 191.729C73.2711 191.408 73.2711 191.084 73.2361 190.763" fill="#BF4B4B"/>
<path d="M58.0951 177.721C55.5815 179.771 51.774 178.627 51.5806 178.82C49.0224 181.39 45.2148 183.589 42.3592 185.832C40.7975 187.065 38.3434 188.713 38.7896 191.09C39.5778 195.339 46.375 194.061 48.948 192.739C51.5211 191.417 53.6034 189.278 56.0426 187.778C57.7679 186.708 59.4783 186.144 59.7461 183.96C59.9097 182.638 58.5413 177.676 58.0951 177.721Z" fill="#2B2A30"/>
<path d="M59.7164 183.024C59.3743 185.104 57.6936 185.683 55.9832 186.752C53.5142 188.238 51.3427 190.496 48.7696 191.788C46.1966 193.08 40.4852 194.18 38.8194 191.149C39.7267 195.234 46.4048 193.957 48.9481 192.635C51.4915 191.313 53.6035 189.189 56.0427 187.688C57.768 186.604 59.4784 186.054 59.7462 183.871C59.7814 183.579 59.7814 183.285 59.7462 182.994" fill="#BF4B4B"/>
<path d="M96.2302 96.9563C88.7653 97.9392 81.1736 96.8443 74.2921 93.7922C74.4111 96.1096 74.5301 98.2486 74.5301 98.2486C65.6061 104.547 47.7581 115.153 46.5236 122.477C47.6837 145.605 51.2087 178.642 52.2052 179.117C55.0163 180.454 56.9796 180.231 58.2884 178.909C58.2884 178.909 63.9254 159.316 62.2893 130.557C62.2893 130.557 93.5233 116.743 95.561 109.196C96.7359 104.844 96.498 104.294 96.4087 99.7935C96.4087 98.8577 96.3195 97.9367 96.2302 97.0157" fill="#FFCEA9"/>
<path d="M106.597 93.9556C100.41 96.8374 94.6984 97.1939 87.7377 96.4808C87.827 99.5706 88.1839 105.394 88.1839 105.394C79.2599 111.692 61.412 122.298 60.1626 129.622C61.3376 152.75 63.4942 186.247 64.5205 186.663C65.7256 187.189 67.0489 187.387 68.3553 187.235C69.6617 187.084 70.9046 186.589 71.9571 185.802C71.9571 185.802 77.5941 166.491 75.9581 137.702C75.9581 137.168 102.73 124.006 106.121 120.516C109.765 116.787 110.182 111.87 110.092 106.939C110.003 102.304 108.605 98.4862 106.627 93.9556" fill="#FFCEA9"/>
<path d="M113.156 98.8577C113.156 98.8577 123.062 116.371 106.552 125.373C89.1506 134.865 78.531 137.094 78.531 137.094L75.9282 137.703C75.9282 137.703 77.1627 144.06 75.9282 155.899C75.9282 155.899 63.509 160.237 47.6689 146.303L42.4186 129.429L41.7939 124.972C41.4906 123.443 41.5738 121.863 42.036 120.374C42.4983 118.885 43.325 117.535 44.4414 116.446C48.2341 113.014 60.2815 104.205 67.7776 99.1548C75.2738 94.1042 81.2528 89.2913 81.2528 89.2913L82.5617 88.0732C82.5617 88.0732 91.4857 95.1292 107.683 92.7673C109.833 94.4935 111.695 96.5491 113.201 98.8577" fill="#E26D6D"/>
<path d="M103.34 124.838C104.827 123.813 105.838 122.343 108.129 121.065C109.906 120.181 111.532 119.023 112.948 117.634C114.435 116.148 116.711 109.761 117.886 103.552C118.963 96.6156 118.843 89.5464 117.529 82.6511C115.475 74.4134 112.703 66.3712 109.244 58.6163C107.043 53.9668 108.278 51.189 110.286 49.0796C112.65 46.6583 115.119 46.7178 117.916 53.2092C120.712 59.7007 125.189 71.9706 126.616 81.433C127.746 88.4972 127.65 95.7028 126.334 102.735C125.16 108.882 123.252 114.866 120.652 120.56C119.923 122.239 119.804 123.65 118.808 127.007C117.839 130.346 116.079 133.403 113.677 135.92C111.535 137.91 110.449 138.297 109.854 138.029C109.259 137.762 109.155 136.945 110.033 135.92C111.541 134.405 112.761 132.628 113.632 130.676C113.632 130.676 111.832 133.008 110.657 134.316C109.595 135.466 108.378 136.466 107.043 137.286C105.734 138.074 103.667 137.153 104.53 136.098C105.392 135.043 106.329 134.464 108.084 132.503C109.02 131.475 109.829 130.337 110.494 129.116C109.249 130.352 107.906 131.484 106.478 132.503C105.372 133.389 104.035 133.94 102.626 134.093C101.897 134.093 100.886 133.246 102.12 132.087C103.864 130.942 105.471 129.601 106.909 128.091C108.218 126.398 108.917 125.031 108.486 125.046C108.055 125.061 107.356 126.116 105.66 126.903C103.964 127.69 102.001 127.423 101.659 126.487C101.317 125.551 101.837 125.878 103.384 124.838" fill="#FFCEA9"/>
<path d="M122.244 61.9438C122.244 61.9438 116.295 67.2618 109.557 66.1774L106.91 55.0364C106.91 55.0364 105.14 49.0946 110.182 46.9258C115.224 44.757 120.013 50.5503 122.184 61.9438" fill="#EDEDED"/>
<path d="M89.2844 42.4397C89.2844 42.4397 82.7847 40.464 75.8984 54.8433L78.4715 56.4031C78.4715 56.4031 85.2686 46.1385 89.2992 42.4397" fill="#EDEDED"/>
<path d="M44.4415 104.458L67.5992 91.0887C67.8004 90.9727 68.0287 90.9116 68.2611 90.9116C68.4934 90.9116 68.7217 90.9727 68.9229 91.0887L109.527 114.5L85.7298 128.24L44.4415 104.458Z" fill="#F4F4F4"/>
<path d="M86.295 122.982L88.0649 124.007C88.2137 124.007 88.1839 124.229 88.0649 124.333L86.3694 125.299C86.284 125.342 86.1898 125.364 86.0942 125.364C85.9986 125.364 85.9043 125.342 85.819 125.299L84.0045 124.244C83.8557 124.155 83.8706 124.021 84.0045 123.917L85.7001 122.952C85.7869 122.905 85.884 122.881 85.9826 122.881C86.0813 122.881 86.1784 122.905 86.2652 122.952" fill="#3A2C6D"/>
<path d="M83.7814 121.541L85.5513 122.566C85.7001 122.566 85.6852 122.788 85.5513 122.877L83.8558 123.858C83.767 123.898 83.6707 123.919 83.5732 123.919C83.4757 123.919 83.3794 123.898 83.2906 123.858L81.5207 122.833C81.372 122.744 81.4017 122.595 81.5207 122.506L83.2014 121.526C83.2889 121.481 83.3858 121.458 83.484 121.458C83.5822 121.458 83.679 121.481 83.7666 121.526" fill="#3A2C6D"/>
<path d="M81.253 120.07L83.0229 121.095C83.1567 121.184 83.1419 121.318 83.0229 121.422L81.3273 122.402C81.2424 122.446 81.148 122.469 81.0522 122.469C80.9564 122.469 80.862 122.446 80.777 122.402L79.0071 121.377C78.8584 121.303 78.8732 121.154 79.0071 121.065L80.7027 120.085C80.7906 120.042 80.8873 120.019 80.9852 120.019C81.0832 120.019 81.1799 120.042 81.2678 120.085" fill="#3A2C6D"/>
<path d="M78.7692 118.644L80.5391 119.669C80.6878 119.758 80.6729 119.892 80.5391 119.996L78.8584 120.961C78.7716 121.008 78.6745 121.033 78.5758 121.033C78.4771 121.033 78.38 121.008 78.2932 120.961L76.5233 119.936C76.3745 119.862 76.3894 119.713 76.5233 119.609L78.204 118.644C78.2919 118.601 78.3886 118.578 78.4866 118.578C78.5846 118.578 78.6812 118.601 78.7692 118.644Z" fill="#3A2C6D"/>
<path d="M76.2704 117.203L78.0403 118.228C78.1742 118.302 78.1593 118.451 78.0403 118.555L76.3448 119.52C76.2568 119.564 76.1602 119.586 76.0622 119.586C75.9642 119.586 75.8675 119.564 75.7796 119.52L74.0096 118.496C73.8758 118.406 73.8906 118.273 74.0096 118.169L75.7052 117.203C75.792 117.156 75.8891 117.132 75.9878 117.132C76.0865 117.132 76.1836 117.156 76.2704 117.203Z" fill="#3A2C6D"/>
<path d="M73.7568 115.762L75.5268 116.772C75.6755 116.861 75.6606 117.01 75.5268 117.099L73.8461 118.079C73.7585 118.124 73.6617 118.147 73.5635 118.147C73.4653 118.147 73.3685 118.124 73.2809 118.079L71.511 117.069C71.3622 116.98 71.3771 116.832 71.511 116.742L73.1916 115.762C73.2792 115.718 73.376 115.695 73.4742 115.695C73.5724 115.695 73.6692 115.718 73.7568 115.762Z" fill="#3A2C6D"/>
<path d="M71.2136 114.307L72.9835 115.331C73.1173 115.421 73.1025 115.554 72.9835 115.658L71.2879 116.639C71.2003 116.683 71.1035 116.706 71.0053 116.706C70.9071 116.706 70.8103 116.683 70.7227 116.639L68.9528 115.614C68.8189 115.614 68.8338 115.391 68.9528 115.302L70.6484 114.321C70.7363 114.278 70.833 114.256 70.931 114.256C71.029 114.256 71.1256 114.278 71.2136 114.321" fill="#3A2C6D"/>
<path d="M68.7445 112.865L70.5144 113.89C70.6632 113.965 70.6483 114.113 70.5144 114.217L68.8337 115.183C68.7458 115.226 68.6491 115.249 68.5511 115.249C68.4531 115.249 68.3565 115.226 68.2685 115.183L66.4986 114.158C66.3499 114.069 66.3648 113.935 66.4986 113.831L68.1793 112.865C68.2661 112.819 68.3632 112.794 68.4619 112.794C68.5606 112.794 68.6577 112.819 68.7445 112.865Z" fill="#3A2C6D"/>
<path d="M66.2457 111.425L68.0156 112.435C68.1494 112.524 68.1346 112.672 68.0156 112.762L66.32 113.742C66.2313 113.782 66.1349 113.803 66.0374 113.803C65.94 113.803 65.8436 113.782 65.7548 113.742L63.9849 112.717C63.8511 112.628 63.8659 112.479 63.9849 112.39L65.6805 111.41C65.768 111.365 65.8649 111.342 65.9631 111.342C66.0613 111.342 66.1581 111.365 66.2457 111.41" fill="#3A2C6D"/>
<path d="M63.7768 109.969L65.5467 110.994C65.6955 111.083 65.6806 111.231 65.5467 111.321L63.7768 112.36C63.6892 112.405 63.5924 112.428 63.4942 112.428C63.396 112.428 63.2992 112.405 63.2116 112.36L61.4417 111.35C61.2929 111.261 61.3078 111.113 61.4417 111.023L63.1224 110.043C63.2111 110.003 63.3075 109.982 63.405 109.982C63.5024 109.982 63.5988 110.003 63.6876 110.043" fill="#3A2C6D"/>
<path d="M61.2335 108.528L63.0035 109.553C63.1373 109.642 63.1224 109.776 63.0035 109.88L61.3079 110.845C61.2211 110.892 61.124 110.917 61.0253 110.917C60.9266 110.917 60.8295 110.892 60.7427 110.845L58.9728 109.82C58.8389 109.746 58.8538 109.597 58.9728 109.493L60.6683 108.528C60.7562 108.485 60.8529 108.462 60.9509 108.462C61.0489 108.462 61.1456 108.485 61.2335 108.528Z" fill="#3A2C6D"/>
<path d="M58.7199 107.087L60.4898 108.112C60.6386 108.186 60.6237 108.335 60.4898 108.439L58.8091 109.404C58.7212 109.448 58.6246 109.47 58.5266 109.47C58.4286 109.47 58.3319 109.448 58.244 109.404L56.474 108.379C56.3253 108.29 56.3402 108.156 56.474 108.053L58.1547 107.087C58.2415 107.04 58.3387 107.016 58.4373 107.016C58.536 107.016 58.6331 107.04 58.7199 107.087Z" fill="#3A2C6D"/>
<path d="M56.2212 105.646L57.9911 106.656C58.125 106.745 58.1101 106.894 57.9911 106.983L56.2955 107.963C56.208 108.008 56.1112 108.031 56.013 108.031C55.9148 108.031 55.8179 108.008 55.7304 107.963L53.9604 106.953C53.8266 106.864 53.8415 106.716 53.9604 106.627L55.656 105.646C55.7436 105.602 55.8404 105.579 55.9386 105.579C56.0368 105.579 56.1336 105.602 56.2212 105.646Z" fill="#3A2C6D"/>
<path d="M52.5028 103.448L55.4775 105.156C55.6262 105.245 55.6113 105.394 55.4775 105.483L53.7968 106.463C53.7092 106.507 53.6124 106.531 53.5142 106.531C53.416 106.531 53.3192 106.507 53.2316 106.463L50.2569 104.755C50.1082 104.666 50.1231 104.517 50.2569 104.428L51.9525 103.448C52.0401 103.403 52.1369 103.38 52.2351 103.38C52.3333 103.38 52.4301 103.403 52.5177 103.448" fill="#3A2C6D"/>
<path d="M85.0011 119.431L86.771 120.456C86.9197 120.545 86.9049 120.694 86.771 120.783L85.0903 121.763C85.0028 121.808 84.9059 121.831 84.8077 121.831C84.7095 121.831 84.6127 121.808 84.5251 121.763L82.7552 120.753C82.6065 120.664 82.6214 120.516 82.7552 120.426L84.4359 119.446C84.5247 119.406 84.621 119.385 84.7185 119.385C84.816 119.385 84.9123 119.406 85.0011 119.446" fill="#3A2C6D"/>
<path d="M82.4875 117.99L84.2574 119.015C84.4062 119.09 84.3913 119.238 84.2574 119.342L82.5619 120.308C82.4739 120.351 82.3773 120.373 82.2793 120.373C82.1813 120.373 82.0846 120.351 81.9967 120.308L80.1375 119.312C79.9888 119.223 80.0185 119.09 80.1375 118.986L81.8182 118.02C81.905 117.973 82.0021 117.949 82.1008 117.949C82.1994 117.949 82.2966 117.973 82.3834 118.02" fill="#3A2C6D"/>
<path d="M79.9886 116.549L81.7437 117.56C81.8924 117.649 81.8775 117.797 81.7437 117.886L80.0481 118.867C79.9605 118.911 79.8637 118.934 79.7655 118.934C79.6673 118.934 79.5705 118.911 79.4829 118.867L77.713 117.857C77.5791 117.767 77.594 117.619 77.713 117.53L79.4086 116.549C79.4961 116.505 79.593 116.482 79.6912 116.482C79.7894 116.482 79.8862 116.505 79.9737 116.549" fill="#3A2C6D"/>
<path d="M77.4752 115.094L79.2451 116.119C79.3789 116.193 79.3641 116.342 79.2451 116.446L77.5495 117.411C77.4616 117.454 77.3649 117.477 77.2669 117.477C77.1689 117.477 77.0722 117.454 76.9843 117.411L75.2144 116.386C75.0805 116.386 75.0954 116.163 75.2144 116.059L76.91 115.094C76.9979 115.051 77.0946 115.028 77.1926 115.028C77.2906 115.028 77.3872 115.051 77.4752 115.094Z" fill="#3A2C6D"/>
<path d="M74.9765 113.653L76.7465 114.678C76.8952 114.767 76.8803 114.916 76.7465 115.005L75.0509 115.985C74.9633 116.029 74.8665 116.053 74.7683 116.053C74.6701 116.053 74.5733 116.029 74.4857 115.985L72.7009 114.975C72.5522 114.975 72.5819 114.752 72.7009 114.663L74.3816 113.683C74.4704 113.642 74.5667 113.622 74.6642 113.622C74.7617 113.622 74.858 113.642 74.9468 113.683" fill="#3A2C6D"/>
<path d="M72.4628 112.212L74.2327 113.237C74.3815 113.237 74.3666 113.46 74.2327 113.564L72.5372 114.529C72.4493 114.572 72.3526 114.595 72.2546 114.595C72.1566 114.595 72.0599 114.572 71.972 114.529L70.2021 113.504C70.0682 113.415 70.0831 113.281 70.2021 113.177L71.8976 112.212C71.9818 112.165 72.0765 112.14 72.1728 112.14C72.2691 112.14 72.3638 112.165 72.4479 112.212" fill="#3A2C6D"/>
<path d="M69.964 110.771L71.734 111.781C71.8678 111.87 71.8529 112.019 71.734 112.108L70.0384 113.088C69.9508 113.133 69.854 113.156 69.7558 113.156C69.6576 113.156 69.5608 113.133 69.4732 113.088L67.7033 112.078C67.5694 111.989 67.5843 111.841 67.7033 111.752L69.3989 110.771C69.4864 110.727 69.5832 110.704 69.6814 110.704C69.7796 110.704 69.8765 110.727 69.964 110.771Z" fill="#3A2C6D"/>
<path d="M67.4504 109.39L69.2203 110.415C69.369 110.489 69.3393 110.637 69.2203 110.741L67.5396 111.707C67.4517 111.75 67.355 111.773 67.257 111.773C67.159 111.773 67.0623 111.75 66.9744 111.707L65.2045 110.682C65.0558 110.593 65.0706 110.459 65.2045 110.355L66.9 109.39C66.9869 109.343 67.084 109.318 67.1826 109.318C67.2813 109.318 67.3784 109.343 67.4652 109.39" fill="#3A2C6D"/>
<path d="M64.9369 107.904L66.7068 108.914C66.8555 109.003 66.8407 109.152 66.7068 109.241L65.0261 110.221C64.9385 110.266 64.8417 110.289 64.7435 110.289C64.6453 110.289 64.5485 110.266 64.4609 110.221L62.691 109.211C62.5423 109.122 62.5571 108.974 62.691 108.885L64.3717 107.904C64.4593 107.86 64.5561 107.837 64.6543 107.837C64.7525 107.837 64.8493 107.86 64.9369 107.904Z" fill="#3A2C6D"/>
<path d="M62.4233 106.419L64.1932 107.443C64.3419 107.533 64.3271 107.666 64.1932 107.77L62.4976 108.736C62.4108 108.783 62.3137 108.807 62.2151 108.807C62.1164 108.807 62.0193 108.783 61.9325 108.736L60.1625 107.711C60.0138 107.711 60.0435 107.488 60.1625 107.384L61.8432 106.419C61.9311 106.375 62.0278 106.353 62.1258 106.353C62.2238 106.353 62.3205 106.375 62.4084 106.419" fill="#3A2C6D"/>
<path d="M59.9098 104.933L61.6797 105.943C61.8284 106.032 61.8136 106.181 61.6797 106.27L59.9841 107.25C59.8966 107.295 59.7997 107.318 59.7015 107.318C59.6033 107.318 59.5065 107.295 59.419 107.25L57.649 106.24C57.5152 106.151 57.5301 106.003 57.649 105.913L59.3148 104.933C59.3998 104.889 59.4942 104.866 59.59 104.866C59.6858 104.866 59.7802 104.889 59.8652 104.933" fill="#3A2C6D"/>
<path d="M57.4109 103.522L59.1809 104.547C59.3147 104.636 59.2999 104.77 59.1809 104.874L57.4853 105.839C57.3985 105.886 57.3014 105.911 57.2027 105.911C57.1041 105.911 57.0069 105.886 56.9201 105.839L55.1502 104.814C55.0163 104.74 55.0312 104.592 55.1502 104.488L56.8458 103.522C56.9337 103.479 57.0304 103.456 57.1283 103.456C57.2263 103.456 57.323 103.479 57.4109 103.522Z" fill="#3A2C6D"/>
<path d="M87.5741 120.887L90.5488 122.61C90.6975 122.61 90.6827 122.833 90.5488 122.922L88.8681 123.902C88.7794 123.943 88.683 123.963 88.5855 123.963C88.4881 123.963 88.3917 123.943 88.3029 123.902L85.3283 122.179C85.1795 122.09 85.1944 121.957 85.3283 121.853L87.0238 120.887C87.1107 120.84 87.2078 120.816 87.3064 120.816C87.4051 120.816 87.5022 120.84 87.589 120.887" fill="#3A2C6D"/>
<path d="M52.6218 103.448L54.3918 104.473C54.4714 104.517 54.561 104.54 54.6521 104.54C54.7431 104.54 54.8327 104.517 54.9123 104.473L56.6971 103.448C56.8459 103.359 56.8459 103.225 56.6971 103.136H56.5484C56.5186 103.126 56.4927 103.107 56.4744 103.082C56.456 103.056 56.4461 103.026 56.4461 102.995C56.4461 102.963 56.456 102.933 56.4744 102.907C56.4927 102.882 56.5186 102.863 56.5484 102.853L58.4373 101.769C58.586 101.68 58.586 101.546 58.4373 101.457L57.3218 100.804C57.2384 100.763 57.1469 100.742 57.0541 100.742C56.9613 100.742 56.8697 100.763 56.7864 100.804L55.0313 101.814L54.6595 102.022L54.3918 102.185L54.1389 102.334L52.6516 103.21C52.5029 103.299 52.5029 103.433 52.6516 103.507" fill="#3A2C6D"/>
<path d="M95.9923 117.381L97.7622 118.392C97.911 118.481 97.8961 118.629 97.7622 118.718L96.0667 119.699C95.9791 119.743 95.8823 119.766 95.7841 119.766C95.6859 119.766 95.5891 119.743 95.5015 119.699L93.7316 118.689C93.5828 118.6 93.6126 118.451 93.7316 118.362L95.4122 117.381C95.4998 117.337 95.5966 117.314 95.6948 117.314C95.793 117.314 95.8899 117.337 95.9774 117.381" fill="#3A2C6D"/>
<path d="M93.5234 115.94L95.2933 116.951C95.4421 117.04 95.4272 117.188 95.2933 117.277L93.5234 118.302C93.4358 118.347 93.339 118.37 93.2408 118.37C93.1426 118.37 93.0458 118.347 92.9582 118.302L91.1883 117.292C91.0396 117.203 91.0693 117.055 91.1883 116.965L92.869 115.985C92.9566 115.941 93.0534 115.917 93.1516 115.917C93.2498 115.917 93.3466 115.941 93.4342 115.985" fill="#3A2C6D"/>
<path d="M90.9949 114.5L92.7649 115.51C92.9136 115.599 92.8987 115.747 92.7649 115.837L91.0693 116.817C90.9817 116.861 90.8849 116.884 90.7867 116.884C90.6885 116.884 90.5917 116.861 90.5041 116.817L88.7342 115.807C88.5855 115.718 88.6152 115.569 88.7342 115.48L90.4149 114.5C90.5025 114.455 90.5993 114.432 90.6975 114.432C90.7957 114.432 90.8925 114.455 90.9801 114.5" fill="#3A2C6D"/>
<path d="M69.7262 102.215L71.4961 103.24C71.6449 103.329 71.63 103.462 71.4961 103.566L69.8006 104.547C69.713 104.591 69.6162 104.614 69.518 104.614C69.4198 104.614 69.323 104.591 69.2354 104.547L67.4654 103.522C67.3167 103.448 67.3465 103.299 67.4654 103.195L69.1461 102.23C69.2341 102.186 69.3307 102.164 69.4287 102.164C69.5267 102.164 69.6234 102.186 69.7113 102.23" fill="#3A2C6D"/>
<path d="M67.2126 100.774L68.9826 101.799C69.1313 101.888 69.1164 102.022 68.9826 102.126L67.287 103.106C67.1994 103.15 67.1026 103.173 67.0044 103.173C66.9062 103.173 66.8094 103.15 66.7218 103.106L64.9519 102.081C64.8032 102.007 64.8329 101.858 64.9519 101.769L66.6326 100.789C66.7205 100.745 66.8172 100.723 66.9152 100.723C67.0132 100.723 67.1099 100.745 67.1978 100.789" fill="#3A2C6D"/>
<path d="M64.7139 99.3329L66.4838 100.358C66.6325 100.447 66.6177 100.581 66.4838 100.685L64.7882 101.665C64.7007 101.709 64.6038 101.733 64.5056 101.733C64.4074 101.733 64.3106 101.709 64.2231 101.665L62.4531 100.64C62.3044 100.566 62.3341 100.417 62.4531 100.313L64.1338 99.3477C64.2217 99.3045 64.3184 99.282 64.4164 99.282C64.5144 99.282 64.6111 99.3045 64.699 99.3477" fill="#3A2C6D"/>
<path d="M62.2895 97.892L64.0594 98.9169C64.2081 99.006 64.1933 99.1397 64.0594 99.2437L62.3639 100.224C62.2763 100.269 62.1795 100.292 62.0813 100.292C61.9831 100.292 61.8862 100.269 61.7987 100.224L60.0287 99.1992C59.88 99.1249 59.9098 98.9763 60.0287 98.8724L61.7094 97.9068C61.7973 97.8636 61.894 97.8411 61.992 97.8411C62.09 97.8411 62.1867 97.8636 62.2746 97.9068" fill="#3A2C6D"/>
<path d="M87.8566 112.672L90.2661 114.069C90.4148 114.158 90.3999 114.306 90.2661 114.396L88.5705 115.376C88.4829 115.42 88.3861 115.443 88.2879 115.443C88.1897 115.443 88.0929 115.42 88.0053 115.376L85.5959 113.98C85.4471 113.98 85.462 113.757 85.5959 113.668L87.2914 112.687C87.3802 112.647 87.4765 112.626 87.574 112.626C87.6715 112.626 87.7678 112.647 87.8566 112.687" fill="#3A2C6D"/>
<path d="M72.21 103.656L74.6344 105.052C74.7682 105.141 74.7534 105.275 74.6344 105.379L72.9388 106.359C72.8513 106.403 72.7544 106.427 72.6562 106.427C72.558 106.427 72.4612 106.403 72.3736 106.359L69.9196 104.933C69.7708 104.859 69.8006 104.71 69.9196 104.606L71.6002 103.641C71.6881 103.597 71.7848 103.575 71.8828 103.575C71.9808 103.575 72.0775 103.597 72.1654 103.641" fill="#3A2C6D"/>
<path d="M75.3633 105.468L87.1281 112.256C87.2768 112.346 87.2619 112.494 87.1281 112.583L85.4474 113.564C85.3598 113.608 85.263 113.631 85.1648 113.631C85.0666 113.631 84.9698 113.608 84.8822 113.564L73.1174 106.775C72.9687 106.701 72.9835 106.552 73.1174 106.448L74.813 105.483C74.9009 105.439 74.9976 105.417 75.0956 105.417C75.1935 105.417 75.2902 105.439 75.3781 105.483" fill="#3A2C6D"/>
<path d="M86.756 117.649L88.5259 118.659C88.6597 118.748 88.6449 118.897 88.5259 118.986L86.8303 119.966C86.7416 120.006 86.6452 120.027 86.5477 120.027C86.4503 120.027 86.3539 120.006 86.2651 119.966L84.4952 118.941C84.3614 118.852 84.3762 118.703 84.4952 118.614L86.1908 117.634C86.2784 117.59 86.3752 117.566 86.4734 117.566C86.5716 117.566 86.6684 117.59 86.756 117.634" fill="#3A2C6D"/>
<path d="M84.2424 116.208L86.0124 117.218C86.1611 117.307 86.1462 117.456 86.0124 117.545L84.3168 118.525C84.2292 118.57 84.1324 118.593 84.0342 118.593C83.936 118.593 83.8392 118.57 83.7516 118.525L81.9817 117.515C81.833 117.426 81.8627 117.277 81.9817 117.188L83.6624 116.208C83.7499 116.163 83.8468 116.14 83.945 116.14C84.0432 116.14 84.14 116.163 84.2276 116.208" fill="#3A2C6D"/>
<path d="M81.7439 114.752L83.5138 115.777C83.6625 115.866 83.6328 116 83.5138 116.104L81.8331 117.084C81.7455 117.129 81.6487 117.152 81.5505 117.152C81.4523 117.152 81.3555 117.129 81.2679 117.084L79.498 116.059C79.3493 115.985 79.3642 115.836 79.498 115.732L81.1936 114.767C81.2815 114.724 81.3782 114.701 81.4762 114.701C81.5742 114.701 81.6708 114.724 81.7588 114.767" fill="#3A2C6D"/>
<path d="M79.2451 113.311L81.015 114.336C81.1489 114.425 81.134 114.559 81.015 114.663L79.3195 115.628C79.2327 115.675 79.1355 115.7 79.0369 115.7C78.9382 115.7 78.8411 115.675 78.7543 115.628L76.9844 114.603C76.8505 114.529 76.8654 114.381 76.9844 114.277L78.6799 113.311C78.7678 113.268 78.8645 113.245 78.9625 113.245C79.0605 113.245 79.1572 113.268 79.2451 113.311Z" fill="#3A2C6D"/>
<path d="M76.7314 111.87L78.5014 112.895C78.6501 112.895 78.6352 113.118 78.5014 113.222L76.8058 114.187C76.7179 114.231 76.6212 114.253 76.5232 114.253C76.4252 114.253 76.3285 114.231 76.2406 114.187L74.4707 113.162C74.322 113.073 74.3517 112.94 74.4707 112.836L76.1514 111.87C76.2382 111.823 76.3353 111.799 76.434 111.799C76.5326 111.799 76.6298 111.823 76.7166 111.87" fill="#3A2C6D"/>
<path d="M74.1882 110.429L75.9581 111.454C76.1068 111.529 76.0771 111.677 75.9581 111.766L74.2774 112.747C74.1886 112.787 74.0923 112.808 73.9948 112.808C73.8973 112.808 73.801 112.787 73.7122 112.747L71.9423 111.722C71.7936 111.633 71.8084 111.484 71.9423 111.395L73.6378 110.414C73.7254 110.37 73.8222 110.347 73.9204 110.347C74.0186 110.347 74.1155 110.37 74.203 110.414" fill="#3A2C6D"/>
<path d="M71.7339 108.988L73.5038 109.998C73.6377 110.088 73.6228 110.236 73.5038 110.325L71.8082 111.306C71.7207 111.35 71.6238 111.373 71.5256 111.373C71.4274 111.373 71.3306 111.35 71.2431 111.306L69.4731 110.296C69.3393 110.206 69.3541 110.058 69.4731 109.969L71.1687 108.988C71.2563 108.944 71.3531 108.921 71.4513 108.921C71.5495 108.921 71.6463 108.944 71.7339 108.988Z" fill="#3A2C6D"/>
<path d="M69.2204 107.533L70.9903 108.558C71.1391 108.647 71.1242 108.795 70.9903 108.885L69.2948 109.865C69.2072 109.909 69.1104 109.932 69.0122 109.932C68.914 109.932 68.8172 109.909 68.7296 109.865L66.9597 108.84C66.8109 108.84 66.8407 108.617 66.9597 108.528L68.6403 107.548C68.7291 107.507 68.8255 107.487 68.9229 107.487C69.0204 107.487 69.1168 107.507 69.2055 107.548" fill="#3A2C6D"/>
<path d="M66.7515 106.092L68.5214 107.117C68.6701 107.206 68.6552 107.34 68.5214 107.444L66.8407 108.409C66.7539 108.456 66.6568 108.48 66.5581 108.48C66.4594 108.48 66.3623 108.456 66.2755 108.409L64.5056 107.384C64.3568 107.384 64.3717 107.161 64.5056 107.057L66.1863 106.092C66.2742 106.049 66.3709 106.026 66.4689 106.026C66.5669 106.026 66.6635 106.049 66.7515 106.092Z" fill="#3A2C6D"/>
<path d="M64.223 104.651L65.9929 105.676C66.1267 105.75 66.1119 105.899 65.9929 106.003L64.2973 106.968C64.2105 107.015 64.1134 107.04 64.0147 107.04C63.9161 107.04 63.819 107.015 63.7321 106.968L61.9622 105.943C61.8283 105.943 61.8432 105.72 61.9622 105.617L63.6578 104.651C63.7457 104.608 63.8424 104.585 63.9404 104.585C64.0384 104.585 64.135 104.608 64.223 104.651Z" fill="#3A2C6D"/>
<path d="M61.7093 103.21L63.4793 104.235C63.628 104.309 63.6131 104.458 63.4793 104.562L61.7837 105.527C61.6958 105.571 61.5991 105.593 61.5011 105.593C61.4031 105.593 61.3064 105.571 61.2185 105.527L59.4486 104.502C59.2999 104.413 59.3296 104.28 59.4486 104.176L61.1293 103.21C61.2161 103.163 61.3132 103.139 61.4119 103.139C61.5105 103.139 61.6077 103.163 61.6945 103.21" fill="#3A2C6D"/>
<path d="M59.2105 101.769L60.9804 102.779C61.1292 102.868 61.1143 103.017 60.9804 103.106L59.2997 104.086C59.2122 104.131 59.1153 104.154 59.0171 104.154C58.9189 104.154 58.8221 104.131 58.7346 104.086L56.9646 103.076C56.8159 102.987 56.8308 102.839 56.9646 102.75L58.6453 101.769C58.7329 101.725 58.8297 101.702 58.9279 101.702C59.0261 101.702 59.1229 101.725 59.2105 101.769Z" fill="#3A2C6D"/>
<path d="M89.2548 119.09L92.9136 121.273C93.0623 121.362 93.0474 121.496 92.9136 121.6L91.2329 122.566C91.1461 122.612 91.049 122.637 90.9503 122.637C90.8516 122.637 90.7545 122.612 90.6677 122.566L87.0089 120.456C86.8601 120.367 86.875 120.219 87.0089 120.129L88.7044 119.149C88.792 119.105 88.8888 119.082 88.987 119.082C89.0852 119.082 89.182 119.105 89.2696 119.149" fill="#3A2C6D"/>
<path d="M90.4148 116.965L92.1847 117.976C92.3334 118.065 92.3185 118.213 92.1847 118.302L90.4891 119.283C90.4015 119.327 90.3047 119.35 90.2065 119.35C90.1083 119.35 90.0115 119.327 89.9239 119.283L88.1243 118.302C87.9904 118.213 88.0053 118.065 88.1243 117.976L89.8198 116.995C89.9048 116.951 89.9992 116.928 90.095 116.928C90.1908 116.928 90.2852 116.951 90.3701 116.995" fill="#3A2C6D"/>
<path d="M87.9161 115.524L89.686 116.535C89.8347 116.624 89.8199 116.772 89.686 116.861L88.0053 117.842C87.9177 117.886 87.8209 117.909 87.7227 117.909C87.6245 117.909 87.5277 117.886 87.4401 117.842L85.6256 116.817C85.4768 116.728 85.4917 116.579 85.6256 116.49L87.3063 115.51C87.3938 115.465 87.4907 115.442 87.5889 115.442C87.6871 115.442 87.7839 115.465 87.8715 115.51" fill="#3A2C6D"/>
<path d="M85.4174 114.069L87.1873 115.094C87.3361 115.183 87.3063 115.316 87.1873 115.42L85.5066 116.401C85.4191 116.445 85.3222 116.468 85.224 116.468C85.1258 116.468 85.029 116.445 84.9414 116.401L83.112 115.331C82.9633 115.331 82.9782 115.108 83.112 115.004L84.8076 114.039C84.8955 113.996 84.9922 113.973 85.0902 113.973C85.1882 113.973 85.2849 113.996 85.3728 114.039" fill="#3A2C6D"/>
<path d="M82.9186 112.628L84.6885 113.653C84.8224 113.653 84.8075 113.876 84.6885 113.98L82.9929 114.945C82.9061 114.992 82.809 115.016 82.7103 115.016C82.6117 115.016 82.5146 114.992 82.4278 114.945L80.6578 113.92C80.524 113.92 80.5388 113.697 80.6578 113.593L82.3534 112.628C82.4413 112.584 82.538 112.562 82.636 112.562C82.734 112.562 82.8307 112.584 82.9186 112.628Z" fill="#3A2C6D"/>
<path d="M80.4051 111.187L82.175 112.212C82.3237 112.212 82.3089 112.435 82.175 112.539L80.4795 113.504C80.3915 113.548 80.2949 113.57 80.1969 113.57C80.0989 113.57 80.0022 113.548 79.9143 113.504L78.1443 112.479C77.9956 112.39 78.0254 112.257 78.1443 112.153L79.825 111.187C79.9119 111.14 80.009 111.116 80.1076 111.116C80.2063 111.116 80.3034 111.14 80.3902 111.187" fill="#3A2C6D"/>
<path d="M77.9064 109.746L79.6764 110.771C79.8251 110.771 79.7954 110.994 79.6764 111.083L77.9957 112.063C77.9069 112.104 77.8106 112.124 77.7131 112.124C77.6156 112.124 77.5193 112.104 77.4305 112.063L75.6754 111.068C75.5267 110.979 75.5416 110.83 75.6754 110.741L77.371 109.761C77.4586 109.716 77.5554 109.693 77.6536 109.693C77.7518 109.693 77.8486 109.716 77.9362 109.761" fill="#3A2C6D"/>
<path d="M75.4077 108.305L77.1627 109.39C77.2966 109.479 77.2817 109.627 77.1627 109.716L75.4672 110.697C75.3796 110.741 75.2828 110.764 75.1846 110.764C75.0864 110.764 74.9896 110.741 74.902 110.697L73.1321 109.687C72.9982 109.598 73.0131 109.449 73.1321 109.36L74.8276 108.379C74.9152 108.335 75.012 108.312 75.1102 108.312C75.2084 108.312 75.3052 108.335 75.3928 108.379" fill="#3A2C6D"/>
<path d="M72.8942 106.864L74.6642 107.874C74.8129 107.963 74.798 108.112 74.6642 108.201L72.9686 109.182C72.881 109.226 72.7842 109.249 72.686 109.249C72.5878 109.249 72.491 109.226 72.4034 109.182L70.6335 108.171C70.4996 108.082 70.5145 107.934 70.6335 107.845L72.329 106.864C72.414 106.82 72.5084 106.797 72.6042 106.797C72.7 106.797 72.7944 106.82 72.8794 106.864" fill="#3A2C6D"/>
<path d="M70.3954 105.409L72.1653 106.433C72.314 106.523 72.2992 106.656 72.1653 106.76L70.4846 107.741C70.397 107.785 70.3002 107.808 70.202 107.808C70.1038 107.808 70.007 107.785 69.9194 107.741L68.1495 106.716C68.0008 106.641 68.0156 106.493 68.1495 106.389L69.8302 105.423C69.9181 105.38 70.0148 105.358 70.1128 105.358C70.2108 105.358 70.3075 105.38 70.3954 105.423" fill="#3A2C6D"/>
<path d="M67.8968 103.968L69.7262 104.933C69.8749 105.022 69.8452 105.156 69.7262 105.26L68.0455 106.226C67.9587 106.272 67.8616 106.297 67.7629 106.297C67.6643 106.297 67.5672 106.272 67.4803 106.226L65.7104 105.201C65.5617 105.126 65.5766 104.978 65.7104 104.874L67.406 103.908C67.4939 103.865 67.5906 103.843 67.6886 103.843C67.7866 103.843 67.8833 103.865 67.9712 103.908" fill="#3A2C6D"/>
<path d="M65.398 102.527L67.1679 103.552C67.3018 103.626 67.2869 103.774 67.1679 103.878L65.4724 104.844C65.3845 104.887 65.2878 104.91 65.1898 104.91C65.0918 104.91 64.9951 104.887 64.9072 104.844L63.1373 103.819C63.0034 103.73 63.0183 103.596 63.1373 103.492L64.8328 102.527C64.9196 102.48 65.0168 102.455 65.1154 102.455C65.2141 102.455 65.3112 102.48 65.398 102.527Z" fill="#3A2C6D"/>
<path d="M59.7908 99.3033L64.6544 102.111C64.8031 102.185 64.7882 102.334 64.6544 102.438L62.9588 103.403C62.8709 103.446 62.7742 103.469 62.6762 103.469C62.5782 103.469 62.4815 103.446 62.3936 103.403L57.5301 100.596C57.3813 100.507 57.3962 100.358 57.5301 100.269L59.2256 99.2884C59.3132 99.2441 59.41 99.2209 59.5082 99.2209C59.6064 99.2209 59.7032 99.2441 59.7908 99.2884" fill="#3A2C6D"/>
<path d="M92.9284 118.406L95.3379 119.803C95.4866 119.877 95.4717 120.025 95.3379 120.114L93.6572 121.095C93.5684 121.135 93.4721 121.156 93.3746 121.156C93.2771 121.156 93.1808 121.135 93.092 121.095L90.6379 119.788C90.4892 119.699 90.504 119.55 90.6379 119.461L92.3335 118.481C92.421 118.436 92.5179 118.413 92.6161 118.413C92.7143 118.413 92.8111 118.436 92.8986 118.481" fill="#3A2C6D"/>
<path d="M49.9892 104.933L85.5365 125.433C85.6852 125.522 85.6703 125.655 85.5365 125.759L84.6887 126.25C84.6037 126.294 84.5094 126.317 84.4135 126.317C84.3177 126.317 84.2233 126.294 84.1384 126.25L48.5763 105.75C48.4424 105.75 48.4573 105.527 48.5763 105.423L49.4241 104.948C49.512 104.905 49.6087 104.882 49.7067 104.882C49.8047 104.882 49.9013 104.905 49.9892 104.948" fill="#3A2C6D"/>
<path d="M92.0361 106.285L91.813 106.419L85.6852 109.954L74.7979 103.671L74.5748 103.552L80.9257 99.8826L92.0361 106.285Z" fill="#BFBFBF"/>
<path d="M91.7982 106.419L85.6852 109.954L74.798 103.67L80.9258 100.15L91.7982 106.419Z" fill="#E5E5E5"/>
<path d="M109.497 114.529V115.079C109.498 115.47 109.395 115.855 109.199 116.194C109.003 116.533 108.721 116.814 108.382 117.01L86.8156 129.443C86.4732 129.637 86.0863 129.739 85.6927 129.739C85.299 129.739 84.9121 129.637 84.5697 129.443L45.5422 106.939C45.2018 106.744 44.9192 106.463 44.7232 106.123C44.5272 105.784 44.4249 105.399 44.4267 105.007V104.458L85.6852 128.225L109.497 114.529Z" fill="#E5E5E5"/>
<path d="M85.6852 128.27V129.755C85.2957 129.755 84.9124 129.658 84.5697 129.473L45.5421 106.939C45.2 106.745 44.9152 106.464 44.7167 106.125C44.5182 105.786 44.413 105.4 44.4117 105.007V104.458L85.6852 128.27Z" fill="#E5E5E5"/>
<path d="M85.0606 128.596C84.6918 128.737 84.2963 128.794 83.9027 128.763C83.5091 128.732 83.1273 128.615 82.785 128.418L43.921 106.003C43.5843 105.808 43.2941 105.542 43.0706 105.224C42.8471 104.906 42.6958 104.543 42.6271 104.161L38.3733 78.8185C38.359 78.6753 38.359 78.531 38.3733 78.3878C38.3715 77.6816 38.6496 77.0034 39.1467 76.5012L79.5426 99.7933C79.79 99.9397 80.003 100.138 80.1673 100.373C80.3315 100.609 80.4431 100.877 80.4945 101.16L85.0606 128.596Z" fill="#F4F4F4"/>
<path d="M85.6851 128.27L85.4174 128.418L85.0604 128.597L80.4646 101.16C80.4132 100.878 80.3016 100.609 80.1373 100.373C79.9731 100.138 79.7601 99.9399 79.5127 99.7935L39.1168 76.5014C39.2785 76.3468 39.4583 76.2121 39.6522 76.1003L80.1374 99.437C80.3874 99.5803 80.6024 99.7772 80.767 100.013C80.9316 100.25 81.0417 100.52 81.0893 100.804L85.6851 128.27Z" fill="#E5E5E5"/>
</g>
<defs>
<clipPath id="clip0">
<rect width="742" height="467" fill="white"/>
</clipPath>
</defs>
</svg>
