<svg width="531" height="607" viewBox="0 0 531 607" fill="none" xmlns="http://www.w3.org/2000/svg">
<g clip-path="url(#clip0)">
<path opacity="0.2" d="M289.795 607L3.33728 441.762L163.465 350.567L449.923 515.804L289.795 607Z" fill="#D6D8E5"/>
<path d="M246.447 460.227C242.188 463.699 235.889 460.519 235.525 460.846C231.181 465.193 224.603 470.158 219.749 473.946C217.092 476.046 212.941 478.802 213.682 482.868C215.029 490.055 226.533 487.846 230.877 485.649C235.222 483.451 238.753 479.797 242.867 477.248C245.792 475.427 248.68 474.48 249.129 470.777C249.505 468.604 247.2 460.106 246.447 460.227Z" fill="#38226D"/>
<path d="M249.178 469.284C248.607 472.829 245.768 473.812 242.855 475.621C238.681 478.207 235.004 481.958 230.72 484.119C226.703 486.146 216.703 488.162 213.888 483.026C215.417 489.958 226.715 487.785 231.023 485.612C235.331 483.439 238.899 479.761 243.013 477.211C245.938 475.39 248.826 474.443 249.275 470.741C249.297 470.253 249.265 469.764 249.178 469.284Z" fill="#7166F9"/>
<path d="M203.184 435.304C198.925 438.776 191.461 434.976 191.146 435.304C186.702 439.789 182.006 444.017 177.081 447.966C174.423 450.054 170.285 452.822 171.013 456.877C172.348 464.064 183.853 461.854 188.197 459.657C192.542 457.46 196.085 453.805 200.187 451.256C203.124 449.435 206 448.488 206.461 444.797C206.752 442.588 203.949 435.207 203.184 435.304Z" fill="#38226D"/>
<path d="M206.303 443.838C205.745 447.383 202.893 448.367 199.993 450.175C195.818 452.761 192.141 456.513 187.797 458.673C183.792 460.701 173.78 462.716 170.965 457.581C172.506 464.513 183.804 462.34 188.1 460.167C192.396 457.994 195.988 454.315 200.09 451.766C203.027 449.945 205.903 448.998 206.364 445.295C206.391 444.809 206.371 444.321 206.303 443.838Z" fill="#7166F9"/>
<path d="M303.472 323.482C308.193 353.019 295.074 364.042 277.987 370.331C265.755 374.835 248.207 381.779 248.207 381.779C248.207 381.779 248.45 388.261 248.583 402.817C248.704 415.625 247.018 462.4 247.018 462.4C247.018 462.4 239.955 466.042 233.96 462.255C233.96 462.255 227.091 426.417 225.623 410.259C223.645 388.346 220.283 373.997 221.412 369.287C222.395 365.135 246.338 353.347 253.935 347.046L203.767 363.86C204.766 369.306 205.253 374.834 205.223 380.37C204.762 397.755 203.803 435.401 203.803 435.401C203.803 435.401 196.922 440.366 191.049 435.498C191.049 435.498 178.428 360.971 179.957 351.101C181.413 341.741 225.623 322.608 233.414 316.016C234.773 314.911 236.35 314.104 238.041 313.648C239.733 313.192 241.501 313.097 243.231 313.37L303.472 323.482Z" fill="#7166F9"/>
<path d="M284.261 217.051L313.447 231.34C313.447 231.34 329.296 236.985 324.855 263.778C321.627 283.202 317.306 322.147 317.306 322.147L262.43 316.587L284.261 217.051Z" fill="#2B303F"/>
<path d="M286.009 212.28C286.009 212.28 285.281 226.35 285.596 227.601C285.912 228.851 292.052 232.967 293.836 234.448C295.62 235.929 284.128 247.28 278.521 249.853C272.915 252.427 255.185 245.641 254.869 236.936C254.554 228.232 257.903 220.899 260.634 220.511C263.364 220.122 286.009 212.28 286.009 212.28Z" fill="#FFCEA9"/>
<path d="M234.931 244.767L224.822 261.617L211.352 276.792L221.46 283.53L234.931 271.73C234.931 271.73 256.253 246.442 254.845 244.767C253.437 243.091 234.931 244.767 234.931 244.767Z" fill="#FFCEA9"/>
<path d="M287.611 230.029C287.611 230.029 277.405 245.228 263.17 246.661C258.68 242.242 258.316 226.484 264.481 221.446C264.481 221.446 258.777 216.845 254.869 217.731C250.673 220.28 247.549 224.273 246.083 228.96C242.457 239.421 240.755 250.452 241.059 261.52C241.302 276.452 241.059 314.183 241.059 314.183C241.059 314.183 243.183 328.606 256.059 335.78C266.318 341.576 278.399 343.243 289.844 340.442C297.052 338.767 299.746 334.724 302.222 329.516C301.579 319.051 297.441 297.515 299.188 284.367C300.936 271.22 303.703 261.386 304.419 250.752C305.135 240.117 303.023 240.336 297.695 236.536C294.497 234.124 291.126 231.949 287.611 230.029Z" fill="#F4F4F4"/>
<path d="M281.179 590.138C284.899 590.138 287.914 588.393 287.914 586.241C287.914 584.088 284.899 582.344 281.179 582.344C277.459 582.344 274.444 584.088 274.444 586.241C274.444 588.393 277.459 590.138 281.179 590.138Z" fill="#2B303F"/>
<path d="M287.926 453.611H274.444V585.84H287.926V453.611Z" fill="#2B303F"/>
<path d="M33.0207 442.066C36.7404 442.066 39.7558 440.321 39.7558 438.169C39.7558 436.017 36.7404 434.272 33.0207 434.272C29.3009 434.272 26.2855 436.017 26.2855 438.169C26.2855 440.321 29.3009 442.066 33.0207 442.066Z" fill="#2B303F"/>
<path d="M39.768 305.527H26.2855V437.756H39.768V305.527Z" fill="#2B303F"/>
<path d="M419.912 511.762C423.632 511.762 426.647 510.017 426.647 507.865C426.647 505.712 423.632 503.968 419.912 503.968C416.192 503.968 413.177 505.712 413.177 507.865C413.177 510.017 416.192 511.762 419.912 511.762Z" fill="#2B303F"/>
<path d="M426.659 385.348H413.177V507.464H426.659V385.348Z" fill="#2B303F"/>
<path d="M436.562 399.406L147.434 232.457L10.6307 311.464L3.34943 307.251V315.64L299.746 486.887L443.843 403.667V395.242L436.562 399.406Z" fill="#D3C4A9"/>
<path d="M299.771 478.462L3.33728 307.251L147.434 224.032L443.867 395.242L299.771 478.462Z" fill="#EFE3CA"/>
<path d="M271.216 351.259C273.716 350.045 275.536 348.151 279.201 346.67C281.785 345.868 284.135 344.447 286.045 342.53C288.545 340.102 292.647 330.803 295.572 321.771C299.03 311.1 299.625 296.604 299.018 290.352C297.805 277.678 293.205 259.93 292.052 252.633C290.9 245.337 293.266 242.436 296.64 239.741C300.62 236.584 306.117 237.98 309.066 248.239C312.851 262.389 315.045 276.917 315.607 291.554C315.73 302.412 314.062 313.216 310.668 323.531C307.598 333.122 303.593 340.017 298.472 348.685C297.064 351.04 296.615 353.14 294.48 357.948C292.344 362.755 288.703 367.842 285.184 370.379C281.664 372.917 279.917 373.305 279.116 372.807C278.06 372.188 278.279 371.047 279.771 369.687C282.313 367.708 284.475 365.286 286.155 362.537C286.155 362.537 283.024 365.681 280.985 367.393C279.171 368.921 277.163 370.203 275.014 371.205C272.915 372.127 270.014 370.355 271.495 368.947C272.975 367.539 274.492 366.847 277.478 364.261C279.067 362.9 280.489 361.356 281.713 359.66C279.62 361.259 277.404 362.692 275.087 363.945C271.835 365.608 270.148 365.633 269.019 365.584C267.891 365.535 266.592 363.994 268.643 362.488C270.5 361.141 273.412 360.23 276.555 357.098C278.837 354.828 280.135 352.898 279.492 352.861C278.849 352.825 277.599 354.245 274.917 355.095C272.235 355.945 269.371 355.168 269.031 353.699C268.692 352.23 268.716 352.497 271.216 351.259Z" fill="#FFCEA9"/>
<path d="M254.178 191.314C255.852 180.388 263.716 172.109 274.978 172.74C279.504 172.978 283.842 174.632 287.379 177.468C290.916 180.304 293.474 184.178 294.692 188.546C295.911 192.913 295.728 197.553 294.17 201.811C292.612 206.07 289.758 209.731 286.009 212.28C285.615 213.933 285.029 215.535 284.261 217.051C280.281 221.713 268.243 224.59 264.784 224.092C260.342 223.461 257.927 221.604 255.816 216.748C252.078 208.177 253.255 196.668 254.178 191.314Z" fill="#FFCEA9"/>
<path d="M286.009 212.28L284.977 202.75C284.977 202.75 292.756 182.598 274.371 186.47C262.236 189.02 259.19 190.112 255.488 181.979C251.787 173.845 264.82 166.512 280.293 168.54C285.619 169.099 290.541 171.639 294.084 175.657C297.626 179.675 299.53 184.878 299.419 190.234C299.018 196.231 297.416 208.359 286.009 212.28Z" fill="#3A2C6D"/>
<path d="M317.476 266.971C317.476 266.971 307.44 276.95 295.572 274.073C293.873 272.919 289.795 249.586 289.795 249.586C289.795 249.586 289.795 236.657 299.71 236.997C309.625 237.337 317.476 266.971 317.476 266.971Z" fill="#EDEDED"/>
<path d="M159.509 324.017L199.35 301.072C199.698 300.869 200.094 300.763 200.496 300.763C200.899 300.763 201.295 300.869 201.643 301.072L271.531 341.438L230.574 365.05L159.509 324.017Z" fill="#F6F8FB"/>
<path d="M232.407 356.588L235.44 358.336C235.683 358.482 235.659 358.737 235.368 358.895L232.467 360.558C232.319 360.636 232.155 360.676 231.988 360.676C231.821 360.676 231.656 360.636 231.509 360.558L228.463 358.81C228.22 358.664 228.256 358.421 228.535 358.251L231.436 356.576C231.588 356.503 231.754 356.466 231.923 356.468C232.091 356.47 232.257 356.511 232.407 356.588Z" fill="#2B303F"/>
<path d="M228.147 354.099L231.193 355.86C231.436 356.005 231.411 356.248 231.12 356.418L228.147 358.13C227.996 358.205 227.83 358.244 227.662 358.244C227.493 358.244 227.327 358.205 227.176 358.13L224.142 356.37C223.9 356.236 223.924 355.981 224.215 355.811L227.115 354.148C227.27 354.054 227.445 354.001 227.625 353.992C227.805 353.984 227.985 354.021 228.147 354.099Z" fill="#2B303F"/>
<path d="M223.754 351.587L226.788 353.347C227.043 353.493 227.006 353.735 226.788 353.905L223.888 355.581C223.737 355.655 223.571 355.694 223.402 355.694C223.234 355.694 223.068 355.655 222.917 355.581L219.883 353.832C219.628 353.687 219.664 353.432 219.956 353.274L222.844 351.599C222.986 351.532 223.141 351.497 223.298 351.494C223.455 351.492 223.61 351.524 223.754 351.587Z" fill="#2B303F"/>
<path d="M219.507 349.134L222.54 350.895C222.795 351.04 222.759 351.283 222.468 351.453L219.579 353.128C219.428 353.202 219.262 353.241 219.094 353.241C218.926 353.241 218.76 353.202 218.609 353.128L215.575 351.368C215.32 351.234 215.356 350.98 215.635 350.81L218.536 349.146C218.685 349.068 218.851 349.026 219.02 349.024C219.188 349.021 219.355 349.059 219.507 349.134Z" fill="#2B303F"/>
<path d="M215.211 346.658L218.244 348.406C218.487 348.552 218.463 348.807 218.172 348.964L215.271 350.64C215.123 350.717 214.959 350.758 214.792 350.758C214.625 350.758 214.46 350.717 214.313 350.64L211.267 348.891C211.024 348.746 211.06 348.491 211.339 348.333L214.24 346.658C214.39 346.58 214.556 346.539 214.725 346.539C214.894 346.539 215.061 346.58 215.211 346.658Z" fill="#2B303F"/>
<path d="M210.903 344.169L213.949 345.99C214.191 346.124 214.155 346.378 213.876 346.548L210.975 348.224C210.824 348.299 210.658 348.338 210.49 348.338C210.322 348.338 210.155 348.299 210.005 348.224L206.971 346.463C206.728 346.33 206.752 346.075 207.043 345.905L209.944 344.23C210.088 344.145 210.249 344.096 210.416 344.085C210.582 344.075 210.749 344.104 210.903 344.169Z" fill="#2B303F"/>
<path d="M206.607 341.692L209.64 343.441C209.895 343.586 209.859 343.829 209.58 343.999L206.679 345.674C206.529 345.752 206.363 345.793 206.194 345.793C206.025 345.793 205.859 345.752 205.709 345.674L202.675 343.926C202.42 343.78 202.456 343.526 202.748 343.368L205.636 341.692C205.786 341.615 205.952 341.574 206.121 341.574C206.29 341.574 206.457 341.615 206.607 341.692Z" fill="#2B303F"/>
<path d="M202.311 339.204L205.344 340.964C205.587 341.098 205.563 341.353 205.272 341.522L202.383 343.186C202.233 343.262 202.067 343.302 201.898 343.302C201.729 343.302 201.563 343.262 201.413 343.186L198.379 341.425C198.124 341.28 198.16 341.037 198.439 340.867L201.34 339.192C201.492 339.119 201.658 339.082 201.827 339.084C201.995 339.086 202.161 339.127 202.311 339.204Z" fill="#2B303F"/>
<path d="M198.015 336.727L201.049 338.475C201.291 338.621 201.267 338.864 200.976 339.034L198.075 340.709C197.927 340.787 197.763 340.827 197.596 340.827C197.429 340.827 197.264 340.787 197.117 340.709L194.071 338.961C193.828 338.815 193.864 338.56 194.143 338.403L197.044 336.727C197.194 336.649 197.36 336.609 197.529 336.609C197.698 336.609 197.865 336.649 198.015 336.727Z" fill="#2B303F"/>
<path d="M193.707 334.239L196.753 335.999C196.995 336.132 196.959 336.387 196.68 336.545L193.779 338.22C193.628 338.294 193.462 338.333 193.294 338.333C193.126 338.333 192.96 338.294 192.808 338.22L189.775 336.46C189.532 336.314 189.556 336.072 189.847 335.902L192.748 334.226C192.897 334.153 193.062 334.117 193.229 334.119C193.395 334.121 193.559 334.162 193.707 334.239Z" fill="#2B303F"/>
<path d="M189.411 331.75L192.444 333.51C192.699 333.656 192.663 333.899 192.384 334.068L189.483 335.744C189.332 335.819 189.166 335.858 188.998 335.858C188.83 335.858 188.663 335.819 188.513 335.744L185.479 333.996C185.224 333.85 185.26 333.595 185.551 333.437L188.44 331.762C188.59 331.686 188.755 331.645 188.924 331.643C189.092 331.641 189.258 331.678 189.411 331.75Z" fill="#2B303F"/>
<path d="M185.115 329.273L188.149 331.021C188.391 331.167 188.367 331.422 188.076 331.58L185.175 333.255C185.026 333.329 184.862 333.367 184.696 333.367C184.53 333.367 184.366 333.329 184.217 333.255L181.183 331.495C180.928 331.349 180.964 331.106 181.183 330.936L184.083 329.261C184.243 329.178 184.42 329.136 184.6 329.138C184.78 329.14 184.957 329.186 185.115 329.273Z" fill="#2B303F"/>
<path d="M180.819 326.785L183.865 328.545C184.107 328.691 184.083 328.933 183.792 329.103L180.892 330.779C180.743 330.853 180.579 330.892 180.412 330.892C180.246 330.892 180.082 330.853 179.933 330.779L176.887 329.03C176.644 328.885 176.668 328.63 176.96 328.472L179.86 326.797C180.008 326.721 180.172 326.68 180.338 326.678C180.504 326.676 180.669 326.713 180.819 326.785Z" fill="#2B303F"/>
<path d="M174.448 323.106L179.544 326.056C179.799 326.202 179.763 326.457 179.544 326.615L176.644 328.29C176.493 328.364 176.327 328.402 176.159 328.402C175.99 328.402 175.824 328.364 175.673 328.29L170.504 325.352C170.261 325.206 170.297 324.951 170.576 324.794L173.477 323.118C173.627 323.042 173.792 323.002 173.961 323C174.129 322.998 174.295 323.034 174.448 323.106Z" fill="#2B303F"/>
<path d="M230.198 350.494L233.232 352.254C233.475 352.388 233.45 352.643 233.159 352.813L230.259 354.488C230.11 354.563 229.946 354.602 229.779 354.602C229.613 354.602 229.449 354.563 229.3 354.488L226.254 352.728C226.011 352.594 226.048 352.339 226.327 352.169L229.227 350.494C229.378 350.419 229.544 350.38 229.713 350.38C229.881 350.38 230.047 350.419 230.198 350.494Z" fill="#2B303F"/>
<path d="M225.89 348.005L228.924 349.766C229.166 349.911 229.142 350.154 228.851 350.324L225.951 352.06C225.802 352.135 225.638 352.174 225.471 352.174C225.305 352.174 225.141 352.135 224.992 352.06L221.946 350.3C221.703 350.166 221.74 349.911 222.019 349.741L224.919 348.078C225.065 347.993 225.228 347.942 225.396 347.929C225.564 347.916 225.733 347.942 225.89 348.005Z" fill="#2B303F"/>
<path d="M221.582 345.517L224.616 347.277C224.858 347.423 224.834 347.665 224.543 347.835L221.655 349.511C221.503 349.585 221.337 349.623 221.169 349.623C221.001 349.623 220.835 349.585 220.684 349.511L217.65 347.762C217.395 347.617 217.431 347.362 217.71 347.204L220.611 345.529C220.761 345.453 220.927 345.412 221.095 345.41C221.263 345.408 221.43 345.444 221.582 345.517Z" fill="#2B303F"/>
<path d="M217.225 343.04L220.259 344.788C220.514 344.934 220.477 345.177 220.186 345.347L217.298 347.022C217.147 347.096 216.981 347.134 216.813 347.134C216.644 347.134 216.478 347.096 216.327 347.022L213.293 345.274C213.038 345.128 213.075 344.873 213.293 344.715L216.194 343.04C216.351 342.952 216.529 342.905 216.709 342.905C216.89 342.905 217.068 342.952 217.225 343.04Z" fill="#2B303F"/>
<path d="M213.002 340.563L216.012 342.348C216.266 342.494 216.23 342.736 215.939 342.906L213.051 344.582C212.899 344.656 212.733 344.694 212.565 344.694C212.397 344.694 212.231 344.656 212.08 344.582L209.046 342.821C208.791 342.688 208.827 342.433 209.106 342.263L212.007 340.6C212.157 340.513 212.327 340.465 212.5 340.459C212.673 340.452 212.846 340.488 213.002 340.563Z" fill="#2B303F"/>
<path d="M208.73 338.075L211.764 339.835C212.019 339.981 211.983 340.224 211.703 340.393L208.73 342.069C208.579 342.143 208.413 342.181 208.245 342.181C208.077 342.181 207.911 342.143 207.759 342.069L204.726 340.321C204.471 340.175 204.507 339.92 204.798 339.762L207.687 338.087C207.846 337.999 208.025 337.952 208.207 337.95C208.389 337.948 208.569 337.991 208.73 338.075Z" fill="#2B303F"/>
<path d="M204.386 335.598L207.42 337.346C207.674 337.492 207.638 337.735 207.42 337.905L204.519 339.58C204.368 339.655 204.202 339.694 204.034 339.694C203.865 339.694 203.699 339.655 203.548 339.58L200.514 337.832C200.272 337.686 200.296 337.431 200.587 337.273L203.476 335.598C203.618 335.53 203.773 335.495 203.931 335.495C204.088 335.495 204.244 335.53 204.386 335.598Z" fill="#2B303F"/>
<path d="M200.078 333.109L203.124 334.858C203.366 335.003 203.33 335.246 203.051 335.416L200.15 337.091C200 337.169 199.834 337.21 199.665 337.21C199.496 337.21 199.33 337.169 199.18 337.091L196.146 335.343C195.903 335.198 195.927 334.943 196.219 334.785L199.119 333.109C199.267 333.032 199.431 332.991 199.598 332.991C199.765 332.991 199.93 333.032 200.078 333.109Z" fill="#2B303F"/>
<path d="M195.77 330.621L198.816 332.369C199.058 332.515 199.022 332.77 198.743 332.927L195.842 334.603C195.692 334.68 195.526 334.721 195.357 334.721C195.188 334.721 195.022 334.68 194.872 334.603L191.838 332.855C191.595 332.709 191.619 332.466 191.91 332.296L194.811 330.621C194.959 330.543 195.123 330.503 195.29 330.503C195.457 330.503 195.622 330.543 195.77 330.621Z" fill="#2B303F"/>
<path d="M191.474 328.132L194.507 329.88C194.75 330.026 194.726 330.281 194.435 330.439L191.534 332.114C191.386 332.192 191.222 332.232 191.055 332.232C190.888 332.232 190.723 332.192 190.576 332.114L187.53 330.366C187.287 330.22 187.311 329.977 187.602 329.807L190.503 328.132C190.654 328.057 190.82 328.018 190.988 328.018C191.157 328.018 191.323 328.057 191.474 328.132Z" fill="#2B303F"/>
<path d="M187.166 325.643L190.199 327.391C190.442 327.537 190.418 327.792 190.127 327.95L187.226 329.625C187.077 329.699 186.913 329.738 186.747 329.738C186.581 329.738 186.417 329.699 186.268 329.625L183.246 327.914C183.003 327.768 183.039 327.525 183.319 327.355L186.219 325.68C186.364 325.603 186.524 325.56 186.688 325.554C186.852 325.547 187.015 325.578 187.166 325.643Z" fill="#2B303F"/>
<path d="M182.857 323.155L185.891 324.915C186.134 325.049 186.11 325.303 185.818 325.473L182.918 327.137C182.77 327.213 182.606 327.253 182.439 327.253C182.272 327.253 182.108 327.213 181.959 327.137L178.926 325.376C178.671 325.231 178.707 324.988 178.986 324.818L181.887 323.143C182.038 323.07 182.205 323.033 182.373 323.035C182.542 323.037 182.707 323.078 182.857 323.155Z" fill="#2B303F"/>
<path d="M234.494 352.983L239.603 355.933C239.858 356.078 239.821 356.321 239.542 356.491L236.642 358.13C236.492 358.208 236.325 358.248 236.157 358.248C235.988 358.248 235.821 358.208 235.671 358.13L230.574 355.253C230.331 355.107 230.356 354.864 230.647 354.694L233.547 353.019C233.692 352.941 233.852 352.896 234.016 352.89C234.181 352.884 234.344 352.915 234.494 352.983Z" fill="#2B303F"/>
<path d="M174.654 322.924L177.688 324.684C177.827 324.753 177.981 324.789 178.137 324.789C178.292 324.789 178.446 324.753 178.586 324.684L181.656 322.912C181.709 322.892 181.754 322.856 181.787 322.809C181.819 322.763 181.836 322.707 181.836 322.651C181.836 322.594 181.819 322.539 181.787 322.492C181.754 322.446 181.709 322.41 181.656 322.39L181.413 322.244C181.183 322.123 181.183 321.904 181.413 321.771L184.653 319.901C184.908 319.755 184.908 319.525 184.653 319.379L182.724 318.262C182.585 318.191 182.431 318.154 182.275 318.154C182.119 318.154 181.965 318.191 181.826 318.262L178.792 320.01L178.173 320.375L177.712 320.642L177.263 320.897L174.654 322.402C174.399 322.572 174.399 322.803 174.654 322.924Z" fill="#2B303F"/>
<path d="M249.056 346.949L252.09 348.709C252.333 348.843 252.309 349.098 252.017 349.268L249.117 350.931C248.968 351.005 248.804 351.043 248.638 351.043C248.471 351.043 248.307 351.005 248.158 350.931L245.125 349.171C244.87 349.025 244.906 348.782 245.125 348.612L248.025 346.937C248.185 346.854 248.362 346.811 248.542 346.813C248.722 346.816 248.899 346.862 249.056 346.949Z" fill="#2B303F"/>
<path d="M244.76 344.473L247.806 346.233C248.049 346.366 248.025 346.621 247.734 346.791L244.833 348.418C244.685 348.495 244.521 348.535 244.354 348.535C244.187 348.535 244.023 348.495 243.875 348.418L240.829 346.658C240.586 346.512 240.61 346.269 240.901 346.099L243.802 344.424C243.954 344.357 244.12 344.326 244.287 344.334C244.453 344.343 244.616 344.39 244.76 344.473Z" fill="#2B303F"/>
<path d="M240.477 341.996L243.511 343.756C243.765 343.89 243.729 344.145 243.511 344.315L240.549 345.99C240.399 346.067 240.233 346.107 240.064 346.107C239.895 346.107 239.729 346.067 239.579 345.99L236.545 344.23C236.302 344.096 236.326 343.841 236.618 343.671L239.518 341.996C239.667 341.921 239.831 341.882 239.997 341.882C240.164 341.882 240.328 341.921 240.477 341.996Z" fill="#2B303F"/>
<path d="M203.973 320.909L207.007 322.669C207.262 322.815 207.225 323.058 206.934 323.228L204.046 324.903C203.895 324.977 203.729 325.015 203.561 325.015C203.392 325.015 203.226 324.977 203.075 324.903L200.041 323.143C199.786 323.009 199.823 322.754 200.041 322.584L202.942 320.921C203.099 320.832 203.275 320.784 203.456 320.782C203.636 320.78 203.814 320.823 203.973 320.909Z" fill="#2B303F"/>
<path d="M199.689 318.432L202.723 320.193C202.966 320.338 202.942 320.581 202.65 320.751L199.75 322.426C199.601 322.501 199.437 322.54 199.271 322.54C199.104 322.54 198.94 322.501 198.791 322.426L195.745 320.666C195.503 320.532 195.539 320.277 195.818 320.108L198.718 318.444C198.869 318.368 199.034 318.328 199.202 318.326C199.371 318.324 199.537 318.36 199.689 318.432Z" fill="#2B303F"/>
<path d="M195.381 315.956L198.427 317.716C198.67 317.862 198.634 318.104 198.354 318.274L195.454 319.95C195.303 320.025 195.137 320.064 194.969 320.064C194.8 320.064 194.634 320.025 194.483 319.95L191.449 318.202C191.207 318.056 191.231 317.801 191.522 317.643L194.423 315.968C194.571 315.892 194.734 315.852 194.9 315.849C195.067 315.847 195.231 315.884 195.381 315.956Z" fill="#2B303F"/>
<path d="M191.109 313.479L194.143 315.239C194.398 315.385 194.362 315.628 194.143 315.798L191.243 317.473C191.092 317.548 190.926 317.587 190.758 317.587C190.589 317.587 190.423 317.548 190.272 317.473L187.238 315.725C186.983 315.579 187.02 315.324 187.311 315.167L190.199 313.491C190.341 313.425 190.496 313.389 190.653 313.387C190.81 313.385 190.966 313.416 191.109 313.479Z" fill="#2B303F"/>
<path d="M235.089 338.888L239.227 341.316C239.482 341.45 239.445 341.705 239.154 341.875L236.266 343.562C236.115 343.636 235.948 343.674 235.78 343.674C235.612 343.674 235.446 343.636 235.295 343.562L231.157 341.134C230.902 340.988 230.938 340.733 231.229 340.576L234.118 338.9C234.267 338.821 234.433 338.778 234.602 338.776C234.771 338.774 234.938 338.812 235.089 338.888Z" fill="#2B303F"/>
<path d="M208.257 323.385L212.395 325.813C212.65 325.959 212.614 326.214 212.334 326.372L209.434 328.047C209.284 328.125 209.118 328.165 208.949 328.165C208.78 328.165 208.613 328.125 208.463 328.047L204.325 325.619C204.082 325.486 204.107 325.231 204.398 325.061L207.286 323.397C207.435 323.319 207.601 323.277 207.77 323.275C207.939 323.273 208.106 323.31 208.257 323.385Z" fill="#2B303F"/>
<path d="M213.645 326.566L233.839 338.22C234.081 338.366 234.057 338.621 233.766 338.779L230.865 340.454C230.718 340.532 230.553 340.572 230.386 340.572C230.219 340.572 230.055 340.532 229.907 340.454L209.713 328.8C209.471 328.654 209.495 328.399 209.786 328.241L212.686 326.566C212.834 326.488 212.999 326.448 213.166 326.448C213.333 326.448 213.497 326.488 213.645 326.566Z" fill="#2B303F"/>
<path d="M233.195 347.41L236.229 349.171C236.472 349.316 236.448 349.559 236.157 349.729L233.256 351.404C233.107 351.479 232.943 351.518 232.777 351.518C232.61 351.518 232.446 351.479 232.297 351.404L229.251 349.632C229.009 349.498 229.033 349.244 229.324 349.074L232.225 347.41C232.376 347.336 232.542 347.298 232.71 347.298C232.878 347.298 233.044 347.336 233.195 347.41Z" fill="#2B303F"/>
<path d="M228.899 344.934L231.933 346.682C232.176 346.828 232.152 347.083 231.86 347.24L228.96 348.916C228.811 348.99 228.647 349.028 228.481 349.028C228.314 349.028 228.15 348.99 228.001 348.916L224.955 347.204C224.713 347.058 224.749 346.816 225.028 346.646L227.929 344.97C228.077 344.89 228.241 344.844 228.41 344.838C228.578 344.832 228.746 344.865 228.899 344.934Z" fill="#2B303F"/>
<path d="M224.603 342.457L227.637 344.205C227.88 344.351 227.856 344.606 227.564 344.764L224.676 346.439C224.526 346.517 224.36 346.557 224.191 346.557C224.022 346.557 223.855 346.517 223.705 346.439L220.672 344.691C220.417 344.545 220.453 344.29 220.672 344.133L223.572 342.457C223.729 342.369 223.907 342.323 224.088 342.323C224.268 342.323 224.446 342.369 224.603 342.457Z" fill="#2B303F"/>
<path d="M220.308 339.92L223.341 341.68C223.596 341.826 223.56 342.069 223.269 342.239L220.38 343.914C220.229 343.988 220.063 344.027 219.895 344.027C219.727 344.027 219.561 343.988 219.409 343.914L216.376 342.166C216.121 342.02 216.157 341.765 216.376 341.607L219.276 339.932C219.434 339.846 219.61 339.8 219.79 339.798C219.97 339.796 220.148 339.838 220.308 339.92Z" fill="#2B303F"/>
<path d="M216.012 337.492L219.045 339.252C219.3 339.386 219.264 339.641 218.985 339.811L216.084 341.474C215.934 341.551 215.768 341.591 215.599 341.591C215.43 341.591 215.264 341.551 215.114 341.474L212.08 339.714C211.825 339.568 211.861 339.325 212.152 339.155L215.041 337.492C215.192 337.418 215.358 337.38 215.526 337.38C215.694 337.38 215.86 337.418 216.012 337.492Z" fill="#2B303F"/>
<path d="M211.716 335.064L214.749 336.812C215.004 336.958 214.968 337.213 214.689 337.371L211.788 339.046C211.638 339.124 211.472 339.164 211.303 339.164C211.134 339.164 210.968 339.124 210.818 339.046L207.784 337.298C207.541 337.152 207.565 336.909 207.856 336.739L210.757 335.064C210.905 334.986 211.069 334.946 211.236 334.946C211.403 334.946 211.568 334.986 211.716 335.064Z" fill="#2B303F"/>
<path d="M207.42 332.527L210.466 334.287C210.708 334.433 210.672 334.676 210.393 334.846L207.517 336.521C207.366 336.596 207.2 336.635 207.031 336.635C206.863 336.635 206.697 336.596 206.546 336.521L203.512 334.773C203.269 334.627 203.294 334.372 203.585 334.214L206.485 332.539C206.63 332.467 206.789 332.429 206.951 332.427C207.113 332.424 207.273 332.459 207.42 332.527Z" fill="#2B303F"/>
<path d="M203.124 330.05L206.17 331.81C206.412 331.944 206.388 332.199 206.097 332.369L203.196 334.032C203.048 334.109 202.884 334.149 202.717 334.149C202.55 334.149 202.386 334.109 202.238 334.032L199.192 332.272C198.949 332.138 198.973 331.883 199.265 331.713L202.165 330.038C202.315 329.965 202.479 329.928 202.646 329.93C202.812 329.933 202.976 329.974 203.124 330.05Z" fill="#2B303F"/>
<path d="M198.84 327.574L201.874 329.322C202.116 329.467 202.092 329.722 201.801 329.88L198.9 331.556C198.753 331.633 198.588 331.674 198.421 331.674C198.254 331.674 198.09 331.633 197.942 331.556L194.896 329.807C194.653 329.662 194.689 329.419 194.969 329.249L197.869 327.574C198.02 327.499 198.186 327.46 198.354 327.46C198.523 327.46 198.689 327.499 198.84 327.574Z" fill="#2B303F"/>
<path d="M194.544 325.097L197.578 326.845C197.82 326.991 197.796 327.234 197.505 327.404L194.605 329.079C194.456 329.154 194.292 329.193 194.125 329.193C193.959 329.193 193.795 329.154 193.646 329.079L190.612 327.331C190.357 327.185 190.394 326.93 190.673 326.772L193.573 325.097C193.723 325.019 193.89 324.979 194.058 324.979C194.227 324.979 194.394 325.019 194.544 325.097Z" fill="#2B303F"/>
<path d="M190.248 322.608L193.282 324.369C193.537 324.514 193.5 324.757 193.209 324.927L190.321 326.566C190.17 326.64 190.004 326.678 189.835 326.678C189.667 326.678 189.501 326.64 189.35 326.566L186.316 324.806C186.061 324.672 186.098 324.417 186.377 324.247L189.277 322.584C189.429 322.511 189.597 322.475 189.765 322.479C189.934 322.484 190.1 322.528 190.248 322.608Z" fill="#2B303F"/>
<path d="M185.952 320.132L188.986 321.88C189.241 322.026 189.204 322.281 188.913 322.438L186.025 324.138C185.874 324.212 185.708 324.25 185.539 324.25C185.371 324.25 185.205 324.212 185.054 324.138L182.02 322.378C181.765 322.232 181.802 321.989 182.093 321.819L184.981 320.144C185.131 320.068 185.297 320.028 185.465 320.025C185.633 320.023 185.8 320.06 185.952 320.132Z" fill="#2B303F"/>
<path d="M237.479 349.899L243.765 353.541C244.008 353.687 243.984 353.942 243.693 354.099L240.792 355.702C240.643 355.776 240.479 355.814 240.313 355.814C240.147 355.814 239.983 355.776 239.834 355.702L233.547 352.06C233.305 351.914 233.329 351.659 233.62 351.502L236.521 349.826C236.674 349.76 236.842 349.731 237.009 349.744C237.176 349.757 237.337 349.81 237.479 349.899Z" fill="#2B303F"/>
<path d="M239.494 346.233L242.528 347.993C242.77 348.139 242.746 348.382 242.455 348.552L239.554 350.227C239.406 350.302 239.242 350.341 239.075 350.341C238.909 350.341 238.744 350.302 238.596 350.227L235.55 348.479C235.307 348.333 235.343 348.078 235.623 347.92L238.523 346.245C238.673 346.169 238.839 346.129 239.007 346.126C239.175 346.124 239.342 346.161 239.494 346.233Z" fill="#2B303F"/>
<path d="M235.198 343.756L238.232 345.517C238.474 345.65 238.45 345.905 238.159 346.075L235.258 347.75C235.11 347.825 234.945 347.864 234.779 347.864C234.613 347.864 234.448 347.825 234.3 347.75L231.266 345.99C231.011 345.856 231.047 345.602 231.326 345.432L234.215 343.805C234.363 343.718 234.529 343.669 234.7 343.66C234.871 343.652 235.042 343.685 235.198 343.756Z" fill="#2B303F"/>
<path d="M230.902 341.28L233.936 343.028C234.191 343.174 234.154 343.428 233.863 343.586L230.975 345.262C230.823 345.336 230.657 345.374 230.489 345.374C230.321 345.374 230.155 345.336 230.004 345.262L226.934 343.562C226.679 343.416 226.715 343.174 226.994 343.004L229.895 341.328C230.047 341.241 230.217 341.191 230.392 341.182C230.567 341.174 230.742 341.207 230.902 341.28Z" fill="#2B303F"/>
<path d="M226.606 338.803L229.64 340.551C229.894 340.697 229.858 340.952 229.64 341.11L226.739 342.785C226.589 342.863 226.423 342.903 226.254 342.903C226.085 342.903 225.918 342.863 225.768 342.785L222.735 341.037C222.492 340.891 222.516 340.636 222.807 340.478L225.696 338.803C225.838 338.735 225.993 338.7 226.151 338.7C226.308 338.7 226.464 338.735 226.606 338.803Z" fill="#2B303F"/>
<path d="M222.31 336.278L225.356 338.038C225.599 338.184 225.562 338.427 225.283 338.597L222.383 340.272C222.232 340.347 222.066 340.386 221.897 340.386C221.729 340.386 221.563 340.347 221.412 340.272L218.378 338.524C218.135 338.378 218.159 338.123 218.451 337.965L221.351 336.29C221.499 336.214 221.663 336.174 221.829 336.172C221.995 336.17 222.16 336.206 222.31 336.278Z" fill="#2B303F"/>
<path d="M218.026 333.85L221.06 335.61C221.303 335.744 221.278 335.999 220.987 336.169L218.087 337.832C217.939 337.909 217.774 337.949 217.607 337.949C217.441 337.949 217.276 337.909 217.128 337.832L214.082 336.072C213.839 335.926 213.864 335.683 214.155 335.513L217.055 333.838C217.207 333.765 217.374 333.728 217.542 333.73C217.71 333.732 217.876 333.773 218.026 333.85Z" fill="#2B303F"/>
<path d="M213.73 331.422L216.764 333.17C217.007 333.316 216.982 333.571 216.691 333.729L213.791 335.404C213.643 335.482 213.478 335.522 213.311 335.522C213.144 335.522 212.98 335.482 212.832 335.404L209.798 333.656C209.543 333.51 209.58 333.267 209.859 333.097L212.759 331.422C212.91 331.347 213.076 331.308 213.245 331.308C213.413 331.308 213.579 331.347 213.73 331.422Z" fill="#2B303F"/>
<path d="M209.434 328.885L212.468 330.633C212.723 330.779 212.686 331.021 212.395 331.191L209.507 332.867C209.357 332.944 209.19 332.985 209.022 332.985C208.853 332.985 208.686 332.944 208.536 332.867L205.502 331.118C205.247 330.973 205.284 330.718 205.502 330.56L208.403 328.885C208.56 328.796 208.738 328.75 208.918 328.75C209.099 328.75 209.277 328.796 209.434 328.885Z" fill="#2B303F"/>
<path d="M205.09 326.396L208.123 328.156C208.378 328.302 208.342 328.545 208.123 328.715L205.223 330.39C205.072 330.465 204.906 330.504 204.738 330.504C204.569 330.504 204.403 330.465 204.252 330.39L201.218 328.63C200.964 328.496 201 328.241 201.291 328.071L204.179 326.408C204.322 326.342 204.476 326.306 204.633 326.304C204.79 326.302 204.946 326.333 205.09 326.396Z" fill="#2B303F"/>
<path d="M200.842 323.92L203.888 325.68C204.131 325.813 204.095 326.068 203.815 326.226L200.915 327.901C200.764 327.975 200.598 328.014 200.43 328.014C200.261 328.014 200.095 327.975 199.944 327.901L196.91 326.141C196.668 325.995 196.692 325.753 196.983 325.583L199.884 323.907C200.033 323.834 200.198 323.798 200.364 323.8C200.531 323.802 200.694 323.843 200.842 323.92Z" fill="#2B303F"/>
<path d="M196.595 321.443L199.641 323.191C199.883 323.337 199.859 323.592 199.568 323.75L196.595 325.425C196.447 325.502 196.282 325.543 196.115 325.543C195.948 325.543 195.784 325.502 195.636 325.425L192.59 323.677C192.347 323.531 192.372 323.288 192.663 323.118L195.563 321.443C195.72 321.352 195.898 321.305 196.079 321.305C196.26 321.305 196.438 321.352 196.595 321.443Z" fill="#2B303F"/>
<path d="M186.947 315.895L195.296 320.751C195.539 320.897 195.515 321.139 195.223 321.309L192.323 322.924C192.174 322.999 192.01 323.038 191.844 323.038C191.677 323.038 191.513 322.999 191.364 322.924L183.015 318.068C182.76 317.922 182.797 317.667 183.076 317.51L185.976 315.834C186.131 315.766 186.3 315.736 186.469 315.746C186.638 315.757 186.802 315.808 186.947 315.895Z" fill="#2B303F"/>
<path d="M243.778 348.721L247.928 351.149C248.171 351.295 248.134 351.538 247.855 351.708L244.955 353.383C244.804 353.458 244.638 353.497 244.469 353.497C244.301 353.497 244.135 353.458 243.984 353.383L239.846 350.955C239.603 350.81 239.627 350.567 239.918 350.397L242.819 348.721C242.967 348.644 243.131 348.603 243.298 348.603C243.465 348.603 243.63 348.644 243.778 348.721Z" fill="#2B303F"/>
<path d="M170.127 325.607L231.108 360.813C231.351 360.959 231.327 361.201 231.035 361.371L229.591 362.209C229.44 362.284 229.274 362.323 229.106 362.323C228.937 362.323 228.771 362.284 228.62 362.209L167.64 327.003C167.397 326.857 167.433 326.602 167.712 326.445L169.157 325.607C169.307 325.529 169.473 325.489 169.642 325.489C169.811 325.489 169.977 325.529 170.127 325.607Z" fill="#2B303F"/>
<path d="M241.484 327.173L241.083 327.404L230.55 333.486L211.813 322.669L211.424 322.451L222.358 316.138L241.484 327.173Z" fill="#BFBFBF"/>
<path d="M241.083 327.404L230.55 333.486L211.813 322.669L222.358 316.587L241.083 327.404Z" fill="#E5E5E5"/>
<path d="M271.531 341.377V342.348C271.532 343.024 271.355 343.688 271.018 344.273C270.682 344.859 270.198 345.347 269.614 345.686L232.467 367.138C231.884 367.474 231.223 367.65 230.55 367.648C229.877 367.647 229.217 367.471 228.632 367.138L161.426 328.29C160.843 327.95 160.358 327.463 160.022 326.877C159.685 326.291 159.508 325.627 159.509 324.951V324.017L230.574 365.05L271.531 341.377Z" fill="#E5E5E5"/>
<path d="M233.572 272.919L221.108 265.866C221.108 265.866 209.665 276.792 209.665 277.229C205.06 282.461 200.808 287.993 196.935 293.788C195.369 296.01 193.682 297.345 190.224 301.278C186.765 305.212 183.67 310.481 182.736 314.572C181.802 318.663 182.117 320.205 182.87 320.642C183.816 321.212 184.738 320.508 185.382 318.675C186.2 315.639 187.529 312.765 189.313 310.177C189.313 310.177 187.712 314.159 186.959 316.599C186.29 318.74 185.91 320.961 185.831 323.203C185.831 325.328 188.44 326.845 189.131 325.024C189.823 323.203 189.872 321.625 191.037 318.019C191.652 316.078 192.487 314.212 193.524 312.459C192.889 314.873 192.447 317.333 192.202 319.816C191.947 323.228 192.566 324.599 193.015 325.473C193.464 326.348 195.333 326.687 195.891 324.369C196.388 322.244 196.109 319.452 197.699 315.47C198.913 312.569 200.126 310.614 200.345 311.136C200.563 311.658 199.823 313.309 200.078 315.871C200.332 318.432 202.08 320.423 203.512 320.023C204.944 319.622 204.653 319.67 204.823 317.073C204.992 314.475 205.963 312.132 205.891 308.477C205.65 305.936 206.029 303.374 206.995 301.011C208.075 298.243 213.33 292.076 219.252 286.201L233.572 272.919Z" fill="#FFCEA9"/>
<path d="M229.47 365.62C228.835 365.866 228.154 365.966 227.475 365.914C226.797 365.861 226.139 365.657 225.55 365.317L158.635 326.675C158.056 326.34 157.557 325.881 157.176 325.332C156.794 324.782 156.538 324.155 156.426 323.495L149.145 279.791C149.127 279.544 149.127 279.297 149.145 279.05C149.145 278.448 149.263 277.851 149.495 277.295C149.726 276.738 150.065 276.233 150.492 275.809L220.028 315.968C220.462 316.227 220.833 316.579 221.115 316.999C221.396 317.419 221.58 317.896 221.655 318.396L229.47 365.62Z" fill="#F6F8FB"/>
<path d="M230.574 365.05L230.113 365.317C229.914 365.433 229.707 365.534 229.494 365.62L221.57 318.335C221.495 317.835 221.311 317.358 221.03 316.938C220.748 316.518 220.377 316.166 219.943 315.907L150.407 275.748C150.687 275.474 151.001 275.238 151.342 275.044L221.011 315.276C221.438 315.525 221.805 315.865 222.086 316.272C222.367 316.679 222.556 317.143 222.638 317.631L230.574 365.05Z" fill="#E5E5E5"/>
<path d="M241.702 247.656C241.702 247.656 236.46 247.389 234.3 244.33C234.7 239.109 241.387 219.261 254.833 217.779C251.173 220.35 248.269 223.854 246.423 227.928C243.984 233.865 241.702 247.656 241.702 247.656Z" fill="#EDEDED"/>
<path opacity="0.4" d="M89.1958 307.154C93.8069 307.154 97.545 304.996 97.545 302.335C97.545 299.673 93.8069 297.515 89.1958 297.515C84.5846 297.515 80.8466 299.673 80.8466 302.335C80.8466 304.996 84.5846 307.154 89.1958 307.154Z" fill="#D6D8E5"/>
<path d="M90.385 306.256C94.9962 306.256 98.7342 304.098 98.7342 301.436C98.7342 298.774 94.9962 296.617 90.385 296.617C85.7739 296.617 82.0358 298.774 82.0358 301.436C82.0358 304.098 85.7739 306.256 90.385 306.256Z" fill="#D6D8E5"/>
<path d="M79.2083 284.95L82.1329 301.776H98.71L101.562 285.071L79.2083 284.95Z" fill="#D6D8E5"/>
<path d="M90.3851 291.202C96.5645 291.202 101.574 288.311 101.574 284.744C101.574 281.177 96.5645 278.285 90.3851 278.285C84.2056 278.285 79.1962 281.177 79.1962 284.744C79.1962 288.311 84.2056 291.202 90.3851 291.202Z" fill="#E4E6EF"/>
<path d="M90.385 289.782C87.8807 289.838 85.4037 289.253 83.1887 288.082C81.5625 287.135 80.6281 285.921 80.6281 284.744C80.6281 283.566 81.5625 282.316 83.1887 281.405C85.4231 280.288 87.8869 279.706 90.385 279.706C92.8832 279.706 95.347 280.288 97.5814 281.405C99.2197 282.352 100.154 283.566 100.154 284.744C100.154 285.921 99.2197 287.172 97.5814 288.082C95.367 289.254 92.8895 289.839 90.385 289.782Z" fill="#28221C"/>
<path d="M95.2028 279.657C95.3619 277.482 95.0164 275.299 94.1934 273.28C93.3703 271.26 92.0919 269.459 90.4579 268.015C88.8239 269.459 87.5455 271.26 86.7224 273.28C85.8993 275.299 85.5538 277.482 85.7129 279.657L79.3175 279.05C82.0237 289.223 90.5064 288.349 90.5064 288.349C91.1375 288.349 99.0012 288.811 101.635 279.05L95.2028 279.657Z" fill="#99B524"/>
<path d="M90.4579 288.374C90.4579 288.374 89.8875 280.446 79.2447 275.117C79.2447 275.117 76.7327 288.276 90.4579 288.374Z" fill="#A6CE28"/>
<path d="M90.385 288.374C90.385 288.374 91.0161 280.434 101.598 275.117C101.598 275.117 104.11 288.276 90.385 288.374Z" fill="#A6CE28"/>
<path opacity="0.4" d="M311.675 418.781C317.694 418.781 322.573 415.966 322.573 412.493C322.573 409.02 317.694 406.204 311.675 406.204C305.657 406.204 300.778 409.02 300.778 412.493C300.778 415.966 305.657 418.781 311.675 418.781Z" fill="#D6D8E5"/>
<path d="M323.641 411.546V394.805L301.894 395.351V410.83C301.482 412.699 302.513 414.642 304.989 416.074C307.378 417.283 310.018 417.913 312.695 417.913C315.372 417.913 318.012 417.283 320.401 416.074C322.597 414.836 323.653 413.221 323.641 411.546Z" fill="#D6D8E5"/>
<path d="M312.743 401.093C318.762 401.093 323.641 398.278 323.641 394.805C323.641 391.332 318.762 388.516 312.743 388.516C306.725 388.516 301.846 391.332 301.846 394.805C301.846 398.278 306.725 401.093 312.743 401.093Z" fill="#E4E6EF"/>
<path d="M321.918 394.805C321.918 395.837 321.068 396.905 319.588 397.767C317.691 398.764 315.589 399.308 313.447 399.357H312.743C310.363 399.401 308.01 398.846 305.899 397.743C304.419 396.881 303.569 395.813 303.569 394.781C303.569 393.749 304.419 392.68 305.899 391.831C308.007 390.722 310.362 390.167 312.743 390.216H313.447C315.591 390.263 317.694 390.812 319.588 391.819C321.068 392.705 321.918 393.785 321.918 394.805Z" fill="#28221C"/>
<path opacity="0.07" d="M321.918 394.805C321.918 395.837 321.068 396.905 319.588 397.767C317.707 398.81 315.592 399.357 313.441 399.357C311.291 399.357 309.176 398.81 307.295 397.767C305.814 396.905 304.965 395.837 304.965 394.805C304.965 393.773 305.814 392.705 307.295 391.855C309.173 390.804 311.289 390.253 313.441 390.253C315.593 390.253 317.709 390.804 319.588 391.855C321.068 392.705 321.918 393.785 321.918 394.805Z" fill="white"/>
<path d="M322.051 402.587L319.733 401.239L318.617 401.895L319.733 402.55V402.975L321.906 404.189L321.845 404.59C322.378 405.335 322.856 406.118 323.277 406.933L323.362 406.86V412.262C323.362 413.683 322.525 413.197 322.148 412.991L319.721 411.595L318.605 412.238L319.721 412.893V413.318L322.148 414.727C322.397 414.873 322.662 414.991 322.937 415.079L322.792 415.759L324.005 415.042C324.277 414.811 324.487 414.516 324.616 414.183C324.746 413.85 324.79 413.49 324.745 413.136V407.491C324.689 406.525 324.418 405.583 323.952 404.734C323.486 403.886 322.837 403.152 322.051 402.587Z" fill="#B0B4C1"/>
<path d="M321.044 415.419L318.617 414.01V412.274L321.044 413.683C321.408 413.889 322.258 414.375 322.258 412.954V407.309C322.215 406.826 322.067 406.358 321.823 405.939C321.58 405.519 321.248 405.158 320.85 404.881L318.641 403.667V401.931L320.947 403.266C321.755 403.827 322.426 404.562 322.911 405.417C323.397 406.273 323.683 407.226 323.75 408.207V413.853C323.726 415.346 323.022 416.56 321.044 415.419Z" fill="#BFC2D1"/>
<path d="M76.5506 125.576C74.6453 120.574 72.5823 118.669 68.3713 115.961C64.1603 113.254 53.6145 106.978 44.4765 101.697C35.3385 96.4159 24.7442 90.4309 20.5575 88.3428C17.6571 86.8496 15.7761 86.194 14.2592 86.8496L13.9922 86.9952L13.8344 87.0802L5.06049 91.7905L10.1453 95.5904C9.57739 100.124 9.33002 104.692 9.40499 109.26C9.40499 121.048 10.4122 128.393 12.3782 133.394C14.3441 138.396 16.3586 140.314 20.5454 143.106C24.7321 145.899 35.3142 152.09 44.4765 157.371C51.2481 161.292 58.8085 165.565 63.9661 168.382L65.034 177.353L74.9487 172.085C75.6064 171.702 76.1606 171.164 76.5627 170.518C78.5408 167.799 79.5359 161.608 79.5359 149.88C79.5238 137.923 78.5287 130.626 76.5506 125.576Z" fill="#DB302C"/>
<path d="M67.1335 130.639C65.2403 125.625 63.1773 123.719 58.9663 121.012C54.7553 118.304 44.2095 112.028 35.0715 106.747C25.9335 101.466 15.3392 95.4932 11.1525 93.393C6.96576 91.2928 4.85419 90.7708 2.96106 93.5751C1.06792 96.3795 0 102.486 0 114.322C0 126.11 1.00724 133.455 2.96106 138.457C4.91487 143.458 6.95363 145.377 11.1404 148.169C15.3271 150.961 25.9092 157.152 35.0715 162.445C44.2338 167.738 54.7674 173.651 58.9784 175.799C63.1894 177.948 65.2403 178.385 67.1456 175.569C69.0509 172.752 70.1188 166.658 70.1188 154.87C70.1188 142.985 69.1722 135.677 67.1335 130.639Z" fill="#F44336"/>
<path d="M26.2976 144.709V114.335L48.2022 142.172L26.2976 144.709Z" fill="#F6F8FB"/>
<path d="M247.879 63.9171C247.879 42.0651 232.564 15.5756 213.682 4.66177C204.398 -0.691972 195.988 -1.21399 189.823 2.10023L189.617 2.22163L189.386 2.35517L182.445 6.39779L184.168 7.18689C181.195 11.3266 179.484 17.1538 179.484 24.4257C179.484 46.2777 194.799 72.7672 213.682 83.6689C219.41 86.9831 224.81 88.5249 229.555 88.3307L229.361 90.965L237.855 86.109H237.94L238.062 86.0362C244.117 82.3456 247.879 74.7217 247.879 63.9171Z" fill="#2F9ECE"/>
<path d="M230.124 90.554C243.48 82.8402 243.481 57.8292 230.127 34.6904C216.773 11.5516 195.12 -0.952807 181.765 6.76099C168.409 14.4748 168.408 39.4858 181.762 62.6245C195.116 85.7633 216.769 98.2678 230.124 90.554Z" fill="#37AEE2"/>
<path d="M448.115 104.926L398.893 76.482C398.044 75.8861 397.068 75.4969 396.042 75.3451C395.016 75.1934 393.968 75.2833 392.983 75.6079H392.91C392.628 75.7332 392.359 75.8878 392.109 76.0692L384.246 80.5732L389.816 88.3063V138.53C389.98 141.689 390.887 144.766 392.465 147.508C394.042 150.251 396.245 152.582 398.893 154.312L423.164 168.333V140.545L416.902 136.903C416.473 136.621 416.117 136.243 415.862 135.798C415.607 135.352 415.46 134.854 415.434 134.341V125.37C415.434 124.423 416.101 124.034 416.914 124.508L423.152 128.15V119.506C423.152 109.454 428.467 107.051 436.234 111.53L442.605 115.172C443.039 115.455 443.4 115.837 443.657 116.286C443.915 116.736 444.062 117.24 444.086 117.758V125.309C444.086 126.256 443.43 126.632 442.617 126.159L438.71 123.913C434.486 121.485 433.673 123.318 433.673 126.717V134.208L442.945 139.61C443.402 139.905 443.777 140.312 444.034 140.792C444.291 141.272 444.422 141.809 444.413 142.354L443.491 150.852C443.406 151.665 442.775 151.944 442.023 151.507L433.71 146.651V174.428L443.831 180.279L445.615 188.534L454.51 183.435L454.607 183.375H454.68C456.258 182.391 457.241 180.4 457.241 177.56V120.659C457.064 117.504 456.145 114.434 454.559 111.7C452.974 108.967 450.766 106.646 448.115 104.926Z" fill="#5F55E7"/>
<path d="M408.881 169.79L437.848 186.531L442.617 129.971L433.989 115.803L406.15 99.3295L400.24 111.142C400.24 111.142 400.701 137.255 401.454 142.706C402.206 148.157 408.881 169.79 408.881 169.79Z" fill="#F6F8FB"/>
<path d="M439.717 109.782L390.495 81.338C385.483 78.4365 381.418 80.7917 381.418 86.5825V143.422C381.582 146.582 382.49 149.658 384.067 152.401C385.644 155.143 387.847 157.474 390.495 159.204L414.766 173.226V145.437L408.517 141.795C408.086 141.514 407.728 141.136 407.471 140.691C407.214 140.246 407.065 139.747 407.036 139.234V130.262C407.036 129.315 407.704 128.927 408.517 129.4L414.766 133.042V124.386C414.766 114.335 420.07 111.931 427.836 116.41L434.207 120.052C434.633 120.336 434.987 120.715 435.24 121.16C435.492 121.605 435.638 122.103 435.664 122.614V130.165C435.664 131.112 434.996 131.488 434.183 131.015L430.276 128.769C426.052 126.341 425.239 128.174 425.239 131.573V139.064L434.511 144.43C434.968 144.724 435.343 145.131 435.6 145.611C435.857 146.091 435.988 146.629 435.979 147.173L435.057 155.671C434.972 156.472 434.341 156.764 433.589 156.327L425.276 151.531V179.308L439.717 187.648C444.729 190.549 448.794 188.194 448.794 182.403V125.515C448.623 122.364 447.712 119.297 446.135 116.564C444.558 113.83 442.359 111.507 439.717 109.782Z" fill="#7166F9"/>
<path d="M531 355.702C531 330.548 513.343 299.967 491.572 287.378C480.965 281.308 471.354 280.543 464.267 284.319L464.049 284.452C463.632 284.674 463.227 284.918 462.835 285.181L454.631 290.037L456.913 291.117C453.855 295.828 452.119 302.237 452.119 310.116C452.119 335.27 469.777 365.863 491.56 378.44C496.622 381.576 502.377 383.419 508.319 383.806L508.744 387.12L518.755 381.584C526.304 377.627 531 368.643 531 355.702Z" fill="url(#paint0_linear)" fill-opacity="0.53"/>
<path d="M505.754 378.422C518.744 370.919 518.745 346.592 505.756 324.087C492.767 301.581 471.707 289.418 458.716 296.921C445.726 304.423 445.726 328.75 458.714 351.256C471.703 373.762 492.764 385.924 505.754 378.422Z" fill="#F6F8FB"/>
<path d="M482.567 347.204C486.912 349.717 490.443 347.677 490.443 342.664C490.385 340.527 489.88 338.427 488.963 336.497C487.618 333.429 485.397 330.827 482.579 329.018C479.946 327.501 477.628 327.659 476.184 329.128C475.135 330.361 474.604 331.954 474.703 333.571C474.851 336.302 475.64 338.959 477.006 341.328C478.372 343.697 480.278 345.71 482.567 347.204Z" fill="url(#paint1_linear)"/>
<path d="M499.763 336.934V329.31V328.168L498.78 327.61L492.179 323.822L492.203 332.6L499.763 336.934Z" fill="url(#paint2_linear)"/>
<path d="M482.567 292.695C460.881 280.167 443.236 290.364 443.236 315.409C443.236 340.454 460.881 371.035 482.567 383.563C504.253 396.092 521.898 385.894 521.898 360.849C521.898 335.805 504.266 305.224 482.567 292.695ZM504.945 345.747V366.895C504.945 372.407 501.062 374.653 496.293 371.897L468.854 356.042C466.338 354.4 464.243 352.188 462.74 349.585C461.237 346.983 460.367 344.062 460.202 341.061V309.364C460.202 303.852 464.085 301.606 468.854 304.362L496.341 320.217C498.858 321.859 500.952 324.071 502.456 326.674C503.959 329.276 504.828 332.196 504.994 335.198L504.945 345.747Z" fill="url(#paint3_linear)"/>
<path d="M494.812 345.189C494.812 352.983 489.315 356.115 482.567 352.266C475.82 348.418 470.335 338.852 470.335 331.058C470.303 329.419 470.609 327.791 471.233 326.275L464.558 322.426V343.562C464.638 345.05 465.068 346.498 465.812 347.789C466.557 349.08 467.595 350.177 468.842 350.992L496.341 366.859C498.768 368.218 500.625 367.114 500.625 364.431V343.222L493.95 339.374C494.513 341.261 494.804 343.219 494.812 345.189Z" fill="url(#paint4_linear)"/>
<path d="M197.752 60.3302C196.65 59.99 196.851 59.602 196.802 58.462L196.237 46.476L224.397 38.9743" fill="#C8DAEA"/>
<path d="M197.752 60.3302C198.453 60.5468 198.954 60.2516 199.556 59.9874L205.144 56.8762L200.39 51.5833" fill="#A9C9DD"/>
<path d="M200.751 52.3371L211.784 66.8808C212.96 68.2564 214.288 68.104 215.141 66.3427L227.137 41.025C228.191 38.8757 227.04 37.3954 225.362 37.6645L190.091 40.7209C187.787 40.9091 187.46 42.2705 189.037 43.32L196.697 48.6103L218.77 41.8159C219.797 41.5706 220.548 42.0275 219.771 42.575" fill="#F6FBFE"/>
</g>
<defs>
<linearGradient id="paint0_linear" x1="458" y1="290.5" x2="521.5" y2="379" gradientUnits="userSpaceOnUse">
<stop stop-color="#E4AC04"/>
<stop offset="0.494792" stop-color="#DE261F"/>
<stop offset="1" stop-color="#7A108C"/>
</linearGradient>
<linearGradient id="paint1_linear" x1="475" y1="333.5" x2="487.5" y2="342" gradientUnits="userSpaceOnUse">
<stop stop-color="#FFC107"/>
<stop offset="0.505208" stop-color="#F0423B"/>
<stop offset="1" stop-color="#F0423B"/>
</linearGradient>
<linearGradient id="paint2_linear" x1="492" y1="328.5" x2="499.5" y2="331.5" gradientUnits="userSpaceOnUse">
<stop stop-color="#FFC107"/>
<stop offset="0.5" stop-color="#F0423B" stop-opacity="0.5"/>
<stop offset="1" stop-color="#9C27B0"/>
</linearGradient>
<linearGradient id="paint3_linear" x1="471" y1="373" x2="483" y2="295.5" gradientUnits="userSpaceOnUse">
<stop stop-color="#FFC107"/>
<stop offset="0.505208" stop-color="#F0423B"/>
<stop offset="1" stop-color="#9C27B0"/>
</linearGradient>
<linearGradient id="paint4_linear" x1="465" y1="345" x2="501" y2="352.5" gradientUnits="userSpaceOnUse">
<stop stop-color="#FFC107"/>
<stop offset="0.494792" stop-color="#F0423B"/>
<stop offset="1" stop-color="#9C27B0"/>
</linearGradient>
<clipPath id="clip0">
<rect width="531" height="607" fill="white"/>
</clipPath>
</defs>
</svg>
