<svg width="35" height="35" viewBox="0 0 35 35" fill="none" xmlns="http://www.w3.org/2000/svg">
<path d="M19.1188 8.34163L18.2875 12.5562C18.1125 13.4166 18.3459 14.3062 18.9 14.977C19.4542 15.6479 20.2709 16.0416 21.1459 16.0416H29.1667V17.6166L25.4188 26.25H13.6209C13.3584 26.25 13.125 26.0166 13.125 25.7541V14.3208L19.1188 8.34163ZM20.4167 2.91663L11.0688 12.2645C10.5146 12.8187 10.2084 13.5625 10.2084 14.3354V25.7541C10.2084 27.6354 11.7396 29.1666 13.6209 29.1666H25.4334C26.4688 29.1666 27.4167 28.627 27.9417 27.752L31.8354 18.7833C31.9959 18.4187 32.0834 18.025 32.0834 17.6166V16.0416C32.0834 14.4375 30.7709 13.125 29.1667 13.125H21.1459L22.4875 6.34371C22.5604 6.02288 22.5167 5.67288 22.3709 5.38121C22.0354 4.72496 21.6125 4.12704 21.0875 3.60204L20.4167 2.91663ZM5.83335 13.125H2.91669V29.1666H5.83335C6.63544 29.1666 7.29169 28.5104 7.29169 27.7083V14.5833C7.29169 13.7812 6.63544 13.125 5.83335 13.125Z" fill="#7166F9"/>
</svg>
