<svg width="35" height="35" viewBox="0 0 35 35" fill="none" xmlns="http://www.w3.org/2000/svg">
<path d="M17.5 24.7917C19.1042 24.7917 20.4167 23.4792 20.4167 21.875C20.4167 20.2709 19.1042 18.9584 17.5 18.9584C15.8959 18.9584 14.5834 20.2709 14.5834 21.875C14.5834 23.4792 15.8959 24.7917 17.5 24.7917ZM26.25 11.6667H24.7917V8.75004C24.7917 4.72504 21.525 1.45837 17.5 1.45837C13.475 1.45837 10.2084 4.72504 10.2084 8.75004V11.6667H8.75004C7.14587 11.6667 5.83337 12.9792 5.83337 14.5834V29.1667C5.83337 30.7709 7.14587 32.0834 8.75004 32.0834H26.25C27.8542 32.0834 29.1667 30.7709 29.1667 29.1667V14.5834C29.1667 12.9792 27.8542 11.6667 26.25 11.6667ZM12.9792 8.75004C12.9792 6.25629 15.0063 4.22921 17.5 4.22921C19.9938 4.22921 22.0209 6.25629 22.0209 8.75004V11.6667H12.9792V8.75004ZM26.25 29.1667H8.75004V14.5834H26.25V29.1667Z" fill="#7166F9"/>
</svg>
