<svg width="35" height="35" viewBox="0 0 35 35" fill="none" xmlns="http://www.w3.org/2000/svg">
<path d="M21.875 1.45831H13.125V4.37498H21.875V1.45831ZM16.0417 20.4166H18.9583V11.6666H16.0417V20.4166ZM27.7521 10.7771L29.8229 8.70623C29.1958 7.96248 28.5104 7.26248 27.7667 6.64998L25.6958 8.72081C23.4354 6.91248 20.5917 5.83331 17.5 5.83331C10.2521 5.83331 4.375 11.7104 4.375 18.9583C4.375 26.2062 10.2375 32.0833 17.5 32.0833C24.7625 32.0833 30.625 26.2062 30.625 18.9583C30.625 15.8666 29.5458 13.0229 27.7521 10.7771ZM17.5 29.1666C11.8563 29.1666 7.29167 24.6021 7.29167 18.9583C7.29167 13.3146 11.8563 8.74998 17.5 8.74998C23.1438 8.74998 27.7083 13.3146 27.7083 18.9583C27.7083 24.6021 23.1438 29.1666 17.5 29.1666Z" fill="#7166F9"/>
</svg>
