<svg width="175" height="233" viewBox="0 0 175 233" fill="none" xmlns="http://www.w3.org/2000/svg">
<path d="M160.941 78.0811L28.7202 1.90594C25.1446 -0.152844 21.8766 -0.485319 19.3903 0.627193C19.0465 0.782486 18.7164 0.966425 18.4035 1.17706L4.58807 8.81119L14.6357 22.8774V122.479C14.6357 131.431 20.941 142.325 28.733 146.776L80.5346 176.609L86.8399 192.836L80.2013 221.57L94.8242 213.462L109.152 193.092L154.008 218.948L155.584 232.362L170.066 224.306C173.077 223.027 175 219.767 175 214.831V102.403C175.038 93.4517 168.733 82.5567 160.941 78.0811Z" fill="#DDDEE4"/>
<path d="M146.331 86.1886L14.0974 10.0135C6.33101 5.53787 0 9.16952 0 18.1208V130.651C0 139.602 6.30538 150.497 14.0974 154.947L65.8989 184.78L80.2013 221.57L94.5166 201.238L146.318 231.084C154.097 235.559 160.415 231.928 160.415 222.976V110.51C160.403 101.559 154.11 90.6642 146.331 86.1886Z" fill="#EEEEEE"/>
<path d="M80.9446 64.5777C97.7973 74.2962 111.421 97.8252 111.356 117.147C111.292 136.469 97.6051 144.269 80.7523 134.551C63.8996 124.832 50.2764 101.303 50.3404 81.9943C50.4045 62.6852 64.1046 54.872 80.9446 64.5777ZM97.6051 121.226L87.1859 103.222L97.682 97.2498L91.3767 86.3548L80.8805 92.3266L70.4612 74.309L64.1174 77.9151L74.5367 95.9071L64.0406 101.879L70.3331 112.761L80.8292 106.789L91.2485 124.807L97.5923 121.201" fill="#FF7B7B"/>
<path d="M91.3639 86.3544L97.6693 97.2494L87.1732 103.221L97.5924 121.226L91.2486 124.832L80.8293 106.814L70.3332 112.773L64.0406 101.904L74.5368 95.9323L64.1047 77.9147L70.4486 74.3086L80.8678 92.3262L91.3639 86.3544Z" fill="white"/>
<path d="M116.355 180.982L116.329 190.892L40.3185 147.095L40.3442 137.198L116.355 180.982Z" fill="#C1C4D3"/>
<path d="M120.533 166.021L120.507 175.931L36.2303 127.39L36.2559 117.479L120.533 166.021Z" fill="#C1C4D3"/>
</svg>
